<svg width="295" height="60" xmlns="http://www.w3.org/2000/svg" xmlns:xlink="http://www.w3.org/1999/xlink">
    <defs>
        <path id="a" d="M0 0h187v60H0z"/>
        <path id="c" d="M0 0h187v60H0z"/>
    </defs>
    <g fill="none" fill-rule="evenodd">
        <path d="M210 22.9c0 1.4-1 2.2-2.6 2.2h-1.6V27h-.8v-6.3h2.4c1.6 0 2.6.8 2.6 2.2zm-.9 0c0-1-.6-1.4-1.8-1.4h-1.5v2.8h1.6c1.1 0 1.7-.5 1.7-1.4zm1.9 1a3.4 3.4 0 113.3 3.2 3.2 3.2 0 01-3.4-3.3l.1.1zm5.7 0a2.5 2.5 0 10-2.4 2.4c1.3 0 2.4-1 2.4-2.4zm11-3.2l-2.1 6.3h-1l-1.6-5-1.7 5h-1l-2-6.3h.9l1.7 5.1 1.7-5.1h.9l1.7 5.2 1.7-5.2h.8zm5.7 5.5v.8h-4.6v-6.3h4.5v.8h-3.6v2h3.2v.7h-3.2v2h3.7zm5.6.8l-1.3-2h-2v2h-.9v-6.3h2.5c1.6 0 2.6.8 2.6 2.2a2 2 0 01-1.4 2L240 27h-1zm0-4.1c0-1-.6-1.4-1.7-1.4h-1.5v2.8h1.5c1.1 0 1.7-.5 1.7-1.4zm7 3.3v.8h-4.6v-6.3h4.5v.8h-3.6v2h3.2v.7h-3.2v2h3.7zm1.4-5.5h2.7a3.2 3.2 0 110 6.3h-2.7v-6.3zm2.6 5.5a2.4 2.4 0 100-4.7h-1.7v4.7h1.7zm-2.2 9.1c0 1-.9 1.7-2.4 1.7h-3v-6.3h2.8c1.4 0 2.2.6 2.2 1.6 0 .6-.3 1.1-.8 1.4.7.1 1.3.8 1.2 1.6zm-4.6-3.9v2h1.9c.9 0 1.4-.3 1.4-1s-.5-1-1.4-1h-1.9zm3.7 3.8c0-.7-.6-1-1.6-1h-2v2h2c1 0 1.5-.2 1.5-1h.1zm4.5-.4V37h-.9v-2.2l-2.5-4.1h1l2 3.3 2-3.3h.9l-2.5 4.1z" fill="#6D6E70" fill-rule="nonzero"/>
        <path d="M260 19.9V34c0 1.7 1 3.3 2.4 4.1l12.6 7.1a5 5 0 004.9 0l12.6-7A4.7 4.7 0 00295 34V19.9c0-1.7-1-3.3-2.4-4.1L280 8.6a5 5 0 00-5 0l-12.5 7.2a4.7 4.7 0 00-2.5 4" fill="#349348"/>
        <path d="M264.4 17L261 29a4 4 0 001 4l9 8.8c1 1 2.6 1.5 4.1 1.1l12.3-3.1a4.2 4.2 0 003-3l3.3-11.9a4 4 0 00-1-4l-9-8.8a4.3 4.3 0 00-4.1-1l-12.3 3a4.2 4.2 0 00-3 3" fill="#73AD43"/>
        <path d="M276 39.4l-2.3-.7c-8.2-2.4-6.6-.8-8.6-9s-2.6-6 3.7-11.8c6.3-5.8 4-5.2 12.3-2.8 8.3 2.4 6.7.8 8.6 9 1.9 8.2 2.6 6.1-3.6 11.8-5.1 4.7-4.7 5.2-8.7 4" fill="#AFD139"/>
        <path d="M270.5 22.6h-4.3c-.1 0-.2 0-.2.2v.6c0 .1 0 .2.2.2h1.5v6.9a.2.2 0 00.3.2h.7c.2 0 .2 0 .2-.2v-6.8h1.6a.2.2 0 00.2-.3v-.6c0-.1 0-.2-.2-.2m3.9 4.4l-.2.1H272l-.1-.1v-.8c0-.3 0-.5.2-.7l.6-.2h.8c.3 0 .5 0 .7.2.2.2.2.4.2.7v.8zm-.7-2.8h-1.1c-.5 0-1 .1-1.4.5a2 2 0 00-.4 1.5v2.5c0 .5.1 1 .4 1.4.4.4.9.6 1.4.6h2.6a.2.2 0 00.3-.3v-.6c0-.1-.1-.2-.3-.2h-2.5c-.5 0-.8-.3-.8-1v-.5l.1-.1h3.3c.1 0 .2 0 .2-.2v-1.6c0-.5-.1-1-.5-1.5-.3-.3-.8-.5-1.3-.5zm13.6 5.3v.1h-1.5a1 1 0 01-.7-.2.9.9 0 01-.3-.6v-.4c0-.2.1-.5.3-.6.2-.2.4-.2.7-.2h1.6l-.1 1.9zm.7-4.7c-.3-.4-.8-.6-1.3-.6h-2.3c-.1 0-.2 0-.2.2v.7c0 .1 0 .2.2.2h2.1c.6 0 .8.3.8 1v.4h-1.6c-.5 0-1 .2-1.4.5-.4.3-.6.8-.6 1.3v.4c0 .5.2 1 .6 1.3.4.3.9.5 1.4.5h2.8v-4.5c0-.5-.2-1-.5-1.4zm-8.7-.6h-.4c-.3 0-.6 0-.8.2a1 1 0 00-.4.5v-.4c0-.2-.1-.3-.2-.3h-.8c-.1 0-.2.1-.2.3v6l.2.2h.8l.2-.2v-4c0-.8.3-1.2 1-1.2h.7c.1 0 .2 0 .2-.2v-.7l-.2-.2m3.7 0h-.4c-.3 0-.6 0-.8.2a1 1 0 00-.4.5v-.4c0-.2 0-.3-.2-.3h-.8l-.1.3v6s0 .2.2.2h.7l.2-.2v-4c0-.8.3-1.2 1-1.2h.7c.1 0 .2 0 .2-.2v-.7c0-.1 0-.2-.2-.2" fill="#FEFEFE"/>
        <mask id="b" fill="#fff">
            <use xlink:href="#a"/>
        </mask>
        <g mask="url(#b)">
            <mask id="d" fill="#fff">
                <use xlink:href="#c"/>
            </mask>
            <g mask="url(#d)" fill-rule="nonzero">
                <path d="M75.6 26h-9.8c0 1 .2 2 .7 3a4.6 4.6 0 004.2 2.5 6 6 0 003-.8l1.4-1 1.5-1.4a2 2 0 011.1-.3c.5 0 .9.1 1.2.4.4.3.5.7.5 1.2s-.2 1-.5 1.6c-.4.6-1 1.2-1.6 1.7-.8.6-1.8 1-2.7 1.4-1.2.4-2.5.6-3.8.5a10 10 0 01-7.4-2.7 10.2 10.2 0 01-2.7-7.5c0-1.4.2-2.7.6-4a8.4 8.4 0 015-5.3 11.2 11.2 0 019.2.4c1.3.8 2.4 1.9 3.2 3.2.6 1.2 1 2.6 1 4 0 1.3-.4 2-1 2.5-.8.3-1.8.5-3.1.5M65.8 23h9c0-1.7-.5-3-1.3-3.8a4.3 4.3 0 00-3.2-1.2 4 4 0 00-3 1.2c-.9 1-1.3 2.2-1.5 3.9" fill="#FCC301"/>
                <path d="M90.3 10.4v19.5h11c1 0 1.6.2 2.1.7.5.4.7 1 .7 1.6a2 2 0 01-.7 1.6c-.4.4-1.1.6-2 .6H88.2c-1.2 0-2-.3-2.5-.8s-.8-1.4-.8-2.5V10.4c0-1.1.2-2 .7-2.5.5-.5 1.2-.8 2-.8.7 0 1.4.3 2 .8.5.5.7 1.4.7 2.5" fill="#C14026"/>
                <path d="M109.8 17.6l3.2 11.2 3-10.4.7-2.2c.2-.4.5-.8.9-1.1.5-.4 1-.6 1.7-.6s1.3.2 1.7.6l1 1.1.7 2.2 2.9 10.4 3.3-11.2.5-1.7.7-1c.3-.2.8-.4 1.4-.4.6 0 1.1.3 1.5.7.5.3.7.9.7 1.4a7 7 0 01-.6 2.3l-4 12a42 42 0 01-.9 2.2c-.2.5-.5 1-.9 1.2-.4.4-1 .6-1.7.6s-1.3-.2-1.8-.6c-.4-.4-.8-.9-1-1.4l-.6-2.2-2.9-9.7-2.8 9.7a12 12 0 01-1.2 3.1c-.4.7-1.1 1-2.2 1-.5.1-1 0-1.4-.2-.4-.3-.8-.6-1-1l-.7-1.4-.4-1.3-4-12c-.5-1-.7-1.8-.7-2.3 0-.5.3-1 .7-1.4.4-.4 1-.7 1.5-.7.9 0 1.4.3 1.7.7l1 2.5" fill="#9FB742"/>
                <path d="M150 32a11.3 11.3 0 01-7.3 2.8 8 8 0 01-3.4-.7 5.6 5.6 0 01-3-4.9 5 5 0 011.3-3.5c.9-1 2-1.6 3.6-2l2.4-.4 6.1-1.5c0-1.3-.3-2.3-.8-3-.5-.5-1.4-.8-3-.8-1.2 0-2.1.1-2.8.5-.7.4-1.2 1-1.6 1.6l-1 1.4c-.2.2-.6.3-1.2.3s-1-.2-1.5-.5a2 2 0 01-.6-1.4c0-1 .4-1.8 1-2.6s1.5-1.5 2.9-2c1.3-.6 3-.8 4.9-.8 2.2 0 4 .2 5.2.8 1.2.4 2.1 1.3 2.6 2.4.6 1.1.8 2.6.8 4.5v5.7c0 1 .2 2 .5 3l.4 2c0 .5-.2 1-.7 1.3-.4.4-1 .6-1.6.6-.5 0-1-.2-1.6-.7a9.5 9.5 0 01-1.5-2m-.4-7.3l-3.2.8a62 62 0 00-2.9.7 4 4 0 00-1.5.8c-.5.4-.8 1-.8 1.7 0 .8.4 1.5 1 2 .5.5 1.3.8 2.2.8a6 6 0 002.7-.7c.8-.4 1.4-1 1.8-1.7.5-.7.7-2 .7-3.7v-.7z" fill="#6E3D3B"/>
                <path d="M174 20.3l-9 10.2h9.8c.8 0 1.4.2 1.8.6.4.3.6.8.6 1.4 0 .5-.2 1-.6 1.3-.4.4-1 .6-1.8.6H161c-1 0-1.6-.2-2.1-.6a2 2 0 01-.2-3l2-2.4 3-3.3 2.5-2.8a76 76 0 003.1-3.7H162a7 7 0 01-2.3-.3c-.5-.2-.8-.7-.8-1.5 0-.5.2-1 .6-1.3.4-.4 1-.5 1.7-.5h11.5c1 0 1.9.1 2.4.4.6.3.9.9.9 1.7 0 .3 0 .6-.2.8 0 .3-.2.5-.4.7 0 .2-.3.4-.5.7l-.9 1" fill="#FCC301"/>
                <path d="M183.3 12.2c-.7 0-1.3-.2-1.8-.7-.5-.4-.7-1-.7-1.8 0-.6.2-1.3.7-1.7.5-.5 1.1-.7 1.8-.7.6 0 1.2.2 1.7.6.5.4.7 1 .7 1.8 0 .7-.2 1.4-.7 1.8-.5.5-1.1.7-1.7.7m2.4 5.2v14.4c0 1-.2 1.8-.7 2.3a2 2 0 01-1.8.7c-.7 0-1.3-.2-1.8-.8-.4-.5-.6-1.2-.6-2.2V17.5c0-1 .2-1.7.6-2.2.5-.5 1.1-.8 1.8-.8s1.4.3 1.8.8c.5.5.7 1.2.7 2M47.3 41.6h-9.5a.5.5 0 100 1h9.5a.5.5 0 100-1" fill="#C14026"/>
                <path d="M26.1 0a2 2 0 00-1.8 1.4H9.1a.5.5 0 100 1h15.2A1.9 1.9 0 1026.1 0m0 2.7a.8.8 0 110-1.7.8.8 0 010 1.7" fill="#FCC301"/>
                <path d="M13.3 4c-.8 0-1.5.6-1.8 1.4H4.6a.5.5 0 100 1h7A1.9 1.9 0 1013.2 4m0 2.7a.8.8 0 110-1.6.8.8 0 010 1.6" fill="#C14026"/>
                <path d="M31.7 4c-.8 0-1.5.6-1.8 1.4H16.2a.5.5 0 100 1H30A1.9 1.9 0 1031.7 4m0 2.7a.8.8 0 110-1.6.8.8 0 010 1.6" fill="#9FB742"/>
                <path d="M22.3 9.4H4a1.9 1.9 0 100 1h18.4a.5.5 0 100-1M2.1 10.8a.8.8 0 110-1.7.8.8 0 010 1.7" fill="#6E3D3B"/>
                <path d="M43.1 9.4H28a1.9 1.9 0 100 1h15.2a.5.5 0 100-1m-17 1.4a.8.8 0 110-1.7.8.8 0 010 1.7" fill="#FCC301"/>
                <path d="M13.6 12a2 2 0 00-1.8 1.4H3.2a.5.5 0 000 1h8.6a1.9 1.9 0 101.8-2.4m0 2.8a.8.8 0 110-1.7.8.8 0 010 1.7" fill="#9FB742"/>
                <path d="M34.1 12a2 2 0 00-1.8 1.4H16.5a.5.5 0 100 1h15.8a1.9 1.9 0 101.8-2.4m0 2.8a.8.8 0 110-1.7.8.8 0 010 1.7" fill="#C14026"/>
                <path d="M46.5 16a2 2 0 00-1.8 1.4H22.8a.5.5 0 100 1h21.9a1.9 1.9 0 101.8-2.3m0 2.7a.8.8 0 110-1.7.8.8 0 010 1.7" fill="#9FB742"/>
                <path d="M19.6 16c-.9 0-1.6.6-1.8 1.4H.5a.5.5 0 100 1h17.3a1.9 1.9 0 101.8-2.3m0 2.7a.8.8 0 110-1.7.8.8 0 010 1.7" fill="#FCC301"/>
                <path d="M25.6 20c-.8 0-1.5.6-1.8 1.4H5.3a.5.5 0 100 1.1h18.5a1.9 1.9 0 101.8-2.4m0 2.7a.8.8 0 110-1.7.8.8 0 010 1.7" fill="#6E3D3B"/>
                <path d="M38.4 20c-.8 0-1.5.6-1.8 1.4h-8a.5.5 0 100 1.1h8a1.9 1.9 0 101.8-2.4m0 2.7a.8.8 0 110-1.7.8.8 0 010 1.7" fill="#FCC301"/>
                <path d="M35 6.4h4.8a.5.5 0 100-1H35a.5.5 0 100 1" fill="#6E3D3B"/>
                <path d="M37 14c0 .2.2.5.5.5h8.1a.5.5 0 100-1h-8c-.4 0-.6.2-.6.4M2.5 20.1a1.9 1.9 0 100 3.8 1.9 1.9 0 000-3.8m0 2.7a.8.8 0 110-1.7.8.8 0 010 1.7" fill="#9FB742"/>
                <path d="M41.3 21.4a.5.5 0 100 1.1H48a.5.5 0 100-1h-6.8zM16 24.1c-.8 0-1.5.6-1.8 1.3H5.4a.5.5 0 100 1.1h8.8a1.9 1.9 0 101.8-2.4m0 2.7a.8.8 0 110-1.7.8.8 0 010 1.7" fill="#C14026"/>
                <path d="M33 24.1a2 2 0 00-1.7 1.3H19.6a.5.5 0 100 1.1h11.7a1.9 1.9 0 101.8-2.4m0 2.7a.8.8 0 110-1.7.8.8 0 010 1.7" fill="#9FB742"/>
                <path d="M55.1 24.1a2 2 0 00-1.8 1.3H36.4a.5.5 0 100 1.1h17a1.9 1.9 0 101.7-2.4m0 2.7a.8.8 0 110-1.7.8.8 0 010 1.7" fill="#6E3D3B"/>
                <path d="M35 30c0-.3-.3-.5-.5-.5H22a.5.5 0 100 1h12.4c.2 0 .5-.2.5-.5" fill="#C14026"/>
                <path d="M50.7 29.5H40.3a1.9 1.9 0 100 1h10.4a.5.5 0 100-1m-12.2 1.3a.8.8 0 110-1.6.8.8 0 010 1.6" fill="#9FB742"/>
                <path d="M34.8 34c0 .3.2.5.5.5h13.1a.5.5 0 100-1H35.3c-.3 0-.5.2-.5.5" fill="#C14026"/>
                <path d="M32.4 32.1c-.9 0-1.6.6-1.8 1.4h-6a.5.5 0 100 1h6a1.9 1.9 0 101.8-2.4m0 2.7a.8.8 0 110-1.6.8.8 0 010 1.6" fill="#6E3D3B"/>
                <path d="M48 36.2c-.8 0-1.5.5-1.7 1.3H25.9a.5.5 0 100 1h20.4a1.9 1.9 0 101.8-2.4m0 2.8a.8.8 0 110-1.7.8.8 0 010 1.7" fill="#FCC301"/>
                <path d="M34.5 40.2a2 2 0 00-1.9 1.3H25a.5.5 0 100 1h7.6a1.9 1.9 0 101.9-2.3m0 2.7a.8.8 0 110-1.7.8.8 0 010 1.7" fill="#9FB742"/>
                <path d="M35.1 45.5h-7.4a1.9 1.9 0 100 1H35a.5.5 0 000-1M26 47a.8.8 0 110-1.7.8.8 0 010 1.7" fill="#6E3D3B"/>
                <path d="M45 45.5h-3a1.9 1.9 0 100 1h3a.5.5 0 100-1M40 47a.8.8 0 110-1.7.8.8 0 010 1.7" fill="#FCC301"/>
                <path d="M34.5 48.2a2 2 0 00-1.9 1.4h-5.2a.5.5 0 100 1h5.2a1.9 1.9 0 101.9-2.4m0 2.7a.8.8 0 110-1.7.8.8 0 010 1.7" fill="#C14026"/>
                <path d="M37.3 50c0 .4.2.6.5.6h5a.5.5 0 100-1h-5c-.3 0-.5.2-.5.5" fill="#6E3D3B"/>
                <path d="M27.3 54.1c0 .3.3.5.6.5H38a1.9 1.9 0 100-1H28c-.3 0-.6.2-.6.5m11.8 0a.8.8 0 111.7 0 .8.8 0 01-1.7 0" fill="#9FB742"/>
                <path d="M30.5 58.1a1.9 1.9 0 003.7.5h5.1a.5.5 0 100-1h-5.1a1.9 1.9 0 00-3.7.5m1 0a.8.8 0 111.7 0 .8.8 0 01-1.7 0" fill="#6E3D3B"/>
                <path d="M69.2 42.1a3 3 0 01-.7 2.2c-.4.5-1 .7-2 .7-.7 0-1.4-.2-1.8-.7-.5-.6-.7-1.3-.7-2.2 0-.9.2-1.6.7-2 .4-.6 1-.8 1.9-.8.8 0 1.4.2 2 .8.4.5.6 1.1.6 2m-4.3 0c0 .7.2 1.2.5 1.6a1.7 1.7 0 002.4 0c.3-.4.4-.9.4-1.6 0-.6-.1-1.2-.4-1.5-.3-.4-.7-.6-1.2-.5-.5 0-1 .1-1.2.5-.3.3-.5.9-.5 1.5m9.3-1c0 .5-.2 1-.6 1.3-.4.3-.9.4-1.6.4h-.6V45h-.9v-5.5h1.6c.7 0 1.2.1 1.6.4.3.3.5.8.5 1.3m-2.8 1h.5c.4 0 .7 0 1-.2.3-.2.4-.5.4-.8a1 1 0 00-.3-.7c-.3-.2-.6-.3-1-.2h-.6V42zm7.2 2.8h-3.2v-5.5h3.2v.8h-2.3v1.5h2.1v.7h-2v1.8h2.1v.7zm6 0h-1.2l-2.7-4.4V45H80v-5.5h1l2.8 4.4v-4.5h.7V45z" fill="#C14026"/>
                <path d="M93.5 42.2c0 .9-.3 1.6-.8 2-.5.6-1.2.8-2.2.8H89v-5.5h1.7c.9 0 1.6.2 2 .7.6.4.8 1.1.8 2m-1 0c0-1.3-.6-2-1.8-2h-.8v4h.7c1.3 0 2-.6 2-2m5.7 2.8l-.6-1.5h-2L95 45h-1l2-5.6h1l2.1 5.6h-1zm-.8-2.3l-.5-1.5a10 10 0 01-.3-1l-.3 1-.5 1.5h1.6zM102 45h-.9v-4.8h-1.6v-.7h4.2v.7H102V45zm6.1 0l-.5-1.5h-2.2L105 45h-1l2.1-5.6h1l2 5.6h-.9zm-.8-2.3l-.5-1.5-.2-.5-.1-.5c0 .4-.2.7-.3 1l-.5 1.5h1.6z" fill="#9FB742"/>
                <path d="M115 43.4c0 .5-.1.9-.5 1.2-.4.3-1 .4-1.4.4-.6 0-1.1 0-1.6-.3V44l.8.2.8.1c.3 0 .6 0 .8-.2.2-.1.3-.3.3-.5s-.1-.4-.3-.5c-.3-.3-.6-.4-1-.6-.4 0-.7-.3-1-.7-.2-.2-.3-.6-.3-.9 0-.4.1-.8.5-1.1a2 2 0 011.3-.4c.5 0 1 .1 1.6.4l-.3.7a3 3 0 00-1.3-.3 1 1 0 00-.7.2l-.2.5v.4l.4.2.7.4.9.5.4.5.2.6m3.5-3.3c-.4 0-.9.2-1.2.5-.3.5-.5 1-.4 1.6 0 .6.1 1.2.4 1.5.3.4.8.6 1.3.5h.6l.7-.2v.8l-1.4.2a3 3 0 01-2-.7 4 4 0 01-.6-2.1c0-.6.1-1 .3-1.6.2-.4.6-.7 1-1a3.5 3.5 0 013 0l-.4.8-.6-.2-.7-.1m2.8-.7h.9V45h-1v-5.5zM127 45h-3v-5.5h3.1v.8h-2.2v1.5h2v.7h-2v1.8h2.2v.7zm6 0h-1.1l-2.8-4.4V45h-.7v-5.5h1l2.8 4.4v-4.5h.8V45zm4-4.8c-.5 0-1 .2-1.3.5-.3.5-.5 1-.4 1.6 0 .6.1 1.2.4 1.5.3.4.8.6 1.3.5h.6l.7-.2v.8l-1.4.2c-.9 0-1.5-.2-2-.7a3 3 0 01-.6-2.1c0-.6.1-1 .3-1.6.2-.4.6-.7 1-1a3.5 3.5 0 013 0l-.4.8-.6-.2-.7-.1m5.9 4.8h-3.1v-5.5h3v.8h-2.1v1.5h2v.7h-2v1.8h2.2v.7z" fill="#6E3D3B"/>
                <path d="M150.2 41c0 .6-.2 1-.6 1.4-.4.3-.9.4-1.6.4h-.6V45h-.9v-5.5h1.6c.7 0 1.2.1 1.6.4.3.3.5.8.5 1.3m-2.8 1h.5c.4 0 .7 0 1-.2.3-.2.4-.5.4-.8a1 1 0 00-.3-.7c-.3-.2-.6-.3-1-.2h-.6V42zm4 2.8v-5.5h1V44h2.3v.8h-3.3zm7.9 0l-.6-1.5h-2.1L156 45h-1l2.1-5.5h1l2.1 5.5h-1zm-.8-2.3l-.6-1.5-.1-.5-.1-.5-.4 1-.5 1.5h1.7zM163 45h-.9v-4.7h-1.6v-.8h4.1v.8H163V45zm3.5 0h-.8v-5.5h3v.8h-2.2V42h2.1v.7h-2V45zm8.3-2.8a3 3 0 01-.6 2.2c-.5.5-1.1.7-2 .7-.8 0-1.4-.2-1.9-.7a3 3 0 01-.6-2.2c0-.9.2-1.6.6-2 .5-.6 1.1-.8 2-.8.8 0 1.4.3 1.9.8.4.4.6 1.1.6 2m-4.2 0c0 .7.2 1.2.5 1.6a1.7 1.7 0 002.4 0c.2-.4.4-.9.4-1.6 0-.6-.1-1.2-.4-1.5-.3-.4-.8-.6-1.2-.5-.5 0-1 .1-1.3.5-.3.3-.4.9-.4 1.5m6.5.6V45h-.9v-5.5h1.6c.7 0 1.2.1 1.5.4.4.3.6.7.6 1.2 0 .7-.4 1.2-1.1 1.5l1.6 2.4h-1.1l-1.3-2.2h-.9zm0-.7h.6c.4 0 .7 0 1-.3l.2-.7c0-.2 0-.5-.3-.6-.3-.2-.6-.3-1-.3h-.5V42zm6.6 3l-1.6-4.7V45h-.8v-5.6h1.3l1.5 4.4 1.6-4.4h1.3V45h-.9v-4.7l-1.6 4.7h-.8z" fill="#000"/>
            </g>
        </g>
    </g>
</svg>
