<svg width="296" height="60" xmlns="http://www.w3.org/2000/svg" xmlns:xlink="http://www.w3.org/1999/xlink">
    <defs>
        <path id="elwazi-logo-white_svg__a" d="M0 0h186v60H0z"/>
        <path id="elwazi-logo-white_svg__c" d="M0 0h186v60H0z"/>
    </defs>
    <g fill="none" fill-rule="evenodd">
        <path d="M208 20.1c0 1.4-1 2.2-2.6 2.2h-1.6v2h-.8v-6.4h2.4c1.6 0 2.6.8 2.6 2.2zm-1 0c0-.9-.5-1.4-1.7-1.4h-1.5v2.8h1.6c1.1 0 1.7-.5 1.7-1.4h-.1zm2 1a3.4 3.4 0 113.3 3.2 3.2 3.2 0 01-3.4-3.2h.1zm5.7 0a2.5 2.5 0 10-2.4 2.4c1.3 0 2.4-1 2.4-2.4zm11-3.2l-2.1 6.3h-1l-1.7-5-1.7 5h-1l-2.1-6.2h1l1.6 5.1 1.8-5h.8l1.8 5 1.7-5 .9-.2zm5.7 5.5v.8h-4.6V18h4.4v.8h-3.5v2h3.1v.7h-3.1v2l3.7-.1zm5.6.8l-1.3-2h-2v2h-.9V18h2.5c1.6 0 2.6.9 2.6 2.2a2 2 0 01-1.4 2l1.5 2.1-1-.1zm0-4c0-1-.6-1.5-1.7-1.5h-1.6v2.8h1.6c1.1 0 1.7-.5 1.7-1.4v.1zm7 3.2v.8h-4.6V18h4.4v.8h-3.5v2h3.2v.7h-3.2v2l3.7-.1zm1.4-5.5h2.6a3.2 3.2 0 110 6.3h-2.6v-6.3zm2.6 5.5a2.4 2.4 0 100-4.7h-1.7v4.7h1.7zm-2.3 9.1c0 1.1-.8 1.7-2.4 1.7h-3V28h2.9c1.4 0 2.2.6 2.2 1.7 0 .6-.3 1.1-.8 1.4.7.2 1.1.8 1.1 1.5v-.1zm-4.5-3.8v2h1.9c.9 0 1.4-.4 1.4-1s-.5-1-1.4-1h-1.9zm3.6 3.8c0-.8-.5-1.1-1.5-1.1h-2v2h2c1 0 1.5-.2 1.5-1v.1zm4.6-.5v2.2h-.9V32l-2.5-4h1l2 3.2 2-3.3h.9l-2.5 4.1z" fill="#FFF" fill-rule="nonzero"/>
        <path d="M259 17.8v15a5 5 0 002.6 4.3l12.9 7.5a5 5 0 005 0l13-7.5a5 5 0 002.5-4.4v-15a5 5 0 00-2.5-4.3l-13-7.5a5 5 0 00-5 0l-13 7.5a5 5 0 00-2.5 4.4z" stroke="#FFF" stroke-width=".8"/>
        <path d="M263.6 14.8L260 27.4c-.4 1.5 0 3.1 1.1 4.2l9.2 9.2c1 1.1 2.7 1.6 4.2 1.2l12.6-3.3a4.4 4.4 0 003-3l3.5-12.6c.4-1.5 0-3.2-1.1-4.3l-9.1-9.2a4.4 4.4 0 00-4.3-1.2l-12.5 3.3a4.3 4.3 0 00-3.1 3.1h.1z" stroke="#FFF" stroke-width=".8"/>
        <path d="M275.5 38.3l-2.4-.7c-8.4-2.6-6.8-.9-8.8-9.5-2-8.6-2.7-6.4 3.8-12.4s4.2-5.6 12.6-3c8.4 2.6 6.9.9 8.9 9.5s2.6 6.4-3.8 12.4c-5.2 5-4.7 5.5-8.9 4.2l-1.4-.5z" stroke="#FFF" stroke-width=".8"/>
        <path d="M269.8 20.6h-4.4c-.1 0-.2 0-.2.2v.7c0 .1 0 .2.2.2h1.5l.1.1V29c0 .2.1.2.3.2h.7c.1 0 .2 0 .2-.2v-7l.1-.2h1.5c.2 0 .2 0 .2-.2v-.7c0-.2 0-.2-.2-.2v-.1zm3.3 1.7H272a2 2 0 00-1.4.6c-.3.4-.5 1-.5 1.5V27c0 .6.1 1.2.5 1.6.4.4.9.6 1.4.5h2.7c.2 0 .3 0 .3-.2v-.7c0-.1-.1-.2-.3-.2h-2.5c-.6 0-1-.4-1-1v-.6l.2-.1h3.4c.1 0 .2-.1.2-.3v-1.6c0-.6-.1-1.2-.5-1.6-.4-.4-.9-.5-1.4-.5zm.7 3l-.1.1h-2.3l-.2-.1v-.9c0-.3 0-.5.2-.7.2-.2.4-.2.7-.2h.9c.2 0 .4 0 .6.2l.2.7v.9zm14-2.4c-.3-.4-.9-.6-1.4-.6h-2.3c-.2 0-.2.1-.2.2v.7c0 .2 0 .3.2.3h2.2c.5 0 .8.3.8 1v.5h-1.6a3 3 0 00-1.5.5c-.4.3-.6.8-.6 1.3v.5c0 .5.2 1 .6 1.4.4.3 1 .5 1.5.5h2.8v-4.8c0-.5-.1-1-.5-1.5zm-.7 5v.1h-1.6a1 1 0 01-.7-.2 1 1 0 01-.2-.7v-.4c0-.3 0-.5.2-.7.2-.2.4-.2.7-.2h1.5l.1.1v2zm-8.2-5.6h-.5c-.2 0-.5 0-.7.2a1 1 0 00-.5.6v-.5c0-.2-.1-.3-.2-.3h-.8c-.1 0-.2.1-.2.3v6.3c0 .2 0 .2.2.2h.8c.1 0 .2 0 .2-.2v-4.2c0-.8.3-1.2 1-1.2h.7c.1 0 .2 0 .2-.2v-.7c0-.2-.1-.3-.2-.3zm3.9 0h-.5c-.2 0-.5 0-.7.2a1 1 0 00-.5.6v-.5c0-.2 0-.3-.2-.3h-.7c-.2 0-.2.1-.2.3v6.3c0 .2 0 .2.2.2h.7c.1 0 .2 0 .2-.2v-4.2c0-.8.3-1.2 1-1.2h.7c.2 0 .2 0 .2-.2v-.7c0-.2 0-.3-.2-.3z" fill="#FFF" fill-rule="nonzero"/>
        <mask id="elwazi-logo-white_svg__b" fill="#fff">
            <use xlink:href="#elwazi-logo-white_svg__a"/>
        </mask>
        <g mask="url(#elwazi-logo-white_svg__b)">
            <mask id="elwazi-logo-white_svg__d" fill="#fff">
                <use xlink:href="#elwazi-logo-white_svg__c"/>
            </mask>
            <g mask="url(#elwazi-logo-white_svg__d)" fill="#FFF" fill-rule="nonzero">
                <path d="M75.2 26h-9.7c0 1 .2 2 .6 3a4.6 4.6 0 004.2 2.5c.6 0 1.1 0 1.6-.2a4 4 0 001.5-.6l1.3-1 1.5-1.4a2 2 0 011-.3c.5 0 1 .1 1.3.4.3.3.5.7.5 1.2s-.2 1-.6 1.6L77 32.9a9 9 0 01-2.7 1.4c-1.2.4-2.5.6-3.7.5-3.2 0-5.7-.9-7.5-2.7a10.2 10.2 0 01-2.6-7.4c0-1.4.2-2.8.6-4.2a9 9 0 012-3.2c.8-1 1.8-1.7 3-2.1a11.1 11.1 0 019.1.5 8.4 8.4 0 014.2 7.2c0 1.3-.4 2-1.1 2.5-.7.3-1.8.5-3 .5M65.5 23h9c-.2-1.7-.6-3-1.4-3.8a4.2 4.2 0 00-3.2-1.2 4 4 0 00-3 1.2c-.8 1-1.3 2.2-1.4 3.9m24.3-12.7v19.5h11c1 0 1.6.2 2 .7.5.4.8 1 .7 1.6a2 2 0 01-.7 1.6c-.4.4-1 .6-2 .6h-13c-1.2 0-2-.3-2.6-.8-.5-.5-.8-1.4-.8-2.5V10.4c0-1.1.3-2 .8-2.5a2.8 2.8 0 013.9 0c.5.5.7 1.4.7 2.5m19.4 7.2l3.2 11.2 3-10.4.7-2.2.8-1.1c.4-.4 1-.6 1.7-.6.8 0 1.4.2 1.8.6.4.3.7.7.9 1.1l.7 2.2 3 10.4 3.2-11.2.5-1.7.7-1c.3-.2.8-.4 1.4-.4.5 0 1.1.3 1.5.7.4.3.7.9.7 1.4a7 7 0 01-.6 2.3l-4 12-.9 2.2c-.2.5-.5 1-.9 1.2-.4.4-1 .6-1.7.6s-1.3-.2-1.8-.6l-1-1.4-.6-2.2-2.9-9.7-2.7 9.7a12 12 0 01-1.2 3.1c-.4.7-1.2 1-2.2 1-.5 0-1 0-1.4-.3-.4-.2-.7-.5-1-.9-.3-.4-.5-1-.6-1.4l-.5-1.3-4-12a8.3 8.3 0 01-.6-2.3c0-.5.2-1 .6-1.4a2 2 0 011.6-.7c.8 0 1.3.3 1.7.7.3.5.5 1.3.9 2.4m40 14.4c-1 .9-2.2 1.6-3.5 2.1-1.2.5-2.4.8-3.7.7-1.2 0-2.4-.2-3.4-.7a5.4 5.4 0 01-3-4.9 5 5 0 011.3-3.5c.9-1 2-1.6 3.5-2l2.4-.4 6.1-1.5c0-1.3-.3-2.3-.8-3-.4-.5-1.4-.9-2.9-.9a6 6 0 00-2.8.6c-.7.4-1.3 1-1.7 1.6l-1 1.4c-.1.2-.5.3-1.1.3a2 2 0 01-1.5-.5 2 2 0 01-.6-1.4c0-1 .3-1.8 1-2.6.5-.8 1.5-1.5 2.8-2 1.3-.6 3-.8 5-.8 2.1 0 3.8.2 5 .8 1.2.4 2.2 1.3 2.7 2.4.5 1.1.8 2.6.8 4.5v5.7c0 1 .1 2 .4 3l.5 2c0 .5-.3 1-.7 1.3-.5.4-1 .6-1.7.6a2 2 0 01-1.5-.7 9.5 9.5 0 01-1.5-2m-.4-7.3l-3.2.8-2.9.7a4 4 0 00-1.5.8c-.5.4-.7 1-.7 1.7 0 .8.3 1.5.8 2a4 4 0 002.3.8 6 6 0 002.7-.7c.8-.4 1.4-1 1.8-1.7.5-.7.7-2 .7-3.7v-.7zm24.2-4.5l-9 10.2h9.6c.8 0 1.4.2 1.8.6.4.3.6.8.6 1.4 0 .5-.2 1-.6 1.3-.4.4-1 .6-1.8.6h-13.4c-1 0-1.7-.2-2.2-.6-.8-.8-1-2.1-.2-3l2-2.4 3-3.3 2.5-2.8 3.2-3.7h-7.4c-1 0-1.8-.1-2.4-.3-.5-.2-.7-.7-.7-1.5 0-.5.1-1 .5-1.3.4-.4 1-.5 1.7-.5h11.5c1 0 1.9.1 2.4.4.6.3.9.9.9 1.7 0 .3 0 .6-.2.8 0 .3-.2.5-.4.7l-.5.7-.9 1m9.2-8.1c-.7 0-1.3-.2-1.8-.7-.5-.4-.7-1-.7-1.8 0-.6.2-1.3.7-1.7.5-.5 1.1-.7 1.8-.7.6 0 1.2.2 1.7.6.5.4.8 1 .8 1.8 0 .7-.3 1.4-.8 1.8-.5.5-1 .7-1.7.7m2.5 5.2v14.4c0 1-.3 1.8-.8 2.3-.4.5-1 .8-1.8.7-.6 0-1.3-.2-1.7-.8-.5-.5-.7-1.2-.7-2.2V17.5c0-1 .2-1.7.6-2.2.5-.5 1.2-.8 1.8-.8.7 0 1.4.3 1.9.8.4.5.7 1.2.7 2M47 41.6h-9.4c-.3 0-.5.3-.5.6 0 .2.2.5.5.5H47c.3 0 .6-.3.6-.5 0-.3-.3-.6-.6-.6M26 0c-.9 0-1.6.6-1.8 1.4H9c-.3 0-.5.2-.5.5s.2.5.5.5h15.2a1.9 1.9 0 003.7-.7c-.1-1-1-1.7-2-1.7m0 2.7a.8.8 0 01-.8-.8c0-.5.4-.9.9-.9a.8.8 0 01.6 1.5l-.6.2M13.3 4c-.9 0-1.6.6-1.8 1.4H4.6c-.3 0-.5.2-.5.5s.2.5.5.5h6.9a1.9 1.9 0 003.6-.7c0-1-.9-1.7-1.8-1.7m0 2.7a.8.8 0 01-.6-1.4.8.8 0 011.4.6c0 .5-.4.8-.8.8M31.6 4c-.9 0-1.6.6-1.8 1.4H16c-.2 0-.5.2-.5.5s.3.5.5.5h13.7a1.9 1.9 0 003.6-.7c0-1-.9-1.7-1.8-1.7m0 2.7a.8.8 0 01-.9-.8c0-.5.4-.8.9-.8.4 0 .8.3.8.8s-.4.8-.8.8m-9.4 2.7H3.9a1.9 1.9 0 00-3.7.5c0 1 .7 1.8 1.6 1.9 1 .1 1.9-.4 2.1-1.4h18.3c.3 0 .5-.2.5-.5s-.2-.5-.5-.5m-20 1.4a.8.8 0 01-1-.9c0-.4.5-.8 1-.8.4 0 .8.4.8.8 0 .5-.4.9-.9.9M43 9.4H27.8a1.9 1.9 0 00-3.7.5c0 1 .7 1.8 1.6 1.9 1 .1 1.8-.4 2-1.4H43c.3 0 .5-.2.5-.5s-.2-.5-.5-.5m-17 1.4a.8.8 0 01-.8-.9c0-.4.3-.8.8-.8s.8.4.8.8c0 .5-.3.9-.8.9M13.5 12c-.8 0-1.6.5-1.8 1.3H3.2a.5.5 0 000 1h8.5a1.9 1.9 0 003.7-.6c-.1-1-1-1.8-1.9-1.8m0 2.8a.8.8 0 01-.6-1.4.8.8 0 011.4.5c0 .5-.3.8-.8.9M34 12a2 2 0 00-1.8 1.3H16.4c-.2 0-.4 0-.6.2v.6l.6.3H32a1.9 1.9 0 003.7-.8c0-1-.9-1.7-1.9-1.7m0 2.8a.8.8 0 01-.8-.9c0-.4.4-.8.8-.8.5 0 .9.4.9.8 0 .5-.4.9-.9.9M46.3 16c-.9 0-1.6.5-1.8 1.3H22.7c-.3 0-.5.3-.5.5 0 .3.2.6.5.6h21.8a1.9 1.9 0 003.6-.8c0-1-.9-1.7-1.9-1.6m0 2.7a.8.8 0 01-.8-.9c0-.4.4-.8.8-.8.5 0 .9.4.9.8 0 .5-.4.9-.9.9M19.5 16c-.9 0-1.6.5-1.8 1.3H.5c-.3 0-.5.3-.5.5 0 .3.2.6.5.6h17.2a1.9 1.9 0 003.6-.7c0-1-.9-1.8-1.8-1.7m0 2.7a.8.8 0 01-.9-.9c0-.4.4-.8.9-.8a.8.8 0 01.5 1.4c-.1.2-.3.3-.5.3m6 1.3c-.8 0-1.6.5-1.8 1.3H5.3c-.3 0-.5.3-.5.6s.2.5.5.5h18.4a1.9 1.9 0 003.7-.7c-.1-1-1-1.7-2-1.7m0 2.7a.8.8 0 01-.7-.8c0-.5.3-.9.8-.9s.8.4.8.9c0 .4-.3.8-.8.8M38.2 20a2 2 0 00-1.8 1.3h-7.9c-.3 0-.5.3-.5.6s.2.5.5.5h8a1.9 1.9 0 003.6-.7c0-1-.9-1.7-1.9-1.7m0 2.7a.8.8 0 01-.8-.8c0-.5.4-.9.8-.9a.8.8 0 01.6 1.4c-.1.2-.4.3-.6.3M34.7 6.4h5c.2 0 .4-.2.4-.5s-.2-.5-.5-.5h-4.9c-.3 0-.5.2-.5.5s.2.5.5.5m2.1 7.5c0 .3.2.6.5.6h8c.4 0 .6-.3.6-.6 0-.2-.2-.5-.5-.5h-8a.5.5 0 00-.6.5M2.5 20.1c-1 0-1.9.8-1.9 1.9a2 2 0 001.9 1.9c1 0 1.9-.9 1.9-2 0-1-.9-1.8-2-1.8m0 2.7a.8.8 0 01-.7-.8c0-.5.3-.9.8-.9s.8.4.8.9c0 .4-.3.8-.8.8M41 21.4c-.3 0-.6.3-.6.6s.3.5.6.5h6.7c.3 0 .6-.2.6-.5s-.3-.6-.6-.6H41zm-25 2.7c-.9 0-1.6.6-1.8 1.3H5.3c-.3 0-.5.3-.5.6s.2.5.5.5h8.9a1.9 1.9 0 003.6-.7c0-1-.9-1.7-1.8-1.7m0 2.7a.8.8 0 01-.9-.8c0-.5.4-.9.9-.9a.8.8 0 01.5 1.5l-.5.2m17-2.7a2 2 0 00-1.9 1.3H19.5c-.3 0-.6.3-.6.6s.3.5.6.5H31a1.9 1.9 0 003.7-.7 2 2 0 00-1.9-1.7m0 2.7a.8.8 0 01-.6-1.4.8.8 0 011.4.6c0 .4-.3.8-.8.8m22-2.7a2 2 0 00-1.9 1.3H36.2c-.3 0-.5.3-.5.6s.2.5.5.5H53a1.9 1.9 0 003.7-.7 2 2 0 00-1.9-1.7m0 2.7a.8.8 0 01-.8-.8c0-.5.4-.9.8-.9.5 0 .8.4.8.9 0 .4-.3.8-.8.8m-20 3.2c0-.3-.2-.5-.5-.5H22c-.3 0-.5.2-.5.5s.2.5.5.5h12.3c.3 0 .5-.2.5-.5m15.6-.5H40a1.9 1.9 0 00-3.6.5c0 1 .6 1.7 1.6 1.9.9.1 1.8-.5 2-1.4h10.4c.3 0 .5-.2.5-.5s-.2-.5-.5-.5m-12.1 1.3a.8.8 0 01-.9-.8c0-.5.4-.8.9-.8a.8.8 0 01.5 1.4l-.5.2M34.6 34c0 .3.2.5.5.5h13c.3 0 .5 0 .6-.2v-.6a.5.5 0 00-.6-.2h-13c-.3 0-.5.2-.5.5m-2.4-1.9a2 2 0 00-1.8 1.4h-6c-.2 0-.4 0-.6.2v.6c.2.2.4.3.6.2h6a1.9 1.9 0 003.7-.7c-.1-1-1-1.7-2-1.7m0 2.7a.8.8 0 01-.7-.8c0-.5.3-.8.8-.8.4 0 .8.3.8.8s-.4.8-.8.8m15.6 1.4a2 2 0 00-1.8 1.3H25.7c-.3 0-.5.2-.5.5s.2.6.5.6H46a1.9 1.9 0 003.7-.8 2 2 0 00-1.9-1.7m0 2.8a.8.8 0 01-.8-.9c0-.4.4-.8.8-.8.5 0 .8.4.8.8 0 .5-.3.9-.8.9m-13.5 1.3c-.9 0-1.6.5-1.8 1.3h-7.6c-.3 0-.6.3-.6.6 0 .2.3.5.6.5h7.6a1.9 1.9 0 003.7-.7c-.1-1-1-1.7-2-1.7m0 2.7a.8.8 0 01-.8-.8c0-.5.4-.9.9-.9.4 0 .8.4.8.9 0 .4-.4.8-.8.8m.6 2.6h-7.4a1.9 1.9 0 00-3.7.6c0 .9.7 1.7 1.7 1.8.9.2 1.8-.4 2-1.3H35a.5.5 0 000-1m-9.2 1.3a.8.8 0 01-.8-.8c0-.5.4-.9.8-.9.5 0 .9.4.9.9 0 .4-.4.8-.9.8m19.1-1.4h-3.1a1.9 1.9 0 00-3.7.6c0 .9.7 1.7 1.6 1.8 1 .2 1.8-.4 2-1.3h3.2a.5.5 0 000-1m-5 1.3a.8.8 0 01-.8-.8c0-.5.4-.9.9-.9.4 0 .8.4.8.9 0 .4-.4.8-.8.8m-5.6 1.3c-.9 0-1.6.5-1.8 1.4h-5.3c-.2 0-.5.2-.5.5s.3.5.5.5h5.3a1.9 1.9 0 003.7-.7c-.1-1-1-1.7-2-1.7m0 2.7a.8.8 0 01-.8-.8c0-.5.4-.9.9-.9.4 0 .8.4.8.9 0 .4-.4.8-.8.8m2.8-.8c0 .3.2.5.5.5h5c.3 0 .5-.2.5-.5s-.2-.5-.5-.5h-5c-.3 0-.5.2-.5.5m-9.9 4c0 .3.2.5.5.5H38a1.9 1.9 0 003.7-.5c0-1-.7-1.7-1.6-1.9-1-.1-1.8.5-2 1.4H27.6c-.3 0-.5.2-.5.5m11.7 0c0-.5.4-.8.8-.8.5 0 .9.3.9.8s-.4.8-.9.8a.8.8 0 01-.8-.8m-8.6 4c0 1 .7 1.7 1.6 1.8 1 .2 1.8-.4 2-1.3H39c.3 0 .6-.2.6-.5s-.3-.5-.6-.5h-5a1.9 1.9 0 00-3.7.5m1 0c0-.5.4-.8.9-.8.4 0 .8.3.8.8s-.4.8-.8.8a.8.8 0 01-.8-.8m37.4-16c0 1-.2 1.7-.7 2.2-.4.5-1 .7-1.9.7-.8 0-1.4-.2-1.9-.7-.4-.6-.6-1.3-.6-2.2 0-.9.2-1.6.6-2 .4-.6 1.1-.8 2-.8.8 0 1.4.2 1.8.8.5.5.7 1.1.7 2m-4.2 0c0 .7.1 1.2.4 1.6a1.7 1.7 0 002.4 0c.3-.4.5-.9.5-1.6 0-.6-.2-1.2-.5-1.5-.3-.4-.7-.6-1.2-.5-.4 0-.9.1-1.2.5-.3.3-.4.8-.4 1.5m9.2-1c0 .5-.2 1-.6 1.3-.3.3-.9.4-1.6.4h-.5V45h-1v-5.5h1.6c.7 0 1.2.1 1.6.4.3.3.5.8.5 1.3M71 42h.4c.4 0 .7 0 1-.2.3-.2.4-.5.4-.8a1 1 0 00-.3-.7c-.3-.2-.6-.3-1-.2H71V42zm7 2.8h-3v-5.5h3v.8h-2v1.5h2v.7h-2v1.8h2.2v.7zm6 0h-1l-2.7-4.4V45h-.8v-5.5h1.1l2.7 4.4v-4.5h.8V45zm8.9-2.7c0 .9-.3 1.6-.8 2-.5.6-1.2.8-2.2.8h-1.5v-5.5h1.7c.9 0 1.6.2 2 .7.6.4.8 1.1.8 2m-1 0c0-1.3-.6-2-1.8-2h-.8v4h.7c1.3 0 2-.6 2-2m5.6 2.8l-.5-1.5H95l-.5 1.5h-1l2-5.6h1l2.1 5.6h-1zm-.7-2.3l-.5-1.5a2 2 0 01-.3-1l-.3 1-.5 1.5H97zm4.5 2.3h-1v-4.8H99v-.7h4.1v.7h-1.6V45zm6 0l-.5-1.5h-2.1l-.6 1.5h-1l2.2-5.6h1l2 5.6h-1zm-.8-2.3l-.5-1.5-.3-1c0 .4-.2.7-.3 1l-.5 1.5h1.6zm7.7.7c0 .5-.1.9-.5 1.2-.4.3-1 .4-1.4.4-.6 0-1.1 0-1.6-.3V44l.8.2.8.1c.3 0 .6 0 .8-.2.2-.1.3-.3.2-.5 0-.2 0-.4-.2-.5-.3-.3-.6-.4-1-.6-.4 0-.7-.3-1-.7-.2-.2-.3-.6-.3-.9 0-.4.1-.8.5-1.1a2 2 0 011.3-.4c.5 0 1 .1 1.6.4l-.3.7a3 3 0 00-1.3-.3 1 1 0 00-.7.2l-.2.5v.4l.4.2.7.4.9.5.4.5c.1.2.2.4.1.6m3.6-3.3c-.5 0-1 .2-1.2.5a3 3 0 00-.5 1.6c0 .6.2 1.2.5 1.5.3.4.8.6 1.2.5h.7l.7-.2v.8a4 4 0 01-1.5.2c-.8 0-1.4-.2-1.8-.7a3 3 0 01-.7-2.1c0-.6.1-1 .3-1.6a2.7 2.7 0 012.3-1.3c.6 0 1 .1 1.6.4l-.3.7a5 5 0 00-.6-.2l-.7-.1m2.7-.7h.9V45h-.9v-5.5zm5.6 5.5h-3v-5.5h3v.8H124v1.5h2.1v.7h-2v1.8h2.1v.7zm6 0h-1.1l-2.8-4.4V45h-.7v-5.5h1l2.8 4.4v-4.5h.8V45zm4-4.8c-.6 0-1 .2-1.3.5-.3.5-.5 1-.4 1.6 0 .6.1 1.2.4 1.5.3.4.8.6 1.2.5h.7l.7-.2v.8a4 4 0 01-1.5.2c-.8 0-1.4-.2-1.8-.7a3 3 0 01-.7-2.1c0-.6.1-1 .3-1.6.2-.4.5-.7 1-1 .4-.2.8-.3 1.3-.3a3 3 0 011.6.4l-.3.7a5 5 0 00-.6-.2l-.7-.1m5.8 4.8h-3v-5.5h3v.8h-2.2v1.5h2.1v.7h-2v1.8h2.1v.7zm7.4-3.8c0 .5-.2 1-.6 1.3-.4.3-1 .5-1.6.4h-.5V45h-1v-5.5h1.6c.7 0 1.2.1 1.6.4.3.3.5.8.5 1.3m-2.7 1h.4c.4 0 .7 0 1-.2.3-.2.4-.5.4-.8a1 1 0 00-.3-.7c-.3-.2-.6-.3-1-.2h-.6V42zm4 2.8v-5.5h.8V44h2.4v.8h-3.3zm7.7 0l-.5-1.5h-2.2l-.5 1.5h-1l2.1-5.5h1l2 5.5h-.9zm-.8-2.3l-.5-1.5a9 9 0 01-.3-1c0 .4-.2.7-.3 1l-.5 1.5h1.6zM162 45h-.8v-4.7h-1.7v-.8h4.2v.8H162V45zm3.5 0h-.8v-5.5h3v.8h-2.2V42h2.1v.7h-2V45zm8.3-2.8c0 1-.2 1.7-.7 2.2-.4.5-1 .7-1.9.7-.8 0-1.4-.2-1.9-.7a3 3 0 01-.6-2.2c0-.9.2-1.6.6-2 .5-.6 1-.8 2-.8.7 0 1.4.2 1.8.8.5.5.7 1.1.7 2m-4.2 0c0 .7.1 1.2.4 1.6a1.7 1.7 0 002.4 0c.3-.4.5-.9.5-1.6 0-.6-.2-1.1-.5-1.5-.3-.4-.7-.6-1.2-.5-.4 0-.9.1-1.2.5-.3.3-.4.8-.4 1.5m6.5.6V45h-1v-5.5h1.6c.7 0 1.2.1 1.6.4.3.3.5.7.5 1.2 0 .7-.4 1.2-1 1.5l1.5 2.4h-1l-1.4-2.2h-.8zm0-.7h.6c.3 0 .6 0 .9-.3.2-.1.3-.4.3-.7 0-.2-.1-.5-.3-.6-.3-.2-.6-.3-1-.3h-.5V42zm6.5 3l-1.6-4.7V45h-.8v-5.6h1.3l1.5 4.4 1.6-4.4h1.3V45h-.9v-4.7l-1.6 4.7h-.8z"/>
            </g>
        </g>
    </g>
</svg>
