<svg xmlns="http://www.w3.org/2000/svg" id="Layer_1" viewBox="0 0 290.2 50.5">
	<style>
		.st0{display:none}.st1{display:inline}.st2{fill:#444545}.st3{enable-background:new}.st4{fill:#c22f43}.st5{fill:#6d6e71}
	</style>
	<g id="grey_red_logo" class="st0">
		<g class="st1">
			<text fill="#c12f42" font-family="AvenirNext-Bold" font-size="53.7" transform="translate(-439 198.5)">
				STAGE
			</text>
			<text class="st2" font-family="AvenirNext-MediumItalic" font-size="10" transform="translate(-437.7 211.2)">
				Search powered by
			</text>
			<text class="st2" font-family="AvenirNext-Medium" font-size="53.7" transform="translate(-554 198.5)">
				Data
			</text>
		</g>
	</g>
	<g id="grey_logo" class="st0">
		<g class="st1">
			<text class="st2" font-family="AvenirNext-Bold" font-size="53.7" transform="translate(-439 278.7)">
				STAGE
			</text>
			<text class="st2" font-family="AvenirNext-MediumItalic" font-size="10" transform="translate(-437.7 291.4)">
				Search powered by
			</text>
			<text class="st2" font-family="AvenirNext-Medium" font-size="53.7" transform="translate(-554 278.7)">
				Data
			</text>
		</g>
	</g>
	<g id="white_logo" class="st0">
		<g class="st1">
			<path d="M-555.4 315h288.8v61.7h-288.8z" class="st2"/>
			<g fill="#fff">
				<text font-family="AvenirNext-Bold" font-size="53.7" transform="translate(-440.4 358.8)">
					STAGE
				</text>
				<text font-family="AvenirNext-MediumItalic" font-size="10" transform="translate(-439 371.5)">
					Search powered by
				</text>
				<text font-family="AvenirNext-Medium" font-size="53.7" transform="translate(-555.4 358.8)">
					Data
				</text>
			</g>
		</g>
	</g>
	<g id="various_logos">
		<g class="st3">
			<path d="M139 15.2c-.8-1-1.8-1.8-3.1-2.4a8.7 8.7 0 0 0-3.7-.9l-1.9.2c-.7.1-1.2.3-1.7.6s-.9.7-1.3 1.2c-.3.5-.5 1.1-.5 1.9 0 .6.1 1.2.4 1.6s.7.8 1.2 1.1l1.9.9 2.4.8 4 1.4a12.8 12.8 0 0 1 6.6 5.3 9 9 0 0 1 1.1 4.8c0 2.2-.4 4.1-1.2 5.7-.8 1.6-1.9 2.9-3.2 3.9-1.4 1-2.9 1.8-4.7 2.3-1.8.5-3.6.8-5.4.8-2.7 0-5.4-.5-7.9-1.4-2.5-.9-4.7-2.3-6.3-4.1l6-6.1c.9 1.1 2.2 2.1 3.7 2.9 1.5.8 3 1.2 4.5 1.2l2-.2c.6-.1 1.2-.4 1.7-.7s.9-.8 1.2-1.3c.3-.5.4-1.2.4-1.9s-.2-1.3-.5-1.8c-.4-.5-.9-1-1.5-1.4-.7-.4-1.5-.8-2.5-1.1l-3.4-1.1-3.6-1.4a9.5 9.5 0 0 1-3.1-2.1c-.9-.8-1.6-1.9-2.2-3.1a9.9 9.9 0 0 1-.8-4.4c0-2.1.4-3.9 1.3-5.4s2-2.7 3.4-3.7 3-1.7 4.7-2.1a20 20 0 0 1 11.9.5c2.2.8 4.2 2 5.9 3.5l-5.8 6zM166.2 13.1v30.2H157V13.1h-10.7V5.3H177v7.8h-10.8zM203.7 43.3l-3-7.5H186l-2.8 7.5h-10l16-38h8.9l15.8 38h-10.2zm-10.2-27.9l-4.8 13.1h9.6l-4.8-13.1zM243.4 43.4c-2.5.6-5.2.9-8.1.9-3 0-5.8-.5-8.4-1.5A18.5 18.5 0 0 1 216 32.4a21.8 21.8 0 0 1 0-16.5 19.2 19.2 0 0 1 11-10.3 25.5 25.5 0 0 1 16.5 0c2.6.9 4.7 2.1 6.3 3.7l-5.8 6.6c-.9-1-2.1-1.9-3.5-2.6-1.5-.7-3.1-1-5-1-1.6 0-3.1.3-4.5.9a9.8 9.8 0 0 0-3.5 2.5 12.4 12.4 0 0 0-3.1 8.6c0 1.8.2 3.4.8 4.8a9.7 9.7 0 0 0 5.9 6.3c1.5.6 3.1.9 5 .9l3.1-.2c1-.1 1.9-.4 2.7-.8v-6.9h-7.3V21h15.7v20a51 51 0 0 1-6.9 2.4zM257.4 43.3v-38H283V13h-16.7v7.2h15.8v7.4h-15.8v7.9H284v7.8h-26.6z" class="st4"/>
		</g>
		<g class="st3">
			<path d="M4.6 5.3h13.1c2.4 0 4.9.4 7.3 1.1a18.9 18.9 0 0 1 11.4 9.3c1.2 2.4 1.8 5.3 1.8 8.6s-.6 6.1-1.8 8.5c-1.2 2.4-2.8 4.4-4.8 5.9a23.2 23.2 0 0 1-13.9 4.7H4.6V5.3zm5.3 33.3h6.7a19 19 0 0 0 6.4-1 13.5 13.5 0 0 0 8.3-7.3c.8-1.8 1.2-3.8 1.2-6.1 0-2.4-.4-4.4-1.2-6.2a12.5 12.5 0 0 0-8.3-7.2 22 22 0 0 0-6.4-.9H9.9v28.7zM61.1 26.8c0-1.9-.6-3.3-1.7-4.2a7.2 7.2 0 0 0-4.6-1.4c-1.4 0-2.8.3-4.1.8-1.3.6-2.3 1.3-3.2 2.1L44.8 21c1.3-1.2 2.8-2.1 4.6-2.8A16 16 0 0 1 60 18c1.3.5 2.4 1.2 3.3 2.1a8 8 0 0 1 1.9 3.2c.4 1.2.6 2.5.6 3.9v11.1a24.4 24.4 0 0 0 .4 5h-4.6a15 15 0 0 1-.4-3.7H61a9.8 9.8 0 0 1-3.5 3.2 10 10 0 0 1-5 1.1 11 11 0 0 1-6.1-1.7 7 7 0 0 1-3.1-6.1c0-1.9.5-3.5 1.6-4.6 1-1.1 2.4-2 4.1-2.6a24 24 0 0 1 5.7-1.2 67 67 0 0 1 6.4-.3v-.6zm-1.3 4.4a51 51 0 0 0-7.6.8 6 6 0 0 0-2.7 1.5c-.7.6-1.1 1.5-1.1 2.6a3.6 3.6 0 0 0 1.7 3.1l1.7.7 1.9.2c2.4 0 4.2-.7 5.5-2.1a7.5 7.5 0 0 0 1.9-5.3v-1.3h-1.3zM86.3 22h-6.8v13.2c0 1.5.3 2.6.9 3.3.6.7 1.5 1 2.7 1l1.5-.1 1.5-.4.2 4.1-2 .5-2.3.2c-2.4 0-4.2-.7-5.5-2-1.3-1.3-1.9-3.3-1.9-6V22h-4.9v-4.1h4.9v-7.3h5v7.3h6.8V22zM107.3 26.8c0-1.9-.6-3.3-1.7-4.2a7.2 7.2 0 0 0-4.6-1.4c-1.4 0-2.8.3-4.1.8-1.3.6-2.3 1.3-3.2 2.1L91.1 21c1.3-1.2 2.8-2.1 4.6-2.8a16 16 0 0 1 10.6-.2c1.3.5 2.4 1.2 3.3 2.1a8 8 0 0 1 1.9 3.2c.4 1.2.6 2.5.6 3.9v11.1a24.4 24.4 0 0 0 .4 5H108a15 15 0 0 1-.4-3.7h-.2a9.8 9.8 0 0 1-3.5 3.2 10 10 0 0 1-5 1.1 11 11 0 0 1-6.1-1.7 7 7 0 0 1-3.1-6.1c0-1.9.5-3.5 1.6-4.6 1-1.1 2.4-2 4.1-2.6a24 24 0 0 1 5.7-1.2 67 67 0 0 1 6.4-.3v-.6zm-1.2 4.4a51 51 0 0 0-7.6.8 6 6 0 0 0-2.7 1.5c-.7.6-1.1 1.5-1.1 2.6a3.6 3.6 0 0 0 1.7 3.1l1.7.7 1.9.2c2.4 0 4.2-.7 5.5-2.1a7.5 7.5 0 0 0 1.9-5.3v-1.3h-1.3z" class="st5"/>
		</g>
	</g>
</svg>
