<svg width="960" height="134" xmlns="http://www.w3.org/2000/svg">
    <g fill="none" fill-rule="evenodd">
        <path d="M420.2 35.6a23 23 0 01-2.7 11.6 16.7 16.7 0 01-7.6 7 28.4 28.4 0 01-12.1 2.3h-11.6v-41H399c4.3 0 8 .8 11.2 2.3 3.2 1.5 5.6 3.8 7.4 6.7 1.7 3 2.6 6.7 2.6 11.1zm-9 .2c0-3-.5-5.5-1.4-7.4A9 9 0 00406 24c-1.7-1-3.9-1.4-6.4-1.4H395v26.7h3.7c4.2 0 7.4-1.1 9.5-3.4 2-2.2 3-5.6 3-10zm42.6 20.7l-3-9.7h-15l-2.9 9.7h-9.4L438 15.3h10.6l14.6 41.2h-9.4zm-5-17l-3-9.6a203.5 203.5 0 00-2.4-8.2 71.8 71.8 0 01-2.4 8.2l-3 9.6h10.8zm35.4 17h-8.7V22.7h-11.2v-7.2h31v7.2h-11.1zm42.5 0l-3-9.7h-15l-2.9 9.7h-9.4L511 15.3h10.7L536 56.5h-9.4zm-5-17l-3-9.6a203.6 203.6 0 00-2.4-8.2 71.8 71.8 0 01-2.4 8.2l-3 9.6h10.8zm-101.9 71.3H411V93h-16.2v17.7h-8.7v-41h8.7v16H411v-16h8.7zm43.7-41v26.5c0 2.8-.6 5.4-1.9 7.6-1.2 2.3-3 4.1-5.6 5.4-2.5 1.4-5.7 2-9.5 2-5.4 0-9.5-1.3-12.4-4.1a14.7 14.7 0 01-4.3-11V69.8h8.7v25c0 3.5.7 5.8 2 7.2 1.5 1.4 3.5 2 6.2 2 2 0 3.5-.3 4.7-1 1.2-.6 2-1.6 2.6-3 .6-1.3.8-3 .8-5.2v-25h8.7zm10.1 0h12.7c5.5 0 9.6.7 12.4 2.3 2.8 1.5 4.2 4.2 4.2 8 0 1.6-.2 3-.7 4.3a7 7 0 01-5.6 4.7v.2c1.4.3 2.6.8 3.7 1.4 1.1.7 2 1.7 2.7 3 .6 1.3 1 3 1 5.2a11 11 0 01-1.9 6.4 11 11 0 01-5.2 4c-2.2 1-4.9 1.5-8 1.5h-15.3v-41zm8.6 16.2h5.1c2.5 0 4.3-.4 5.2-1.2 1-.8 1.5-2 1.5-3.5 0-1.6-.6-2.7-1.7-3.4-1.2-.7-3-1-5.5-1h-4.6V86zm0 7v10.6h5.7c2.6 0 4.5-.5 5.5-1.5s1.5-2.4 1.5-4c0-1-.2-2-.6-2.7a4.4 4.4 0 00-2.3-1.8c-1-.5-2.5-.7-4.4-.7h-5.4z" fill="#CF6729" fill-rule="nonzero"/>
        <path d="M41 32H17.6v31.8H41c4.3 0 8-1.6 11-4.7a15 15 0 004.6-11.2c0-4.4-1.5-8-4.5-11.2a15 15 0 00-11-4.6zM2 111.4v-95h39c8.7 0 16 3 22.1 9.2A30.7 30.7 0 0172.3 48c0 8.8-3 16.2-9.2 22.4a30 30 0 01-13.8 8.2l26.9 32.8H56.6l-26-31.7h-13v31.7H2z" fill="#000"/>
        <path d="M41 32H17.6v31.8H41c4.3 0 8-1.6 11-4.7a15 15 0 004.6-11.2c0-4.4-1.5-8-4.5-11.2a15 15 0 00-11-4.6zM2 111.4v-95h39c8.7 0 16 3 22.1 9.2A30.7 30.7 0 0172.3 48c0 8.8-3 16.2-9.2 22.4a30 30 0 01-13.8 8.2l26.9 32.8H56.6l-26-31.7h-13v31.7H2z" stroke="#000" stroke-width="2.4"/>
        <path d="M148.7 82.1l-15.1-30.9-15.2 31h30.3zm-37.4 14.6l-7.1 14.6H86.5l47-91 47.1 91H163l-7.1-14.6h-44.6z" fill="#000"/>
        <path d="M148.7 82.1l-15.1-30.9-15.2 31h30.3zm-37.4 14.6l-7.1 14.6H86.5l47-91 47.1 91H163l-7.1-14.6h-44.6z" stroke="#000" stroke-width="2.4"/>
        <path d="M206.6 32v63.4h19.6c8.6 0 16-3 22.1-9.3a30.7 30.7 0 009.2-22.3c0-8.8-3-16.3-9.2-22.4a30 30 0 00-22.1-9.3h-19.6zM191 16.4h35.2c13 0 24 4.6 33.2 13.9A46 46 0 01273 63.8a46 46 0 01-13.7 33.5 45 45 0 01-33.2 14H191v-95z" fill="#000"/>
        <path d="M206.6 32v63.4h19.6c8.6 0 16-3 22.1-9.3a30.7 30.7 0 009.2-22.3c0-8.8-3-16.3-9.2-22.4a30 30 0 00-22.1-9.3h-19.6zM191 16.4h35.2c13 0 24 4.6 33.2 13.9A46 46 0 01273 63.8a46 46 0 01-13.7 33.5 45 45 0 01-33.2 14H191v-95z" stroke="#000" stroke-width="2.4"/>
        <path stroke="#7F8FA9" stroke-width="8" d="M314.3 63.3l-35.2-44.6h20.5l25 31.7 25-31.7H370l-35.2 44.6L370 108h-20.5l-25-31.7-25 31.7h-20.4z"/>
        <path fill="#FEFEFE" d="M314.3 63.3l-35.2-44.6h20.5l25 31.7 25-31.7H370l-35.2 44.6L370 108h-20.5l-25-31.7-25 31.7h-20.4z"/>
        <g fill-rule="nonzero">
            <path d="M582.7 52.6c2.3 2 3.4 4.5 3.4 8 0 3.4-1 6-3.4 8a15.5 15.5 0 01-9.5 2.7h-8.5v10.1h-3.5V49.8H573c4 0 7.3.9 9.7 2.8zm-2.6 14a7 7 0 002.6-5.8c0-2.6-.9-4.6-2.6-6-1.7-1.3-4-2.2-7.3-2.2h-8.3v16h8.3c3.2 0 5.8-.7 7.3-2zM596 80.3a11.6 11.6 0 01-5.8-10.5c0-2.4.4-4.5 1.5-6.3 1-1.7 2.6-3.2 4.3-4.2 1.9-1.1 3.8-1.6 6.2-1.6a11.9 11.9 0 0110.5 5.8c1 2 1.5 3.9 1.5 6.3a11.7 11.7 0 01-5.8 10.5 12 12 0 01-6.2 1.5c-2.4 0-4.3-.6-6.2-1.5zm11-2.6c1.2-.8 2.3-1.9 3.1-3.2a9 9 0 001.1-5c0-1.9-.4-3.4-1-4.9-1-1.5-1.8-2.6-3.3-3.2a8 8 0 00-4.5-1c-1.7 0-3.2.3-4.5 1-1.3.8-2.4 2-3.2 3.2-1 1.5-1.1 3-1.1 5 0 1.9.4 3.4 1 5 1 1.4 2 2.5 3.3 3.1a8 8 0 004.5 1.1c1.7 0 3-.2 4.5-1zm48.4-20.2l-9 23.9h-3l-7.5-19.6-7.5 19.6h-3l-9-23.9h3l7.5 20.5 7.7-20.5h2.8L645 78l7.5-20.5zm24.8 13.2h-20a8.8 8.8 0 002.9 6 9.4 9.4 0 006.4 2.3c1.5 0 2.8-.2 4-.8a7.1 7.1 0 003.3-2.4l1.7 2.2a12 12 0 01-9.2 4 12.3 12.3 0 01-11-5.7c-1-1.7-1.4-3.9-1.4-6.3 0-2.3.4-4.5 1.5-6.2 1-1.7 2.3-3.2 4-4.3 1.7-1 3.9-1.5 6-1.5 2.2 0 4.3.4 6 1.5 1.7 1 3.2 2.3 4 4.3A11 11 0 01680 70l.2.7zm-17.4-8.2a9.2 9.2 0 00-2.5 5.8h16.9a9 9 0 00-2.6-5.8 7.7 7.7 0 00-5.8-2.2 9 9 0 00-6 2.2zm30.5-3.9c1.5-.8 3.4-1.3 5.6-1.3v3.3h-1a8 8 0 00-6 2.3c-1.4 1.5-2 3.7-2 6.5v12.2h-3.3V57.7h3v4.8c1.1-1.7 2.2-3 3.7-3.9zm31.9 12.1h-19.9a8 8 0 002.8 6 9.4 9.4 0 006.4 2.3c1.5 0 2.8-.2 4.1-.8a7.1 7.1 0 003.2-2.4l1.7 2.2a12 12 0 01-9.2 4 12.3 12.3 0 01-11-5.7c-1-2-1.4-3.9-1.4-6.3 0-2.3.4-4.5 1.5-6.2 1-1.7 2.3-3.2 4-4.3 1.8-1 3.9-1.5 6-1.5 2.2 0 4.3.4 6 1.5 1.8 1 3.3 2.3 4.1 4.3A15 15 0 01725 70l.2.7zM708 62.5a9.2 9.2 0 00-2.6 5.8h17a9 9 0 00-2.6-5.8 7.7 7.7 0 00-5.8-2.2c-2.4 0-4.3.7-6 2.2zm45.7-14.6v33.7h-3V77a10.4 10.4 0 01-9.2 5 11.7 11.7 0 01-10.3-5.8c-1-2-1.4-4-1.4-6.3a11.7 11.7 0 015.7-10.5 12 12 0 0111.2-.2c1.5.8 2.8 1.9 3.8 3.4V48.1h3.2V48zm-7.4 29.8c1.2-.8 2.3-1.9 3.2-3.2.8-1.5 1-3 1-5 0-1.9-.4-3.4-1-4.9-.9-1.5-2-2.6-3.2-3.2a8 8 0 00-4.6-1c-1.7 0-3.2.3-4.5 1-1.3.8-2.3 2-3.2 3.2-.8 1.5-1 3-1 5 0 1.9.3 3.4 1 5 .9 1.4 2 2.5 3.2 3.1a8 8 0 004.5 1.1c1.5.2 3-.2 4.6-1zM793 59c1.7 1.1 3.2 2.4 4.3 4.3 1 2 1.5 3.9 1.5 6.3A11.7 11.7 0 01793 80c-1.7 1-3.9 1.5-6 1.5-2 0-3.9-.4-5.4-1.3a12 12 0 01-3.8-3.6v4.7h-3.2V47.6h3.2V62c1-1.5 2.3-2.8 3.8-3.4a10 10 0 015.2-1.3c2.3.2 4.3.7 6.2 1.7zm-2 18.7c1.3-.8 2.4-1.9 3.3-3.2.8-1.5 1-3 1-5 0-1.9-.4-3.4-1-4.9-.9-1.5-2-2.6-3.2-3.2a8 8 0 00-4.6-1c-1.7 0-3.2.3-4.5 1-1.3.8-2.3 2-3.2 3.2-.9 1.5-1 3-1 5 0 1.9.4 3.4 1 5 .9 1.4 2 2.5 3.2 3.1a8 8 0 004.5 1.1 7 7 0 004.6-1zm33.7-20.2l-12 27c-1 2-2.1 3.8-3.4 4.7a8.2 8.2 0 01-4.5 1.5c-1.1 0-2.2-.3-3.2-.7-1.1-.4-2-.8-2.6-1.7l1.5-2.3a5.5 5.5 0 004.3 1.7c1 0 1.9-.2 2.7-.9a8 8 0 002.2-3l1-2.3-10.6-24h3.4l9 20.5 9-20.4h3.2z" fill="#585B5E"/>
            <path d="M839.7 42v50a17 17 0 008.5 14.6l43.3 25.1c5.2 3 11.6 3 16.7 0l43.4-25A17 17 0 00960 92V42a17 17 0 00-8.4-14.7l-43.4-25c-5.2-3-11.6-3-16.8 0l-43.3 25a17 17 0 00-8.4 14.6z" fill="#359348"/>
            <path d="M854.7 32l-11.4 42c-1.4 5.2 0 10.6 3.7 14.3l30.7 31c3.7 3.8 9 5.3 14 4l42.2-11.1c5-1.4 9-5.3 10.3-10.3l11.5-42.2a15 15 0 00-3.7-14.2l-30.6-31c-3.7-3.8-9-5.3-14-4l-42.2 11.1A15 15 0 00854.7 32z" fill="#73AD43"/>
            <path d="M894.6 110.8l-7.8-2.4c-28.3-8.6-23-3-29.6-31.9-6.7-28.8-9-21.4 12.6-41.6 21.6-20.3 14-18.5 42.3-9.9 28.3 8.6 23 3 29.7 31.9 6.7 28.8 9 21.4-12.6 41.6-17.5 16.4-15.9 18.3-29.6 14l-5-1.7z" fill="#AFD139"/>
            <path d="M875.9 51.3h-15c-.4 0-.7.2-.7.7v2.3c0 .5.3.8.8.8h5c.3 0 .4.2.4.4v23.7c0 .6.3.8.8.8h2.5c.4 0 .7-.2.7-.8V55.5c0-.3.2-.4.4-.4h5c.6 0 .8-.3.8-.8V52c0-.5-.3-.7-.7-.7zm10.8 6h-3.8c-2 0-3.6.6-4.6 1.8-1 1.1-1.6 2.8-1.6 5.1v9c0 2.2.5 3.9 1.6 5a6 6 0 004.6 1.9h9.2c.5 0 .7-.3.7-.7v-2.2c0-.5-.2-.8-.7-.8h-8.6c-2 0-3-1.1-3-3.3v-2c0-.4.2-.5.4-.5h11.3c.5 0 .8-.2.8-.8V64c0-2.2-.6-3.9-1.7-5.1a6.2 6.2 0 00-4.6-1.7zm2.3 9.9c0 .3-.1.4-.4.4H881c-.3 0-.5-.2-.5-.4v-2.9c0-1.1.3-2 .7-2.5.4-.5 1.2-.7 2.2-.7h2.8c1 0 1.7.2 2.2.7.4.6.6 1.4.6 2.5v2.9h.1zm47-8.2a6 6 0 00-4.6-1.8h-7.8c-.5 0-.8.3-.8.7V60c0 .5.3.8.8.8h7.2c2 0 3 1.1 3 3.3V66h-5.6c-2.2 0-3.9.6-5.1 1.7-1.2 1-1.8 2.6-1.8 4.6v1.6c0 2 .6 3.6 1.8 4.6 1.2 1.1 2.8 1.6 5.1 1.6h9.4V64a8 8 0 00-1.6-5zm-2.3 17c0 .2-.2.4-.4.4h-5c-1 0-2-.3-2.4-.7-.5-.4-.8-1.4-.8-2.4V72c0-1 .3-1.8.8-2.2.5-.4 1.3-.7 2.4-.7h5c.3 0 .4.2.4.4V76zM906 57.3h-1.5c-.9 0-1.7.2-2.5.7a3 3 0 00-1.5 1.7h-.2V58c0-.5-.2-.7-.6-.7H897c-.4 0-.7.2-.7.7v21.3c0 .5.3.8.7.8h2.6c.4 0 .6-.3.6-.8V65.1c0-2.7 1.1-4 3.3-4h2.5c.4 0 .6-.2.6-.7v-2.3c0-.6-.2-.8-.6-.8zm13.1 0h-1.5a4 4 0 00-2.5.7c-.8.4-1.3 1-1.5 1.7h-.2V58c0-.5-.3-.7-.7-.7h-2.5c-.4 0-.7.2-.7.7v21.3c0 .5.3.8.7.8h2.5c.4 0 .7-.3.7-.8V65.1c0-2.7 1-4 3.3-4h2.4c.4 0 .7-.2.7-.7v-2.3c0-.6-.3-.8-.7-.8z" fill="#FFF"/>
        </g>
    </g>
</svg>
