<svg width="899" height="135" xmlns="http://www.w3.org/2000/svg">
    <g fill="none" fill-rule="evenodd">
        <path d="M420.2 38.4a23 23 0 01-2.7 11.5 16.7 16.7 0 01-7.6 7 28.4 28.4 0 01-12.1 2.4h-11.6v-41H399c4.3 0 8 .7 11.2 2.2 3.2 1.6 5.6 3.8 7.4 6.8 1.7 3 2.6 6.7 2.6 11zm-9 .2c0-3-.5-5.5-1.4-7.5a9 9 0 00-3.9-4.3c-1.7-1-3.9-1.4-6.4-1.4h-4.6V52h3.7c4.2 0 7.4-1.1 9.5-3.4 2-2.3 3-5.6 3-10.1zm42.6 20.7l-3-9.8h-15l-2.9 9.8h-9.4L438 18h10.6l14.6 41.2h-9.4zm-5-17l-3-9.6a203.5 203.5 0 00-2.4-8.3 71.8 71.8 0 01-2.4 8.3l-3 9.5h10.8zm35.4 17h-8.7V25.5h-11.2v-7.3h31v7.3h-11.1zm42.5 0l-3-9.8h-15l-2.9 9.8h-9.4L511 18h10.7L536 59.3h-9.4zm-5-17l-3-9.6a203.6 203.6 0 00-2.4-8.3 71.8 71.8 0 01-2.4 8.3l-3 9.5h10.8zm-101.9 71.2H411V95.8h-16.2v17.7h-8.7v-41h8.7v16H411v-16h8.7zm43.7-41v26.6a15 15 0 01-1.9 7.6c-1.2 2.3-3 4-5.6 5.4-2.5 1.3-5.7 2-9.5 2-5.4 0-9.5-1.4-12.4-4.2a14.7 14.7 0 01-4.3-11V72.5h8.7v25.1c0 3.4.7 5.8 2 7.1 1.5 1.4 3.5 2 6.2 2 2 0 3.5-.2 4.7-.9a6 6 0 002.6-3c.6-1.4.8-3.1.8-5.2v-25h8.7zm10.1 0h12.7c5.5 0 9.6.8 12.4 2.3 2.8 1.5 4.2 4.2 4.2 8 0 1.6-.2 3-.7 4.3a7 7 0 01-5.6 4.7v.2c1.4.3 2.6.8 3.7 1.5s2 1.7 2.7 3c.6 1.3 1 3 1 5.1a11 11 0 01-1.9 6.4c-1.2 1.8-3 3.2-5.2 4.1-2.2 1-4.9 1.4-8 1.4h-15.3v-41zm8.6 16.3h5.1c2.5 0 4.3-.4 5.2-1.2 1-.8 1.5-2 1.5-3.6 0-1.5-.6-2.7-1.7-3.3-1.2-.7-3-1-5.5-1h-4.6v9zm0 6.9v10.6h5.7c2.6 0 4.5-.5 5.5-1.5s1.5-2.3 1.5-4c0-1-.2-2-.6-2.7a4.4 4.4 0 00-2.3-1.8c-1-.4-2.5-.6-4.4-.6h-5.4zM41 34.8H17.6v31.7H41c4.3 0 8-1.5 11-4.6 3.1-3.1 4.6-6.9 4.6-11.2 0-4.4-1.5-8.1-4.5-11.2a15 15 0 00-11-4.7zM2 114V19h39c8.7 0 16 3 22.1 9.3a30.7 30.7 0 019.2 22.4c0 8.7-3 16.2-9.2 22.4a30 30 0 01-13.8 8.2L76.2 114H56.6l-26-31.7h-13V114H2z" fill="#FFF" fill-rule="nonzero"/>
        <path d="M41 34.8H17.6v31.7H41c4.3 0 8-1.5 11-4.6 3.1-3.1 4.6-6.9 4.6-11.2 0-4.4-1.5-8.1-4.5-11.2a15 15 0 00-11-4.7zM2 114V19h39c8.7 0 16 3 22.1 9.3a30.7 30.7 0 019.2 22.4c0 8.7-3 16.2-9.2 22.4a30 30 0 01-13.8 8.2L76.2 114H56.6l-26-31.7h-13V114H2z" stroke="#FFF" stroke-width="2.4"/>
        <path d="M148.7 84.9l-15.1-31-15.2 31h30.3zm-37.4 14.5l-7.1 14.6H86.5l47-91 47.1 91H163l-7.1-14.6h-44.6z" fill="#FFF" fill-rule="nonzero"/>
        <path d="M148.7 84.9l-15.1-31-15.2 31h30.3zm-37.4 14.5l-7.1 14.6H86.5l47-91 47.1 91H163l-7.1-14.6h-44.6z" stroke="#FFF" stroke-width="2.4"/>
        <path d="M206.6 34.8v63.4h19.6a30 30 0 0022.1-9.3 30.7 30.7 0 009.2-22.4c0-8.7-3-16.2-9.2-22.4a30 30 0 00-22.1-9.3h-19.6zM191 19h35.2c13 0 24 4.6 33.2 14A46 46 0 01273 66.4a46 46 0 01-13.7 33.6 45 45 0 01-33.2 13.9H191V19z" fill="#FFF" fill-rule="nonzero"/>
        <path d="M206.6 34.8v63.4h19.6a30 30 0 0022.1-9.3 30.7 30.7 0 009.2-22.4c0-8.7-3-16.2-9.2-22.4a30 30 0 00-22.1-9.3h-19.6zM191 19h35.2c13 0 24 4.6 33.2 14A46 46 0 01273 66.4a46 46 0 01-13.7 33.6 45 45 0 01-33.2 13.9H191V19z" stroke="#FFF" stroke-width="2.4"/>
        <path d="M378.2 16.4h-30.6l-23.1 29.3-23-29.3h-30.6l38.4 48.7-38.4 48.7h30.6l23.1-29.3 23.1 29.3h30.6l-38.4-48.7 38.3-48.7zm-8.2 93.4h-20.5l-25-31.7-25 31.7H279l35.2-44.7-35.1-44.7h20.5l25 31.7 25-31.7H370l-35.2 44.7 35.2 44.7z" fill="#FFF" fill-rule="nonzero"/>
        <g fill="#FFF" fill-rule="nonzero">
            <path d="M890.6 27.7L847 2.7a17 17 0 00-16.9 0l-43.5 25c-5.2 3-8.4 8.6-8.4 14.6v50.2a17 17 0 008.4 14.6l43.5 25a17 17 0 0016.9 0l43.5-25c5.2-3 8.4-8.6 8.4-14.6V42.3a17 17 0 00-8.4-14.6zm4.2 32.5l-11.5 42c-1.4 5.1-5.4 9-10.5 10.4l-42.3 11c-5 1.4-10.5 0-14.1-3.8l-30.8-31a14.7 14.7 0 01-3.8-14.2l11.6-42c1.3-5.1 5.3-9 10.4-10.4L846 11c5-1.3 10.5.1 14.2 3.9L891 46c3.7 3.7 5.1 9.1 3.7 14.2z" opacity=".5"/>
            <path d="M860.3 15a14.7 14.7 0 00-14.2-4l-42.3 11.1a15 15 0 00-10.4 10.4l-11.5 42c-1.4 5.1 0 10.5 3.7 14.3l30.8 31c3.7 3.7 9.1 5.2 14.2 3.8l42.3-11c5-1.4 9-5.3 10.4-10.4l11.5-42c1.4-5.1 0-10.5-3.7-14.3l-30.8-31zm7.8 84c-17.5 16.3-15.9 18.3-29.7 13.9l-5-1.7-7.8-2.4c-28.4-8.7-23-3-29.7-31.9-6.7-28.8-9-21.4 12.7-41.6 21.6-20.2 14-18.5 42.5-9.8 28.4 8.6 23 3 29.8 31.8 6.7 28.9 9 21.4-12.8 41.7z" opacity=".7"/>
            <path d="M825 61.5h-2.8c-1 0-1.8.3-2.2.8-.5.5-.7 1.3-.7 2.5v2.8c0 .3.1.5.4.5h7.7c.3 0 .4-.2.4-.5v-2.8c0-1.2-.2-2-.6-2.5-.5-.5-1.2-.8-2.3-.8zm47.2 8h-5c-1 0-1.9.2-2.4.7-.5.4-.8 1.1-.8 2.2v1.4c0 1 .3 1.9.8 2.3.5.5 1.3.7 2.5.7h5c.3 0 .4-.1.4-.4v-6.5c0-.3-.2-.4-.5-.4z"/>
            <path d="M851 25.5c-28.4-8.7-20.8-10.4-42.4 9.8-21.7 20.3-19.4 12.8-12.7 41.7 6.7 28.9 1.4 23.2 29.7 31.8l7.8 2.5 5 1.6c13.8 4.4 12.2 2.5 29.7-13.9 21.7-20.2 19.5-12.8 12.8-41.7-6.8-28.9-1.5-23.2-29.8-31.8zm-35.7 29.3c0 .5-.2.8-.7.8h-5.1c-.3 0-.5.1-.5.4v23.8c0 .5-.2.7-.7.7h-2.5c-.5 0-.7-.2-.7-.7V56c0-.3-.2-.4-.5-.4h-5c-.5 0-.7-.3-.7-.8v-2.3c0-.5.2-.8.7-.8h15c.5 0 .7.3.7.8v2.3zm16.5 15.5c0 .5-.3.8-.8.8h-11.3c-.3 0-.5.2-.5.5v1.9c0 2.2 1 3.3 3 3.3h8.6c.5 0 .8.2.8.8v2.2c0 .5-.3.7-.8.7h-9.2c-2 0-3.5-.6-4.6-1.8-1.1-1.2-1.6-2.9-1.6-5v-9c0-2.2.5-3.9 1.6-5 1-1.3 2.6-1.9 4.6-1.9h3.8c2 0 3.5.6 4.7 1.8a8 8 0 011.6 5.1v5.6zm13.8-9.5c0 .5-.3.8-.7.7h-2.4c-2.3 0-3.4 1.4-3.4 4v14.2c0 .5-.2.8-.7.8H836c-.5 0-.7-.3-.7-.8V58.4c0-.5.2-.7.7-.7h2.5c.5 0 .7.2.7.7v1.7h.2c.3-.7.8-1.3 1.6-1.8a5 5 0 012.5-.6h1.5c.5 0 .7.2.7.7v2.4zm13 0c0 .5-.2.8-.6.7h-2.4c-2.3 0-3.3 1.4-3.3 4v14.2c0 .5-.3.8-.7.8H849c-.4 0-.7-.3-.7-.8V58.4c0-.5.3-.7.7-.7h2.6c.4 0 .7.2.7.7v1.7h.1c.3-.7.8-1.3 1.6-1.8a5 5 0 012.5-.6h1.5c.5 0 .7.2.7.7v2.4zm18 6.3v13.4H867c-2.2 0-4-.5-5.1-1.6a5.8 5.8 0 01-1.8-4.6v-1.6A6 6 0 01862 68a8 8 0 015.1-1.6h5.6v-1.7c0-2.2-1-3.3-3-3.3h-7.3c-.5 0-.8-.2-.8-.8v-2.2c0-.5.3-.7.8-.7h7.8c2 0 3.6.6 4.6 1.8a7.2 7.2 0 011.7 5v2.6z"/>
        </g>
        <path d="M612.4 35.8a7.7 7.7 0 012.7 6.4c0 2.7-.8 4.8-2.7 6.4a11.6 11.6 0 01-7.6 2.2H598v8.1h-2.8V33.5h9.5c3.2 0 5.8.7 7.7 2.3zm-2 11.2c1.3-1 2-2.6 2-4.7a6 6 0 00-2-4.8 9.3 9.3 0 00-5.9-1.7h-6.7v12.8h6.7c2.6 0 4.6-.6 5.8-1.6zM623 58a9.3 9.3 0 01-4.6-8.4c0-2 .3-3.7 1.2-5A11 11 0 01623 41c1.6-.8 3-1.2 5-1.2 1.9 0 3.4.4 5 1.2 1.5.9 2.5 2.1 3.4 3.5a9.7 9.7 0 011.2 5A9.4 9.4 0 01633 58c-1.6.9-3.1 1.2-5 1.2s-3.4-.5-5-1.2zm8.8-2a9 9 0 002.5-2.6c.7-1.2 1-2.5 1-4s-.4-2.8-1-4c-.7-1.2-1.3-2-2.5-2.6a7 7 0 00-3.6-.8 8 8 0 00-3.6.8 9 9 0 00-2.6 2.6 7.4 7.4 0 00-.9 4c0 1.5.3 2.8.9 4a6.5 6.5 0 006.2 3.4c1.3 0 2.4-.2 3.6-.8zm38.7-16.3L663.3 59H661l-6-15.7-6 15.7h-2.4l-7.2-19.2h2.4l6 16.4 6.2-16.4h2.2l6.2 16.4 6-16.4zm19.9 10.6h-16c.2 2 1 3.6 2.3 4.8 1.4 1.2 3 1.9 5.2 1.9a7 7 0 003.2-.7c1-.3 1.9-1 2.6-1.9l1.4 1.7a9.6 9.6 0 01-7.4 3.3 9.9 9.9 0 01-8.8-4.6 9.3 9.3 0 01-1.2-5c0-2 .4-3.7 1.2-5 .9-1.4 2-2.6 3.3-3.5a9 9 0 014.8-1.2 9 9 0 014.8 1.2c1.4.9 2.6 1.9 3.2 3.5a9.7 9.7 0 011.2 5l.2.5zm-13.9-6.6a7.4 7.4 0 00-2 4.7H688a7.3 7.3 0 00-2-4.7 6.2 6.2 0 00-4.7-1.7 7 7 0 00-4.8 1.7zm24.4-3.1c1.2-.7 2.7-1 4.4-1v2.6h-.7c-2 0-3.6.6-4.8 1.9-1.2 1.2-1.7 2.9-1.7 5.1v9.9h-2.6V39.9h2.4v3.8a8.6 8.6 0 013-3zm25.5 9.7h-16c.2 2 1 3.6 2.3 4.8a7.7 7.7 0 005.2 1.9 7 7 0 003.2-.7c1-.3 1.9-1 2.6-1.9l1.4 1.7a9.6 9.6 0 01-7.4 3.3 9.9 9.9 0 01-8.8-4.6 9.7 9.7 0 01-1.2-5c0-2 .4-3.7 1.2-5 .9-1.4 2-2.6 3.3-3.5a9 9 0 014.8-1.2 9 9 0 014.8 1.2c1.4.9 2.6 1.9 3.2 3.5a12 12 0 011.2 5l.2.5zm-13.9-6.6a7.4 7.4 0 00-2 4.7H724a7.3 7.3 0 00-2-4.7 6.2 6.2 0 00-4.7-1.7 7 7 0 00-4.8 1.7zM749.2 32v27h-2.4v-3.7a8.3 8.3 0 01-7.3 4 9 9 0 01-4.8-1.3 9.3 9.3 0 01-4.7-8.4 9.4 9.4 0 014.7-8.5 9.6 9.6 0 018.9-.1c1.2.7 2.2 1.5 3 2.7V32.2h2.6V32zm-6 24a9 9 0 002.6-2.6c.7-1.2.9-2.5.9-4s-.4-2.8-.9-4a6.5 6.5 0 00-6.2-3.4c-1.3 0-2.5.3-3.6.8a9 9 0 00-2.6 2.6 7.6 7.6 0 00-.8 4c0 1.5.3 2.8.8 4 .7 1.2 1.6 2 2.6 2.6a7 7 0 003.6.8 6 6 0 003.6-.8zm-19.4 22.6a9.3 9.3 0 014.6 8.5 9.4 9.4 0 01-4.6 8.4 9 9 0 01-4.8 1.2 9 9 0 01-4.3-1 9.7 9.7 0 01-3-3v3.9H709V69.5h2.6V81a7.8 7.8 0 013-2.7c1.3-.7 2.6-1 4.2-1 1.8.1 3.4.5 5 1.3zm-1.5 15a9 9 0 002.6-2.5 9 9 0 00.8-4c0-1.6-.3-2.8-.8-4-.7-1.2-1.6-2-2.6-2.6a7 7 0 00-3.6-.8 8 8 0 00-3.6.8 9 9 0 00-2.6 2.6 7.4 7.4 0 00-.9 4c0 1.5.4 2.7.9 4 .7 1.2 1.5 2 2.6 2.5 1 .7 2.2 1 3.6 1s2.5-.3 3.6-1zm26.9-16.2L739.6 99a10 10 0 01-2.7 3.8c-1 .7-2.3 1.2-3.6 1.2a7 7 0 01-2.6-.5c-.9-.3-1.6-.7-2-1.4l1.1-1.9c1 1 2 1.4 3.4 1.4.9 0 1.6-.2 2.3-.7.7-.5 1.2-1.4 1.7-2.4l.8-1.9-8.5-19.1h2.7l7.2 16.4 7.2-16.4h2.6z" fill="#FFF" fill-rule="nonzero"/>
        <path stroke="#FFF" stroke-width="2" stroke-linecap="round" d="M570.5 18.5v96"/>
    </g>
</svg>
