<svg version="1.1" xmlns="http://www.w3.org/2000/svg"
	 viewBox="0 0 500 463.6" style="enable-background:new 0 0 500 463.6;" xml:space="preserve">
<style type="text/css">
	.st0{fill:#FFFFFF;}
</style>
<g>
	<path class="st0" d="M237.9,330.8c0,6.1,5,11.1,11.1,11.1s11.1-5,11.1-11.1c0-6.1-5-11.1-11.1-11.1S237.9,324.7,237.9,330.8z"/>
	<path class="st0" d="M282.2,330.8c0,6.1,5,11.1,11.1,11.1s11.1-5,11.1-11.1c0-6.1-5-11.1-11.1-11.1S282.2,324.7,282.2,330.8z"/>
	<path class="st0" d="M415.1,364c-6.1,0-11.1,5-11.1,11.1c0,6.1,5,11.1,11.1,11.1s11.1-5,11.1-11.1C426.2,369,421.2,364,415.1,364z"
		/>
	<path class="st0" d="M82.9,364c-6.1,0-11.1,5-11.1,11.1c0,6.1,5,11.1,11.1,11.1c6.1,0,11.1-5,11.1-11.1C94,369,89,364,82.9,364z"/>
	<path class="st0" d="M215.8,42.9c-6.1,0-11.1,5-11.1,11.1c0,6.1,5,11.1,11.1,11.1s11.1-5,11.1-11.1
		C226.9,47.9,221.9,42.9,215.8,42.9z"/>
	<path class="st0" d="M282.2,65c6.1,0,11.1-5,11.1-11.1c0-6.1-5-11.1-11.1-11.1s-11.1,5-11.1,11.1C271.1,60.1,276.1,65,282.2,65z"/>
	<path class="st0" d="M193.6,330.8c0,6.1,5,11.1,11.1,11.1c6.1,0,11.1-5,11.1-11.1c0-6.1-5-11.1-11.1-11.1
		C198.6,319.7,193.6,324.7,193.6,330.8z"/>
	<path class="st0" d="M119.6,209c10.6,0,20.7-2.9,29.7-7.8v29.9h-39.4c-14.3,0-27,9.1-31.5,22.7l-6,18.1c-1.9,5.8,1.2,12.1,7,14
		c5.9,1.9,12.1-1.2,14-7l6-18.1c1.5-4.5,5.7-7.6,10.5-7.6h94.8h88.6h94.8c4.8,0,9,3,10.5,7.6l6,18.1c1.5,4.6,5.9,7.6,10.5,7.6
		c1.2,0,2.3-0.2,3.5-0.6c5.8-1.9,8.9-8.2,7-14l-6-18.1c-4.5-13.6-17.2-22.7-31.5-22.7h-39.4v-47.4c6.6-3.8,11.1-10.9,11.1-19.1
		c0-2-0.3-3.8-0.8-5.7l28.4-28.4c1.8,0.5,3.7,0.8,5.7,0.8c3.5,0,6.8-0.9,9.7-2.4l12.4,8.3v38.4c0,4.2,2.4,8,6.1,9.9l22.1,11.1
		c1.6,0.8,3.3,1.2,4.9,1.2c4.1,0,8-2.2,9.9-6.1c2.7-5.5,0.5-12.1-5-14.9l-16-8v-26.4h26.4l8,16c1.9,3.9,5.8,6.1,9.9,6.1
		c1.7,0,3.4-0.4,4.9-1.2c5.5-2.7,7.7-9.4,5-14.9l-11.1-22.1c-1.9-3.8-5.7-6.1-9.9-6.1h-40.9l-14.6-9.7c0-0.5,0.1-0.9,0.1-1.4
		c0-12.2-9.9-22.1-22.1-22.1c-12.2,0-22.1,9.9-22.1,22.1c0,2,0.3,3.8,0.8,5.7l-28.4,28.4c-1.8-0.5-3.7-0.8-5.7-0.8
		c-12.2,0-22.1,9.9-22.1,22.1c0,8.2,4.5,15.2,11.1,19.1v47.4h-22.1v-11.1c0-18.3-14.9-33.2-33.2-33.2c0-6.1-5-11.1-11.1-11.1v-66.4
		c6.1,0,11.1-5,11.1-11.1h11.1c24.4,0,44.3-19.9,44.3-44.3S306.6,9.7,282.2,9.7h-66.4c-24.4,0-44.3,19.9-44.3,44.3
		s19.9,44.3,44.3,44.3h11.1c0,6.1,5,11.1,11.1,11.1v66.4c-6.1,0-11.1,5-11.1,11.1c-18.3,0-33.2,14.9-33.2,33.2v11.1h-22.1v-44.3
		v-5.3c7.2-10.4,11.1-22.7,11.1-35.5c0-16.8-6.6-32.6-18.4-44.5c-4.3-4.3-11.3-4.3-15.7,0l-28.9,28.9l-6.7-6.7
		c-4.3-4.3-11.3-4.3-15.7,0c-4.3,4.3-4.3,11.3,0,15.7l6.7,6.7l-28.9,28.9c-4.3,4.3-4.3,11.3,0,15.7C87,202.4,102.8,209,119.6,209z
		 M215.8,76.1c-12.2,0-22.1-9.9-22.1-22.1s9.9-22.1,22.1-22.1h66.4c12.2,0,22.1,9.9,22.1,22.1s-9.9,22.1-22.1,22.1H215.8z
		 M215.8,220.1c0-6.1,5-11.1,11.1-11.1h44.3c6.1,0,11.1,5,11.1,11.1v11.1h-66.4V220.1z M155.2,126.1c3.4,6,5.2,12.9,5.2,20
		c0,10.9-4.2,21.2-12,28.9c-12.7,12.7-33.6,15.4-48.8,6.8L155.2,126.1z"/>
	<path class="st0" d="M481.5,364h-1c-1.7-10.1-5.6-19.4-11.3-27.4l0.7-0.7c4.3-4.3,4.3-11.3,0-15.7s-11.3-4.3-15.7,0l-0.7,0.7
		c-8-5.7-17.3-9.6-27.4-11.3v-1c0-6.1-5-11.1-11.1-11.1c-6.1,0-11.1,5-11.1,11.1v1c-10.1,1.7-19.4,5.6-27.4,11.3l-0.7-0.7
		c-4.3-4.3-11.3-4.3-15.7,0s-4.3,11.3,0,15.7l0.7,0.7c-5.7,8-9.6,17.3-11.3,27.4h-1c-6.1,0-11.1,5-11.1,11.1c0,6.1,5,11.1,11.1,11.1
		h1c1.7,10.1,5.6,19.4,11.3,27.4l-0.7,0.7c-4.3,4.3-4.3,11.3,0,15.7c2.2,2.2,5,3.2,7.8,3.2c2.8,0,5.7-1.1,7.8-3.2l0.7-0.7
		c8,5.7,17.3,9.6,27.4,11.3v1c0,6.1,5,11.1,11.1,11.1c6.1,0,11.1-5,11.1-11.1v-1c10.1-1.7,19.4-5.6,27.4-11.3l0.7,0.7
		c2.2,2.2,5,3.2,7.8,3.2c2.8,0,5.7-1.1,7.8-3.2c4.3-4.3,4.3-11.3,0-15.7l-0.7-0.7c5.7-8,9.6-17.3,11.3-27.4h1
		c6.1,0,11.1-5,11.1-11.1C492.6,369,487.6,364,481.5,364z M415.1,419.4c-24.4,0-44.3-19.9-44.3-44.3c0-24.4,19.9-44.3,44.3-44.3
		c24.4,0,44.3,19.9,44.3,44.3C459.4,399.5,439.5,419.4,415.1,419.4z"/>
	<path class="st0" d="M149.3,364h-1c-1.7-10.1-5.6-19.4-11.3-27.4l0.7-0.7c4.3-4.3,4.3-11.3,0-15.7c-4.3-4.3-11.3-4.3-15.7,0
		l-0.7,0.7c-8-5.7-17.3-9.6-27.4-11.3v-1c0-6.1-5-11.1-11.1-11.1c-6.1,0-11.1,5-11.1,11.1v1c-10.1,1.7-19.4,5.6-27.4,11.3l-0.7-0.7
		c-4.3-4.3-11.3-4.3-15.7,0s-4.3,11.3,0,15.7l0.7,0.7c-5.7,8-9.6,17.3-11.3,27.4h-1c-6.1,0-11.1,5-11.1,11.1c0,6.1,5,11.1,11.1,11.1
		h1c1.7,10.1,5.6,19.4,11.3,27.4l-0.7,0.7c-4.3,4.3-4.3,11.3,0,15.7c2.2,2.2,5,3.2,7.8,3.2c2.8,0,5.7-1.1,7.8-3.2l0.7-0.7
		c8,5.7,17.3,9.6,27.4,11.3v1c0,6.1,5,11.1,11.1,11.1c6.1,0,11.1-5,11.1-11.1v-1c10.1-1.7,19.4-5.6,27.4-11.3l0.7,0.7
		c2.2,2.2,5,3.2,7.8,3.2c2.8,0,5.7-1.1,7.8-3.2c4.3-4.3,4.3-11.3,0-15.7l-0.7-0.7c5.7-8,9.6-17.3,11.3-27.4h1
		c6.1,0,11.1-5,11.1-11.1C160.4,369,155.5,364,149.3,364z M82.9,419.4c-24.4,0-44.3-19.9-44.3-44.3c0-24.4,19.9-44.3,44.3-44.3
		c24.4,0,44.3,19.9,44.3,44.3C127.2,399.5,107.3,419.4,82.9,419.4z"/>
	<path class="st0" d="M315.4,364H182.6c-6.1,0-11.1,5-11.1,11.1c0,6.1,5,11.1,11.1,11.1h132.9c6.1,0,11.1-5,11.1-11.1
		C326.5,369,321.6,364,315.4,364z"/>
	<path class="st0" d="M381.9,286.5c0-6.1-5-11.1-11.1-11.1H127.2c-6.1,0-11.1,5-11.1,11.1s5,11.1,11.1,11.1h243.6
		C376.9,297.6,381.9,292.6,381.9,286.5z"/>
</g>
</svg>
