<svg version="1.1" xmlns="http://www.w3.org/2000/svg"
	 viewBox="0 0 500 500" style="enable-background:new 0 0 500 500;" xml:space="preserve">
<style type="text/css">
	.st0{fill:#FFFFFF;}
</style>
<g>
	<g>
		<path class="st0" d="M337.3,467.7c-2.4,0-4.7-1.3-5.8-3.6l-95.2-189.2c-1.6-3.2-0.3-7.2,2.9-8.8c3.2-1.6,7.2-0.3,8.8,2.9
			l95.2,189.2c1.6,3.2,0.3,7.2-2.9,8.8C339.3,467.5,338.3,467.7,337.3,467.7z"/>
	</g>
	<g>
		<path class="st0" d="M123.8,467c-1,0-2-0.2-2.9-0.7c-3.2-1.6-4.5-5.5-2.9-8.8c0.7-1.3,66-132.3,93.3-187.8c1.6-3.2,5.5-4.6,8.7-3
			c3.2,1.6,4.6,5.5,3,8.7C195.7,331,130.3,462,129.6,463.4C128.5,465.7,126.2,467,123.8,467z"/>
	</g>
	<g>
		<path class="st0" d="M229.7,493.5c-3.6,0-6.5-2.9-6.5-6.5V281.6c0-3.6,2.9-6.5,6.5-6.5s6.5,2.9,6.5,6.5V487
			C236.2,490.6,233.3,493.5,229.7,493.5z"/>
	</g>
	<g>
		<path class="st0" d="M177.3,373c-2.8,0-5.5-1.9-6.3-4.7c-1-3.5,1-7.1,4.5-8.1l51.7-14.8c1.1-0.3,2.2-0.3,3.3-0.1l60.7,14.8
			c3.5,0.9,5.7,4.4,4.8,7.9c-0.9,3.5-4.4,5.7-7.9,4.8l-59.1-14.4l-50.1,14.3C178.5,372.9,177.9,373,177.3,373z"/>
	</g>
	<g>
		<g>
			<g>
				<path class="st0" d="M115.5,187.3c-0.9,0-1.8-0.2-2.7-0.6l-90.4-40.1c-3.3-1.5-4.8-5.3-3.3-8.6L75.4,11.4
					c1.5-3.3,5.3-4.8,8.6-3.3l90.4,40.1c1.6,0.7,2.8,2,3.4,3.6c0.6,1.6,0.6,3.4-0.1,5l-56.2,126.6c-0.7,1.6-2,2.8-3.6,3.4
					C117.1,187.1,116.3,187.3,115.5,187.3z M33.8,137.3l78.4,34.8l50.9-114.7L84.7,22.7L33.8,137.3z"/>
			</g>
			<g>
				<path class="st0" d="M141.2,186.3c-0.9,0-1.8-0.2-2.7-0.6l-20.2-9.1c-1.6-0.7-2.8-2-3.4-3.6c-0.6-1.6-0.6-3.4,0.1-5l48.1-107.3
					c0.7-1.6,2-2.8,3.6-3.4c1.6-0.6,3.4-0.6,5,0.1l20.2,9.1c3.3,1.5,4.8,5.3,3.3,8.6l-48.1,107.3
					C146.1,184.8,143.7,186.3,141.2,186.3z M129.6,167.4l8.3,3.7l42.7-95.3l-8.3-3.7L129.6,167.4z"/>
			</g>
			<g>
				<path class="st0" d="M167.1,188.1c-0.9,0-1.8-0.2-2.7-0.6l-22.3-10c-1.6-0.7-2.8-2-3.4-3.6c-0.6-1.6-0.6-3.4,0.1-5l39.9-89
					c0.7-1.6,2-2.8,3.6-3.4c1.6-0.6,3.4-0.6,5,0.1l22.3,10c3.3,1.5,4.8,5.3,3.3,8.6l-39.9,89C172,186.7,169.6,188.1,167.1,188.1z
					 M153.5,168.3l10.3,4.6l34.6-77.1L188,91.2L153.5,168.3z"/>
			</g>
			<g>
				<path class="st0" d="M287,229.7c-0.9,0-1.8-0.2-2.7-0.6L169,177.5c-3.3-1.5-4.8-5.3-3.3-8.6L197.4,98c0.7-1.6,2-2.8,3.6-3.4
					c1.6-0.6,3.4-0.6,5,0.1l115.4,51.7c3.3,1.5,4.8,5.3,3.3,8.6l-31.8,70.8c-0.7,1.6-2,2.8-3.6,3.4
					C288.6,229.6,287.8,229.7,287,229.7z M180.3,168.2l103.4,46.4l26.4-58.9l-103.4-46.4L180.3,168.2z"/>
			</g>
			<g>
				<path class="st0" d="M383.7,263.4c-0.9,0-1.8-0.2-2.7-0.6l-93.1-41.7c-1.6-0.7-2.8-2-3.4-3.6c-0.6-1.6-0.6-3.4,0.1-5l23.6-52.6
					c0.7-1.6,2-2.8,3.6-3.4c1.6-0.6,3.4-0.6,5,0.1l93.1,41.7c1.6,0.7,2.8,2,3.4,3.6c0.6,1.6,0.6,3.4-0.1,5l-23.6,52.6
					C388.6,261.9,386.2,263.4,383.7,263.4z M299.2,211.8l81.2,36.4l18.2-40.7l-81.2-36.4L299.2,211.8z"/>
			</g>
			<g>
				<path class="st0" d="M451,281.4c-0.9,0-1.8-0.2-2.7-0.6l-62.7-28.1c-3.3-1.5-4.8-5.3-3.3-8.6l14.5-32.4c0.7-1.6,2-2.8,3.6-3.4
					c1.6-0.6,3.4-0.6,5,0.1l62.7,28.1c1.6,0.7,2.8,2,3.4,3.6c0.6,1.6,0.6,3.4-0.1,5l-14.5,32.4C455.8,279.9,453.5,281.4,451,281.4z
					 M396.9,243.4l50.8,22.8l9.2-20.5L406,223L396.9,243.4z"/>
			</g>
			<g>
				<path class="st0" d="M448.1,295c-0.9,0-1.8-0.2-2.7-0.6c-3.3-1.5-4.7-5.4-3.3-8.6l25.8-57.1c1.5-3.3,5.4-4.7,8.6-3.3
					c3.3,1.5,4.7,5.4,3.3,8.6l-25.8,57.1C453,293.6,450.6,295,448.1,295z"/>
			</g>
		</g>
		<g>
			<path class="st0" d="M271.2,257c-0.9,0-1.8-0.2-2.7-0.6l-84.1-38.3c-3.3-1.5-4.7-5.3-3.3-8.6l12.4-27.8c1.5-3.3,5.3-4.8,8.6-3.3
				c3.3,1.5,4.8,5.3,3.3,8.6l-9.8,21.9l72.6,33.1l12.7-24.2c1.7-3.2,5.6-4.4,8.8-2.8c3.2,1.7,4.4,5.6,2.8,8.8L277,253.5
				C275.8,255.7,273.5,257,271.2,257z"/>
		</g>
	</g>
	<g>
		<path class="st0" d="M257.7,277.9h-54.1c-3.6,0-6.5-2.9-6.5-6.5v-39.2c0-3.6,2.9-6.5,6.5-6.5h23.3c3.6,0,6.5,2.9,6.5,6.5
			s-2.9,6.5-6.5,6.5h-16.8v26.1h41.1V248c0-3.6,2.9-6.5,6.5-6.5c3.6,0,6.5,2.9,6.5,6.5v23.3C264.2,275,261.3,277.9,257.7,277.9z"/>
	</g>
</g>
</svg>
