<svg xmlns="http://www.w3.org/2000/svg" id="Layer_1" viewBox="0 0 104 66">
	<style>
		.st1{fill-rule:evenodd;clip-rule:evenodd;fill:#74ae43;stroke:#b3d398;stroke-width:.8}
	</style>
	<g id="Symbols" opacity=".28">
		<g id="Header-4">
			<g id="Group-2">
				<g id="Group" transform="rotate(180 51.5 36.5)">
					<path id="Fill-1" d="M96 27.8v8.4c0 1 .6 1.9 1.5 2.4l7.5 4.2c.9.5 2 .5 2.9 0l7.5-4.2c.9-.5 1.5-1.4 1.5-2.4v-8.4c0-1-.6-1.9-1.5-2.4l-7.5-4.2a3 3 0 0 0-2.9 0l-7.5 4.2c-.9.5-1.5 1.4-1.5 2.4" class="st1"/>
					<path d="M24 27.8v8.4c0 1 .6 1.9 1.5 2.4l7.5 4.2c.9.5 2 .5 2.9 0l7.5-4.2c.9-.5 1.5-1.4 1.5-2.4v-8.4c0-1-.6-1.9-1.5-2.4l-7.5-4.2a3 3 0 0 0-2.9 0l-7.5 4.2c-.9.5-1.5 1.4-1.5 2.4M0 27.8v8.4c0 1 .6 1.9 1.5 2.4L9 42.8c.9.5 2 .5 2.9 0l7.5-4.2c.9-.5 1.5-1.4 1.5-2.4v-8.4c0-1-.6-1.9-1.5-2.4l-7.5-4.2a3 3 0 0 0-2.9 0l-7.5 4.2c-.9.5-1.5 1.4-1.5 2.4M12 47.8v8.4c0 1 .6 1.9 1.5 2.4l7.5 4.2c.9.5 2 .5 2.9 0l7.5-4.2c.9-.5 1.5-1.4 1.5-2.4v-8.4c0-1-.6-1.9-1.5-2.4l-7.5-4.2a3 3 0 0 0-2.9 0l-7.5 4.2c-.9.5-1.5 1.4-1.5 2.4M36 47.8v8.4c0 1 .6 1.9 1.5 2.4l7.5 4.2c.9.5 2 .5 2.9 0l7.5-4.2c.9-.5 1.5-1.4 1.5-2.4v-8.4c0-1-.6-1.9-1.5-2.4l-7.5-4.2a3 3 0 0 0-2.9 0l-7.5 4.2c-.9.5-1.5 1.4-1.5 2.4M72 67.8v8.4c0 1 .6 1.9 1.5 2.4l7.5 4.2c.9.5 2 .5 2.9 0l7.5-4.2c.9-.5 1.5-1.4 1.5-2.4v-8.4c0-1-.6-1.9-1.5-2.4l-7.5-4.2a3 3 0 0 0-2.9 0l-7.5 4.2c-.9.5-1.5 1.4-1.5 2.4M96 67.8v8.4c0 1 .6 1.9 1.5 2.4l7.5 4.2c.9.5 2 .5 2.9 0l7.5-4.2c.9-.5 1.5-1.4 1.5-2.4v-8.4c0-1-.6-1.9-1.5-2.4l-7.5-4.2a3 3 0 0 0-2.9 0l-7.5 4.2c-.9.5-1.5 1.4-1.5 2.4M84 47.8v8.4c0 1 .6 1.9 1.5 2.4l7.5 4.2c.9.5 2 .5 2.9 0l7.5-4.2c.9-.5 1.5-1.4 1.5-2.4v-8.4c0-1-.6-1.9-1.5-2.4l-7.5-4.2a3 3 0 0 0-2.9 0l-7.5 4.2c-.9.5-1.5 1.4-1.5 2.4M48 67.8v8.4c0 1 .6 1.9 1.5 2.4l7.5 4.2c.9.5 2 .5 2.9 0l7.5-4.2c.9-.5 1.5-1.4 1.5-2.4v-8.4c0-1-.6-1.9-1.5-2.4l-7.5-4.2a3 3 0 0 0-2.9 0l-7.5 4.2c-.9.5-1.5 1.4-1.5 2.4M24 67.8v8.4c0 1 .6 1.9 1.5 2.4l7.5 4.2c.9.5 2 .5 2.9 0l7.5-4.2c.9-.5 1.5-1.4 1.5-2.4v-8.4c0-1-.6-1.9-1.5-2.4l-7.5-4.2a3 3 0 0 0-2.9 0l-7.5 4.2c-.9.5-1.5 1.4-1.5 2.4M0 67.8v8.4c0 1 .6 1.9 1.5 2.4L9 82.8c.9.5 2 .5 2.9 0l7.5-4.2c.9-.5 1.5-1.4 1.5-2.4v-8.4c0-1-.6-1.9-1.5-2.4l-7.5-4.2a3 3 0 0 0-2.9 0l-7.5 4.2c-.9.5-1.5 1.4-1.5 2.4M84 7.8v8.4c0 1 .6 1.9 1.5 2.4l7.5 4.2c.9.5 2 .5 2.9 0l7.5-4.2c.9-.5 1.5-1.4 1.5-2.4V7.8c0-1-.6-1.9-1.5-2.4l-7.5-4.2a3 3 0 0 0-2.9 0l-7.5 4.2c-.9.5-1.5 1.4-1.5 2.4M60 7.8v8.4c0 1 .6 1.9 1.5 2.4l7.5 4.2c.9.5 2 .5 2.9 0l7.5-4.2c.9-.5 1.5-1.4 1.5-2.4V7.8c0-1-.6-1.9-1.5-2.4l-7.5-4.2a3 3 0 0 0-2.9 0l-7.5 4.2c-.9.5-1.5 1.4-1.5 2.4M36 7v8.4c0 1 .6 1.9 1.5 2.4L45 22c.9.5 2 .5 2.9 0l7.5-4.2c.9-.5 1.5-1.4 1.5-2.4V7c0-1-.6-1.9-1.5-2.4L47.9.4a3 3 0 0 0-2.9 0l-7.5 4.2C36.6 5.1 36 6 36 7" class="st1"/>
				</g>
			</g>
		</g>
	</g>
</svg>
