<svg xmlns="http://www.w3.org/2000/svg" viewBox="0 0 22 22">
  <path fill="none" stroke="#FFF" stroke-width="1.114" d="M19.675033,0.332453826 C19.675033,0.332453826 17.7727873,-0.324538259 15.1651255,0.2823219 C14.4174373,0.45646438 13.6116248,0.736147757 12.7767503,1.16358839 C11.656539,1.73614776 10.4808454,2.57519789 9.32100396,3.79419525 L7.21268164,5.89973615 C7.21268164,5.89973615 2.67107001,6.21372032 0.797886394,10.0897098 C0.63672391,10.4248021 0.494055482,10.7862797 0.377807133,11.176781 C0.171730515,11.8601583 0.0396301189,12.6332454 0.0105680317,13.5039578 C0.00264200793,13.7203166 0.179656539,13.8997361 0.396301189,13.9023747 C0.583883752,13.9023747 0.826948481,13.8970976 1.10435931,13.8759894 C2,13.8021108 3.24702774,13.5461741 4.05548217,12.7387863 C4.05548217,12.7387863 3.66446499,13.6965699 4.4332893,14.1926121 C4.66050198,14.3377309 4.88507266,14.4881266 5.07529723,14.6781003 L5.31836196,14.9208443 C5.50858653,15.1108179 5.65918098,15.3350923 5.80449141,15.5620053 C6.3011889,16.3298153 7.26023778,15.939314 7.26023778,15.939314 C6.72391017,16.474934 6.43064729,17.2031662 6.27212682,17.8944591 C6.11889036,18.5672823 6.08982827,19.2031662 6.09247028,19.591029 C6.09511229,19.8073879 6.27476882,19.9815303 6.49141347,19.9762533 C7.80184941,19.9313984 8.88771466,19.6596306 9.78599736,19.2480211 C13.7859974,17.414248 14.1056803,12.7836412 14.1056803,12.7836412 L14.1479524,12.7414248 L16.2140026,10.6781003 C16.7239102,10.1926121 17.1677675,9.70448549 17.5561427,9.22163588 C18.7820343,7.68337731 19.4214003,6.17150396 19.7305152,4.84168865 C20.335535,2.23218997 19.675033,0.332453826 19.675033,0.332453826 Z M11.9180978,4.39841689 C12.1136063,4.20316623 12.330251,4.0474934 12.5601057,3.92875989 C13.5429326,3.41952507 14.7793923,3.57519789 15.6036988,4.39841689 C16.6208719,5.41424802 16.6208719,7.06332454 15.6036988,8.07915567 C14.8929987,8.78891821 13.8731836,9.00263852 12.9749009,8.72031662 C12.5865258,8.59894459 12.2219287,8.38522427 11.9154557,8.07915567 C10.9009247,7.06332454 10.9009247,5.41424802 11.9180978,4.39841689 Z" transform="translate(1 1)"/>
</svg>
