<svg viewBox="0 0 39 51" xmlns="http://www.w3.org/2000/svg">
  <path d="M37.674 3.154a2.993 2.993 0 0 1-.426 1.672 2.957 2.957 0 0 1-1.275 1.153 2.926 2.926 0 0 1-3.238-.505 2.997 2.997 0 0 1-.776-3.21c.2-.553.558-1.033 1.029-1.38a2.932 2.932 0 0 1 3.733.209c.576.532.919 1.274.953 2.061zm-17.179 34.96c-7.85 0-14.706-2.876-18.265-7.134a19.505 19.505 0 0 0 7.069 9.473 19.244 19.244 0 0 0 11.2 3.6c4.013 0 7.927-1.258 11.2-3.6a19.505 19.505 0 0 0 7.069-9.473c-3.567 4.258-10.423 7.134-18.273 7.134zm-.002-27.694c7.85 0 14.706 2.876 18.265 7.133a19.505 19.505 0 0 0-7.069-9.473 19.243 19.243 0 0 0-11.2-3.6 19.243 19.243 0 0 0-11.2 3.6 19.505 19.505 0 0 0-7.069 9.473c3.567-4.248 10.423-7.134 18.273-7.134zM9.718 46.393a3.772 3.772 0 0 1-.536 2.11 3.727 3.727 0 0 1-1.608 1.452 3.688 3.688 0 0 1-4.082-.638 3.754 3.754 0 0 1-1.097-1.875 3.778 3.778 0 0 1 .122-2.173 3.744 3.744 0 0 1 1.299-1.739 3.696 3.696 0 0 1 4.704.268 3.76 3.76 0 0 1 1.198 2.595zM3.115 9.456a2.166 2.166 0 0 1-1.227-.318 2.193 2.193 0 0 1-.845-.951 2.216 2.216 0 0 1 .372-2.416 2.163 2.163 0 0 1 2.356-.577c.405.15.757.418 1.011.77a2.211 2.211 0 0 1-.156 2.783 2.17 2.17 0 0 1-1.511.71z"/>
</svg>
