<svg xmlns="http://www.w3.org/2000/svg" viewBox="0 0 64 68">
	<style>
		.st3{fill-rule:evenodd;clip-rule:evenodd;fill:#fefefe}
	</style>
	<filter id="logo-glow">
		<feGaussianBlur in="SourceAlpha" stdDeviation="4"/>
		<feOffset dx="0" dy="0" result="offsetblur"/>
		<feFlood flood-color="#AFD139"/>
		<feComposite in2="offsetblur" operator="in"/>
		<feMerge>
			<feMergeNode/>
			<feMergeNode in="SourceGraphic"/>
		</feMerge>
	</filter>
	<g transform="translate(10 10)" filter="url(#logo-glow)">
		<path fill="#349348" fill-rule="evenodd" d="M0 15v18c0 2.2 1.2 4.1 3.1 5.2l15.8 9c1.9 1.1 4.2 1.1 6.1 0l15.8-9a6.1 6.1 0 0 0 3.1-5.2V15c0-2.2-1.2-4.1-3.1-5.2L25 .8a6.05 6.05 0 0 0-6.1 0l-15.8 9A6.1 6.1 0 0 0 0 15" clip-rule="evenodd"/>
		<path fill="#73ad43" fill-rule="evenodd" d="M5.5 11.5l-4.2 15c-.5 1.8 0 3.7 1.4 5.1l11.2 11.1c1.3 1.3 3.3 1.9 5.2 1.4l15.4-4c1.8-.5 3.3-1.9 3.8-3.7l4.2-15.1c.5-1.8 0-3.7-1.4-5.1l-11.2-11a5.46 5.46 0 0 0-5.2-1.4l-15.4 4c-1.8.5-3.3 1.9-3.8 3.7" clip-rule="evenodd"/>
		<path fill="#afd139" fill-rule="evenodd" d="M20.1 39.7c-.8-.3-1.8-.6-2.8-.9-10.4-3.1-8.5-1.1-10.9-11.4S3.1 19.7 11 12.5 16.1 5.9 26.5 9c10.3 3.1 8.4 1.1 10.9 11.4 2.4 10.3 3.3 7.7-4.6 14.9-6.4 5.9-5.8 6.6-10.8 5" clip-rule="evenodd"/>
		<path d="M13.2 18.4H7.8c-.2 0-.3.1-.3.3v.8c0 .2.1.3.3.3h1.8c.1 0 .1.1.1.2v8.5c0 .2.1.3.3.3h1c.2 0 .2-.1.2-.3V20c0-.1.1-.2.2-.2h1.8c.2 0 .3-.1.3-.3v-.8c0-.2-.1-.3-.3-.3" class="st3"/>
		<path d="M18.1 24.1c0 .1 0 .2-.1.2h-2.8c-.1 0-.1-.1-.1-.2v-1c0-.4.1-.7.2-.9.2-.2.4-.3.8-.3h1c.4 0 .6.1.8.3.2.2.2.5.2.9v1zm-.9-3.6h-1.4c-.7 0-1.3.2-1.7.6s-.6 1-.6 1.8v3.2c0 .8.2 1.4.6 1.8.4.4 1 .7 1.7.7h3.4c.2 0 .3-.1.3-.3v-.8c0-.2-.1-.3-.3-.3H16c-.7 0-1.1-.4-1.1-1.2v-.7c0-.1.1-.2.2-.2h4.1c.2 0 .3-.1.3-.3v-2c0-.8-.2-1.4-.6-1.8-.4-.3-1-.5-1.7-.5z" class="st3"/>
		<path d="M34.4 27.2c0 .1-.1.1-.2.1h-1.8a2 2 0 0 1-.9-.2c-.2-.2-.3-.5-.3-.8v-.5c0-.4.1-.6.3-.8.2-.2.5-.2.9-.2h1.8c.1 0 .2 0 .2.1v2.3zm.8-6c-.4-.4-1-.7-1.7-.7h-2.9c-.2 0-.3.1-.3.3v.8c0 .2.1.3.3.3h2.7c.7 0 1.1.4 1.1 1.2v.6h-2c-.8 0-1.4.2-1.9.6-.4.4-.7.9-.7 1.7v.6c0 .7.2 1.3.7 1.6.4.4 1.1.6 1.9.6h3.4V23c0-.8-.2-1.4-.6-1.8z" class="st3"/>
		<path d="M24.3 20.5h-.5c-.3 0-.7.1-.9.2-.3.2-.5.4-.6.6h-.1v-.6c0-.2-.1-.3-.2-.3h-1c-.2 0-.2.1-.2.3v7.6c0 .2.1.3.2.3h.9c.2 0 .2-.1.2-.3v-5.1c0-1 .4-1.5 1.2-1.5h.9c.2 0 .2-.1.2-.3v-.8c.1 0 0-.1-.1-.1" class="st3"/>
		<path d="M29 20.5h-.5c-.3 0-.7.1-.9.2-.3.2-.5.4-.6.6h-.1v-.6c0-.2-.1-.3-.2-.3h-.9c-.2 0-.2.1-.2.3v7.6c0 .2.1.3.2.3h.9c.2 0 .2-.1.2-.3v-5.1c0-1 .4-1.5 1.2-1.5h.9c.2 0 .2-.1.2-.3v-.8c.1 0 0-.1-.2-.1" class="st3"/>
	</g>
</svg>
