<svg xmlns="http://www.w3.org/2000/svg" viewBox="0 0 145 160.6">
  <style>
    .logoStyle{fill:#fff}
  </style>
  <path fill="#359348" d="M1 50.5v59.3a20 20 0 0 0 10 17.3l51.4 29.7a19.7 19.7 0 0 0 19.9 0l51.4-29.7a20 20 0 0 0 10-17.3V50.5a20 20 0 0 0-10-17.3L82.3 3.5a20.4 20.4 0 0 0-20 0L10.9 33.2A20.1 20.1 0 0 0 1 50.5z"/>
  <path fill="#73ad43" d="M18.8 38.8L5.2 88.6c-1.6 6 0 12.4 4.4 16.8L46 142.2a17.3 17.3 0 0 0 16.7 4.6l50-13.1c6-1.6 10.7-6.2 12.3-12.2l13.6-49.9c1.6-6 0-12.4-4.4-16.8L97.9 18a17.3 17.3 0 0 0-16.7-4.6l-50 13.1c-6 1.7-10.7 6.3-12.4 12.3z" opacity=".6"/>
  <path fill="#afd139" fill-rule="evenodd" d="M66.1 132.1l-9.2-2.9c-33.6-10.2-27.3-3.5-35.2-37.7-7.9-34.2-10.6-25.4 15-49.3 25.6-24 16.6-21.9 50.2-11.7s27.3 3.5 35.2 37.7c7.9 34.2 10.6 25.4-15 49.3C86.4 136.9 88.3 139.2 72 134l-5.9-1.9z" clip-rule="evenodd" opacity=".8"/>
  <path d="M43.9 61.6H26.2c-.6 0-.9.3-.9.9v2.7c0 .6.3.9.9.9h6c.3 0 .5.2.5.5v28.1c0 .6.3.9.9.9h3c.5 0 .8-.3.8-.9V66.6c0-.4.2-.5.5-.5h6c.6 0 .9-.3.9-.9v-2.7c-.1-.6-.4-.9-.9-.9zM56.7 68.7h-4.5c-2.3 0-4.2.7-5.4 2.1-1.3 1.4-1.9 3.4-1.9 6.1v10.6c0 2.6.6 4.6 1.9 6a7 7 0 0 0 5.4 2.2h10.9c.6 0 .9-.3.9-.8v-2.6c0-.6-.3-1-.9-1H52.9c-2.3 0-3.5-1.3-3.5-3.9V85c0-.4.2-.5.5-.5h13.4c.6 0 .9-.3.9-1v-6.7a9 9 0 0 0-2-6.1 7.4 7.4 0 0 0-5.5-2zm2.8 11.7c0 .4-.2.5-.5.5h-9.2c-.3 0-.5-.2-.5-.5V77c0-1.3.3-2.3.8-2.9.5-.6 1.4-.9 2.6-.9H56c1.2 0 2.1.3 2.6.9.5.6.8 1.6.8 2.9v3.4zM115.2 70.8a7 7 0 0 0-5.4-2.2h-9.3c-.6 0-.9.3-.9.8V72c0 .6.3 1 .9 1h8.6c2.3 0 3.5 1.3 3.5 3.9v2H106a9 9 0 0 0-6.1 2c-1.4 1.3-2.1 3.1-2.1 5.5v1.9c0 2.3.7 4.2 2.1 5.4 1.4 1.3 3.4 1.9 6.1 1.9h11.1V76.7c0-2.4-.7-4.4-1.9-5.9zm-2.7 20c0 .3-.2.5-.5.5h-5.9c-1.3 0-2.3-.3-2.9-.8-.6-.5-.9-1.6-.9-2.8V86c0-1.2.3-2.1.9-2.6.6-.5 1.6-.8 2.9-.8h5.9c.4 0 .5.2.5.5v7.7zM79.7 68.7h-1.8c-1.1 0-2.1.3-3 .8-.9.5-1.5 1.2-1.8 2.1h-.2v-2c0-.6-.3-.9-.8-.9h-3c-.5 0-.8.3-.8.9v25.2c0 .6.3.9.8.9h3c.5 0 .8-.3.8-.9V78c0-3.2 1.3-4.8 3.9-4.8h2.9c.5.1.8-.2.8-.8v-2.7c0-.7-.3-1-.8-1zM95.2 68.7h-1.8c-1.1 0-2.1.3-3 .8-.9.5-1.5 1.2-1.8 2.1h-.2v-2c0-.6-.3-.9-.8-.9h-3c-.5 0-.8.3-.8.9v25.2c0 .6.3.9.8.9h3c.5 0 .8-.3.8-.9V78c0-3.2 1.3-4.8 3.9-4.8h2.9c.5.1.8-.2.8-.8v-2.7c0-.7-.3-1-.8-1z" class="logoStyle"/>
</svg>
