<svg viewBox="0 0 286.9 286.9" xmlns="http://www.w3.org/2000/svg">
  <path fill="#c55a68" d="M262.3 63.2c5.1-22.1-.4-38.3-.4-38.3s-16.1-5.6-38.3-.4C238.9 34.8 252 48 262.3 63.2z"/>
  <path fill="#5374af" d="M40.5 243.4l-21.3 24.3 24.2-21.3c-.9-1.1-1.9-2-2.9-3zM191 192.6c-10.6 6.6-23.9 11-40.7 11.6h-.5c-8.6 0-15.6-7-15.6-15.6 0-1.8 0-3.8.2-6L83 227.8c-6 11.8-13.2 23-21.5 33.3 58.2 40.5 137.3 32.3 186-19.2-15.5-19.8-34.6-36.6-56.5-49.3z"/>
  <path fill="#5374af" d="M146.5 188.6c0 1.8 1.5 3.3 3.3 3.3h.1c9.7-.2 19.2-2.3 28-6.2-9.6-4.6-19.6-8.5-29.8-11.5-1.1 4.7-1.6 9.5-1.6 14.4zM108 166.8l-7 7.9c-1.7 9.2-4 18.2-7 27l36.2-31.9c-7.3-1.4-14.8-2.4-22.2-3z"/>
  <path d="M52.8 254.6c2.8 2.3 5.8 4.6 8.8 6.7 8.3-10.4 15.5-21.5 21.5-33.4l-30.3 26.7zM6.5 186.3c5.5 17.4 14.2 33.6 25.8 47.8L92 166.3c-29.6.1-58.9 6.9-85.5 20zm34 57.1c1 1 1.9 2 2.9 2.9L94 201.7c3-8.8 5.3-17.8 7-27l-60.5 68.7z" fill="#6092cc"/>
  <path fill="#8b5f95" d="M223.5 149.2c-4.7 15.2-14.6 32.4-32.4 43.4 21.8 12.7 41 29.5 56.4 49.4 9.4-9.9 17.4-21.2 23.6-33.4-19.5-16.4-35.7-36.7-47.6-59.4zm-119.7 3.2v.4l.4-.5-.4.1zm46.6-28.2c-16 0-31.8-1.9-47.3-5.8.8 6.9 1.1 13.9 1.2 20.9v.7c7.6-.6 18.2-2.8 25-9.7 0 0-3.3 8.1 3.2 12.4 2 1.2 3.8 2.6 5.4 4.1l2.1 2.1c1.6 1.7 2.9 3.5 4.1 5.4 4.2 6.5 12.4 3.2 12.4 3.2-4.6 4.6-7 10.7-8.4 16.6 10.2 3 20.2 6.9 29.8 11.5 33.9-15.6 36.7-54.9 36.7-54.9l.4-.4c-2-5-3.8-10.1-5.3-15.3-19.2 6.2-39.2 9.2-59.3 9.2z"/>
  <path fill="#8b5f95" d="M130.2 156.7c-2.7-2.6-4.3-6.2-4.5-10L108 166.8c7.5.6 14.9 1.6 22.3 3l9.9-8.7c-3.8-.1-7.4-1.7-10-4.4z"/>
  <path fill="#625991" d="M150.4 60.4l14.7-14.7c13.7-14.4 27.8-23.2 40.8-28.5.2-.9.4-1.7.6-2.6-45.1-22.1-98.5-19-140.8 8.2C80.8 43 91.7 66 98 90.3c14.6-19.1 36.6-27.6 52.4-29.9zm23.6-6l-17.9 17.9s-38.6 2.7-54.4 35.6c.6 3.5 1.1 7 1.4 10.6 15.5 3.8 31.4 5.8 47.3 5.8 20.1 0 40.1-3.1 59.2-9.1-1.8-6.2-3.4-12.4-4.6-18.8-11.6-3.7-18.1-16.1-14.4-27.7 1.8-5.6 5.7-10.3 10.9-13 .1-7.5.7-15 1.7-22.4-.8.2-1.5.5-2.3.7l2-1.5c.1 0 .2.1.3.2 0-.2.1-.4.1-.5-10.9 5.5-20.9 13.1-29.3 22.2z"/>
  <path fill="#625991" d="M202.9 32.4l-2 1.5c.8-.3 1.5-.5 2.3-.7 0-.2 0-.3.1-.5s-.3-.3-.4-.3z"/>
  <path fill="#537eb9" d="M103.8 152.9v-.4c-1.9.1-3.6.2-5.2.2h-.5c-8.6-.1-15.6-7.1-15.5-15.7v-.4c.2-7.8 1.5-15.5 3.7-23C61.2 104.7 38.1 91 18.5 73-1 107.5-5.3 148.5 6.5 186.3c26.6-13.1 55.8-20 85.5-20.1l11.8-13.3z"/>
  <path fill="#537eb9" d="M103.1 118.4c-1.7-.4-3.3-.9-5-1.3-1.9 6.4-2.9 13.1-3.1 19.8-.1 1.8 1.4 3.3 3.2 3.4h.1c1.6 0 3.7 0 6-.2v-.7c-.1-7.1-.4-14-1.2-21z"/>
  <path d="M98 90.3C91.7 66 80.8 43 65.7 22.8 46.2 35.5 29.9 52.7 18.5 73c19.6 18 42.7 31.7 67.8 40.5 2.5-8.4 6.4-16.2 11.7-23.2zm3.7 17.6c-1.4 3-2.6 6.1-3.6 9.2 1.7.5 3.3.9 5 1.3-.4-3.5-.9-7-1.4-10.5z" fill="#546ea7"/>
  <path fill="#8a4f65" d="M209.2 16c-.9-.5-1.8-.9-2.6-1.4-.2.8-.4 1.7-.6 2.6 1-.5 2.1-.9 3.2-1.2zm63.5 65.2c-.6-1.2-1.2-2.3-1.8-3.5-.9 2.3-1.9 4.7-3 7.1 1.6-1.1 3.3-2.3 4.8-3.6zm-68.9-48.3l-.6.2c-1 7.4-1.5 14.9-1.6 22.4 10.8-5.6 24.2-1.4 29.8 9.4 5.6 10.8 1.4 24.2-9.4 29.8-5.2 2.7-11.3 3.2-16.9 1.5 1.2 6.4 2.8 12.7 4.6 18.8 11.8-3.8 23.3-8.7 34.2-14.6a93.72 93.72 0 0 0 18.5-37.2C252 48 238.9 34.8 223.6 24.5c-7 1.6-13.9 4.2-20.3 7.5 0 .2 0 .4-.1.5l.6.4z"/>
  <path fill="#8a4f65" d="M203.3 32.6c0 .2-.1.3-.1.5l.6-.2-.5-.3z"/>
  <path fill="#c55a68" d="M272.7 81.2c-1.5 1.2-3.1 2.4-4.7 3.6-5.4 11.9-13.9 24.5-26.9 36.8l-14.7 14.7c-.6 4.3-1.6 8.6-2.9 12.8 11.9 22.8 28.1 43 47.7 59.5 20.4-39.8 20.9-86.9 1.5-127.4zm-57.8 49.2l17.6-17.5c4.1-3.9 7.9-8 11.4-12.4-10.9 6-22.4 10.9-34.2 14.6 1.5 5.2 3.3 10.3 5.2 15.3z"/>
</svg>
