<?xml version="1.0" encoding="UTF-8"?>
<svg width="24px" height="24px" viewBox="0 0 24 24" version="1.1" xmlns="http://www.w3.org/2000/svg" xmlns:xlink="http://www.w3.org/1999/xlink">
    <title>icons/24x24/Menu icon</title>
    <g id="icons/24x24/Menu-icon" stroke="none" stroke-width="1" fill="none" fill-rule="evenodd">
        <g id="Group">
            <circle id="Oval" fill="#FFFFFF" cx="12" cy="12" r="12"></circle>
            <circle id="Oval-Copy" fill-opacity="0.2" fill="#4D72AA" cx="12" cy="12" r="12"></circle>
            <g id="Icons/16x16/Action/Inline-menu" transform="translate(6, 6)">
                <rect id="Bounding-box" x="0" y="0" width="12" height="12"></rect>
                <path d="M5.99999464,3.56251654 C6.93280033,3.56251654 7.68749061,2.80782626 7.68749061,1.87502056 C7.68749061,0.942214865 6.93280033,0.187524587 5.99999464,0.187524587 C5.06718894,0.187524587 4.31249866,0.942214865 4.31249866,1.87502056 C4.31249866,2.80782626 5.06718894,3.56251654 5.99999464,3.56251654 Z M5.99999464,7.68750671 C6.93280033,7.68750671 7.68749061,6.93281643 7.68749061,6.00001073 C7.68749061,5.06720503 6.93280033,4.31251475 5.99999464,4.31251475 C5.06718894,4.31251475 4.31249866,5.06720503 4.31249866,6.00001073 C4.31249866,6.93281643 5.06718894,7.68750671 5.99999464,7.68750671 Z M5.99999464,11.8124969 C6.93280033,11.8124969 7.68749061,11.0578066 7.68749061,10.1250009 C7.68749061,9.1921952 6.93280033,8.43750492 5.99999464,8.43750492 C5.06718894,8.43750492 4.31249866,9.1921952 4.31249866,10.1250009 C4.31249866,11.0578066 5.06718894,11.8124969 5.99999464,11.8124969 Z" id="" fill="#333F52"></path>
            </g>
        </g>
    </g>
</svg>