<svg xmlns="http://www.w3.org/2000/svg" viewBox="0 0 20 12">
  <path fill="#FFF" d="M64.4,19 L55.6,19 C54.7163444,19 54,18.2538079 54,17.3333333 L54,11.5 C54,10.5795254 54.7163444,9.83333333 55.6,9.83333333 L64.4,9.83333333 C65.2836556,9.83333333 66,10.5795254 66,11.5 L66,17.3333333 C66,18.2538079 65.2836556,19 64.4,19 Z M55.6,11.5 L55.6,17.3333333 L64.4,17.3333333 L64.4,11.5 L55.6,11.5 Z M64.4,8.16666667 L55.6,8.16666667 C54.7163444,8.16666667 54,7.42047458 54,6.5 L54,0.666666667 C54,-0.253807916 54.7163444,-1 55.6,-1 L64.4,-1 C65.2836556,-1 66,-0.253807916 66,0.666666667 L66,6.5 C66,7.42047458 65.2836556,8.16666667 64.4,8.16666667 Z M55.6,0.666666667 L55.6,6.5 L64.4,6.5 L64.4,0.666666667 L55.6,0.666666667 Z" transform="rotate(90 36.5 -17.5)"/>
</svg>
