<?xml version="1.0" encoding="UTF-8"?>
<svg width="15.499963px" height="15.499963px" viewBox="0 0 15.499963 15.499963" version="1.1" xmlns="http://www.w3.org/2000/svg" xmlns:xlink="http://www.w3.org/1999/xlink">
    <title></title>
    <g id="Page-1" stroke="none" stroke-width="1" fill="none" fill-rule="evenodd">
        <g id="Tanagra-2-conditions---disease" transform="translate(-124.249999, -556.250033)" fill="#4D72AA">
            <g id="Group-5" transform="translate(57.000000, 540.000000)">
                <g id="Icons/16x16/Action/Add" transform="translate(67.249999, 16.250033)">
                    <path d="M7.74998152,15.499963 C12.0312213,15.499963 15.499963,12.0312213 15.499963,7.74998152 C15.499963,3.46874173 12.0312213,0 7.74998152,0 C3.46874173,0 0,3.46874173 0,7.74998152 C0,12.0312213 3.46874173,15.499963 7.74998152,15.499963 Z M7.74998152,13.9999666 C4.29686476,13.9999666 1.49999642,11.2030983 1.49999642,7.74998152 C1.49999642,4.29686476 4.29686476,1.49999642 7.74998152,1.49999642 C11.2030983,1.49999642 13.9999666,4.29686476 13.9999666,7.74998152 C13.9999666,11.2030983 11.2030983,13.9999666 7.74998152,13.9999666 Z M8.24998033,11.749972 C8.45621763,11.749972 8.62497944,11.5812102 8.62497944,11.3749729 L8.62497944,8.62497944 L11.3749729,8.62497944 C11.5812102,8.62497944 11.749972,8.45621763 11.749972,8.24998033 L11.749972,7.24999106 C11.749972,7.04374541 11.5812102,6.87498361 11.3749729,6.87498361 L8.62497944,6.87498361 L8.62497944,4.12499017 C8.62497944,3.91875286 8.45621763,3.74999106 8.24998033,3.74999106 L7.24999106,3.74999106 C7.04374541,3.74999106 6.87498361,3.91875286 6.87498361,4.12499017 L6.87498361,6.87498361 L4.12499017,6.87498361 C3.91875286,6.87498361 3.74999106,7.04374541 3.74999106,7.24999106 L3.74999106,8.24998033 C3.74999106,8.45621763 3.91875286,8.62497944 4.12499017,8.62497944 L6.87498361,8.62497944 L6.87498361,11.3749729 C6.87498361,11.5812102 7.04374541,11.749972 7.24999106,11.749972 L8.24998033,11.749972 Z" id=""></path>
                </g>
            </g>
        </g>
    </g>
</svg>
