<svg xmlns="http://www.w3.org/2000/svg" version="1.1" viewBox="0 0 1362.1 2280.2">
    <style type="text/css">
        svg{opacity:.3}
        .st1,.st3{opacity:.7;fill:#f2f2f2}.st3{opacity:.5}
    </style>
    <g id="_x32_">
        <circle cx="653.6" cy="1170.5" r="545.7" fill="#fff"/>
        <path d="M1065.2 1392.9c-16.1 19.9-32.4 41-37.9 66-2.3 10.3-2.4 21.8 3.5 30.6 7.5 11.2 23 14.8 36.2 11.9 13-2.9 24.2-10.9 34.7-19.1 44-63.1 73.2-133.5 87.5-206.2-48.2 28.2-88.3 72.7-124 116.8zm-510.5 77c-9 22.1-16.4 45-28.6 65.6-17.7 30-44.4 53.5-64.2 82.2-11.2 16.2-20.3 34.3-30.2 51.6 19.9 8.8 40.2 16.4 60.8 22.8 33.2-47 79.4-85.6 119.3-128 14-14.9 28.1-32.2 29.1-52.7.5-12.4-3.9-24.4-5.9-36.7-8.7-54 29.7-103.2 65.7-144.4 17.4-20 34.9-40 52.3-60 22.7-26 45.6-52.2 73.7-72.1 28.1-19.9 62.3-33.3 96.6-30.1 39.2 3.6 75.3 28.3 114.6 26.4 44.6-2.1 80.2-37.3 106.6-73.2 15.6-21.3 29.7-43.7 42.2-67-9-41.5-23-82.2-41.8-121.1a1617.8 1617.8 0 0 0-408.8 288.4c-74 71.7-142.4 152.6-181.4 248.3zm590.4-296.7c-55.2 42.1-120.7 73.4-162.9 128.6-19.4 25.4-33 54.8-51.1 81.2-19.9 28.8-45 53.6-71.7 76.3a706.98 706.98 0 0 1-132.9 88.9c-28.3 14.5-57.7 27.3-83.1 46.4-23.7 17.8-43.2 40.6-62.5 63.2-13.3 15.6-26.6 31.2-39.8 46.8a549.09 549.09 0 0 0 163.2 9.4c21.4-41.4 59.6-74.1 99-100.5 48.7-32.7 102.1-60.2 142.1-103.1 50.1-53.9 74.1-126.6 115.3-187.6 36.6-54.2 85.9-97.7 138.5-137.2.6-20.9-.1-41.8-1.9-62.6-15.2 18.7-33.4 35.8-52.2 50.2z"
              class="st1"/>
        <path fill="#f2f2f2"
              d="M268.3 1467.9c11.8-31.1 23.6-62.4 39-91.9 50.4-96.1 136.3-167.8 220-236.8 25.9-21.4 51.8-42.7 77.7-64.1 24.8-20.4 50.2-41.6 65.4-69.9 16.6-30.9 24.8-73.4 58.5-83.4 16.7-5 34.9.5 52.1-2.5 16.1-2.7 30.1-12.6 43.2-22.3 61.8-45.6 120.9-94.9 177-147.5-40-33.1-83.5-59.6-129.3-79.6C770 726 691 823.8 635.1 927.7c-18.1 33.7-34.7 68.8-60.6 96.9-22.2 24.1-50.2 42-77.6 59.9-97 63.5-196.9 139.3-230.9 250.1-9.2 30-13.1 61.4-23.5 91-7.6 21.5-19.5 42.4-36.6 57.1 11.7 16.8 24.5 33 38.4 48.7 8-21.2 16-42.3 24-63.5z"
              opacity=".2"/>
        <path d="M344.3 1468.3c1.6-7.8.2-15.9 1.9-23.6 2.7-12.3 12.5-21.5 21.7-30.1a825.37 825.37 0 0 0 144.9-181.1c14.3-24.3 27.5-49.4 45.2-71.4 19-23.6 42.8-42.9 62.9-65.6 15.9-18 29.4-38 43.4-57.7 52.2-73.5 112.2-143.3 187.5-192.9 54.6-36 118.1-60.8 182.9-66.1 1.6 1.6 3.3 3.1 4.9 4.7 12.5 12.5 24.3 25.5 35.3 38.9-29.4 6.7-58.1 17.2-86.2 28.5-85.9 34.5-171.3 78.5-229.9 150.1-3.8 4.7-7.7 10.3-6.6 16.2 56.7-41.2 120.5-71.3 184-100.8 53.8-25 111.3-50.3 169.4-53 9.8 14.5 18.9 29.4 27.2 44.6-25.5 21.2-51.9 41.4-79 60.5-13.8 9.7-28.2 19.4-44.6 23.3-22 5.3-44.9-.1-67.5-1.5-74.2-4.5-144.4 35.4-199.6 85.1-45.4 40.9-83.7 88.8-121.5 136.8-59.7 75.9-118.7 152.9-164.2 238.1-32 60-57.2 124-90.8 182.9a545 545 0 0 1-97.9-77.8c-3.2-3.2-6.3-6.4-9.4-9.6 19.4-14.8 38.9-29.6 58.3-44.4 12-9.1 24.7-19.4 27.7-34.1zm563.6-273.9c-22.7 8.9-42.1 24.6-60.3 40.8a817.76 817.76 0 0 0-141.8 165.9c-11.9 18.4-23.2 37.8-27.5 59.3-1.8 8.8-1.3 19.9 6.5 24.3 6.9 3.9 15.5.2 22.5-3.6 101.6-55.4 194.3-140.1 241.2-247 4.4-10.1 8.3-22 3.3-31.8-7.5-14.4-28.6-13.8-43.9-7.9z"
              class="st1"/>
        <path d="M205.3 1481.9c4.8 6.8 9.7 13.6 14.8 20.2 141.7-139.6 310.6-343.6 427.1-611.5 40.5-93.2 68.8-180.7 88.7-259.6-11.5-1.7-23.1-3.1-34.7-4.1-32.9 123.1-91.3 287.6-198.5 468.5-95.8 161.4-202.9 289.7-297.4 386.5z"
              class="st3"/>
        <path d="M459.9 1135.1c124.1-195 193.6-374.2 233.3-508.9-17.7-1.3-35.5-1.7-53.2-1.3-31.6 124-78.9 281.9-177.5 447.7-88.3 148.5-192.7 267-287.4 360.6 6.8 12.4 14.2 24.7 22.1 36.7 84.3-88.3 176.6-199.5 262.7-334.8z"
              class="st3"/>
        <path fill="#ccc"
              d="M1194.4 292.4c-32.8-19-276.9 339.7-306.5 385.2l-.1.1c-80.7 124.1-171.1 271-263.9 430.1-109.8 188.5-206.3 365.6-280.1 512.1-.1.2-.2.3-.2.5-45 89.2-176.2 369.1-147.8 385.8 14.1 8.2 71.8-45.5 266.5-324.4-.4-.1-.8-.3-1.2-.5-.5-.2-1-.4-1.6-.6-1.4-.5-2.7-1-4.1-1.6l-6.9-2.7c-19.7 34.5-51.7 83-101.4 132.5-24.7 24.6-44.4 44.2-52.4 39.6-15.3-8.9 13-89.5 71.4-213.4.1-.1.1-.3.2-.4 62.3-132.1 158.9-313.5 273.4-510.1 98.2-168.5 193.2-320 271.3-435 .1-.1.1-.2.2-.2 47.7-70.2 167-234 188.1-221.8 10.6 6.1.3 58.7-102.9 278.4.4.3.7.6 1.1.9.3.3.7.6 1 .8l3.6 3c1.8 1.5 3.5 3 5.2 4.4 180.3-369.4 201.6-454.4 187.1-462.7z"/>
        <path fill="#e6e6e6"
              d="M38.7 2246c41.7 24.3 222.4-203 451.1-554.9-.5-.1-1-.3-1.5-.5-207.7 319.5-371.7 525.4-409.6 503.3-38-22.1 60.3-266.5 235.7-605 .2-.3.3-.6.5-.9 73.9-142.5 161.4-301.6 258.2-467.8C652.5 983.7 730.9 855 804.9 738.8c0 0 0-.1.1-.1 142.6-224.2 417-601.7 457.8-578.1 20.4 11.8-9.6 129.6-240.4 607.7l.2.2c2.1 1.9 4.2 3.8 6.2 5.8C1319.8 178.6 1357.5 36.6 1334 23c-44.5-25.8-344.7 387-500.7 632.1 0 0 0 .1-.1.1-80.9 127-166.6 267.8-253.6 417.1C473.7 1254 378 1428 297.2 1583.8c-.2.3-.3.6-.5 1-192 369.9-299.5 637.1-258 661.2z"/>
        <path fill="#b3b3b3"
              d="M1262.8 160.6C1222 137 947.6 514.5 804.9 738.7c0 0 0 .1-.1.1C730.9 855 652.5 983.7 573 1120.3c-96.8 166.2-184.3 325.3-258.2 467.8-.2.3-.3.6-.5.9-175.4 338.4-273.6 582.8-235.7 605 38 22.1 202-183.8 409.7-503.2-.8-.3-1.6-.5-2.4-.8-.2-.1-.4-.1-.6-.2-.8-.3-1.5-.5-1.9-.6-1.9-.6-3.8-1.3-5.7-1.9-2.1-.7-4.2-1.4-6.3-2.2-15.8 24.1-31.1 47.2-46 69.4-145.3 216.8-252.5 349.2-277.8 334.5-27.6-16.1 49.4-204 188.1-473.7.1-.3.3-.5.4-.8 76.5-148.7 171.8-322.2 278.6-505.6C707.4 949.8 798 802 880.2 674.3c.1-.1.1-.2.2-.3 18.6-28.8 319.1-476.4 356.6-454.7 16.1 9.3-10.9 109.6-223.3 541.2l4.9 4.3c.1 0 .1.1.2.1 1.1 1 2.2 2 3.3 3.1l.3.3c230.7-478.1 260.8-595.9 240.4-607.7z"/>
        <path d="M275.7 882.8c-11.7 22.3-24.4 45.1-43.9 60.1-8 6.2-17.8 10.9-27.2 9.3-12-2.1-20-14.4-21.8-27.2-1.7-12.7 1.4-25.8 5-38.4 39.4-64.4 89.8-118.5 147-160.5-8.3 54-33.1 107.4-59.1 156.7zm161-159.4c-17.3 64.3-22 133.2-54.6 191.2-15 26.7-35.4 49.8-51.6 75.8-17.8 28.4-30.4 59.8-40.7 91.8a718.97 718.97 0 0 0-31.1 149.8c-2.9 30.2-4 60.7-11.7 90.1-7.2 27.5-20 53.2-32.7 78.7-8.8 17.6-17.5 35.1-26.3 52.7-27.3-42.2-48.1-88.8-61.9-138 27.9-34.6 42.8-80.4 52.1-124.9 11.5-55 17-111.9 40.1-163.3 29-64.3 82.5-113.3 120.3-172.7 33.6-52.8 54.1-112.4 70-173.3 17.4-8.6 35.3-16.1 53.5-22.6-11 20.4-19.5 42.8-25.4 64.7z"
              class="st1"/>
        <path d="M490.1 768.1c-19.4 14.8-33.7 35.2-46.7 55.8a819.27 819.27 0 0 0-90.7 198.5c-6.4 21-11.9 42.7-10.2 64.6.7 8.9 4.2 19.5 12.9 21.5 7.7 1.8 15-4.1 20.7-9.7 82.4-81.2 148.3-188.2 164-303.8 1.5-10.9 2-23.4-5.6-31.4-11.2-11.8-31.4-5.4-44.4 4.5z"
              class="st1"/>
    </g>
</svg>
