<svg width="32" height="32" xmlns="http://www.w3.org/2000/svg">
    <g fill="none" fill-rule="evenodd">
        <circle fill="#FFF" cx="16" cy="16" r="16"/>
        <circle fill="#4D72AA" opacity=".2" cx="16" cy="16" r="16"/>
        <path d="M8 8h16v16H8z"/>
        <path d="M20.5 24c.8 0 1.5-.7 1.5-1.5V12h.5c.3 0 .5-.2.5-.5V11c0-.3-.2-.5-.5-.5h-2.6l-1-1.8c-.3-.4-.8-.7-1.3-.7h-3.2c-.5 0-1 .3-1.3.7l-1 1.8H9.5c-.3 0-.5.2-.5.5v.5c0 .3.2.5.5.5h.5v10.5c0 .8.7 1.5 1.5 1.5h9zm-2.3-13.5h-4.4l.6-1h3.2l.6 1zm2.3 12h-9V12h9v10.5zM18.1 21c.2 0 .4-.2.4-.4V14c0-.2-.2-.4-.4-.4h-.7c-.2 0-.4.2-.4.4v6.7c0 .2.2.4.4.4h.7zm-3.5 0c.2 0 .4-.2.4-.4V14c0-.2-.2-.4-.4-.4H14c-.2 0-.4.2-.4.4v6.7c0 .2.2.4.4.4h.7z" fill="#333F52"/>
    </g>
</svg>
