<?xml version="1.0" encoding="UTF-8"?>
<svg width="32px" height="32px" viewBox="0 0 32 32" version="1.1" xmlns="http://www.w3.org/2000/svg"
     xmlns:xlink="http://www.w3.org/1999/xlink">
    <circle fill="#4D72AA" opacity="0.3" cx="16" cy="16" r="16"/>
    <g transform="translate(9, 8)" fill="#333F52">
      <path
          d="M11.4999726,16.0015793 C12.3278515,16.0015793 12.999969,15.3294617 12.999969,14.5015829 L12.999969,4.00160789 L13.4999678,4.00160789 C13.7759376,4.00160789 13.9999666,3.77757888 13.9999666,3.50160908 L13.9999666,3.00161028 C13.9999666,2.72564047 13.7759376,2.50161147 13.4999678,2.50161147 L10.9246566,2.50161147 L9.8621591,0.729734588 C9.59989166,0.292723911 9.12137718,0 8.5750528,0 L8.57529694,0.00161742778 L5.42466968,0.00161742778 C4.8783453,0.00161742778 4.40068531,0.292723911 4.13841787,0.729734588 L3.07531005,2.50161147 L0.5,2.50161147 C0.224029007,2.50161147 0,2.72564047 0,3.00161028 L0,3.50160908 C0,3.77757888 0.224029007,4.00160789 0.5,4.00160789 L1,4.00160789 L1,14.5015829 C1,15.3294617 1.67211515,16.0015793 2.5,16.0015793 L11.4999726,16.0015793 Z M9.17530161,2.50161147 L4.82466501,2.50161147 L5.36998231,1.59255602 C5.40278863,1.5379602 5.46257243,1.50140023 5.53084008,1.50140023 C5.53102319,1.50140023 5.53105371,1.50161385 5.53123681,1.50161385 L8.46894343,1.50161385 C8.53721109,1.50161385 8.59687281,1.5379602 8.62967913,1.59255602 L9.17530161,2.50161147 Z M11.4999726,14.5015829 L2.49999404,14.5015829 L2.49999404,4.00160789 L11.4999726,4.00160789 L11.4999726,14.5015829 Z M9.12497824,13.0015864 C9.33194797,13.0015864 9.49998093,12.833557 9.49998093,12.6265873 L9.49998093,5.87660342 C9.49998093,5.6696337 9.33194797,5.50160431 9.12497824,5.50160431 L8.37498003,5.50160431 C8.16801031,5.50160431 7.99998093,5.6696337 7.99998093,5.87660342 L7.99998093,12.6265873 C7.99998093,12.833557 8.16801031,13.0015864 8.37498003,13.0015864 L9.12497824,13.0015864 Z M5.62498659,13.0015864 C5.83195631,13.0015864 5.99998927,12.833557 5.99998927,12.6265873 L5.99998927,5.87660342 C5.99998927,5.6696337 5.83195631,5.50160431 5.62498659,5.50160431 L4.87498838,5.50160431 C4.66801866,5.50160431 4.49998927,5.6696337 4.49998927,5.87660342 L4.49998927,12.6265873 C4.49998927,12.833557 4.66801866,13.0015864 4.87498838,13.0015864 L5.62498659,13.0015864 Z"/>
    </g>
</svg>
