<svg xmlns="http://www.w3.org/2000/svg" width="20" height="15" viewBox="0 0 20 15">
  <path fill="#FFF" d="M68.75,17 L61.875,17 C61.1846441,17 60.625,16.4403559 60.625,15.75 L60.625,11.375 C60.625,10.6846441 61.1846441,10.125 61.875,10.125 L68.75,10.125 C69.4403559,10.125 70,10.6846441 70,11.375 L70,15.75 C70,16.4403559 69.4403559,17 68.75,17 Z M61.875,11.375 L61.875,15.75 L68.75,15.75 L68.75,11.375 L61.875,11.375 Z M58.125,17 L51.25,17 C50.5596441,17 50,16.4403559 50,15.75 L50,11.375 C50,10.6846441 50.5596441,10.125 51.25,10.125 L58.125,10.125 C58.8153559,10.125 59.375,10.6846441 59.375,11.375 L59.375,15.75 C59.375,16.4403559 58.8153559,17 58.125,17 Z M51.25,11.375 L51.25,15.75 L58.125,15.75 L58.125,11.375 L51.25,11.375 Z M68.75,8.875 L61.875,8.875 C61.1846441,8.875 60.625,8.31535594 60.625,7.625 L60.625,3.25 C60.625,2.55964406 61.1846441,2 61.875,2 L68.75,2 C69.4403559,2 70,2.55964406 70,3.25 L70,7.625 C70,8.31535594 69.4403559,8.875 68.75,8.875 Z M61.875,3.25 L61.875,7.625 L68.75,7.625 L68.75,3.25 L61.875,3.25 Z M58.125,8.875 L51.25,8.875 C50.5596441,8.875 50,8.31535594 50,7.625 L50,3.25 C50,2.55964406 50.5596441,2 51.25,2 L58.125,2 C58.8153559,2 59.375,2.55964406 59.375,3.25 L59.375,7.625 C59.375,8.31535594 58.8153559,8.875 58.125,8.875 Z M51.25,3.25 L51.25,7.625 L58.125,7.625 L58.125,3.25 L51.25,3.25 Z" transform="translate(-50 -2)"/>
</svg>
