<?xml version="1.0" encoding="utf-8"?>
<!-- Generator: Adobe Illustrator 24.2.0, SVG Export Plug-In . SVG Version: 6.00 Build 0)  -->
<svg version="1.1" id="Layer_1" xmlns="http://www.w3.org/2000/svg" xmlns:xlink="http://www.w3.org/1999/xlink" x="0px" y="0px"
	 viewBox="0 0 188 50" style="enable-background:new 0 0 188 50;" xml:space="preserve">
<style type="text/css">
	.st0{fill:#31164C;}
	.st1{fill-rule:evenodd;clip-rule:evenodd;fill:#349348;}
	.st2{fill-rule:evenodd;clip-rule:evenodd;fill:#73AD43;}
	.st3{fill-rule:evenodd;clip-rule:evenodd;fill:#AFD139;}
	.st4{fill-rule:evenodd;clip-rule:evenodd;fill:#FEFEFE;}
	.st5{fill:url(#XMLID_2_);}
	.st6{fill:#793E97;}
</style>
<g id="Symbols">
	<g id="Header" transform="translate(-77.000000, -9.000000)">
		<g id="Group-5" transform="translate(77.000000, 9.000000)">
			<g id="Group" transform="translate(96.000000, 25.000000)">
				<g id="datastage">
					<g id="Group-3" transform="translate(0.000000, 8.703281)">
						<path id="POWEREDBY" class="st0" d="M7,6V4.3h1.4c1.5,0,2.3-0.7,2.3-2s-0.9-2-2.3-2H6.2V6H7z M8.4,3.6H7V1.1h1.4
							c1,0,1.6,0.5,1.6,1.3S9.4,3.6,8.4,3.6z M14.5,6.1c1.7,0,3-1.2,3-2.9s-1.3-2.9-3-2.9c-1.7,0-3,1.2-3,2.9S12.8,6.1,14.5,6.1z
							 M14.5,5.4c-1.3,0-2.2-0.9-2.2-2.2S13.3,1,14.5,1c1.2,0,2.2,0.9,2.2,2.2S15.8,5.4,14.5,5.4z M20.7,6l1.5-4.5L23.7,6h0.8
							l1.9-5.6h-0.8L24.2,5l-1.5-4.6h-0.7L20.3,5l-1.5-4.6H18L19.8,6H20.7z M31.5,6V5.3h-3.3V3.5H31V2.8h-2.8V1.1h3.2V0.4h-4V6H31.5
							z M33.6,6V4.3H35c0.1,0,0.2,0,0.4,0L36.5,6h0.9l-1.3-1.9c0.8-0.3,1.2-0.9,1.2-1.8c0-1.2-0.9-2-2.3-2h-2.2V6H33.6z M35,3.6
							h-1.4V1.1H35c1,0,1.6,0.5,1.6,1.3S36,3.6,35,3.6z M42.7,6V5.3h-3.3V3.5h2.8V2.8h-2.8V1.1h3.2V0.4h-4V6H42.7z M46.3,6
							c1.8,0,3-1.1,3-2.8s-1.2-2.8-3-2.8H44V6H46.3z M46.3,5.3h-1.5V1.1h1.5c1.4,0,2.3,0.8,2.3,2.1S47.7,5.3,46.3,5.3z M55.4,6
							c1.4,0,2.1-0.6,2.1-1.5c0-0.7-0.4-1.2-1-1.4c0.4-0.2,0.8-0.6,0.8-1.2c0-0.9-0.7-1.4-2-1.4h-2.5V6H55.4z M55.2,2.8h-1.6V1h1.6
							c0.8,0,1.3,0.3,1.3,0.9S56,2.8,55.2,2.8z M55.4,5.4h-1.8V3.5h1.8c0.9,0,1.4,0.3,1.4,0.9S56.3,5.4,55.4,5.4z M60.8,6V4.1
							L63,0.4h-0.8l-1.8,3l-1.8-3h-0.9L60,4v2H60.8z"/>
					</g>
					<g id="terra" transform="translate(68.000000, 0.000000)">
						<path id="Fill-1" class="st1" d="M0,7.8v9.3c0,1.1,0.6,2.2,1.6,2.7l8.3,4.7c1,0.6,2.2,0.6,3.2,0l8.3-4.7
							c1-0.6,1.6-1.6,1.6-2.7V7.8c0-1.1-0.6-2.2-1.6-2.7l-8.3-4.7c-1-0.6-2.2-0.6-3.2,0L1.6,5.1C0.6,5.6,0,6.7,0,7.8"/>
						<path id="Fill-3" class="st2" d="M2.9,6l-2.2,7.8c-0.3,0.9,0,1.9,0.7,2.6l5.8,5.8c0.7,0.7,1.7,1,2.7,0.7l8-2.1
							c1-0.2,1.7-1,2-1.9l2.2-7.8c0.3-0.9,0-1.9-0.7-2.6l-5.8-5.8c-0.7-0.7-1.7-1-2.7-0.7L4.9,4C3.9,4.3,3.1,5,2.9,6"/>
						<path id="Fill-5" class="st3" d="M10.5,20.6c-0.4-0.1-0.9-0.3-1.5-0.5c-5.4-1.6-4.4-0.5-5.7-5.9c-1.3-5.4-1.7-4,2.4-7.7
							c4.1-3.8,2.7-3.4,8.1-1.8c5.4,1.6,4.4,0.5,5.7,5.9c1.3,5.4,1.7,4-2.4,7.7c-3.3,3-3,3.4-5.6,2.6"/>
						<path id="Fill-7" class="st4" d="M6.9,9.5H4.1c-0.1,0-0.1,0-0.1,0.1v0.4c0,0.1,0,0.1,0.1,0.1h1c0.1,0,0.1,0,0.1,0.1v4.4
							c0,0.1,0,0.1,0.1,0.1h0.5c0.1,0,0.1,0,0.1-0.1v-4.4c0-0.1,0-0.1,0.1-0.1h1c0.1,0,0.1,0,0.1-0.1V9.7C7,9.6,7,9.5,6.9,9.5"/>
						<path id="Fill-9" class="st4" d="M9.4,12.5C9.4,12.5,9.4,12.6,9.4,12.5l-1.5,0.1c-0.1,0-0.1,0-0.1-0.1V12c0-0.2,0-0.4,0.1-0.5
							c0.1-0.1,0.2-0.1,0.4-0.1h0.5c0.2,0,0.3,0,0.4,0.1c0.1,0.1,0.1,0.3,0.1,0.5V12.5z M9,10.6H8.2c-0.4,0-0.7,0.1-0.9,0.3
							c-0.2,0.2-0.3,0.5-0.3,1v1.7c0,0.4,0.1,0.7,0.3,0.9c0.2,0.2,0.5,0.3,0.9,0.3H10c0.1,0,0.1,0,0.1-0.1v-0.4c0-0.1,0-0.1-0.1-0.1
							H8.3c-0.4,0-0.6-0.2-0.6-0.6v-0.4c0-0.1,0-0.1,0.1-0.1H10c0.1,0,0.1,0,0.1-0.1v-1.1c0-0.4-0.1-0.7-0.3-1
							C9.6,10.8,9.3,10.6,9,10.6L9,10.6z"/>
						<path id="Fill-11" class="st4" d="M17.9,14.1C17.9,14.2,17.9,14.2,17.9,14.1l-1,0.1c-0.2,0-0.4,0-0.5-0.1
							c-0.1-0.1-0.1-0.3-0.1-0.4v-0.3c0-0.2,0-0.3,0.1-0.4c0.1-0.1,0.3-0.1,0.5-0.1h0.9c0.1,0,0.1,0,0.1,0.1V14.1z M18.4,11
							c-0.2-0.2-0.5-0.3-0.9-0.3H16c-0.1,0-0.1,0-0.1,0.1v0.4c0,0.1,0,0.1,0.1,0.1h1.4c0.4,0,0.6,0.2,0.6,0.6v0.3h-1.1
							c-0.4,0-0.7,0.1-1,0.3c-0.2,0.2-0.3,0.5-0.3,0.9v0.3c0,0.4,0.1,0.7,0.3,0.9c0.2,0.2,0.6,0.3,1,0.3h1.8c0-0.3,0-0.7,0-0.8v-0.5
							v-1.2v-0.5C18.7,11.5,18.6,11.2,18.4,11L18.4,11z"/>
						<path id="Fill-13" class="st4" d="M12.7,10.6h-0.3c-0.2,0-0.3,0-0.5,0.1c-0.1,0.1-0.2,0.2-0.3,0.3h0v-0.3c0-0.1,0-0.1-0.1-0.1
							h-0.5c-0.1,0-0.1,0-0.1,0.1v4c0,0.1,0,0.1,0.1,0.1h0.5c0.1,0,0.1,0,0.1-0.1v-2.6c0-0.5,0.2-0.8,0.6-0.8h0.5
							c0.1,0,0.1,0,0.1-0.1v-0.4C12.8,10.7,12.7,10.6,12.7,10.6"/>
						<path id="Fill-15" class="st4" d="M15.1,10.6h-0.3c-0.2,0-0.3,0-0.5,0.1c-0.1,0.1-0.2,0.2-0.3,0.3h0v-0.3c0-0.1,0-0.1-0.1-0.1
							h-0.5c-0.1,0-0.1,0-0.1,0.1v4c0,0.1,0,0.1,0.1,0.1h0.5c0.1,0,0.1,0,0.1-0.1v-2.6c0-0.5,0.2-0.8,0.6-0.8h0.5
							c0.1,0,0.1,0,0.1-0.1v-0.4C15.3,10.7,15.2,10.6,15.1,10.6"/>
					</g>
				</g>
			</g>
			<g id="BL_LOGO_RGB___LOGOTYPE---GRAD_DARK_ON_LIGHT">
				
					<linearGradient id="XMLID_2_" gradientUnits="userSpaceOnUse" x1="-202.1369" y1="405.6936" x2="-201.3922" y2="406.4374" gradientTransform="matrix(24.057 0 0 -24.0266 4865.0269 9769.3271)">
					<stop  offset="0" style="stop-color:#793E97"/>
					<stop  offset="1" style="stop-color:#FF7C6E"/>
				</linearGradient>
				<path id="XMLID_504_" class="st5" d="M0.8,13.1c2,0,2.9-1,4.4-2.7c1.5-1.7,3.3-3.9,6.9-3.9s5.4,2.2,6.9,3.9
					c1.5,1.7,2.4,2.7,4.4,2.7H24c0-0.3,0-0.7,0-1c0-6.6-5.4-12-12-12S0,5.5,0,12.1c0,0.3,0,0.7,0,1H0.8z M16.5,12.5
					C15,10.8,14,9.8,12.1,9.8s-2.9,1-4.4,2.7c-1.5,1.7-3.3,3.8-6.8,3.9c1.7,4.5,6.1,7.7,11.2,7.7s9.5-3.2,11.2-7.7
					C19.7,16.4,17.9,14.3,16.5,12.5z"/>
				<g id="XMLID_463_" transform="translate(34.506000, 4.556250)">
					<path id="XMLID_501_" class="st6" d="M9.5,2.6c1,0.8,1.4,2.1,1.4,3.7c0,1.7-0.5,2.9-1.5,3.7c-1,0.8-2.5,1.2-4.5,1.2H3.1V15h-3
						V1.3h4.8C7,1.4,8.5,1.8,9.5,2.6z M7.3,8c0.4-0.4,0.5-1,0.5-1.8S7.6,4.8,7.1,4.5C6.6,4.2,5.9,4,4.9,4H3.2v4.6h2.1
						C6.2,8.6,6.9,8.4,7.3,8z"/>
					<path id="XMLID_499_" class="st6" d="M18.1,7.1c-0.9,0-1.5,0.3-1.9,0.9c-0.4,0.6-0.6,1.4-0.6,2.5V15h-2.9V4.5h2.9v1.4
						c0.4-0.4,0.9-0.8,1.4-1.1c0.6-0.3,1.2-0.5,1.7-0.5l0,2.8L18.1,7.1L18.1,7.1z"/>
					<path id="XMLID_496_" class="st6" d="M30.6,9.8c0,1.5-0.5,2.8-1.6,3.9c-1.1,1-2.4,1.5-4,1.5s-2.9-0.5-4-1.5
						c-1.1-1-1.6-2.3-1.6-3.9S20,7,21,5.9c1.1-1.1,2.4-1.6,4-1.6s2.9,0.5,4,1.6C30,7,30.6,8.2,30.6,9.8z M22.4,9.8
						c0,0.9,0.2,1.5,0.7,2.1c0.5,0.5,1.1,0.8,1.9,0.8s1.4-0.3,1.9-0.8c0.5-0.5,0.7-1.2,0.7-2.1s-0.2-1.5-0.7-2.1
						c-0.5-0.5-1.1-0.8-1.9-0.8s-1.4,0.3-1.9,0.8S22.4,8.9,22.4,9.8z"/>
					<path id="XMLID_493_" class="st6" d="M33.3,15.2V4.5h2.9v11c0,1.2-0.3,2.1-1,2.7c-0.7,0.7-1.5,1-2.6,1c-1,0-2-0.4-2.9-1.2
						l1.3-2.2c0.4,0.5,0.8,0.7,1.3,0.7c0.3,0,0.5-0.1,0.6-0.3C33.2,15.9,33.3,15.6,33.3,15.2z M33.5,3.2C33.2,2.8,33,2.4,33,1.9
						s0.2-0.9,0.5-1.2s0.7-0.5,1.2-0.5s0.9,0.2,1.2,0.5s0.5,0.7,0.5,1.2S36.3,2.8,36,3.2s-0.7,0.5-1.2,0.5
						C34.3,3.7,33.9,3.5,33.5,3.2z"/>
					<path id="XMLID_490_" class="st6" d="M47.7,13.5c-1.2,1.1-2.6,1.7-4.2,1.7c-1.6,0-2.9-0.5-3.9-1.5c-1-1-1.5-2.3-1.5-3.9
						s0.5-3,1.6-3.9s2.3-1.5,3.8-1.5S46,4.7,47,5.6s1.5,2.1,1.5,3.6v1.5h-7.7c0.1,0.6,0.4,1,0.9,1.4c0.5,0.4,1.1,0.5,1.7,0.5
						c1,0,1.9-0.3,2.6-1L47.7,13.5z M44.8,7.3c-0.4-0.3-0.9-0.5-1.5-0.5c-0.6,0-1.1,0.2-1.6,0.5c-0.5,0.4-0.8,0.8-0.9,1.4h4.6
						C45.5,8.1,45.3,7.6,44.8,7.3z"/>
					<path id="XMLID_488_" class="st6" d="M55.2,12.6c1,0,1.9-0.5,2.6-1.5l1.7,1.9c-1.4,1.4-2.8,2.1-4.4,2.1c-1.6,0-2.9-0.5-4-1.5
						c-1.1-1-1.6-2.3-1.6-3.9s0.5-2.9,1.6-3.9c1.1-1,2.4-1.5,3.9-1.5c0.8,0,1.5,0.2,2.3,0.5c0.8,0.3,1.5,0.8,2,1.4l-1.5,2
						c-0.3-0.4-0.8-0.7-1.2-0.9s-1-0.3-1.5-0.3c-0.8,0-1.4,0.2-2,0.8s-0.8,1.2-0.8,2.1c0,0.9,0.3,1.6,0.8,2.1
						C53.9,12.3,54.5,12.6,55.2,12.6z"/>
					<path id="XMLID_486_" class="st6" d="M64.6,6.6v4.7c0,0.4,0.1,0.7,0.3,0.9c0.2,0.2,0.5,0.3,0.7,0.3c0.5,0,1-0.2,1.4-0.7
						l1.1,2.1c-0.9,0.8-1.9,1.2-2.9,1.2c-1,0-1.9-0.3-2.6-1c-0.7-0.7-1-1.6-1-2.7V6.7h-1.2V4.6h1.2V1.4h2.9v3.2h2.6v2.1H64.6
						L64.6,6.6z"/>
					<path id="XMLID_482_" class="st6" d="M80.3,15h-6V1.3h5.3c0.9,0,1.7,0.1,2.4,0.3c0.7,0.2,1.2,0.5,1.5,0.9
						c0.6,0.7,0.9,1.5,0.9,2.4c0,1.1-0.3,1.9-1,2.4c-0.2,0.2-0.4,0.3-0.5,0.3c-0.1,0.1-0.2,0.1-0.5,0.2C83.3,8,84,8.4,84.5,9
						c0.5,0.6,0.8,1.3,0.8,2.2c0,0.9-0.3,1.8-1,2.5C83.5,14.6,82.2,15,80.3,15z M77.4,6.9h1.5c0.9,0,1.5-0.1,1.9-0.3
						s0.6-0.6,0.6-1.2s-0.2-1-0.6-1.2c-0.4-0.2-1-0.3-1.9-0.3h-1.5V6.9z M77.4,12.4h2.1c0.9,0,1.5-0.1,2-0.3
						c0.4-0.2,0.7-0.6,0.7-1.3c0-0.6-0.2-1.1-0.7-1.2c-0.5-0.2-1.2-0.3-2.2-0.3h-1.8L77.4,12.4L77.4,12.4z"/>
					<path id="XMLID_479_" class="st6" d="M96,15h-2.8v-1.3c-0.8,0.9-1.7,1.4-2.8,1.4c-1.1,0-2-0.3-2.8-1c-0.8-0.6-1.1-1.5-1.1-2.6
						s0.4-1.9,1.2-2.4c0.8-0.5,1.9-0.8,3.2-0.8h2.2V8.4c0-1.1-0.6-1.7-1.8-1.7c-0.5,0-1,0.1-1.6,0.3s-1,0.5-1.4,0.8l-1.3-1.9
						c1.4-1,2.9-1.5,4.7-1.5c1.3,0,2.3,0.3,3.1,1C95.6,6,96,7,96,8.4L96,15L96,15z M93,11v-0.5h-1.8c-1.2,0-1.8,0.4-1.8,1.1
						c0,0.4,0.2,0.7,0.4,0.9c0.3,0.2,0.7,0.3,1.2,0.3c0.5,0,1-0.2,1.4-0.5C92.8,12,93,11.5,93,11z"/>
					<path id="XMLID_477_" class="st6" d="M106.1,11.7c0,1-0.4,1.9-1.2,2.5c-0.8,0.6-1.7,0.9-2.9,0.9c-0.8,0-1.6-0.2-2.4-0.4
						c-0.9-0.3-1.6-0.7-2.3-1.2l1.3-1.8c1.1,0.9,2.2,1.3,3.5,1.3c0.4,0,0.7-0.1,0.9-0.2c0.2-0.2,0.3-0.3,0.3-0.6
						c0-0.2-0.2-0.5-0.5-0.7c-0.3-0.2-0.8-0.4-1.3-0.6s-1-0.3-1.3-0.5c-0.3-0.1-0.7-0.3-1-0.6C98.4,9.3,98,8.6,98,7.6
						s0.4-1.8,1.2-2.4s1.8-0.9,3-0.9s2.5,0.4,3.7,1.2l-1.1,1.9c-0.9-0.6-1.8-0.9-2.7-0.9s-1.4,0.2-1.4,0.7c0,0.3,0.2,0.5,0.4,0.6
						c0.3,0.2,0.8,0.3,1.4,0.5c0.7,0.2,1.1,0.4,1.4,0.5c0.3,0.1,0.6,0.3,1,0.5C105.8,10,106.1,10.7,106.1,11.7z"/>
					<path id="XMLID_474_" class="st6" d="M117.1,13.5c-1.2,1.1-2.6,1.7-4.2,1.7c-1.6,0-2.9-0.5-3.9-1.5c-1-1-1.5-2.3-1.5-3.9
						s0.5-3,1.6-3.9c1.1-1,2.3-1.5,3.8-1.5s2.7,0.4,3.7,1.3s1.5,2.1,1.5,3.6v1.5h-7.7c0.1,0.6,0.4,1,0.9,1.4s1.1,0.5,1.7,0.5
						c1,0,1.9-0.3,2.6-1L117.1,13.5z M114.2,7.3c-0.4-0.3-0.9-0.5-1.5-0.5c-0.6,0-1.1,0.2-1.6,0.5c-0.5,0.4-0.8,0.8-0.9,1.4h4.6
						C114.9,8.1,114.6,7.6,114.2,7.3z"/>
					<polygon id="XMLID_472_" class="st6" points="122.5,15 119.6,15 119.6,0.5 122.5,0.5 					"/>
					<path id="XMLID_469_" class="st6" d="M125.1,3.2c-0.3-0.3-0.5-0.7-0.5-1.2s0.2-0.9,0.5-1.2c0.3-0.3,0.7-0.5,1.2-0.5
						s0.9,0.2,1.2,0.5c0.3,0.3,0.5,0.7,0.5,1.2s-0.2,0.9-0.5,1.2c-0.3,0.3-0.7,0.5-1.2,0.5C125.8,3.7,125.4,3.5,125.1,3.2z
						 M127.8,15h-2.9V4.5h2.9V15z"/>
					<path id="XMLID_467_" class="st6" d="M133.1,9.1V15h-2.9V4.5h2.9v1.2c0.9-0.9,1.9-1.3,3-1.3c1.1,0,2,0.4,2.8,1.2
						c0.8,0.8,1.1,1.8,1.1,3.1V15h-2.9V9.1c0-1.6-0.6-2.4-1.8-2.4c-0.6,0-1.1,0.2-1.5,0.6C133.3,7.7,133.1,8.3,133.1,9.1z"/>
					<path id="XMLID_464_" class="st6" d="M151.3,13.5c-1.2,1.1-2.6,1.7-4.2,1.7c-1.6,0-2.9-0.5-3.9-1.5c-1-1-1.5-2.3-1.5-3.9
						s0.5-3,1.6-3.9s2.3-1.5,3.8-1.5c1.5,0,2.7,0.4,3.7,1.3c1,0.9,1.5,2.1,1.5,3.6v1.5h-7.7c0.1,0.6,0.4,1,0.9,1.4s1.1,0.5,1.7,0.5
						c1,0,1.9-0.3,2.6-1L151.3,13.5z M148.5,7.3c-0.4-0.3-0.9-0.5-1.5-0.5c-0.6,0-1.1,0.2-1.6,0.5c-0.5,0.4-0.8,0.8-0.9,1.4h4.6
						C149.1,8.1,148.9,7.6,148.5,7.3z"/>
				</g>
			</g>
		</g>
	</g>
</g>
</svg>
