<svg xmlns="http://www.w3.org/2000/svg" viewBox="0 0 188 50">
    <path d="M103 39.7V38h1.4c1.5 0 2.3-.7 2.3-2s-.9-2-2.3-2h-2.2v5.7h.8zm1.4-2.4H103v-2.5h1.4c1 0 1.6.5 1.6 1.3s-.6 1.2-1.6 1.2zm6.1 2.5c1.7 0 3-1.2 3-2.9s-1.3-2.9-3-2.9-3 1.2-3 2.9 1.3 2.9 3 2.9zm0-.7c-1.3 0-2.2-.9-2.2-2.2s1-2.2 2.2-2.2c1.2 0 2.2.9 2.2 2.2s-.9 2.2-2.2 2.2zm6.2.6l1.5-4.5 1.5 4.5h.8l1.9-5.6h-.8l-1.4 4.6-1.5-4.6h-.7l-1.7 4.6-1.5-4.6h-.8l1.8 5.6h.9zm10.8 0V39h-3.3v-1.8h2.8v-.7h-2.8v-1.7h3.2v-.7h-4v5.6h4.1zm2.1 0V38h1.8l1.1 1.7h.9l-1.3-1.9c.8-.3 1.2-.9 1.2-1.8 0-1.2-.9-2-2.3-2h-2.2v5.7h.8zm1.4-2.4h-1.4v-2.5h1.4c1 0 1.6.5 1.6 1.3s-.6 1.2-1.6 1.2zm7.7 2.4V39h-3.3v-1.8h2.8v-.7h-2.8v-1.7h3.2v-.7h-4v5.6h4.1zm3.6 0c1.8 0 3-1.1 3-2.8s-1.2-2.8-3-2.8H140v5.6h2.3zm0-.7h-1.5v-4.2h1.5c1.4 0 2.3.8 2.3 2.1s-.9 2.1-2.3 2.1zm9.1.7c1.4 0 2.1-.6 2.1-1.5 0-.7-.4-1.2-1-1.4.4-.2.8-.6.8-1.2 0-.9-.7-1.4-2-1.4h-2.5v5.5h2.6zm-.2-3.2h-1.6v-1.8h1.6c.8 0 1.3.3 1.3.9s-.5.9-1.3.9zm.2 2.6h-1.8v-1.9h1.8c.9 0 1.4.3 1.4.9s-.5 1-1.4 1zm5.4.6v-1.9l2.2-3.7h-.8l-1.8 3-1.8-3h-.9l2.3 3.6v2h.8z" fill="#31164c"/>
    <g fill-rule="evenodd" clip-rule="evenodd">
        <path d="M164 32.8v9.3a3 3 0 001.6 2.7l8.3 4.7a3 3 0 003.2 0l8.3-4.7c1-.6 1.6-1.6 1.6-2.7v-9.3a3 3 0 00-1.6-2.7l-8.3-4.7a3 3 0 00-3.2 0l-8.3 4.7a3 3 0 00-1.6 2.7" fill="#349348"/>
        <path d="M166.9 31l-2.2 7.8c-.3.9 0 1.9.7 2.6l5.8 5.8c.7.7 1.7 1 2.7.7l8-2.1c1-.2 1.7-1 2-1.9l2.2-7.8c.3-.9 0-1.9-.7-2.6l-5.8-5.8c-.7-.7-1.7-1-2.7-.7l-8 2c-1 .3-1.8 1-2 2" fill="#73ad43"/>
        <path d="M174.5 45.6l-1.5-.5c-5.4-1.6-4.4-.5-5.7-5.9-1.3-5.4-1.7-4 2.4-7.7 4.1-3.8 2.7-3.4 8.1-1.8 5.4 1.6 4.4.5 5.7 5.9 1.3 5.4 1.7 4-2.4 7.7-3.3 3-3 3.4-5.6 2.6" fill="#afd139"/>
        <path d="M170.9 34.5h-2.8l-.1.1v.4l.1.1h1l.1.1v4.4l.1.1h.5l.1-.1v-4.4l.1-.1h1l.1-.1v-.3l-.2-.2m2.5 3s0 .1 0 0l-1.5.1-.1-.1V37l.1-.5.4-.1h.5l.4.1.1.5v.5zm-.4-1.9h-.8c-.4 0-.7.1-.9.3-.2.2-.3.5-.3 1v1.7c0 .4.1.7.3.9.2.2.5.3.9.3h1.8l.1-.1v-.4l-.1-.1h-1.7c-.4 0-.6-.2-.6-.6v-.4l.1-.1h2.2l.1-.1v-1.1c0-.4-.1-.7-.3-1-.2-.1-.5-.3-.8-.3zm8.9 3.5c0 .1 0 .1 0 0l-1 .1-.5-.1-.1-.4v-.3l.1-.4.5-.1h.9l.1.1v1.1zm.5-3.1c-.2-.2-.5-.3-.9-.3H180l-.1.1v.4l.1.1h1.4c.4 0 .6.2.6.6v.3h-1.1c-.4 0-.7.1-1 .3-.2.2-.3.5-.3.9v.3c0 .4.1.7.3.9.2.2.6.3 1 .3h1.8v-3c0-.4-.1-.7-.3-.9zm-5.7-.4h-.3l-.5.1-.3.3v-.3l-.1-.1h-.5l-.1.1v4l.1.1h.5l.1-.1v-2.6c0-.5.2-.8.6-.8h.5l.1-.1v-.4l-.1-.2m2.4 0h-.3l-.5.1-.3.3v-.3l-.1-.1h-.5l-.1.1v4l.1.1h.5l.1-.1v-2.6c0-.5.2-.8.6-.8h.5l.1-.1v-.4c.1-.1 0-.2-.1-.2" fill="#fefefe"/>
    </g>
    <linearGradient id="baseline-logo-color_svg__a" gradientUnits="userSpaceOnUse" x1="-202.1" y1="405.7" x2="-201.4" y2="406.4" gradientTransform="matrix(24.057 0 0 -24.0266 4865 9769.3)">
        <stop offset="0" stop-color="#793e97"/>
        <stop offset="1" stop-color="#ff7c6e"/>
    </linearGradient>
    <path d="M.8 13.1c2 0 2.9-1 4.4-2.7 1.5-1.7 3.3-3.9 6.9-3.9s5.4 2.2 6.9 3.9c1.5 1.7 2.4 2.7 4.4 2.7h.6v-1c0-6.6-5.4-12-12-12S0 5.5 0 12.1v1h.8zm15.7-.6C15 10.8 14 9.8 12.1 9.8s-2.9 1-4.4 2.7c-1.5 1.7-3.3 3.8-6.8 3.9a12 12 0 0022.4 0c-3.6 0-5.4-2.1-6.8-3.9z" fill="url(#baseline-logo-color_svg__a)"/>
    <path d="M44 7.2c1 .8 1.4 2 1.4 3.7 0 1.7-.5 2.9-1.5 3.7-1 .8-2.5 1.2-4.5 1.2h-1.8v3.8h-3V5.9h4.8c2.1 0 3.6.5 4.6 1.3zm-2.2 5.4c.4-.4.5-1 .5-1.8s-.2-1.4-.7-1.7c-.5-.3-1.2-.5-2.2-.5h-1.7v4.6h2.1c1 0 1.6-.2 2-.6zm10.8-.9c-.9 0-1.5.3-1.9.9-.4.6-.6 1.4-.6 2.5v4.5h-2.9V9h3v1.4c.3-.4.8-.8 1.3-1.1a4 4 0 011.7-.5v2.8h-.6zm12.5 2.7a5.3 5.3 0 01-5.6 5.4c-1.6 0-2.9-.5-4-1.5-1-1-1.6-2.3-1.6-4s.6-2.7 1.6-3.8c1.1-1.1 2.4-1.6 4-1.6s3 .5 4 1.6c1 1 1.6 2.3 1.6 3.9zm-8.2 0a2.6 2.6 0 002.6 2.9 3 3 0 002-.8c.4-.5.6-1.2.6-2.1s-.2-1.5-.7-2.1c-.5-.5-1-.8-1.9-.8s-1.4.3-1.9.8-.7 1.2-.7 2zm10.9 5.4V9h3v11c0 1.2-.4 2-1 2.7-.8.7-1.6 1-2.7 1-1 0-2-.4-2.9-1.2l1.3-2.2c.4.5.8.7 1.3.7.3 0 .5-.1.6-.3.3-.3.4-.6.4-1zm.2-12c-.3-.4-.5-.8-.5-1.3s.2-1 .5-1.2.7-.5 1.2-.5 1 .2 1.2.5.5.7.5 1.2 0 .9-.4 1.3-.7.5-1.2.5-.9-.2-1.3-.5zM82.2 18a6 6 0 01-4.2 1.8c-1.6 0-2.9-.5-3.9-1.5s-1.5-2.3-1.5-4 .5-3 1.6-3.8S76.5 9 78 9s2.5.3 3.5 1.2 1.5 2 1.5 3.6v1.5h-7.7c.1.6.4 1 1 1.4.4.4 1 .5 1.6.5 1 0 2-.3 2.6-1l1.7 1.9zm-2.9-6c-.4-.3-.9-.5-1.5-.5a3 3 0 00-1.6.5c-.5.4-.8.8-.9 1.4H80c.1-.6 0-1.1-.6-1.4zm10.4 5.2c1 0 2-.5 2.6-1.5l1.7 1.9a6 6 0 01-4.4 2c-1.6 0-2.9-.4-4-1.4-1-1-1.6-2.3-1.6-4s.5-2.8 1.6-3.8a5.6 5.6 0 016.2-1c.8.3 1.5.8 2 1.4l-1.5 2a3.4 3.4 0 00-2.7-1.2c-.8 0-1.4.2-2 .8s-.8 1.2-.8 2c0 1 .3 1.7.8 2.2.8.3 1.4.6 2.1.6zm9.4-6v4.7c0 .4.1.7.3.9.2.2.5.3.7.3.5 0 1-.2 1.4-.7l1.1 2c-.9.9-1.9 1.3-2.9 1.3s-1.9-.3-2.6-1c-.7-.7-1-1.6-1-2.7v-4.7H95V9.2h1.2V6h3v3.2h2.5v2h-2.5zm15.7 8.4h-6V5.9h5.3c1 0 1.7 0 2.4.3.7.2 1.2.5 1.5.9.6.7 1 1.5 1 2.4 0 1-.4 1.9-1 2.4l-.6.3-.5.2c1 .2 1.6.6 2.1 1.2s.8 1.3.8 2.2c0 .9-.3 1.8-1 2.5-.8.9-2 1.3-4 1.3zm-2.9-8.1h1.5c1 0 1.5-.1 2-.3s.5-.6.5-1.2-.2-1-.6-1.2c-.4-.2-1-.3-1.9-.3H112v3zm0 5.5h2.1a5 5 0 002-.3c.4-.2.7-.6.7-1.3 0-.6-.2-1.1-.7-1.2a6 6 0 00-2.2-.3H112v3zm18.6 2.6h-2.8v-1.3c-.8.9-1.7 1.4-2.8 1.4a4 4 0 01-2.8-1c-.8-.6-1-1.5-1-2.6s.3-2 1.1-2.4a6 6 0 013.2-.8h2.2c0-1-.6-1.6-1.8-1.6a5 5 0 00-3 1l-1.3-1.8a8 8 0 014.7-1.5c1.3 0 2.3.3 3.1 1 .8.6 1.2 1.6 1.2 3v6.6zm-3-4V15h-1.8c-1.2 0-1.8.4-1.8 1 0 .5.2.8.4 1a2.4 2.4 0 002.6-.2c.4-.3.6-.8.6-1.3zm13.1.7a3 3 0 01-1.2 2.5c-.8.6-1.7.9-2.9.9a8.4 8.4 0 01-4.7-1.6l1.3-1.8c1.1.9 2.2 1.3 3.5 1.3l1-.2.2-.6c0-.2-.2-.5-.5-.7l-1.3-.6-1.3-.5c-.3-.1-.7-.3-1-.6-.8-.5-1.2-1.2-1.2-2.2s.4-1.8 1.2-2.4 1.8-1 3-1 2.5.5 3.7 1.3l-1 1.9c-1-.6-1.9-1-2.8-1s-1.4.3-1.4.8c0 .3.2.5.4.6l1.4.5 1.4.5c.3 0 .6.3 1 .5 1 .7 1.2 1.4 1.2 2.4zm11 1.7a6 6 0 01-4.2 1.8c-1.6 0-2.9-.5-3.9-1.5s-1.5-2.3-1.5-4 .5-3 1.6-3.8c1.1-1 2.3-1.5 3.8-1.5s2.7.4 3.7 1.3 1.5 2 1.5 3.6v1.5H145c.1.6.4 1 1 1.4s1 .5 1.6.5c1 0 2-.3 2.6-1l1.5 1.8zm-2.9-6.1c-.4-.3-.9-.5-1.5-.5a3 3 0 00-1.6.5c-.5.4-.8.8-.9 1.4h4.6c.1-.6-.2-1.1-.6-1.4zm8.3 7.7h-2.9V5h3zm2.6-11.8c-.3-.3-.5-.7-.5-1.2s.2-1 .5-1.2c.3-.3.7-.5 1.2-.5s1 .2 1.2.5c.3.3.5.7.5 1.2s-.2.9-.5 1.2c-.3.3-.7.5-1.2.5s-.9-.2-1.2-.5zm2.7 11.8h-2.9V9h3v10.5zm5.3-5.9v5.9h-2.9V9h3v1.2c.8-1 1.8-1.3 3-1.3 1 0 2 .4 2.7 1.2a4 4 0 011.1 3v6.4h-2.9v-6c0-1.5-.6-2.3-1.8-2.3a2 2 0 00-1.5.6c-.5.4-.7 1-.7 1.8zm18.2 4.3a6 6 0 01-4.2 1.8c-1.6 0-2.9-.5-3.9-1.5s-1.5-2.3-1.5-4 .5-3 1.6-3.8 2.3-1.5 3.8-1.5 2.7.4 3.7 1.3 1.5 2 1.5 3.6v1.5h-7.7c.1.6.4 1 1 1.4s1 .5 1.6.5c1 0 2-.3 2.6-1l1.5 1.8zm-2.8-6c-.4-.3-.9-.5-1.5-.5a3 3 0 00-1.6.5c-.5.4-.8.8-.9 1.4h4.6c0-.6-.2-1.1-.6-1.4z" fill="#793e97"/>
</svg>
