<svg xmlns="http://www.w3.org/2000/svg" xmlns:xlink="http://www.w3.org/1999/xlink" id="Layer_1" viewBox="0 0 87 174">
  <style>
    .st2{fill-rule:evenodd;clip-rule:evenodd;fill:#fff}
  </style>
  <defs>
    <path id="SVGID_1_" d="M82 174H0V0h82c2.8 0 5 2.2 5 5v164c0 2.8-2.2 5-5 5z"/>
  </defs>
  <clipPath id="SVGID_2_">
    <use overflow="visible" xlink:href="#SVGID_1_"/>
  </clipPath>
  <linearGradient id="SVGID_3_" x1="-194.8" x2="-193.79" y1="-183.94" y2="-183.36" gradientTransform="matrix(87 0 0 174 16942 32035.76)" gradientUnits="userSpaceOnUse">
    <stop offset="0" stop-color="#073472"/>
    <stop offset="1" stop-color="#167693"/>
  </linearGradient>
  <path fill="url(#SVGID_3_)" fill-rule="evenodd" d="M0 0v174h87V0H0z" clip-path="url(#SVGID_2_)" clip-rule="evenodd"/>
  <g id="Group-12" clip-path="url(#SVGID_2_)" opacity=".2">
    <g id="Group-8">
      <path id="Fill-7" d="M12.1 188.3c0 2.7 1.4 5.2 3.8 6.6l19 11.1c2.3 1.4 5.2 1.4 7.5 0l19.1-11.1c2.3-1.4 3.8-3.9 3.8-6.6V166c0-2.7-1.4-5.2-3.8-6.6l-19.1-11.1a7.7 7.7 0 0 0-7.5 0l-19.1 11.1A7.81 7.81 0 0 0 12 166v22.3z" class="st2"/>
      <path d="M72.1 188.3c0 2.7 1.4 5.2 3.8 6.6l19 11.1c2.3 1.4 5.2 1.4 7.5 0l19.1-11.1c2.3-1.4 3.8-3.9 3.8-6.6V166c0-2.7-1.4-5.2-3.8-6.6l-19.1-11.1a7.22 7.22 0 0 0-7.5 0l-19.1 11.2a7.81 7.81 0 0 0-3.8 6.6v22.2zM12.1 86.1c0 2.7 1.4 5.2 3.8 6.6L35 103.8c2.3 1.4 5.2 1.4 7.5 0l19.1-11.1c2.3-1.4 3.8-3.9 3.8-6.6V63.9c0-2.7-1.4-5.2-3.8-6.6L42.4 46.2a7.22 7.22 0 0 0-7.5 0L15.8 57.3a7.81 7.81 0 0 0-3.8 6.6v22.2zM72.1 86.1c0 2.7 1.4 5.2 3.8 6.6L95 103.8c2.3 1.4 5.2 1.4 7.5 0l19.1-11.1c2.3-1.4 3.8-3.9 3.8-6.6V63.9c0-2.7-1.4-5.2-3.8-6.6l-19.1-11.1a7.22 7.22 0 0 0-7.5 0L75.9 57.3a7.81 7.81 0 0 0-3.8 6.6v22.2zM41.3 137.4c0 2.7 1.4 5.2 3.7 6.6l19.1 11.1c2.3 1.4 5.2 1.4 7.5 0L90.7 144c2.3-1.4 3.8-3.9 3.8-6.6v-22.3c0-2.7-1.4-5.2-3.8-6.6l-19-11.1a7.22 7.22 0 0 0-7.5 0L45 108.6a7.81 7.81 0 0 0-3.8 6.6l.1 22.2zM41.3 33.2c0 2.7 1.4 5.2 3.7 6.6l19.1 11.1c2.3 1.4 5.2 1.4 7.5 0l19.1-11.1c2.3-1.4 3.8-3.9 3.8-6.6V11c0-2.7-1.4-5.2-3.8-6.6l-19-11.1a7.22 7.22 0 0 0-7.5 0L45 4.4a7.72 7.72 0 0 0-3.7 6.6v22.2z" class="st2"/>
    </g>
  </g>
  <path id="Star" fill="#3f789b" d="M18 26.9l-5.9 3.2 1.3-6.6-4.9-4.6 6.6-.9 2.9-6 2.9 6 6.6.9-4.9 4.6 1.3 6.6z" clip-path="url(#SVGID_2_)"/>
</svg>
