<svg xmlns="http://www.w3.org/2000/svg" viewBox="0 0 87 174">
    <linearGradient id="featured-workspace_svg__a" x1="-194.8" x2="-193.8" y1="-183.9" y2="-183.4" gradientTransform="matrix(87 0 0 174 16942 32035.8)" gradientUnits="userSpaceOnUse">
        <stop offset="0" stop-color="#073472"/>
        <stop offset="1" stop-color="#167693"/>
    </linearGradient>
    <path fill="url(#featured-workspace_svg__a)" fill-rule="evenodd" d="M0 0v174h87V0H0z" clip-rule="evenodd"/>
    <path d="M12.1 188.3c0 2.7 1.4 5.2 3.8 6.6l19 11.1a7.2 7.2 0 0 0 7.5 0l19.1-11.1a7.8 7.8 0 0 0 3.8-6.6V166c0-2.7-1.4-5.2-3.8-6.6l-19.1-11.1a7.7 7.7 0 0 0-7.5 0l-19.1 11.1A7.8 7.8 0 0 0 12 166v22.3zm60 0c0 2.7 1.4 5.2 3.8 6.6l19 11.1a7.2 7.2 0 0 0 7.5 0l19.1-11.1a7.8 7.8 0 0 0 3.8-6.6V166c0-2.7-1.4-5.2-3.8-6.6l-19.1-11.1a7.2 7.2 0 0 0-7.5 0l-19.1 11.2a7.8 7.8 0 0 0-3.8 6.6v22.2zm-60-102.2c0 2.7 1.4 5.2 3.8 6.6L35 103.8a7.2 7.2 0 0 0 7.5 0l19.1-11.1a7.8 7.8 0 0 0 3.8-6.6V63.9c0-2.7-1.4-5.2-3.8-6.6L42.4 46.2a7.2 7.2 0 0 0-7.5 0L15.8 57.3a7.8 7.8 0 0 0-3.8 6.6v22.2zm60 0c0 2.7 1.4 5.2 3.8 6.6L95 103.8a7.2 7.2 0 0 0 7.5 0l19.1-11.1a7.8 7.8 0 0 0 3.8-6.6V63.9c0-2.7-1.4-5.2-3.8-6.6l-19.1-11.1a7.2 7.2 0 0 0-7.5 0L75.9 57.3a7.8 7.8 0 0 0-3.8 6.6v22.2zm-30.8 51.3c0 2.7 1.4 5.2 3.7 6.6l19.1 11.1a7.2 7.2 0 0 0 7.5 0L90.7 144a7.8 7.8 0 0 0 3.8-6.6v-22.3c0-2.7-1.4-5.2-3.8-6.6l-19-11.1a7.2 7.2 0 0 0-7.5 0L45 108.6a7.8 7.8 0 0 0-3.8 6.6l.1 22.2zm0-104.2c0 2.7 1.4 5.2 3.7 6.6l19.1 11.1a7.2 7.2 0 0 0 7.5 0l19.1-11.1a7.8 7.8 0 0 0 3.8-6.6V11c0-2.7-1.4-5.2-3.8-6.6l-19-11.1a7.2 7.2 0 0 0-7.5 0L45 4.4a7.7 7.7 0 0 0-3.7 6.6v22.2z" opacity=".2" fill-rule="evenodd" clip-rule="evenodd" fill="#fff"/>
    <path fill="#3f789b" d="M18 26.9l-5.9 3.2 1.3-6.6-4.9-4.6 6.6-.9 2.9-6 2.9 6 6.6.9-4.9 4.6 1.3 6.6z"/>
</svg>
