<svg xmlns="http://www.w3.org/2000/svg" viewBox="0 0 185.59 60.95">
    <defs>
        <clipPath id="a">
            <path fill="none" d="M115.69 2.54h54.72v54.73h-54.72z"/>
        </clipPath>
    </defs>
    <g clip-path="url(#a)">
        <path fill="#00afd7"
              d="M156 51.44a364.96 364.96 0 0 0-6.48-6.5c-6.6-6.38-9.73-.42-15.32-2.13-4.48-1.38-9.48-12.4-8.65-13.36s7.25 4.34 10.07 4.32 9-8.74 7-11.44c-1.42-2-10.23-6-10.05-6.67s11.53-6.19 19.84 2.26c3.85 3.91-1.25 10.69 4.77 16.48 1.09 1.05 3.91 4 7.62 7.88a24.62 24.62 0 1 0-45.42-18c-3.71 14.6 5 27.06 17.8 30.31A24.55 24.55 0 0 0 156 51.44"/>
    </g>
    <path fill="#fff"
          d="M36.6 20.7h5.95V38c0 6.47-4.2 8.95-12 8.95-4.61 0-10.88-.52-11.5-6.19h6.57c.39 1.54 1.58 2.34 5.15 2.34 3 0 5.66-.8 5.66-5.35V36.2C34.64 38.16 32 39 28.91 39c-7.35 0-10.68-4.55-10.68-9.38 0-5.1 3.33-9.37 11.17-9.37 2.72 0 5.53.77 7.13 2.76h.07zm-6.12 14.13c2.73 0 5.91-.84 5.91-5.14s-3.18-5.14-5.91-5.14-5.88.83-5.88 5.14 3.19 5.14 5.88 5.14m16.28-8.4c.73-5.77 6.05-6.43 11.09-6.43 8.81 0 10.7 2.86 10.7 6.36v9.31a9.06 9.06 0 0 0 .7 3.78h-6.16a7.84 7.84 0 0 1-.41-2c-2.1 2.1-6 2.69-8.79 2.69-4.89 0-8.32-1.71-8.32-6.09 0-4.55 4-5.53 7.76-5.77l6.55-.46c1.88-.14 2.52-.45 2.52-2s-1.26-2.24-4.83-2.24c-2.63 0-4 .22-4.87 2.8zm15.84 3.89a10 10 0 0 1-3.63.8l-3.57.32c-2.17.17-3.26.77-3.26 2.45s1.58 2.62 3.89 2.62c3.11 0 6.57-1.5 6.57-4.65zm12.11-15.43h6.16v5.81h5v4.13h-5v8.74c0 1.47.45 2 2.06 2 1.08 0 2-.07 3-.14v4.13c-1.16.14-3.47.35-4.83.35-5.84 0-6.4-2.17-6.4-5.56v-9.52h-3.88V20.7h3.89zm14.1-.84H95v13.64l8.15-7h8.57l-8.92 7.13 9.48 11.62h-8.18L98 31.65l-3 2.41v5.39h-6.19z"/>
</svg>
