<svg xmlns="http://www.w3.org/2000/svg" viewBox="0 0 185.6 61">
    <defs>
        <clipPath id="gatk-logo-light_svg__a">
            <path fill="none" d="M115.7 2.5h54.7v54.8h-54.7z"/>
        </clipPath>
    </defs>
    <g clip-path="url(#gatk-logo-light_svg__a)">
        <path fill="#00afd7" d="M156 51.4a365 365 0 0 0-6.5-6.5c-6.6-6.3-9.7-.4-15.3-2-4.5-1.5-9.5-12.5-8.6-13.5s7.2 4.4 10 4.4 9-8.8 7-11.5c-1.4-2-10.2-6-10-6.6s11.5-6.2 19.8 2.2c3.9 4-1.2 10.7 4.8 16.5l7.6 7.9a24.6 24.6 0 1 0-45.4-18c-3.7 14.6 5 27 17.8 30.3a24.6 24.6 0 0 0 18.8-3.2"/>
    </g>
    <path fill="#fff" d="M36.6 20.7h6V38c0 6.5-4.2 9-12 9-4.7 0-11-.6-11.5-6.2h6.5c.4 1.5 1.6 2.3 5.2 2.3 3 0 5.6-.8 5.6-5.3v-1.6C34.6 38.2 32 39 29 39c-7.3 0-10.7-4.5-10.7-9.4 0-5 3.4-9.4 11.2-9.4 2.7 0 5.5.8 7.1 2.8h.1zm-6.1 14.1c2.7 0 5.9-.8 5.9-5.1s-3.2-5.2-6-5.2-5.8.9-5.8 5.2 3.2 5.1 5.9 5.1m16.3-8.4c.7-5.7 6-6.4 11-6.4 8.9 0 10.8 2.9 10.8 6.4v9.3a9 9 0 0 0 .7 3.7H63a7.8 7.8 0 0 1-.4-2c-2.1 2.2-6 2.7-8.8 2.7-4.9 0-8.3-1.7-8.3-6 0-4.6 4-5.6 7.7-5.8l6.6-.5c1.9-.1 2.5-.4 2.5-2s-1.3-2.2-4.8-2.2c-2.7 0-4 .2-4.9 2.8zm15.8 4a10 10 0 0 1-3.6.7l-3.6.3c-2.2.2-3.3.8-3.3 2.5s1.6 2.6 4 2.6c3 0 6.5-1.5 6.5-4.6zm12.1-15.5H81v5.8h5v4.1h-5v8.8c0 1.4.4 2 2 2l3-.2v4.2l-4.8.3c-5.8 0-6.4-2.2-6.4-5.5v-9.6h-3.9v-4.1h4zm14.1-.8H95v13.6l8.2-7h8.5l-8.9 7.1 9.5 11.6H104l-6-7.8-3 2.5v5.4h-6.2z"/>
</svg>
