<svg xmlns="http://www.w3.org/2000/svg" viewBox="0 0 379.8 96.8">
    <path d="M240.8 21.5c0-1 .4-1.9 1.1-2.6.7-.8 1.6-1.2 2.6-1.2s1.9.4 2.6 1.1c.8.7 1.2 1.7 1.2 2.7 0 1-.4 2-1.1 2.7a3.6 3.6 0 01-5.3-.1c-.8-.5-1.1-1.5-1.1-2.6zm6.5 40.5V28.8h-5.5V62h5.5zm8.3 0V37.3c0-5.5 3.3-8.5 9.2-8.5h8.6c6 0 9.2 3 9.2 8.5V62h-5.5V36.5c-.2-1.2-1.5-2-3.7-2h-8.7c-2.9 0-3.8.9-3.8 3.5v24h-5.3zm-69.2-43l17.4 17.4 3.9-3.9-17.4-17.4-3.9 3.9zm49 41.2L218 42.7l-3.9 3.9L231.6 64l3.8-3.8zm-45 3.9l17.4-17.4-3.9-3.9-17.4 17.4 3.9 3.9zm41.1-49l-17.4 17.4 3.9 3.9L235.4 19l-3.9-3.9zM2 53.1v-4c0-6.8 3.3-10.3 8.4-10.3h13.5v-2.1c0-.4-.1-.9-.4-1.2-.4-.6-.9-1-1.7-1L2 34.3v-5.5h19.5c4.3 0 6.8 1.8 7.8 6.1l.1 1.5v17.1c0 1.5-.4 2.9-1.2 4.2-1.8 2.9-4.1 4.3-6.8 4.3h-11A8.9 8.9 0 012 53.1zm5.5.6c.6 2.2 1.4 2.7 4.4 2.7h7.4c3 0 3.8-.5 4.4-2.7l.1-.5v-5.4l-.1-.6c-.5-2.1-1.4-2.7-3.8-3h-8.6c-2.4.2-3.3.9-3.8 3l-.1.6v5.4l.1.5zM37.6 62V37.3c0-5.5 3.3-8.5 9.2-8.5h8.6c6 0 9.2 3 9.2 8.5V62h-5.5V36.5c-.2-1.2-1.5-2-3.7-2h-8.7c-2.9 0-3.8.9-3.8 3.5v24h-5.3zM73 53.1v-4c0-6.8 3.3-10.3 8.4-10.3h13.5v-2.1c0-.4-.1-.9-.4-1.2-.4-.6-.9-1-1.7-1L73 34.3v-5.5h19.5c4.3 0 6.8 1.8 7.8 6.1l.1 1.5v17.1c0 1.5-.4 2.9-1.2 4.2-1.8 2.9-4.1 4.3-6.8 4.3H81.5c-1.3 0-2.9-.5-4.5-1.5a8.6 8.6 0 01-4-7.4zm5.6.6c.6 2.2 1.4 2.7 4.4 2.7h7.4c3 0 3.8-.5 4.4-2.7l.1-.5v-5.4l-.1-.6c-.5-2.1-1.4-2.7-3.8-3h-8.6c-2.4.2-3.3.9-3.8 3l-.1.6v5.4l.1.5zm30.1 8.3V17.7h5.5V62h-5.5zm13.7 10.8v-5.5h18.9c1.9-.3 2.7-1.3 2.7-3.5V62h-13.7c-2.2 0-4-.7-5.6-2.3a7.8 7.8 0 01-2.3-5.8V28.8h5.5v23.5l.1.9c.4 2.2 1.5 3.2 3.8 3.2h8.5c2.6 0 3.8-1 3.8-3.5V28.8h5.5v34.6c0 3-.6 4.8-1.8 6.3a8.4 8.4 0 01-6.8 3h-18.6zM159 62V17.7h5.5v11.1h5.7v5.5h-5.7V62H159zm13.9-40.5c0-1 .4-1.9 1.1-2.6.7-.8 1.6-1.2 2.6-1.2s1.9.4 2.6 1.1c.8.7 1.2 1.7 1.2 2.7 0 1-.4 2-1.1 2.7a3.6 3.6 0 01-5.3-.1c-.7-.5-1.1-1.5-1.1-2.6zm6.5 40.5V28.8H174V62h5.4zm34.4-25.1c.7.7 1.1 1.6 1.1 2.6a3.6 3.6 0 01-3.6 3.8c-1.1 0-2.1-.3-2.9-1a4 4 0 01-1.2-2.7c0-1 .4-1.9 1.1-2.6.7-.7 1.6-1.1 2.7-1.1.9-.1 2 .2 2.8 1zm-45.1 39.5c0 2.7-1.9 4.3-5 4.3h-3.1v3.7h-1.7V72.2h4.8c3.1 0 5 1.5 5 4.2zm-1.7 0c0-1.7-1.2-2.7-3.5-2.7h-2.9v5.4h2.9c2.3 0 3.5-.9 3.5-2.7zm3.4 1.8c0-3.5 2.7-6.2 6.6-6.2 3.7 0 6.4 2.7 6.4 6.2s-2.7 6.2-6.4 6.2a6.1 6.1 0 01-6.6-6.2zm11.3 0c0-2.7-1.9-4.6-4.6-4.6-2.7 0-4.8 1.9-4.8 4.6s1.9 4.6 4.8 4.6c2.6.2 4.6-1.9 4.6-4.6zm21.2-6l-4.1 12.2h-1.7l-3.3-9.7-3.3 9.7h-1.9l-4.1-12.2h1.7l3.3 9.9 3.5-9.9h1.5l3.3 9.9 3.3-9.9h1.8zM214 82.8v1.5h-8.9V72.2h8.5v1.5h-6.8v3.7h6.2v1.5h-6.2v3.9h7.2zm10.8 1.6l-2.7-3.7h-3.9v3.7h-1.7V72.2h4.8c3.1 0 5 1.5 5 4.3a4 4 0 01-2.7 3.9l3.1 4.1h-1.9zm0-8c0-1.7-1.2-2.7-3.5-2.7h-2.9v5.4h2.9c2.3 0 3.5-.9 3.5-2.7zm13.5 6.4v1.5h-8.9V72.2h8.5v1.5h-6.8v3.7h6.2v1.5h-6.2v3.9h7.2zm2.7-10.6h5.2c3.9 0 6.6 2.5 6.6 6.2s-2.7 6.2-6.6 6.2H241V72.2zm5.1 10.6c3.1 0 5-1.9 5-4.6 0-2.7-1.9-4.6-5-4.6h-3.3v9.1h3.3v.1zm24.5-1.7c0 2.1-1.5 3.3-4.6 3.3h-5.8V72.2h5.4c2.9 0 4.4 1.2 4.4 3.1a3 3 0 01-1.5 2.7c1.2.4 2.1 1.5 2.1 3.1zm-8.7-7.6v3.9h3.5c1.7 0 2.7-.6 2.7-1.9s-1-1.9-2.7-1.9h-3.5zm7 7.4c0-1.4-1-2.1-2.9-2.1h-4.1v4.1h4.1c1.7.1 2.9-.5 2.9-2zm8.9-.8v4.3H276v-4.3l-4.8-7.9h1.9l3.9 6.4 3.9-6.4h1.7l-4.8 7.9z" fill="#fff"/>
    <g fill="#fff">
        <path d="M371.2 24.2L343 7.8c-3.4-2-7.6-2-11 0l-28.3 16.3a11 11 0 00-5.5 9.5v32.6a11 11 0 005.5 9.5L332 92.1c3.4 2 7.6 2 11 0l28.3-16.3a11 11 0 005.5-9.5V33.7c-.1-3.9-2.2-7.6-5.6-9.5zm2.8 21.1l-7.5 27.4a9.4 9.4 0 01-6.8 6.7l-27.5 7.2c-3.3.9-6.8-.1-9.2-2.5l-20-20.2c-2.4-2.4-3.3-5.9-2.4-9.2l7.5-27.4a9.4 9.4 0 016.8-6.7l27.5-7.2c3.3-.9 6.8.1 9.2 2.5l20 20.2a9.5 9.5 0 012.4 9.2z" opacity=".5"/>
        <path d="M351.6 15.8a9.5 9.5 0 00-9.2-2.5l-27.5 7.2a9.6 9.6 0 00-6.8 6.7l-7.5 27.4c-.9 3.3 0 6.8 2.4 9.2L323 84a9.5 9.5 0 009.2 2.5l27.5-7.2a9.6 9.6 0 006.8-6.7l7.5-27.4c.9-3.3 0-6.8-2.4-9.2l-20-20.2zm5.1 54.7c-11.4 10.7-10.4 12-19.3 9.1l-3.2-1.1-5.1-1.6c-18.5-5.6-15-1.9-19.4-20.7-4.4-18.8-5.8-13.9 8.3-27.1 14.1-13.2 9.2-12 27.6-6.4 18.5 5.6 15 1.9 19.4 20.7 4.3 18.8 5.8 13.9-8.3 27.1z" opacity=".7"/>
        <path d="M328.6 46.1h-1.8c-.7 0-1.1.2-1.4.5-.3.3-.4.9-.4 1.6v1.9c0 .2.1.3.3.3h5c.2 0 .3-.1.3-.3v-1.9c0-.7-.1-1.3-.4-1.6-.5-.3-.9-.5-1.6-.5zm30.7 5.2h-3.2c-.7 0-1.3.1-1.6.4a2 2 0 00-.5 1.4v.9c0 .7.2 1.2.5 1.5.3.3.9.4 1.6.4h3.2c.2 0 .3-.1.3-.3v-4.2l-.3-.1z"/>
        <path d="M345.6 22.7c-18.5-5.6-13.5-6.8-27.6 6.4-14.1 13.2-12.6 8.3-8.3 27.1 4.3 18.8.9 15.1 19.3 20.7l5.1 1.6 3.2 1.1c9 2.9 7.9 1.6 19.3-9.1 14.1-13.2 12.6-8.3 8.3-27.1-4.3-18.8-.9-15.1-19.3-20.7zm-23.3 19.1c0 .3-.2.5-.5.5h-3.3c-.2 0-.3.1-.3.3V58c0 .3-.1.5-.4.5h-1.6c-.3 0-.5-.2-.5-.5V42.6c0-.2-.1-.3-.3-.3h-3.3c-.3 0-.5-.2-.5-.5v-1.5c0-.3.2-.5.5-.5h9.7c.3 0 .5.2.5.5v1.5zM333 51.9c0 .3-.2.5-.5.5h-7.4c-.2 0-.3.1-.3.3V54c0 1.4.6 2.1 1.9 2.1h5.6c.3 0 .5.2.5.5V58c0 .3-.2.5-.5.5h-6c-1.3 0-2.3-.4-3-1.2a4.9 4.9 0 01-1.1-3.3v-5.8c0-1.4.4-2.5 1.1-3.3.7-.8 1.7-1.2 3-1.2h2.5c1.3 0 2.3.4 3 1.2.7.8 1.1 1.9 1.1 3.3v3.7zm9-6.2c0 .4-.1.5-.4.5H340c-1.4 0-2.2.9-2.2 2.6V58c0 .3-.1.5-.4.5h-1.6c-.3 0-.4-.2-.4-.5V44.2c0-.3.1-.5.4-.5h1.6c.3 0 .4.2.4.5v1.1h.1c.2-.5.5-.9 1-1.2.5-.3 1.1-.4 1.7-.4h1c.3 0 .4.2.4.5v1.5zm8.5 0c0 .4-.1.5-.4.5h-1.6c-1.4 0-2.2.9-2.2 2.6V58c0 .3-.1.5-.4.5h-1.6c-.3 0-.4-.2-.4-.5V44.2c0-.3.1-.5.4-.5h1.6c.3 0 .4.2.4.5v1.1h.1c.2-.5.5-.9 1-1.2.5-.3 1.1-.4 1.7-.4h1c.3 0 .4.2.4.5v1.5zm11.6 4.1v8.7H356c-1.4 0-2.5-.4-3.3-1.1-.8-.7-1.2-1.7-1.2-3v-1.1c0-1.3.4-2.3 1.2-3 .8-.7 1.9-1.1 3.3-1.1h3.6v-1.1c0-1.4-.6-2.1-1.9-2.1H353c-.3 0-.5-.2-.5-.5V44c0-.3.2-.5.5-.5h5.1c1.3 0 2.3.4 3 1.2.7.8 1.1 1.9 1.1 3.3v1.8z"/>
    </g>
</svg>
