<svg aria-hidden="true" data-prefix="far" data-icon="angle-double-up" class="angle-double-up-regular_svg__angle-double-up-regular_svg__svg-inline--fa angle-double-up-regular_svg__angle-double-up-regular_svg__fa-angle-double-up angle-double-up-regular_svg__angle-double-up-regular_svg__fa-w-10" xmlns="http://www.w3.org/2000/svg" viewBox="0 0 320 512">
    <path fill="currentColor" d="M168.5 84.2l148 146.8a12 12 0 010 17l-19.8 19.8a12 12 0 01-17 0L160 149.3 40.3 267.8a12 12 0 01-17 0L3.5 248a12 12 0 010-17l148-146.8a12 12 0 0117 0zm-17 160L3.5 391a12 12 0 000 17l19.8 19.8a12 12 0 0017 0L160 309.3l119.7 118.5a12 12 0 0017 0l19.8-19.8a12 12 0 000-17l-148-146.8a12 12 0 00-17 0z"/>
</svg>
