<svg aria-hidden="true" data-prefix="fal" data-icon="bars" class="bars-light_svg__bars-light_svg__svg-inline--fa bars-light_svg__bars-light_svg__fa-bars bars-light_svg__bars-light_svg__fa-w-14" xmlns="http://www.w3.org/2000/svg" viewBox="0 0 448 512">
    <path fill="currentColor" d="M442 114H6a6 6 0 01-6-6V84a6 6 0 016-6h436a6 6 0 016 6v24a6 6 0 01-6 6zm0 160H6a6 6 0 01-6-6v-24a6 6 0 016-6h436a6 6 0 016 6v24a6 6 0 01-6 6zm0 160H6a6 6 0 01-6-6v-24a6 6 0 016-6h436a6 6 0 016 6v24a6 6 0 01-6 6z"/>
</svg>
