<svg aria-hidden="true" data-prefix="fas" data-icon="books" class="books-solid_svg__books-solid_svg__svg-inline--fa books-solid_svg__books-solid_svg__fa-books books-solid_svg__books-solid_svg__fa-w-18" xmlns="http://www.w3.org/2000/svg" viewBox="0 0 576 512">
    <path fill="currentColor" d="M575.1 443.3L461.5 19a25.2 25.2 0 00-31.4-18l-15.3 4c-6.2 1.7-11.5 6.4-16 14.2-14 7-52.4 17.3-68 18.3-7.9-4.6-15-6-21-4.3l-15.5 4.1c-2.5.7-4.2 2-6.2 3V32a32 32 0 00-32-32h-64a32 32 0 00-32 32v64h128l101.7 397a25.2 25.2 0 0031.3 18l15.5-4.1c6.2-1.7 11.5-6.4 16-14.2 14-7 52.2-17.2 68-18.3 7.9 4.6 14.9 6 21 4.3l15.5-4.1a25.2 25.2 0 0018.1-31.3zm-134.4-7.1l-92-343.8 61.8-16.6 92 343.8-61.8 16.6zM0 384h128V128H0v256zM96 0H32A32 32 0 000 32v64h128V32A32 32 0 0096 0zM0 480a32 32 0 0032 32h64a32 32 0 0032-32v-64H0v64zm160-96h128V128H160v256zm0 96a32 32 0 0032 32h64a32 32 0 0032-32v-64H160v64z"/>
</svg>
