<svg aria-hidden="true" data-prefix="fas" data-icon="cloud-upload" class="cloud-upload-solid_svg__cloud-upload-solid_svg__svg-inline--fa cloud-upload-solid_svg__cloud-upload-solid_svg__fa-cloud-upload cloud-upload-solid_svg__cloud-upload-solid_svg__fa-w-20" xmlns="http://www.w3.org/2000/svg" viewBox="0 0 640 512">
    <path fill="currentColor" d="M537.6 226.6a96 96 0 00-142.9-114.4 159.9 159.9 0 00-298.5 87.9A144.1 144.1 0 00144 480h368a128 128 0 0025.6-253.4zm-139.9 63.7l-10.8 10.8a24 24 0 01-34.5-.5L320 266.1V392a24 24 0 01-24 24h-16a24 24 0 01-24-24V266.1l-32.4 34.5a24 24 0 01-34.5.5l-10.8-10.8a23.9 23.9 0 010-33.9l92.7-92.7a23.9 23.9 0 0133.9 0l92.7 92.7a24 24 0 01.1 33.9z"/>
</svg>
