<svg aria-hidden="true" data-prefix="far" data-icon="external-link-alt" class="external-link-alt-regular_svg__external-link-alt-regular_svg__svg-inline--fa external-link-alt-regular_svg__external-link-alt-regular_svg__fa-external-link-alt external-link-alt-regular_svg__external-link-alt-regular_svg__fa-w-18" xmlns="http://www.w3.org/2000/svg" viewBox="0 0 576 512">
    <path fill="currentColor" d="M448 241.8V464a48 48 0 01-48 48H48a48 48 0 01-48-48V112a48 48 0 0148-48h340a12 12 0 018.5 20.5l-24 24a12 12 0 01-8.5 3.5H54a6 6 0 00-6 6v340a6 6 0 006 6h340a6 6 0 006-6V265.8a12 12 0 013.5-8.5l24-24a12 12 0 0120.5 8.5zM564 0H428a12 12 0 00-8.5 20.5l48.2 48.2-272.2 272.2a12 12 0 000 17l22.6 22.6a12 12 0 0017 0l272.2-272.2 48.2 48.2A12 12 0 00576 148V12a12 12 0 00-12-12z"/>
</svg>
