<svg aria-hidden="true" data-prefix="far" data-icon="file-export" class="file-export-regular_svg__file-export-regular_svg__svg-inline--fa file-export-regular_svg__file-export-regular_svg__fa-file-export file-export-regular_svg__file-export-regular_svg__fa-w-18" xmlns="http://www.w3.org/2000/svg" viewBox="0 0 576 512">
    <path fill="currentColor" d="M572.3 279l-71.8-72.3a12 12 0 00-20.5 8.5v48.9h-96V132c0-12.7-5.2-25-14.2-34L286 14a48 48 0 00-33.9-14H48C21.5.1 0 21.6 0 48v416a48 48 0 0048 48h288a48 48 0 0048-48V360h-48v104H48V48h160v104a24 24 0 0024 24h104v88H172a12 12 0 00-12 12v24a12 12 0 0012 12h308v49a12 12 0 0020.5 8.4l71.8-72.3c5-5 5-13 0-18zM256 128V52l76 76h-76z"/>
</svg>
