<svg aria-hidden="true" data-prefix="far" data-icon="info-circle" class="info-circle-regular_svg__info-circle-regular_svg__svg-inline--fa info-circle-regular_svg__info-circle-regular_svg__fa-info-circle info-circle-regular_svg__info-circle-regular_svg__fa-w-16" xmlns="http://www.w3.org/2000/svg" viewBox="0 0 512 512">
    <path fill="currentColor" d="M256 8a248 248 0 100 496 248 248 0 000-496zm0 448a200 200 0 11-.1-400.1A200 200 0 01256 456zm0-338a42 42 0 110 84 42 42 0 010-84zm56 254a12 12 0 01-12 12h-88a12 12 0 01-12-12v-24a12 12 0 0112-12h12v-64h-12a12 12 0 01-12-12v-24a12 12 0 0112-12h64a12 12 0 0112 12v100h12a12 12 0 0112 12v24z"/>
</svg>
