<svg aria-hidden="true" data-prefix="far" data-icon="list" class="list-regular_svg__list-regular_svg__svg-inline--fa list-regular_svg__list-regular_svg__fa-list list-regular_svg__list-regular_svg__fa-w-16" xmlns="http://www.w3.org/2000/svg" viewBox="0 0 512 512">
    <path fill="currentColor" d="M500 124H140a12 12 0 01-12-12V80a12 12 0 0112-12h360a12 12 0 0112 12v32a12 12 0 01-12 12zm12 148v-32a12 12 0 00-12-12H140a12 12 0 00-12 12v32a12 12 0 0012 12h360a12 12 0 0012-12zm0 160v-32a12 12 0 00-12-12H140a12 12 0 00-12 12v32a12 12 0 0012 12h360a12 12 0 0012-12zM92 128V64a12 12 0 00-12-12H16A12 12 0 004 64v64a12 12 0 0012 12h64a12 12 0 0012-12zm0 160v-64a12 12 0 00-12-12H16a12 12 0 00-12 12v64a12 12 0 0012 12h64a12 12 0 0012-12zm0 160v-64a12 12 0 00-12-12H16a12 12 0 00-12 12v64a12 12 0 0012 12h64a12 12 0 0012-12z"/>
</svg>
