<svg width="480" height="510" xmlns="http://www.w3.org/2000/svg">
    <g fill="none" fill-rule="evenodd">
        <path fill="#FFF" d="M98 130h279v235H98z"/>
        <path d="M253.4 2.9a32.3 32.3 0 00-26.8 0L38.3 82.8A62 62 0 000 140c.5 99.2 41.3 280.7 213.6 363.2a61 61 0 0052.8 0C438.7 420.7 479.5 239.2 480 140a62 62 0 00-38.3-57.2L253.4 2.9zM353 209L225 337a23.9 23.9 0 01-33.9 0l-64-64a24 24 0 0133.9-33.9l47 47L319 175a24 24 0 0133.9 33.9l.1.1z" fill="#4D72AA" fill-rule="nonzero"/>
    </g>
</svg>
