<?xml version="1.0" encoding="UTF-8"?>
<svg width="480px" height="510px" viewBox="0 0 480 510" version="1.1" xmlns="http://www.w3.org/2000/svg" xmlns:xlink="http://www.w3.org/1999/xlink">
    <title>shield-check-solid</title>
    <g id="Page-1" stroke="none" stroke-width="1" fill="none" fill-rule="evenodd">
        <g id="shield-check-solid" transform="translate(-0.0009, 0)">
            <rect id="Rectangle" fill="#FFFFFF" x="98.0009056" y="130" width="279" height="235"></rect>
            <path d="M253.400906,2.9 C249.200906,1 244.700906,0 240.000906,0 C235.300906,0 230.800906,1 226.600906,2.9 L38.3009056,82.8 C16.3009056,92.1 -0.0990944188,113.8 0.000450731931,140 C0.500905581,239.2 41.3009056,420.7 213.600906,503.2 C230.300906,511.2 249.700906,511.2 266.400906,503.2 C438.700906,420.7 479.500906,239.2 480.00136,140 C480.100906,113.8 463.700906,92.1 441.700906,82.8 L253.400906,2.9 Z M353.000906,209 L225.000906,337 C215.600906,346.4 200.400906,346.4 191.100906,337 L127.100906,273 C117.700906,263.6 117.700906,248.4 127.100906,239.1 C136.500906,229.8 151.700906,229.7 161.000906,239.1 L208.000906,286.1 L319.000906,175 C328.400906,165.6 343.600906,165.6 352.900906,175 C362.200906,184.4 362.300906,199.6 352.900906,208.9 L353.000906,209 Z" id="Shape" fill="#4D72AA" fill-rule="nonzero"></path>
        </g>
    </g>
</svg>