<?xml version="1.0" encoding="UTF-8"?>
<svg width="45px" height="45px" viewBox="0 0 45 45" version="1.1" xmlns="http://www.w3.org/2000/svg">
    <g stroke="none" stroke-width="1" fill="none" fill-rule="evenodd">
        <g transform="translate(0.922657, 0.500000)">
            <rect fill="#FFFFFF" x="9.077343" y="10.5" width="26" height="17"/>
            <g fill="#4D72AA">
                <path d="M38.5,0 L5.5,0 C2.47070312,0 0,2.47070312 0,5.42265677 L0,30.0953135 C0,33.1246104 2.47070312,35.5179703 5.5,35.5179703 L13.75,35.5179703 L13.75,42.6593771 C13.75,43.4972677 14.7167969,43.9871125 15.3931246,43.4929719 L26.1267178,35.4406271 L38.5017178,35.4406271 C41.5310147,35.4406271 44.0017178,32.969924 44.0017178,30.0179703 L44.0017178,5.42265677 C44,2.47070312 41.6023443,0 38.5,0 Z M22.7648432,24.75 L13.1398432,24.75 C12.0054685,24.75 11.0773432,23.8304677 11.0773432,22.6875 C11.0773432,21.5445323 12.0054685,20.625 13.1398432,20.625 L22.7648432,20.625 C23.9078109,20.625 24.8273432,21.5531253 24.8273432,22.6875 C24.8273432,23.821876 23.9078109,24.75 22.7648432,24.75 Z M31.0148432,16.5 L13.1398432,16.5 C12.0054685,16.5 11.0773432,15.5804677 11.0773432,14.4375 C11.0773432,13.2945323 12.0054685,12.375 13.1398432,12.375 L31.0148432,12.375 C32.1578109,12.375 33.0773432,13.303124 33.0773432,14.4375 C33.0773432,15.571876 32.1578109,16.5 31.0148432,16.5 Z" />
            </g>
        </g>
    </g>
</svg>
