<svg xmlns="http://www.w3.org/2000/svg" viewBox="0 0 192 42" enable-background="new 0 0 192 42">
    <path d="M86 32.9c0 1.4-1 2.2-2.6 2.2h-1.6V37h-.9v-6.3h2.5c1.6 0 2.6.8 2.6 2.2zm-.9 0c0-.9-.6-1.4-1.8-1.4h-1.5v2.8h1.5c1.2 0 1.8-.5 1.8-1.4zm1.8.9c0-1.8 1.4-3.2 3.4-3.2 1.9 0 3.3 1.4 3.3 3.2S92.2 37 90.3 37a3.2 3.2 0 0 1-3.4-3.2zm5.8 0c0-1.4-1-2.4-2.4-2.4s-2.5 1-2.5 2.4 1 2.4 2.5 2.4c1.4.1 2.4-1 2.4-2.4zm11-3.1l-2.1 6.3h-.9L99 32l-1.7 5h-1l-2.1-6.3h.9l1.7 5.1 1.8-5.1h.8l1.7 5.1 1.7-5.1h.9zm5.7 5.5v.8h-4.6v-6.3h4.4v.8h-3.5v1.9h3.2v.8h-3.2v2h3.7zm5.6.8l-1.4-1.9h-2V37h-.9v-6.3h2.5c1.6 0 2.6.8 2.6 2.2 0 1-.5 1.7-1.4 2L116 37h-1zm0-4.1c0-.9-.6-1.4-1.8-1.4h-1.5v2.8h1.5c1.2 0 1.8-.5 1.8-1.4zm7 3.3v.8h-4.6v-6.3h4.4v.8h-3.5v1.9h3.2v.8h-3.2v2h3.7zm1.4-5.5h2.7c2 0 3.4 1.3 3.4 3.2 0 1.9-1.4 3.2-3.4 3.2h-2.7v-6.4zm2.6 5.5c1.6 0 2.6-1 2.6-2.4s-1-2.4-2.6-2.4h-1.7v4.7h1.7zm12.7-.9c0 1.1-.8 1.7-2.4 1.7h-3v-6.3h2.8c1.5 0 2.3.6 2.3 1.6 0 .7-.4 1.2-.8 1.4.6.2 1.1.8 1.1 1.6zm-4.5-3.9v2h1.8c.9 0 1.4-.3 1.4-1s-.5-1-1.4-1h-1.8zm3.6 3.8c0-.7-.5-1.1-1.5-1.1h-2.1v2.1h2.1c.9.1 1.5-.2 1.5-1zm4.6-.4V37h-.9v-2.2l-2.5-4.1h1l2 3.3 2-3.3h.9l-2.5 4.1z" fill="#fff"/>
    <path d="M155.1 13.5v15a5 5 0 0 0 2.5 4.3l12.9 7.5a5 5 0 0 0 5 0l12.9-7.5a5 5 0 0 0 2.5-4.3v-15a5 5 0 0 0-2.5-4.3l-12.9-7.5a5 5 0 0 0-5 0l-12.9 7.5a4.8 4.8 0 0 0-2.5 4.3z" fill="none" stroke="#fff" stroke-width=".8"/>
    <path d="M159.6 10.6l-3.5 12.6c-.4 1.5 0 3.1 1.1 4.2l9.2 9.3a4.6 4.6 0 0 0 4.2 1.2l12.6-3.3a4.4 4.4 0 0 0 3.1-3.1l3.4-12.6c.4-1.5 0-3.1-1.1-4.2l-9.1-9.3a4.6 4.6 0 0 0-4.2-1.2l-12.6 3.3a4.4 4.4 0 0 0-3.1 3.1z" fill="none" stroke="#fff" stroke-width=".8"/>
    <path d="M171.5 34.1l-2.3-.7c-8.4-2.6-6.9-.9-8.9-9.5s-2.7-6.4 3.8-12.4 4.2-5.5 12.6-2.9 6.9.9 8.9 9.5 2.7 6.4-3.8 12.4c-5.2 4.9-4.7 5.5-8.8 4.2l-1.5-.6z" fill="none" stroke="#fff" stroke-width=".8"/>
    <g fill="#fff">
        <path d="M165.9 16.3h-4.4c-.2 0-.3.1-.3.2v.7c0 .2 0 .2.2.2h1.5v7.2c0 .2.2.2.3.2h.8s.2 0 .2-.2v-7h1.6l.2-.3v-.8l-.1-.2z" fill-rule="evenodd" clip-rule="evenodd"/>
        <path d="M169.2 18.1H168c-.6 0-1 .2-1.4.5-.3.4-.4 1-.4 1.5v2.7c0 .6 0 1.2.4 1.5.3.4.8.5 1.4.5h2.7s.2 0 .2-.2V24c0-.2-.1-.2-.2-.2h-2.5c-.6 0-1-.3-1-1v-.6h3.6l.2-.3v-1.8c0-.7-.2-1.2-.5-1.5-.3-.3-.8-.5-1.3-.5zm.7 3h-2.6v-.9c0-.3 0-.6.2-.7 0-.2.4-.3.7-.3h.8l.7.2.2.7v1zm14-2.5c-.3-.4-.8-.5-1.4-.5h-2.3l-.2.2v.7c0 .2 0 .2.2.2h2.2c.6 0 .9.3.9 1v.5h-1.7c-.7 0-1.2.2-1.5.5-.4.3-.5.8-.5 1.4v.5c0 .6.2 1 .5 1.4.4.3.9.5 1.5.5h2.8v-4.8c-.1-.7-.2-1.2-.5-1.6zm-.7 5.1l-.1.1h-1.5c-.3 0-.6 0-.7-.2-.2 0-.2-.4-.2-.7v-.4c0-.3 0-.5.2-.7l.7-.2h1.5v2.1z"/>
        <path d="M174.9 18.1h-.4l-.8.2-.5.5v-.5c0-.2-.1-.2-.2-.2h-.8l-.2.2v6.3c0 .2 0 .2.2.2h.8s.2 0 .2-.2v-4.2c0-.8.3-1.2 1-1.2h.7s.2 0 .2-.2v-.7c0-.2 0-.2-.2-.2zm3.9 0h-.4l-.8.2c-.2.1-.4.3-.4.5v-.5c0-.2-.1-.2-.2-.2h-.8l-.2.2v6.3c0 .2 0 .2.2.2h.8s.2 0 .2-.2v-4.2c0-.8.3-1.2 1-1.2h.7s.2 0 .2-.2v-.7c-.1-.2-.1-.2-.3-.2z" fill-rule="evenodd" clip-rule="evenodd"/>
    </g>
    <path d="M29.1 13.5c.3-5-4.7-8.7-9.1-7l1.4 2.2 1.3 2.1c.4.8.7 1.6.8 2.4l.2 2.1a7 7 0 0 1-1.9 5 7.2 7.2 0 0 1-4.4 2l-1.1.1c-.7 0-1.4-.1-2-.3A7.8 7.8 0 0 1 11 20a10.6 10.6 0 0 1-2.3-8.6c.1-.5.6-2.7 1.6-2.7l.3.1c.6.2.7.7.8 1.2l.2.7.1-1.5c0-1.3 0-2.9.7-4.5l.5-.9a6.3 6.3 0 0 0-5.6 6 7 7 0 0 0-.5 13.9h20.5c5.5 0 7-8.2 1.8-10.2" fill-rule="evenodd" clip-rule="evenodd" fill="#fff"/>
    <path d="M22.3 13.6c-.1-.7-.4-1.4-.7-2.1-.3-.7-.8-1.3-1.2-2-.6-.9-1.2-1.8-1.8-3l-.3-.8a8.2 8.2 0 0 1-.2-4.6l-.8.4-1.6 1c-.5.4-.7.7-1.1 1.3l-.1.1-.2.3-.7 1.2c-.5 1.3-.5 2.8-.6 4 0 1.4 0 2.9-1.4 2.9-.8 0-1.2-.7-1.4-1.3a2 2 0 0 0-.2.9c-.2.9-.3 2.3.1 4 .3 1.4.9 2.5 1.8 3.4a6 6 0 0 0 5.3 1.9 6 6 0 0 0 3.6-1.6c1-1 1.5-2.3 1.5-4v-2m14.5-5.1c0-1.8.9-2.3 2.2-2.3h8.4c1.1 0 1.9.3 1.9 1.6s-.8 1.6-1.9 1.6h-6.9v4h5.8c1 0 1.8.3 1.8 1.5s-.8 1.5-1.8 1.5h-5.8v5.4c0 1.2-.7 2-1.9 2s-1.9-.8-1.9-2V8.5m14.5 3.9c0-.9.4-1.8 1.7-1.8 1.3 0 1.7.8 1.7 1.8v9.7c0 .9-.4 1.8-1.7 1.8-1.3 0-1.7-.8-1.7-1.8v-9.7zm1.7-6.2c1 0 1.8.8 1.8 1.8s-.8 1.8-1.8 1.8S51.1 9 51.1 8c.1-1 .8-1.8 1.8-1.8zm4.8 6c0-1.1.7-1.6 1.5-1.6.9 0 1.5.6 1.5 1.6v1.3c.4-1.5 1.2-3 2.8-3 1.1 0 1.9.7 1.9 1.7 0 1.3-.8 1.8-1.7 1.8h-.6c-1.4 0-2.1 1-2.1 3.9V22c0 .9-.4 1.8-1.7 1.8-1.3 0-1.7-.8-1.7-1.8v-9.8" fill-rule="evenodd" clip-rule="evenodd" fill="#fff"/>
    <g transform="translate(66 5.5)">
        <defs>
            <filter id="FireCloud-Logo-White_svg__a" filterUnits="userSpaceOnUse" x=".3" y="5.1" width="12.6" height="13.2">
                <feColorMatrix values="1 0 0 0 0 0 1 0 0 0 0 0 1 0 0 0 0 0 1 0"/>
            </filter>
        </defs>
        <mask maskUnits="userSpaceOnUse" x=".3" y="5.1" width="12.6" height="13.2" id="FireCloud-Logo-White_svg__b">
            <g filter="url(#FireCloud-Logo-White_svg__a)">
                <path fill-rule="evenodd" clip-rule="evenodd" fill="#fff" d="M.3.3H30v18.1H.3z"/>
            </g>
        </mask>
        <path d="M9.7 10.3c-.2-1.6-1.4-2.7-2.9-2.7-1.7 0-2.7 1.1-3.1 2.8h6zm-6 2.1c0 1.9 1.2 3.2 3.2 3.2 2.6 0 2.6-1.7 4-1.7.8 0 1.4.7 1.4 1.4 0 2.1-3.3 3.1-5.4 3.1C2.1 18.4.3 15.1.3 12c0-4.1 2.4-6.8 6.5-6.8 3.9 0 6.2 2.9 6.2 5.7 0 1.2-.4 1.5-1.5 1.5H3.7z" mask="url(#FireCloud-Logo-White_svg__b)" fill-rule="evenodd" clip-rule="evenodd" fill="#fff"/>
        <defs>
            <filter id="FireCloud-Logo-White_svg__c" filterUnits="userSpaceOnUse" x="15" y=".3" width="15" height="18.1">
                <feColorMatrix values="1 0 0 0 0 0 1 0 0 0 0 0 1 0 0 0 0 0 1 0"/>
            </filter>
        </defs>
        <mask maskUnits="userSpaceOnUse" x="15" y=".3" width="15" height="18.1" id="FireCloud-Logo-White_svg__d">
            <g filter="url(#FireCloud-Logo-White_svg__c)">
                <path fill-rule="evenodd" clip-rule="evenodd" fill="#fff" d="M.3.3H30v18.1H.3z"/>
            </g>
        </mask>
        <path d="M23.2.3C27.6.3 30 3.1 30 4.8c0 1.1-.6 1.8-1.7 1.8-2.2 0-1.6-3.1-5.1-3.1-2.4 0-4.4 2.1-4.4 5.9 0 3.2 1.2 5.9 4.5 5.9 3 0 2.9-3.3 4.8-3.3.9 0 1.9.6 1.9 1.5 0 2.5-2.9 5-6.7 5-5.3 0-8.4-3.1-8.4-9.1.1-5 2.9-9.1 8.3-9.1" mask="url(#FireCloud-Logo-White_svg__d)" fill-rule="evenodd" clip-rule="evenodd" fill="#fff"/>
    </g>
    <path d="M98.2 7.6c0-1.2.7-1.8 1.7-1.8s1.7.6 1.7 1.8V22c0 1.2-.7 1.8-1.7 1.8s-1.7-.6-1.7-1.8V7.6m12.1 13.6c2 0 2.9-1.9 2.9-4 0-2.3-.9-4-2.9-4s-2.9 1.7-2.9 4c0 2.1.8 4 2.9 4zm0-10.6c4.1 0 6.3 2.9 6.3 6.6 0 3.5-1.7 6.6-6.3 6.6-4.7 0-6.3-3.1-6.3-6.6 0-3.7 2.2-6.6 6.3-6.6zm20.1 11.5c0 1.1-.5 1.8-1.5 1.8-1.1 0-1.5-.7-1.5-1.8v-.5c-1 1.3-2.2 2.2-4.1 2.2-2.1 0-4.3-1.1-4.3-4.6v-6.8c0-.9.4-1.8 1.7-1.8 1.3 0 1.7.8 1.7 1.8v6.1c0 1.4.7 2.4 2.2 2.4 1.2 0 2.6-1 2.6-2.8v-5.8c0-.9.4-1.8 1.7-1.8 1.3 0 1.7.8 1.7 1.8v9.8m8.1-1c2 0 2.7-1.8 2.7-3.8 0-1.8-.7-3.9-2.7-3.9-2.2 0-2.7 2.3-2.7 3.9 0 2 .9 3.7 2.7 3.8zm6 1c0 1.1-.5 1.7-1.5 1.7s-1.5-.6-1.5-1.7v-.6c-.6 1.5-1.9 2.2-3.6 2.2-2.9 0-5.4-2.1-5.4-6.7 0-3.4 1.7-6.5 5.3-6.5 1.5 0 2.7.6 3.4 1.8V7.6c0-1.2.7-1.8 1.7-1.8s1.7.6 1.7 1.8v14.5h-.1z" fill-rule="evenodd" clip-rule="evenodd" fill="#fff"/>
</svg>
