<svg xmlns="http://www.w3.org/2000/svg" viewBox="0 0 500 349.3" fill="#fff">
    <path d="M439.4 191.3c5.1-72.7-69.3-125.8-135.2-101.2 6.3 12 13.5 22.4 20.4 32.4 7.1 10.2 13.8 19.8 19.5 31 6 11.5 10 23.1 12.5 35.4a150 150 0 0 1 2.8 30c0 29.4-9.9 54.4-28.7 72.4a112.3 112.3 0 0 1-65.3 28.7c-5.5.6-11.2 1-16.9 1a106.7 106.7 0 0 1-78.4-34.3 130.6 130.6 0 0 1-30.9-57.6 148.5 148.5 0 0 1-2.3-66.5c1.3-6.7 8.7-39.7 24.5-39.7h.6c1.7.1 3.3.5 4.7 1.3 6.1 3.2 7.8 10 9.5 17.2.6 2.6 1.9 7.6 3.1 9.9 1.3-4.4 1.4-14.6 1.5-22.3.2-18.7.6-42 9.7-64.5a87 87 0 0 1 7-13.5c-41.8 5.5-80.2 36.8-83.4 86.5A102 102 0 0 0 6.4 235.1a102.2 102.2 0 0 0 101.1 104.6l92.3-.1 93.7-.1 118.6-.2c82.4-.1 104.5-118.5 27.3-148z"/>
    <path d="M337.4 192.6a113.3 113.3 0 0 0-10.6-30.2c-5.2-10-11.5-19.1-18.2-28.8-9-13-18.4-26.5-26.4-43.9-1.9-4.1-3.4-8-4.7-11.8-10.8-30.9-5.6-53.8-2.7-66.7l.1-.3a128.3 128.3 0 0 0-35.6 19.8c-7.7 5.8-11.1 10.5-16.8 18.3l-1.2 1.6-2.7 3.7a79.3 79.3 0 0 0-10.1 17.5c-7.8 19-8.1 40.3-8.3 57.3-.3 20.9-.6 42.5-20.6 42.5-12.2 0-17.5-9.6-20.3-18.1-1.2 3.5-2.4 7.8-3.4 12.7-2.6 13-4.3 33.5 2 57.8a111.4 111.4 0 0 0 26.3 49.2 88.9 88.9 0 0 0 78.8 27.3 93.5 93.5 0 0 0 54.1-23.4c15.1-14.4 22.7-34 22.7-58.2 0-9.5-.8-18.1-2.4-26.3z"/>
</svg>
