<svg xmlns="http://www.w3.org/2000/svg" viewBox="0 0 460.4 500">
    <path d="M8.8 158.5v184.3a61.8 61.8 0 0031 53.6l159.6 92.2a61.7 61.7 0 0061.9 0L421 396.4a61.9 61.9 0 0031-53.6V158.5a61.8 61.8 0 00-31-53.6L261.3 12.7a61.7 61.7 0 00-61.9 0L39.8 104.9a61.7 61.7 0 00-31 53.6z" fill="none" stroke="#fff" stroke-width="4.3" stroke-miterlimit="10"/>
    <path d="M64.4 122.2L22 277a53.6 53.6 0 0013.7 52.1l112.9 114.1a53.8 53.8 0 0052 14.2l155.2-40.8a54 54 0 0038.3-37.9l42.3-154.8a53.6 53.6 0 00-13.7-52.1L309.9 57.7a53.8 53.8 0 00-52-14.2L102.7 84.2a53.7 53.7 0 00-38.3 38z" fill="none" stroke="#fff" stroke-width="4.3" stroke-miterlimit="10"/>
    <path d="M211.3 411.8c-8.3-2.7-17.7-5.7-28.6-9C78.5 371.1 98 392 73.4 285.8c-24.7-106.1-33-78.7 46.6-153.2 79.6-74.4 51.7-67.9 155.9-36.2 104.2 31.7 84.7 10.8 109.3 116.9 24.6 106.1 33 78.7-46.6 153.2-64.4 60.2-58.4 67.5-109.1 51.2l-18.2-5.9z" fill="none" stroke="#fff" stroke-width="4.3" stroke-miterlimit="10"/>
    <path fill="#fff" d="M142.1 193.1H87.3c-1.8 0-2.7.9-2.7 2.8v8.4c0 1.9.9 2.8 2.7 2.8h18.6c1 0 1.5.5 1.5 1.6v87.2c0 1.9.9 2.8 2.7 2.8h9.3c1.7 0 2.5-.9 2.5-2.8v-87.2c0-1.1.5-1.6 1.6-1.6h18.6c1.8 0 2.7-.9 2.7-2.8v-8.4c-.1-1.9-.9-2.8-2.7-2.8zm40 21.8H168c-7.3 0-12.9 2.2-16.9 6.6a27 27 0 00-6 18.8v32.8c0 8 2 14.2 6 18.7s9.6 6.7 16.9 6.7h33.9c1.8 0 2.7-.9 2.7-2.6v-8.2c0-2-.9-3-2.7-3H170c-7.2 0-10.8-4-10.8-12v-7.1c0-1.1.5-1.6 1.6-1.6h41.6c1.8 0 2.7-1 2.7-3v-20.9c0-8.1-2-14.4-6.1-18.8-4-4.2-9.7-6.4-16.9-6.4zm8.7 36.4c0 1.1-.5 1.6-1.5 1.6h-28.5c-1 0-1.5-.5-1.5-1.6v-10.5c0-4.2.8-7.2 2.5-9.1 1.7-1.9 4.4-2.9 8.1-2.9H180c3.7 0 6.5 1 8.1 2.9 1.7 1.9 2.5 5 2.5 9.1v10.5zm172.7-29.7c-4-4.5-9.6-6.7-16.9-6.7h-28.9c-1.8 0-2.7.9-2.7 2.6v8.2c0 2 .9 3 2.7 3h26.8c7.2 0 10.8 4 10.8 12v6.3h-20.4c-8.1 0-14.4 2-18.8 6.1-4.4 4-6.6 9.7-6.6 17v6c0 7.3 2.2 12.9 6.6 16.9a27 27 0 0018.8 6h34.5v-58.5a27 27 0 00-5.9-18.9zm-8.2 62c0 1-.5 1.5-1.6 1.5h-18.2c-4.2 0-7.2-.8-9.1-2.5-1.9-1.7-2.9-5-2.9-8.7v-5.1c0-3.7 1-6.5 2.9-8.1 1.9-1.7 5-2.5 9.1-2.5h18.2c1.1 0 1.6.5 1.6 1.5v23.9zm-102-68.7h-5.5c-3.4 0-6.6.8-9.4 2.5a12.2 12.2 0 00-5.7 6.6h-.6v-6.2c0-1.9-.8-2.8-2.5-2.8h-9.3c-1.7 0-2.5.9-2.5 2.8V296c0 1.9.8 2.8 2.5 2.8h9.3c1.7 0 2.5-.9 2.5-2.8v-52c0-10 4.1-14.9 12.3-14.9h8.9c1.7.3 2.5-.5 2.5-2.6V218c0-2.2-.8-3.1-2.5-3.1zm48.2 0H296c-3.4 0-6.6.8-9.4 2.5a12.2 12.2 0 00-5.7 6.6h-.6v-6.2c0-1.9-.8-2.8-2.5-2.8h-9.3c-1.7 0-2.5.9-2.5 2.8V296c0 1.9.8 2.8 2.5 2.8h9.3c1.7 0 2.5-.9 2.5-2.8v-52c0-10 4.1-14.9 12.3-14.9h8.9c1.7.3 2.5-.5 2.5-2.6V218c0-2.2-.9-3.1-2.5-3.1z"/>
</svg>
