<?xml version="1.0" encoding="utf-8"?>
<!-- Generator: Adobe Illustrator 15.0.0, SVG Export Plug-In . SVG Version: 6.00 Build 0)  -->
<!DOCTYPE svg PUBLIC "-//W3C//DTD SVG 1.1//EN" "http://www.w3.org/Graphics/SVG/1.1/DTD/svg11.dtd">
<svg version="1.1" id="Layer_1" xmlns="http://www.w3.org/2000/svg" xmlns:xlink="http://www.w3.org/1999/xlink" x="0px" y="0px"
	 width="1490.68px" height="548.044px" viewBox="0 0 1490.68 548.044" enable-background="new 0 0 1490.68 548.044"
	 xml:space="preserve">
<rect fill="#26345C" width="1490.683" height="548.044"/>
<g>
	<defs>
		<rect id="SVGID_1_" width="1490.683" height="548.044"/>
	</defs>
	<clipPath id="SVGID_2_">
		<use xlink:href="#SVGID_1_"  overflow="visible"/>
	</clipPath>
	<path clip-path="url(#SVGID_2_)" fill="#FFFFFF" d="M1079.771,201.791c0-5.159,4.182-9.341,9.341-9.341s9.341,4.182,9.341,9.341
		c0,5.159-4.182,9.341-9.341,9.341S1079.771,206.949,1079.771,201.791"/>
	<path clip-path="url(#SVGID_2_)" fill="#FFFFFF" d="M1000.929,68.295c0-3.676,2.979-6.655,6.655-6.655
		c3.676,0,6.655,2.979,6.655,6.655c0,3.675-2.979,6.655-6.655,6.655C1003.907,74.95,1000.929,71.97,1000.929,68.295"/>
	<path clip-path="url(#SVGID_2_)" fill="#FFFFFF" d="M1098.405,234.597c0-2.337,1.895-4.232,4.23-4.232
		c2.338,0,4.233,1.895,4.233,4.232s-1.896,4.232-4.233,4.232C1100.3,238.829,1098.405,236.934,1098.405,234.597"/>
	<path clip-path="url(#SVGID_2_)" fill="#FFFFFF" d="M1040.063,74.883c0-7.88,6.388-14.268,14.268-14.268
		c7.879,0,14.268,6.388,14.268,14.268c0,7.879-6.389,14.267-14.268,14.267C1046.45,89.15,1040.063,82.762,1040.063,74.883"/>
	<path clip-path="url(#SVGID_2_)" fill="#FFFFFF" d="M1073.349,192.57c0-2.947,2.389-5.336,5.336-5.336
		c2.946,0,5.336,2.389,5.336,5.336c0,2.947-2.39,5.336-5.336,5.336C1075.737,197.906,1073.349,195.517,1073.349,192.57"/>
	<path clip-path="url(#SVGID_2_)" fill="#FFFFFF" d="M1092.573,67.11c0-3.247,2.632-5.879,5.879-5.879s5.88,2.632,5.88,5.879
		s-2.633,5.879-5.88,5.879S1092.573,70.357,1092.573,67.11"/>
	<path clip-path="url(#SVGID_2_)" fill="#FFFFFF" d="M1010.796,87.276c0-4.446,3.604-8.05,8.05-8.05s8.051,3.604,8.051,8.05
		c0,4.446-3.604,8.05-8.051,8.05S1010.796,91.722,1010.796,87.276"/>
	<path clip-path="url(#SVGID_2_)" fill="#FFFFFF" d="M1029.067,70.037c0-5.205,4.219-9.424,9.424-9.424
		c5.204,0,9.423,4.219,9.423,9.424c0,5.204-4.219,9.423-9.423,9.423C1033.286,79.46,1029.067,75.241,1029.067,70.037"/>
	<path clip-path="url(#SVGID_2_)" fill="#FFFFFF" d="M1050.085,97.514c0-2.626,2.129-4.755,4.756-4.755
		c2.626,0,4.755,2.129,4.755,4.755s-2.129,4.755-4.755,4.755C1052.214,102.269,1050.085,100.14,1050.085,97.514"/>
	<path clip-path="url(#SVGID_2_)" fill="#FFFFFF" d="M1035.813,93.843c0-2.347,1.901-4.249,4.249-4.249
		c2.347,0,4.249,1.902,4.249,4.249c0,2.347-1.902,4.249-4.249,4.249C1037.715,98.092,1035.813,96.189,1035.813,93.843"/>
	<path clip-path="url(#SVGID_2_)" fill="#FFFFFF" d="M1073.646,82.621c0-5.591,4.532-10.123,10.123-10.123
		s10.123,4.532,10.123,10.123c0,5.591-4.532,10.123-10.123,10.123S1073.646,88.212,1073.646,82.621"/>
	<path clip-path="url(#SVGID_2_)" fill="#FFFFFF" d="M1077.043,64.779c0-2.497,2.023-4.521,4.521-4.521s4.521,2.024,4.521,4.521
		s-2.024,4.521-4.521,4.521S1077.043,67.276,1077.043,64.779"/>
	<path clip-path="url(#SVGID_2_)" fill="#FFFFFF" d="M1086.768,73.811c0-3.089,2.505-5.594,5.594-5.594
		c3.09,0,5.594,2.505,5.594,5.594c0,3.089-2.504,5.594-5.594,5.594C1089.272,79.404,1086.768,76.899,1086.768,73.811"/>
	<path clip-path="url(#SVGID_2_)" fill="#FFFFFF" d="M1104.899,80.22c0-3.009,2.438-5.448,5.448-5.448
		c3.009,0,5.447,2.439,5.447,5.448c0,3.009-2.438,5.448-5.447,5.448C1107.338,85.668,1104.899,83.229,1104.899,80.22"/>
	<path clip-path="url(#SVGID_2_)" fill="#FFFFFF" d="M1122.598,110.8c0-3.107,2.52-5.626,5.626-5.626s5.627,2.519,5.627,5.626
		s-2.521,5.626-5.627,5.626S1122.598,113.907,1122.598,110.8"/>
	<path clip-path="url(#SVGID_2_)" fill="#FFFFFF" d="M1076.609,107.485c0-3.137,2.544-5.681,5.681-5.681s5.681,2.544,5.681,5.681
		c0,3.138-2.544,5.681-5.681,5.681S1076.609,110.623,1076.609,107.485"/>
	<path clip-path="url(#SVGID_2_)" fill="#FFFFFF" d="M1093.74,118.513c0-6.09,4.937-11.028,11.026-11.028
		c6.091,0,11.029,4.938,11.029,11.028c0,6.091-4.938,11.028-11.029,11.028C1098.677,129.541,1093.74,124.604,1093.74,118.513"/>
	<path clip-path="url(#SVGID_2_)" fill="#FFFFFF" d="M1116.704,104.541c0-3.181,2.579-5.76,5.76-5.76s5.76,2.579,5.76,5.76
		c0,3.181-2.579,5.76-5.76,5.76S1116.704,107.722,1116.704,104.541"/>
	<path clip-path="url(#SVGID_2_)" fill="#FFFFFF" d="M1054.974,160.621c0-3.193,2.589-5.781,5.782-5.781
		c3.192,0,5.78,2.588,5.78,5.781c0,3.193-2.588,5.782-5.78,5.782C1057.563,166.402,1054.974,163.813,1054.974,160.621"/>
	<path clip-path="url(#SVGID_2_)" fill="#FFFFFF" d="M1094.352,139.423c0-4.803,3.893-8.696,8.694-8.696
		c4.804,0,8.696,3.893,8.696,8.696c0,4.802-3.893,8.695-8.696,8.695C1098.244,148.118,1094.352,144.225,1094.352,139.423"/>
	<path clip-path="url(#SVGID_2_)" fill="#FFFFFF" d="M1120.779,157.922c0-2.881-2.335-5.216-5.217-5.216
		c-2.881,0-5.216,2.335-5.216,5.216c0,2.88,2.335,5.215,5.216,5.215C1118.444,163.137,1120.779,160.802,1120.779,157.922"/>
	<path clip-path="url(#SVGID_2_)" fill="#FFFFFF" d="M1115.563,163.582c0-4.627,3.751-8.378,8.379-8.378
		c4.627,0,8.378,3.751,8.378,8.378s-3.751,8.379-8.378,8.379C1119.314,171.961,1115.563,168.209,1115.563,163.582"/>
	<path clip-path="url(#SVGID_2_)" fill="#FFFFFF" d="M1146.334,144.062c0,6.153-4.989,11.142-11.144,11.142
		c-6.152,0-11.141-4.989-11.141-11.142c0-6.154,4.988-11.142,11.141-11.142C1141.345,132.92,1146.334,137.908,1146.334,144.062"/>
	<path clip-path="url(#SVGID_2_)" fill="#FFFFFF" d="M1139.164,154.37c0-3.453,2.799-6.251,6.252-6.251
		c3.452,0,6.251,2.798,6.251,6.251c0,3.453-2.799,6.251-6.251,6.251C1141.963,160.621,1139.164,157.822,1139.164,154.37"/>
	<path clip-path="url(#SVGID_2_)" fill="#FFFFFF" d="M1117.985,143.837c0-2.438,1.977-4.414,4.414-4.414
		c2.438,0,4.415,1.976,4.415,4.414s-1.977,4.414-4.415,4.414C1119.962,148.251,1117.985,146.275,1117.985,143.837"/>
	<path clip-path="url(#SVGID_2_)" fill="#FFFFFF" d="M1148.213,178.683c0,3.713-3.01,6.723-6.724,6.723
		c-3.713,0-6.721-3.01-6.721-6.723c0-3.712,3.008-6.722,6.721-6.722C1145.203,171.961,1148.213,174.971,1148.213,178.683"/>
	<path clip-path="url(#SVGID_2_)" fill="#FFFFFF" d="M1166.326,163.138c0,2.568-2.081,4.649-4.649,4.649
		c-2.567,0-4.649-2.081-4.649-4.649c0-2.567,2.082-4.648,4.649-4.648C1164.245,158.49,1166.326,160.57,1166.326,163.138"/>
	<path clip-path="url(#SVGID_2_)" fill="#FFFFFF" d="M1163.55,174.998c0,6.734-5.459,12.193-12.192,12.193
		c-6.734,0-12.194-5.459-12.194-12.193c0-6.733,5.46-12.192,12.194-12.192C1158.091,162.806,1163.55,168.265,1163.55,174.998"/>
	<path clip-path="url(#SVGID_2_)" fill="#FFFFFF" d="M1147.021,194.561c0,3.384-2.742,6.126-6.126,6.126
		c-3.385,0-6.126-2.742-6.126-6.126c0-3.383,2.741-6.126,6.126-6.126C1144.278,188.435,1147.021,191.177,1147.021,194.561"/>
	<path clip-path="url(#SVGID_2_)" fill="#FFFFFF" d="M1144.804,206.642c0-2.823,2.289-5.112,5.111-5.112
		c2.825,0,5.113,2.289,5.113,5.112c0,2.824-2.288,5.112-5.113,5.112C1147.093,211.753,1144.804,209.465,1144.804,206.642"/>
	<path clip-path="url(#SVGID_2_)" fill="#FFFFFF" d="M1161.25,217.09c0-2.947,2.389-5.336,5.336-5.336s5.336,2.389,5.336,5.336
		c0,2.947-2.389,5.336-5.336,5.336S1161.25,220.037,1161.25,217.09"/>
	<path clip-path="url(#SVGID_2_)" fill="#FFFFFF" d="M1178.316,205.901c0,3.493-2.831,6.324-6.324,6.324
		c-3.492,0-6.324-2.831-6.324-6.324c0-3.493,2.832-6.324,6.324-6.324C1175.485,199.577,1178.316,202.408,1178.316,205.901"/>
	<path clip-path="url(#SVGID_2_)" fill="#FFFFFF" d="M1204.629,324.859c0,1.747-1.415,3.162-3.162,3.162
		c-1.746,0-3.162-1.415-3.162-3.162c0-1.746,1.416-3.16,3.162-3.16C1203.214,321.699,1204.629,323.113,1204.629,324.859"/>
	<path clip-path="url(#SVGID_2_)" fill="#FFFFFF" d="M1169.069,380.757c0,2.656-2.153,4.811-4.811,4.811s-4.81-2.154-4.81-4.811
		c0-2.655,2.152-4.811,4.81-4.811S1169.069,378.102,1169.069,380.757"/>
	<path clip-path="url(#SVGID_2_)" fill="#FFFFFF" d="M1151.47,200.368c0,3.465,2.81,6.273,6.272,6.273
		c3.465,0,6.274-2.808,6.274-6.273c0-3.464-2.81-6.273-6.274-6.273C1154.279,194.095,1151.47,196.904,1151.47,200.368"/>
	<path clip-path="url(#SVGID_2_)" fill="#FFFFFF" d="M1169.505,188.604c0-3.456,2.802-6.257,6.258-6.257s6.257,2.801,6.257,6.257
		s-2.801,6.257-6.257,6.257S1169.505,192.06,1169.505,188.604"/>
	<path clip-path="url(#SVGID_2_)" fill="#FFFFFF" d="M1185.037,246.394c0-3.456,2.801-6.257,6.257-6.257s6.258,2.801,6.258,6.257
		s-2.802,6.257-6.258,6.257S1185.037,249.85,1185.037,246.394"/>
	<path clip-path="url(#SVGID_2_)" fill="#FFFFFF" d="M1183.346,179.107c0-3.433,2.781-6.216,6.216-6.216
		c3.432,0,6.216,2.783,6.216,6.216c0,3.433-2.784,6.216-6.216,6.216C1186.127,185.323,1183.346,182.54,1183.346,179.107"/>
	<path clip-path="url(#SVGID_2_)" fill="#FFFFFF" d="M1227.83,329.582c0-4.766,3.863-8.63,8.631-8.63c4.766,0,8.63,3.864,8.63,8.63
		c0,4.768-3.864,8.631-8.63,8.631C1231.693,338.213,1227.83,334.35,1227.83,329.582"/>
	<path clip-path="url(#SVGID_2_)" fill="#FFFFFF" d="M1219.779,288.272c0-3.433,2.781-6.216,6.216-6.216
		c3.432,0,6.216,2.783,6.216,6.216c0,3.434-2.784,6.217-6.216,6.217C1222.561,294.489,1219.779,291.706,1219.779,288.272"/>
	<path clip-path="url(#SVGID_2_)" fill="#FFFFFF" d="M1174.582,176.498c0,1.992-1.615,3.606-3.607,3.606s-3.607-1.614-3.607-3.606
		c0-1.992,1.615-3.607,3.607-3.607S1174.582,174.506,1174.582,176.498"/>
	<path clip-path="url(#SVGID_2_)" fill="#FFFFFF" d="M1204.296,163.37c0,3.125-2.533,5.659-5.658,5.659s-5.659-2.534-5.659-5.659
		s2.534-5.659,5.659-5.659S1204.296,160.245,1204.296,163.37"/>
	<path clip-path="url(#SVGID_2_)" fill="#FFFFFF" d="M1144.547,220.057c0,1.697-1.376,3.074-3.074,3.074
		c-1.697,0-3.073-1.377-3.073-3.074c0-1.698,1.376-3.074,3.073-3.074C1143.171,216.982,1144.547,218.358,1144.547,220.057"/>
	<path clip-path="url(#SVGID_2_)" fill="#FFFFFF" d="M1124.887,234.597c0,2.575-2.087,4.662-4.661,4.662
		c-2.575,0-4.662-2.087-4.662-4.662c0-2.574,2.087-4.661,4.662-4.661C1122.8,229.936,1124.887,232.023,1124.887,234.597"/>
	<path clip-path="url(#SVGID_2_)" fill="#FFFFFF" d="M1204.883,280.899c0,2.574-2.087,4.662-4.662,4.662
		c-2.574,0-4.661-2.088-4.661-4.662c0-2.573,2.087-4.662,4.661-4.662C1202.796,276.237,1204.883,278.326,1204.883,280.899"/>
	<path clip-path="url(#SVGID_2_)" fill="#FFFFFF" d="M1129.965,238.642c0-5.695,4.617-10.312,10.313-10.312
		s10.312,4.617,10.312,10.312c0,5.695-4.616,10.312-10.312,10.312S1129.965,244.336,1129.965,238.642"/>
	<path clip-path="url(#SVGID_2_)" fill="#FFFFFF" d="M1162.86,230.64c0,5.057-4.101,9.157-9.157,9.157s-9.156-4.1-9.156-9.157
		s4.1-9.157,9.156-9.157S1162.86,225.583,1162.86,230.64"/>
	<path clip-path="url(#SVGID_2_)" fill="#FFFFFF" d="M1190.235,272.528c-5.734,6.568-15.708,7.245-22.277,1.509
		c-6.569-5.735-7.244-15.709-1.509-22.277c5.734-6.568,15.709-7.244,22.277-1.509C1195.295,255.986,1195.97,265.96,1190.235,272.528
		"/>
	<path clip-path="url(#SVGID_2_)" fill="#FFFFFF" d="M1154.91,339.752c0-5.532,4.484-10.019,10.019-10.019
		c5.532,0,10.017,4.486,10.017,10.019c0,5.533-4.484,10.02-10.017,10.02C1159.395,349.771,1154.91,345.285,1154.91,339.752"/>
	<path clip-path="url(#SVGID_2_)" fill="#FFFFFF" d="M1116.89,283.619c0-3.152,2.556-5.709,5.708-5.709s5.709,2.557,5.709,5.709
		s-2.557,5.708-5.709,5.708S1116.89,286.771,1116.89,283.619"/>
	<path clip-path="url(#SVGID_2_)" fill="#FFFFFF" d="M1225.154,200.61c0,3.26-2.645,5.903-5.903,5.903
		c-3.261,0-5.904-2.643-5.904-5.903c0-3.26,2.644-5.903,5.904-5.903C1222.51,194.707,1225.154,197.35,1225.154,200.61"/>
	<path clip-path="url(#SVGID_2_)" fill="#FFFFFF" d="M1228.52,221.252c0,3.26-2.645,5.903-5.903,5.903
		c-3.261,0-5.904-2.643-5.904-5.903c0-3.26,2.644-5.903,5.904-5.903C1225.875,215.349,1228.52,217.992,1228.52,221.252"/>
	<path clip-path="url(#SVGID_2_)" fill="#FFFFFF" d="M1259.655,314.386c0,3.262-2.645,5.903-5.903,5.903
		c-3.26,0-5.904-2.642-5.904-5.903c0-3.26,2.645-5.901,5.904-5.901C1257.011,308.484,1259.655,311.126,1259.655,314.386"/>
	<path clip-path="url(#SVGID_2_)" fill="#FFFFFF" d="M1017.858,74.38c0,1.879-1.523,3.402-3.402,3.402
		c-1.88,0-3.403-1.523-3.403-3.402s1.523-3.402,3.403-3.402C1016.335,70.978,1017.858,72.501,1017.858,74.38"/>
	<path clip-path="url(#SVGID_2_)" fill="#FFFFFF" d="M1047.025,116.332c0-3.055,2.477-5.532,5.531-5.532
		c3.056,0,5.531,2.477,5.531,5.532c0,3.055-2.476,5.532-5.531,5.532C1049.502,121.864,1047.025,119.387,1047.025,116.332"/>
	<path clip-path="url(#SVGID_2_)" fill="#FFFFFF" d="M1068.4,139.153c0,6.946-5.631,12.576-12.576,12.576
		c-6.946,0-12.577-5.63-12.577-12.576c0-6.946,5.631-12.576,12.577-12.576C1062.77,126.577,1068.4,132.207,1068.4,139.153"/>
	<path clip-path="url(#SVGID_2_)" fill="#FFFFFF" d="M1087.647,148.286c0,3.36-2.725,6.084-6.084,6.084s-6.083-2.724-6.083-6.084
		c0-3.36,2.724-6.083,6.083-6.083S1087.647,144.925,1087.647,148.286"/>
	<path clip-path="url(#SVGID_2_)" fill="#FFFFFF" d="M1072.517,148.286c0,2.476-2.007,4.483-4.483,4.483
		c-2.476,0-4.484-2.007-4.484-4.483c0-2.476,2.009-4.483,4.484-4.483C1070.51,143.802,1072.517,145.81,1072.517,148.286"/>
	<path clip-path="url(#SVGID_2_)" fill="#FFFFFF" d="M1070.912,162.457c0-3.147,2.551-5.698,5.696-5.698
		c3.147,0,5.698,2.551,5.698,5.698c0,3.146-2.551,5.697-5.698,5.697C1073.463,168.153,1070.912,165.603,1070.912,162.457"/>
	<path clip-path="url(#SVGID_2_)" fill="#FFFFFF" d="M1082.937,173.971c0-2.603,2.109-4.712,4.713-4.712
		c2.602,0,4.712,2.109,4.712,4.712s-2.11,4.712-4.712,4.712C1085.046,178.683,1082.937,176.574,1082.937,173.971"/>
	<path clip-path="url(#SVGID_2_)" fill="#FFFFFF" d="M1112.067,188.017c0,3.357-2.723,6.079-6.079,6.079
		c-3.358,0-6.078-2.722-6.078-6.079s2.72-6.079,6.078-6.079C1109.345,181.938,1112.067,184.66,1112.067,188.017"/>
	<path clip-path="url(#SVGID_2_)" fill="#FFFFFF" d="M1134.955,124.823c0,2.652-2.149,4.801-4.801,4.801s-4.802-2.149-4.802-4.801
		c0-2.651,2.15-4.801,4.802-4.801S1134.955,122.172,1134.955,124.823"/>
	<path clip-path="url(#SVGID_2_)" fill="#FFFFFF" d="M1149.348,134.426c0,2.652-2.149,4.801-4.801,4.801s-4.803-2.149-4.803-4.801
		c0-2.651,2.151-4.801,4.803-4.801S1149.348,131.775,1149.348,134.426"/>
	<path clip-path="url(#SVGID_2_)" fill="#FFFFFF" d="M1140.231,211.754c0,6.125-4.966,11.09-11.091,11.09s-11.09-4.965-11.09-11.09
		s4.965-11.09,11.09-11.09S1140.231,205.629,1140.231,211.754"/>
	<path clip-path="url(#SVGID_2_)" fill="#FFFFFF" d="M1109.885,201.791c0,5.092-4.128,9.22-9.222,9.22
		c-5.092,0-9.219-4.128-9.219-9.22c0-5.092,4.127-9.221,9.219-9.221C1105.757,192.569,1109.885,196.698,1109.885,201.791"/>
	<path clip-path="url(#SVGID_2_)" fill="#FFFFFF" d="M1049.084,114.797c0,5.85-4.742,10.593-10.594,10.593
		c-5.85,0-10.593-4.743-10.593-10.593c0-5.851,4.743-10.593,10.593-10.593C1044.342,104.204,1049.084,108.946,1049.084,114.797"/>
	<path clip-path="url(#SVGID_2_)" fill="#FFFFFF" d="M1241.05,169.265c0,7.395-5.995,13.389-13.391,13.389
		c-7.394,0-13.388-5.994-13.388-13.389s5.994-13.389,13.388-13.389C1235.055,155.875,1241.05,161.87,1241.05,169.265"/>
	<path clip-path="url(#SVGID_2_)" fill="#FFFFFF" d="M1230.004,139.067c0,2.563-2.077,4.641-4.642,4.641
		c-2.563,0-4.64-2.078-4.64-4.641s2.077-4.641,4.64-4.641C1227.927,134.426,1230.004,136.504,1230.004,139.067"/>
	<path clip-path="url(#SVGID_2_)" fill="#FFFFFF" d="M1213.074,252.651c0,2.563-2.077,4.641-4.642,4.641
		c-2.563,0-4.64-2.078-4.64-4.641s2.077-4.641,4.64-4.641C1210.997,248.01,1213.074,250.088,1213.074,252.651"/>
	<path clip-path="url(#SVGID_2_)" fill="#FFFFFF" d="M1227.3,147.711c0,2.577-2.089,4.666-4.665,4.666
		c-2.577,0-4.666-2.089-4.666-4.666c0-2.577,2.089-4.666,4.666-4.666C1225.211,143.045,1227.3,145.134,1227.3,147.711"/>
	<path clip-path="url(#SVGID_2_)" fill="#FFFFFF" d="M1211.745,131.13c0-2.813,2.28-5.094,5.094-5.094s5.094,2.281,5.094,5.094
		s-2.28,5.094-5.094,5.094S1211.745,133.943,1211.745,131.13"/>
	<path clip-path="url(#SVGID_2_)" fill="#FFFFFF" d="M1229.717,117.329c0,2.774-2.248,5.023-5.022,5.023
		c-2.773,0-5.022-2.249-5.022-5.023s2.249-5.022,5.022-5.022C1227.469,112.307,1229.717,114.555,1229.717,117.329"/>
	<path clip-path="url(#SVGID_2_)" fill="#FFFFFF" d="M1238.339,158.322c0-4.874,3.95-8.825,8.825-8.825
		c4.873,0,8.824,3.951,8.824,8.825s-3.951,8.825-8.824,8.825C1242.289,167.147,1238.339,163.196,1238.339,158.322"/>
	<path clip-path="url(#SVGID_2_)" fill="#FFFFFF" d="M1127.626,257.448c0,4.087-3.313,7.401-7.4,7.401
		c-4.088,0-7.401-3.314-7.401-7.401s3.313-7.4,7.401-7.4C1124.313,250.048,1127.626,253.361,1127.626,257.448"/>
	<path clip-path="url(#SVGID_2_)" fill="#FFFFFF" d="M1165.065,249.921c0,2.467-2,4.468-4.468,4.468
		c-2.469,0-4.469-2.001-4.469-4.468c0-2.468,2-4.468,4.469-4.468C1163.065,245.453,1165.065,247.453,1165.065,249.921"/>
	<path clip-path="url(#SVGID_2_)" fill="#FFFFFF" d="M1132.933,296.367c0,3.511-2.846,6.354-6.354,6.354s-6.353-2.844-6.353-6.354
		c0-3.509,2.844-6.354,6.353-6.354S1132.933,292.858,1132.933,296.367"/>
	<path clip-path="url(#SVGID_2_)" fill="#FFFFFF" d="M1116.18,305.759c0,3.478-2.818,6.294-6.295,6.294s-6.295-2.816-6.295-6.294
		c0-3.477,2.818-6.295,6.295-6.295S1116.18,302.282,1116.18,305.759"/>
	<path clip-path="url(#SVGID_2_)" fill="#FFFFFF" d="M1129.142,312.392c0-3.663,2.97-6.633,6.634-6.633
		c3.663,0,6.633,2.97,6.633,6.633c0,3.664-2.97,6.635-6.633,6.635C1132.111,319.026,1129.142,316.056,1129.142,312.392"/>
	<path clip-path="url(#SVGID_2_)" fill="#FFFFFF" d="M1102.767,329.831c0,3.673-2.979,6.65-6.651,6.65s-6.65-2.978-6.65-6.65
		c0-3.674,2.978-6.65,6.65-6.65S1102.767,326.157,1102.767,329.831"/>
	<path clip-path="url(#SVGID_2_)" fill="#FFFFFF" d="M1086.528,354.934c0-2.715,2.2-4.916,4.916-4.916
		c2.715,0,4.916,2.201,4.916,4.916c0,2.717-2.201,4.917-4.916,4.917C1088.729,359.851,1086.528,357.65,1086.528,354.934"/>
	<path clip-path="url(#SVGID_2_)" fill="#FFFFFF" d="M1123.665,352.527c0,4.476-3.627,8.103-8.103,8.103
		c-4.474,0-8.101-3.627-8.101-8.103c0-4.475,3.627-8.102,8.101-8.102C1120.038,344.426,1123.665,348.053,1123.665,352.527"/>
	<path clip-path="url(#SVGID_2_)" fill="#FFFFFF" d="M1149.269,343.425c2.099,4.296,0.317,9.479-3.979,11.578
		c-4.295,2.101-9.479,0.318-11.578-3.977c-2.099-4.295-0.317-9.48,3.978-11.579C1141.985,337.349,1147.169,339.129,1149.269,343.425
		"/>
	<path clip-path="url(#SVGID_2_)" fill="#FFFFFF" d="M1182.743,308.851c0,8.388-6.8,15.186-15.187,15.186
		c-8.385,0-15.184-6.798-15.184-15.186c0-8.387,6.799-15.185,15.184-15.185C1175.943,293.666,1182.743,300.464,1182.743,308.851"/>
	<path clip-path="url(#SVGID_2_)" fill="#FFFFFF" d="M1153.15,329.403c0,3.605-2.924,6.529-6.529,6.529s-6.53-2.924-6.53-6.529
		s2.925-6.528,6.53-6.528S1153.15,325.798,1153.15,329.403"/>
	<path clip-path="url(#SVGID_2_)" fill="#FFFFFF" d="M1179.782,317.495c0-3.604,2.923-6.528,6.528-6.528
		c3.606,0,6.53,2.924,6.53,6.528c0,3.606-2.924,6.529-6.53,6.529C1182.705,324.024,1179.782,321.102,1179.782,317.495"/>
	<path clip-path="url(#SVGID_2_)" fill="#FFFFFF" d="M1197.405,336.386c0,4.584-3.716,8.302-8.3,8.302
		c-4.586,0-8.302-3.718-8.302-8.302s3.716-8.3,8.302-8.3C1193.689,328.086,1197.405,331.802,1197.405,336.386"/>
	<path clip-path="url(#SVGID_2_)" fill="#FFFFFF" d="M1173.194,284.01c0,5.534-4.486,10.021-10.021,10.021
		c-5.536,0-10.022-4.487-10.022-10.021c0-5.535,4.486-10.021,10.022-10.021C1168.708,273.988,1173.194,278.475,1173.194,284.01"/>
	<path clip-path="url(#SVGID_2_)" fill="#FFFFFF" d="M1189.562,223.654c0,4.587-3.72,8.305-8.307,8.305s-8.304-3.718-8.304-8.305
		c0-4.586,3.717-8.305,8.304-8.305S1189.562,219.068,1189.562,223.654"/>
	<path clip-path="url(#SVGID_2_)" fill="#FFFFFF" d="M1203.893,268.023c0,5.84-4.734,10.575-10.575,10.575
		c-5.84,0-10.574-4.735-10.574-10.575c0-5.84,4.734-10.575,10.574-10.575C1199.158,257.448,1203.893,262.183,1203.893,268.023"/>
	<path clip-path="url(#SVGID_2_)" fill="#FFFFFF" d="M1181.293,235.469c0,4.821-3.908,8.729-8.729,8.729
		c-4.819,0-8.728-3.908-8.728-8.729c0-4.82,3.908-8.728,8.728-8.728C1177.385,226.741,1181.293,230.649,1181.293,235.469"/>
	<path clip-path="url(#SVGID_2_)" fill="#FFFFFF" d="M1203.893,290.762c0-3.096,2.51-5.604,5.604-5.604
		c3.097,0,5.606,2.509,5.606,5.604c0,3.097-2.51,5.605-5.606,5.605C1206.402,296.367,1203.893,293.858,1203.893,290.762"/>
	<path clip-path="url(#SVGID_2_)" fill="#FFFFFF" d="M1200.795,271.809c0-5.096,4.132-9.228,9.228-9.228
		c5.097,0,9.229,4.132,9.229,9.228c0,5.097-4.132,9.229-9.229,9.229C1204.927,281.038,1200.795,276.906,1200.795,271.809"/>
	<path clip-path="url(#SVGID_2_)" fill="#FFFFFF" d="M1187.622,303.755c0-7.589,6.15-13.74,13.739-13.74
		c7.59,0,13.741,6.151,13.741,13.74c0,7.59-6.151,13.74-13.741,13.74C1193.772,317.495,1187.622,311.345,1187.622,303.755"/>
	<path clip-path="url(#SVGID_2_)" fill="#FFFFFF" d="M1238.352,314.386c0,7.566-6.133,13.7-13.699,13.7s-13.699-6.134-13.699-13.7
		c0-7.564,6.133-13.698,13.699-13.698S1238.352,306.821,1238.352,314.386"/>
	<path clip-path="url(#SVGID_2_)" fill="#FFFFFF" d="M1242.743,344.673c0,3.527-2.86,6.389-6.389,6.389
		c-3.527,0-6.387-2.861-6.387-6.389s2.859-6.388,6.387-6.388C1239.883,338.285,1242.743,341.146,1242.743,344.673"/>
	<path clip-path="url(#SVGID_2_)" fill="#FFFFFF" d="M1132.877,268.023c0,3.528-2.859,6.388-6.389,6.388
		c-3.526,0-6.387-2.86-6.387-6.388s2.86-6.388,6.387-6.388C1130.018,261.635,1132.877,264.495,1132.877,268.023"/>
	<path clip-path="url(#SVGID_2_)" fill="#FFFFFF" d="M1232.011,372.399c0,5.588-4.53,10.118-10.118,10.118
		s-10.118-4.53-10.118-10.118s4.53-10.117,10.118-10.117S1232.011,366.812,1232.011,372.399"/>
	<path clip-path="url(#SVGID_2_)" fill="#FFFFFF" d="M1117.189,172.013c0,3.528-2.859,6.388-6.389,6.388
		c-3.526,0-6.387-2.86-6.387-6.388c0-3.528,2.86-6.388,6.387-6.388C1114.33,165.625,1117.189,168.484,1117.189,172.013"/>
	<path clip-path="url(#SVGID_2_)" fill="#FFFFFF" d="M1215.886,376.13c0,3.527-2.86,6.389-6.389,6.389
		c-3.527,0-6.387-2.861-6.387-6.389s2.859-6.388,6.387-6.388C1213.025,369.742,1215.886,372.603,1215.886,376.13"/>
	<path clip-path="url(#SVGID_2_)" fill="#FFFFFF" d="M1284.042,353.332c0,3.527-2.86,6.389-6.389,6.389
		c-3.527,0-6.387-2.861-6.387-6.389s2.859-6.388,6.387-6.388C1281.182,346.944,1284.042,349.805,1284.042,353.332"/>
	<path clip-path="url(#SVGID_2_)" fill="#FFFFFF" d="M1148.207,363.927c0,3.711-3.01,6.72-6.721,6.72s-6.718-3.009-6.718-6.72
		s3.007-6.72,6.718-6.72S1148.207,360.216,1148.207,363.927"/>
	<path clip-path="url(#SVGID_2_)" fill="#FFFFFF" d="M1115.563,374.255c0,6.793-5.507,12.301-12.3,12.301s-12.3-5.508-12.3-12.301
		c0-6.792,5.507-12.299,12.3-12.299S1115.563,367.463,1115.563,374.255"/>
	<path clip-path="url(#SVGID_2_)" fill="#FFFFFF" d="M1088.613,386.555c0,4.847-3.929,8.773-8.773,8.773
		c-4.846,0-8.773-3.927-8.773-8.773c0-4.846,3.928-8.772,8.773-8.772C1084.685,377.782,1088.613,381.709,1088.613,386.555"/>
	<path clip-path="url(#SVGID_2_)" fill="#FFFFFF" d="M1073.252,403.443c0,3.209-2.602,5.811-5.81,5.811
		c-3.209,0-5.809-2.602-5.809-5.811c0-3.208,2.6-5.809,5.809-5.809C1070.65,397.635,1073.252,400.235,1073.252,403.443"/>
	<path clip-path="url(#SVGID_2_)" fill="#FFFFFF" d="M1095.842,408.913c0,7.99-6.479,14.469-14.469,14.469
		s-14.469-6.479-14.469-14.469s6.479-14.469,14.469-14.469S1095.842,400.923,1095.842,408.913"/>
	<path clip-path="url(#SVGID_2_)" fill="#FFFFFF" d="M1126.489,397.723c0,3.982-3.229,7.211-7.211,7.211
		c-3.982,0-7.212-3.229-7.212-7.211c0-3.981,3.229-7.211,7.212-7.211C1123.26,390.512,1126.489,393.741,1126.489,397.723"/>
	<path clip-path="url(#SVGID_2_)" fill="#FFFFFF" d="M1108.126,416.256c0,4.077-3.306,7.382-7.382,7.382
		c-4.077,0-7.384-3.305-7.384-7.382s3.307-7.383,7.384-7.383C1104.82,408.873,1108.126,412.179,1108.126,416.256"/>
	<path clip-path="url(#SVGID_2_)" fill="#FFFFFF" d="M1134.228,409.77c0-4.518,3.662-8.181,8.181-8.181
		c4.518,0,8.18,3.663,8.18,8.181c0,4.52-3.662,8.183-8.18,8.183C1137.89,417.952,1134.228,414.289,1134.228,409.77"/>
	<path clip-path="url(#SVGID_2_)" fill="#FFFFFF" d="M1130.067,414.34c0,3.02-2.447,5.466-5.468,5.466
		c-3.018,0-5.466-2.446-5.466-5.466s2.448-5.467,5.466-5.467C1127.62,408.873,1130.067,411.32,1130.067,414.34"/>
	<path clip-path="url(#SVGID_2_)" fill="#FFFFFF" d="M1124.283,428.667c0-4.135,3.353-7.486,7.486-7.486
		c4.136,0,7.488,3.352,7.488,7.486c0,4.136-3.353,7.487-7.488,7.487C1127.636,436.154,1124.283,432.803,1124.283,428.667"/>
	<path clip-path="url(#SVGID_2_)" fill="#FFFFFF" d="M1180.207,359.939c0,7.332-5.943,13.275-13.275,13.275
		c-7.331,0-13.275-5.943-13.275-13.275c0-7.331,5.944-13.274,13.275-13.274C1174.264,346.665,1180.207,352.608,1180.207,359.939"/>
	<path clip-path="url(#SVGID_2_)" fill="#FFFFFF" d="M1160.598,269.652c0,7.809-6.33,14.139-14.14,14.139
		c-7.808,0-14.138-6.33-14.138-14.139c0-7.808,6.33-14.138,14.138-14.138C1154.268,255.514,1160.598,261.844,1160.598,269.652"/>
	<path clip-path="url(#SVGID_2_)" fill="#FFFFFF" d="M1137.403,379.588c0,3.521-2.854,6.374-6.374,6.374
		c-3.521,0-6.373-2.853-6.373-6.374c0-3.52,2.853-6.373,6.373-6.373C1134.549,373.215,1137.403,376.068,1137.403,379.588"/>
	<path clip-path="url(#SVGID_2_)" fill="#FFFFFF" d="M1163.403,387.827c0,6.052-4.905,10.956-10.956,10.956
		c-6.053,0-10.957-4.904-10.957-10.956c0-6.051,4.904-10.956,10.957-10.956C1158.498,376.871,1163.403,381.776,1163.403,387.827"/>
	<path clip-path="url(#SVGID_2_)" fill="#FFFFFF" d="M1083.837,435.505c0,3.776-3.062,6.838-6.837,6.838
		c-3.776,0-6.838-3.062-6.838-6.838c0-3.775,3.062-6.838,6.838-6.838C1080.775,428.667,1083.837,431.729,1083.837,435.505"/>
	<path clip-path="url(#SVGID_2_)" fill="#FFFFFF" d="M1100.949,433.096c0,3.438-2.787,6.227-6.226,6.227
		c-3.438,0-6.225-2.788-6.225-6.227c0-3.438,2.787-6.226,6.225-6.226C1098.162,426.87,1100.949,429.658,1100.949,433.096"/>
	<path clip-path="url(#SVGID_2_)" fill="#FFFFFF" d="M1120.971,434.671c0,3.489-2.829,6.318-6.318,6.318
		c-3.491,0-6.319-2.829-6.319-6.318c0-3.488,2.828-6.317,6.319-6.317C1118.142,428.354,1120.971,431.183,1120.971,434.671"/>
	<path clip-path="url(#SVGID_2_)" fill="#FFFFFF" d="M1128.998,445.709c0,3.939-3.194,7.135-7.135,7.135
		c-3.938,0-7.134-3.195-7.134-7.135c0-3.938,3.195-7.134,7.134-7.134C1125.804,438.575,1128.998,441.771,1128.998,445.709"/>
	<path clip-path="url(#SVGID_2_)" fill="#FFFFFF" d="M1118.361,457.364c0,3.417-2.771,6.188-6.187,6.188
		c-3.417,0-6.186-2.771-6.186-6.188c0-3.416,2.769-6.186,6.186-6.186C1115.591,451.179,1118.361,453.948,1118.361,457.364"/>
	<path clip-path="url(#SVGID_2_)" fill="#FFFFFF" d="M1101.845,475.042c0,6.526-5.29,11.816-11.816,11.816
		s-11.817-5.29-11.817-11.816c0-6.525,5.291-11.815,11.817-11.815S1101.845,468.517,1101.845,475.042"/>
	<path clip-path="url(#SVGID_2_)" fill="#FFFFFF" d="M1055.929,456.59c0,2.906-2.356,5.263-5.264,5.263
		c-2.905,0-5.262-2.356-5.262-5.263s2.356-5.263,5.262-5.263C1053.572,451.327,1055.929,453.684,1055.929,456.59"/>
	<path clip-path="url(#SVGID_2_)" fill="#FFFFFF" d="M1051.902,460.635c0-6.102,4.945-11.048,11.048-11.048
		c6.101,0,11.048,4.946,11.048,11.048c0,6.103-4.947,11.049-11.048,11.049C1056.848,471.684,1051.902,466.737,1051.902,460.635"/>
	<path clip-path="url(#SVGID_2_)" fill="#FFFFFF" d="M1100.011,458.594c0,5.427-4.399,9.825-9.826,9.825
		c-5.426,0-9.825-4.398-9.825-9.825s4.399-9.826,9.825-9.826C1095.611,448.768,1100.011,453.167,1100.011,458.594"/>
	<path clip-path="url(#SVGID_2_)" fill="#FFFFFF" d="M1059.657,432.985c0,3.541-2.87,6.411-6.41,6.411s-6.41-2.87-6.41-6.411
		c0-3.54,2.87-6.41,6.41-6.41S1059.657,429.445,1059.657,432.985"/>
	<path clip-path="url(#SVGID_2_)" fill="#FFFFFF" d="M1037.028,465.704c0,2.036-1.649,3.687-3.687,3.687
		c-2.035,0-3.685-1.65-3.685-3.687c0-2.034,1.649-3.686,3.685-3.686C1035.379,462.019,1037.028,463.67,1037.028,465.704"/>
	<path clip-path="url(#SVGID_2_)" fill="#FFFFFF" d="M1053.316,413.225c0,3.911-3.171,7.082-7.083,7.082
		c-3.911,0-7.082-3.171-7.082-7.082s3.171-7.082,7.082-7.082C1050.146,406.143,1053.316,409.313,1053.316,413.225"/>
	<path clip-path="url(#SVGID_2_)" fill="#FFFFFF" d="M1062.95,475.063c0,7.157-5.804,12.96-12.961,12.96
		c-7.158,0-12.962-5.803-12.962-12.96s5.804-12.961,12.962-12.961C1057.146,462.102,1062.95,467.905,1062.95,475.063"/>
	<path clip-path="url(#SVGID_2_)" fill="#FFFFFF" d="M1059.357,400.118c0,3.337-2.705,6.042-6.041,6.042
		c-3.337,0-6.042-2.705-6.042-6.042c0-3.336,2.705-6.041,6.042-6.041C1056.652,394.077,1059.357,396.782,1059.357,400.118"/>
	<path clip-path="url(#SVGID_2_)" fill="#FFFFFF" d="M1035.54,446.152c0,4.259-3.451,7.709-7.709,7.709
		c-4.259,0-7.709-3.45-7.709-7.709c0-4.258,3.45-7.709,7.709-7.709C1032.089,438.443,1035.54,441.895,1035.54,446.152"/>
	<path clip-path="url(#SVGID_2_)" fill="#FFFFFF" d="M1060.754,440.875c0,2.914-2.363,5.277-5.277,5.277
		c-2.915,0-5.279-2.363-5.279-5.277c0-2.915,2.364-5.276,5.279-5.276C1058.391,435.599,1060.754,437.96,1060.754,440.875"/>
	<path clip-path="url(#SVGID_2_)" fill="#FFFFFF" d="M1035.107,460.635c0,5.46-4.426,9.887-9.887,9.887
		c-5.46,0-9.885-4.427-9.885-9.887s4.425-9.886,9.885-9.886C1030.682,450.749,1035.107,455.175,1035.107,460.635"/>
	<path clip-path="url(#SVGID_2_)" fill="#FFFFFF" d="M1072.831,483.633c0,2.47-2.002,4.472-4.472,4.472
		c-2.469,0-4.471-2.002-4.471-4.472s2.002-4.471,4.471-4.471C1070.829,479.162,1072.831,481.163,1072.831,483.633"/>
	<path clip-path="url(#SVGID_2_)" fill="#FFFFFF" d="M1080.72,366.479c0,3.713-3.011,6.723-6.723,6.723
		c-3.713,0-6.721-3.01-6.721-6.723c0-3.712,3.008-6.722,6.721-6.722C1077.709,359.758,1080.72,362.768,1080.72,366.479"/>
	<path clip-path="url(#SVGID_2_)" fill="#FFFFFF" d="M1088.366,346.14c0,2.502-2.027,4.529-4.529,4.529
		c-2.501,0-4.53-2.027-4.53-4.529c0-2.501,2.029-4.528,4.53-4.528C1086.339,341.611,1088.366,343.639,1088.366,346.14"/>
	<path clip-path="url(#SVGID_2_)" fill="#FFFFFF" d="M1065.492,382.404c0,2.132-1.729,3.858-3.858,3.858
		c-2.131,0-3.858-1.727-3.858-3.858c0-2.131,1.728-3.856,3.858-3.856C1063.764,378.548,1065.492,380.273,1065.492,382.404"/>
	<path clip-path="url(#SVGID_2_)" fill="#FFFFFF" d="M1016.964,479.612c0,4.266-3.457,7.722-7.723,7.722
		c-4.263,0-7.72-3.456-7.72-7.722c0-4.265,3.457-7.722,7.72-7.722C1013.507,471.891,1016.964,475.348,1016.964,479.612"/>
	<path clip-path="url(#SVGID_2_)" fill="#FFFFFF" d="M1031.113,482.749c0,3.035-2.46,5.496-5.495,5.496s-5.496-2.461-5.496-5.496
		s2.461-5.495,5.496-5.495S1031.113,479.714,1031.113,482.749"/>
	<path clip-path="url(#SVGID_2_)" fill="#FFFFFF" d="M1046.809,421.18c0,3.429-2.779,6.207-6.207,6.207s-6.207-2.778-6.207-6.207
		c0-3.428,2.779-6.206,6.207-6.206S1046.809,417.752,1046.809,421.18"/>
	<path clip-path="url(#SVGID_2_)" fill="#FFFFFF" d="M1242.599,211.569c0,5.518-4.475,9.991-9.991,9.991
		c-5.52,0-9.991-4.473-9.991-9.991c0-5.518,4.472-9.991,9.991-9.991C1238.124,201.578,1242.599,206.051,1242.599,211.569"/>
	<path clip-path="url(#SVGID_2_)" fill="#FFFFFF" d="M1271.972,152.623c0,2.797-2.269,5.064-5.064,5.064
		c-2.797,0-5.063-2.267-5.063-5.064c0-2.797,2.267-5.064,5.063-5.064C1269.703,147.559,1271.972,149.826,1271.972,152.623"/>
	<path clip-path="url(#SVGID_2_)" fill="#FFFFFF" d="M1207.735,409.496c0.149-4.068,3.571-7.246,7.642-7.095
		c4.069,0.152,7.246,3.573,7.094,7.644c-0.15,4.068-3.571,7.244-7.641,7.095C1210.76,416.987,1207.584,413.565,1207.735,409.496"/>
	<path clip-path="url(#SVGID_2_)" fill="#FFFFFF" d="M1181.066,365.797c0-4.423,3.585-8.007,8.007-8.007s8.007,3.584,8.007,8.007
		s-3.585,8.008-8.007,8.008S1181.066,370.22,1181.066,365.797"/>
	<path clip-path="url(#SVGID_2_)" fill="#FFFFFF" d="M1203.727,354.934c0,4.857-3.938,8.795-8.794,8.795
		c-4.857,0-8.794-3.938-8.794-8.795c0-4.855,3.937-8.794,8.794-8.794C1199.788,346.14,1203.727,350.078,1203.727,354.934"/>
	<path clip-path="url(#SVGID_2_)" fill="#FFFFFF" d="M1198.799,357.094c0-4.502,3.649-8.15,8.151-8.15s8.153,3.648,8.153,8.15
		c0,4.503-3.651,8.152-8.153,8.152S1198.799,361.597,1198.799,357.094"/>
	<path clip-path="url(#SVGID_2_)" fill="#FFFFFF" d="M1221.299,409.253c0-3.987,3.231-7.221,7.221-7.221
		c3.987,0,7.219,3.233,7.219,7.221s-3.231,7.222-7.219,7.222C1224.53,416.475,1221.299,413.24,1221.299,409.253"/>
	<path clip-path="url(#SVGID_2_)" fill="#FFFFFF" d="M1194.795,390.512c0,2.898,2.35,5.249,5.249,5.249
		c2.898,0,5.249-2.351,5.249-5.249s-2.351-5.25-5.249-5.25C1197.145,385.262,1194.795,387.613,1194.795,390.512"/>
	<path clip-path="url(#SVGID_2_)" fill="#FFFFFF" d="M1230.519,389.371c0-3.848,3.118-6.967,6.966-6.967
		c3.847,0,6.967,3.119,6.967,6.967s-3.12,6.967-6.967,6.967C1233.637,396.338,1230.519,393.219,1230.519,389.371"/>
	<path clip-path="url(#SVGID_2_)" fill="#FFFFFF" d="M1258.158,359.96c0,7.634-6.188,13.819-13.82,13.819
		c-7.632,0-13.82-6.186-13.82-13.819c0-7.633,6.188-13.819,13.82-13.819C1251.971,346.141,1258.158,352.327,1258.158,359.96"/>
	<path clip-path="url(#SVGID_2_)" fill="#FFFFFF" d="M1232.558,277.68c0,3.785-3.068,6.854-6.854,6.854
		c-3.785,0-6.853-3.069-6.853-6.854c0-3.785,3.067-6.854,6.853-6.854C1229.489,270.826,1232.558,273.895,1232.558,277.68"/>
	<path clip-path="url(#SVGID_2_)" fill="#FFFFFF" d="M1266.893,344.687c0,3.427-2.777,6.203-6.203,6.203
		c-3.427,0-6.204-2.776-6.204-6.203s2.777-6.204,6.204-6.204C1264.115,338.482,1266.893,341.26,1266.893,344.687"/>
	<path clip-path="url(#SVGID_2_)" fill="#FFFFFF" d="M1257.226,363.556c0-5.646,4.577-10.224,10.225-10.224
		c5.646,0,10.224,4.578,10.224,10.224c0,5.646-4.577,10.225-10.224,10.225C1261.803,373.78,1257.226,369.202,1257.226,363.556"/>
	<path clip-path="url(#SVGID_2_)" fill="#FFFFFF" d="M1253.691,481.613c0-2.864,2.321-5.187,5.187-5.187
		c2.866,0,5.189,2.322,5.189,5.187c0,2.865-2.323,5.188-5.189,5.188C1256.013,486.801,1253.691,484.479,1253.691,481.613"/>
	<path clip-path="url(#SVGID_2_)" fill="#FFFFFF" d="M1272.29,378.31c0-3.273,2.653-5.929,5.929-5.929
		c3.273,0,5.928,2.655,5.928,5.929c0,3.274-2.654,5.931-5.928,5.931C1274.943,384.24,1272.29,381.584,1272.29,378.31"/>
	<path clip-path="url(#SVGID_2_)" fill="#FFFFFF" d="M1170.821,290.014c0-6.456,5.233-11.689,11.689-11.689
		s11.691,5.233,11.691,11.689c0,6.457-5.235,11.69-11.691,11.69S1170.821,296.471,1170.821,290.014"/>
	<path clip-path="url(#SVGID_2_)" fill="#FFFFFF" d="M1153.901,296.317c0,7.014-5.687,12.698-12.698,12.698
		c-7.014,0-12.698-5.685-12.698-12.698s5.685-12.697,12.698-12.697C1148.215,283.62,1153.901,289.304,1153.901,296.317"/>
	<path clip-path="url(#SVGID_2_)" fill="#FFFFFF" d="M1129.479,227.573c0,6.751-5.474,12.224-12.225,12.224
		s-12.223-5.473-12.223-12.224s5.472-12.223,12.223-12.223S1129.479,220.822,1129.479,227.573"/>
	<path clip-path="url(#SVGID_2_)" fill="#FFFFFF" d="M1199.173,151.729c0-3.303,2.678-5.981,5.98-5.981
		c3.304,0,5.982,2.678,5.982,5.981c0,3.304-2.679,5.981-5.982,5.981C1201.851,157.71,1199.173,155.033,1199.173,151.729"/>
	<path clip-path="url(#SVGID_2_)" fill="#FFFFFF" d="M1205.773,174.397c0-3.199,2.593-5.792,5.792-5.792
		c3.198,0,5.792,2.593,5.792,5.792c0,3.199-2.594,5.792-5.792,5.792C1208.366,180.189,1205.773,177.596,1205.773,174.397"/>
	<path clip-path="url(#SVGID_2_)" fill="#FFFFFF" d="M1199.713,197.417c0-3.433,2.783-6.215,6.216-6.215
		c3.432,0,6.216,2.782,6.216,6.215s-2.784,6.216-6.216,6.216C1202.496,203.632,1199.713,200.85,1199.713,197.417"/>
	<path clip-path="url(#SVGID_2_)" fill="#FFFFFF" d="M1209.498,218.247c0,4.309-3.493,7.802-7.803,7.802
		c-4.308,0-7.802-3.493-7.802-7.802s3.494-7.802,7.802-7.802C1206.005,210.444,1209.498,213.938,1209.498,218.247"/>
	<path clip-path="url(#SVGID_2_)" fill="#FFFFFF" d="M1195.884,234.335c0-5.536,4.486-10.023,10.022-10.023
		s10.024,4.487,10.024,10.023s-4.488,10.023-10.024,10.023S1195.884,239.871,1195.884,234.335"/>
	<path clip-path="url(#SVGID_2_)" fill="#FFFFFF" d="M1210.022,257.827c0-6.314,5.118-11.434,11.434-11.434
		c6.314,0,11.433,5.12,11.433,11.434s-5.118,11.434-11.433,11.434C1215.141,269.261,1210.022,264.141,1210.022,257.827"/>
	<path clip-path="url(#SVGID_2_)" fill="#FFFFFF" d="M1127.202,332.806c0,7.776-6.306,14.082-14.082,14.082
		s-14.081-6.306-14.081-14.082s6.305-14.082,14.081-14.082S1127.202,325.029,1127.202,332.806"/>
	<path clip-path="url(#SVGID_2_)" fill="#FFFFFF" d="M1107.301,394.077c0,2.601-2.107,4.706-4.707,4.706s-4.706-2.105-4.706-4.706
		c0-2.6,2.106-4.706,4.706-4.706S1107.301,391.478,1107.301,394.077"/>
	<path clip-path="url(#SVGID_2_)" fill="#FFFFFF" d="M1123.254,376.13c0,4.12-3.34,7.46-7.46,7.46s-7.46-3.34-7.46-7.46
		c0-4.119,3.34-7.461,7.46-7.461S1123.254,372.011,1123.254,376.13"/>
	<path clip-path="url(#SVGID_2_)" fill="#FFFFFF" d="M1217.449,340.363c0,3.79-3.071,6.862-6.861,6.862
		c-3.789,0-6.862-3.072-6.862-6.862c0-3.789,3.073-6.86,6.862-6.86C1214.378,333.503,1217.449,336.574,1217.449,340.363"/>
	<path clip-path="url(#SVGID_2_)" fill="#FFFFFF" d="M1226.097,388.037c0,3.789-3.072,6.861-6.861,6.861
		c-3.79,0-6.862-3.072-6.862-6.861c0-3.79,3.072-6.86,6.862-6.86C1223.024,381.177,1226.097,384.247,1226.097,388.037"/>
	<path clip-path="url(#SVGID_2_)" fill="#FFFFFF" d="M1155.028,258.953c0,4.129-3.348,7.477-7.477,7.477
		c-4.128,0-7.476-3.348-7.476-7.477c0-4.129,3.348-7.476,7.476-7.476C1151.681,251.477,1155.028,254.824,1155.028,258.953"/>
	<path clip-path="url(#SVGID_2_)" fill="#FFFFFF" d="M1103.737,158.754c0,2.421-1.963,4.384-4.384,4.384
		c-2.423,0-4.386-1.963-4.386-4.384s1.963-4.384,4.386-4.384C1101.774,154.37,1103.737,156.333,1103.737,158.754"/>
	<path clip-path="url(#SVGID_2_)" fill="#FFFFFF" d="M1084.104,119.53c0,6.448-5.228,11.674-11.675,11.674
		s-11.675-5.226-11.675-11.674c0-6.448,5.228-11.675,11.675-11.675S1084.104,113.082,1084.104,119.53"/>
	<path clip-path="url(#SVGID_2_)" fill="#FFFFFF" d="M1129.688,187.604c0,3.585-2.906,6.492-6.492,6.492
		c-3.585,0-6.491-2.907-6.491-6.492s2.906-6.492,6.491-6.492C1126.781,181.111,1129.688,184.019,1129.688,187.604"/>
	<path clip-path="url(#SVGID_2_)" fill="#FFFFFF" d="M1246.478,105.019c0,5.033-4.08,9.113-9.113,9.113s-9.114-4.08-9.114-9.113
		c0-5.033,4.081-9.113,9.114-9.113S1246.478,99.986,1246.478,105.019"/>
	<path clip-path="url(#SVGID_2_)" fill="#FFFFFF" d="M1357.843,68.819c0,4.228-3.427,7.656-7.655,7.656s-7.656-3.428-7.656-7.656
		s3.428-7.656,7.656-7.656S1357.843,64.591,1357.843,68.819"/>
	<path clip-path="url(#SVGID_2_)" fill="#FFFFFF" d="M1300.413,110.301c0,2.265-1.836,4.101-4.103,4.101
		c-2.264,0-4.1-1.836-4.1-4.101s1.836-4.101,4.1-4.101C1298.577,106.2,1300.413,108.036,1300.413,110.301"/>
	<path clip-path="url(#SVGID_2_)" fill="#FFFFFF" d="M1321.106,87.604c0,3.034-2.459,5.493-5.493,5.493s-5.493-2.459-5.493-5.493
		c0-3.034,2.459-5.494,5.493-5.494S1321.106,84.569,1321.106,87.604"/>
	<path clip-path="url(#SVGID_2_)" fill="#FFFFFF" d="M1337.887,74.039c0,2.865-2.322,5.187-5.188,5.187
		c-2.866,0-5.188-2.322-5.188-5.187c0-2.865,2.321-5.187,5.188-5.187C1335.564,68.852,1337.887,71.174,1337.887,74.039"/>
	<path clip-path="url(#SVGID_2_)" fill="#FFFFFF" d="M1340.383,98.295c0,7.109-5.764,12.872-12.871,12.872
		c-7.108,0-12.871-5.763-12.871-12.872c0-7.108,5.763-12.871,12.871-12.871C1334.619,85.424,1340.383,91.187,1340.383,98.295"/>
	<path clip-path="url(#SVGID_2_)" fill="#FFFFFF" d="M1267.334,67.205c0,3.716-3.013,6.728-6.729,6.728
		c-3.715,0-6.727-3.012-6.727-6.728c0-3.715,3.012-6.728,6.727-6.728C1264.321,60.477,1267.334,63.489,1267.334,67.205"/>
	<path clip-path="url(#SVGID_2_)" fill="#FFFFFF" d="M1302.53,75.391c0,6.745-5.468,12.213-12.213,12.213
		s-12.214-5.468-12.214-12.213c0-6.745,5.469-12.213,12.214-12.213S1302.53,68.646,1302.53,75.391"/>
	<path clip-path="url(#SVGID_2_)" fill="#FFFFFF" d="M1287.287,149.497c0-6.062,4.914-10.976,10.976-10.976
		s10.974,4.914,10.974,10.976c0,6.061-4.912,10.975-10.974,10.975S1287.287,155.558,1287.287,149.497"/>
	<path clip-path="url(#SVGID_2_)" fill="#FFFFFF" d="M1269.467,84.458c0-2.713,2.199-4.912,4.912-4.912
		c2.712,0,4.91,2.199,4.91,4.912c0,2.712-2.198,4.912-4.91,4.912C1271.666,89.37,1269.467,87.17,1269.467,84.458"/>
	<path clip-path="url(#SVGID_2_)" fill="#FFFFFF" d="M1242.46,82.11c0-4.289,3.477-7.766,7.766-7.766s7.765,3.477,7.765,7.766
		s-3.476,7.766-7.765,7.766S1242.46,86.399,1242.46,82.11"/>
	<path clip-path="url(#SVGID_2_)" fill="#FFFFFF" d="M1257.403,95.252c0-5.961,4.833-10.794,10.795-10.794
		c5.961,0,10.794,4.833,10.794,10.794c0,5.962-4.833,10.794-10.794,10.794C1262.236,106.046,1257.403,101.214,1257.403,95.252"/>
	<path clip-path="url(#SVGID_2_)" fill="#FFFFFF" d="M1255.208,97.83c0,2.347-1.902,4.249-4.249,4.249
		c-2.348,0-4.249-1.902-4.249-4.249c0-2.347,1.901-4.249,4.249-4.249C1253.306,93.581,1255.208,95.482,1255.208,97.83"/>
	<path clip-path="url(#SVGID_2_)" fill="#FFFFFF" d="M1238.857,105.792c0-2.815,2.283-5.098,5.099-5.098s5.097,2.283,5.097,5.098
		s-2.281,5.098-5.097,5.098S1238.857,108.606,1238.857,105.792"/>
	<path clip-path="url(#SVGID_2_)" fill="#FFFFFF" d="M1284.227,103.411c0,3.082-2.498,5.581-5.581,5.581
		c-3.082,0-5.58-2.499-5.58-5.581c0-3.083,2.498-5.581,5.58-5.581C1281.729,97.83,1284.227,100.328,1284.227,103.411"/>
	<path clip-path="url(#SVGID_2_)" fill="#FFFFFF" d="M1078.833,92.758c0,3.082-2.499,5.581-5.581,5.581s-5.581-2.499-5.581-5.581
		c0-3.083,2.499-5.581,5.581-5.581S1078.833,89.675,1078.833,92.758"/>
	<path clip-path="url(#SVGID_2_)" fill="#FFFFFF" d="M1310.12,107.999c0,3.274-2.654,5.929-5.93,5.929
		c-3.273,0-5.928-2.655-5.928-5.929s2.654-5.929,5.928-5.929C1307.466,102.069,1310.12,104.725,1310.12,107.999"/>
	<path clip-path="url(#SVGID_2_)" fill="#FFFFFF" d="M1301.286,125.262c0-2.906,2.354-5.262,5.262-5.262
		c2.906,0,5.262,2.356,5.262,5.262c0,2.906-2.355,5.262-5.262,5.262C1303.641,130.524,1301.286,128.168,1301.286,125.262"/>
	<path clip-path="url(#SVGID_2_)" fill="#FFFFFF" d="M1310.483,71.337c0-1.681,1.361-3.042,3.043-3.042
		c1.68,0,3.042,1.361,3.042,3.042c0,1.68-1.362,3.042-3.042,3.042C1311.845,74.379,1310.483,73.017,1310.483,71.337"/>
	<path clip-path="url(#SVGID_2_)" fill="#FFFFFF" d="M1306.731,73.607c-3.589,0-6.497-2.909-6.497-6.497s2.908-6.497,6.497-6.497
		c3.588,0,6.497,2.909,6.497,6.497S1310.319,73.607,1306.731,73.607"/>
	<path clip-path="url(#SVGID_2_)" fill="#FFFFFF" d="M1292.244,135.983c0-2.071,1.679-3.75,3.75-3.75c2.07,0,3.751,1.679,3.751,3.75
		c0,2.071-1.681,3.75-3.751,3.75C1293.923,139.733,1292.244,138.054,1292.244,135.983"/>
	<path clip-path="url(#SVGID_2_)" fill="#FFFFFF" d="M1275.157,127.987c0-3.113,2.522-5.636,5.636-5.636
		c3.112,0,5.635,2.523,5.635,5.636c0,3.112-2.522,5.635-5.635,5.635C1277.68,133.622,1275.157,131.099,1275.157,127.987"/>
	<path clip-path="url(#SVGID_2_)" fill="#FFFFFF" d="M1247.683,132.137c0-8.852,7.176-16.028,16.027-16.028
		c8.854,0,16.029,7.176,16.029,16.028c0,8.853-7.176,16.029-16.029,16.029C1254.858,148.166,1247.683,140.99,1247.683,132.137"/>
	<path clip-path="url(#SVGID_2_)" fill="#FFFFFF" d="M1295.076,94.264c0,2.226-1.806,4.031-4.031,4.031
		c-2.227,0-4.032-1.805-4.032-4.031c0-2.227,1.806-4.031,4.032-4.031C1293.271,90.233,1295.076,92.037,1295.076,94.264"/>
	<path clip-path="url(#SVGID_2_)" fill="#FFFFFF" d="M1256.374,130.675c0,6.749-5.472,12.219-12.221,12.219
		c-6.747,0-12.218-5.47-12.218-12.219s5.471-12.219,12.218-12.219C1250.902,118.456,1256.374,123.926,1256.374,130.675"/>
	<path clip-path="url(#SVGID_2_)" fill="#FFFFFF" d="M1276.989,146.271c0-1.781,1.443-3.226,3.226-3.226
		c1.781,0,3.225,1.445,3.225,3.226c0,1.782-1.443,3.226-3.225,3.226C1278.433,149.497,1276.989,148.053,1276.989,146.271"/>
	<path clip-path="url(#SVGID_2_)" fill="#FFFFFF" d="M1286.587,174.998c0-2.462,1.996-4.458,4.458-4.458s4.457,1.996,4.457,4.458
		s-1.995,4.458-4.457,4.458S1286.587,177.459,1286.587,174.998"/>
	<path clip-path="url(#SVGID_2_)" fill="#FFFFFF" d="M1269.487,180.189c0-3.839,3.111-6.952,6.95-6.952
		c3.841,0,6.952,3.113,6.952,6.952c0,3.839-3.111,6.952-6.952,6.952C1272.599,187.141,1269.487,184.028,1269.487,180.189"/>
	<path clip-path="url(#SVGID_2_)" fill="#FFFFFF" d="M1278.108,164.708c0,2.386-1.936,4.321-4.321,4.321s-4.321-1.935-4.321-4.321
		c0-2.386,1.936-4.321,4.321-4.321S1278.108,162.321,1278.108,164.708"/>
	<path clip-path="url(#SVGID_2_)" fill="#FFFFFF" d="M1325.428,122.352c0,2.386-1.936,4.321-4.321,4.321s-4.321-1.935-4.321-4.321
		c0-2.386,1.936-4.321,4.321-4.321S1325.428,119.965,1325.428,122.352"/>
	<path clip-path="url(#SVGID_2_)" fill="#FFFFFF" d="M1266.907,168.714c0,2.625-2.127,4.752-4.752,4.752
		c-2.624,0-4.752-2.127-4.752-4.752s2.128-4.752,4.752-4.752C1264.78,163.962,1266.907,166.089,1266.907,168.714"/>
	<path clip-path="url(#SVGID_2_)" fill="#FFFFFF" d="M1280.607,199.577c0,2.706-2.193,4.9-4.899,4.9s-4.901-2.194-4.901-4.9
		s2.195-4.9,4.901-4.9S1280.607,196.871,1280.607,199.577"/>
	<path clip-path="url(#SVGID_2_)" fill="#FFFFFF" d="M1245.111,231.111c0,2.707-2.194,4.9-4.9,4.9s-4.9-2.193-4.9-4.9
		c0-2.706,2.194-4.9,4.9-4.9S1245.111,228.405,1245.111,231.111"/>
	<path clip-path="url(#SVGID_2_)" fill="#FFFFFF" d="M1241.05,185.986c0,3.983-3.229,7.212-7.212,7.212
		c-3.983,0-7.213-3.229-7.213-7.212c0-3.983,3.229-7.212,7.213-7.212C1237.82,178.774,1241.05,182.003,1241.05,185.986"/>
	<path clip-path="url(#SVGID_2_)" fill="#FFFFFF" d="M1255.981,183.797c0,5.192-4.208,9.401-9.4,9.401s-9.401-4.209-9.401-9.401
		c0-5.191,4.209-9.4,9.401-9.4S1255.981,178.606,1255.981,183.797"/>
	<path clip-path="url(#SVGID_2_)" fill="#FFFFFF" d="M1268.817,210.445c0,6.304-5.11,11.415-11.414,11.415
		s-11.414-5.111-11.414-11.415c0-6.304,5.11-11.414,11.414-11.414S1268.817,204.141,1268.817,210.445"/>
	<path clip-path="url(#SVGID_2_)" fill="#FFFFFF" d="M1255.208,193.358c0,2.347-1.902,4.249-4.249,4.249
		c-2.348,0-4.249-1.902-4.249-4.249c0-2.347,1.901-4.249,4.249-4.249C1253.306,189.109,1255.208,191.011,1255.208,193.358"/>
	<path clip-path="url(#SVGID_2_)" fill="#FFFFFF" d="M1265.495,224.312c0,3.138-2.544,5.682-5.683,5.682
		c-3.137,0-5.681-2.544-5.681-5.682c0-3.138,2.544-5.682,5.681-5.682C1262.951,218.629,1265.495,221.173,1265.495,224.312"/>
	<path clip-path="url(#SVGID_2_)" fill="#FFFFFF" d="M1253.367,243.375c0,5.962-4.833,10.795-10.795,10.795
		c-5.963,0-10.797-4.833-10.797-10.795s4.834-10.795,10.797-10.795C1248.534,232.58,1253.367,237.413,1253.367,243.375"/>
	<path clip-path="url(#SVGID_2_)" fill="#FFFFFF" d="M1237.534,307.885c0,2.489-2.02,4.508-4.509,4.508
		c-2.488,0-4.507-2.019-4.507-4.508s2.019-4.508,4.507-4.508C1235.515,303.377,1237.534,305.396,1237.534,307.885"/>
	<path clip-path="url(#SVGID_2_)" fill="#FFFFFF" d="M1244.209,261.671c0,2.489-2.019,4.507-4.508,4.507s-4.508-2.018-4.508-4.507
		c0-2.489,2.019-4.507,4.508-4.507S1244.209,259.182,1244.209,261.671"/>
	<path clip-path="url(#SVGID_2_)" fill="#FFFFFF" d="M1271.909,388.955c0,6.894-5.587,12.479-12.479,12.479
		s-12.479-5.586-12.479-12.479c0-6.892,5.587-12.479,12.479-12.479S1271.909,382.063,1271.909,388.955"/>
	<path clip-path="url(#SVGID_2_)" fill="#FFFFFF" d="M1246.95,418.856c0,5.019-4.068,9.086-9.087,9.086
		c-5.018,0-9.086-4.067-9.086-9.086s4.068-9.087,9.086-9.087C1242.882,409.77,1246.95,413.838,1246.95,418.856"/>
	<path clip-path="url(#SVGID_2_)" fill="#FFFFFF" d="M1229.201,430.273c0,2.513-2.037,4.549-4.549,4.549
		c-2.513,0-4.549-2.036-4.549-4.549c0-2.512,2.036-4.548,4.549-4.548C1227.164,425.726,1229.201,427.762,1229.201,430.273"/>
	<path clip-path="url(#SVGID_2_)" fill="#FFFFFF" d="M1242.672,438.087c0,2.817-2.283,5.102-5.102,5.102
		c-2.816,0-5.101-2.284-5.101-5.102c0-2.816,2.284-5.102,5.101-5.102C1240.389,432.985,1242.672,435.271,1242.672,438.087"/>
	<path clip-path="url(#SVGID_2_)" fill="#FFFFFF" d="M1258.328,442.663c0,2.527-2.049,4.576-4.576,4.576
		c-2.528,0-4.576-2.049-4.576-4.576c0-2.526,2.048-4.575,4.576-4.575C1256.279,438.088,1258.328,440.137,1258.328,442.663"/>
	<path clip-path="url(#SVGID_2_)" fill="#FFFFFF" d="M1262.865,424.785c0,3.031-2.458,5.488-5.489,5.488
		c-3.032,0-5.489-2.457-5.489-5.488c0-3.03,2.457-5.488,5.489-5.488C1260.407,419.297,1262.865,421.755,1262.865,424.785"/>
	<path clip-path="url(#SVGID_2_)" fill="#FFFFFF" d="M1256.525,406.935c0,2.645-2.145,4.788-4.788,4.788
		c-2.645,0-4.787-2.144-4.787-4.788s2.143-4.788,4.787-4.788C1254.381,402.146,1256.525,404.29,1256.525,406.935"/>
	<path clip-path="url(#SVGID_2_)" fill="#FFFFFF" d="M1270.834,412.857c0,2.201-1.784,3.985-3.984,3.985
		c-2.202,0-3.985-1.784-3.985-3.985c0-2.199,1.783-3.983,3.985-3.983C1269.05,408.874,1270.834,410.658,1270.834,412.857"/>
	<path clip-path="url(#SVGID_2_)" fill="#FFFFFF" d="M1280.469,428.455c0,2.66-2.157,4.817-4.817,4.817
		c-2.661,0-4.817-2.157-4.817-4.817c0-2.659,2.156-4.816,4.817-4.816C1278.312,423.639,1280.469,425.796,1280.469,428.455"/>
	<path clip-path="url(#SVGID_2_)" fill="#FFFFFF" d="M1273.465,409.77c0-2.625,2.129-4.754,4.754-4.754
		c2.626,0,4.754,2.129,4.754,4.754c0,2.626-2.128,4.754-4.754,4.754C1275.594,414.523,1273.465,412.396,1273.465,409.77"/>
	<path clip-path="url(#SVGID_2_)" fill="#FFFFFF" d="M1282.963,394.077c0-2.6,2.106-4.706,4.707-4.706
		c2.599,0,4.706,2.106,4.706,4.706c0,2.601-2.107,4.706-4.706,4.706C1285.069,398.783,1282.963,396.678,1282.963,394.077"/>
	<path clip-path="url(#SVGID_2_)" fill="#FFFFFF" d="M1203.69,201.791c0,5.848-4.741,10.589-10.591,10.589
		c-5.847,0-10.589-4.741-10.589-10.589c0-5.849,4.742-10.589,10.589-10.589C1198.949,191.201,1203.69,195.941,1203.69,201.791"/>
	<path clip-path="url(#SVGID_2_)" fill="#FFFFFF" d="M1272.43,334.918c0,5.276-4.276,9.555-9.554,9.555
		c-5.274,0-9.552-4.278-9.552-9.555c0-5.274,4.277-9.553,9.552-9.553C1268.153,325.365,1272.43,329.644,1272.43,334.918"/>
	<path clip-path="url(#SVGID_2_)" fill="#FFFFFF" d="M1111.576,99.491c0,3.809-3.088,6.897-6.897,6.897s-6.897-3.088-6.897-6.897
		c0-3.81,3.088-6.897,6.897-6.897S1111.576,95.681,1111.576,99.491"/>
	<path clip-path="url(#SVGID_2_)" fill="#FFFFFF" d="M1306.576,420.72c0,1.715-1.391,3.104-3.104,3.104
		c-1.715,0-3.104-1.39-3.104-3.104s1.39-3.104,3.104-3.104C1305.186,417.615,1306.576,419.005,1306.576,420.72"/>
	<path clip-path="url(#SVGID_2_)" fill="#FFFFFF" d="M1302.175,423.638c0,2.501-2.027,4.528-4.528,4.528s-4.529-2.027-4.529-4.528
		c0-2.5,2.028-4.526,4.529-4.526S1302.175,421.138,1302.175,423.638"/>
	<path clip-path="url(#SVGID_2_)" fill="#FFFFFF" d="M1299.207,407.523c0,3.148-2.554,5.701-5.702,5.701
		c-3.149,0-5.701-2.553-5.701-5.701s2.552-5.702,5.701-5.702C1296.653,401.821,1299.207,404.375,1299.207,407.523"/>
	<path clip-path="url(#SVGID_2_)" fill="#FFFFFF" d="M1315.136,439.308c0,3.78-3.064,6.846-6.845,6.846
		c-3.779,0-6.844-3.065-6.844-6.846c0-3.778,3.064-6.844,6.844-6.844C1312.071,432.464,1315.136,435.529,1315.136,439.308"/>
	<path clip-path="url(#SVGID_2_)" fill="#FFFFFF" d="M1331.792,475.985c0,1.525-1.236,2.763-2.763,2.763
		c-1.524,0-2.761-1.237-2.761-2.763c0-1.524,1.236-2.762,2.761-2.762C1330.556,473.224,1331.792,474.461,1331.792,475.985"/>
	<path clip-path="url(#SVGID_2_)" fill="#FFFFFF" d="M1341.168,483.633c0,2.033-1.648,3.683-3.683,3.683s-3.682-1.649-3.682-3.683
		c0-2.032,1.647-3.682,3.682-3.682S1341.168,481.601,1341.168,483.633"/>
	<path clip-path="url(#SVGID_2_)" fill="#FFFFFF" d="M1344.685,456.59c0,6.01-4.871,10.88-10.882,10.88
		c-6.009,0-10.88-4.87-10.88-10.88s4.871-10.881,10.88-10.881C1339.813,445.709,1344.685,450.58,1344.685,456.59"/>
	<path clip-path="url(#SVGID_2_)" fill="#FFFFFF" d="M1327.979,427.914c0,4.863-3.941,8.806-8.806,8.806
		c-4.861,0-8.803-3.942-8.803-8.806c0-4.861,3.941-8.804,8.803-8.804C1324.038,419.11,1327.979,423.053,1327.979,427.914"/>
	<path clip-path="url(#SVGID_2_)" fill="#FFFFFF" d="M1318.465,479.022c0,5.057-4.1,9.154-9.155,9.154s-9.155-4.098-9.155-9.154
		s4.1-9.153,9.155-9.153S1318.465,473.966,1318.465,479.022"/>
	<path clip-path="url(#SVGID_2_)" fill="#FFFFFF" d="M1299.448,458.749c0,1.978-1.604,3.578-3.578,3.578
		c-1.978,0-3.578-1.601-3.578-3.578c0-1.976,1.601-3.578,3.578-3.578C1297.845,455.171,1299.448,456.773,1299.448,458.749"/>
	<path clip-path="url(#SVGID_2_)" fill="#FFFFFF" d="M1314.82,405.016c0,4.654-3.772,8.429-8.428,8.429
		c-4.653,0-8.427-3.774-8.427-8.429c0-4.653,3.773-8.427,8.427-8.427C1311.048,396.589,1314.82,400.362,1314.82,405.016"/>
	<path clip-path="url(#SVGID_2_)" fill="#FFFFFF" d="M1274.153,451.563c0,10.103-8.189,18.291-18.291,18.291
		c-10.103,0-18.291-8.188-18.291-18.291c0-10.102,8.188-18.291,18.291-18.291C1265.964,433.272,1274.153,441.462,1274.153,451.563"
		/>
	<path clip-path="url(#SVGID_2_)" fill="#FFFFFF" d="M1352.572,470.858c0,2.383-1.932,4.313-4.313,4.313s-4.313-1.93-4.313-4.313
		c0-2.382,1.931-4.312,4.313-4.312S1352.572,468.477,1352.572,470.858"/>
	<path clip-path="url(#SVGID_2_)" fill="#FFFFFF" d="M1271.496,468.225c0,2.379-1.93,4.309-4.309,4.309s-4.306-1.93-4.306-4.309
		s1.927-4.308,4.306-4.308S1271.496,465.846,1271.496,468.225"/>
	<path clip-path="url(#SVGID_2_)" fill="#FFFFFF" d="M1269.5,439.745c0,2.732-2.215,4.947-4.947,4.947
		c-2.733,0-4.949-2.215-4.949-4.947c0-2.731,2.216-4.947,4.949-4.947C1267.285,434.798,1269.5,437.014,1269.5,439.745"/>
	<path clip-path="url(#SVGID_2_)" fill="#FFFFFF" d="M1357.52,482.347c0,2.732-2.215,4.948-4.947,4.948
		c-2.733,0-4.949-2.216-4.949-4.948c0-2.731,2.216-4.946,4.949-4.946C1355.305,477.4,1357.52,479.615,1357.52,482.347"/>
	<path clip-path="url(#SVGID_2_)" fill="#FFFFFF" d="M1282.396,447.325c0,2.128-1.727,3.854-3.854,3.854s-3.854-1.727-3.854-3.854
		c0-2.129,1.726-3.854,3.854-3.854S1282.396,445.196,1282.396,447.325"/>
	<path clip-path="url(#SVGID_2_)" fill="#FFFFFF" d="M1296.623,430.818c0,4.222-3.421,7.643-7.643,7.643
		c-4.219,0-7.641-3.421-7.641-7.643c0-4.22,3.422-7.641,7.641-7.641C1293.202,423.178,1296.623,426.599,1296.623,430.818"/>
	<path clip-path="url(#SVGID_2_)" fill="#FFFFFF" d="M1297.646,439.745c0,2.732-2.217,4.947-4.948,4.947
		c-2.733,0-4.948-2.215-4.948-4.947c0-2.731,2.215-4.947,4.948-4.947C1295.43,434.798,1297.646,437.014,1297.646,439.745"/>
	<path clip-path="url(#SVGID_2_)" fill="#FFFFFF" d="M1225.3,398.057c2.079,1.882,2.238,5.094,0.356,7.172
		c-1.881,2.079-5.092,2.239-7.171,0.357c-2.08-1.882-2.24-5.092-0.358-7.172C1220.01,396.335,1223.221,396.175,1225.3,398.057"/>
	<path clip-path="url(#SVGID_2_)" fill="#FFFFFF" d="M1295.87,374.663c0,4.521-3.664,8.185-8.185,8.185
		c-4.519,0-8.183-3.664-8.183-8.185c0-4.52,3.664-8.184,8.183-8.184C1292.206,366.479,1295.87,370.144,1295.87,374.663"/>
	<path clip-path="url(#SVGID_2_)" fill="#FFFFFF" d="M1236.457,294.488c0-3.472,2.813-6.284,6.285-6.284s6.285,2.813,6.285,6.284
		c0,3.473-2.813,6.285-6.285,6.285S1236.457,297.961,1236.457,294.488"/>
	<path clip-path="url(#SVGID_2_)" fill="#FFFFFF" d="M1272.62,484.366c0,1.825-1.479,3.305-3.305,3.305
		c-1.823,0-3.303-1.479-3.303-3.305c0-1.823,1.479-3.304,3.303-3.304C1271.141,481.063,1272.62,482.543,1272.62,484.366"/>
	<path clip-path="url(#SVGID_2_)" fill="#FFFFFF" d="M1238.579,372.084c0-1.959,1.588-3.548,3.548-3.548
		c1.959,0,3.548,1.589,3.548,3.548c0,1.96-1.589,3.549-3.548,3.549C1240.167,375.633,1238.579,374.044,1238.579,372.084"/>
	<path clip-path="url(#SVGID_2_)" fill="#FFFFFF" d="M1319.389,483.633c0-2.286,1.853-4.14,4.139-4.14s4.139,1.854,4.139,4.14
		s-1.853,4.14-4.139,4.14S1319.389,485.919,1319.389,483.633"/>
	<path clip-path="url(#SVGID_2_)" fill="#FFFFFF" d="M1300.939,465.007c0-6.015,4.876-10.891,10.891-10.891
		c6.014,0,10.89,4.876,10.89,10.891c0,6.017-4.876,10.893-10.89,10.893C1305.815,475.899,1300.939,471.023,1300.939,465.007"/>
	<path clip-path="url(#SVGID_2_)" fill="#FFFFFF" d="M1321.805,452.104c0,2.642-2.141,4.78-4.779,4.78
		c-2.641,0-4.781-2.139-4.781-4.78c0-2.64,2.141-4.778,4.781-4.778C1319.664,447.326,1321.805,449.465,1321.805,452.104"/>
	<path clip-path="url(#SVGID_2_)" fill="#FFFFFF" d="M1302.629,473.574c0,8.188-6.639,14.826-14.825,14.826
		c-8.189,0-14.826-6.638-14.826-14.826c0-8.188,6.637-14.824,14.826-14.824C1295.99,458.75,1302.629,465.387,1302.629,473.574"/>
	<path clip-path="url(#SVGID_2_)" fill="#FFFFFF" d="M1011.356,289.246H907.862c-1.258,0-2.286-1.027-2.286-2.285v-43.788
		c0-1.257,1.028-2.286,2.286-2.286h103.494c1.258,0,2.286,1.029,2.286,2.286v43.788
		C1013.643,288.219,1012.614,289.246,1011.356,289.246"/>
	<path clip-path="url(#SVGID_2_)" fill="#FFFFFF" d="M899.153,184.649h118.568c2.385,0,3.583-1.194,3.583-3.583v-39.404
		c0-2.384-1.557-3.583-4.656-3.583H895.212c-16.719,0-29.497,5.078-38.33,15.224c-8.837,10.154-13.253,23.347-13.253,39.584v164.421
		c0,4.541,1.012,9.016,3.045,13.432c2.025,4.424,4.712,8.419,8.059,12.002c3.344,3.583,7.166,6.509,11.465,8.776
		c4.3,2.272,8.596,3.402,12.895,3.402h138.63c2.385,0,3.583-1.19,3.583-3.583v-39.4c0-2.388-1.198-3.583-3.583-3.583H899.153
		c-2.392,0-3.583-1.193-3.583-3.583v-51.942c0-0.173,0.053-0.294,0.063-0.453v-54.617c-0.011-0.161-0.063-0.281-0.063-0.454v-48.718
		C895.57,185.963,896.762,184.649,899.153,184.649"/>
	<path clip-path="url(#SVGID_2_)" fill="#FFFFFF" d="M333.002,390.084c-1.314-1.55-2.209-3.278-2.687-5.191l-19.7-60.54
		c-1.915-5.73-4.003-11.284-6.269-16.658c-2.272-5.371-6.151-11.64-11.642-18.806c-0.241-0.476-0.358-0.95-0.358-1.434
		c0-0.717,0.179-1.308,0.538-1.789c0.358-0.477,0.654-0.836,0.895-1.074c6.205-3.342,11.104-6.986,14.687-10.928
		c3.58-3.941,7.041-8.295,10.387-13.074c5.016-9.549,7.524-24.835,7.524-45.851v-8.24c-0.717-22.686-6.449-39.639-17.195-50.867
		c-6.215-6.446-12.539-10.982-18.985-13.612c-6.45-2.625-13.02-3.941-19.703-3.941H137.238c-2.391,0-3.583,1.199-3.583,3.583
		v249.676c0,2.393,1.192,3.583,3.583,3.583h44.776c2.386,0,3.583-1.19,3.583-3.583v-87.764c0-2.382,1.191-3.58,3.583-3.58h43.701
		c10.265,1.435,17.072,8.838,20.419,22.208l22.21,62.69c0.475,1.672,1.55,3.759,3.222,6.267c1.669,2.508,3.224,3.762,4.657,3.762
		h49.434c1.433,0,2.15-0.592,2.15-1.791C334.974,392.654,334.313,391.643,333.002,390.084 M273.182,232.65
		c-1.792,5.496-4.361,9.67-7.703,12.537c-4.063,3.346-7.762,5.016-11.104,5.016h-64.836c-2.632,0-3.941-1.195-3.941-3.583v-58.39
		c0-2.384,1.191-3.581,3.583-3.581h70.21c5.25,0.717,9.788,5.014,13.612,12.896c1.192,2.388,1.971,4.958,2.329,7.7
		c0.358,2.749,0.537,5.794,0.537,9.135C275.868,221.068,274.974,227.159,273.182,232.65"/>
	<path clip-path="url(#SVGID_2_)" fill="#FFFFFF" d="M521.957,159.214c-2.866-9.312-8.183-15.161-15.943-17.552
		c-7.762-2.384-18.445-3.583-32.06-3.583c-13.136,0-23.524,1.199-31.164,3.583c-7.646,2.391-12.896,8.24-15.761,17.552
		l-72.717,233.558c0,1.432,0.95,2.148,2.864,2.148h46.57c2.383,0,3.938-1.19,4.655-3.583l18.985-61.254
		c0.717-2.625,2.267-3.939,4.658-3.939h84.181c2.384,0,3.941,1.198,4.658,3.582l18.983,61.97c0.716,2.15,2.269,3.225,4.657,3.225
		h46.926c1.669,0,2.508-0.717,2.508-2.148L521.957,159.214z M500.822,277.068h-53.375c-1.913,0-2.866-0.833-2.866-2.508
		c0-0.234,0.057-0.476,0.179-0.717c0.117-0.233,0.179-0.592,0.179-1.074l25.077-81.673c1.433-4.299,2.742-6.447,3.938-6.447
		c1.194,0,2.028,0.418,2.508,1.252c0.475,0.841,1.075,2.57,1.791,5.195l25.077,81.673c0,0.482,0.055,0.841,0.179,1.074
		c0.117,0.242,0.179,0.483,0.179,0.717C503.688,276.235,502.73,277.068,500.822,277.068"/>
	<path clip-path="url(#SVGID_2_)" fill="#FFFFFF" d="M815.514,390.084c-1.313-1.55-2.21-3.278-2.687-5.191l-19.699-60.54
		c-1.916-5.73-4.004-11.284-6.27-16.658c-2.272-5.371-6.15-11.64-11.643-18.806c-0.241-0.476-0.357-0.95-0.357-1.434
		c0-0.717,0.179-1.308,0.537-1.789c0.358-0.477,0.653-0.836,0.896-1.074c6.205-3.342,11.104-6.986,14.687-10.928
		c3.581-3.941,7.04-8.295,10.388-13.074c5.016-9.549,7.522-24.835,7.522-45.851v-8.24c-0.716-22.686-6.447-39.639-17.193-50.867
		c-6.215-6.446-12.539-10.982-18.985-13.612c-6.45-2.625-13.02-3.941-19.703-3.941H619.75c-2.391,0-3.583,1.199-3.583,3.583v249.676
		c0,2.393,1.192,3.583,3.583,3.583h44.776c2.386,0,3.583-1.19,3.583-3.583v-87.764c0-2.382,1.191-3.58,3.583-3.58h43.701
		c10.265,1.435,17.072,8.838,20.419,22.208l22.21,62.69c0.475,1.672,1.55,3.759,3.222,6.267c1.67,2.508,3.224,3.762,4.657,3.762
		h49.434c1.433,0,2.15-0.592,2.15-1.791C817.485,392.654,816.825,391.643,815.514,390.084 M755.693,232.65
		c-1.791,5.496-4.361,9.67-7.703,12.537c-4.063,3.346-7.762,5.016-11.104,5.016h-64.837c-2.632,0-3.94-1.195-3.94-3.583v-58.39
		c0-2.384,1.191-3.581,3.583-3.581h70.21c5.25,0.717,9.788,5.014,13.611,12.896c1.192,2.388,1.971,4.958,2.328,7.7
		c0.359,2.749,0.539,5.794,0.539,9.135C758.381,221.068,757.484,227.159,755.693,232.65"/>
</g>
</svg>
