<?xml version="1.0" encoding="utf-8"?>
<!-- Generator: Adobe Illustrator 15.0.0, SVG Export Plug-In . SVG Version: 6.00 Build 0)  -->
<!DOCTYPE svg PUBLIC "-//W3C//DTD SVG 1.1//EN" "http://www.w3.org/Graphics/SVG/1.1/DTD/svg11.dtd">
<svg version="1.1" id="Layer_1" xmlns="http://www.w3.org/2000/svg" xmlns:xlink="http://www.w3.org/1999/xlink" x="0px" y="0px"
	 width="1490.68px" height="548.044px" viewBox="0 0 1490.68 548.044" enable-background="new 0 0 1490.68 548.044"
	 xml:space="preserve">
<g>
	<defs>
		<rect id="SVGID_1_" width="1490.683" height="548.044"/>
	</defs>
	<clipPath id="SVGID_2_">
		<use xlink:href="#SVGID_1_"  overflow="visible"/>
	</clipPath>
	<path clip-path="url(#SVGID_2_)" fill="#85CCB0" d="M1146.273,187.348c0-6.186,5.016-11.201,11.201-11.201
		c6.187,0,11.2,5.015,11.2,11.201s-5.014,11.201-11.2,11.201C1151.289,198.548,1146.273,193.534,1146.273,187.348"/>
	<path clip-path="url(#SVGID_2_)" fill="#4E6988" d="M1051.735,27.273c0-4.407,3.573-7.98,7.979-7.98c4.408,0,7.98,3.573,7.98,7.98
		c0,4.407-3.572,7.98-7.98,7.98C1055.309,35.253,1051.735,31.68,1051.735,27.273"/>
	<path clip-path="url(#SVGID_2_)" fill="#EF4D58" d="M1168.619,226.687c0-2.803,2.271-5.075,5.074-5.075
		c2.803,0,5.074,2.272,5.074,5.075c0,2.803-2.271,5.075-5.074,5.075C1170.89,231.761,1168.619,229.489,1168.619,226.687"/>
	<path clip-path="url(#SVGID_2_)" fill="#26355C" d="M1098.661,35.172c0-9.448,7.659-17.108,17.106-17.108
		c9.449,0,17.109,7.66,17.109,17.108c0,9.449-7.66,17.108-17.109,17.108C1106.32,52.28,1098.661,44.621,1098.661,35.172"/>
	<path clip-path="url(#SVGID_2_)" fill="#FFC84B" d="M1138.574,176.292c0-3.534,2.863-6.398,6.397-6.398s6.399,2.864,6.399,6.398
		c0,3.534-2.865,6.398-6.399,6.398S1138.574,179.825,1138.574,176.292"/>
	<path clip-path="url(#SVGID_2_)" fill="#85CCB0" d="M1161.626,25.853c0-3.894,3.155-7.05,7.05-7.05c3.893,0,7.05,3.156,7.05,7.05
		s-3.157,7.05-7.05,7.05C1164.781,32.903,1161.626,29.747,1161.626,25.853"/>
	<path clip-path="url(#SVGID_2_)" fill="#26355C" d="M1063.567,50.034c0-5.331,4.32-9.653,9.651-9.653s9.653,4.322,9.653,9.653
		s-4.322,9.652-9.653,9.652S1063.567,55.365,1063.567,50.034"/>
	<path clip-path="url(#SVGID_2_)" fill="#EF4D58" d="M1085.477,29.362c0-6.241,5.059-11.3,11.3-11.3c6.24,0,11.3,5.059,11.3,11.3
		c0,6.241-5.06,11.299-11.3,11.299C1090.535,40.661,1085.477,35.603,1085.477,29.362"/>
	<path clip-path="url(#SVGID_2_)" fill="#26355C" d="M1110.679,62.309c0-3.149,2.553-5.702,5.702-5.702s5.701,2.553,5.701,5.702
		s-2.552,5.702-5.701,5.702S1110.679,65.458,1110.679,62.309"/>
	<path clip-path="url(#SVGID_2_)" fill="#EF4D58" d="M1093.565,57.908c0-2.814,2.28-5.095,5.096-5.095
		c2.813,0,5.094,2.281,5.094,5.095s-2.28,5.095-5.094,5.095C1095.846,63.002,1093.565,60.722,1093.565,57.908"/>
	<path clip-path="url(#SVGID_2_)" fill="#EF4D58" d="M1138.93,44.452c0-6.704,5.435-12.139,12.139-12.139
		s12.138,5.435,12.138,12.139s-5.434,12.139-12.138,12.139S1138.93,51.156,1138.93,44.452"/>
	<path clip-path="url(#SVGID_2_)" fill="#4E6988" d="M1143.004,23.057c0-2.994,2.427-5.421,5.421-5.421s5.421,2.427,5.421,5.421
		c0,2.994-2.427,5.421-5.421,5.421S1143.004,26.051,1143.004,23.057"/>
	<path clip-path="url(#SVGID_2_)" fill="#26355C" d="M1154.665,33.887c0-3.705,3.003-6.708,6.707-6.708
		c3.705,0,6.708,3.003,6.708,6.708c0,3.705-3.003,6.708-6.708,6.708C1157.668,40.595,1154.665,37.592,1154.665,33.887"/>
	<path clip-path="url(#SVGID_2_)" fill="#85CCB0" d="M1176.407,41.573c0-3.608,2.925-6.533,6.532-6.533
		c3.608,0,6.532,2.925,6.532,6.533s-2.924,6.533-6.532,6.533C1179.332,48.105,1176.407,45.181,1176.407,41.573"/>
	<path clip-path="url(#SVGID_2_)" fill="#EF4D58" d="M1197.629,78.241c0-3.726,3.021-6.746,6.746-6.746s6.746,3.02,6.746,6.746
		s-3.021,6.747-6.746,6.747S1197.629,81.967,1197.629,78.241"/>
	<path clip-path="url(#SVGID_2_)" fill="#26355C" d="M1142.484,74.267c0-3.762,3.05-6.812,6.812-6.812
		c3.763,0,6.813,3.05,6.813,6.812c0,3.762-3.05,6.812-6.813,6.812C1145.534,81.079,1142.484,78.028,1142.484,74.267"/>
	<path clip-path="url(#SVGID_2_)" fill="#26355C" d="M1163.025,87.49c0-7.303,5.92-13.224,13.224-13.224
		c7.302,0,13.223,5.921,13.223,13.224c0,7.303-5.921,13.224-13.223,13.224C1168.945,100.714,1163.025,94.793,1163.025,87.49"/>
	<path clip-path="url(#SVGID_2_)" fill="#85CCB0" d="M1190.562,70.736c0-3.814,3.093-6.907,6.907-6.907s6.905,3.093,6.905,6.907
		s-3.091,6.907-6.905,6.907S1190.562,74.55,1190.562,70.736"/>
	<path clip-path="url(#SVGID_2_)" fill="#26355C" d="M1116.541,137.981c0-3.829,3.104-6.933,6.933-6.933
		c3.828,0,6.933,3.104,6.933,6.933c0,3.829-3.104,6.932-6.933,6.932C1119.645,144.913,1116.541,141.81,1116.541,137.981"/>
	<path clip-path="url(#SVGID_2_)" fill="#85CCB0" d="M1163.759,112.563c0-5.758,4.668-10.427,10.427-10.427
		c5.758,0,10.427,4.669,10.427,10.427c0,5.759-4.669,10.427-10.427,10.427C1168.427,122.989,1163.759,118.321,1163.759,112.563"/>
	<path clip-path="url(#SVGID_2_)" fill="#EF4D58" d="M1195.448,134.746c0-3.454-2.8-6.254-6.254-6.254s-6.255,2.8-6.255,6.254
		c0,3.454,2.801,6.254,6.255,6.254S1195.448,138.199,1195.448,134.746"/>
	<path clip-path="url(#SVGID_2_)" fill="#26355C" d="M1189.194,141.532c0-5.548,4.498-10.046,10.046-10.046
		c5.549,0,10.047,4.498,10.047,10.046c0,5.549-4.498,10.047-10.047,10.047C1193.692,151.579,1189.194,147.081,1189.194,141.532"/>
	<path clip-path="url(#SVGID_2_)" fill="#85CCB0" d="M1226.09,118.125c0,7.378-5.981,13.36-13.36,13.36
		c-7.378,0-13.36-5.982-13.36-13.36s5.982-13.36,13.36-13.36C1220.108,104.765,1226.09,110.748,1226.09,118.125"/>
	<path clip-path="url(#SVGID_2_)" fill="#EF4D58" d="M1217.494,130.485c0-4.14,3.354-7.496,7.495-7.496s7.495,3.356,7.495,7.496
		s-3.354,7.496-7.495,7.496S1217.494,134.625,1217.494,130.485"/>
	<path clip-path="url(#SVGID_2_)" fill="#EF4D58" d="M1192.099,117.855c0-2.923,2.368-5.293,5.293-5.293
		c2.923,0,5.293,2.37,5.293,5.293s-2.37,5.293-5.293,5.293C1194.467,123.148,1192.099,120.778,1192.099,117.855"/>
	<path clip-path="url(#SVGID_2_)" fill="#EF4D58" d="M1228.344,159.64c0,4.452-3.609,8.061-8.062,8.061s-8.061-3.609-8.061-8.061
		c0-4.452,3.608-8.061,8.061-8.061S1228.344,155.188,1228.344,159.64"/>
	<path clip-path="url(#SVGID_2_)" fill="#EF4D58" d="M1250.063,141c0,3.079-2.496,5.575-5.575,5.575
		c-3.078,0-5.574-2.496-5.574-5.575c0-3.079,2.496-5.574,5.574-5.574C1247.567,135.425,1250.063,137.92,1250.063,141"/>
	<path clip-path="url(#SVGID_2_)" fill="#85CCB0" d="M1246.734,155.221c0,8.075-6.546,14.62-14.62,14.62
		c-8.075,0-14.62-6.545-14.62-14.62c0-8.074,6.545-14.62,14.62-14.62C1240.188,140.601,1246.734,147.146,1246.734,155.221"/>
	<path clip-path="url(#SVGID_2_)" fill="#4E6988" d="M1226.914,178.679c0,4.057-3.289,7.346-7.347,7.346
		c-4.057,0-7.346-3.289-7.346-7.346c0-4.057,3.289-7.346,7.346-7.346C1223.625,171.333,1226.914,174.622,1226.914,178.679"/>
	<path clip-path="url(#SVGID_2_)" fill="#85CCB0" d="M1224.256,193.165c0-3.386,2.745-6.13,6.131-6.13s6.13,2.744,6.13,6.13
		c0,3.386-2.744,6.13-6.13,6.13S1224.256,196.551,1224.256,193.165"/>
	<path clip-path="url(#SVGID_2_)" fill="#4E6988" d="M1243.977,205.694c0-3.534,2.863-6.398,6.397-6.398s6.399,2.864,6.399,6.398
		c0,3.534-2.865,6.398-6.399,6.398S1243.977,209.228,1243.977,205.694"/>
	<path clip-path="url(#SVGID_2_)" fill="#EF4D58" d="M1264.44,192.277c0,4.188-3.396,7.583-7.583,7.583
		c-4.188,0-7.583-3.395-7.583-7.583s3.395-7.583,7.583-7.583C1261.045,184.694,1264.44,188.089,1264.44,192.277"/>
	<path clip-path="url(#SVGID_2_)" fill="#EF4D58" d="M1295.992,334.921c0,2.095-1.697,3.791-3.791,3.791
		c-2.096,0-3.792-1.696-3.792-3.791s1.696-3.792,3.792-3.792C1294.295,331.129,1295.992,332.826,1295.992,334.921"/>
	<path clip-path="url(#SVGID_2_)" fill="#EF4D58" d="M1253.353,401.946c0,3.187-2.582,5.769-5.769,5.769
		c-3.185,0-5.767-2.582-5.767-5.769c0-3.186,2.582-5.768,5.767-5.768C1250.771,396.179,1253.353,398.761,1253.353,401.946"/>
	<path clip-path="url(#SVGID_2_)" fill="#EF4D58" d="M1232.249,185.643c0,4.155,3.368,7.522,7.521,7.522
		c4.156,0,7.523-3.367,7.523-7.522c0-4.154-3.367-7.522-7.523-7.522C1235.617,178.121,1232.249,181.488,1232.249,185.643"/>
	<path clip-path="url(#SVGID_2_)" fill="#4E6988" d="M1253.875,171.536c0-4.144,3.358-7.503,7.504-7.503
		c4.143,0,7.503,3.359,7.503,7.503s-3.36,7.503-7.503,7.503C1257.233,179.039,1253.875,175.68,1253.875,171.536"/>
	<path clip-path="url(#SVGID_2_)" fill="#EF4D58" d="M1272.499,240.832c0-4.144,3.358-7.503,7.504-7.503
		c4.143,0,7.503,3.359,7.503,7.503s-3.36,7.503-7.503,7.503C1275.857,248.334,1272.499,244.976,1272.499,240.832"/>
	<path clip-path="url(#SVGID_2_)" fill="#EF4D58" d="M1270.471,160.148c0-4.116,3.338-7.453,7.454-7.453
		c4.115,0,7.452,3.337,7.452,7.453c0,4.116-3.337,7.454-7.452,7.454C1273.809,167.602,1270.471,164.264,1270.471,160.148"/>
	<path clip-path="url(#SVGID_2_)" fill="#EF4D58" d="M1323.813,340.583c0-5.715,4.633-10.349,10.349-10.349
		c5.714,0,10.348,4.634,10.348,10.349c0,5.717-4.634,10.351-10.348,10.351C1328.446,350.934,1323.813,346.3,1323.813,340.583"/>
	<path clip-path="url(#SVGID_2_)" fill="#FFC84B" d="M1314.159,291.049c0-4.115,3.337-7.453,7.452-7.453
		c4.116,0,7.453,3.338,7.453,7.453c0,4.116-3.337,7.453-7.453,7.453C1317.496,298.502,1314.159,295.165,1314.159,291.049"/>
	<path clip-path="url(#SVGID_2_)" fill="#85CCB0" d="M1259.963,157.02c0,2.389-1.938,4.325-4.325,4.325
		c-2.39,0-4.325-1.936-4.325-4.325c0-2.389,1.936-4.325,4.325-4.325C1258.025,152.694,1259.963,154.63,1259.963,157.02"/>
	<path clip-path="url(#SVGID_2_)" fill="#4E6988" d="M1295.593,141.277c0,3.748-3.037,6.786-6.785,6.786
		c-3.747,0-6.785-3.038-6.785-6.786c0-3.747,3.038-6.785,6.785-6.785C1292.556,134.492,1295.593,137.53,1295.593,141.277"/>
	<path clip-path="url(#SVGID_2_)" fill="#4E6988" d="M1223.947,209.25c0,2.036-1.65,3.686-3.687,3.686
		c-2.035,0-3.685-1.65-3.685-3.686c0-2.036,1.649-3.686,3.685-3.686C1222.297,205.564,1223.947,207.214,1223.947,209.25"/>
	<path clip-path="url(#SVGID_2_)" fill="#EF4D58" d="M1200.373,226.687c0,3.087-2.502,5.59-5.59,5.59s-5.59-2.503-5.59-5.59
		s2.502-5.589,5.59-5.589S1200.373,223.6,1200.373,226.687"/>
	<path clip-path="url(#SVGID_2_)" fill="#EF4D58" d="M1296.297,282.208c0,3.087-2.503,5.591-5.59,5.591
		c-3.089,0-5.591-2.504-5.591-5.591s2.502-5.59,5.591-5.59C1293.794,276.618,1296.297,279.121,1296.297,282.208"/>
	<path clip-path="url(#SVGID_2_)" fill="#EF4D58" d="M1206.463,231.536c0-6.829,5.535-12.365,12.365-12.365
		c6.828,0,12.364,5.536,12.364,12.365c0,6.829-5.536,12.365-12.364,12.365C1211.998,243.901,1206.463,238.365,1206.463,231.536"/>
	<path clip-path="url(#SVGID_2_)" fill="#26355C" d="M1245.907,221.941c0,6.064-4.916,10.98-10.979,10.98
		c-6.064,0-10.98-4.916-10.98-10.98s4.916-10.98,10.98-10.98C1240.991,210.961,1245.907,215.877,1245.907,221.941"/>
	<path clip-path="url(#SVGID_2_)" fill="#85CCB0" d="M1278.733,272.17c-6.877,7.876-18.837,8.686-26.713,1.81
		c-7.876-6.877-8.687-18.837-1.81-26.713c6.876-7.876,18.835-8.686,26.712-1.81C1284.799,252.334,1285.61,264.294,1278.733,272.17"
		/>
	<path clip-path="url(#SVGID_2_)" fill="#4E6988" d="M1236.374,352.778c0-6.635,5.378-12.014,12.013-12.014
		c6.634,0,12.013,5.379,12.013,12.014c0,6.636-5.379,12.014-12.013,12.014C1241.752,364.792,1236.374,359.414,1236.374,352.778"/>
	<path clip-path="url(#SVGID_2_)" fill="#EF4D58" d="M1190.783,285.469c0-3.78,3.064-6.846,6.846-6.846
		c3.78,0,6.844,3.065,6.844,6.846s-3.063,6.846-6.844,6.846C1193.848,292.314,1190.783,289.249,1190.783,285.469"/>
	<path clip-path="url(#SVGID_2_)" fill="#EF4D58" d="M1320.604,185.932c0,3.91-3.169,7.079-7.078,7.079s-7.078-3.169-7.078-7.079
		c0-3.909,3.169-7.078,7.078-7.078S1320.604,182.023,1320.604,185.932"/>
	<path clip-path="url(#SVGID_2_)" fill="#EF4D58" d="M1324.639,210.685c0,3.909-3.169,7.078-7.078,7.078s-7.078-3.169-7.078-7.078
		c0-3.91,3.169-7.079,7.078-7.079S1324.639,206.775,1324.639,210.685"/>
	<path clip-path="url(#SVGID_2_)" fill="#EF4D58" d="M1361.975,322.361c0,3.909-3.17,7.079-7.079,7.079s-7.078-3.17-7.078-7.079
		c0-3.908,3.169-7.078,7.078-7.078S1361.975,318.453,1361.975,322.361"/>
	<path clip-path="url(#SVGID_2_)" fill="#EF4D58" d="M1072.035,34.57c0,2.253-1.826,4.08-4.08,4.08c-2.253,0-4.079-1.827-4.079-4.08
		c0-2.253,1.826-4.08,4.079-4.08C1070.209,30.49,1072.035,32.316,1072.035,34.57"/>
	<path clip-path="url(#SVGID_2_)" fill="#EF4D58" d="M1107.01,84.875c0-3.664,2.97-6.633,6.634-6.633
		c3.663,0,6.633,2.969,6.633,6.633s-2.97,6.633-6.633,6.633C1109.979,91.507,1107.01,88.539,1107.01,84.875"/>
	<path clip-path="url(#SVGID_2_)" fill="#EF4D58" d="M1132.641,112.24c0,8.329-6.752,15.08-15.081,15.08
		c-8.328,0-15.08-6.751-15.08-15.08c0-8.329,6.752-15.081,15.08-15.081C1125.889,97.159,1132.641,103.911,1132.641,112.24"/>
	<path clip-path="url(#SVGID_2_)" fill="#4E6988" d="M1155.72,123.19c0,4.029-3.267,7.295-7.295,7.295
		c-4.029,0-7.296-3.266-7.296-7.295c0-4.029,3.267-7.295,7.296-7.295C1152.453,115.896,1155.72,119.161,1155.72,123.19"/>
	<path clip-path="url(#SVGID_2_)" fill="#4E6988" d="M1137.576,123.19c0,2.969-2.407,5.375-5.376,5.375
		c-2.97,0-5.376-2.406-5.376-5.375c0-2.969,2.406-5.376,5.376-5.376C1135.169,117.814,1137.576,120.221,1137.576,123.19"/>
	<path clip-path="url(#SVGID_2_)" fill="#85CCB0" d="M1135.652,140.183c0-3.773,3.059-6.832,6.832-6.832
		c3.771,0,6.832,3.059,6.832,6.832s-3.061,6.832-6.832,6.832C1138.711,147.015,1135.652,143.956,1135.652,140.183"/>
	<path clip-path="url(#SVGID_2_)" fill="#EF4D58" d="M1150.071,153.989c0-3.121,2.528-5.65,5.649-5.65s5.651,2.529,5.651,5.65
		s-2.53,5.651-5.651,5.651S1150.071,157.11,1150.071,153.989"/>
	<path clip-path="url(#SVGID_2_)" fill="#EF4D58" d="M1185.001,170.832c0,4.025-3.264,7.289-7.289,7.289s-7.288-3.264-7.288-7.289
		c0-4.025,3.263-7.289,7.288-7.289S1185.001,166.806,1185.001,170.832"/>
	<path clip-path="url(#SVGID_2_)" fill="#EF4D58" d="M1212.446,95.056c0,3.179-2.577,5.757-5.757,5.757
		c-3.181,0-5.758-2.578-5.758-5.757c0-3.18,2.577-5.757,5.758-5.757C1209.869,89.299,1212.446,91.876,1212.446,95.056"/>
	<path clip-path="url(#SVGID_2_)" fill="#FFC84B" d="M1229.704,106.571c0,3.18-2.577,5.757-5.757,5.757
		c-3.181,0-5.758-2.577-5.758-5.757c0-3.179,2.577-5.757,5.758-5.757C1227.127,100.813,1229.704,103.392,1229.704,106.571"/>
	<path clip-path="url(#SVGID_2_)" fill="#EF4D58" d="M1218.773,199.295c0,7.344-5.953,13.298-13.299,13.298
		c-7.345,0-13.298-5.954-13.298-13.298c0-7.344,5.953-13.298,13.298-13.298C1212.82,185.997,1218.773,191.951,1218.773,199.295"/>
	<path clip-path="url(#SVGID_2_)" fill="#26355C" d="M1182.385,187.348c0,6.106-4.95,11.056-11.058,11.056
		c-6.104,0-11.055-4.95-11.055-11.056s4.95-11.056,11.055-11.056C1177.435,176.292,1182.385,181.242,1182.385,187.348"/>
	<path clip-path="url(#SVGID_2_)" fill="#85CCB0" d="M1109.479,83.034c0,7.015-5.688,12.702-12.702,12.702
		c-7.017,0-12.702-5.688-12.702-12.702c0-7.015,5.686-12.702,12.702-12.702C1103.791,70.332,1109.479,76.019,1109.479,83.034"/>
	<path clip-path="url(#SVGID_2_)" fill="#EF4D58" d="M1339.664,148.346c0,8.867-7.188,16.055-16.056,16.055
		c-8.866,0-16.055-7.188-16.055-16.055c0-8.867,7.188-16.055,16.055-16.055C1332.476,132.291,1339.664,139.479,1339.664,148.346"/>
	<path clip-path="url(#SVGID_2_)" fill="#4E6988" d="M1326.42,112.136c0,3.074-2.491,5.565-5.565,5.565s-5.564-2.491-5.564-5.565
		c0-3.073,2.49-5.565,5.564-5.565S1326.42,109.063,1326.42,112.136"/>
	<path clip-path="url(#SVGID_2_)" fill="#EF4D58" d="M1306.119,248.334c0,3.074-2.491,5.565-5.564,5.565
		c-3.075,0-5.565-2.491-5.565-5.565c0-3.073,2.49-5.565,5.565-5.565C1303.628,242.77,1306.119,245.261,1306.119,248.334"/>
	<path clip-path="url(#SVGID_2_)" fill="#85CCB0" d="M1323.178,122.501c0,3.09-2.505,5.594-5.596,5.594
		c-3.09,0-5.594-2.504-5.594-5.594c0-3.09,2.504-5.595,5.594-5.595C1320.673,116.906,1323.178,119.411,1323.178,122.501"/>
	<path clip-path="url(#SVGID_2_)" fill="#FFC84B" d="M1304.525,102.619c0-3.373,2.733-6.107,6.107-6.107
		c3.373,0,6.108,2.734,6.108,6.107c0,3.374-2.735,6.108-6.108,6.108C1307.259,108.727,1304.525,105.993,1304.525,102.619"/>
	<path clip-path="url(#SVGID_2_)" fill="#85CCB0" d="M1326.075,86.07c0,3.326-2.696,6.023-6.022,6.023
		c-3.327,0-6.022-2.697-6.022-6.023c0-3.326,2.695-6.023,6.022-6.023C1323.379,80.047,1326.075,82.744,1326.075,86.07"/>
	<path clip-path="url(#SVGID_2_)" fill="#26355C" d="M1336.413,135.225c0-5.845,4.737-10.583,10.583-10.583
		c5.845,0,10.582,4.738,10.582,10.583c0,5.844-4.737,10.583-10.582,10.583C1341.15,145.808,1336.413,141.069,1336.413,135.225"/>
	<path clip-path="url(#SVGID_2_)" fill="#26355C" d="M1203.658,254.087c0,4.901-3.975,8.874-8.875,8.874s-8.874-3.973-8.874-8.874
		s3.974-8.875,8.874-8.875S1203.658,249.187,1203.658,254.087"/>
	<path clip-path="url(#SVGID_2_)" fill="#26355C" d="M1248.552,245.062c0,2.959-2.398,5.357-5.357,5.357s-5.358-2.398-5.358-5.357
		c0-2.958,2.399-5.357,5.358-5.357S1248.552,242.104,1248.552,245.062"/>
	<path clip-path="url(#SVGID_2_)" fill="#26355C" d="M1210.021,300.756c0,4.207-3.41,7.618-7.618,7.618s-7.619-3.411-7.619-7.618
		c0-4.208,3.411-7.619,7.619-7.619S1210.021,296.548,1210.021,300.756"/>
	<path clip-path="url(#SVGID_2_)" fill="#4E6988" d="M1189.932,312.017c0,4.168-3.379,7.549-7.547,7.549
		c-4.17,0-7.549-3.381-7.549-7.549c0-4.169,3.379-7.548,7.549-7.548C1186.553,304.469,1189.932,307.848,1189.932,312.017"/>
	<path clip-path="url(#SVGID_2_)" fill="#FFC84B" d="M1205.476,319.97c0-4.393,3.562-7.953,7.954-7.953s7.953,3.561,7.953,7.953
		c0,4.395-3.561,7.954-7.953,7.954S1205.476,324.364,1205.476,319.97"/>
	<path clip-path="url(#SVGID_2_)" fill="#EF4D58" d="M1173.849,340.881c0,4.405-3.57,7.977-7.976,7.977
		c-4.404,0-7.975-3.571-7.975-7.977c0-4.403,3.57-7.975,7.975-7.975C1170.278,332.906,1173.849,336.478,1173.849,340.881"/>
	<path clip-path="url(#SVGID_2_)" fill="#26355C" d="M1154.378,370.982c0-3.256,2.639-5.895,5.895-5.895
		c3.255,0,5.895,2.639,5.895,5.895s-2.64,5.896-5.895,5.896C1157.017,376.879,1154.378,374.238,1154.378,370.982"/>
	<path clip-path="url(#SVGID_2_)" fill="#26355C" d="M1198.908,368.097c0,5.365-4.35,9.716-9.715,9.716s-9.715-4.351-9.715-9.716
		c0-5.364,4.35-9.715,9.715-9.715S1198.908,362.732,1198.908,368.097"/>
	<path clip-path="url(#SVGID_2_)" fill="#EF4D58" d="M1229.609,357.182c2.518,5.15,0.382,11.367-4.771,13.885
		c-5.149,2.516-11.367,0.382-13.883-4.771c-2.517-5.15-0.382-11.367,4.769-13.884
		C1220.877,349.896,1227.092,352.031,1229.609,357.182"/>
	<path clip-path="url(#SVGID_2_)" fill="#4E6988" d="M1269.749,315.724c0,10.058-8.152,18.209-18.209,18.209
		s-18.208-8.151-18.208-18.209c0-10.056,8.151-18.208,18.208-18.208S1269.749,305.668,1269.749,315.724"/>
	<path clip-path="url(#SVGID_2_)" fill="#26355C" d="M1234.265,340.368c0,4.324-3.507,7.83-7.829,7.83
		c-4.324,0-7.83-3.506-7.83-7.83c0-4.322,3.506-7.828,7.83-7.828C1230.758,332.54,1234.265,336.046,1234.265,340.368"/>
	<path clip-path="url(#SVGID_2_)" fill="#26355C" d="M1266.198,326.09c0-4.323,3.506-7.829,7.829-7.829s7.83,3.506,7.83,7.829
		c0,4.324-3.507,7.829-7.83,7.829S1266.198,330.414,1266.198,326.09"/>
	<path clip-path="url(#SVGID_2_)" fill="#EF4D58" d="M1287.33,348.741c0,5.497-4.456,9.953-9.952,9.953
		c-5.497,0-9.953-4.456-9.953-9.953s4.456-9.953,9.953-9.953C1282.874,338.788,1287.33,343.244,1287.33,348.741"/>
	<path clip-path="url(#SVGID_2_)" fill="#26355C" d="M1258.3,285.937c0,6.639-5.382,12.019-12.019,12.019
		s-12.017-5.38-12.017-12.019c0-6.637,5.38-12.018,12.017-12.018S1258.3,279.3,1258.3,285.937"/>
	<path clip-path="url(#SVGID_2_)" fill="#26355C" d="M1277.925,213.565c0,5.5-4.459,9.959-9.959,9.959s-9.959-4.459-9.959-9.959
		s4.459-9.958,9.959-9.958S1277.925,208.065,1277.925,213.565"/>
	<path clip-path="url(#SVGID_2_)" fill="#FFC84B" d="M1295.108,266.767c0,7.003-5.677,12.68-12.681,12.68
		c-7.003,0-12.679-5.677-12.679-12.68s5.676-12.68,12.679-12.68C1289.432,254.087,1295.108,259.764,1295.108,266.767"/>
	<path clip-path="url(#SVGID_2_)" fill="#85CCB0" d="M1268.01,227.732c0,5.78-4.687,10.466-10.467,10.466
		c-5.779,0-10.467-4.686-10.467-10.466c0-5.78,4.688-10.466,10.467-10.466C1263.323,217.266,1268.01,221.952,1268.01,227.732"/>
	<path clip-path="url(#SVGID_2_)" fill="#26355C" d="M1295.108,294.034c0-3.713,3.01-6.722,6.722-6.722
		c3.713,0,6.721,3.009,6.721,6.722c0,3.712-3.008,6.723-6.721,6.723C1298.118,300.757,1295.108,297.746,1295.108,294.034"/>
	<path clip-path="url(#SVGID_2_)" fill="#26355C" d="M1291.395,271.308c0-6.111,4.954-11.065,11.064-11.065
		c6.112,0,11.066,4.954,11.066,11.065s-4.954,11.064-11.066,11.064C1296.349,282.372,1291.395,277.419,1291.395,271.308"/>
	<path clip-path="url(#SVGID_2_)" fill="#85CCB0" d="M1275.599,309.613c0-9.1,7.377-16.477,16.477-16.477
		c9.101,0,16.476,7.377,16.476,16.477c0,9.101-7.375,16.478-16.476,16.478C1282.976,326.091,1275.599,318.714,1275.599,309.613"/>
	<path clip-path="url(#SVGID_2_)" fill="#FFC84B" d="M1336.43,322.361c0,9.072-7.354,16.428-16.428,16.428
		c-9.071,0-16.427-7.355-16.427-16.428c0-9.071,7.355-16.427,16.427-16.427C1329.075,305.935,1336.43,313.29,1336.43,322.361"/>
	<path clip-path="url(#SVGID_2_)" fill="#4E6988" d="M1341.694,358.678c0,4.23-3.43,7.66-7.659,7.66c-4.231,0-7.659-3.43-7.659-7.66
		c0-4.229,3.428-7.659,7.659-7.659C1338.265,351.019,1341.694,354.448,1341.694,358.678"/>
	<path clip-path="url(#SVGID_2_)" fill="#4E6988" d="M1209.955,266.767c0,4.23-3.431,7.66-7.66,7.66c-4.23,0-7.659-3.43-7.659-7.66
		s3.429-7.659,7.659-7.659C1206.524,259.108,1209.955,262.537,1209.955,266.767"/>
	<path clip-path="url(#SVGID_2_)" fill="#FFC84B" d="M1328.825,391.926c0,6.7-5.433,12.133-12.132,12.133
		c-6.7,0-12.134-5.433-12.134-12.133s5.434-12.133,12.134-12.133C1323.393,379.793,1328.825,385.226,1328.825,391.926"/>
	<path clip-path="url(#SVGID_2_)" fill="#FFC84B" d="M1191.144,151.642c0,4.23-3.43,7.66-7.659,7.66c-4.231,0-7.659-3.43-7.659-7.66
		s3.428-7.66,7.659-7.66C1187.714,143.981,1191.144,147.412,1191.144,151.642"/>
	<path clip-path="url(#SVGID_2_)" fill="#85CCB0" d="M1309.49,396.398c0,4.23-3.431,7.659-7.66,7.659
		c-4.23,0-7.659-3.429-7.659-7.659c0-4.229,3.429-7.659,7.659-7.659C1306.06,388.739,1309.49,392.169,1309.49,396.398"/>
	<path clip-path="url(#SVGID_2_)" fill="#85CCB0" d="M1391.216,369.062c0,4.23-3.43,7.659-7.659,7.659
		c-4.231,0-7.659-3.429-7.659-7.659c0-4.229,3.428-7.658,7.659-7.658C1387.786,361.403,1391.216,364.832,1391.216,369.062"/>
	<path clip-path="url(#SVGID_2_)" fill="#26355C" d="M1228.336,381.766c0,4.449-3.607,8.058-8.058,8.058s-8.057-3.608-8.057-8.058
		s3.606-8.058,8.057-8.058S1228.336,377.316,1228.336,381.766"/>
	<path clip-path="url(#SVGID_2_)" fill="#EF4D58" d="M1189.194,394.15c0,8.146-6.604,14.748-14.748,14.748
		c-8.146,0-14.748-6.602-14.748-14.748c0-8.145,6.602-14.748,14.748-14.748C1182.59,379.402,1189.194,386.006,1189.194,394.15"/>
	<path clip-path="url(#SVGID_2_)" fill="#85CCB0" d="M1156.878,408.898c0,5.812-4.711,10.521-10.521,10.521
		c-5.81,0-10.52-4.71-10.52-10.521c0-5.81,4.71-10.52,10.52-10.52C1152.167,398.379,1156.878,403.089,1156.878,408.898"/>
	<path clip-path="url(#SVGID_2_)" fill="#26355C" d="M1138.458,429.15c0,3.849-3.119,6.967-6.966,6.967
		c-3.848,0-6.967-3.118-6.967-6.967c0-3.847,3.119-6.966,6.967-6.966C1135.339,422.185,1138.458,425.304,1138.458,429.15"/>
	<path clip-path="url(#SVGID_2_)" fill="#FFC84B" d="M1165.546,435.708c0,9.582-7.769,17.351-17.351,17.351
		c-9.581,0-17.348-7.769-17.348-17.351c0-9.581,7.767-17.349,17.348-17.349C1157.777,418.359,1165.546,426.127,1165.546,435.708"/>
	<path clip-path="url(#SVGID_2_)" fill="#26355C" d="M1202.295,422.29c0,4.776-3.871,8.647-8.646,8.647s-8.647-3.871-8.647-8.647
		c0-4.774,3.872-8.646,8.647-8.646S1202.295,417.516,1202.295,422.29"/>
	<path clip-path="url(#SVGID_2_)" fill="#4E6988" d="M1180.276,444.514c0,4.89-3.964,8.853-8.854,8.853
		c-4.889,0-8.852-3.963-8.852-8.853s3.963-8.853,8.852-8.853C1176.313,435.661,1180.276,439.624,1180.276,444.514"/>
	<path clip-path="url(#SVGID_2_)" fill="#FFC84B" d="M1211.573,436.736c0-5.418,4.393-9.81,9.811-9.81c5.417,0,9.81,4.392,9.81,9.81
		s-4.393,9.811-9.81,9.811C1215.966,446.547,1211.573,442.154,1211.573,436.736"/>
	<path clip-path="url(#SVGID_2_)" fill="#EF4D58" d="M1206.585,442.216c0,3.62-2.936,6.556-6.556,6.556
		c-3.619,0-6.554-2.936-6.554-6.556s2.935-6.555,6.554-6.555C1203.649,435.661,1206.585,438.596,1206.585,442.216"/>
	<path clip-path="url(#SVGID_2_)" fill="#26355C" d="M1199.649,459.396c0-4.958,4.02-8.978,8.979-8.978
		c4.958,0,8.978,4.02,8.978,8.978c0,4.959-4.02,8.979-8.978,8.979C1203.669,468.374,1199.649,464.354,1199.649,459.396"/>
	<path clip-path="url(#SVGID_2_)" fill="#26355C" d="M1266.708,376.984c0,8.792-7.127,15.919-15.918,15.919
		c-8.792,0-15.919-7.127-15.919-15.919c0-8.791,7.127-15.918,15.919-15.918C1259.581,361.066,1266.708,368.193,1266.708,376.984"/>
	<path clip-path="url(#SVGID_2_)" fill="#FFC84B" d="M1243.194,268.721c0,9.363-7.591,16.954-16.953,16.954
		c-9.363,0-16.954-7.591-16.954-16.954s7.591-16.954,16.954-16.954C1235.604,251.767,1243.194,259.357,1243.194,268.721"/>
	<path clip-path="url(#SVGID_2_)" fill="#FFC84B" d="M1215.382,400.546c0,4.222-3.423,7.643-7.644,7.643
		c-4.22,0-7.642-3.421-7.642-7.643s3.422-7.643,7.642-7.643C1211.959,392.903,1215.382,396.324,1215.382,400.546"/>
	<path clip-path="url(#SVGID_2_)" fill="#85CCB0" d="M1246.559,410.425c0,7.256-5.883,13.139-13.139,13.139
		s-13.137-5.883-13.137-13.139s5.881-13.138,13.137-13.138S1246.559,403.169,1246.559,410.425"/>
	<path clip-path="url(#SVGID_2_)" fill="#26355C" d="M1151.151,467.595c0,4.528-3.671,8.199-8.199,8.199
		c-4.529,0-8.199-3.671-8.199-8.199c0-4.527,3.67-8.198,8.199-8.198C1147.48,459.396,1151.151,463.067,1151.151,467.595"/>
	<path clip-path="url(#SVGID_2_)" fill="#85CCB0" d="M1171.67,464.706c0,4.123-3.342,7.465-7.465,7.465
		c-4.122,0-7.466-3.342-7.466-7.465c0-4.122,3.344-7.465,7.466-7.465C1168.328,457.241,1171.67,460.584,1171.67,464.706"/>
	<path clip-path="url(#SVGID_2_)" fill="#85CCB0" d="M1195.677,466.596c0,4.185-3.393,7.576-7.576,7.576
		c-4.186,0-7.576-3.392-7.576-7.576s3.391-7.576,7.576-7.576C1192.284,459.02,1195.677,462.411,1195.677,466.596"/>
	<path clip-path="url(#SVGID_2_)" fill="#EF4D58" d="M1205.303,479.831c0,4.725-3.829,8.555-8.555,8.555
		c-4.724,0-8.553-3.83-8.553-8.555s3.829-8.554,8.553-8.554C1201.474,471.277,1205.303,475.106,1205.303,479.831"/>
	<path clip-path="url(#SVGID_2_)" fill="#4E6988" d="M1192.549,493.808c0,4.098-3.321,7.417-7.418,7.417
		c-4.098,0-7.417-3.319-7.417-7.417c0-4.097,3.319-7.418,7.417-7.418C1189.228,486.39,1192.549,489.711,1192.549,493.808"/>
	<path clip-path="url(#SVGID_2_)" fill="#FFC84B" d="M1172.744,515.004c0,7.825-6.345,14.169-14.169,14.169
		c-7.826,0-14.169-6.344-14.169-14.169c0-7.824,6.343-14.169,14.169-14.169C1166.399,500.835,1172.744,507.18,1172.744,515.004"/>
	<path clip-path="url(#SVGID_2_)" fill="#85CCB0" d="M1117.686,492.878c0,3.484-2.825,6.312-6.312,6.312
		c-3.484,0-6.31-2.827-6.31-6.312s2.825-6.311,6.31-6.311C1114.86,486.567,1117.686,489.394,1117.686,492.878"/>
	<path clip-path="url(#SVGID_2_)" fill="#EF4D58" d="M1112.857,497.729c0-7.315,5.932-13.248,13.247-13.248
		s13.248,5.933,13.248,13.248c0,7.316-5.933,13.247-13.248,13.247S1112.857,505.045,1112.857,497.729"/>
	<path clip-path="url(#SVGID_2_)" fill="#26355C" d="M1170.544,495.28c0,6.508-5.274,11.782-11.781,11.782
		c-6.508,0-11.782-5.274-11.782-11.782c0-6.507,5.274-11.78,11.782-11.78C1165.27,483.5,1170.544,488.773,1170.544,495.28"/>
	<path clip-path="url(#SVGID_2_)" fill="#EF4D58" d="M1122.157,464.574c0,4.245-3.441,7.688-7.688,7.688s-7.687-3.442-7.687-7.688
		s3.44-7.687,7.687-7.687S1122.157,460.329,1122.157,464.574"/>
	<path clip-path="url(#SVGID_2_)" fill="#26355C" d="M1095.022,503.808c0,2.44-1.979,4.419-4.42,4.419s-4.419-1.979-4.419-4.419
		s1.979-4.42,4.419-4.42S1095.022,501.367,1095.022,503.808"/>
	<path clip-path="url(#SVGID_2_)" fill="#85CCB0" d="M1114.553,440.879c0,4.69-3.803,8.492-8.492,8.492
		c-4.691,0-8.492-3.802-8.492-8.492c0-4.689,3.801-8.491,8.492-8.491C1110.75,432.388,1114.553,436.189,1114.553,440.879"/>
	<path clip-path="url(#SVGID_2_)" fill="#26355C" d="M1126.104,515.028c0,8.583-6.958,15.541-15.541,15.541
		s-15.541-6.958-15.541-15.541s6.958-15.541,15.541-15.541S1126.104,506.445,1126.104,515.028"/>
	<path clip-path="url(#SVGID_2_)" fill="#FFC84B" d="M1121.797,425.163c0,4.001-3.243,7.244-7.244,7.244s-7.244-3.243-7.244-7.244
		s3.243-7.243,7.244-7.243S1121.797,421.162,1121.797,425.163"/>
	<path clip-path="url(#SVGID_2_)" fill="#26355C" d="M1093.237,480.362c0,5.105-4.14,9.244-9.243,9.244
		c-5.106,0-9.244-4.139-9.244-9.244c0-5.104,4.138-9.242,9.244-9.242C1089.098,471.12,1093.237,475.259,1093.237,480.362"/>
	<path clip-path="url(#SVGID_2_)" fill="#FFC84B" d="M1123.472,474.034c0,3.495-2.833,6.328-6.328,6.328s-6.329-2.833-6.329-6.328
		c0-3.494,2.834-6.327,6.329-6.327S1123.472,470.54,1123.472,474.034"/>
	<path clip-path="url(#SVGID_2_)" fill="#4E6988" d="M1092.719,497.729c0,6.547-5.308,11.854-11.854,11.854
		s-11.854-5.308-11.854-11.854s5.307-11.854,11.854-11.854S1092.719,491.182,1092.719,497.729"/>
	<path clip-path="url(#SVGID_2_)" fill="#85CCB0" d="M1137.953,525.306c0,2.96-2.4,5.36-5.361,5.36s-5.362-2.4-5.362-5.36
		c0-2.961,2.401-5.36,5.362-5.36S1137.953,522.345,1137.953,525.306"/>
	<path clip-path="url(#SVGID_2_)" fill="#EF4D58" d="M1147.412,384.827c0,4.451-3.608,8.061-8.061,8.061
		c-4.451,0-8.059-3.609-8.059-8.061s3.607-8.06,8.059-8.06C1143.804,376.768,1147.412,380.376,1147.412,384.827"/>
	<path clip-path="url(#SVGID_2_)" fill="#85CCB0" d="M1156.582,360.438c0,3-2.433,5.432-5.432,5.432c-3,0-5.431-2.432-5.431-5.432
		c0-2.999,2.431-5.431,5.431-5.431C1154.149,355.007,1156.582,357.438,1156.582,360.438"/>
	<path clip-path="url(#SVGID_2_)" fill="#26355C" d="M1129.152,403.923c0,2.556-2.07,4.626-4.626,4.626s-4.626-2.07-4.626-4.626
		s2.07-4.627,4.626-4.627S1129.152,401.367,1129.152,403.923"/>
	<path clip-path="url(#SVGID_2_)" fill="#85CCB0" d="M1070.963,520.484c0,5.113-4.146,9.26-9.26,9.26
		c-5.112,0-9.259-4.146-9.259-9.26c0-5.112,4.146-9.259,9.259-9.259C1066.816,511.226,1070.963,515.372,1070.963,520.484"/>
	<path clip-path="url(#SVGID_2_)" fill="#FFC84B" d="M1087.93,524.246c0,3.641-2.95,6.591-6.59,6.591s-6.591-2.95-6.591-6.591
		c0-3.64,2.951-6.59,6.591-6.59S1087.93,520.606,1087.93,524.246"/>
	<path clip-path="url(#SVGID_2_)" fill="#26355C" d="M1106.749,450.418c0,4.11-3.332,7.442-7.442,7.442
		c-4.111,0-7.443-3.332-7.443-7.442c0-4.109,3.332-7.441,7.443-7.441C1103.417,442.977,1106.749,446.309,1106.749,450.418"/>
	<path clip-path="url(#SVGID_2_)" fill="#26355C" d="M1341.521,199.073c0,6.617-5.364,11.98-11.98,11.98
		c-6.617,0-11.98-5.363-11.98-11.98c0-6.616,5.363-11.98,11.98-11.98C1336.157,187.093,1341.521,192.457,1341.521,199.073"/>
	<path clip-path="url(#SVGID_2_)" fill="#26355C" d="M1376.743,128.392c0,3.354-2.72,6.072-6.072,6.072
		c-3.354,0-6.073-2.718-6.073-6.072s2.719-6.073,6.073-6.073C1374.023,122.318,1376.743,125.038,1376.743,128.392"/>
	<path clip-path="url(#SVGID_2_)" fill="#26355C" d="M1299.717,436.408c0.181-4.88,4.283-8.688,9.163-8.508
		c4.88,0.183,8.689,4.284,8.508,9.164c-0.183,4.88-4.284,8.689-9.164,8.508C1303.345,445.391,1299.534,441.288,1299.717,436.408"/>
	<path clip-path="url(#SVGID_2_)" fill="#FFC84B" d="M1267.738,384.008c0-5.303,4.299-9.602,9.602-9.602
		c5.301,0,9.6,4.299,9.6,9.602c0,5.304-4.299,9.603-9.6,9.603C1272.037,393.61,1267.738,389.312,1267.738,384.008"/>
	<path clip-path="url(#SVGID_2_)" fill="#85CCB0" d="M1294.91,370.982c0,5.824-4.722,10.545-10.545,10.545
		c-5.824,0-10.545-4.721-10.545-10.545c0-5.822,4.721-10.545,10.545-10.545C1290.188,360.438,1294.91,365.16,1294.91,370.982"/>
	<path clip-path="url(#SVGID_2_)" fill="#FFC84B" d="M1289.002,373.573c0-5.398,4.376-9.774,9.774-9.774
		c5.399,0,9.775,4.376,9.775,9.774s-4.376,9.774-9.775,9.774C1293.378,383.348,1289.002,378.972,1289.002,373.573"/>
	<path clip-path="url(#SVGID_2_)" fill="#EF4D58" d="M1315.98,436.116c0-4.78,3.877-8.657,8.658-8.657s8.657,3.877,8.657,8.657
		c0,4.782-3.876,8.658-8.657,8.658S1315.98,440.898,1315.98,436.116"/>
	<path clip-path="url(#SVGID_2_)" fill="#FFC84B" d="M1284.2,413.644c0,3.478,2.816,6.295,6.294,6.295
		c3.477,0,6.295-2.817,6.295-6.295c0-3.477-2.818-6.295-6.295-6.295C1287.017,407.349,1284.2,410.167,1284.2,413.644"/>
	<path clip-path="url(#SVGID_2_)" fill="#26355C" d="M1327.036,412.275c0-4.612,3.739-8.353,8.354-8.353
		c4.613,0,8.354,3.74,8.354,8.353c0,4.614-3.74,8.354-8.354,8.354C1330.775,420.63,1327.036,416.89,1327.036,412.275"/>
	<path clip-path="url(#SVGID_2_)" fill="#EF4D58" d="M1360.179,377.009c0,9.152-7.419,16.571-16.571,16.571
		c-9.153,0-16.572-7.419-16.572-16.571c0-9.151,7.419-16.57,16.572-16.57C1352.76,360.438,1360.179,367.857,1360.179,377.009"/>
	<path clip-path="url(#SVGID_2_)" fill="#EF4D58" d="M1329.481,278.348c0,4.539-3.68,8.218-8.218,8.218
		c-4.539,0-8.219-3.679-8.219-8.218s3.68-8.218,8.219-8.218C1325.802,270.129,1329.481,273.809,1329.481,278.348"/>
	<path clip-path="url(#SVGID_2_)" fill="#26355C" d="M1370.652,358.694c0,4.108-3.33,7.438-7.438,7.438s-7.438-3.33-7.438-7.438
		c0-4.107,3.33-7.438,7.438-7.438S1370.652,354.587,1370.652,358.694"/>
	<path clip-path="url(#SVGID_2_)" fill="#4E6988" d="M1359.062,381.321c0-6.771,5.487-12.26,12.26-12.26
		c6.77,0,12.259,5.489,12.259,12.26c0,6.771-5.489,12.26-12.259,12.26C1364.549,393.581,1359.062,388.093,1359.062,381.321"/>
	<path clip-path="url(#SVGID_2_)" fill="#26355C" d="M1354.823,522.884c0-3.436,2.784-6.221,6.221-6.221
		c3.435,0,6.22,2.785,6.22,6.221c0,3.437-2.785,6.222-6.22,6.222C1357.607,529.105,1354.823,526.32,1354.823,522.884"/>
	<path clip-path="url(#SVGID_2_)" fill="#26355C" d="M1377.125,399.013c0-3.927,3.183-7.108,7.108-7.108
		c3.927,0,7.11,3.182,7.11,7.108c0,3.928-3.184,7.109-7.11,7.109C1380.308,406.122,1377.125,402.94,1377.125,399.013"/>
	<path clip-path="url(#SVGID_2_)" fill="#EF4D58" d="M1255.453,293.137c0-7.741,6.275-14.018,14.019-14.018
		c7.742,0,14.017,6.276,14.017,14.018c0,7.742-6.274,14.02-14.017,14.02C1261.729,307.156,1255.453,300.879,1255.453,293.137"/>
	<path clip-path="url(#SVGID_2_)" fill="#85CCB0" d="M1235.165,300.695c0,8.409-6.817,15.228-15.228,15.228
		s-15.227-6.818-15.227-15.228s6.816-15.227,15.227-15.227S1235.165,292.286,1235.165,300.695"/>
	<path clip-path="url(#SVGID_2_)" fill="#85CCB0" d="M1205.879,218.264c0,8.095-6.563,14.657-14.656,14.657
		c-8.096,0-14.657-6.562-14.657-14.657c0-8.095,6.562-14.657,14.657-14.657C1199.316,203.606,1205.879,210.168,1205.879,218.264"/>
	<path clip-path="url(#SVGID_2_)" fill="#EF4D58" d="M1289.45,127.32c0-3.961,3.211-7.172,7.172-7.172s7.172,3.211,7.172,7.172
		c0,3.961-3.211,7.172-7.172,7.172S1289.45,131.281,1289.45,127.32"/>
	<path clip-path="url(#SVGID_2_)" fill="#26355C" d="M1297.364,154.5c0-3.836,3.108-6.945,6.944-6.945s6.946,3.109,6.946,6.945
		c0,3.835-3.11,6.945-6.946,6.945S1297.364,158.335,1297.364,154.5"/>
	<path clip-path="url(#SVGID_2_)" fill="#85CCB0" d="M1290.098,182.104c0-4.117,3.337-7.454,7.453-7.454
		c4.115,0,7.452,3.337,7.452,7.454c0,4.116-3.337,7.453-7.452,7.453C1293.435,189.556,1290.098,186.219,1290.098,182.104"/>
	<path clip-path="url(#SVGID_2_)" fill="#4E6988" d="M1301.83,207.081c0,5.167-4.188,9.355-9.354,9.355
		c-5.167,0-9.355-4.188-9.355-9.355s4.188-9.355,9.355-9.355C1297.642,197.726,1301.83,201.914,1301.83,207.081"/>
	<path clip-path="url(#SVGID_2_)" fill="#85CCB0" d="M1285.506,226.372c0-6.638,5.381-12.019,12.019-12.019
		c6.637,0,12.02,5.381,12.02,12.019c0,6.638-5.383,12.02-12.02,12.02C1290.887,238.392,1285.506,233.01,1285.506,226.372"/>
	<path clip-path="url(#SVGID_2_)" fill="#85CCB0" d="M1302.46,254.542c0-7.572,6.139-13.71,13.71-13.71
		c7.572,0,13.71,6.138,13.71,13.71c0,7.572-6.138,13.71-13.71,13.71C1308.599,268.251,1302.46,262.113,1302.46,254.542"/>
	<path clip-path="url(#SVGID_2_)" fill="#85CCB0" d="M1203.15,344.448c0,9.325-7.562,16.887-16.887,16.887
		s-16.885-7.562-16.885-16.887c0-9.326,7.56-16.886,16.885-16.886S1203.15,335.122,1203.15,344.448"/>
	<path clip-path="url(#SVGID_2_)" fill="#85CCB0" d="M1179.286,417.919c0,3.117-2.527,5.645-5.645,5.645s-5.643-2.527-5.643-5.645
		c0-3.115,2.525-5.644,5.643-5.644S1179.286,414.804,1179.286,417.919"/>
	<path clip-path="url(#SVGID_2_)" fill="#4E6988" d="M1198.416,396.398c0,4.94-4.005,8.945-8.946,8.945s-8.946-4.005-8.946-8.945
		c0-4.939,4.005-8.944,8.946-8.944S1198.416,391.459,1198.416,396.398"/>
	<path clip-path="url(#SVGID_2_)" fill="#4E6988" d="M1311.365,353.512c0,4.544-3.685,8.229-8.229,8.229
		c-4.543,0-8.227-3.685-8.227-8.229s3.684-8.228,8.227-8.228C1307.681,345.284,1311.365,348.968,1311.365,353.512"/>
	<path clip-path="url(#SVGID_2_)" fill="#EF4D58" d="M1321.734,410.676c0,4.544-3.685,8.229-8.229,8.229
		c-4.543,0-8.227-3.685-8.227-8.229s3.684-8.228,8.227-8.228C1318.05,402.448,1321.734,406.132,1321.734,410.676"/>
	<path clip-path="url(#SVGID_2_)" fill="#85CCB0" d="M1236.517,255.892c0,4.951-4.015,8.964-8.966,8.964
		c-4.95,0-8.965-4.013-8.965-8.964c0-4.951,4.015-8.965,8.965-8.965C1232.502,246.927,1236.517,250.941,1236.517,255.892"/>
	<path clip-path="url(#SVGID_2_)" fill="#FFC84B" d="M1175.014,135.743c0,2.903-2.354,5.257-5.258,5.257s-5.258-2.354-5.258-5.257
		c0-2.903,2.354-5.257,5.258-5.257S1175.014,132.839,1175.014,135.743"/>
	<path clip-path="url(#SVGID_2_)" fill="#FFC84B" d="M1151.472,88.709c0,7.731-6.269,13.999-13.999,13.999
		c-7.731,0-13.999-6.268-13.999-13.999c0-7.732,6.268-14,13.999-14C1145.203,74.709,1151.472,80.977,1151.472,88.709"/>
	<path clip-path="url(#SVGID_2_)" fill="#85CCB0" d="M1206.13,170.336c0,4.299-3.485,7.784-7.784,7.784s-7.784-3.485-7.784-7.784
		c0-4.299,3.485-7.784,7.784-7.784S1206.13,166.037,1206.13,170.336"/>
	<path clip-path="url(#SVGID_2_)" fill="#EF4D58" d="M1346.173,71.309c0,6.035-4.894,10.928-10.929,10.928
		c-6.034,0-10.927-4.893-10.927-10.928c0-6.035,4.893-10.928,10.927-10.928C1341.279,60.381,1346.173,65.274,1346.173,71.309"/>
	<path clip-path="url(#SVGID_2_)" fill="#4E6988" d="M1479.712,27.902c0,5.07-4.11,9.18-9.182,9.18c-5.068,0-9.179-4.11-9.179-9.18
		c0-5.07,4.11-9.18,9.179-9.18C1475.602,18.722,1479.712,22.832,1479.712,27.902"/>
	<path clip-path="url(#SVGID_2_)" fill="#85CCB0" d="M1410.847,77.643c0,2.716-2.201,4.917-4.917,4.917
		c-2.717,0-4.918-2.201-4.918-4.917c0-2.716,2.201-4.917,4.918-4.917C1408.646,72.726,1410.847,74.927,1410.847,77.643"/>
	<path clip-path="url(#SVGID_2_)" fill="#FFC84B" d="M1435.661,50.426c0,3.638-2.949,6.587-6.587,6.587
		c-3.64,0-6.588-2.949-6.588-6.587c0-3.638,2.948-6.587,6.588-6.587C1432.712,43.839,1435.661,46.788,1435.661,50.426"/>
	<path clip-path="url(#SVGID_2_)" fill="#EF4D58" d="M1455.782,34.161c0,3.436-2.785,6.22-6.222,6.22c-3.435,0-6.22-2.784-6.22-6.22
		c0-3.435,2.785-6.22,6.22-6.22C1452.997,27.941,1455.782,30.726,1455.782,34.161"/>
	<path clip-path="url(#SVGID_2_)" fill="#85CCB0" d="M1458.775,63.247c0,8.524-6.91,15.434-15.436,15.434
		c-8.522,0-15.433-6.91-15.433-15.434s6.91-15.434,15.433-15.434C1451.865,47.813,1458.775,54.723,1458.775,63.247"/>
	<path clip-path="url(#SVGID_2_)" fill="#85CCB0" d="M1371.183,25.966c0,4.456-3.612,8.067-8.067,8.067
		c-4.456,0-8.068-3.611-8.068-8.067c0-4.455,3.612-8.067,8.068-8.067C1367.57,17.898,1371.183,21.511,1371.183,25.966"/>
	<path clip-path="url(#SVGID_2_)" fill="#26355C" d="M1413.386,35.782c0,8.088-6.558,14.644-14.646,14.644
		c-8.087,0-14.644-6.556-14.644-14.644c0-8.088,6.557-14.644,14.644-14.644C1406.828,21.138,1413.386,27.693,1413.386,35.782"/>
	<path clip-path="url(#SVGID_2_)" fill="#EF4D58" d="M1395.108,124.643c0-7.268,5.892-13.16,13.159-13.16
		c7.269,0,13.16,5.892,13.16,13.16s-5.892,13.16-13.16,13.16C1401,137.802,1395.108,131.911,1395.108,124.643"/>
	<path clip-path="url(#SVGID_2_)" fill="#85CCB0" d="M1373.739,46.654c0-3.253,2.637-5.89,5.89-5.89s5.889,2.637,5.889,5.89
		s-2.636,5.89-5.889,5.89S1373.739,49.907,1373.739,46.654"/>
	<path clip-path="url(#SVGID_2_)" fill="#FFC84B" d="M1341.355,43.839c0-5.143,4.169-9.312,9.312-9.312s9.313,4.169,9.313,9.312
		s-4.17,9.312-9.313,9.312S1341.355,48.982,1341.355,43.839"/>
	<path clip-path="url(#SVGID_2_)" fill="#26355C" d="M1359.274,59.598c0-7.148,5.795-12.944,12.942-12.944
		c7.149,0,12.944,5.796,12.944,12.944s-5.795,12.944-12.944,12.944C1365.069,72.542,1359.274,66.746,1359.274,59.598"/>
	<path clip-path="url(#SVGID_2_)" fill="#4E6988" d="M1356.642,62.688c0,2.814-2.281,5.095-5.096,5.095
		c-2.813,0-5.094-2.281-5.094-5.095s2.281-5.095,5.094-5.095C1354.36,57.593,1356.642,59.875,1356.642,62.688"/>
	<path clip-path="url(#SVGID_2_)" fill="#85CCB0" d="M1337.036,72.235c0-3.376,2.735-6.113,6.111-6.113s6.114,2.737,6.114,6.113
		s-2.738,6.113-6.114,6.113S1337.036,75.611,1337.036,72.235"/>
	<path clip-path="url(#SVGID_2_)" fill="#4E6988" d="M1391.438,69.38c0,3.696-2.996,6.692-6.691,6.692
		c-3.697,0-6.693-2.996-6.693-6.692c0-3.696,2.996-6.692,6.693-6.692C1388.441,62.688,1391.438,65.684,1391.438,69.38"/>
	<path clip-path="url(#SVGID_2_)" fill="#4E6988" d="M1145.15,56.607c0,3.696-2.996,6.692-6.692,6.692
		c-3.697,0-6.692-2.996-6.692-6.692c0-3.696,2.995-6.692,6.692-6.692C1142.154,49.915,1145.15,52.911,1145.15,56.607"/>
	<path clip-path="url(#SVGID_2_)" fill="#26355C" d="M1422.486,74.882c0,3.926-3.184,7.109-7.108,7.109
		c-3.927,0-7.11-3.183-7.11-7.109c0-3.926,3.184-7.109,7.11-7.109C1419.303,67.773,1422.486,70.956,1422.486,74.882"/>
	<path clip-path="url(#SVGID_2_)" fill="#FFC84B" d="M1411.894,95.583c0-3.485,2.825-6.31,6.31-6.31c3.485,0,6.311,2.825,6.311,6.31
		c0,3.485-2.825,6.31-6.311,6.31C1414.719,101.893,1411.894,99.067,1411.894,95.583"/>
	<path clip-path="url(#SVGID_2_)" fill="#85CCB0" d="M1422.923,30.921c0-2.015,1.633-3.648,3.647-3.648
		c2.016,0,3.648,1.633,3.648,3.648s-1.633,3.648-3.648,3.648C1424.556,34.569,1422.923,32.937,1422.923,30.921"/>
	<path clip-path="url(#SVGID_2_)" fill="#EF4D58" d="M1418.423,33.644c-4.304,0-7.79-3.488-7.79-7.791c0-4.302,3.486-7.79,7.79-7.79
		c4.303,0,7.791,3.488,7.791,7.79C1426.214,30.155,1422.726,33.644,1418.423,33.644"/>
	<path clip-path="url(#SVGID_2_)" fill="#4E6988" d="M1401.052,108.438c0-2.483,2.013-4.497,4.497-4.497
		c2.482,0,4.496,2.014,4.496,4.497c0,2.484-2.014,4.497-4.496,4.497C1403.064,112.936,1401.052,110.922,1401.052,108.438"/>
	<path clip-path="url(#SVGID_2_)" fill="#85CCB0" d="M1380.563,98.85c0-3.732,3.024-6.757,6.757-6.757
		c3.731,0,6.758,3.025,6.758,6.757s-3.026,6.758-6.758,6.758C1383.588,105.608,1380.563,102.582,1380.563,98.85"/>
	<path clip-path="url(#SVGID_2_)" fill="#FFC84B" d="M1347.617,103.826c0-10.615,8.604-19.22,19.221-19.22
		c10.614,0,19.219,8.605,19.219,19.22c0,10.615-8.604,19.22-19.219,19.22C1356.222,123.046,1347.617,114.441,1347.617,103.826"/>
	<path clip-path="url(#SVGID_2_)" fill="#FFC84B" d="M1404.447,58.413c0,2.67-2.164,4.834-4.834,4.834s-4.834-2.164-4.834-4.834
		c0-2.669,2.164-4.833,4.834-4.833S1404.447,55.744,1404.447,58.413"/>
	<path clip-path="url(#SVGID_2_)" fill="#4E6988" d="M1358.039,102.074c0,8.092-6.561,14.652-14.651,14.652
		c-8.093,0-14.653-6.56-14.653-14.652c0-8.092,6.561-14.652,14.653-14.652C1351.479,87.421,1358.039,93.981,1358.039,102.074"/>
	<path clip-path="url(#SVGID_2_)" fill="#85CCB0" d="M1382.76,120.775c0-2.136,1.73-3.868,3.867-3.868s3.867,1.732,3.867,3.868
		c0,2.136-1.73,3.868-3.867,3.868S1382.76,122.911,1382.76,120.775"/>
	<path clip-path="url(#SVGID_2_)" fill="#85CCB0" d="M1394.269,155.221c0-2.952,2.393-5.345,5.345-5.345s5.345,2.393,5.345,5.345
		c0,2.952-2.393,5.345-5.345,5.345S1394.269,158.172,1394.269,155.221"/>
	<path clip-path="url(#SVGID_2_)" fill="#EF4D58" d="M1373.764,161.446c0-4.604,3.731-8.336,8.336-8.336
		c4.603,0,8.336,3.732,8.336,8.336s-3.733,8.335-8.336,8.335C1377.495,169.781,1373.764,166.05,1373.764,161.446"/>
	<path clip-path="url(#SVGID_2_)" fill="#4E6988" d="M1384.102,142.882c0,2.861-2.319,5.181-5.183,5.181
		c-2.86,0-5.18-2.32-5.18-5.181c0-2.862,2.319-5.181,5.18-5.181C1381.782,137.701,1384.102,140.02,1384.102,142.882"/>
	<path clip-path="url(#SVGID_2_)" fill="#4E6988" d="M1440.842,92.093c0,2.861-2.319,5.181-5.182,5.181
		c-2.86,0-5.181-2.32-5.181-5.181c0-2.861,2.32-5.181,5.181-5.181C1438.522,86.912,1440.842,89.231,1440.842,92.093"/>
	<path clip-path="url(#SVGID_2_)" fill="#EF4D58" d="M1370.671,147.687c0,3.147-2.552,5.698-5.698,5.698
		c-3.148,0-5.698-2.551-5.698-5.698s2.55-5.698,5.698-5.698C1368.119,141.988,1370.671,144.54,1370.671,147.687"/>
	<path clip-path="url(#SVGID_2_)" fill="#85CCB0" d="M1387.099,184.694c0,3.245-2.632,5.875-5.876,5.875
		c-3.245,0-5.875-2.63-5.875-5.875c0-3.245,2.63-5.875,5.875-5.875C1384.467,178.819,1387.099,181.449,1387.099,184.694"/>
	<path clip-path="url(#SVGID_2_)" fill="#85CCB0" d="M1344.534,222.506c0,3.245-2.632,5.875-5.875,5.875
		c-3.245,0-5.876-2.63-5.876-5.875c0-3.245,2.631-5.875,5.876-5.875C1341.902,216.631,1344.534,219.261,1344.534,222.506"/>
	<path clip-path="url(#SVGID_2_)" fill="#85CCB0" d="M1339.664,168.397c0,4.776-3.872,8.648-8.647,8.648
		c-4.776,0-8.648-3.872-8.648-8.648s3.872-8.648,8.648-8.648C1335.792,159.749,1339.664,163.621,1339.664,168.397"/>
	<path clip-path="url(#SVGID_2_)" fill="#FFC84B" d="M1357.569,165.772c0,6.226-5.048,11.272-11.271,11.272
		c-6.226,0-11.272-5.046-11.272-11.272s5.047-11.272,11.272-11.272C1352.521,154.5,1357.569,159.546,1357.569,165.772"/>
	<path clip-path="url(#SVGID_2_)" fill="#85CCB0" d="M1372.961,197.726c0,7.559-6.128,13.687-13.688,13.687
		c-7.559,0-13.687-6.128-13.687-13.687s6.128-13.687,13.687-13.687C1366.833,184.039,1372.961,190.167,1372.961,197.726"/>
	<path clip-path="url(#SVGID_2_)" fill="#85CCB0" d="M1356.642,177.237c0,2.814-2.281,5.095-5.096,5.095
		c-2.813,0-5.094-2.281-5.094-5.095s2.281-5.095,5.094-5.095C1354.36,172.142,1356.642,174.423,1356.642,177.237"/>
	<path clip-path="url(#SVGID_2_)" fill="#4E6988" d="M1368.977,214.353c0,3.763-3.051,6.813-6.813,6.813
		c-3.763,0-6.813-3.05-6.813-6.813c0-3.763,3.051-6.813,6.813-6.813C1365.926,207.54,1368.977,210.59,1368.977,214.353"/>
	<path clip-path="url(#SVGID_2_)" fill="#26355C" d="M1354.435,237.211c0,7.149-5.796,12.944-12.945,12.944
		s-12.945-5.795-12.945-12.944s5.796-12.945,12.945-12.945S1354.435,230.063,1354.435,237.211"/>
	<path clip-path="url(#SVGID_2_)" fill="#85CCB0" d="M1335.449,314.565c0,2.985-2.42,5.404-5.405,5.404
		c-2.986,0-5.406-2.419-5.406-5.404c0-2.984,2.42-5.404,5.406-5.404C1333.029,309.161,1335.449,311.581,1335.449,314.565"/>
	<path clip-path="url(#SVGID_2_)" fill="#85CCB0" d="M1343.453,259.15c0,2.985-2.42,5.405-5.405,5.405
		c-2.986,0-5.406-2.42-5.406-5.405c0-2.985,2.42-5.405,5.406-5.405C1341.033,253.745,1343.453,256.165,1343.453,259.15"/>
	<path clip-path="url(#SVGID_2_)" fill="#85CCB0" d="M1376.668,411.777c0,8.266-6.7,14.965-14.965,14.965
		s-14.965-6.699-14.965-14.965c0-8.265,6.7-14.964,14.965-14.964S1376.668,403.513,1376.668,411.777"/>
	<path clip-path="url(#SVGID_2_)" fill="#85CCB0" d="M1346.739,447.632c0,6.018-4.878,10.896-10.896,10.896
		c-6.016,0-10.894-4.878-10.894-10.896s4.878-10.896,10.894-10.896C1341.861,436.736,1346.739,441.614,1346.739,447.632"/>
	<path clip-path="url(#SVGID_2_)" fill="#26355C" d="M1325.456,461.322c0,3.013-2.441,5.454-5.453,5.454
		c-3.013,0-5.454-2.441-5.454-5.454c0-3.012,2.441-5.454,5.454-5.454C1323.015,455.868,1325.456,458.311,1325.456,461.322"/>
	<path clip-path="url(#SVGID_2_)" fill="#FFC84B" d="M1341.61,470.691c0,3.378-2.739,6.116-6.117,6.116s-6.117-2.738-6.117-6.116
		c0-3.379,2.739-6.116,6.117-6.116S1341.61,467.313,1341.61,470.691"/>
	<path clip-path="url(#SVGID_2_)" fill="#FFC84B" d="M1360.383,476.179c0,3.03-2.457,5.486-5.487,5.486
		c-3.031,0-5.488-2.456-5.488-5.486s2.457-5.486,5.488-5.486C1357.926,470.692,1360.383,473.148,1360.383,476.179"/>
	<path clip-path="url(#SVGID_2_)" fill="#FFC84B" d="M1365.823,454.741c0,3.636-2.947,6.581-6.582,6.581
		c-3.636,0-6.581-2.945-6.581-6.581c0-3.635,2.945-6.582,6.581-6.582C1362.876,448.159,1365.823,451.106,1365.823,454.741"/>
	<path clip-path="url(#SVGID_2_)" fill="#EF4D58" d="M1358.222,433.336c0,3.171-2.57,5.741-5.741,5.741s-5.741-2.57-5.741-5.741
		s2.57-5.74,5.741-5.74S1358.222,430.165,1358.222,433.336"/>
	<path clip-path="url(#SVGID_2_)" fill="#4E6988" d="M1375.379,440.439c0,2.64-2.14,4.777-4.778,4.777s-4.778-2.138-4.778-4.777
		s2.14-4.777,4.778-4.777S1375.379,437.8,1375.379,440.439"/>
	<path clip-path="url(#SVGID_2_)" fill="#26355C" d="M1386.932,459.142c0,3.19-2.586,5.776-5.776,5.776s-5.777-2.586-5.777-5.776
		c0-3.188,2.587-5.775,5.777-5.775S1386.932,455.953,1386.932,459.142"/>
	<path clip-path="url(#SVGID_2_)" fill="#EF4D58" d="M1378.533,436.736c0-3.147,2.553-5.699,5.701-5.699s5.699,2.552,5.699,5.699
		c0,3.148-2.551,5.7-5.699,5.7S1378.533,439.885,1378.533,436.736"/>
	<path clip-path="url(#SVGID_2_)" fill="#FFC84B" d="M1389.923,417.919c0-3.115,2.525-5.644,5.644-5.644
		c3.117,0,5.644,2.528,5.644,5.644c0,3.117-2.526,5.645-5.644,5.645C1392.448,423.563,1389.923,421.036,1389.923,417.919"/>
	<path clip-path="url(#SVGID_2_)" fill="#FFC84B" d="M1294.867,187.348c0,7.013-5.687,12.698-12.698,12.698
		c-7.013,0-12.698-5.685-12.698-12.698c0-7.013,5.686-12.698,12.698-12.698C1289.181,174.649,1294.867,180.334,1294.867,187.348"/>
	<path clip-path="url(#SVGID_2_)" fill="#FFC84B" d="M1377.293,346.981c0,6.327-5.129,11.455-11.455,11.455
		s-11.455-5.128-11.455-11.455c0-6.326,5.129-11.454,11.455-11.454S1377.293,340.655,1377.293,346.981"/>
	<path clip-path="url(#SVGID_2_)" fill="#FFC84B" d="M1184.413,64.681c0,4.568-3.703,8.271-8.271,8.271
		c-4.567,0-8.271-3.703-8.271-8.271c0-4.568,3.703-8.271,8.271-8.271C1180.71,56.41,1184.413,60.112,1184.413,64.681"/>
	<path clip-path="url(#SVGID_2_)" fill="#FFC84B" d="M1418.238,449.866c0,2.057-1.667,3.724-3.725,3.724
		c-2.056,0-3.722-1.667-3.722-3.724s1.666-3.724,3.722-3.724C1416.571,446.143,1418.238,447.81,1418.238,449.866"/>
	<path clip-path="url(#SVGID_2_)" fill="#EF4D58" d="M1412.959,453.365c0,2.999-2.432,5.432-5.431,5.432s-5.429-2.433-5.429-5.432
		c0-2.998,2.43-5.43,5.429-5.43S1412.959,450.367,1412.959,453.365"/>
	<path clip-path="url(#SVGID_2_)" fill="#26355C" d="M1409.4,434.042c0,3.776-3.062,6.837-6.837,6.837s-6.837-3.061-6.837-6.837
		c0-3.774,3.062-6.837,6.837-6.837S1409.4,430.268,1409.4,434.042"/>
	<path clip-path="url(#SVGID_2_)" fill="#26355C" d="M1428.501,472.155c0,4.533-3.675,8.207-8.207,8.207s-8.207-3.674-8.207-8.207
		c0-4.531,3.675-8.207,8.207-8.207S1428.501,467.624,1428.501,472.155"/>
	<path clip-path="url(#SVGID_2_)" fill="#FFC84B" d="M1448.474,516.136c0,1.829-1.482,3.313-3.313,3.313
		c-1.829,0-3.311-1.483-3.311-3.313s1.481-3.312,3.311-3.312C1446.991,512.824,1448.474,514.307,1448.474,516.136"/>
	<path clip-path="url(#SVGID_2_)" fill="#85CCB0" d="M1459.716,525.306c0,2.438-1.978,4.414-4.415,4.414
		c-2.438,0-4.415-1.976-4.415-4.414c0-2.438,1.977-4.415,4.415-4.415C1457.738,520.891,1459.716,522.868,1459.716,525.306"/>
	<path clip-path="url(#SVGID_2_)" fill="#EF4D58" d="M1463.933,492.878c0,7.205-5.841,13.047-13.048,13.047
		c-7.204,0-13.045-5.842-13.045-13.047c0-7.206,5.841-13.047,13.045-13.047C1458.092,479.831,1463.933,485.672,1463.933,492.878"/>
	<path clip-path="url(#SVGID_2_)" fill="#4E6988" d="M1443.902,458.493c0,5.831-4.728,10.559-10.559,10.559
		s-10.557-4.728-10.557-10.559c0-5.83,4.726-10.558,10.557-10.558S1443.902,452.663,1443.902,458.493"/>
	<path clip-path="url(#SVGID_2_)" fill="#FFC84B" d="M1432.492,519.776c0,6.063-4.914,10.979-10.978,10.979
		c-6.062,0-10.977-4.916-10.977-10.979c0-6.062,4.915-10.977,10.977-10.977C1427.578,508.8,1432.492,513.715,1432.492,519.776"/>
	<path clip-path="url(#SVGID_2_)" fill="#26355C" d="M1409.689,495.467c0,2.37-1.921,4.291-4.29,4.291
		c-2.37,0-4.291-1.921-4.291-4.291c0-2.368,1.921-4.29,4.291-4.29C1407.769,491.177,1409.689,493.099,1409.689,495.467"/>
	<path clip-path="url(#SVGID_2_)" fill="#85CCB0" d="M1428.123,431.036c0,5.581-4.524,10.104-10.105,10.104
		c-5.582,0-10.104-4.523-10.104-10.104s4.522-10.104,10.104-10.104C1423.599,420.932,1428.123,425.455,1428.123,431.036"/>
	<path clip-path="url(#SVGID_2_)" fill="#4E6988" d="M1379.358,486.851c0,12.113-9.819,21.934-21.934,21.934
		c-12.112,0-21.932-9.82-21.932-21.934c0-12.111,9.819-21.933,21.932-21.933C1369.539,464.918,1379.358,474.739,1379.358,486.851"/>
	<path clip-path="url(#SVGID_2_)" fill="#4E6988" d="M1473.391,509.987c0,2.856-2.315,5.172-5.171,5.172
		c-2.856,0-5.173-2.315-5.173-5.172c0-2.855,2.316-5.172,5.173-5.172C1471.075,504.815,1473.391,507.132,1473.391,509.987"/>
	<path clip-path="url(#SVGID_2_)" fill="#FFC84B" d="M1376.173,506.83c0,2.854-2.313,5.165-5.165,5.165
		c-2.854,0-5.165-2.312-5.165-5.165c0-2.853,2.312-5.165,5.165-5.165C1373.859,501.665,1376.173,503.978,1376.173,506.83"/>
	<path clip-path="url(#SVGID_2_)" fill="#EF4D58" d="M1373.779,472.68c0,3.276-2.656,5.934-5.934,5.934
		c-3.275,0-5.932-2.657-5.932-5.934c0-3.275,2.656-5.933,5.932-5.933C1371.123,466.747,1373.779,469.404,1373.779,472.68"/>
	<path clip-path="url(#SVGID_2_)" fill="#EF4D58" d="M1479.323,523.764c0,3.276-2.655,5.934-5.934,5.934
		c-3.275,0-5.932-2.657-5.932-5.934s2.656-5.933,5.932-5.933C1476.668,517.831,1479.323,520.487,1479.323,523.764"/>
	<path clip-path="url(#SVGID_2_)" fill="#85CCB0" d="M1389.242,481.769c0,2.553-2.069,4.621-4.621,4.621
		c-2.553,0-4.621-2.068-4.621-4.621c0-2.552,2.068-4.621,4.621-4.621C1387.173,477.147,1389.242,479.217,1389.242,481.769"/>
	<path clip-path="url(#SVGID_2_)" fill="#EF4D58" d="M1406.302,461.976c0,5.062-4.103,9.163-9.162,9.163
		c-5.062,0-9.163-4.102-9.163-9.163c0-5.061,4.102-9.162,9.163-9.162C1402.199,452.813,1406.302,456.915,1406.302,461.976"/>
	<path clip-path="url(#SVGID_2_)" fill="#FFC84B" d="M1407.529,472.68c0,3.276-2.656,5.934-5.934,5.934
		c-3.275,0-5.932-2.657-5.932-5.934c0-3.275,2.656-5.933,5.932-5.933C1404.873,466.747,1407.529,469.404,1407.529,472.68"/>
	<path clip-path="url(#SVGID_2_)" fill="#FFC84B" d="M1320.779,422.691c2.492,2.256,2.685,6.106,0.428,8.601
		c-2.256,2.493-6.107,2.684-8.6,0.428c-2.493-2.257-2.685-6.107-0.43-8.6C1314.435,420.627,1318.286,420.435,1320.779,422.691"/>
	<path clip-path="url(#SVGID_2_)" fill="#FFC84B" d="M1405.399,394.64c0,5.42-4.395,9.813-9.813,9.813s-9.813-4.394-9.813-9.813
		c0-5.419,4.394-9.813,9.813-9.813S1405.399,389.221,1405.399,394.64"/>
	<path clip-path="url(#SVGID_2_)" fill="#26355C" d="M1334.157,298.502c0-4.162,3.375-7.537,7.537-7.537
		c4.163,0,7.536,3.375,7.536,7.537c0,4.163-3.373,7.537-7.536,7.537C1337.532,306.039,1334.157,302.665,1334.157,298.502"/>
	<path clip-path="url(#SVGID_2_)" fill="#FFC84B" d="M1377.521,526.185c0,2.188-1.773,3.962-3.961,3.962s-3.962-1.773-3.962-3.962
		c0-2.188,1.774-3.961,3.962-3.961S1377.521,523.997,1377.521,526.185"/>
	<path clip-path="url(#SVGID_2_)" fill="#FFC84B" d="M1336.701,391.547c0-2.35,1.904-4.254,4.255-4.254
		c2.349,0,4.254,1.904,4.254,4.254c0,2.351-1.905,4.255-4.254,4.255C1338.605,395.802,1336.701,393.897,1336.701,391.547"/>
	<path clip-path="url(#SVGID_2_)" fill="#4E6988" d="M1433.601,525.306c0-2.74,2.222-4.964,4.963-4.964s4.964,2.224,4.964,4.964
		c0,2.741-2.223,4.964-4.964,4.964S1433.601,528.047,1433.601,525.306"/>
	<path clip-path="url(#SVGID_2_)" fill="#85CCB0" d="M1411.478,502.972c0-7.213,5.848-13.06,13.06-13.06s13.059,5.847,13.059,13.06
		c0,7.212-5.847,13.06-13.059,13.06S1411.478,510.184,1411.478,502.972"/>
	<path clip-path="url(#SVGID_2_)" fill="#FFC84B" d="M1436.498,487.5c0,3.166-2.566,5.732-5.731,5.732
		c-3.166,0-5.733-2.566-5.733-5.732c0-3.165,2.567-5.73,5.733-5.73C1433.932,481.77,1436.498,484.335,1436.498,487.5"/>
	<path clip-path="url(#SVGID_2_)" fill="#EF4D58" d="M1413.504,513.244c0,9.818-7.959,17.777-17.777,17.777
		c-9.819,0-17.778-7.959-17.778-17.777c0-9.816,7.959-17.776,17.778-17.776C1405.545,495.468,1413.504,503.428,1413.504,513.244"/>
	<path clip-path="url(#SVGID_2_)" fill="#4E6988" d="M1064.239,292.217H940.138c-1.506,0-2.741-1.233-2.741-2.741V236.97
		c0-1.507,1.235-2.741,2.741-2.741h124.102c1.508,0,2.741,1.234,2.741,2.741v52.505
		C1066.98,290.983,1065.747,292.217,1064.239,292.217"/>
	<path clip-path="url(#SVGID_2_)" fill="#26355C" d="M929.696,166.794h142.177c2.857,0,4.296-1.432,4.296-4.296v-47.25
		c0-2.858-1.868-4.296-5.585-4.296H924.97c-20.048,0-35.371,6.089-45.962,18.255c-10.596,12.175-15.891,27.995-15.891,47.465
		v197.157c0,5.444,1.214,10.813,3.65,16.107c2.43,5.304,5.651,10.095,9.663,14.391c4.011,4.296,8.593,7.805,13.747,10.523
		c5.156,2.726,10.309,4.081,15.463,4.081h166.232c2.857,0,4.296-1.43,4.296-4.296v-47.247c0-2.862-1.438-4.297-4.296-4.297H929.696
		c-2.867,0-4.296-1.429-4.296-4.296v-62.282c0-0.208,0.063-0.354,0.076-0.543v-65.492c-0.014-0.193-0.076-0.337-0.076-0.545v-58.416
		C925.4,168.369,926.829,166.794,929.696,166.794"/>
	<path clip-path="url(#SVGID_2_)" fill="#26355C" d="M250.824,413.131c-1.575-1.857-2.649-3.931-3.222-6.225l-23.622-72.595
		c-2.297-6.87-4.8-13.528-7.518-19.974c-2.723-6.441-7.375-13.959-13.959-22.55c-0.289-0.571-0.43-1.14-0.43-1.719
		c0-0.86,0.215-1.57,0.645-2.146c0.43-0.573,0.785-1.003,1.074-1.289c7.44-4.007,13.315-8.377,17.611-13.103
		c4.293-4.725,8.442-9.946,12.455-15.677c6.014-11.45,9.022-29.78,9.022-54.98v-9.881c-0.86-27.202-7.733-47.531-20.618-60.995
		c-7.453-7.73-15.036-13.168-22.766-16.321c-7.733-3.148-15.612-4.726-23.625-4.726H16.083c-2.867,0-4.296,1.438-4.296,4.296
		v299.387c0,2.867,1.429,4.296,4.296,4.296h53.692c2.86,0,4.296-1.429,4.296-4.296V309.398c0-2.858,1.428-4.294,4.295-4.294h52.403
		c12.309,1.72,20.471,10.598,24.484,26.63l26.632,75.172c0.57,2.005,1.859,4.508,3.864,7.514c2.001,3.008,3.866,4.511,5.584,4.511
		h59.277c1.718,0,2.577-0.71,2.577-2.146C253.187,416.213,252.397,414.999,250.824,413.131 M179.093,224.352
		c-2.148,6.59-5.23,11.596-9.237,15.033c-4.871,4.012-9.307,6.014-13.314,6.014H78.796c-3.156,0-4.725-1.432-4.725-4.296v-70.016
		c0-2.858,1.428-4.293,4.295-4.293h84.19c6.295,0.859,11.737,6.012,16.322,15.463c1.429,2.864,2.363,5.946,2.793,9.233
		c0.429,3.297,0.644,6.948,0.644,10.955C182.315,210.464,181.241,217.768,179.093,224.352"/>
	<path clip-path="url(#SVGID_2_)" fill="#26355C" d="M477.4,136.295c-3.437-11.166-9.813-18.18-19.117-21.047
		c-9.309-2.858-22.119-4.296-38.444-4.296c-15.752,0-28.207,1.438-37.369,4.296c-9.168,2.867-15.463,9.881-18.9,21.047
		l-87.194,280.06c0,1.717,1.14,2.576,3.434,2.576h55.842c2.858,0,4.723-1.429,5.582-4.296L364,341.186
		c0.859-3.147,2.718-4.727,5.585-4.727h100.941c2.858,0,4.726,1.439,5.585,4.297l22.763,74.31c0.859,2.578,2.721,3.865,5.585,3.865
		h56.268c2.002,0,3.008-0.859,3.008-2.576L477.4,136.295z M452.057,277.613h-64.001c-2.294,0-3.437-0.999-3.437-3.007
		c0-0.281,0.068-0.57,0.214-0.859c0.141-0.28,0.215-0.71,0.215-1.289l30.07-97.934c1.718-5.155,3.287-7.73,4.722-7.73
		c1.432,0,2.431,0.501,3.008,1.501c0.569,1.008,1.288,3.082,2.147,6.229l30.069,97.934c0,0.579,0.066,1.009,0.215,1.289
		c0.14,0.289,0.215,0.578,0.215,0.859C455.493,276.614,454.345,277.613,452.057,277.613"/>
	<path clip-path="url(#SVGID_2_)" fill="#26355C" d="M829.403,413.131c-1.575-1.857-2.647-3.931-3.221-6.225l-23.622-72.595
		c-2.297-6.87-4.8-13.528-7.518-19.974c-2.725-6.441-7.375-13.959-13.959-22.55c-0.29-0.571-0.431-1.14-0.431-1.719
		c0-0.86,0.215-1.57,0.646-2.146c0.429-0.573,0.784-1.003,1.072-1.289c7.441-4.007,13.316-8.377,17.612-13.103
		c4.293-4.725,8.442-9.946,12.455-15.677c6.014-11.45,9.021-29.78,9.021-54.98v-9.881c-0.859-27.202-7.732-47.531-20.618-60.995
		c-7.452-7.73-15.035-13.168-22.767-16.321c-7.731-3.148-15.61-4.726-23.625-4.726H594.664c-2.867,0-4.296,1.438-4.296,4.296
		v299.387c0,2.867,1.429,4.296,4.296,4.296h53.691c2.861,0,4.296-1.429,4.296-4.296V309.398c0-2.858,1.429-4.294,4.296-4.294h52.402
		c12.309,1.72,20.472,10.598,24.485,26.63l26.632,75.172c0.568,2.005,1.857,4.508,3.862,7.514c2.002,3.008,3.866,4.511,5.586,4.511
		h59.276c1.717,0,2.577-0.71,2.577-2.146C831.768,416.213,830.977,414.999,829.403,413.131 M757.673,224.352
		c-2.147,6.59-5.229,11.596-9.236,15.033c-4.872,4.012-9.308,6.014-13.315,6.014h-77.745c-3.157,0-4.726-1.432-4.726-4.296v-70.016
		c0-2.858,1.429-4.293,4.296-4.293h84.19c6.295,0.859,11.736,6.012,16.322,15.463c1.429,2.864,2.361,5.946,2.792,9.233
		c0.43,3.297,0.645,6.948,0.645,10.955C760.896,210.464,759.82,217.768,757.673,224.352"/>
</g>
</svg>
