<svg id="Color" xmlns="http://www.w3.org/2000/svg" viewBox="0 0 549.73 100.52"><defs><style>.cls-1{fill:#575c5e;}.cls-2{fill:#616365;}.cls-3{fill:#c11f3e;}.cls-4{fill:#585b5e;}.cls-5{fill:#626467;}</style></defs><path class="cls-1" d="M218.12,61.68a7,7,0,0,1,0,10.2A9.21,9.21,0,0,1,212,73.72h-5.46v6.41h-2.14V59.83H212A9.21,9.21,0,0,1,218.12,61.68Zm-1.54,8.84a4.59,4.59,0,0,0,1.6-3.73,4.66,4.66,0,0,0-1.6-3.79A7.06,7.06,0,0,0,212,61.68h-5.4V71.84H212A7.06,7.06,0,0,0,216.58,70.52Z"/><path class="cls-1" d="M226.7,79.28a7.32,7.32,0,0,1-2.78-2.77,8.45,8.45,0,0,1,0-8,7.13,7.13,0,0,1,2.78-2.75,8.48,8.48,0,0,1,8,0,7,7,0,0,1,2.77,2.75,8.52,8.52,0,0,1,0,8,7.16,7.16,0,0,1-2.77,2.77,8.4,8.4,0,0,1-8,0Zm6.89-1.57a5.11,5.11,0,0,0,2-2.1,7,7,0,0,0,0-6.21,5.11,5.11,0,0,0-2-2.1,6.11,6.11,0,0,0-5.83,0,5.27,5.27,0,0,0-2,2.1,6.88,6.88,0,0,0,0,6.21,5.27,5.27,0,0,0,2,2.1,6.11,6.11,0,0,0,5.83,0Z"/><path class="cls-1" d="M264.59,64.87l-5.78,15.26h-1.94l-4.81-12.5-4.82,12.5H245.3l-5.75-15.26h2l4.78,13,4.9-13H253l4.88,13,4.84-13Z"/><path class="cls-1" d="M280.54,73.14H267.78A5.4,5.4,0,0,0,269.6,77a6.08,6.08,0,0,0,4.18,1.47,6.53,6.53,0,0,0,2.61-.51,5.62,5.62,0,0,0,2.06-1.49l1.16,1.33a6.53,6.53,0,0,1-2.54,1.86,8.66,8.66,0,0,1-3.35.64,8.56,8.56,0,0,1-4.16-1,7.25,7.25,0,0,1-2.83-2.77,8,8,0,0,1-1-4,8.14,8.14,0,0,1,1-4,7,7,0,0,1,2.67-2.75,7.41,7.41,0,0,1,3.81-1,7.33,7.33,0,0,1,3.8,1,7,7,0,0,1,2.64,2.74,8.2,8.2,0,0,1,1,4Zm-11.07-5.21a5.55,5.55,0,0,0-1.69,3.67H278.6a5.56,5.56,0,0,0-1.7-3.67,5.63,5.63,0,0,0-7.43,0Z"/><path class="cls-1" d="M288.91,65.54a7.37,7.37,0,0,1,3.55-.78v2l-.49,0a4.85,4.85,0,0,0-3.77,1.48,5.9,5.9,0,0,0-1.37,4.15v7.77h-2.06V64.87h2v3A5,5,0,0,1,288.91,65.54Z"/><path class="cls-1" d="M309.31,73.14H296.55A5.45,5.45,0,0,0,298.38,77a6,6,0,0,0,4.18,1.47,6.6,6.6,0,0,0,2.61-.51,5.71,5.71,0,0,0,2.06-1.49l1.16,1.33a6.68,6.68,0,0,1-2.54,1.86,8.69,8.69,0,0,1-3.35.64,8.57,8.57,0,0,1-4.17-1,7.22,7.22,0,0,1-2.82-2.77,7.89,7.89,0,0,1-1-4,8.25,8.25,0,0,1,1-4,7,7,0,0,1,2.67-2.75,7.83,7.83,0,0,1,7.62,0,7,7,0,0,1,2.64,2.74,8.31,8.31,0,0,1,.95,4Zm-11.06-5.21a5.56,5.56,0,0,0-1.7,3.67h10.82a5.51,5.51,0,0,0-1.7-3.67,5.62,5.62,0,0,0-7.42,0Z"/><path class="cls-1" d="M327.47,58.61V80.13h-2v-3a6.35,6.35,0,0,1-2.45,2.35,7.22,7.22,0,0,1-3.44.81,7.7,7.7,0,0,1-3.88-1A7.1,7.1,0,0,1,313,76.53a8.7,8.7,0,0,1,0-8.06,7,7,0,0,1,2.73-2.74,7.79,7.79,0,0,1,3.88-1,7.22,7.22,0,0,1,3.35.77,6.27,6.27,0,0,1,2.45,2.24V58.61Zm-4.8,19.1a5.2,5.2,0,0,0,2-2.1,6.88,6.88,0,0,0,0-6.21,5.2,5.2,0,0,0-2-2.1,5.62,5.62,0,0,0-2.88-.74,5.69,5.69,0,0,0-2.92.74,5.2,5.2,0,0,0-2,2.1,6.88,6.88,0,0,0,0,6.21,5.2,5.2,0,0,0,2,2.1,5.79,5.79,0,0,0,2.92.74A5.72,5.72,0,0,0,322.67,77.71Z"/><path class="cls-1" d="M352.56,65.73a7,7,0,0,1,2.73,2.74,8.7,8.7,0,0,1,0,8.06,7.1,7.1,0,0,1-2.73,2.76,7.7,7.7,0,0,1-3.88,1,7.19,7.19,0,0,1-3.44-.81,6.35,6.35,0,0,1-2.45-2.35v3h-2V58.61h2.05v9.16a6.36,6.36,0,0,1,2.46-2.24,7.22,7.22,0,0,1,3.35-.77A7.79,7.79,0,0,1,352.56,65.73Zm-1.13,12a5.25,5.25,0,0,0,2.05-2.1,6.88,6.88,0,0,0,0-6.21,5.25,5.25,0,0,0-2.05-2.1,6.07,6.07,0,0,0-5.81,0,5.2,5.2,0,0,0-2,2.1,6.88,6.88,0,0,0,0,6.21,5.2,5.2,0,0,0,2,2.1,6.07,6.07,0,0,0,5.81,0Z"/><path class="cls-1" d="M372.87,64.87,365.24,82A7.35,7.35,0,0,1,363.09,85a4.85,4.85,0,0,1-2.93.89,6.06,6.06,0,0,1-2.06-.34,4.44,4.44,0,0,1-1.65-1l1-1.54a3.76,3.76,0,0,0,2.78,1.16,2.81,2.81,0,0,0,1.79-.58,5.15,5.15,0,0,0,1.37-2L364,80.1,357.2,64.87h2.15l5.74,13,5.75-13Z"/><path class="cls-2" d="M274,33.39a11.51,11.51,0,0,1-1.13,5.27,10.62,10.62,0,0,1-3,3.65,12.51,12.51,0,0,1-4.19,2.1,16.89,16.89,0,0,1-4.73.67h-8.67V21.83h8.41a21,21,0,0,1,4.86.57,12.28,12.28,0,0,1,4.27,1.91,9.77,9.77,0,0,1,3,3.56A11.93,11.93,0,0,1,274,33.39m-5.85,0a7.36,7.36,0,0,0-.64-3.27,5.52,5.52,0,0,0-1.7-2.07,7,7,0,0,0-2.44-1.1,11.79,11.79,0,0,0-2.8-.33h-2.8v13.6h2.66a12.08,12.08,0,0,0,2.91-.34,7.07,7.07,0,0,0,2.47-1.13,5.57,5.57,0,0,0,1.7-2.11,7.33,7.33,0,0,0,.64-3.25"/><path class="cls-2" d="M277.19,31a9.38,9.38,0,0,1,3.36-2.07,11.54,11.54,0,0,1,3.93-.69,10.52,10.52,0,0,1,3.5.51,5.23,5.23,0,0,1,2.31,1.58,6.69,6.69,0,0,1,1.3,2.69,16.08,16.08,0,0,1,.41,3.86v8.24h-4.93V43.34H287a4,4,0,0,1-1.88,1.58,6.79,6.79,0,0,1-2.75.56,8.63,8.63,0,0,1-2-.26,5.86,5.86,0,0,1-1.92-.86A4.51,4.51,0,0,1,277,42.79a4.81,4.81,0,0,1-.56-2.44,4.09,4.09,0,0,1,1-2.85,6.38,6.38,0,0,1,2.49-1.68,13.34,13.34,0,0,1,3.4-.79,35.3,35.3,0,0,1,3.65-.19v-.27a2,2,0,0,0-.86-1.79,3.68,3.68,0,0,0-2.1-.57,5.27,5.27,0,0,0-2.22.49,7.23,7.23,0,0,0-1.82,1.18Zm9.88,7h-.69c-.59,0-1.18,0-1.79.08a7.3,7.3,0,0,0-1.61.31,2.93,2.93,0,0,0-1.16.67,1.55,1.55,0,0,0-.46,1.17,1.43,1.43,0,0,0,.21.79,1.58,1.58,0,0,0,.54.52,2,2,0,0,0,.76.28,4,4,0,0,0,.82.09,3.09,3.09,0,0,0,3.38-3.35Z"/><path class="cls-2" d="M301.53,32.74V39a2.78,2.78,0,0,0,.44,1.73,1.88,1.88,0,0,0,1.59.58,5.09,5.09,0,0,0,.84-.07,2.63,2.63,0,0,0,.74-.2l.06,4a9.15,9.15,0,0,1-1.41.34,9.88,9.88,0,0,1-1.71.15,8.19,8.19,0,0,1-2.76-.41,4.33,4.33,0,0,1-1.79-1.19,4.77,4.77,0,0,1-1-1.84,9.32,9.32,0,0,1-.29-2.39V32.74h-2.63v-4h2.6V24.42h5.29v4.31h3.84v4Z"/><path class="cls-2" d="M307.67,31A9.38,9.38,0,0,1,311,28.89,11.54,11.54,0,0,1,315,28.2a10.52,10.52,0,0,1,3.5.51,5.23,5.23,0,0,1,2.31,1.58,6.69,6.69,0,0,1,1.3,2.69,16.08,16.08,0,0,1,.41,3.86v8.24h-4.93V43.34h-.09a4.08,4.08,0,0,1-1.89,1.58,6.79,6.79,0,0,1-2.75.56,8.63,8.63,0,0,1-2-.26,6,6,0,0,1-1.92-.86,4.61,4.61,0,0,1-1.43-1.57,4.81,4.81,0,0,1-.56-2.44,4.09,4.09,0,0,1,1-2.85,6.45,6.45,0,0,1,2.49-1.68,13.44,13.44,0,0,1,3.4-.79,35.3,35.3,0,0,1,3.65-.19v-.27a2,2,0,0,0-.85-1.79,3.71,3.71,0,0,0-2.11-.57,5.19,5.19,0,0,0-2.21.49,7.12,7.12,0,0,0-1.83,1.18Zm9.88,7h-.69c-.59,0-1.18,0-1.79.08a7.42,7.42,0,0,0-1.61.31,3,3,0,0,0-1.16.67,1.55,1.55,0,0,0-.46,1.17,1.43,1.43,0,0,0,.21.79,1.67,1.67,0,0,0,.54.52,2,2,0,0,0,.76.28,4,4,0,0,0,.82.09,3.33,3.33,0,0,0,2.51-.91,3.37,3.37,0,0,0,.87-2.44Z"/><path class="cls-2" d="M204.43,21.83h8a11.79,11.79,0,0,1,2.63.3,6.76,6.76,0,0,1,2.35,1,5.19,5.19,0,0,1,1.67,1.81,5.49,5.49,0,0,1,.64,2.79A4.85,4.85,0,0,1,218.62,31a5.71,5.71,0,0,1-3,1.81v.06a6.61,6.61,0,0,1,2.07.58,5.12,5.12,0,0,1,2.71,2.87,6.15,6.15,0,0,1,.38,2.2,5.75,5.75,0,0,1-2.56,5,8.68,8.68,0,0,1-2.78,1.21,13.26,13.26,0,0,1-3.4.41h-7.65Zm3.25,9.82h4.24a7.11,7.11,0,0,0,1.75-.21,4.29,4.29,0,0,0,1.47-.66,3.3,3.3,0,0,0,1-1.12,3.37,3.37,0,0,0,.36-1.62,2.86,2.86,0,0,0-1.38-2.68,7.29,7.29,0,0,0-3.71-.81h-3.71Zm0,10.68h4.07a11.12,11.12,0,0,0,2.06-.19,5.67,5.67,0,0,0,1.87-.64A3.61,3.61,0,0,0,217,40.27a3.45,3.45,0,0,0,.51-2,3.3,3.3,0,0,0-1.41-3,7.5,7.5,0,0,0-4.07-.92h-4.37Z"/><path class="cls-2" d="M229,23.9a1.85,1.85,0,0,1-.61,1.41,2.06,2.06,0,0,1-1.45.56,2,2,0,0,1-1.43-.58,1.87,1.87,0,0,1-.59-1.39,1.92,1.92,0,0,1,.59-1.43,2,2,0,0,1,1.43-.57,2,2,0,0,1,1.45.57A1.9,1.9,0,0,1,229,23.9m-.5,21.19h-3.09V29.52h3.09Z"/><path class="cls-2" d="M249.62,37.27a8.4,8.4,0,0,1-.64,3.32,7.84,7.84,0,0,1-1.77,2.61,8.09,8.09,0,0,1-2.68,1.71,9.46,9.46,0,0,1-6.63,0,7.9,7.9,0,0,1-2.66-1.71,8.12,8.12,0,0,1-1.76-2.61,8.4,8.4,0,0,1-.64-3.32,8.2,8.2,0,0,1,.64-3.3,7.78,7.78,0,0,1,4.42-4.27,9.31,9.31,0,0,1,6.63,0,8,8,0,0,1,2.68,1.69A7.52,7.52,0,0,1,249,34a8.2,8.2,0,0,1,.64,3.3m-3.21,0a6.5,6.5,0,0,0-.35-2.12,5.49,5.49,0,0,0-1-1.79,5,5,0,0,0-1.64-1.23,5.59,5.59,0,0,0-4.44,0,5,5,0,0,0-1.64,1.23,5.49,5.49,0,0,0-1,1.79,6.63,6.63,0,0,0,0,4.25,5.64,5.64,0,0,0,1,1.8A4.75,4.75,0,0,0,239,42.46a5.59,5.59,0,0,0,4.44,0,4.75,4.75,0,0,0,1.64-1.25,5.64,5.64,0,0,0,1-1.8,6.52,6.52,0,0,0,.35-2.13"/><rect class="cls-3" x="187.69" y="12.53" width="1.5" height="39.52"/><polygon class="cls-3" points="373.83 36.27 378.17 36.27 376 29.43 373.83 36.27"/><path class="cls-3" d="M329.49,14.72V52.48H520.91l15.4-18.88-15.4-18.88Zm24.3,31c-6,0-10.61-4.57-10.61-11.85v-.4c0-7.2,4.7-11.9,10.84-11.9a9.94,9.94,0,0,1,8.07,3.67l-3.87,4.1a5.25,5.25,0,0,0-4.1-2.2c-2.74,0-4.77,2.43-4.77,6.4v.14c0,4.16,2.07,6.47,4.77,6.47a5.41,5.41,0,0,0,4.27-2.31l3.8,3.87a10.23,10.23,0,0,1-8.4,4m27.25-.4-1.37-4.21h-7.34L371,45.28h-6.17L373,21.79h6.07l8.24,23.49Zm24.28-18h-5.77v18h-6v-18h-5.78v-5.4h17.55Zm16.68,18-1.37-4.21h-7.34L412,45.28h-6.17L414,21.79h6.07l8.24,23.49Zm25.45,0H432.27V21.93h6V39.87h9.18ZM460,36.47v8.81h-6V36.54l-7.51-14.61h6.64l3.9,8.44L461,21.93h6.54Zm26.65,1.8c0,4.54-3.5,7.34-8.5,7.34a14.23,14.23,0,0,1-9.51-3.44l3.2-4.37a10.17,10.17,0,0,0,6.34,2.64c1.6,0,2.43-.7,2.43-1.7v0c0-.94-.7-1.51-3.43-2.47-4.4-1.51-7.51-3.11-7.51-7.34v-.1c0-4.24,3.24-7.21,8.34-7.21a12.75,12.75,0,0,1,8.34,2.84l-3,4.47a9.25,9.25,0,0,0-5.44-2.14c-1.37,0-2.13.67-2.13,1.54v0c0,1,.73,1.57,3.7,2.67,4.43,1.43,7.2,3.24,7.2,7.2Zm20.55-10.94h-5.77v18h-6v-18h-5.77v-5.4h17.55Z"/><polygon class="cls-3" points="414.79 36.27 419.13 36.27 416.96 29.43 414.79 36.27"/><path class="cls-3" d="M329.49,14.72V52.48H520.91l15.4-18.88-15.4-18.88Zm24.3,31c-6,0-10.61-4.57-10.61-11.85v-.4c0-7.2,4.7-11.9,10.84-11.9a9.94,9.94,0,0,1,8.07,3.67l-3.87,4.1a5.25,5.25,0,0,0-4.1-2.2c-2.74,0-4.77,2.43-4.77,6.4v.14c0,4.16,2.07,6.47,4.77,6.47a5.41,5.41,0,0,0,4.27-2.31l3.8,3.87a10.23,10.23,0,0,1-8.4,4m27.25-.4-1.37-4.21h-7.34L371,45.28h-6.17L373,21.79h6.07l8.24,23.49Zm24.28-18h-5.77v18h-6v-18h-5.78v-5.4h17.55Zm16.68,18-1.37-4.21h-7.34L412,45.28h-6.17L414,21.79h6.07l8.24,23.49Zm25.45,0H432.27V21.93h6V39.87h9.18ZM460,36.47v8.81h-6V36.54l-7.51-14.61h6.64l3.9,8.44L461,21.93h6.54Zm26.65,1.8c0,4.54-3.5,7.34-8.5,7.34a14.23,14.23,0,0,1-9.51-3.44l3.2-4.37a10.17,10.17,0,0,0,6.34,2.64c1.6,0,2.43-.7,2.43-1.7v0c0-.94-.7-1.51-3.43-2.47-4.4-1.51-7.51-3.11-7.51-7.34v-.1c0-4.24,3.24-7.21,8.34-7.21a12.75,12.75,0,0,1,8.34,2.84l-3,4.47a9.25,9.25,0,0,0-5.44-2.14c-1.37,0-2.13.67-2.13,1.54v0c0,1,.73,1.57,3.7,2.67,4.43,1.43,7.2,3.24,7.2,7.2Zm20.55-10.94h-5.77v18h-6v-18h-5.77v-5.4h17.55Z"/><path class="cls-4" d="M51.65,14.67H13.18a3.47,3.47,0,0,0-3.47,3.48V49a3.47,3.47,0,0,0,3.47,3.48H51.61l10.48-18.9ZM29.25,42H26.13L18.44,29.62h-.07V42H15.56V25.15h3.12l7.71,12.44h.05V25.15h2.81Zm5.87,0h-3V25.15h3Zm13.6,0V34.42H41V42h-3V25.15h3v6.72h7.69V25.15h3V42Z"/><path class="cls-4" d="M54.23,52.44,64.7,33.54,54.27,14.67h2.61a4.87,4.87,0,0,1,3.86,2.27l9.17,16.6-9.2,16.63a4.89,4.89,0,0,1-3.86,2.27Z"/><path class="cls-3" d="M54.23,52.44,64.7,33.54,54.27,14.67h2.61a4.87,4.87,0,0,1,3.86,2.27l9.17,16.6-9.2,16.63a4.89,4.89,0,0,1-3.86,2.27Z"/><path class="cls-4" d="M158.54,41.1a1.4,1.4,0,1,1,2.79,0Zm4,.78a2.63,2.63,0,1,0-5.19-.3A2.58,2.58,0,0,0,160,44.44a2.38,2.38,0,0,0,2.45-1.85h-1.13a1.25,1.25,0,0,1-1.32.9,1.45,1.45,0,0,1-1.46-1.61Zm-8.78-2.13h.91V43c0,.9.25,1.38,1.5,1.38.26,0,.51,0,.77-.06v-.92a2.07,2.07,0,0,1-.5,0c-.54,0-.58-.26-.58-.75v-2.9h1.08v-.89h-1.08V37.24h-1.19v1.62h-.91Zm-.52-.89H152V42c0,.84-.33,1.48-1.33,1.48-.65,0-1-.35-1-1.3V38.86h-1.19v3.45c0,1.41.6,2.13,2,2.13a1.81,1.81,0,0,0,1.54-.91h0v.76h1.18Zm-8.61.89h.9V43c0,.9.25,1.38,1.5,1.38.26,0,.51,0,.77-.06v-.92a2.07,2.07,0,0,1-.5,0c-.53,0-.58-.26-.58-.75v-2.9h1.08v-.89h-1.08V37.24h-1.19v1.62h-.9Zm-1.77-1.82h1.2V36.8h-1.2Zm0,6.36h1.2V38.86h-1.2ZM139,39.75h.9V43c0,.9.25,1.38,1.5,1.38.26,0,.52,0,.78-.06v-.92a2.19,2.19,0,0,1-.51,0c-.53,0-.57-.26-.57-.75v-2.9h1.08v-.89h-1.08V37.24h-1.2v1.62H139Zm-5,2.8c0,1.28,1,1.89,2.4,1.89,1.13,0,2.43-.48,2.43-1.77,0-1.07-.88-1.38-1.75-1.58s-1.77-.29-1.77-.87.64-.56,1-.56c.53,0,1,.16,1.1.72h1.25c-.15-1.2-1.15-1.66-2.27-1.66s-2.26.36-2.26,1.55.86,1.41,1.74,1.61,1.74.27,1.77.9-.75.71-1.2.71c-.64,0-1.17-.25-1.23-.94Zm-5.54,1.74h1.2v-3.2a1.32,1.32,0,0,1,1.31-1.43c.7,0,1,.37,1.06,1.22v3.41h1.2V40.56a1.71,1.71,0,0,0-1.93-1.84,1.92,1.92,0,0,0-1.68,1l0,0v-.8h-1.13Zm-2.56,0h1.31V36.8h-1.31Zm-4-7.49h-1.2v2.77h0a2.1,2.1,0,0,0-1.81-.85c-1.19,0-2.35.85-2.35,2.82,0,1.63.83,2.9,2.54,2.9a1.82,1.82,0,0,0,1.68-.89h0v.74h1.13Zm-4.18,4.83c0-1,.4-2,1.53-2,.92,0,1.5.71,1.5,1.91,0,1-.46,1.92-1.52,1.92s-1.51-.92-1.51-1.86m-4.48,2.81a2.63,2.63,0,0,0,2.74-2.87,2.74,2.74,0,1,0-5.47,0,2.62,2.62,0,0,0,2.73,2.87m0-.95c-1.07,0-1.54-1-1.54-1.92s.47-1.91,1.54-1.91,1.55,1,1.55,1.91-.48,1.92-1.55,1.92m-6,.95a2.63,2.63,0,0,0,2.74-2.87,2.74,2.74,0,1,0-5.48,0,2.63,2.63,0,0,0,2.74,2.87m0-.95c-1.07,0-1.54-1-1.54-1.92s.47-1.91,1.54-1.91,1.54,1,1.54,1.91-.47,1.92-1.54,1.92m-4.8.8h1.2V36.8h-1.2Zm-5.75-6.42h2.14c.72,0,1.1.27,1.1,1a1,1,0,0,1-1.1,1H96.61ZM95.3,44.29h3.44c1.94,0,2.76-.91,2.76-2.09a1.78,1.78,0,0,0-1.41-1.93v0a1.64,1.64,0,0,0,1.08-1.6c0-1.25-.88-1.85-2.23-1.85H95.3Zm1.31-3.41h2.32A1.1,1.1,0,0,1,100.19,42a1.11,1.11,0,0,1-1.26,1.19H96.61ZM91.29,36.8h-1.2v2.77h0a2.07,2.07,0,0,0-1.8-.85c-1.19,0-2.35.85-2.35,2.82,0,1.63.83,2.9,2.54,2.9a1.82,1.82,0,0,0,1.68-.89h0v.74h1.13Zm-4.18,4.83c0-1,.4-2,1.52-2,.93,0,1.51.71,1.51,1.91,0,1-.46,1.92-1.53,1.92s-1.5-.92-1.5-1.86m-6.76,2.66h1.19v-3.2a1.32,1.32,0,0,1,1.31-1.43c.71,0,1,.37,1.06,1.22v3.41h1.2V40.56a1.71,1.71,0,0,0-1.92-1.84,1.92,1.92,0,0,0-1.69,1l0,0v-.8H80.35Zm-1.11-4c0-1.14-1.11-1.57-2.17-1.57s-2.38.4-2.47,1.8h1.2c0-.59.53-.86,1.2-.86.48,0,1.12.12,1.12.73s-.77.61-1.63.77-2.08.34-2.08,1.69a1.65,1.65,0,0,0,1.85,1.59,2.8,2.8,0,0,0,1.88-.67.81.81,0,0,0,.92.67,3.19,3.19,0,0,0,.76-.14v-.83a1.74,1.74,0,0,1-.29,0c-.23,0-.29-.11-.29-.41Zm-1.19,2.17c0,.76-.82,1-1.35,1s-1.1-.16-1.1-.69.46-.82,1-.91a4.25,4.25,0,0,0,1.47-.32Z"/><path class="cls-4" d="M170.55,31h.72a1,1,0,0,1-.68,1v.64A1.69,1.69,0,0,0,172,31V29.58h-1.46Zm-1.12-5.42h-1.19v.74h0a1.73,1.73,0,0,0-1.61-.89,2.5,2.5,0,0,0-2.45,2.72c0,1.55.71,2.85,2.43,2.85a1.86,1.86,0,0,0,1.63-.95h0v.83a1.23,1.23,0,0,1-1.4,1.38c-.61,0-1.15-.11-1.3-.79h-1.2c.11,1.27,1.34,1.68,2.43,1.68,1.71,0,2.66-.8,2.66-2.43Zm-2.65,4.48c-1,0-1.43-.9-1.43-1.79s.37-1.9,1.43-1.9,1.46.87,1.46,1.8-.4,1.89-1.46,1.89m-8.2.94h1.2v-3.2a1.32,1.32,0,0,1,1.31-1.43c.71,0,1,.37,1.06,1.22V31h1.19V27.27a1.71,1.71,0,0,0-1.91-1.85,2,2,0,0,0-1.7,1v-.82h-1.14Zm-1.07-5.42h-1.19v3.15c0,.84-.34,1.48-1.34,1.48-.65,0-1-.35-1-1.3V25.57h-1.19V29c0,1.42.61,2.13,2,2.13a1.85,1.85,0,0,0,1.55-.9h0V31h1.17ZM147.08,31h5.12V29.86h-3.81V23.5h-1.31Zm-5.53,0h.72a1,1,0,0,1-.68,1v.64A1.69,1.69,0,0,0,143,31V29.58h-1.46Zm-4-4.53h.91v3.2c0,.9.25,1.39,1.49,1.39a6.65,6.65,0,0,0,.78-.07v-.92a2.15,2.15,0,0,1-.5,0c-.54,0-.58-.25-.58-.74v-2.9h1.08v-.89H139.7V23.94h-1.19v1.63h-.91ZM134.65,31h1.19V28.41c0-1.19.65-1.86,1.47-1.86a4.18,4.18,0,0,1,.51.06V25.45a2.94,2.94,0,0,0-.45,0,1.74,1.74,0,0,0-1.58,1.2h0V25.57h-1.12Zm-1.11-4c0-1.14-1.11-1.57-2.17-1.57s-2.38.41-2.47,1.81h1.2c.05-.59.53-.87,1.19-.87.49,0,1.13.12,1.13.74s-.77.61-1.63.77-2.09.33-2.09,1.69a1.65,1.65,0,0,0,1.86,1.58,2.79,2.79,0,0,0,1.88-.66c.09.49.44.66.92.66a3.18,3.18,0,0,0,.76-.13v-.83a1.74,1.74,0,0,1-.29,0c-.23,0-.29-.12-.29-.41Zm-1.2,2.18c0,.76-.81,1-1.34,1s-1.1-.16-1.1-.7.46-.81,1-.9a4.14,4.14,0,0,0,1.46-.32Zm-8-1.36a1.42,1.42,0,0,1,1.42-1.45,1.44,1.44,0,0,1,1.37,1.45Zm4,.78a2.63,2.63,0,1,0-5.19-.3,2.57,2.57,0,0,0,2.65,2.85,2.37,2.37,0,0,0,2.46-1.85h-1.13a1.27,1.27,0,0,1-1.33.91,1.44,1.44,0,0,1-1.45-1.61ZM116.1,31h1.31V27.62h3.41V31h1.31V23.5h-1.31v3h-3.41v-3H116.1Zm-5.17,0h1.19V23.5h-1.19Zm-1.14-4c0-1.14-1.11-1.57-2.17-1.57s-2.38.41-2.47,1.81h1.2c.05-.59.53-.87,1.2-.87.48,0,1.12.12,1.12.74s-.77.61-1.63.77c-1,.11-2.08.33-2.08,1.69a1.64,1.64,0,0,0,1.85,1.58,2.79,2.79,0,0,0,1.88-.66c.09.49.44.66.92.66a3.18,3.18,0,0,0,.76-.13v-.83a1.74,1.74,0,0,1-.29,0c-.23,0-.29-.12-.29-.41Zm-1.19,2.18c0,.76-.82,1-1.35,1s-1.1-.16-1.1-.7.46-.81,1-.9a4.25,4.25,0,0,0,1.47-.32ZM99.41,31h1.2v-3.2a1.32,1.32,0,0,1,1.31-1.43c.7,0,1,.37,1.06,1.22V31h1.2V27.27a1.72,1.72,0,0,0-1.92-1.85,1.93,1.93,0,0,0-1.69,1l0,0v-.79H99.41Zm-3.54.15a2.61,2.61,0,0,0,2.73-2.86,2.74,2.74,0,1,0-5.47,0,2.62,2.62,0,0,0,2.74,2.86m0-.94c-1.07,0-1.55-1-1.55-1.92s.48-1.92,1.55-1.92,1.54,1,1.54,1.92-.47,1.92-1.54,1.92m-4.8-5.57h1.19V23.5H91.07Zm0,6.36h1.19V25.57H91.07Zm-3.88-4.53h.9v3.2c0,.9.25,1.39,1.5,1.39a6.68,6.68,0,0,0,.77-.07v-.92a2.07,2.07,0,0,1-.5,0c-.53,0-.57-.25-.57-.74v-2.9h1.07v-.89H89.29V23.94h-1.2v1.63h-.9Zm-.56.53c0-1.14-1.11-1.57-2.17-1.57s-2.38.41-2.47,1.81h1.2c0-.59.52-.87,1.2-.87.48,0,1.12.12,1.12.74s-.77.61-1.63.77-2.09.33-2.09,1.69a1.65,1.65,0,0,0,1.86,1.58,2.79,2.79,0,0,0,1.88-.66c.09.49.44.66.92.66a3.18,3.18,0,0,0,.76-.13v-.83a1.79,1.79,0,0,1-.3,0c-.22,0-.28-.12-.28-.41Zm-1.2,2.18c0,.76-.81,1-1.34,1S83,30,83,29.5s.46-.81,1-.9a4.14,4.14,0,0,0,1.47-.32ZM74.81,31h1.25v-5.5h0L79.5,31h1.39V23.5H79.64V29h0L76.2,23.5H74.81Z"/><g id="xrushB.tif"><path class="cls-5" d="M533.4,52.67H533l-.24,0a3.75,3.75,0,0,1-.88-.2,4,4,0,0,1-1.55-1,3.81,3.81,0,0,1-1-2.3,3.53,3.53,0,0,1,.1-1.17A3.84,3.84,0,0,1,533,45a3.55,3.55,0,0,1,1.22.13,3.79,3.79,0,0,1,2.32,1.77,3.63,3.63,0,0,1,.51,1.64s0,.09,0,.13V49a.08.08,0,0,0,0,0c0,.09,0,.18,0,.26a3.74,3.74,0,0,1-.24.93,3.84,3.84,0,0,1-3.28,2.44Zm-3.25-3.85a3.07,3.07,0,1,0,3.07-3.07A3.08,3.08,0,0,0,530.15,48.82Z"/><path class="cls-5" d="M533.89,48.86a.75.75,0,0,1,.41.26,1.57,1.57,0,0,1,.19.26c.11.21.22.42.32.63l.35.7s0,0,0,0H534.1a.05.05,0,0,1-.05,0l-.5-1a1,1,0,0,0-.23-.32.58.58,0,0,0-.33-.14h-.42v1.51h-1v-4h1.66a2.13,2.13,0,0,1,.8.13.93.93,0,0,1,.48.32.94.94,0,0,1,.16.42,1.44,1.44,0,0,1,0,.62.93.93,0,0,1-.54.59Zm-1.31-.36h.52l.17,0a.38.38,0,0,0,.32-.29.75.75,0,0,0,0-.42.34.34,0,0,0-.23-.25.78.78,0,0,0-.22,0h-.56Z"/></g><path class="cls-1" d="M387.46,61.5h-7.15V59.64h16.46V61.5h-7.16V80h-2.15Z"/><path class="cls-1" d="M411.48,73h-12.8a5.46,5.46,0,0,0,1.84,3.85,6.06,6.06,0,0,0,4.18,1.47,6.62,6.62,0,0,0,2.62-.51,5.73,5.73,0,0,0,2.06-1.5l1.17,1.34A6.64,6.64,0,0,1,408,79.5a8.56,8.56,0,0,1-3.36.64,8.46,8.46,0,0,1-4.17-1,7.27,7.27,0,0,1-2.83-2.78,7.89,7.89,0,0,1-1-4,8.18,8.18,0,0,1,1-4,7,7,0,0,1,2.68-2.77,7.54,7.54,0,0,1,3.82-1,7.45,7.45,0,0,1,3.81,1,7.08,7.08,0,0,1,2.65,2.75,8.3,8.3,0,0,1,.95,4Zm-11.1-5.22a5.6,5.6,0,0,0-1.7,3.68h10.85a5.56,5.56,0,0,0-1.7-3.68,5.63,5.63,0,0,0-7.45,0Z"/><path class="cls-1" d="M419.86,65.37a7.41,7.41,0,0,1,3.56-.78v2l-.49,0a4.88,4.88,0,0,0-3.78,1.49,5.88,5.88,0,0,0-1.37,4.15V80h-2.06V64.7h2v3A5,5,0,0,1,419.86,65.37Z"/><path class="cls-1" d="M431.29,65.37a7.41,7.41,0,0,1,3.56-.78v2l-.49,0a4.88,4.88,0,0,0-3.78,1.49,5.88,5.88,0,0,0-1.37,4.15V80h-2.06V64.7h2v3A5,5,0,0,1,431.29,65.37Z"/><path class="cls-1" d="M448.49,66.08a5.82,5.82,0,0,1,1.59,4.44V80h-2V77.61a4.7,4.7,0,0,1-2.05,1.86,7.15,7.15,0,0,1-3.22.67,6.33,6.33,0,0,1-4.07-1.22,4,4,0,0,1-1.51-3.23,3.92,3.92,0,0,1,1.41-3.14,6.94,6.94,0,0,1,4.5-1.19H448v-.93a3.94,3.94,0,0,0-1.1-3,4.57,4.57,0,0,0-3.23-1,8.18,8.18,0,0,0-2.79.48,7.11,7.11,0,0,0-2.3,1.32l-.93-1.54a8.36,8.36,0,0,1,2.79-1.53,11.14,11.14,0,0,1,3.43-.53A6.53,6.53,0,0,1,448.49,66.08Zm-2.33,11.63A4.78,4.78,0,0,0,448,75.4V72.9h-4.8q-3.92,0-3.92,2.73a2.49,2.49,0,0,0,1,2.11,4.56,4.56,0,0,0,2.85.77A5.37,5.37,0,0,0,446.16,77.71Z"/></svg>
