<svg data-name="Layer 1" xmlns="http://www.w3.org/2000/svg" viewBox="0 0 269.7 36.4">
    <path d="M108.4 23.7a3.7 3.7 0 010 5.4 4.8 4.8 0 01-3.2 1h-2.9v3.2h-1V22.8h4a4.8 4.8 0 013 1zm-.9 4.6a2.4 2.4 0 00.9-1.9 2.4 2.4 0 00-.9-2 3.6 3.6 0 00-2.4-.7h-2.8V29h2.9a3.6 3.6 0 002.3-.7zm5.3 4.7a3.7 3.7 0 01-1.4-1.5 4.4 4.4 0 010-4.2 3.8 3.8 0 011.4-1.4 4.5 4.5 0 014.2 0 3.8 3.8 0 011.4 1.4 4.4 4.4 0 010 4.2A3.8 3.8 0 01117 33a4.4 4.4 0 01-4.2 0zm3.6-.9a2.7 2.7 0 001-1 3.4 3.4 0 00.5-1.7 3.5 3.5 0 00-.4-1.6 2.8 2.8 0 00-1-1.1 3 3 0 00-1.6-.4 3 3 0 00-1.5.4 2.8 2.8 0 00-1 1 3.3 3.3 0 00-.5 1.7 3.3 3.3 0 00.4 1.6 2.7 2.7 0 001 1.1 3 3 0 001.6.4 3 3 0 001.5-.4zm16.2-6.7l-3 8h-1l-2.5-6.5-2.5 6.4h-1l-3-8h1l2.5 6.8 2.5-6.8h1l2.5 6.8 2.5-6.8zm8.4 4.3h-6.8a2.9 2.9 0 001 2 3.2 3.2 0 002.2.8 3.3 3.3 0 001.4-.3 3 3 0 001-.8l.7.7a3.6 3.6 0 01-1.4 1 4.8 4.8 0 01-3.9-.1 3.8 3.8 0 01-1.5-1.5 4.1 4.1 0 01-.5-2 4.3 4.3 0 01.5-2.2 3.8 3.8 0 011.4-1.4 4.1 4.1 0 014 0 3.8 3.8 0 011.4 1.4 4.4 4.4 0 01.5 2.1zm-5.8-2.7a2.9 2.9 0 00-1 2h5.7a3 3 0 00-.9-2 3 3 0 00-3.8 0zm10.1-1.2a3.9 3.9 0 011.9-.4v1h-.3a2.5 2.5 0 00-2 .7 3 3 0 00-.7 2.2v4h-1v-8h1V27a2.6 2.6 0 011.1-1.1zm10.7 3.9h-6.7a2.9 2.9 0 001 2 3.2 3.2 0 002.1.8 3.3 3.3 0 001.4-.3 3 3 0 001-.8l.7.7a3.5 3.5 0 01-1.3 1 4.8 4.8 0 01-4-.1 3.8 3.8 0 01-1.4-1.5 4.1 4.1 0 01-.6-2 4.3 4.3 0 01.5-2.2 3.8 3.8 0 011.4-1.4 4.1 4.1 0 014 0 3.7 3.7 0 011.4 1.4 4.3 4.3 0 01.5 2.1zm-5.8-2.7a2.9 2.9 0 00-.9 2h5.6a2.9 2.9 0 00-.8-2 3 3 0 00-4 0zm15.2-4.9v11.2h-1v-1.5a3.3 3.3 0 01-1.2 1.2 3.7 3.7 0 01-1.8.4 4 4 0 01-2-.5 3.7 3.7 0 01-1.5-1.4 4.3 4.3 0 01-.5-2.1 4.2 4.2 0 01.5-2.1 3.5 3.5 0 011.5-1.4 4.1 4.1 0 012-.6 3.7 3.7 0 011.7.4 3.3 3.3 0 011.3 1.2v-4.8zm-2.5 10a2.7 2.7 0 001-1 3.3 3.3 0 00.5-1.7 3.4 3.4 0 00-.4-1.6 2.8 2.8 0 00-1-1.1 3 3 0 00-1.6-.4 3 3 0 00-1.5.4 2.8 2.8 0 00-1 1.1 3.3 3.3 0 00-.4 1.6 3.3 3.3 0 00.3 1.6 2.7 2.7 0 001.1 1.1 3 3 0 001.5.4 3 3 0 001.5-.4zm15.6-6.2a3.6 3.6 0 011.5 1.4 4.2 4.2 0 01.5 2.1 4.3 4.3 0 01-.5 2.2 3.7 3.7 0 01-1.5 1.4 4 4 0 01-2 .5 3.7 3.7 0 01-1.8-.4 3.3 3.3 0 01-1.2-1.2v1.4h-1V22.1h1V27a3.3 3.3 0 011.3-1.1 3.7 3.7 0 011.8-.5 4 4 0 012 .6zM178 32a2.7 2.7 0 001.1-1 3.3 3.3 0 00.4-1.7 3.4 3.4 0 00-.4-1.6 2.8 2.8 0 00-1-1.1 3.2 3.2 0 00-3 0 2.7 2.7 0 00-1.1 1 3.4 3.4 0 00-.4 1.7 3.3 3.3 0 00.4 1.6 2.7 2.7 0 001 1.1 3.1 3.1 0 003 0zm11.1-6.6l-4 9a4 4 0 01-1 1.5 2.5 2.5 0 01-1.6.5 3 3 0 01-1.1-.2 2.3 2.3 0 01-.9-.5l.5-.8a2 2 0 001.5.6 1.5 1.5 0 001-.3 2.8 2.8 0 00.6-1l.4-.8-3.6-8h1.2l3 6.8 3-6.8zm7.8-1.7h-3.7v-1h8.5v1H198v9.6h-1zm12.5 6h-6.7a2.8 2.8 0 001 2 3.2 3.2 0 002.2.8 3.4 3.4 0 001.4-.3 3 3 0 001-.8l.7.7a3.5 3.5 0 01-1.4 1 4.8 4.8 0 01-3.9-.1 3.7 3.7 0 01-1.5-1.5 4 4 0 01-.5-2.1 4.4 4.4 0 01.5-2.1 3.8 3.8 0 011.4-1.4 4.1 4.1 0 014 0 3.6 3.6 0 011.3 1.4 4.4 4.4 0 01.5 2.1zm-5.8-2.7a2.9 2.9 0 00-.9 2h5.7a2.9 2.9 0 00-.9-2 2.9 2.9 0 00-3.9 0zm10.2-1.2a3.9 3.9 0 011.8-.4v1h-.2a2.5 2.5 0 00-2 .7 3.1 3.1 0 00-.7 2.2v4h-1.1v-8h1V27a2.6 2.6 0 011.2-1.1zm5.9 0a3.9 3.9 0 011.9-.4v1h-.3a2.5 2.5 0 00-2 .7 3.1 3.1 0 00-.7 2.2v4h-1v-8h1V27a2.6 2.6 0 011.1-1.1zm9 .3a3 3 0 01.8 2.3v5h-1V32a2.4 2.4 0 01-1 1 3.7 3.7 0 01-1.7.4 3.2 3.2 0 01-2.1-.7 2.2 2.2 0 010-3.3 3.6 3.6 0 012.3-.6h2.5v-.5a2 2 0 00-.6-1.5 2.4 2.4 0 00-1.6-.6 4.1 4.1 0 00-1.5.3 3.4 3.4 0 00-1.2.7l-.5-.8a4.5 4.5 0 011.5-.8 5.5 5.5 0 011.6-.4 3.4 3.4 0 012.5.8zm-1.2 6a2.4 2.4 0 001-1.1v-1.3h-2.6c-1.3 0-2 .5-2 1.4a1.3 1.3 0 00.6 1.1 2.4 2.4 0 001.5.4 2.8 2.8 0 001.5-.4zM136.6 10a5.9 5.9 0 01-.5 2.7 5.5 5.5 0 01-1.6 1.8 6.3 6.3 0 01-2 1 8.6 8.6 0 01-2.5.4h-4.4V4.1h4.3a10.8 10.8 0 012.4.3 6.2 6.2 0 012.2 1 5 5 0 011.5 1.8 6 6 0 01.6 2.8m-3 0a3.6 3.6 0 00-.3-1.6 2.7 2.7 0 00-.9-1 3.5 3.5 0 00-1.2-.7 6 6 0 00-1.4-.1h-1.5v6.9h1.4a6 6 0 001.5-.2 3.3 3.3 0 001.2-.6 2.8 2.8 0 00.9-1 3.7 3.7 0 00.3-1.7m4.6-1.2a4.7 4.7 0 011.8-1 6 6 0 012-.4 5.3 5.3 0 011.7.3 2.7 2.7 0 011.2.8 3.3 3.3 0 01.7 1.3 8 8 0 01.2 2V16h-2.6v-.9a2 2 0 01-1 .8 3.4 3.4 0 01-1.3.3 4.2 4.2 0 01-1-.1 3 3 0 01-1-.4 2.4 2.4 0 01-.8-.8 2.5 2.5 0 01-.3-1.3 2 2 0 01.5-1.4 3.2 3.2 0 011.3-.9 6.4 6.4 0 011.7-.4 16.8 16.8 0 011.9 0v-.2a1 1 0 00-.5-1 1.9 1.9 0 00-1-.2 2.7 2.7 0 00-1.1.2 3.7 3.7 0 00-1 .6zm5 3.5H142a3.8 3.8 0 00-.7.2 1.5 1.5 0 00-.6.3.8.8 0 00-.3.6.7.7 0 00.1.4.9.9 0 00.3.3 1.1 1.1 0 00.4.1 2 2 0 00.4 0 1.6 1.6 0 001.7-1.7zm7.4-2.6v3.1a1.4 1.4 0 00.2 1 1 1 0 00.8.2h.4a2.3 2.3 0 00.4-.1v2a5.5 5.5 0 01-.7.2 5 5 0 01-.9 0 4 4 0 01-1.4-.2 2.2 2.2 0 01-.9-.6 2.4 2.4 0 01-.5-.9 4.6 4.6 0 01-.1-1.2V9.7h-1.3v-2h1.3V5.4h2.6v2.2h2v2zm3.1-.9a4.7 4.7 0 011.7-1 6 6 0 012-.4 5.3 5.3 0 011.8.3 2.6 2.6 0 011.2.8 3.4 3.4 0 01.6 1.3 8 8 0 01.2 2V16h-2.5v-.9a2 2 0 01-1 .8 3.4 3.4 0 01-1.4.3 4.3 4.3 0 01-1-.1 3 3 0 01-1-.4 2.4 2.4 0 01-.7-.8 2.5 2.5 0 01-.3-1.3 2 2 0 01.5-1.4 3.2 3.2 0 011.3-.9 6.4 6.4 0 011.7-.4 16.9 16.9 0 011.9 0v-.2a1 1 0 00-.5-1 1.9 1.9 0 00-1-.2 2.7 2.7 0 00-1.2.2 4 4 0 00-.9.6zm5 3.5h-1.3a3.7 3.7 0 00-.8.2 1.6 1.6 0 00-.6.3.8.8 0 00-.2.6.7.7 0 00.1.4 1 1 0 00.3.3 1.1 1.1 0 00.4.1 2.1 2.1 0 00.4 0 1.6 1.6 0 001.7-1.7zm-57.4-8.2h4a6.1 6.1 0 011.4.2 3.4 3.4 0 011.2.5 2.8 2.8 0 01.9.9A2.9 2.9 0 01109 7a2.5 2.5 0 01-.6 1.7 2.9 2.9 0 01-1.5.9 3.7 3.7 0 011 .3 2.6 2.6 0 011.4 1.4 3 3 0 01.2 1.1 3 3 0 01-1.3 2.6 4.6 4.6 0 01-1.4.6 6.9 6.9 0 01-1.7.2h-4zm1.7 5h2.1a3.7 3.7 0 001 0 2.2 2.2 0 00.7-.4 1.6 1.6 0 00.5-.6 1.7 1.7 0 00.1-.8 1.4 1.4 0 00-.7-1.4 3.7 3.7 0 00-1.8-.4h-2zm0 5.4h2a5.3 5.3 0 001 0 3 3 0 001-.4 1.9 1.9 0 00.7-.6 1.8 1.8 0 00.3-1 1.7 1.7 0 00-.7-1.5 3.8 3.8 0 00-2.1-.5H103zm10.8-9.3a1 1 0 01-.3.7 1 1 0 01-.8.3 1 1 0 01-.7-.3 1 1 0 01-.3-.7 1 1 0 01.3-.8 1 1 0 01.7-.2 1 1 0 01.8.2 1 1 0 01.3.8m-.3 10.7H112V8h1.5zm10.7-3.9a4.2 4.2 0 01-.3 1.6 4.1 4.1 0 01-.9 1.4 3.9 3.9 0 01-1.4.8 4.7 4.7 0 01-3.3 0 3.9 3.9 0 01-2.3-2.2 4.2 4.2 0 01-.3-1.6 4.1 4.1 0 01.3-1.7 3.8 3.8 0 011-1.3 4 4 0 011.3-.9 4.7 4.7 0 013.3 0 4 4 0 012.3 2.2 4.1 4.1 0 01.3 1.7m-1.6 0a3.5 3.5 0 00-.2-1.1 2.9 2.9 0 00-.5-1 2.5 2.5 0 00-.8-.6 2.5 2.5 0 00-1.1-.2 2.6 2.6 0 00-1.2.2 2.4 2.4 0 00-.8.7 2.5 2.5 0 00-.5.9 3.2 3.2 0 00-.2 1 3.3 3.3 0 00.2 1.1 2.5 2.5 0 00.5 1 2.2 2.2 0 00.8.6 2.6 2.6 0 001.2.2 2.5 2.5 0 001-.2 2.3 2.3 0 001-.7 2.9 2.9 0 00.4-.9 3.5 3.5 0 00.2-1M91.9 0h1v20.1h-1zm95.4 11.3h2.2l-1.1-3.5-1.1 3.5z" fill="#fff"/>
    <path d="M164.8.3v19.2h97.1l7.8-9.6L262 .3zM177.1 16c-3 0-5.4-2.3-5.4-6v-.2c0-3.6 2.4-6 5.5-6a5 5 0 014.1 1.9l-2 2a2.7 2.7 0 00-2-1c-1.4 0-2.5 1.2-2.5 3.2 0 2.2 1 3.4 2.5 3.4a2.7 2.7 0 002.1-1.2l2 2a5.2 5.2 0 01-4.3 2m13.8-.2l-.7-2.2h-3.7l-.7 2.1h-3l4-11.9h3.2l4.1 12zm12.3-9.2h-2.9v9.1h-3v-9h-2.9V4h8.8zm8.5 9.1l-.7-2.1h-3.7l-.7 2.1h-3.1L207.6 4h3.1l4.2 12zm13 0h-7.8V4h3v9h4.7zm6.3-4.5v4.5h-3v-4.4L224.2 4h3.3l2 4.3 2-4.3h3.3zm13.5 1c0 2.3-1.7 3.7-4.3 3.7a7.2 7.2 0 01-4.8-1.8L237 12a5.2 5.2 0 003.2 1.3c.9 0 1.3-.3 1.3-.8s-.4-.8-1.8-1.3c-2.2-.7-3.8-1.5-3.8-3.7 0-2.1 1.7-3.6 4.2-3.6a6.5 6.5 0 014.3 1.4l-1.6 2.3a4.7 4.7 0 00-2.7-1.1c-.7 0-1.1.3-1.1.8s.4.7 1.9 1.3c2.2.7 3.6 1.6 3.6 3.7zM255 6.7h-3v9.1h-3V6.7h-2.9V4h8.9z" fill="#fff"/>
    <path fill="#fff" d="M208 11.3h2.3l-1.1-3.5-1.1 3.5z"/>
    <path d="M164.8.3v19.2h97.1l7.8-9.6L262 .3zM177.1 16c-3 0-5.4-2.3-5.4-6v-.2c0-3.6 2.4-6 5.5-6a5 5 0 014.1 1.9l-2 2a2.7 2.7 0 00-2-1c-1.4 0-2.5 1.2-2.5 3.2 0 2.2 1 3.4 2.5 3.4a2.7 2.7 0 002.1-1.2l2 2a5.2 5.2 0 01-4.3 2m13.8-.2l-.7-2.2h-3.7l-.7 2.1h-3l4-11.9h3.2l4.1 12zm12.3-9.2h-2.9v9.1h-3v-9h-2.9V4h8.8zm8.5 9.1l-.7-2.1h-3.7l-.7 2.1h-3.1L207.6 4h3.1l4.2 12zm13 0h-7.8V4h3v9h4.7zm6.3-4.5v4.5h-3v-4.4L224.2 4h3.3l2 4.3 2-4.3h3.3zm13.5 1c0 2.3-1.7 3.7-4.3 3.7a7.2 7.2 0 01-4.8-1.8L237 12a5.2 5.2 0 003.2 1.3c.9 0 1.3-.3 1.3-.8s-.4-.8-1.8-1.3c-2.2-.7-3.8-1.5-3.8-3.7 0-2.1 1.7-3.6 4.2-3.6a6.5 6.5 0 014.3 1.4l-1.6 2.3a4.7 4.7 0 00-2.7-1.1c-.7 0-1.1.3-1.1.8s.4.7 1.9 1.3c2.2.7 3.6 1.6 3.6 3.7zM255 6.7h-3v9.1h-3V6.7h-2.9V4h8.9zm-233.4-1v8.7h-1.5v-3.9h-4v4h-1.5V5.6h1.5v3.5h4V5.7h1.5zm-8.5 8.7h-1.5V5.7H13zm-3 0H8.5L4.5 8v6.4H3V5.7h1.6l4 6.4V5.7h1.5zM27 10L21.6.3H1.8A1.8 1.8 0 000 2.1V18a1.8 1.8 0 001.8 1.8h19.8z" fill="#fff"/>
    <path d="M23 19.8l5.3-9.8L23 .3h1.4a2.5 2.5 0 012 1.2L31 10l-4.8 8.6a2.5 2.5 0 01-2 1.2z" fill="#fff"/>
    <path d="M23 19.8l5.3-9.8L23 .3h1.4a2.5 2.5 0 012 1.2L31 10l-4.8 8.6a2.5 2.5 0 01-2 1.2zM76.6 14a.7.7 0 01.8-.8.7.7 0 01.7.7zm2 .3a1.4 1.4 0 10-2.6-.1 1.3 1.3 0 001.4 1.5 1.2 1.2 0 001.2-1h-.5a.6.6 0 01-.7.4.8.8 0 01-.8-.8zm-4.4-1h.4v1.6c0 .5.2.7.8.7h.4v-.5a1.2 1.2 0 01-.2 0c-.3 0-.3-.1-.3-.4v-1.5h.5v-.4h-.6V12h-.6v.8h-.4zm-.3-.5h-.7v1.6c0 .4-.1.8-.6.8-.4 0-.6-.2-.6-.7v-1.7h-.6v1.8c0 .7.3 1 1 1a1 1 0 00.8-.4v.4h.6zm-4.4.4h.4V15c0 .5.2.7.8.7h.4v-.5a1.1 1.1 0 01-.3 0c-.2 0-.3-.1-.3-.4v-1.5h.6v-.4h-.6V12H70v.8h-.4zm-1-.9h.7v-.6h-.6zm0 3.3h.7v-2.8h-.6zm-2-2.4h.5V15c0 .5.1.7.8.7h.4v-.5a1.1 1.1 0 01-.3 0c-.2 0-.3-.1-.3-.4v-1.5h.6v-.4h-.6V12H67v.9h-.4zM64 14.7c0 .6.5 1 1.2 1s1.3-.3 1.3-1-.5-.6-1-.7-.9-.2-.9-.5.4-.3.6-.3.5.1.5.4h.7c-.1-.6-.6-.9-1.2-.9s-1.2.2-1.2.8.5.8 1 .9.8.1.8.4-.3.4-.6.4-.6-.1-.6-.5zm-2.9.9h.6v-1.7a.7.7 0 01.7-.7c.4 0 .6.2.6.6v1.8h.6v-2a.9.9 0 00-1-1 1 1 0 00-.9.6v-.5h-.6zm-1.3 0h.7v-3.9h-.7zm-2-3.9H57v1.4a1 1 0 00-.9-.4c-.6 0-1.2.5-1.2 1.5 0 .8.4 1.5 1.3 1.5a1 1 0 00.9-.5v.4h.5zm-2.2 2.5c0-.5.2-1 .8-1s.7.4.7 1-.2 1-.7 1-.8-.5-.8-1m-2.3 1.5a1.5 1.5 0 10-1.4-1.5 1.4 1.4 0 001.4 1.5m0-.5c-.6 0-.8-.5-.8-1s.2-1 .8-1 .8.5.8 1-.3 1-.8 1m-3.1.5a1.5 1.5 0 10-1.4-1.5 1.3 1.3 0 001.4 1.5m0-.5c-.6 0-.8-.5-.8-1s.2-1 .8-1 .8.5.8 1-.3 1-.8 1m-2.5.4h.6v-3.9h-.6zm-3-3.3h1.1c.4 0 .6.1.6.5a.5.5 0 01-.6.5h-1zm-.7 3.3h1.8c1 0 1.4-.5 1.4-1.1a1 1 0 00-.7-1 .9.9 0 00.6-.8c0-.7-.5-1-1.2-1h-1.8zm.7-1.8H46a.6.6 0 01.7.6.6.6 0 01-.7.6h-1.2zm-2.7-2h-.7V13a1 1 0 00-.9-.4c-.6 0-1.2.5-1.2 1.5 0 .8.4 1.5 1.3 1.5a1 1 0 00.9-.5v.4h.6zm-2.2 2.4c0-.5.2-1 .8-1s.8.4.8 1-.3 1-.8 1-.8-.5-.8-1m-3.5 1.4h.7v-1.7a.7.7 0 01.6-.7c.4 0 .6.2.6.6v1.8h.6v-2a.9.9 0 00-1-1 1 1 0 00-.9.6v-.5h-.6zm-.5-2c0-.7-.6-.9-1.2-.9s-1.2.2-1.2 1h.6c0-.4.3-.5.6-.5s.6 0 .6.4-.4.3-.9.4-1 .1-1 .8a.8.8 0 001 .9 1.4 1.4 0 001-.4c0 .3.2.4.4.4a1.6 1.6 0 00.4 0v-.5h-.2V15zm-.6 1c0 .4-.4.6-.7.6s-.5-.1-.5-.4.2-.4.5-.5a2.1 2.1 0 00.7-.1zm47.6-5.9h.4a.5.5 0 01-.3.6v.3a.9.9 0 00.7-.9V8H83zM82.2 6h-.6v.4a.9.9 0 00-.8-.4 1.3 1.3 0 00-1.3 1.4c0 .8.4 1.5 1.3 1.5a1 1 0 00.8-.5v.4a.6.6 0 01-.7.7c-.3 0-.6 0-.7-.4h-.6c0 .6.7.9 1.3.9.8 0 1.3-.5 1.3-1.3zM81 8.3c-.5 0-.8-.5-.8-1s.2-1 .8-1 .7.5.7 1-.2 1-.7 1m-4.3.4h.6V7.1a.7.7 0 01.7-.7c.4 0 .5.1.6.6v1.7h.6V6.8a.9.9 0 00-1-1 1 1 0 00-.9.5V6h-.6zM76.1 6h-.6v1.7c0 .4-.2.7-.7.7-.3 0-.5-.2-.5-.7V6h-.7v1.8c0 .7.4 1.1 1 1.1a1 1 0 00.8-.5v.4h.6zm-5.4 2.8h2.7v-.6h-2V5h-.7zm-2.8 0h.3a.5.5 0 01-.3.6v.3a.9.9 0 00.7-.9V8H68zm-2-2.3h.4V8c0 .5.2.8.8.8h.4v-.5a1.1 1.1 0 01-.2 0c-.3 0-.3-.2-.3-.4V6.4h.5v-.5H67v-.8h-.7v.8H66zm-1.5 2.3h.6V7.4c0-.6.3-1 .7-1h.3v-.6a1.1 1.1 0 00-.2 0 .9.9 0 00-.8.6V6h-.6zm-.6-2c0-.6-.6-.8-1.1-.8s-1.3.2-1.3.9h.6c0-.3.3-.5.6-.5s.6.1.6.4-.4.3-.8.4-1.2.2-1.2.9a.8.8 0 001 .8 1.4 1.4 0 001-.3c0 .2.3.3.5.3a1.7 1.7 0 00.4 0v-.5H64c-.2 0-.2 0-.2-.2zm-.6 1c0 .5-.5.6-.7.6s-.6 0-.6-.3.2-.5.5-.5a2.1 2.1 0 00.8-.2zM59 7.2a.7.7 0 111.5 0zm2 .4a1.4 1.4 0 10-2.6-.2 1.3 1.3 0 001.3 1.5 1.2 1.2 0 001.3-1h-.6a.7.7 0 01-.7.5.7.7 0 01-.7-.8zm-6.2 1.2h.7V7h1.7v1.7h.7V5h-.7v1.5h-1.7V5h-.7zm-2.6 0h.6V5h-.6zm-.6-2c0-.6-.6-.8-1.1-.8s-1.3.2-1.3.9h.6c0-.3.3-.5.6-.5s.6.1.6.4-.4.3-.9.4-1 .2-1 .9a.8.8 0 001 .8 1.4 1.4 0 001-.3.4.4 0 00.4.3 1.6 1.6 0 00.4 0v-.5h-.1c-.1 0-.2 0-.2-.2zm-.6 1c0 .5-.5.6-.7.6s-.6 0-.6-.3.2-.5.5-.5a2.1 2.1 0 00.8-.2zm-4.8 1h.7V7.1a.7.7 0 01.6-.7c.4 0 .6.1.6.6v1.7h.6V6.8a.9.9 0 00-1-1 1 1 0 00-.9.6v-.5h-.6zm-1.8.1A1.5 1.5 0 1043 7.3a1.4 1.4 0 001.5 1.5m0-.5c-.6 0-.8-.5-.8-1s.2-1 .8-1 .8.5.8 1-.3 1-.8 1M42 5.5h.6v-.6H42zm0 3.2h.6V6H42zm-2-2.3h.5v1.7c0 .4 0 .7.7.7h.4v-.5a1.1 1.1 0 01-.2 0c-.3 0-.3-.1-.3-.4V6.4h.5v-.5H41v-.8h-.6v.8h-.5zm-.3.3c0-.6-.6-.8-1.1-.8s-1.2.2-1.3.9h.6c0-.3.3-.4.6-.4s.6 0 .6.3-.4.4-.8.4-1 .2-1 .9a.8.8 0 001 .8 1.4 1.4 0 001-.3c0 .2.1.3.4.3a1.8 1.8 0 00.4 0v-.5h-.2l-.1-.2zM39 7.8c0 .4-.4.5-.7.5s-.6 0-.6-.3.3-.4.5-.5a2 2 0 00.8-.2zm-5.5 1h.7v-3l1.7 2.8h.7V5H36v2.8L34.2 5h-.7z" fill="#fff"/>
</svg>
