<svg xmlns="http://www.w3.org/2000/svg" id="Color" viewBox="0 0 549.73 100.52"><defs><style>.cls-1{fill:#fff}</style></defs><path d="M223.05 61.68a7 7 0 0 1 0 10.2 9.21 9.21 0 0 1-6.05 1.84h-5.5v6.41h-2.14v-20.3H217a9.21 9.21 0 0 1 6.05 1.85Zm-1.54 8.84a4.59 4.59 0 0 0 1.6-3.73 4.66 4.66 0 0 0-1.6-3.79 7.06 7.06 0 0 0-4.61-1.32h-5.4v10.16h5.4a7.06 7.06 0 0 0 4.61-1.32ZM231.63 79.28a7.32 7.32 0 0 1-2.78-2.77 8.37 8.37 0 0 1 0-8 7.13 7.13 0 0 1 2.78-2.75 8.48 8.48 0 0 1 8 0 7 7 0 0 1 2.77 2.75 8.52 8.52 0 0 1 0 8 7.23 7.23 0 0 1-2.77 2.77 8.4 8.4 0 0 1-8 0Zm6.89-1.57a5.11 5.11 0 0 0 2-2.1 7.06 7.06 0 0 0 0-6.21 5.11 5.11 0 0 0-2-2.1 6.11 6.11 0 0 0-5.83 0 5.27 5.27 0 0 0-2 2.1 6.88 6.88 0 0 0 0 6.21 5.27 5.27 0 0 0 2 2.1 6.11 6.11 0 0 0 5.83 0ZM269.52 64.87l-5.78 15.26h-1.94l-4.8-12.5-4.81 12.5h-1.94l-5.75-15.26h2l4.78 13 4.9-13h1.77l4.88 13 4.84-13ZM285.47 73.14h-12.76a5.4 5.4 0 0 0 1.82 3.86 6.08 6.08 0 0 0 4.18 1.47 6.53 6.53 0 0 0 2.61-.51 5.62 5.62 0 0 0 2.06-1.49l1.16 1.33a6.53 6.53 0 0 1-2.54 1.84 8.66 8.66 0 0 1-3.35.64 8.56 8.56 0 0 1-4.16-1 7.25 7.25 0 0 1-2.83-2.77 8 8 0 0 1-1-4 8.14 8.14 0 0 1 1-4 7 7 0 0 1 2.67-2.75 7.81 7.81 0 0 1 7.61 0 7 7 0 0 1 2.64 2.74 8.2 8.2 0 0 1 1 4Zm-11.07-5.21a5.55 5.55 0 0 0-1.69 3.67h10.82a5.56 5.56 0 0 0-1.7-3.67 5.63 5.63 0 0 0-7.43 0ZM293.84 65.54a7.34 7.34 0 0 1 3.55-.78v2h-.49a4.85 4.85 0 0 0-3.77 1.48 5.9 5.9 0 0 0-1.37 4.15v7.77h-2.06V64.87h2v3a5 5 0 0 1 2.14-2.33ZM314.24 73.14h-12.76a5.45 5.45 0 0 0 1.83 3.86 6 6 0 0 0 4.17 1.47 6.62 6.62 0 0 0 2.62-.51 5.71 5.71 0 0 0 2.06-1.49l1.16 1.33a6.68 6.68 0 0 1-2.54 1.86 8.69 8.69 0 0 1-3.35.64 8.57 8.57 0 0 1-4.17-1 7.22 7.22 0 0 1-2.82-2.77 7.89 7.89 0 0 1-1-4 8.14 8.14 0 0 1 1-4 7 7 0 0 1 2.67-2.75 7.83 7.83 0 0 1 7.62 0 7 7 0 0 1 2.64 2.74 8.31 8.31 0 0 1 .95 4Zm-11.06-5.21a5.56 5.56 0 0 0-1.7 3.67h10.82a5.51 5.51 0 0 0-1.7-3.67 5.62 5.62 0 0 0-7.42 0ZM332.4 58.61v21.52h-2v-3a6.42 6.42 0 0 1-2.4 2.34 7.22 7.22 0 0 1-3.44.81 7.67 7.67 0 0 1-3.88-1 7.1 7.1 0 0 1-2.73-2.76 8.7 8.7 0 0 1 0-8.06 7 7 0 0 1 2.73-2.74 7.76 7.76 0 0 1 3.88-1 7.22 7.22 0 0 1 3.35.77 6.34 6.34 0 0 1 2.45 2.24v-9.12Zm-4.8 19.1a5.2 5.2 0 0 0 2-2.1 6.88 6.88 0 0 0 0-6.21 5.2 5.2 0 0 0-2-2.1 5.62 5.62 0 0 0-2.88-.74 5.69 5.69 0 0 0-2.92.74 5.2 5.2 0 0 0-2 2.1 6.88 6.88 0 0 0 0 6.21 5.2 5.2 0 0 0 2 2.1 5.79 5.79 0 0 0 2.92.74 5.72 5.72 0 0 0 2.88-.74ZM357.49 65.73a7 7 0 0 1 2.73 2.74 8.7 8.7 0 0 1 0 8.06 7.1 7.1 0 0 1-2.73 2.76 7.7 7.7 0 0 1-3.88 1 7.19 7.19 0 0 1-3.44-.81 6.35 6.35 0 0 1-2.45-2.35v3h-2V58.61h2.06v9.16a6.41 6.41 0 0 1 2.45-2.24 7.29 7.29 0 0 1 3.36-.77 7.79 7.79 0 0 1 3.9.97Zm-1.13 12a5.25 5.25 0 0 0 2.05-2.1 6.88 6.88 0 0 0 0-6.21 5.25 5.25 0 0 0-2.05-2.1 6.09 6.09 0 0 0-5.82 0 5.24 5.24 0 0 0-2 2.1 6.88 6.88 0 0 0 0 6.21 5.24 5.24 0 0 0 2 2.1 6.09 6.09 0 0 0 5.82 0ZM377.8 64.87 370.17 82a7.35 7.35 0 0 1-2.17 3 4.85 4.85 0 0 1-2.93.89 6.06 6.06 0 0 1-2.06-.34 4.44 4.44 0 0 1-1.65-1l1-1.54a3.76 3.76 0 0 0 2.78 1.16 2.76 2.76 0 0 0 1.78-.58 5.05 5.05 0 0 0 1.38-2l.7-1.49-6.82-15.23h2.15l5.74 13 5.75-13ZM278.93 33.39a11.51 11.51 0 0 1-1.13 5.27 10.62 10.62 0 0 1-3 3.65 12.61 12.61 0 0 1-4.19 2.1 17 17 0 0 1-4.73.67h-8.67V21.83h8.41a21 21 0 0 1 4.86.57 12.28 12.28 0 0 1 4.27 1.91 9.77 9.77 0 0 1 3 3.56 11.93 11.93 0 0 1 1.15 5.52m-5.85 0a7.36 7.36 0 0 0-.64-3.27 5.45 5.45 0 0 0-1.71-2.07 6.9 6.9 0 0 0-2.4-1.05 11.85 11.85 0 0 0-2.8-.33h-2.8v13.6h2.66a12.08 12.08 0 0 0 2.91-.34 6.94 6.94 0 0 0 2.46-1.13 5.5 5.5 0 0 0 1.71-2.11 7.33 7.33 0 0 0 .64-3.25M282.12 31a9.38 9.38 0 0 1 3.36-2.07 11.54 11.54 0 0 1 3.93-.69 10.41 10.41 0 0 1 3.49.51 5.2 5.2 0 0 1 2.32 1.58 6.83 6.83 0 0 1 1.3 2.69 16.08 16.08 0 0 1 .41 3.86v8.24H292v-1.78h-.1a4 4 0 0 1-1.9 1.58 6.71 6.71 0 0 1-2.74.56 8.63 8.63 0 0 1-2-.26 6 6 0 0 1-1.93-.86 4.58 4.58 0 0 1-1.42-1.57 4.81 4.81 0 0 1-.56-2.44 4.09 4.09 0 0 1 1-2.85 6.38 6.38 0 0 1 2.49-1.68 13.34 13.34 0 0 1 3.4-.79 35.3 35.3 0 0 1 3.65-.19v-.27a2 2 0 0 0-.86-1.79 3.7 3.7 0 0 0-2.1-.57 5.2 5.2 0 0 0-2.22.49 7.23 7.23 0 0 0-1.82 1.18Zm9.88 7h-.69c-.59 0-1.19 0-1.79.08a7.3 7.3 0 0 0-1.61.31 2.93 2.93 0 0 0-1.16.67 1.55 1.55 0 0 0-.46 1.17 1.43 1.43 0 0 0 .21.79 1.58 1.58 0 0 0 .54.52 2 2 0 0 0 .76.28 4 4 0 0 0 .82.09 3.09 3.09 0 0 0 3.38-3.39ZM306.45 32.74V39a2.77 2.77 0 0 0 .45 1.73 1.87 1.87 0 0 0 1.59.58 5.09 5.09 0 0 0 .84-.07 2.73 2.73 0 0 0 .74-.2l.06 4a9.15 9.15 0 0 1-1.41.34 9.88 9.88 0 0 1-1.71.15 8.19 8.19 0 0 1-2.76-.41 4.33 4.33 0 0 1-1.79-1.19 4.77 4.77 0 0 1-1-1.84 9.32 9.32 0 0 1-.29-2.39v-6.96h-2.63v-4h2.6v-4.32h5.28v4.31h3.85v4ZM312.6 31a9.38 9.38 0 0 1 3.4-2.11 11.54 11.54 0 0 1 3.93-.69 10.52 10.52 0 0 1 3.5.51 5.23 5.23 0 0 1 2.31 1.58A6.69 6.69 0 0 1 327 33a16.08 16.08 0 0 1 .41 3.86v8.24h-4.93v-1.76h-.1a4 4 0 0 1-1.88 1.58 6.79 6.79 0 0 1-2.75.56 8.63 8.63 0 0 1-2-.26 5.86 5.86 0 0 1-1.92-.86 4.61 4.61 0 0 1-1.43-1.57 4.81 4.81 0 0 1-.56-2.44 4.09 4.09 0 0 1 1-2.85 6.45 6.45 0 0 1 2.49-1.68 13.34 13.34 0 0 1 3.4-.79 35.3 35.3 0 0 1 3.65-.19v-.27a2 2 0 0 0-.86-1.79 3.68 3.68 0 0 0-2.1-.57 5.19 5.19 0 0 0-2.21.49 7.12 7.12 0 0 0-1.83 1.18Zm9.88 7h-.69c-.59 0-1.19 0-1.79.08a7.3 7.3 0 0 0-1.61.31 2.93 2.93 0 0 0-1.16.67 1.55 1.55 0 0 0-.46 1.17 1.43 1.43 0 0 0 .23.77 1.58 1.58 0 0 0 .54.52 2 2 0 0 0 .76.28 4 4 0 0 0 .82.09 3.09 3.09 0 0 0 3.38-3.35ZM209.36 21.83h8a11.79 11.79 0 0 1 2.63.3 6.76 6.76 0 0 1 2.35 1 5.19 5.19 0 0 1 1.66 1.79 5.49 5.49 0 0 1 .64 2.79 4.85 4.85 0 0 1-1.09 3.29 5.71 5.71 0 0 1-3 1.81v.06a6.61 6.61 0 0 1 2.07.58 5.12 5.12 0 0 1 2.71 2.87 6.15 6.15 0 0 1 .38 2.2 5.75 5.75 0 0 1-2.56 5 8.68 8.68 0 0 1-2.78 1.21 13.26 13.26 0 0 1-3.4.41h-7.65Zm3.25 9.82h4.24a7.11 7.11 0 0 0 1.75-.21 4.29 4.29 0 0 0 1.47-.66 3.3 3.3 0 0 0 1-1.12 3.37 3.37 0 0 0 .36-1.62 2.86 2.86 0 0 0-1.43-2.68 7.29 7.29 0 0 0-3.71-.81h-3.71Zm0 10.68h4.07a11.12 11.12 0 0 0 2.06-.19 5.67 5.67 0 0 0 1.87-.64 3.61 3.61 0 0 0 1.39-1.23 3.45 3.45 0 0 0 .51-2 3.3 3.3 0 0 0-1.41-3 7.5 7.5 0 0 0-4.07-.92h-4.37ZM233.89 23.9a1.84 1.84 0 0 1-.6 1.41 2.06 2.06 0 0 1-1.45.56 2 2 0 0 1-1.43-.58 1.87 1.87 0 0 1-.59-1.39 1.92 1.92 0 0 1 .59-1.43 2 2 0 0 1 1.43-.57 2 2 0 0 1 1.45.57 1.89 1.89 0 0 1 .6 1.43m-.49 21.19h-3.09V29.52h3.09ZM254.55 37.27a8.4 8.4 0 0 1-.64 3.32 7.84 7.84 0 0 1-1.77 2.61 8.09 8.09 0 0 1-2.68 1.71 9.46 9.46 0 0 1-6.63 0 7.9 7.9 0 0 1-2.66-1.71 8.12 8.12 0 0 1-1.76-2.61 8.4 8.4 0 0 1-.64-3.32 8.2 8.2 0 0 1 .64-3.3 7.78 7.78 0 0 1 4.42-4.27 9.31 9.31 0 0 1 6.63 0 8 8 0 0 1 2.68 1.69 7.52 7.52 0 0 1 1.77 2.61 8.2 8.2 0 0 1 .64 3.3m-3.21 0a6.5 6.5 0 0 0-.35-2.12 5.33 5.33 0 0 0-1-1.79 4.81 4.81 0 0 0-1.63-1.23 5.61 5.61 0 0 0-4.45 0 5 5 0 0 0-1.63 1.23 5.31 5.31 0 0 0-1 1.79 6.63 6.63 0 0 0 0 4.25 5.46 5.46 0 0 0 1 1.8 4.8 4.8 0 0 0 1.63 1.25 5.61 5.61 0 0 0 4.45 0 4.62 4.62 0 0 0 1.64-1.27 5.48 5.48 0 0 0 1-1.8 6.52 6.52 0 0 0 .35-2.13M192.62 12.53h1.5v39.52h-1.5zM378.76 36.27h4.34l-2.17-6.84-2.17 6.84z" class="cls-1"/><path d="M334.42 14.72v37.76h191.42l15.4-18.88-15.4-18.88Zm24.3 31c-6 0-10.61-4.57-10.61-11.85v-.4c0-7.2 4.7-11.9 10.84-11.9A9.94 9.94 0 0 1 367 25.2l-3.87 4.1a5.25 5.25 0 0 0-4.1-2.2c-2.74 0-4.77 2.43-4.77 6.4v.14c0 4.16 2.07 6.47 4.77 6.47a5.41 5.41 0 0 0 4.27-2.31l3.8 3.87a10.23 10.23 0 0 1-8.4 4m27.25-.4-1.37-4.21h-7.34l-1.33 4.21h-6.17L378 21.79h6l8.24 23.49Zm24.28-18h-5.77v18h-6v-18h-5.76v-5.4h17.55Zm16.68 18-1.37-4.21h-7.34l-1.33 4.21h-6.17l8.2-23.49h6.1l8.24 23.49Zm25.45 0H437.2V21.93h6v17.94h9.18Zm12.64-8.8v8.81h-6v-8.74l-7.51-14.61h6.64l3.9 8.44 3.94-8.44h6.54Zm26.65 1.8c0 4.54-3.5 7.34-8.5 7.34a14.21 14.21 0 0 1-9.51-3.44l3.2-4.37a10.17 10.17 0 0 0 6.34 2.64c1.6 0 2.43-.7 2.43-1.7 0-.94-.7-1.51-3.43-2.47-4.4-1.51-7.51-3.11-7.51-7.34v-.1c0-4.24 3.24-7.21 8.34-7.21a12.75 12.75 0 0 1 8.34 2.84l-3 4.47a9.25 9.25 0 0 0-5.44-2.14c-1.37 0-2.14.67-2.14 1.54 0 1 .74 1.57 3.71 2.67 4.43 1.43 7.2 3.24 7.2 7.2Zm20.55-10.94h-5.77v18h-6v-18h-5.83v-5.4h17.55Z" class="cls-1"/><path d="M419.72 36.27h4.34l-2.17-6.84-2.17 6.84z" class="cls-1"/><path d="M334.42 14.72v37.76h191.42l15.4-18.88-15.4-18.88Zm24.3 31c-6 0-10.61-4.57-10.61-11.85v-.4c0-7.2 4.7-11.9 10.84-11.9A9.94 9.94 0 0 1 367 25.2l-3.87 4.1a5.25 5.25 0 0 0-4.1-2.2c-2.74 0-4.77 2.43-4.77 6.4v.14c0 4.16 2.07 6.47 4.77 6.47a5.41 5.41 0 0 0 4.27-2.31l3.8 3.87a10.23 10.23 0 0 1-8.4 4m27.25-.4-1.37-4.21h-7.34l-1.33 4.21h-6.17L378 21.79h6l8.24 23.49Zm24.28-18h-5.77v18h-6v-18h-5.76v-5.4h17.55Zm16.68 18-1.37-4.21h-7.34l-1.33 4.21h-6.17l8.2-23.49h6.1l8.24 23.49Zm25.45 0H437.2V21.93h6v17.94h9.18Zm12.64-8.8v8.81h-6v-8.74l-7.51-14.61h6.64l3.9 8.44 3.94-8.44h6.54Zm26.65 1.8c0 4.54-3.5 7.34-8.5 7.34a14.21 14.21 0 0 1-9.51-3.44l3.2-4.37a10.17 10.17 0 0 0 6.34 2.64c1.6 0 2.43-.7 2.43-1.7 0-.94-.7-1.51-3.43-2.47-4.4-1.51-7.51-3.11-7.51-7.34v-.1c0-4.24 3.24-7.21 8.34-7.21a12.75 12.75 0 0 1 8.34 2.84l-3 4.47a9.25 9.25 0 0 0-5.44-2.14c-1.37 0-2.14.67-2.14 1.54 0 1 .74 1.57 3.71 2.67 4.43 1.43 7.2 3.24 7.2 7.2Zm20.55-10.94h-5.77v18h-6v-18h-5.83v-5.4h17.55ZM56.58 14.67H18.11a3.48 3.48 0 0 0-3.48 3.48V49a3.48 3.48 0 0 0 3.48 3.48h38.43L67 33.54ZM34.18 42h-3.12l-7.69-12.38h-.07V42h-2.81V25.15h3.12l7.71 12.44h.05V25.15h2.81Zm5.87 0h-3V25.15h3Zm13.6 0v-7.58H46V42h-3V25.15h3v6.72h7.69v-6.72h3V42Z" class="cls-1"/><path d="m59.16 52.44 10.47-18.9L59.2 14.67h2.61a4.87 4.87 0 0 1 3.86 2.27l9.17 16.6-9.2 16.63a4.89 4.89 0 0 1-3.86 2.27Z" class="cls-1"/><path d="m59.16 52.44 10.47-18.9L59.2 14.67h2.61a4.87 4.87 0 0 1 3.86 2.27l9.17 16.6-9.2 16.63a4.89 4.89 0 0 1-3.86 2.27ZM163.47 41.1a1.4 1.4 0 1 1 2.79 0Zm4 .78a2.63 2.63 0 1 0-5.19-.3 2.58 2.58 0 0 0 2.66 2.86 2.38 2.38 0 0 0 2.45-1.85h-1.13a1.25 1.25 0 0 1-1.32.9 1.45 1.45 0 0 1-1.46-1.61Zm-8.78-2.13h.91V43c0 .9.25 1.38 1.5 1.38.26 0 .51 0 .77-.06v-.92a2.07 2.07 0 0 1-.5 0c-.54 0-.58-.26-.58-.75v-2.9h1.08v-.89h-1.08v-1.62h-1.19v1.62h-.91Zm-.52-.89H157V42c0 .84-.33 1.48-1.33 1.48-.65 0-1-.35-1-1.3v-3.32h-1.2v3.45c0 1.41.61 2.13 2 2.13a1.81 1.81 0 0 0 1.54-.91v.76h1.18Zm-8.62.89h.91V43c0 .9.25 1.38 1.49 1.38.27 0 .52 0 .78-.06v-.92a2.11 2.11 0 0 1-.5 0c-.54 0-.58-.26-.58-.75v-2.9h1.08v-.89h-1.08v-1.62h-1.19v1.62h-.91Zm-1.76-1.82H149V36.8h-1.2Zm0 6.36H149v-5.43h-1.2Zm-3.88-4.54h.9V43c0 .9.25 1.38 1.5 1.38.26 0 .51 0 .78-.06v-.92a2.19 2.19 0 0 1-.51 0c-.53 0-.58-.26-.58-.75v-2.9h1.09v-.89H146v-1.62h-1.2v1.62h-.9Zm-5 2.8c0 1.28 1 1.89 2.4 1.89 1.13 0 2.43-.48 2.43-1.77 0-1.07-.88-1.38-1.75-1.58s-1.77-.29-1.77-.87.64-.56 1-.56c.52 0 1 .16 1.1.72h1.25c-.15-1.2-1.15-1.66-2.27-1.66s-2.26.36-2.26 1.55.86 1.41 1.74 1.61 1.74.27 1.77.9-.75.71-1.2.71c-.64 0-1.17-.25-1.23-.94Zm-5.54 1.74h1.2v-3.2a1.32 1.32 0 0 1 1.31-1.43c.7 0 1 .37 1.06 1.22v3.41h1.2v-3.73a1.71 1.71 0 0 0-1.93-1.84 1.94 1.94 0 0 0-1.69 1v-.8h-1.13Zm-2.56 0h1.31V36.8h-1.31Zm-4-7.49h-1.2v2.77a2.1 2.1 0 0 0-1.81-.85c-1.19 0-2.35.85-2.35 2.82 0 1.63.83 2.9 2.54 2.9a1.82 1.82 0 0 0 1.68-.89v.74h1.13Zm-4.18 4.83c0-1 .4-2 1.52-2 .93 0 1.51.71 1.51 1.91 0 1-.46 1.92-1.52 1.92s-1.51-.92-1.51-1.86m-4.48 2.81a2.63 2.63 0 0 0 2.74-2.87 2.74 2.74 0 1 0-5.47 0 2.62 2.62 0 0 0 2.73 2.87m0-.95c-1.07 0-1.54-1-1.54-1.92s.47-1.91 1.54-1.91 1.54 1 1.54 1.91-.47 1.92-1.54 1.92m-6 .95a2.62 2.62 0 0 0 2.73-2.87 2.74 2.74 0 1 0-5.47 0 2.62 2.62 0 0 0 2.74 2.87m0-.95c-1.07 0-1.55-1-1.55-1.92s.48-1.91 1.55-1.91 1.54 1 1.54 1.91-.47 1.92-1.54 1.92m-4.8.8h1.2V36.8h-1.2Zm-5.75-6.42h2.14c.71 0 1.1.27 1.1 1a1 1 0 0 1-1.1 1h-2.14Zm-1.31 6.42h3.44c1.94 0 2.76-.91 2.76-2.09a1.78 1.78 0 0 0-1.49-1.9 1.64 1.64 0 0 0 1.07-1.6c0-1.25-.88-1.85-2.22-1.85h-3.64Zm1.31-3.41h2.32a1.1 1.1 0 0 1 1.2 1.15 1.11 1.11 0 0 1-1.26 1.19h-2.32Zm-5.38-4.05H95v2.77a2.07 2.07 0 0 0-1.8-.85c-1.19 0-2.35.85-2.35 2.82 0 1.63.83 2.9 2.54 2.9a1.82 1.82 0 0 0 1.68-.89v.74h1.13ZM92 41.63c0-1 .4-2 1.52-2 .93 0 1.51.71 1.51 1.91 0 1-.46 1.92-1.53 1.92s-1.5-.89-1.5-1.83m-6.77 2.66h1.2v-3.2a1.32 1.32 0 0 1 1.31-1.43c.71 0 1 .37 1.06 1.22v3.41H90v-3.73a1.71 1.71 0 0 0-1.92-1.84 1.92 1.92 0 0 0-1.69 1v-.8h-1.12Zm-1.1-4c0-1.14-1.11-1.57-2.17-1.57s-2.38.4-2.47 1.8h1.2c0-.59.52-.86 1.2-.86.48 0 1.12.12 1.12.73s-.77.61-1.63.77c-1 .12-2.08.34-2.08 1.69a1.65 1.65 0 0 0 1.85 1.59 2.8 2.8 0 0 0 1.88-.67c.09.5.44.67.92.67a3.19 3.19 0 0 0 .76-.14v-.83a1.79 1.79 0 0 1-.3 0c-.22 0-.28-.11-.28-.41ZM83 42.46c0 .76-.82 1-1.35 1s-1.1-.16-1.1-.69.46-.82 1-.91a4.25 4.25 0 0 0 1.45-.29ZM175.48 31h.72a1 1 0 0 1-.68 1v.64a1.68 1.68 0 0 0 1.41-1.64v-1.42h-1.45Zm-1.12-5.42h-1.19v.74a1.73 1.73 0 0 0-1.61-.89 2.5 2.5 0 0 0-2.45 2.72c0 1.55.71 2.85 2.43 2.85a1.86 1.86 0 0 0 1.63-.95v.83a1.23 1.23 0 0 1-1.4 1.38c-.61 0-1.15-.11-1.3-.79h-1.2c.11 1.27 1.34 1.68 2.43 1.68 1.71 0 2.66-.8 2.66-2.43Zm-2.65 4.48c-1 0-1.43-.9-1.43-1.79s.37-1.9 1.43-1.9 1.46.87 1.46 1.8-.4 1.89-1.46 1.89m-8.2.94h1.2v-3.2a1.32 1.32 0 0 1 1.29-1.44c.7 0 1 .37 1.06 1.22V31h1.19v-3.73a1.71 1.71 0 0 0-1.91-1.85 2 2 0 0 0-1.7 1v-.79h-1.13Zm-1.07-5.42h-1.2v3.15c0 .84-.33 1.48-1.33 1.48-.65 0-1-.35-1-1.3v-3.34h-1.19V29c0 1.42.61 2.13 2 2.13a1.82 1.82 0 0 0 1.54-.9V31h1.17ZM152 31h5.12v-1.14h-3.81V23.5H152Zm-5.53 0h.72a1 1 0 0 1-.68 1v.64a1.69 1.69 0 0 0 1.43-1.64v-1.42h-1.46Zm-3.95-4.53h.91v3.2c0 .9.25 1.39 1.49 1.39a6.65 6.65 0 0 0 .78-.07v-.92a2.15 2.15 0 0 1-.5 0c-.54 0-.58-.25-.58-.74v-2.9h1.08v-.89h-1.08v-1.6h-1.19v1.63h-.91Zm-3 4.53h1.2v-2.59c0-1.19.65-1.86 1.47-1.86a4.18 4.18 0 0 1 .51.06v-1.16a2.94 2.94 0 0 0-.45 0 1.74 1.74 0 0 0-1.58 1.2v-1.08h-1.13Zm-1.1-4c0-1.14-1.11-1.57-2.17-1.57s-2.38.41-2.47 1.81H135c.05-.59.52-.87 1.19-.87.49 0 1.13.12 1.13.74s-.77.61-1.63.77-2.09.33-2.09 1.69a1.65 1.65 0 0 0 1.86 1.58 2.79 2.79 0 0 0 1.88-.66c.09.49.44.66.92.66a3.18 3.18 0 0 0 .76-.13v-.83a1.79 1.79 0 0 1-.3 0c-.22 0-.28-.12-.28-.41Zm-1.2 2.18c0 .76-.81 1-1.34 1s-1.1-.16-1.1-.7.46-.81 1-.9a4.14 4.14 0 0 0 1.46-.32Zm-8.06-1.36a1.4 1.4 0 1 1 2.8 0Zm4 .78a2.62 2.62 0 1 0-5.18-.3 2.57 2.57 0 0 0 2.65 2.85 2.37 2.37 0 0 0 2.46-1.85H132a1.27 1.27 0 0 1-1.33.91 1.45 1.45 0 0 1-1.46-1.61ZM121 31h1.31v-3.38h3.41V31h1.31v-7.5h-1.31v3h-3.41v-3H121Zm-5.17 0h1.19v-7.5h-1.19Zm-1.14-4c0-1.14-1.11-1.57-2.17-1.57s-2.38.41-2.47 1.81h1.2c0-.59.52-.87 1.2-.87.48 0 1.12.12 1.12.74s-.77.61-1.63.77c-1 .11-2.08.33-2.08 1.69a1.64 1.64 0 0 0 1.85 1.58 2.79 2.79 0 0 0 1.88-.66c.09.49.44.66.92.66a3.18 3.18 0 0 0 .76-.13v-.83a1.79 1.79 0 0 1-.3 0c-.22 0-.28-.12-.28-.41Zm-1.19 2.18c0 .76-.82 1-1.35 1s-1.1-.16-1.1-.7.46-.81 1-.9a4.25 4.25 0 0 0 1.47-.32ZM104.34 31h1.2v-3.2a1.32 1.32 0 0 1 1.31-1.43c.7 0 1 .37 1.06 1.22V31h1.2v-3.73a1.72 1.72 0 0 0-1.93-1.85 1.92 1.92 0 0 0-1.68 1v-.79h-1.13Zm-3.54.15a2.61 2.61 0 0 0 2.73-2.86 2.74 2.74 0 1 0-5.47 0 2.62 2.62 0 0 0 2.74 2.86m0-.94c-1.08 0-1.55-1-1.55-1.92s.47-1.92 1.55-1.92 1.54 1 1.54 1.92-.47 1.92-1.54 1.92M96 24.63h1.19V23.5H96ZM96 31h1.19v-5.43H96Zm-3.88-4.53H93v3.2c0 .9.25 1.39 1.5 1.39a6.68 6.68 0 0 0 .77-.07v-.92a2.07 2.07 0 0 1-.5 0c-.53 0-.58-.25-.58-.74v-2.9h1.08v-.89h-1.06v-1.6H93v1.63h-.9Zm-.56.53c0-1.14-1.11-1.57-2.17-1.57s-2.39.41-2.47 1.81h1.2c0-.59.52-.87 1.19-.87.49 0 1.13.12 1.13.74s-.77.61-1.63.77c-1 .11-2.09.33-2.09 1.69a1.65 1.65 0 0 0 1.86 1.58 2.79 2.79 0 0 0 1.88-.66c.09.49.44.66.92.66a3 3 0 0 0 .75-.13v-.83a1.62 1.62 0 0 1-.29 0c-.22 0-.28-.12-.28-.41Zm-1.2 2.18c0 .76-.81 1-1.34 1s-1.1-.16-1.1-.7.46-.81 1-.9a4.14 4.14 0 0 0 1.47-.32ZM79.74 31H81v-5.5l3.43 5.5h1.39v-7.5h-1.25V29l-3.44-5.5h-1.39Z" class="cls-1"/><g id="xrushB.tif"><path d="M538.33 52.67h-.62a3.83 3.83 0 0 1-.89-.2 4 4 0 0 1-1.54-1 3.91 3.91 0 0 1-.88-3.47 3.86 3.86 0 0 1 1.38-2.14 3.78 3.78 0 0 1 2.16-.81 3.55 3.55 0 0 1 1.22.13 3.79 3.79 0 0 1 2.32 1.77 3.63 3.63 0 0 1 .51 1.64s0 .09 0 .13v.54a3.74 3.74 0 0 1-.24.93 3.87 3.87 0 0 1-1.87 2.05 3.8 3.8 0 0 1-1.41.39Zm-3.25-3.85a3.07 3.07 0 1 0 3.07-3.07 3.08 3.08 0 0 0-3.07 3.07Z" class="cls-1"/><path d="M538.82 48.86a.75.75 0 0 1 .41.26 1.57 1.57 0 0 1 .19.26c.11.21.22.42.32.63l.35.7H539l-.5-1a1 1 0 0 0-.23-.32.58.58 0 0 0-.33-.14h-.42v1.51h-1v-4h1.67a2.13 2.13 0 0 1 .8.13.91.91 0 0 1 .47.32.85.85 0 0 1 .17.42 1.44 1.44 0 0 1 0 .62 1 1 0 0 1-.54.59Zm-1.31-.36h.66a.38.38 0 0 0 .33-.29.75.75 0 0 0 0-.42.34.34 0 0 0-.23-.25.85.85 0 0 0-.22 0h-.56Z" class="cls-1"/></g><path d="M392.39 61.5h-7.15v-1.86h16.45v1.86h-7.15V80h-2.15ZM416.41 73h-12.8a5.49 5.49 0 0 0 1.83 3.85 6.09 6.09 0 0 0 4.19 1.47 6.62 6.62 0 0 0 2.62-.51 5.73 5.73 0 0 0 2.06-1.5l1.16 1.34a6.53 6.53 0 0 1-2.54 1.86 8.56 8.56 0 0 1-3.36.64 8.46 8.46 0 0 1-4.17-1 7.21 7.21 0 0 1-2.83-2.78 7.89 7.89 0 0 1-1-4 8.18 8.18 0 0 1 1-4 7 7 0 0 1 2.68-2.77 7.54 7.54 0 0 1 3.82-1 7.45 7.45 0 0 1 3.81 1 7.06 7.06 0 0 1 2.64 2.75 8.31 8.31 0 0 1 1 4Zm-11.1-5.22a5.6 5.6 0 0 0-1.7 3.68h10.85a5.6 5.6 0 0 0-1.7-3.68 5.63 5.63 0 0 0-7.45 0ZM424.79 65.37a7.41 7.41 0 0 1 3.56-.78v2h-.49a4.88 4.88 0 0 0-3.78 1.49 5.88 5.88 0 0 0-1.37 4.15V80h-2.06V64.7h2v3a5 5 0 0 1 2.14-2.33ZM436.22 65.37a7.38 7.38 0 0 1 3.56-.78v2h-.49a4.88 4.88 0 0 0-3.78 1.49 5.84 5.84 0 0 0-1.37 4.15V80h-2.06V64.7h2v3a5 5 0 0 1 2.14-2.33ZM453.41 66.08a5.79 5.79 0 0 1 1.6 4.44V80h-2v-2.39a4.7 4.7 0 0 1-2.01 1.86 7.15 7.15 0 0 1-3.22.67 6.33 6.33 0 0 1-4.07-1.22 4 4 0 0 1-1.51-3.23 3.92 3.92 0 0 1 1.41-3.14 6.93 6.93 0 0 1 4.49-1.19h4.9v-.93a3.91 3.91 0 0 0-1.11-3 4.53 4.53 0 0 0-3.22-1 8.18 8.18 0 0 0-2.79.48 7.11 7.11 0 0 0-2.3 1.32l-.93-1.54a8.17 8.17 0 0 1 2.79-1.53 11.14 11.14 0 0 1 3.43-.53 6.48 6.48 0 0 1 4.54 1.45Zm-2.32 11.63A4.78 4.78 0 0 0 453 75.4v-2.5h-4.8q-3.91 0-3.92 2.73a2.5 2.5 0 0 0 1 2.11 4.6 4.6 0 0 0 2.85.77 5.38 5.38 0 0 0 2.96-.8Z" class="cls-1"/></svg>