<?xml version="1.0" encoding="utf-8"?>
<!-- Generator: Adobe Illustrator 23.1.1, SVG Export Plug-In . SVG Version: 6.00 Build 0)  -->
<svg version="1.1" id="Layer_1" xmlns="http://www.w3.org/2000/svg" xmlns:xlink="http://www.w3.org/1999/xlink" x="0px" y="0px"
	 viewBox="0 0 959.8 540" style="enable-background:new 0 0 959.8 540;" xml:space="preserve">
<style type="text/css">
	.st0{fill:#FFFFFF;}
</style>
<g>
	<g>
		<path class="st0" d="M477.8,251.5c0,3.4-0.6,6.3-1.9,8.8c-1.3,2.5-2.9,4.5-5,6.1c-2.1,1.6-4.4,2.8-7,3.5c-2.6,0.7-5.2,1.1-7.9,1.1
			h-14.5v-38.9h14.1c2.7,0,5.5,0.3,8.1,1c2.7,0.6,5.1,1.7,7.1,3.2s3.8,3.5,5.1,6C477.2,244.8,477.8,247.9,477.8,251.5 M468,251.5
			c0-2.2-0.4-4-1.1-5.5c-0.7-1.4-1.7-2.6-2.9-3.5c-1.2-0.9-2.5-1.5-4.1-1.8c-1.5-0.4-3.1-0.5-4.7-0.5h-4.7V263h4.4
			c1.7,0,3.3-0.2,4.9-0.6c1.6-0.4,2.9-1,4.1-1.9c1.2-0.9,2.1-2.1,2.9-3.5C467.7,255.5,468,253.7,468,251.5"/>
		<path class="st0" d="M483.1,247.5c1.6-1.5,3.5-2.7,5.6-3.5c2.1-0.8,4.3-1.2,6.6-1.2c2.3,0,4.3,0.3,5.8,0.9
			c1.6,0.6,2.9,1.4,3.9,2.6c1,1.2,1.7,2.7,2.2,4.5c0.5,1.8,0.7,4,0.7,6.5v13.8h-8.2v-2.9h-0.2c-0.7,1.1-1.7,2-3.2,2.6
			c-1.4,0.6-2.9,0.9-4.6,0.9c-1.1,0-2.2-0.1-3.4-0.4s-2.2-0.8-3.2-1.4c-1-0.7-1.8-1.5-2.4-2.6c-0.6-1.1-0.9-2.5-0.9-4.1
			c0-2,0.5-3.6,1.6-4.8c1.1-1.2,2.5-2.1,4.2-2.8c1.7-0.7,3.6-1.1,5.7-1.3c2.1-0.2,4.1-0.3,6.1-0.3v-0.4c0-1.4-0.5-2.4-1.4-3
			c-1-0.6-2.1-1-3.5-1c-1.3,0-2.5,0.3-3.7,0.8c-1.2,0.5-2.2,1.2-3,2L483.1,247.5z M499.7,259.2h-1.2c-1,0-2,0-3,0.1
			c-1,0.1-1.9,0.3-2.7,0.5c-0.8,0.3-1.4,0.6-1.9,1.1c-0.5,0.5-0.8,1.1-0.8,1.9c0,0.5,0.1,1,0.4,1.3c0.2,0.4,0.5,0.7,0.9,0.9
			c0.4,0.2,0.8,0.4,1.3,0.5c0.5,0.1,0.9,0.1,1.4,0.1c1.8,0,3.2-0.5,4.2-1.5c1-1,1.5-2.4,1.5-4.1V259.2z"/>
		<path class="st0" d="M523.8,250.4v10.5c0,1.3,0.2,2.3,0.7,2.9c0.5,0.6,1.4,1,2.7,1c0.4,0,0.9,0,1.4-0.1c0.5-0.1,0.9-0.2,1.2-0.3
			l0.1,6.6c-0.6,0.2-1.4,0.4-2.4,0.6c-1,0.2-1.9,0.2-2.9,0.2c-1.8,0-3.4-0.2-4.6-0.7c-1.2-0.5-2.2-1.1-3-2c-0.7-0.9-1.3-1.9-1.6-3.1
			c-0.3-1.2-0.5-2.5-0.5-4v-11.6h-4.4v-6.7h4.3v-7.2h8.8v7.2h6.4v6.7H523.8z"/>
		<path class="st0" d="M534.1,247.5c1.6-1.5,3.5-2.7,5.6-3.5c2.1-0.8,4.3-1.2,6.6-1.2c2.3,0,4.3,0.3,5.8,0.9
			c1.6,0.6,2.9,1.4,3.9,2.6c1,1.2,1.7,2.7,2.2,4.5c0.5,1.8,0.7,4,0.7,6.5v13.8h-8.2v-2.9h-0.2c-0.7,1.1-1.7,2-3.2,2.6
			c-1.4,0.6-2.9,0.9-4.6,0.9c-1.1,0-2.2-0.1-3.4-0.4c-1.2-0.3-2.2-0.8-3.2-1.4c-1-0.7-1.8-1.5-2.4-2.6c-0.6-1.1-0.9-2.5-0.9-4.1
			c0-2,0.5-3.6,1.6-4.8c1.1-1.2,2.5-2.1,4.2-2.8c1.7-0.7,3.6-1.1,5.7-1.3c2.1-0.2,4.1-0.3,6.1-0.3v-0.4c0-1.4-0.5-2.4-1.4-3
			c-1-0.6-2.1-1-3.5-1c-1.3,0-2.5,0.3-3.7,0.8c-1.2,0.5-2.2,1.2-3,2L534.1,247.5z M550.6,259.2h-1.2c-1,0-2,0-3,0.1
			c-1,0.1-1.9,0.3-2.7,0.5c-0.8,0.3-1.4,0.6-2,1.1c-0.5,0.5-0.8,1.1-0.8,1.9c0,0.5,0.1,1,0.4,1.3c0.2,0.4,0.5,0.7,0.9,0.9
			c0.4,0.2,0.8,0.4,1.3,0.5c0.5,0.1,0.9,0.1,1.4,0.1c1.8,0,3.2-0.5,4.2-1.5c1-1,1.5-2.4,1.5-4.1V259.2z"/>
		<path class="st0" d="M361.5,232.2h13.4c1.5,0,2.9,0.2,4.4,0.5c1.5,0.3,2.8,0.9,3.9,1.6c1.2,0.8,2.1,1.8,2.8,3
			c0.7,1.2,1.1,2.8,1.1,4.7c0,2.2-0.6,4-1.9,5.4c-1.2,1.5-2.9,2.5-4.9,3v0.1c1.2,0.1,2.4,0.5,3.5,1s2,1.1,2.7,1.9
			c0.8,0.8,1.4,1.8,1.8,2.9c0.4,1.1,0.6,2.3,0.6,3.7c0,1.9-0.4,3.5-1.2,4.9c-0.8,1.4-1.8,2.5-3.1,3.4c-1.3,0.9-2.9,1.6-4.6,2
			c-1.8,0.5-3.7,0.7-5.7,0.7h-12.8V232.2z M366.9,248.6h7.1c1,0,2-0.1,2.9-0.4c0.9-0.2,1.7-0.6,2.4-1.1c0.7-0.5,1.2-1.1,1.6-1.9
			c0.4-0.7,0.6-1.7,0.6-2.7c0-2.1-0.8-3.6-2.3-4.5c-1.5-0.9-3.6-1.3-6.2-1.3h-6.2V248.6z M366.9,266.5h6.8c1.1,0,2.3-0.1,3.4-0.3
			c1.2-0.2,2.2-0.6,3.1-1.1c0.9-0.5,1.7-1.2,2.3-2.1c0.6-0.9,0.9-2,0.9-3.3c0-2.3-0.8-4-2.4-5c-1.6-1-3.8-1.5-6.8-1.5h-7.3V266.5z"
			/>
		<path class="st0" d="M402.5,235.7c0,1-0.3,1.7-1,2.4c-0.7,0.6-1.5,0.9-2.4,0.9s-1.7-0.3-2.4-1c-0.7-0.6-1-1.4-1-2.3
			c0-1,0.3-1.7,1-2.4c0.7-0.6,1.5-1,2.4-1s1.8,0.3,2.4,1C402.2,233.9,402.5,234.7,402.5,235.7 M401.7,271.1h-5.2v-26h5.2V271.1z"/>
		<path class="st0" d="M437.1,258c0,2-0.4,3.9-1.1,5.5c-0.7,1.7-1.7,3.1-3,4.4c-1.3,1.2-2.8,2.2-4.5,2.9c-1.7,0.7-3.6,1-5.5,1
			c-2,0-3.8-0.3-5.5-1c-1.7-0.7-3.2-1.6-4.4-2.9c-1.2-1.2-2.2-2.7-2.9-4.4c-0.7-1.7-1.1-3.5-1.1-5.5s0.4-3.9,1.1-5.5
			c0.7-1.7,1.7-3.1,2.9-4.3c1.2-1.2,2.7-2.2,4.4-2.8c1.7-0.7,3.6-1,5.5-1c2,0,3.8,0.3,5.5,1c1.7,0.7,3.2,1.6,4.5,2.8s2.3,2.6,3,4.3
			C436.7,254.2,437.1,256,437.1,258 M431.7,258c0-1.2-0.2-2.4-0.6-3.6c-0.4-1.1-0.9-2.1-1.7-3c-0.7-0.9-1.6-1.5-2.7-2.1
			c-1.1-0.5-2.3-0.8-3.7-0.8c-1.4,0-2.6,0.3-3.7,0.8c-1.1,0.5-2,1.2-2.7,2.1c-0.7,0.9-1.3,1.9-1.7,3c-0.4,1.1-0.6,2.3-0.6,3.6
			s0.2,2.4,0.6,3.6c0.4,1.1,0.9,2.1,1.7,3c0.7,0.9,1.6,1.6,2.7,2.1c1.1,0.5,2.3,0.8,3.7,0.8c1.4,0,2.6-0.3,3.7-0.8
			c1.1-0.5,2-1.2,2.7-2.1c0.7-0.9,1.3-1.9,1.7-3C431.5,260.5,431.7,259.3,431.7,258"/>
	</g>
	<g>
		<polygon class="st0" points="644.8,255.7 652.1,255.7 648.4,244.3 		"/>
		<path class="st0" d="M570.7,219.7v63.1h320l25.7-31.6l-25.7-31.6H570.7z M611.3,271.5c-10,0-17.7-7.6-17.7-19.8V251
			c0-12,7.9-19.9,18.1-19.9c6.1,0,10.3,2.4,13.5,6.1l-6.5,6.9c-1.7-2-3.8-3.7-6.9-3.7c-4.6,0-8,4.1-8,10.7v0.2c0,7,3.5,10.8,8,10.8
			c3.3,0,5.4-1.8,7.1-3.8l6.4,6.5C622.2,268.7,617.8,271.5,611.3,271.5 M656.8,270.8l-2.3-7h-12.3l-2.2,7h-10.3l13.7-39.3h10.1
			l13.8,39.3H656.8z M697.4,240.8h-9.6v30h-10v-30h-9.6v-9h29.3V240.8z M725.3,270.8l-2.3-7h-12.3l-2.2,7h-10.3l13.7-39.3h10.1
			l13.8,39.3H725.3z M767.9,270.8h-25.4v-39h10v30h15.3V270.8z M788.9,256.1v14.7h-10v-14.6l-12.5-24.4h11.1l6.5,14.1l6.6-14.1h10.9
			L788.9,256.1z M833.4,259.1c0,7.6-5.9,12.3-14.2,12.3c-5.8,0-11.3-1.8-15.9-5.7l5.4-7.3c3.2,2.6,6.8,4.4,10.6,4.4
			c2.7,0,4.1-1.2,4.1-2.8v-0.1c0-1.6-1.2-2.5-5.7-4.1c-7.4-2.5-12.5-5.2-12.5-12.3v-0.2c0-7.1,5.4-12,13.9-12
			c5.2,0,9.9,1.4,13.9,4.7l-5.1,7.5c-2.7-2.1-5.9-3.6-9.1-3.6c-2.3,0-3.6,1.1-3.6,2.6v0.1c0,1.7,1.2,2.6,6.2,4.5
			c7.4,2.4,12,5.4,12,12V259.1z M867.8,240.8h-9.6v30h-10v-30h-9.6v-9h29.3V240.8z"/>
		<polygon class="st0" points="713.3,255.7 720.5,255.7 716.9,244.3 		"/>
		<path class="st0" d="M570.7,219.7v63.1h320l25.7-31.6l-25.7-31.6H570.7z M611.3,271.5c-10,0-17.7-7.6-17.7-19.8V251
			c0-12,7.9-19.9,18.1-19.9c6.1,0,10.3,2.4,13.5,6.1l-6.5,6.9c-1.7-2-3.8-3.7-6.9-3.7c-4.6,0-8,4.1-8,10.7v0.2c0,7,3.5,10.8,8,10.8
			c3.3,0,5.4-1.8,7.1-3.8l6.4,6.5C622.2,268.7,617.8,271.5,611.3,271.5 M656.8,270.8l-2.3-7h-12.3l-2.2,7h-10.3l13.7-39.3h10.1
			l13.8,39.3H656.8z M697.4,240.8h-9.6v30h-10v-30h-9.6v-9h29.3V240.8z M725.3,270.8l-2.3-7h-12.3l-2.2,7h-10.3l13.7-39.3h10.1
			l13.8,39.3H725.3z M767.9,270.8h-25.4v-39h10v30h15.3V270.8z M788.9,256.1v14.7h-10v-14.6l-12.5-24.4h11.1l6.5,14.1l6.6-14.1h10.9
			L788.9,256.1z M833.4,259.1c0,7.6-5.9,12.3-14.2,12.3c-5.8,0-11.3-1.8-15.9-5.7l5.4-7.3c3.2,2.6,6.8,4.4,10.6,4.4
			c2.7,0,4.1-1.2,4.1-2.8v-0.1c0-1.6-1.2-2.5-5.7-4.1c-7.4-2.5-12.5-5.2-12.5-12.3v-0.2c0-7.1,5.4-12,13.9-12
			c5.2,0,9.9,1.4,13.9,4.7l-5.1,7.5c-2.7-2.1-5.9-3.6-9.1-3.6c-2.3,0-3.6,1.1-3.6,2.6v0.1c0,1.7,1.2,2.6,6.2,4.5
			c7.4,2.4,12,5.4,12,12V259.1z M867.8,240.8h-9.6v30h-10v-30h-9.6v-9h29.3V240.8z"/>
	</g>
	<g>
		<path class="st0" d="M98.5,237.3V266h-5l0,0V253h-13V266h-5v-28.7h5v11.4h13v-11.4l0,0H98.5z M70.4,266L70.4,266h-5v-28.7h5V266z
			 M60.5,266L60.5,266h-5.3l-13-21.1H42V266h-4.8l0,0v-28.7l0,0h5.3l0,0l13.1,21.1h0.1v-21.1h4.8V266z M116.2,251.5l-17.7-32H33.2
			c-3.3,0-5.9,2.6-5.9,5.9v52.3c0,3.3,2.6,5.9,5.9,5.9h65.2L116.2,251.5z"/>
		<path class="st0" d="M102.9,283.6l17.8-32.1l-17.7-32h4.4c2.4,0,5.4,1.7,6.5,3.9l15.6,28.2l-15.6,28.2c-1.2,2.1-4.1,3.9-6.5,3.9
			H102.9z"/>
		<path class="st0" d="M102.9,283.6l17.8-32.1l-17.7-32h4.4c2.4,0,5.4,1.7,6.5,3.9l15.6,28.2l-15.6,28.2c-1.2,2.1-4.1,3.9-6.5,3.9
			H102.9z"/>
		<path class="st0" d="M279.8,264.4c0.1-1.4,1-2.4,2.4-2.4c1.4,0,2.2,1.2,2.3,2.4H279.8z M286.6,265.7c0.3-2.8-1.4-5.4-4.3-5.4
			c-2.7,0-4.5,2.2-4.5,4.9c0,2.8,1.6,4.8,4.5,4.8c2,0,3.7-1.1,4.2-3.1h-1.9c-0.4,1-1.1,1.5-2.2,1.5c-1.7,0-2.5-1.3-2.5-2.7H286.6z
			 M271.7,262.1h1.5v5.4c0,1.5,0.4,2.3,2.5,2.3c0.4,0,0.9-0.1,1.3-0.1v-1.6c-0.3,0.1-0.6,0.1-0.9,0.1c-0.9,0-1-0.4-1-1.3v-4.9h1.8
			v-1.5h-1.8v-2.8h-2v2.8h-1.5V262.1z M270.8,260.6h-2v5.3c0,1.4-0.6,2.5-2.3,2.5c-1.1,0-1.8-0.6-1.8-2.2v-5.6h-2v5.8
			c0,2.4,1,3.6,3.4,3.6c1,0,2.1-0.6,2.6-1.5h0v1.3h2V260.6z M256.2,262.1h1.5v5.4c0,1.5,0.4,2.3,2.5,2.3c0.4,0,0.9-0.1,1.3-0.1v-1.6
			c-0.3,0.1-0.6,0.1-0.9,0.1c-0.9,0-1-0.4-1-1.3v-4.9h1.8v-1.5h-1.8v-2.8h-2v2.8h-1.5V262.1z M253.2,259h2v-1.9h-2V259z
			 M253.2,269.8h2v-9.2h-2V269.8z M246.6,262.1h1.5v5.4c0,1.5,0.4,2.3,2.5,2.3c0.5,0,0.9-0.1,1.3-0.1v-1.6c-0.3,0.1-0.6,0.1-0.9,0.1
			c-0.9,0-1-0.4-1-1.3v-4.9h1.8v-1.5h-1.8v-2.8h-2v2.8h-1.5V262.1z M238.1,266.8c0,2.2,1.8,3.2,4.1,3.2c1.9,0,4.1-0.8,4.1-3
			c0-1.8-1.5-2.3-3-2.7c-1.5-0.3-3-0.5-3-1.5c0-0.8,1.1-0.9,1.7-0.9c0.9,0,1.7,0.3,1.9,1.2h2.1c-0.3-2-2-2.8-3.8-2.8
			c-1.7,0-3.8,0.6-3.8,2.6c0,1.9,1.5,2.4,3,2.7c1.5,0.3,3,0.5,3,1.5c0.1,1.1-1.3,1.2-2,1.2c-1.1,0-2-0.4-2.1-1.6H238.1z
			 M228.7,269.8h2v-5.4c0-1.4,0.9-2.4,2.2-2.4c1.2,0,1.8,0.6,1.8,2.1v5.8h2v-6.3c0-2.1-1.3-3.1-3.3-3.1c-1.2,0-2.3,0.6-2.9,1.6l0,0
			v-1.4h-1.9V269.8z M224.4,269.8h2.2v-12.7h-2.2V269.8z M217.6,257.1h-2v4.7h0c-0.6-1-1.9-1.4-3.1-1.4c-2,0-4,1.5-4,4.8
			c0,2.8,1.4,4.9,4.3,4.9c1.2,0,2.3-0.4,2.9-1.5h0v1.2h1.9V257.1z M210.5,265.3c0-1.7,0.7-3.3,2.6-3.3c1.6,0,2.6,1.2,2.6,3.2
			c0,1.6-0.8,3.3-2.6,3.3C211.3,268.4,210.5,266.9,210.5,265.3 M202.9,270c3,0,4.6-2,4.6-4.9c0-2.8-1.7-4.8-4.6-4.8
			c-3,0-4.6,2-4.6,4.8C198.2,268,199.9,270,202.9,270 M202.9,268.4c-1.8,0-2.6-1.7-2.6-3.3c0-1.6,0.8-3.2,2.6-3.2
			c1.8,0,2.6,1.7,2.6,3.2C205.5,266.8,204.7,268.4,202.9,268.4 M192.7,270c3,0,4.6-2,4.6-4.9c0-2.8-1.7-4.8-4.6-4.8
			c-3,0-4.6,2-4.6,4.8C188,268,189.7,270,192.7,270 M192.7,268.4c-1.8,0-2.6-1.7-2.6-3.3c0-1.6,0.8-3.2,2.6-3.2
			c1.8,0,2.6,1.7,2.6,3.2C195.3,266.8,194.5,268.4,192.7,268.4 M184.5,269.8h2v-12.7h-2V269.8z M174.8,258.9h3.6
			c1.2,0,1.9,0.5,1.9,1.7c0,1.1-0.8,1.8-1.9,1.8h-3.6V258.9z M172.5,269.8h5.8c3.3,0,4.7-1.5,4.7-3.5c0-1.7-0.8-2.9-2.4-3.3v0
			c1.2-0.5,1.8-1.4,1.8-2.7c0-2.1-1.5-3.1-3.8-3.1h-6.2V269.8z M174.8,264h3.9c1.4,0,2.1,0.7,2.1,2c0,1.3-0.8,2-2.1,2h-3.9V264z
			 M165.7,257.1h-2v4.7h0c-0.6-1-1.9-1.4-3.1-1.4c-2,0-4,1.5-4,4.8c0,2.8,1.4,4.9,4.3,4.9c1.2,0,2.3-0.4,2.9-1.5h0v1.2h1.9V257.1z
			 M158.6,265.3c0-1.7,0.7-3.3,2.6-3.3c1.6,0,2.6,1.2,2.6,3.2c0,1.6-0.8,3.3-2.6,3.3C159.4,268.4,158.6,266.9,158.6,265.3
			 M147.2,269.8h2v-5.4c0-1.4,0.9-2.4,2.2-2.4c1.2,0,1.8,0.6,1.8,2.1v5.8h2v-6.3c0-2.1-1.3-3.1-3.3-3.1c-1.2,0-2.3,0.6-2.9,1.6l0,0
			v-1.4h-1.9V269.8z M145.3,263c0-1.9-1.9-2.7-3.7-2.7c-2,0-4,0.7-4.2,3.1h2c0.1-1,0.9-1.5,2-1.5c0.8,0,1.9,0.2,1.9,1.2
			c0,1.2-1.3,1-2.8,1.3c-1.7,0.2-3.5,0.6-3.5,2.9c0,1.8,1.5,2.7,3.1,2.7c1.1,0,2.4-0.3,3.2-1.1c0.2,0.8,0.7,1.1,1.6,1.1
			c0.3,0,1-0.1,1.3-0.2v-1.4c-0.2,0-0.4,0-0.5,0c-0.4,0-0.5-0.2-0.5-0.7V263z M143.3,266.7c0,1.3-1.4,1.7-2.3,1.7
			c-0.7,0-1.9-0.3-1.9-1.2c0-1.1,0.8-1.4,1.7-1.5c0.9-0.2,1.9-0.1,2.5-0.6V266.7z"/>
		<path class="st0" d="M300.2,247.2h1.2c0,0.8-0.4,1.5-1.2,1.7v1.1c1.4-0.3,2.4-1.4,2.4-2.8v-2.4h-2.5V247.2z M298.3,238h-2v1.3h0
			c-0.5-1-1.6-1.5-2.7-1.5c-2.6,0-4.2,2.1-4.2,4.6c0,2.6,1.2,4.8,4.1,4.8c1.1,0,2.2-0.6,2.8-1.6h0v1.4c0,1.5-0.7,2.4-2.4,2.4
			c-1,0-2-0.2-2.2-1.4h-2c0.2,2.2,2.3,2.9,4.1,2.9c2.9,0,4.5-1.4,4.5-4.1V238z M293.8,245.6c-1.7,0-2.4-1.5-2.4-3
			c0-1.5,0.6-3.2,2.4-3.2c1.8,0,2.5,1.5,2.5,3C296.3,244,295.6,245.6,293.8,245.6 M279.9,247.2h2v-5.4c0-1.4,0.9-2.4,2.2-2.4
			c1.2,0,1.8,0.6,1.8,2.1v5.8h2v-6.3c0-2.1-1.3-3.1-3.3-3.1c-1.2,0-2.3,0.6-2.9,1.6l0,0V238h-1.9V247.2z M278.1,238h-2v5.3
			c0,1.4-0.6,2.5-2.3,2.5c-1.1,0-1.8-0.6-1.8-2.2V238h-2v5.8c0,2.4,1,3.6,3.4,3.6c1,0,2.1-0.6,2.6-1.5h0v1.3h2V238z M260.4,247.2
			h8.7v-1.9h-6.5v-10.8h-2.2V247.2z M251,247.2h1.2c0,0.8-0.4,1.5-1.2,1.7v1.1c1.4-0.3,2.4-1.4,2.4-2.8v-2.4H251V247.2z
			 M244.3,239.5h1.5v5.4c0,1.5,0.4,2.3,2.5,2.3c0.4,0,0.9-0.1,1.3-0.1v-1.6c-0.3,0.1-0.6,0.1-0.9,0.1c-0.9,0-1-0.4-1-1.3v-4.9h1.8
			V238h-1.8v-2.8h-2v2.8h-1.5V239.5z M239.3,247.2h2v-4.4c0-2,1.1-3.2,2.5-3.2c0.3,0,0.6,0.1,0.9,0.1v-2c-0.2,0-0.3-0.1-0.8-0.1
			c-1.2,0-2.5,1-2.7,2h0V238h-1.9V247.2z M237.4,240.4c0-1.9-1.9-2.7-3.7-2.7c-2,0-4,0.7-4.2,3.1h2c0.1-1,0.9-1.5,2-1.5
			c0.8,0,1.9,0.2,1.9,1.2c0,1.2-1.3,1-2.8,1.3c-1.7,0.2-3.5,0.6-3.5,2.9c0,1.8,1.5,2.7,3.2,2.7c1.1,0,2.4-0.3,3.2-1.1
			c0.2,0.8,0.8,1.1,1.6,1.1c0.3,0,1-0.1,1.3-0.2v-1.4c-0.2,0-0.4,0-0.5,0c-0.4,0-0.5-0.2-0.5-0.7V240.4z M235.4,244.1
			c0,1.3-1.4,1.7-2.3,1.7c-0.7,0-1.9-0.3-1.9-1.2c0-1.1,0.8-1.4,1.7-1.5c0.9-0.2,1.9-0.1,2.5-0.6V244.1z M221.7,241.8
			c0.1-1.4,1-2.4,2.4-2.4c1.4,0,2.2,1.2,2.3,2.4H221.7z M228.5,243.1c0.3-2.8-1.4-5.4-4.3-5.4c-2.7,0-4.5,2.2-4.5,4.9
			c0,2.8,1.6,4.8,4.5,4.8c2,0,3.7-1.1,4.2-3.1h-1.9c-0.4,1-1.1,1.5-2.2,1.5c-1.7,0-2.5-1.3-2.5-2.7H228.5z M207.8,247.2h2.2v-5.7
			h5.8v5.7h2.2v-12.7h-2.2v5.1h-5.8v-5.1h-2.2V247.2z M199,247.2h2v-12.7h-2V247.2z M197.1,240.4c0-1.9-1.9-2.7-3.7-2.7
			c-2,0-4,0.7-4.2,3.1h2c0.1-1,0.9-1.5,2-1.5c0.8,0,1.9,0.2,1.9,1.2c0,1.2-1.3,1-2.8,1.3c-1.7,0.2-3.5,0.6-3.5,2.9
			c0,1.8,1.5,2.7,3.1,2.7c1.1,0,2.4-0.3,3.2-1.1c0.2,0.8,0.7,1.1,1.6,1.1c0.3,0,1-0.1,1.3-0.2v-1.4c-0.2,0-0.4,0-0.5,0
			c-0.4,0-0.5-0.2-0.5-0.7V240.4z M195.1,244.1c0,1.3-1.4,1.7-2.3,1.7c-0.7,0-1.9-0.3-1.9-1.2c0-1.1,0.8-1.4,1.7-1.5
			c0.9-0.2,1.9-0.1,2.5-0.6V244.1z M179.5,247.2h2v-5.4c0-1.4,0.9-2.4,2.2-2.4c1.2,0,1.8,0.6,1.8,2.1v5.8h2v-6.3
			c0-2.1-1.3-3.1-3.3-3.1c-1.2,0-2.3,0.6-2.9,1.6l0,0V238h-1.9V247.2z M173.5,247.5c3,0,4.6-2,4.6-4.9c0-2.8-1.7-4.8-4.6-4.8
			s-4.6,2-4.6,4.8C168.8,245.4,170.5,247.5,173.5,247.5 M173.5,245.9c-1.8,0-2.6-1.7-2.6-3.3c0-1.6,0.8-3.2,2.6-3.2
			c1.8,0,2.6,1.7,2.6,3.2C176.1,244.2,175.3,245.9,173.5,245.9 M165.4,236.4h2v-1.9h-2V236.4z M165.4,247.2h2V238h-2V247.2z
			 M158.8,239.5h1.5v5.4c0,1.5,0.4,2.3,2.5,2.3c0.4,0,0.9-0.1,1.3-0.1v-1.6c-0.3,0.1-0.6,0.1-0.9,0.1c-0.9,0-1-0.4-1-1.3v-4.9h1.8
			V238h-1.8v-2.8h-2v2.8h-1.5V239.5z M157.8,240.4c0-1.9-1.9-2.7-3.7-2.7c-2,0-4,0.7-4.2,3.1h2c0.1-1,0.9-1.5,2-1.5
			c0.8,0,1.9,0.2,1.9,1.2c0,1.2-1.3,1-2.8,1.3c-1.7,0.2-3.5,0.6-3.5,2.9c0,1.8,1.5,2.7,3.2,2.7c1.1,0,2.4-0.3,3.2-1.1
			c0.2,0.8,0.8,1.1,1.6,1.1c0.3,0,1-0.1,1.3-0.2v-1.4c-0.2,0-0.4,0-0.5,0c-0.4,0-0.5-0.2-0.5-0.7V240.4z M155.8,244.1
			c0,1.3-1.4,1.7-2.3,1.7c-0.7,0-1.9-0.3-1.9-1.2c0-1.1,0.8-1.4,1.7-1.5c0.9-0.2,1.9-0.1,2.5-0.6V244.1z M137.8,247.2h2.1v-9.3h0.1
			l5.8,9.3h2.4v-12.7H146v9.4h0l-5.8-9.4h-2.3V247.2z"/>
	</g>
	<line class="st0" x1="332.1" y1="219.4" x2="332.1" y2="283.2"/>
</g>
</svg>
