<svg xmlns="http://www.w3.org/2000/svg" viewBox="0 0 549.7 100.5">
    <path d="M223 61.7a7 7 0 010 10.2 9.2 9.2 0 01-6 1.8h-5.5v6.4h-2.1V59.8h7.6a9.2 9.2 0 016 1.9zm-1.5 8.8a4.6 4.6 0 001.6-3.7 4.7 4.7 0 00-1.6-3.8 7 7 0 00-4.6-1.3h-5.4v10.1h5.4a7 7 0 004.6-1.3zm10.1 8.8a7.3 7.3 0 01-2.7-2.8 8.4 8.4 0 010-8 7.1 7.1 0 012.7-2.7 8.5 8.5 0 018 0 7 7 0 012.8 2.7 8.5 8.5 0 010 8 7.2 7.2 0 01-2.8 2.8 8.4 8.4 0 01-8 0zm7-1.6a5.1 5.1 0 002-2 7 7 0 000-6.3 5.1 5.1 0 00-2-2.1 6.1 6.1 0 00-6 0 5.3 5.3 0 00-2 2.1 6.9 6.9 0 000 6.2 5.3 5.3 0 002 2.1 6.1 6.1 0 006 0zm31-12.8l-6 15.1h-1.9L257 67.6l-4.8 12.5h-2L244.6 65h2l4.8 13 4.9-13h1.8l4.8 13 4.9-13zm15.9 8.2h-12.8a5.4 5.4 0 001.8 3.9 6 6 0 004.2 1.5 6.5 6.5 0 002.6-.5 5.6 5.6 0 002-1.5l1.2 1.3a6.5 6.5 0 01-2.5 1.8 8.7 8.7 0 01-3.3.7 8.6 8.6 0 01-4.2-1 7.3 7.3 0 01-2.8-2.8 8 8 0 01-1-4 8.1 8.1 0 011-4 7 7 0 012.6-2.7 7.8 7.8 0 017.6 0 7 7 0 012.7 2.7 8.2 8.2 0 011 4zM274.4 68a5.5 5.5 0 00-1.7 3.7h10.8a5.6 5.6 0 00-1.7-3.7 5.6 5.6 0 00-7.4 0zm19.4-2.4a7.3 7.3 0 013.6-.7v2h-.5a4.8 4.8 0 00-3.8 1.4 5.9 5.9 0 00-1.3 4.2v7.8h-2.1V64.9h2v3a5 5 0 012.1-2.4zm20.4 7.6h-12.7a5.5 5.5 0 001.8 3.9 6 6 0 004.2 1.5 6.6 6.6 0 002.6-.5 5.7 5.7 0 002-1.5l1.2 1.3a6.7 6.7 0 01-2.5 1.9 8.7 8.7 0 01-3.4.6 8.6 8.6 0 01-4.1-1 7.2 7.2 0 01-2.9-2.8 7.9 7.9 0 01-1-4 8.1 8.1 0 011-4 7 7 0 012.7-2.7 7.8 7.8 0 017.6 0 7 7 0 012.7 2.7 8.3 8.3 0 011 4zm-11-5.2a5.6 5.6 0 00-1.7 3.7h10.8a5.5 5.5 0 00-1.7-3.7 5.6 5.6 0 00-7.4 0zm29.2-9.3v21.5h-2v-3a6.4 6.4 0 01-2.4 2.4 7.2 7.2 0 01-3.4.8 7.7 7.7 0 01-4-1 7.1 7.1 0 01-2.7-2.8 8.7 8.7 0 010-8 7 7 0 012.8-2.8 7.8 7.8 0 013.9-1 7.2 7.2 0 013.3.8 6.3 6.3 0 012.5 2.2v-9zm-4.8 19.1a5.2 5.2 0 002-2 6.9 6.9 0 000-6.3 5.2 5.2 0 00-2-2.1 5.6 5.6 0 00-2.9-.7 5.7 5.7 0 00-2.9.7 5.2 5.2 0 00-2 2.1 6.9 6.9 0 000 6.2 5.2 5.2 0 002 2.1 5.8 5.8 0 003 .8 5.7 5.7 0 002.8-.8zm29.9-12a7 7 0 012.7 2.8 8.7 8.7 0 010 8 7.1 7.1 0 01-2.7 2.8 7.7 7.7 0 01-3.9 1 7.2 7.2 0 01-3.4-.8 6.3 6.3 0 01-2.5-2.4v3h-2V58.6h2v9.2a6.4 6.4 0 012.5-2.3 7.3 7.3 0 013.4-.7 7.8 7.8 0 013.9 1zm-1.1 12a5.3 5.3 0 002-2 6.9 6.9 0 000-6.3 5.3 5.3 0 00-2-2 6 6 0 00-5.9 0 5.2 5.2 0 00-2 2 6.9 6.9 0 000 6.2 5.2 5.2 0 002 2.1 6 6 0 005.9 0zM377.8 65l-7.6 17a7.3 7.3 0 01-2.2 3 4.8 4.8 0 01-3 .9 6 6 0 01-2-.4 4.4 4.4 0 01-1.6-1l1-1.5a3.8 3.8 0 002.7 1.2 2.8 2.8 0 001.8-.6 5 5 0 001.4-2l.7-1.5-6.8-15.2h2.1l5.8 13 5.7-13zm-98.9-31.5a11.5 11.5 0 01-1.1 5.3 10.6 10.6 0 01-3 3.6 12.6 12.6 0 01-4.2 2.1 17 17 0 01-4.7.7h-8.7V21.8h8.4a21 21 0 014.9.6 12.3 12.3 0 014.3 2 9.8 9.8 0 013 3.5 12 12 0 011.1 5.5m-5.8 0a7.4 7.4 0 00-.7-3.3 5.5 5.5 0 00-1.7-2 6.9 6.9 0 00-2.4-1.1 11.8 11.8 0 00-2.8-.3h-2.8v13.6h2.7a12 12 0 002.9-.4 7 7 0 002.4-1.1 5.5 5.5 0 001.7-2.1 7.3 7.3 0 00.7-3.3m9-2.4a9.4 9.4 0 013.4-2 11.5 11.5 0 014-.8 10.4 10.4 0 013.4.5 5.2 5.2 0 012.3 1.6 6.8 6.8 0 011.3 2.7 16 16 0 01.4 3.9V45H292v-1.8h-.1A4 4 0 01290 45a6.7 6.7 0 01-2.7.6 8.6 8.6 0 01-2-.3 6 6 0 01-2-.8 4.6 4.6 0 01-1.4-1.6 4.8 4.8 0 01-.6-2.4 4 4 0 011-2.9 6.4 6.4 0 012.5-1.7 13.3 13.3 0 013.4-.8 35.3 35.3 0 013.7-.2v-.2a2 2 0 00-.9-1.8 3.7 3.7 0 00-2-.6 5.2 5.2 0 00-2.3.5 7.2 7.2 0 00-1.8 1.2zm9.9 7h-2.5a7.3 7.3 0 00-1.6.4 3 3 0 00-1.2.7 1.6 1.6 0 00-.4 1.1 1.4 1.4 0 00.2.8 1.6 1.6 0 00.5.5 2 2 0 00.8.3 4 4 0 00.8.1 3 3 0 003.4-3.4zm14.4-5.3V39a2.8 2.8 0 00.5 1.7 1.9 1.9 0 001.6.6 5 5 0 00.8 0 2.7 2.7 0 00.8-.3v4a9.2 9.2 0 01-1.4.4 9.9 9.9 0 01-1.7.1 8.2 8.2 0 01-2.8-.4 4.3 4.3 0 01-1.7-1.2 4.8 4.8 0 01-1-1.8 9.3 9.3 0 01-.3-2.4v-7h-2.7v-4h2.6v-4.3h5.3v4.3h3.9v4zm6.2-1.7a9.4 9.4 0 013.4-2.1 11.5 11.5 0 014-.7 10.5 10.5 0 013.4.5 5.2 5.2 0 012.3 1.6A6.7 6.7 0 01327 33a16 16 0 01.4 3.9V45h-5v-1.8a4 4 0 01-1.9 1.6 6.8 6.8 0 01-2.8.6 8.6 8.6 0 01-2-.3 5.9 5.9 0 01-1.9-.8 4.6 4.6 0 01-1.4-1.6 4.8 4.8 0 01-.6-2.4 4 4 0 011-2.9 6.5 6.5 0 012.5-1.7 13.3 13.3 0 013.4-.8 35.3 35.3 0 013.7-.2v-.2a2 2 0 00-.9-1.8 3.7 3.7 0 00-2-.6 5.2 5.2 0 00-2.3.5 7.1 7.1 0 00-1.8 1.2zm9.9 7H320a7.3 7.3 0 00-1.6.4 3 3 0 00-1.2.7 1.6 1.6 0 00-.4 1.1 1.4 1.4 0 00.2.8 1.6 1.6 0 00.5.5 2 2 0 00.8.3 4 4 0 00.8 0 3 3 0 003.4-3.3zM209.4 21.8h8a11.8 11.8 0 012.6.3 6.8 6.8 0 012.3 1A5.2 5.2 0 01224 25a5.5 5.5 0 01.6 2.8 4.8 4.8 0 01-1 3.3 5.7 5.7 0 01-3 1.8 6.6 6.6 0 012 .7 5.1 5.1 0 012.7 2.8 6.2 6.2 0 01.4 2.2 5.8 5.8 0 01-2.6 5 8.7 8.7 0 01-2.7 1.2 13.3 13.3 0 01-3.4.4h-7.7zm3.2 9.8h4.3a7.1 7.1 0 001.7-.2 4.3 4.3 0 001.5-.6 3.3 3.3 0 001-1.1 3.4 3.4 0 00.3-1.7 2.9 2.9 0 00-1.4-2.6 7.3 7.3 0 00-3.7-.9h-3.7zm0 10.7h4a11.1 11.1 0 002.1-.2 5.7 5.7 0 002-.6 3.6 3.6 0 001.3-1.2 3.5 3.5 0 00.5-2 3.3 3.3 0 00-1.4-3 7.5 7.5 0 00-4-1h-4.4zM234 24a1.8 1.8 0 01-.6 1.4 2 2 0 01-1.5.6 2 2 0 01-1.4-.6 1.9 1.9 0 01-.6-1.4 2 2 0 01.6-1.4 2 2 0 011.4-.6 2 2 0 011.5.6 1.9 1.9 0 01.6 1.4m-.5 21.2h-3V29.5h3zm21.2-7.8a8.4 8.4 0 01-.7 3.3 7.8 7.8 0 01-1.8 2.6 8 8 0 01-2.6 1.7 9.5 9.5 0 01-6.7 0 7.9 7.9 0 01-2.6-1.7 8.1 8.1 0 01-1.8-2.6 8.4 8.4 0 01-.6-3.3 8.2 8.2 0 01.6-3.3 7.8 7.8 0 014.4-4.3 9.3 9.3 0 016.7 0 8 8 0 012.6 1.7A7.5 7.5 0 01254 34a8.2 8.2 0 01.7 3.3m-3.3 0a6.5 6.5 0 00-.3-2.1 5.3 5.3 0 00-1-1.8 4.8 4.8 0 00-1.6-1.2 5.6 5.6 0 00-4.5 0 5 5 0 00-1.6 1.2 5.3 5.3 0 00-1 1.8 6.6 6.6 0 000 4.2 5.5 5.5 0 001 1.8 4.8 4.8 0 001.6 1.3 5.6 5.6 0 004.5 0 4.6 4.6 0 001.6-1.3 5.5 5.5 0 001-1.8 6.5 6.5 0 00.3-2.1m-58.7-24.8h1.5v39.6h-1.5zm186.2 23.8h4.3l-2.2-6.9-2.1 6.9z" fill="#fff"/>
    <path d="M334.4 14.7v37.8h191.4l15.4-18.9-15.4-18.9zm24.3 31c-6 0-10.6-4.6-10.6-11.8v-.4c0-7.2 4.7-12 10.8-12a10 10 0 018.1 3.7l-3.9 4.1a5.3 5.3 0 00-4-2.2c-2.8 0-4.8 2.4-4.8 6.4v.1c0 4.2 2 6.5 4.7 6.5a5.4 5.4 0 004.3-2.3l3.8 3.9a10.2 10.2 0 01-8.4 4m27.3-.4l-1.4-4.2h-7.4l-1.3 4.2h-6.2l8.3-23.5h6l8.2 23.5zm24.2-18h-5.7v18h-6v-18h-5.8v-5.4h17.6zm16.7 18l-1.4-4.2h-7.3l-1.3 4.2h-6.2l8.2-23.5h6.1l8.2 23.5zm25.5 0h-15.2V21.9h6v18h9.2zm12.6-8.8v8.8h-6v-8.8L451.5 22h6.6l4 8.5L466 22h6.5zm26.6 1.8c0 4.5-3.5 7.3-8.5 7.3a14.2 14.2 0 01-9.5-3.4l3.2-4.4a10.2 10.2 0 006.4 2.6c1.6 0 2.4-.7 2.4-1.7 0-.9-.7-1.5-3.4-2.4-4.4-1.5-7.5-3.1-7.5-7.4 0-4.3 3.2-7.3 8.3-7.3a12.8 12.8 0 018.3 2.9l-3 4.4a9.3 9.3 0 00-5.4-2.1c-1.4 0-2.1.7-2.1 1.5 0 1 .7 1.6 3.7 2.7 4.4 1.4 7.2 3.2 7.2 7.2zm20.6-11h-5.8v18h-6v-18h-5.8V22h17.5z" fill="#fff"/>
    <path d="M419.7 36.3h4.4l-2.2-6.9-2.2 6.9z" fill="#fff"/>
    <path d="M334.4 14.7v37.8h191.4l15.4-18.9-15.4-18.9zm24.3 31c-6 0-10.6-4.6-10.6-11.8v-.4c0-7.2 4.7-12 10.8-12a10 10 0 018.1 3.7l-3.9 4.1a5.3 5.3 0 00-4-2.2c-2.8 0-4.8 2.4-4.8 6.4v.1c0 4.2 2 6.5 4.7 6.5a5.4 5.4 0 004.3-2.3l3.8 3.9a10.2 10.2 0 01-8.4 4m27.3-.4l-1.4-4.2h-7.4l-1.3 4.2h-6.2l8.3-23.5h6l8.2 23.5zm24.2-18h-5.7v18h-6v-18h-5.8v-5.4h17.6zm16.7 18l-1.4-4.2h-7.3l-1.3 4.2h-6.2l8.2-23.5h6.1l8.2 23.5zm25.5 0h-15.2V21.9h6v18h9.2zm12.6-8.8v8.8h-6v-8.8L451.5 22h6.6l4 8.5L466 22h6.5zm26.6 1.8c0 4.5-3.5 7.3-8.5 7.3a14.2 14.2 0 01-9.5-3.4l3.2-4.4a10.2 10.2 0 006.4 2.6c1.6 0 2.4-.7 2.4-1.7 0-.9-.7-1.5-3.4-2.4-4.4-1.5-7.5-3.1-7.5-7.4 0-4.3 3.2-7.3 8.3-7.3a12.8 12.8 0 018.3 2.9l-3 4.4a9.3 9.3 0 00-5.4-2.1c-1.4 0-2.1.7-2.1 1.5 0 1 .7 1.6 3.7 2.7 4.4 1.4 7.2 3.2 7.2 7.2zm20.6-11h-5.8v18h-6v-18h-5.8V22h17.5zM56.6 14.7H18a3.5 3.5 0 00-3.5 3.5V49a3.5 3.5 0 003.5 3.5h38.4l10.5-19zM34.2 42H31l-7.7-12.4h-.1V42h-2.8V25.1h3.1l7.7 12.5V25h2.9zm5.8 0h-3V25.1h3zm13.6 0v-7.6H46V42h-3V25.1h3V32h7.7v-7h3v17z" fill="#fff"/>
    <path d="M59.2 52.4l10.4-18.9-10.4-18.8h2.6a4.9 4.9 0 013.9 2.2l9.1 16.6-9.2 16.7a4.9 4.9 0 01-3.8 2.2z" fill="#fff"/>
    <path d="M59.2 52.4l10.4-18.9-10.4-18.8h2.6a4.9 4.9 0 013.9 2.2l9.1 16.6-9.2 16.7a4.9 4.9 0 01-3.8 2.2zm104.3-11.3a1.4 1.4 0 112.8 0zm4 .8a2.6 2.6 0 10-5.2-.3 2.6 2.6 0 002.6 2.8 2.4 2.4 0 002.5-1.8h-1.1a1.3 1.3 0 01-1.4.9 1.4 1.4 0 01-1.4-1.6zm-8.8-2.1h.9V43c0 .9.3 1.4 1.5 1.4h.8v-1a2 2 0 01-.5 0c-.6 0-.6-.3-.6-.8v-2.9h1V39h-1v-1.7h-1.2V39h-1zm-.5-1H157V42c0 .8-.3 1.5-1.3 1.5-.7 0-1-.4-1-1.3v-3.3h-1.2v3.4c0 1.4.6 2.1 2 2.1a1.8 1.8 0 001.5-.9v.8h1.2zm-8.7 1h1V43c0 .9.2 1.4 1.4 1.4h.8v-1a2.1 2.1 0 01-.5 0c-.5 0-.5-.3-.5-.8v-2.9h1V39h-1v-1.7h-1.2V39h-1zm-1.7-1.9h1.2v-1.1h-1.2zm0 6.4h1.2v-5.4h-1.2zm-3.9-4.5h1V43c0 .9.2 1.4 1.4 1.4h.8v-1a2.2 2.2 0 01-.5 0c-.5 0-.6-.3-.6-.8v-2.9h1V39h-1v-1.7h-1.2V39h-.9zm-5 2.8c0 1.2 1 1.8 2.4 1.8 1.1 0 2.4-.4 2.4-1.7 0-1.1-.8-1.4-1.7-1.6s-1.8-.3-1.8-.9.7-.5 1-.5c.5 0 1 .1 1.1.7h1.3c-.2-1.2-1.2-1.7-2.3-1.7s-2.3.4-2.3 1.6.9 1.4 1.8 1.6 1.7.2 1.7.9-.7.7-1.1.7c-.7 0-1.2-.3-1.3-1zm-5.5 1.7h1.2V41a1.3 1.3 0 011.3-1.4c.7 0 1 .3 1 1.2v3.4h1.2v-3.7a1.7 1.7 0 00-1.9-1.9 2 2 0 00-1.7 1V39h-1.1zm-2.6 0h1.3v-7.5h-1.3zm-4-7.5h-1.2v2.8a2.1 2.1 0 00-1.8-.9c-1.2 0-2.4.9-2.4 2.8 0 1.7.9 3 2.6 3a1.8 1.8 0 001.7-1v.8h1.1zm-4.2 4.8c0-1 .4-2 1.6-2 .9 0 1.5.7 1.5 2 0 1-.5 1.9-1.6 1.9s-1.5-1-1.5-1.9m-4.4 2.8a2.6 2.6 0 002.7-2.9 2.7 2.7 0 10-5.5 0 2.6 2.6 0 002.7 3m0-1c-1 0-1.5-1-1.5-2s.5-1.9 1.5-1.9 1.6 1 1.6 2-.5 1.9-1.6 1.9m-6 1a2.6 2.6 0 002.8-3 2.7 2.7 0 10-5.5 0 2.6 2.6 0 002.7 3m0-1c-1 0-1.5-1-1.5-2s.5-1.9 1.6-1.9 1.5 1 1.5 2-.5 1.9-1.6 1.9m-4.8.8h1.2v-7.5h-1.2zm-5.7-6.5h2.1c.7 0 1.1.3 1.1 1a1 1 0 01-1 1h-2.2zm-1.3 6.5h3.4c2 0 2.8-1 2.8-2.1a1.8 1.8 0 00-1.5-2 1.6 1.6 0 001-1.5c0-1.3-.8-1.9-2.2-1.9h-3.6zm1.3-3.5h2.3a1.1 1.1 0 011.2 1.2 1.1 1.1 0 01-1.2 1.2h-2.4zm-5.4-4H95v2.8a2 2 0 00-1.8-.9c-1.2 0-2.4.9-2.4 2.8 0 1.7.9 3 2.6 3a1.8 1.8 0 001.7-1v.8h1.1zM92 41.6c0-1 .4-2 1.5-2 1 0 1.5.7 1.5 2 0 1-.4 1.9-1.5 1.9s-1.5-1-1.5-1.9m-6.8 2.7h1.2V41a1.3 1.3 0 011.3-1.4c.8 0 1 .3 1.1 1.2v3.4H90v-3.7a1.7 1.7 0 00-2-1.9 2 2 0 00-1.6 1V39h-1.1zm-1-4c0-1.1-1.2-1.6-2.2-1.6s-2.4.4-2.5 1.8h1.2c0-.6.5-.8 1.2-.8.5 0 1.1 0 1.1.7s-.8.6-1.6.8c-1 0-2.1.3-2.1 1.7a1.6 1.6 0 001.9 1.5 2.8 2.8 0 001.8-.6c.1.5.5.6 1 .6a3.2 3.2 0 00.7-.1v-.8a1.8 1.8 0 01-.3 0c-.2 0-.3-.1-.3-.4zM83 42.5c0 .7-.8 1-1.4 1s-1-.2-1-.7.4-.8 1-1a4.3 4.3 0 001.4-.2zM175.5 31h.7a1 1 0 01-.7 1v.6A1.7 1.7 0 00177 31v-1.4h-1.4zm-1.1-5.4h-1.2v.7a1.7 1.7 0 00-1.6-.9 2.5 2.5 0 00-2.5 2.7c0 1.6.7 2.9 2.4 2.9a1.9 1.9 0 001.7-1v.9a1.2 1.2 0 01-1.4 1.4c-.6 0-1.2-.1-1.3-.8h-1.2c0 1.2 1.3 1.6 2.4 1.6 1.7 0 2.7-.8 2.7-2.4zm-2.7 4.5c-1 0-1.4-1-1.4-1.8s.3-2 1.4-2 1.5 1 1.5 1.9-.4 1.9-1.5 1.9m-8.2.9h1.2v-3.2a1.3 1.3 0 011.3-1.4c.7 0 1 .3 1 1.2V31h1.2v-3.7a1.7 1.7 0 00-1.9-1.9 2 2 0 00-1.7 1v-.8h-1zm-1-5.4h-1.3v3.1c0 .9-.3 1.5-1.3 1.5-.6 0-1-.3-1-1.3v-3.3h-1.2V29c0 1.4.6 2.1 2 2.1a1.8 1.8 0 001.6-.9v.8h1.1zM152 31h5.1v-1.1h-3.8v-6.4H152zm-5.5 0h.7a1 1 0 01-.7 1v.6A1.7 1.7 0 00148 31v-1.4h-1.4zm-4-4.5h1v3.2c0 .9.2 1.4 1.4 1.4a6.7 6.7 0 00.8-.1v-1a2.1 2.1 0 01-.5 0c-.5 0-.6-.2-.6-.7v-2.9h1.1v-.9h-1V24h-1.3v1.7h-.9zm-3 4.5h1.2v-2.6c0-1.2.7-1.8 1.5-1.8a4.2 4.2 0 01.5 0v-1.2a3 3 0 00-.5 0 1.7 1.7 0 00-1.5 1.3v-1.1h-1.2zm-1-4c0-1.1-1.2-1.6-2.2-1.6s-2.4.4-2.5 1.8h1.2c0-.6.5-.8 1.2-.8.5 0 1.1 0 1.1.7s-.8.6-1.6.8-2.1.3-2.1 1.7a1.6 1.6 0 001.9 1.5 2.8 2.8 0 001.8-.6c.1.5.5.6 1 .6a3.2 3.2 0 00.7 0v-1a1.8 1.8 0 01-.3 0c-.2 0-.3 0-.3-.3zm-1.3 2.2c0 .7-.8 1-1.3 1s-1.1-.2-1.1-.7.4-.8 1-1a4.1 4.1 0 001.4-.2zm-8-1.4a1.4 1.4 0 112.8 0zm4 .8a2.6 2.6 0 10-5.2-.3 2.6 2.6 0 002.6 2.9 2.4 2.4 0 002.5-1.9H132a1.3 1.3 0 01-1.3 1 1.4 1.4 0 01-1.5-1.7zM121 31h1.3v-3.4h3.4V31h1.3v-7.5h-1.3v3h-3.4v-3H121zm-5.2 0h1.2v-7.5h-1.2zm-1.1-4c0-1.1-1.1-1.6-2.2-1.6s-2.4.4-2.5 1.8h1.2c0-.6.6-.8 1.2-.8.5 0 1.2 0 1.2.7s-.8.6-1.7.8c-1 0-2 .3-2 1.7a1.6 1.6 0 001.8 1.5 2.8 2.8 0 001.9-.6c0 .5.4.6 1 .6a3.2 3.2 0 00.7 0v-1a1.8 1.8 0 01-.3 0c-.2 0-.3 0-.3-.3zm-1.2 2.2c0 .7-.8 1-1.4 1s-1-.2-1-.7.4-.8 1-1a4.3 4.3 0 001.4-.2zm-9.2 1.8h1.2v-3.2a1.3 1.3 0 011.4-1.4c.7 0 1 .3 1 1.2V31h1.2v-3.7a1.7 1.7 0 00-2-1.9 2 2 0 00-1.6 1v-.8h-1.1zm-3.5.1a2.6 2.6 0 002.7-2.8 2.7 2.7 0 10-5.4 0 2.6 2.6 0 002.7 2.8m0-.9c-1 0-1.6-1-1.6-2s.5-1.8 1.6-1.8 1.5 1 1.5 1.9-.4 2-1.5 2M96 24.5h1.2v-1.1H96zm0 6.4h1.2v-5.4H96zm-3.9-4.5h.9v3.2c0 .9.3 1.4 1.5 1.4a6.7 6.7 0 00.8-.1v-1a2 2 0 01-.5 0c-.6 0-.6-.2-.6-.7v-2.9h1v-.9h-1V24H93v1.7h-.9zm-.5.5c0-1.1-1.1-1.6-2.2-1.6s-2.4.4-2.5 1.8h1.2c0-.6.5-.8 1.2-.8.5 0 1.1 0 1.1.7s-.7.6-1.6.8c-1 0-2 .3-2 1.7a1.6 1.6 0 001.8 1.5 2.8 2.8 0 001.9-.6c0 .5.4.6.9.6a3 3 0 00.7 0v-1a1.6 1.6 0 01-.3 0c-.2 0-.2 0-.2-.3zm-1.2 2.2c0 .7-.9 1-1.4 1s-1-.2-1-.7.4-.8 1-1a4.1 4.1 0 001.4-.2zM79.7 31H81v-5.5l3.4 5.5h1.4v-7.5h-1.2V29L81 23.5h-1.4z" fill="#fff"/>
    <g fill="#fff">
        <path d="M538.3 52.7h-.6a3.8 3.8 0 01-.9-.2 4 4 0 01-1.5-1 4 4 0 01-.9-3.5 3.9 3.9 0 011.4-2.1 3.8 3.8 0 012.1-.8 3.5 3.5 0 011.3 0 3.8 3.8 0 012.3 1.8 3.6 3.6 0 01.5 1.7v.7a3.7 3.7 0 01-.2.9 3.9 3.9 0 01-2 2 3.8 3.8 0 01-1.3.4zm-3.2-3.9a3 3 0 103-3 3 3 0 00-3 3z"/>
        <path d="M538.8 48.9a.8.8 0 01.4.2 1.6 1.6 0 01.2.3l.3.6.4.7H539l-.5-1a1 1 0 00-.2-.3.6.6 0 00-.4-.1h-.4v1.5h-1v-4h1.7a2.1 2.1 0 01.8 0 1 1 0 01.5.4.8.8 0 01.1.4 1.4 1.4 0 010 .7 1 1 0 01-.5.5zm-1.3-.4h.7a.4.4 0 00.3-.3.8.8 0 000-.4.3.3 0 00-.2-.3.8.8 0 00-.2 0h-.6z"/>
    </g>
    <path d="M392.4 61.5h-7.2v-1.9h16.5v1.9h-7.2V80h-2.1zm24 11.5h-12.8a5.5 5.5 0 001.8 3.9 6 6 0 004.2 1.4 6.6 6.6 0 002.6-.5 5.7 5.7 0 002.1-1.5l1.2 1.3a6.5 6.5 0 01-2.6 2 8.6 8.6 0 01-3.3.5 8.5 8.5 0 01-4.2-1 7.2 7.2 0 01-2.8-2.7 7.9 7.9 0 01-1-4 8.2 8.2 0 011-4 7 7 0 012.6-2.8 7.5 7.5 0 013.9-1 7.5 7.5 0 013.8 1 7 7 0 012.6 2.8 8.3 8.3 0 011 4zm-11-5.2a5.6 5.6 0 00-1.8 3.7h10.9a5.6 5.6 0 00-1.7-3.7 5.6 5.6 0 00-7.5 0zm19.4-2.4a7.4 7.4 0 013.6-.8v2h-.5A4.9 4.9 0 00424 68a5.9 5.9 0 00-1.4 4.1V80h-2V64.7h2v3a5 5 0 012-2.3zm11.4 0a7.4 7.4 0 013.6-.8v2h-.5a4.9 4.9 0 00-3.8 1.5 5.8 5.8 0 00-1.4 4.1V80h-2V64.7h2v3a5 5 0 012.1-2.3zm17.2.7a5.8 5.8 0 011.6 4.4V80h-2v-2.4a4.7 4.7 0 01-2 1.9 7.2 7.2 0 01-3.2.6 6.3 6.3 0 01-4-1.2 4 4 0 01-1.6-3.2 4 4 0 011.4-3.2 7 7 0 014.5-1.1h4.9v-1a4 4 0 00-1.1-3 4.5 4.5 0 00-3.2-1 8.2 8.2 0 00-2.8.5 7.1 7.1 0 00-2.3 1.3l-1-1.5a8.2 8.2 0 012.8-1.5 11.1 11.1 0 013.5-.6 6.5 6.5 0 014.5 1.5zm-2.3 11.6a4.8 4.8 0 001.9-2.3v-2.5h-4.8q-4 0-4 2.7a2.5 2.5 0 001 2.1 4.6 4.6 0 003 .8 5.4 5.4 0 002.9-.8z" fill="#fff"/>
</svg>
