<svg xmlns="http://www.w3.org/2000/svg" viewBox="0 0 144 40">
    <path d="M26.6 31.5c0 1.8-1.3 2.9-3.5 2.9H21V37h-1.2v-8.4h3.3c2.2 0 3.5 1.1 3.5 2.9zm-1.2 0c0-1.2-.8-1.9-2.3-1.9h-2v3.8h2c1.5 0 2.3-.7 2.3-1.9zm2.2 2.3c0-1.9 1.4-3.2 3.3-3.2s3.3 1.3 3.3 3.2-1.4 3.3-3.3 3.3-3.3-1.4-3.3-3.3zm5.5 0c0-1.4-.9-2.2-2.1-2.2-1.2 0-2.1.9-2.1 2.2 0 1.4.9 2.2 2.1 2.2 1.2.1 2.1-.8 2.1-2.2zm12.2-3.2L42.9 37h-1.1L40 32.2 38.1 37H37l-2.4-6.4h1.1l1.8 5.1 1.9-5.1h1l1.9 5.1 1.9-5.1h1.1zm6.7 3.6h-5.2c.1 1.1 1 1.9 2.3 1.9.7 0 1.4-.3 1.8-.8l.7.7c-.6.7-1.5 1-2.5 1-2.1 0-3.4-1.4-3.4-3.3s1.4-3.2 3.2-3.2 3.1 1.3 3.1 3.3v.4zm-5.2-.8h4.1c-.1-1.1-.9-1.8-2-1.8s-2 .7-2.1 1.8zM57 30.6v1.1h-.3c-1.2 0-2 .8-2 2.1V37h-1.1v-6.4h1.1v1.1c.4-.7 1.2-1.1 2.3-1.1zm7.1 3.6h-5.2c.1 1.1 1 1.9 2.3 1.9.7 0 1.4-.3 1.8-.8l.6.7c-.6.7-1.5 1-2.5 1-2.1 0-3.4-1.4-3.4-3.3s1.4-3.2 3.2-3.2 3.1 1.3 3.1 3.3l.1.4zm-5.2-.8H63c-.1-1.1-.9-1.8-2-1.8s-1.9.7-2.1 1.8zm12.8-5.3V37h-1.1v-1c-.5.7-1.3 1.1-2.3 1.1-1.9 0-3.2-1.3-3.2-3.3 0-1.9 1.4-3.2 3.2-3.2.9 0 1.7.3 2.2 1v-3.5h1.2zm-1.1 5.7c0-1.4-.9-2.2-2.1-2.2s-2.1.9-2.1 2.2c0 1.4.9 2.2 2.1 2.2 1.2.1 2.1-.8 2.1-2.2zm13.1 0c0 1.9-1.4 3.3-3.2 3.3-.9 0-1.8-.4-2.3-1.1v1h-1.1v-8.9h1.2v3.5c.5-.7 1.3-1 2.2-1a3 3 0 0 1 3.2 3.2zm-1.1 0c0-1.4-.9-2.2-2.1-2.2s-2.1.9-2.1 2.2c0 1.4.9 2.2 2.1 2.2 1.1.1 2.1-.8 2.1-2.2zm8.2-3.2l-3.1 7c-.6 1.3-1.3 1.8-2.3 1.8-.6 0-1.2-.2-1.6-.6l.5-.9c.3.3.7.5 1.1.5.6 0 .9-.3 1.2-1l.2-.4-2.8-6.3h1.2l2.2 5.1 2.2-5.1 1.2-.1zm6.1-1H94v-1h6.9v1H98V37h-1.2l.1-7.4zm10.3 4.6H102c.1 1.1 1 1.9 2.3 1.9.7 0 1.4-.3 1.8-.8l.6.7c-.6.7-1.5 1-2.5 1-2.1 0-3.4-1.4-3.4-3.3s1.4-3.2 3.2-3.2 3.1 1.3 3.1 3.3l.1.4zm-5.2-.8h4.1c-.1-1.1-.9-1.8-2-1.8s-2 .7-2.1 1.8zm10.2-2.8v1.1h-.3c-1.2 0-2 .8-2 2.1V37h-1.2v-6.4h1.1v1.1c.5-.7 1.3-1.1 2.4-1.1zm4.9 0v1.1h-.3c-1.2 0-2 .8-2 2.1V37h-1.2v-6.4h1.1v1.1c.4-.7 1.2-1.1 2.4-1.1zm6.4 2.6V37h-1.1v-.8c-.4.6-1.1.9-2.1.9-1.4 0-2.4-.8-2.4-1.9 0-1 .7-1.9 2.6-1.9h1.8v-.2c0-1-.6-1.5-1.7-1.5-.8 0-1.5.3-2 .7l-.5-.9c.7-.5 1.6-.8 2.6-.8 1.8 0 2.8.8 2.8 2.6zm-1.2 1.9v-.9h-1.7c-1.1 0-1.5.4-1.5 1s.5 1 1.4 1c.9 0 1.6-.4 1.8-1.1z" fill="#6d6e70"/>
    <path d="M68.9 5.7a4 4 0 0 0-1.6-1.2c-.6-.4-1.3-.5-1.9-.5l-1 .1-.9.3c-.3.1-.4.4-.6.6-.2.3-.3.6-.3 1l.2.8.7.6 1 .5 1.2.4 2 .7a6 6 0 0 1 1.9 1.1 4.9 4.9 0 0 1 2 4.1c0 1.1-.2 2.1-.6 2.9-.4.8-1 1.5-1.6 2a9 9 0 0 1-5.2 1.6c-1.4 0-2.8-.3-4-.7a8.1 8.1 0 0 1-3.2-2.1l3.1-3.1c.5.6 1.1 1.1 1.9 1.5a5 5 0 0 0 2.3.6l1-.1.9-.4c.3-.2.5-.4.6-.7.2-.3.2-.6.2-1s-.1-.7-.3-.9l-.8-.7-1.3-.6-1.7-.6-1.8-.7c-.6-.3-1.1-.6-1.6-1.1-.5-.4-.8-1-1.1-1.6-.3-.6-.4-1.4-.4-2.3 0-1.1.2-2 .7-2.8a6.3 6.3 0 0 1 4.1-3c.9-.2 1.8-.4 2.7-.4 1.1 0 2.2.2 3.4.6 1.1.4 2.2 1 3 1.8l-3 3.3zm13.9-1.1v15.5h-4.7V4.6h-5.5v-4h15.7v4h-5.5zM102 20.1l-1.5-3.8H93l-1.4 3.8h-5.1L94.7.6h4.6l8.1 19.5H102zM96.8 5.8l-2.5 6.7h4.9l-2.4-6.7zm25.6 14.3c-1.3.3-2.7.5-4.1.5-1.5 0-3-.3-4.3-.8a9.8 9.8 0 0 1-5.6-5.3 11.6 11.6 0 0 1 0-8.5 9.6 9.6 0 0 1 5.7-5.2c1.3-.5 2.7-.7 4.1-.7 1.5 0 3 .3 4.3.7s2.4 1.1 3.2 1.9l-3 3.4a5.5 5.5 0 0 0-4.4-1.8 6 6 0 0 0-2.3.5c-.7.3-1.3.7-1.8 1.3-.5.6-.9 1.2-1.2 1.9-.3.8-.4 1.5-.4 2.5 0 .9.1 1.7.4 2.5a5 5 0 0 0 1.1 1.9c.5.6 1.1 1 1.9 1.3a7 7 0 0 0 2.6.5l1.6-.1 1.4-.4v-3.5h-3.7V8.6h8v10.2c-1.2.6-2.2 1-3.5 1.3zm7.1 0V.6h13.1v3.9H134v3.7h8.1V12H134v4h9.1v4h-13.6z" fill="#c22f43"/>
    <path d="M.1.6h6.7c1.2 0 2.5.2 3.7.6s2.4.9 3.4 1.7c1 .8 1.8 1.8 2.5 3 .6 1.2.9 2.7.9 4.4 0 1.7-.3 3.1-.9 4.4-.6 1.2-1.4 2.3-2.5 3s-2.2 1.4-3.4 1.8a12 12 0 0 1-3.7.6H.1V.6zm2.7 17.1h3.4c1.2 0 2.3-.2 3.3-.5s1.8-.8 2.6-1.4c.7-.6 1.3-1.4 1.7-2.3.4-.9.6-1.9.6-3.1a8 8 0 0 0-.6-3.2 6.6 6.6 0 0 0-4.3-3.7c-1-.4-2.1-.5-3.3-.5H2.8v14.7zM29 11.6c0-1-.3-1.7-.9-2.2-.6-.5-1.4-.7-2.4-.7-.7 0-1.4.2-2.1.4L22 10.2l-1.4-1.6c.7-.6 1.5-1 2.4-1.4.9-.4 1.9-.5 3-.5.9 0 1.7.2 2.5.4a5 5 0 0 1 1.7 1.1c.5.5.8 1 1 1.6.2.6.3 1.3.3 2v5.7l.1 1.4.2 1.2h-2.4c-.2-.6-.2-1.2-.2-1.9H29c-.5.7-1.1 1.2-1.8 1.6-.7.4-1.6.6-2.6.6l-1.6-.2c-.6-.2-1.1-.4-1.5-.7-.5-.3-.8-.7-1.1-1.2-.3-.5-.5-1.1-.5-1.9 0-1 .3-1.8.8-2.4.5-.6 1.2-1 2.1-1.3a36.5 36.5 0 0 1 6.2-.8v-.3zm-.7 2.3l-2 .1-1.9.3c-.6.2-1 .4-1.4.8-.4.3-.6.8-.6 1.3 0 .4.1.7.3 1l.6.6.9.4 1 .1c1.2 0 2.2-.4 2.8-1.1.7-.7 1-1.6 1-2.7V14h-.7v-.1zm13.6-4.7h-3.5V16c0 .8.2 1.3.5 1.7.3.4.8.5 1.4.5l.8-.1.8-.2.1 2.1-1 .3-1.2.1c-1.2 0-2.2-.4-2.8-1s-1-1.7-1-3.1V9.2h-2.5V7.1H36V3.3h2.6V7H42l-.1 2.2zm10.8 2.4c0-1-.3-1.7-.9-2.2-.6-.5-1.4-.7-2.4-.7-.7 0-1.4.2-2.1.4a5 5 0 0 0-1.6 1.1l-1.3-1.6a7.4 7.4 0 0 1 5.3-1.9c.9 0 1.7.2 2.5.4a5 5 0 0 1 1.7 1.1c.5.5.8 1 1 1.6.2.6.3 1.3.3 2v5.7l.1 1.4.2 1.2H53c-.2-.6-.2-1.2-.2-1.9h-.1c-.5.7-1.1 1.2-1.8 1.6-.7.4-1.6.6-2.6.6l-1.6-.2c-.6-.2-1.1-.4-1.5-.7-.5-.3-.8-.7-1.1-1.2-.3-.5-.5-1.1-.5-1.9 0-1 .3-1.8.8-2.4.5-.6 1.2-1 2.1-1.3s1.8-.5 2.9-.6l3.3-.2v-.3zm-.6 2.3l-2 .1c-.7 0-1.3.2-1.9.3-.6.2-1 .4-1.4.8-.4.3-.6.8-.6 1.3 0 .4.1.7.3 1l.6.6.9.4 1 .1c1.2 0 2.2-.4 2.8-1.1.7-.7 1-1.6 1-2.7V14h-.7v-.1z" fill="#6d6e71"/>
</svg>
