<svg xmlns="http://www.w3.org/2000/svg" viewBox="0 0 192 42">
    <path d="M85 32.9c0 1.4-1 2.2-2.6 2.2h-1.6V37h-.9v-6.3h2.5c1.6 0 2.6.8 2.6 2.2zm-.9 0c0-.9-.6-1.4-1.8-1.4h-1.5v2.8h1.5c1.2 0 1.8-.5 1.8-1.4zm1.8.9c0-1.8 1.4-3.2 3.4-3.2 1.9 0 3.3 1.4 3.3 3.2 0 1.8-1.4 3.2-3.3 3.2a3.2 3.2 0 0 1-3.4-3.2zm5.8 0c0-1.4-1-2.4-2.4-2.4s-2.5 1-2.5 2.4 1 2.4 2.5 2.4c1.4.1 2.4-1 2.4-2.4zm11-3.1l-2.1 6.3h-.9L98 32l-1.7 5h-1l-2.1-6.3h.9l1.7 5.1 1.8-5.1h.8l1.7 5.1 1.7-5.1h.9zm5.7 5.5v.8h-4.6v-6.3h4.4v.8h-3.5v1.9h3.2v.8h-3.2v2h3.7zm5.6.8l-1.4-1.9h-2V37h-.9v-6.3h2.5c1.6 0 2.6.8 2.6 2.2 0 1-.5 1.7-1.4 2L115 37h-1zm0-4.1c0-.9-.6-1.4-1.8-1.4h-1.5v2.8h1.5c1.2 0 1.8-.5 1.8-1.4zm7 3.3v.8h-4.6v-6.3h4.4v.8h-3.5v1.9h3.2v.8h-3.2v2h3.7zm1.4-5.5h2.7c2 0 3.4 1.3 3.4 3.2s-1.4 3.2-3.4 3.2h-2.7v-6.4zm2.6 5.5c1.6 0 2.6-1 2.6-2.4s-1-2.4-2.6-2.4h-1.7v4.7h1.7v.1zm12.7-.9c0 1.1-.8 1.7-2.4 1.7h-3v-6.3h2.8c1.4 0 2.3.6 2.3 1.6 0 .7-.4 1.2-.8 1.4.6.2 1.1.8 1.1 1.6zm-4.5-3.9v2h1.8c.9 0 1.4-.3 1.4-1s-.5-1-1.4-1h-1.8zm3.6 3.8c0-.7-.5-1.1-1.5-1.1h-2.1v2.1h2.1c.9.1 1.5-.2 1.5-1zm4.6-.4V37h-.9v-2.2l-2.5-4.1h1l2 3.3 2-3.3h.9l-2.5 4.1z" fill="#fff"/>
    <path d="M155.1 13.5v15a5 5 0 0 0 2.5 4.3l12.9 7.5a5 5 0 0 0 5 0l12.9-7.5a5 5 0 0 0 2.5-4.3v-15a5 5 0 0 0-2.5-4.3l-12.9-7.5a5 5 0 0 0-5 0l-12.9 7.5a4.8 4.8 0 0 0-2.5 4.3z" fill="none" stroke="#fff" stroke-width=".8"/>
    <path d="M159.6 10.6l-3.5 12.6c-.4 1.5 0 3.1 1.1 4.2l9.2 9.3a4.6 4.6 0 0 0 4.2 1.2l12.6-3.3a4.4 4.4 0 0 0 3.1-3.1l3.4-12.6c.4-1.5 0-3.1-1.1-4.2l-9.1-9.3a4.6 4.6 0 0 0-4.2-1.2l-12.6 3.3a4.4 4.4 0 0 0-3.1 3.1z" fill="none" stroke="#fff" stroke-width=".8"/>
    <path d="M171.5 34.1l-2.3-.7c-8.4-2.6-6.9-.9-8.9-9.5s-2.7-6.4 3.8-12.4 4.2-5.5 12.6-2.9 6.9.9 8.9 9.5 2.7 6.4-3.8 12.4c-5.2 4.9-4.7 5.5-8.8 4.2l-1.5-.6z" fill="none" stroke="#fff" stroke-width=".8"/>
    <g fill="#fff">
        <path d="M165.9 16.3h-4.4c-.2 0-.3.1-.3.2v.7c0 .2 0 .2.2.2h1.5v7.2c0 .2.2.2.3.2h.8s.2 0 .2-.2v-7h1.6l.2-.3v-.8l-.1-.2z" fill-rule="evenodd" clip-rule="evenodd"/>
        <path d="M169.2 18.1H168c-.6 0-1 .2-1.4.5-.3.4-.4 1-.4 1.5v2.7c0 .6 0 1.2.4 1.5.3.4.8.5 1.4.5h2.7s.2 0 .2-.2V24c0-.2-.1-.2-.2-.2h-2.5c-.6 0-1-.3-1-1v-.6h3.6l.2-.3v-1.8c0-.7-.2-1.2-.5-1.5s-.8-.5-1.3-.5zm.7 3h-2.6v-.9c0-.3 0-.6.2-.7 0-.2.4-.3.7-.3h.8l.7.2.2.7v1zm14-2.5c-.3-.4-.8-.5-1.4-.5h-2.3l-.2.2v.7c0 .2 0 .2.2.2h2.2c.6 0 .9.3.9 1v.5h-1.7c-.7 0-1.2.2-1.5.5-.4.3-.5.8-.5 1.4v.5c0 .6.2 1 .5 1.4.4.3.9.5 1.5.5h2.8v-4.8c-.1-.7-.2-1.2-.5-1.6zm-.7 5.1l-.1.1h-1.5c-.3 0-.6 0-.7-.2-.2 0-.2-.4-.2-.7v-.4c0-.3 0-.5.2-.7l.7-.2h1.5v2.1z"/>
        <path d="M174.9 18.1h-.4l-.8.2-.5.5v-.5c0-.2-.1-.2-.2-.2h-.8l-.2.2v6.3c0 .2 0 .2.2.2h.8s.2 0 .2-.2v-4.2c0-.8.3-1.2 1-1.2h.7s.2 0 .2-.2v-.7c0-.2 0-.2-.2-.2zm3.9 0h-.4l-.8.2c-.2.1-.4.3-.4.5v-.5c0-.2-.1-.2-.2-.2h-.8l-.2.2v6.3c0 .2 0 .2.2.2h.8s.2 0 .2-.2v-4.2c0-.8.3-1.2 1-1.2h.7s.2 0 .2-.2v-.7c-.1-.2-.1-.2-.3-.2z" fill-rule="evenodd" clip-rule="evenodd"/>
    </g>
    <path d="M68.9 10.7a4 4 0 0 0-1.6-1.2c-.6-.4-1.3-.5-1.9-.5l-1 .1-.9.3c-.3.1-.5.4-.7.6-.2.3-.3.6-.3 1l.2.8.6.6 1 .5 1.2.4 2 .7a6 6 0 0 1 1.9 1.1 4.9 4.9 0 0 1 2 4.1c0 1.1-.2 2.1-.6 2.9s-1 1.5-1.6 2a9 9 0 0 1-5.2 1.6c-1.4 0-2.8-.3-4-.7a8.1 8.1 0 0 1-3.2-2.1l3.1-3.1c.5.6 1.1 1.1 1.9 1.5a5 5 0 0 0 2.3.6l1-.1.9-.4c.3-.2.5-.4.6-.7.2-.3.2-.6.2-1s-.1-.7-.3-.9l-.8-.7-1.3-.6-1.7-.6-1.8-.7c-.6-.3-1.1-.6-1.6-1.1-.5-.4-.8-1-1.1-1.6s-.4-1.4-.4-2.3c0-1.1.2-2 .7-2.8a6.3 6.3 0 0 1 4.1-3c.9-.2 1.8-.4 2.7-.4 1.1 0 2.2.2 3.4.6 1.1.4 2.2 1 3 1.8l-2.8 3.3zm13.9-1.1v15.5h-4.7V9.6h-5.5v-4h15.7v4h-5.5zM102 25.1l-1.5-3.8H93l-1.4 3.8h-5.1l8.2-19.5h4.6l8.1 19.5H102zm-5.2-14.3l-2.5 6.7h4.9l-2.4-6.7zm25.6 14.3c-1.3.3-2.7.5-4.1.5-1.5 0-3-.3-4.3-.8a9.8 9.8 0 0 1-5.6-5.3 11.6 11.6 0 0 1 0-8.5 9.6 9.6 0 0 1 5.7-5.2c1.3-.5 2.7-.7 4.1-.7 1.5 0 3 .3 4.3.7a9 9 0 0 1 3.2 1.9l-3 3.4a5.5 5.5 0 0 0-4.4-1.8 6 6 0 0 0-2.3.5c-.7.3-1.3.7-1.8 1.3s-.9 1.2-1.2 1.9c-.3.8-.4 1.5-.4 2.5 0 .9.1 1.7.4 2.5s.6 1.4 1.1 1.9c.5.6 1.1 1 1.9 1.3s1.6.5 2.6.5l1.6-.1 1.4-.4v-3.5h-3.7v-3.8h8v10.2l-3.5 1zm7.1 0V5.6h13.1v3.9H134v3.7h8.1V17H134v4h9.1v4h-13.6v.1zM.1 5.6h6.7c1.2 0 2.5.2 3.7.6s2.4.9 3.4 1.7 1.8 1.8 2.5 3c.6 1.2.9 2.7.9 4.4s-.3 3.1-.9 4.4c-.6 1.2-1.4 2.3-2.5 3s-2.2 1.4-3.4 1.8-2.5.6-3.7.6H.1V5.6zm2.7 17.1h3.4c1.2 0 2.3-.2 3.3-.5s1.8-.8 2.6-1.4 1.3-1.4 1.7-2.3.6-1.9.6-3.1-.2-2.3-.6-3.2a6.6 6.6 0 0 0-4.3-3.7c-1-.4-2.1-.5-3.3-.5H2.8v14.7zM29 16.6c0-1-.3-1.7-.9-2.2s-1.4-.7-2.4-.7c-.7 0-1.4.2-2.1.4a5 5 0 0 0-1.6 1.1l-1.4-1.6c.7-.6 1.4-1.1 2.4-1.4.9-.4 1.9-.5 3-.5.9 0 1.7.2 2.5.4.7.3 1.2.6 1.7 1.1s.8 1 1 1.6.3 1.3.3 2v5.7l.1 1.4.2 1.2h-2.4c-.2-.6-.2-1.2-.2-1.9H29c-.5.7-1.1 1.2-1.8 1.6-.7.4-1.6.6-2.6.6l-1.6-.2c-.6-.2-1.1-.4-1.5-.7-.5-.3-.8-.7-1.1-1.2-.3-.5-.5-1.1-.5-1.9 0-1 .3-1.8.8-2.4s1.2-1 2.1-1.3 1.8-.5 2.9-.6l3.3-.2v-.3zm-.7 2.3l-2 .1-1.9.3c-.6.2-1 .4-1.4.8-.4.3-.6.8-.6 1.3 0 .4.1.7.3 1l.6.6.9.4 1 .1c1.2 0 2.2-.4 2.8-1.1.7-.7 1-1.6 1-2.7V19h-.7v-.1zm13.6-4.7h-3.5V21c0 .8.2 1.3.5 1.7.3.4.8.5 1.4.5l.8-.1.8-.2.1 2.1-1 .3-1.2.1c-1.2 0-2.2-.4-2.8-1s-1-1.7-1-3.1v-7.1h-2.5v-2.1H36V8.3h2.6V12H42l-.1 2.2zm10.8 2.4c0-1-.3-1.7-.9-2.2-.6-.5-1.4-.7-2.4-.7-.7 0-1.4.2-2.1.4a5 5 0 0 0-1.6 1.1l-1.3-1.6c.7-.6 1.4-1.1 2.4-1.4.9-.4 1.9-.5 3-.5.9 0 1.7.2 2.5.4.7.3 1.2.6 1.7 1.1s.8 1 1 1.6.3 1.3.3 2v5.7l.1 1.4.2 1.2H53c-.2-.6-.2-1.2-.2-1.9h-.1c-.5.7-1.1 1.2-1.8 1.6s-1.6.6-2.6.6l-1.6-.2c-.6-.2-1.1-.4-1.5-.7-.5-.3-.8-.7-1.1-1.2s-.5-1.1-.5-1.9c0-1 .3-1.8.8-2.4s1.2-1 2.1-1.3 1.8-.5 2.9-.6l3.3-.2v-.3zm-.6 2.3l-2 .1-1.9.3c-.6.2-1 .4-1.4.8-.4.3-.6.8-.6 1.3 0 .4.1.7.3 1l.6.6.9.4 1 .1c1.2 0 2.2-.4 2.8-1.1.7-.7 1-1.6 1-2.7V19h-.7v-.1z" fill="#fff"/>
</svg>
