<svg xmlns="http://www.w3.org/2000/svg" viewBox="0 0 187 38">
    <path d="M68.9 9.7a4 4 0 0 0-1.6-1.2c-.6-.4-1.3-.5-1.9-.5l-1 .1-.9.3c-.3.1-.4.4-.6.6-.2.3-.3.6-.3 1l.2.8.7.6 1 .5 1.2.4 2 .7a6 6 0 0 1 1.9 1.1 4.9 4.9 0 0 1 2 4.1c0 1.1-.2 2.1-.6 2.9-.4.8-1 1.5-1.6 2a9 9 0 0 1-5.2 1.6c-1.4 0-2.8-.3-4-.7a8.1 8.1 0 0 1-3.2-2.1l3.1-3.1c.5.6 1.1 1.1 1.9 1.5a5 5 0 0 0 2.3.6l1-.1.9-.4c.3-.2.5-.4.6-.7.2-.3.2-.6.2-1s-.1-.7-.3-.9l-.8-.7-1.3-.6-1.7-.6-1.8-.7c-.6-.3-1.1-.6-1.6-1.1-.5-.4-.8-1-1.1-1.6s-.4-1.4-.4-2.3c0-1.1.2-2 .7-2.8a6.3 6.3 0 0 1 4.1-3c.9-.2 1.8-.4 2.7-.4 1.1 0 2.2.2 3.4.6 1.1.4 2.2 1 3 1.8l-3 3.3zm13.9-1.1v15.5h-4.7V8.6h-5.5v-4h15.7v4zM102 24.1l-1.5-3.8H93l-1.4 3.8h-5.1l8.2-19.5h4.6l8.1 19.5H102zM96.8 9.8l-2.5 6.7h4.9l-2.4-6.7zm25.6 14.3c-1.3.3-2.7.5-4.1.5-1.5 0-3-.3-4.3-.8a9.8 9.8 0 0 1-5.6-5.3 11.6 11.6 0 0 1 0-8.5 9.6 9.6 0 0 1 5.7-5.2c1.3-.5 2.7-.7 4.1-.7 1.5 0 3 .3 4.3.7s2.4 1.1 3.2 1.9l-3 3.4a5.5 5.5 0 0 0-4.4-1.8 6 6 0 0 0-2.3.5c-.7.3-1.3.7-1.8 1.3s-.9 1.2-1.2 1.9c-.3.8-.4 1.5-.4 2.5 0 .9.1 1.7.4 2.5s.6 1.4 1.1 1.9c.5.6 1.1 1 1.9 1.3a7 7 0 0 0 2.6.5l1.6-.1 1.4-.4v-3.5h-3.7v-4.1h8v10.2c-1.2.6-2.2 1-3.5 1.3zm7.1 0V4.6h13.1v3.9H134v3.7h8.1V16H134v4h9.1v4h-13.6z" fill="#c22f43"/>
    <path d="M.1 4.6h6.7c1.2 0 2.5.2 3.7.6s2.4.9 3.4 1.7 1.8 1.8 2.5 3c.6 1.2.9 2.7.9 4.4s-.3 3.1-.9 4.4a7.3 7.3 0 0 1-2.5 3c-1.1.7-2.2 1.4-3.4 1.8s-2.5.6-3.7.6H.1V4.6zm2.7 17.1h3.4c1.2 0 2.3-.2 3.3-.5s1.8-.8 2.6-1.4c.7-.6 1.3-1.4 1.7-2.3.4-.9.6-1.9.6-3.1s-.2-2.3-.6-3.2a6.6 6.6 0 0 0-4.3-3.7c-1-.4-2.1-.5-3.3-.5H2.8v14.7zM29 15.6c0-1-.3-1.7-.9-2.2s-1.4-.7-2.4-.7c-.7 0-1.4.2-2.1.4L22 14.2l-1.4-1.6c.7-.6 1.5-1 2.4-1.4.9-.4 1.9-.5 3-.5.9 0 1.7.2 2.5.4.7.3 1.2.6 1.7 1.1s.8 1 1 1.6c.2.6.3 1.3.3 2v5.7l.1 1.4.2 1.2h-2.4c-.2-.6-.2-1.2-.2-1.9H29c-.5.7-1.1 1.2-1.8 1.6-.7.4-1.6.6-2.6.6l-1.6-.2c-.6-.2-1.1-.4-1.5-.7-.5-.3-.8-.7-1.1-1.2-.3-.5-.5-1.1-.5-1.9 0-1 .3-1.8.8-2.4s1.2-1 2.1-1.3a36.5 36.5 0 0 1 6.2-.8v-.3zm-.7 2.3l-2 .1-1.9.3c-.6.2-1 .4-1.4.8-.4.3-.6.8-.6 1.3 0 .4.1.7.3 1l.6.6.9.4 1 .1c1.2 0 2.2-.4 2.8-1.1.7-.7 1-1.6 1-2.7V18h-.7v-.1zm13.6-4.7h-3.5V20c0 .8.2 1.3.5 1.7.3.4.8.5 1.4.5l.8-.1.8-.2.1 2.1-1 .3-1.2.1c-1.2 0-2.2-.4-2.8-1s-1-1.7-1-3.1v-7.1h-2.5v-2.1H36V7.3h2.6V11H42l-.1 2.2zm10.8 2.4c0-1-.3-1.7-.9-2.2-.6-.5-1.4-.7-2.4-.7-.7 0-1.4.2-2.1.4a5 5 0 0 0-1.6 1.1l-1.3-1.6a7.4 7.4 0 0 1 5.3-1.9c.9 0 1.7.2 2.5.4.7.3 1.2.6 1.7 1.1s.8 1 1 1.6c.2.6.3 1.3.3 2v5.7l.1 1.4.2 1.2H53c-.2-.6-.2-1.2-.2-1.9h-.1c-.5.7-1.1 1.2-1.8 1.6-.7.4-1.6.6-2.6.6l-1.6-.2c-.6-.2-1.1-.4-1.5-.7-.5-.3-.8-.7-1.1-1.2-.3-.5-.5-1.1-.5-1.9 0-1 .3-1.8.8-2.4s1.2-1 2.1-1.3 1.8-.5 2.9-.6l3.3-.2v-.3zm-.6 2.3l-2 .1c-.7 0-1.3.2-1.9.3-.6.2-1 .4-1.4.8-.4.3-.6.8-.6 1.3 0 .4.1.7.3 1l.6.6.9.4 1 .1c1.2 0 2.2-.4 2.8-1.1.7-.7 1-1.6 1-2.7V18h-.7v-.1z" fill="#6d6e71"/>
    <path d="M81.4 28.7c1.6 0 2.6.8 2.6 2.2s-1 2.2-2.6 2.2h-1.6V35h-.9v-6.3h2.5zm0 3.6c1.2 0 1.8-.5 1.8-1.4s-.6-1.4-1.8-1.4h-1.5v2.8h1.5zm6.9 2.8c-1.9 0-3.4-1.4-3.4-3.2 0-1.8 1.4-3.2 3.4-3.2 1.9 0 3.3 1.4 3.3 3.2s-1.4 3.2-3.3 3.2zm0-.8c1.4 0 2.4-1 2.4-2.4s-1-2.4-2.4-2.4-2.5 1-2.5 2.4 1.1 2.4 2.5 2.4zm12.6-5.6h.9L99.6 35h-.9L97 30l-1.7 5h-1l-2.1-6.3h.9l1.7 5.1 1.8-5.1h.8l1.7 5.1 1.8-5.1zm2.8 5.5h3.7v.8h-4.6v-6.3h4.4v.8h-3.5v1.9h3.2v.8h-3.2v2zm10.3.8h-1l-1.4-1.9h-2V35h-.9v-6.3h2.5c1.6 0 2.6.8 2.6 2.2 0 1-.5 1.7-1.4 2L114 35zm-2.7-2.7c1.2 0 1.8-.5 1.8-1.4s-.6-1.4-1.8-1.4h-1.5v2.8h1.5zm5 1.9h3.7v.8h-4.6v-6.3h4.4v.8h-3.5v1.9h3.2v.8h-3.2v2zm5.1.8v-6.3h2.7c2 0 3.4 1.3 3.4 3.1s-1.4 3.1-3.4 3.1h-2.7zm.9-.8h1.7c1.6 0 2.6-1 2.6-2.4s-1-2.4-2.6-2.4h-1.7v4.8zm13.2-2.5c.7.2 1.2.7 1.2 1.6 0 1.1-.8 1.7-2.4 1.7h-3v-6.3h2.8c1.4 0 2.3.6 2.3 1.6-.1.7-.4 1.2-.9 1.4zm-1.5-2.3h-1.8v2h1.8c.9 0 1.4-.3 1.4-1s-.5-1-1.4-1zm.2 4.9c1 0 1.5-.3 1.5-1s-.5-1.1-1.5-1.1h-2.1v2.1h2.1zm8.7-5.6l-2.5 4.1V35h-.9v-2.2l-2.5-4.1h1l2 3.3 2-3.3h.9z" fill="#6d6e70"/>
    <g fill-rule="evenodd" clip-rule="evenodd">
        <path d="M152 11.9v14.2c0 1.7.9 3.3 2.4 4.1l12.6 7.1c1.5.9 3.4.9 4.9 0l12.6-7.1a4.7 4.7 0 0 0 2.4-4.1V11.9c0-1.7-.9-3.3-2.4-4.1L171.9.6a4.8 4.8 0 0 0-4.9 0l-12.6 7.1a5 5 0 0 0-2.4 4.2" fill="#349348"/>
        <path d="M156.4 9.1L153 21a4 4 0 0 0 1.1 4l8.9 8.8a4.2 4.2 0 0 0 4.1 1.1l12.3-3.1a4.2 4.2 0 0 0 3-2.9l3.3-11.9a4 4 0 0 0-1.1-4l-8.9-8.8a4.2 4.2 0 0 0-4.1-1.1l-12.2 3.1a3.9 3.9 0 0 0-3 2.9" fill="#73ad43"/>
        <path d="M168 31.4l-2.3-.7c-8.2-2.4-6.7-.8-8.6-9-1.9-8.2-2.6-6.1 3.7-11.8 6.3-5.7 4.1-5.2 12.3-2.8 8.2 2.4 6.7.8 8.6 9 1.9 8.2 2.6 6.1-3.7 11.8-5.1 4.6-4.6 5.2-8.6 3.9" fill="#afd139"/>
        <path d="M162.5 14.5h-4.3l-.2.2v.6l.2.2h1.5l.1.1v6.7l.2.2h.7l.2-.2v-6.7l.1-.1h1.5l.2-.2v-.6c0-.1 0-.2-.2-.2m3.9 4.5l-.1.1H164l-.1-.1v-.8l.2-.7.6-.2h.8l.6.2.2.7v.8zm-.7-2.8h-1.1c-.6 0-1 .2-1.3.5s-.5.8-.5 1.4v2.5c0 .6.2 1.1.5 1.4.3.3.8.5 1.3.5h2.7l.2-.2v-.6c0-.2-.1-.2-.2-.2h-2.5c-.6 0-.9-.3-.9-.9v-.5l.1-.1h3.3l.2-.2v-1.6a2 2 0 0 0-.5-1.4c-.3-.4-.8-.6-1.3-.6zm13.6 5.3l-.1.1h-1.4l-.7-.2c-.2-.1-.2-.4-.2-.7v-.4l.2-.6.7-.2h1.4l.1.1v1.9zm.7-4.8c-.3-.3-.8-.5-1.3-.5h-2.3l-.2.2v.6c0 .2.1.2.2.2h2.1c.6 0 .9.3.9.9v.5h-1.6c-.6 0-1.1.2-1.5.5-.3.3-.5.7-.5 1.3v.5c0 .6.2 1 .5 1.3.3.3.8.5 1.5.5h2.7v-4.5c0-.6-.2-1.1-.5-1.5zm-8.7-.5h-.4l-.7.2c-.2.1-.4.3-.4.5v-.5l-.2-.2h-.7l-.2.2v6l.2.2h.7l.2-.2v-4c0-.8.3-1.2 1-1.2h.7c.1 0 .2 0 .2-.2v-.7l-.4-.1m3.8 0h-.4l-.7.2c-.2.1-.4.3-.4.5v-.5l-.2-.2h-.7l-.2.2v6l.2.2h.7l.2-.2v-4c0-.8.3-1.2 1-1.2h.7c.1 0 .2 0 .2-.2v-.7l-.4-.1" fill="#fefefe"/>
    </g>
</svg>
