<svg width="20" height="15" xmlns="http://www.w3.org/2000/svg">
    <g fill="none">
        <path d="M12.7 4.1h.6L15 2.5l.1-.7a8.2 8.2 0 00-11 .7c-.8.8-1.4 1.8-1.7 2.9H3l3.5-.6.2-.3a4.6 4.6 0 016-.4z" fill="#EA4335"/>
        <path d="M17.5 5.4a7.4 7.4 0 00-2.3-3.6l-2.5 2.3a4 4 0 011.6 3.2v.4c1.2 0 2.2 1 2.2 2 0 1.1-1 2-2.2 2H10l-.4.5v2.4l.4.4h4.3c3.1 0 5.7-2.3 5.7-5.2 0-1.8-1-3.4-2.5-4.4z" fill="#4285F4"/>
        <path d="M5.6 15H10v-3.2H5.6l-.9-.2-.6.2-1.7 1.6-.2.5A6 6 0 005.6 15z" fill="#34A853"/>
        <path d="M5.6 4.5A5.5 5.5 0 000 9.8a5 5 0 002.2 4.1l2.5-2.3a2 2 0 01-1-2.7 2.2 2.2 0 013.9 0L10 6.5c-1-1.3-2.7-2-4.5-2z" fill="#FBBC05"/>
    </g>
</svg>
