<?xml version="1.0" encoding="UTF-8"?>
<svg width="16px" height="12px" viewBox="0 0 16 12" version="1.1" xmlns="http://www.w3.org/2000/svg" xmlns:xlink="http://www.w3.org/1999/xlink">
    <title>7123014_cloud_google_icon</title>
    <g id="symbols" stroke="none" stroke-width="1" fill="none" fill-rule="evenodd">
        <g id="Icons/Logos/Google-Cloud" transform="translate(0.000000, -2.000000)" fill-rule="nonzero">
            <g id="7123014_cloud_google_icon" transform="translate(0.000000, 2.000000)">
                <path d="M10.1557473,3.3066962 L10.6368035,3.3066962 L12.0265213,2.00779514 L12.0977889,1.45826007 C9.51433914,-0.673269869 5.5589885,-0.440133781 3.27842598,1.97448998 C2.63701777,2.64059309 2.1915954,3.43991682 1.92434198,4.30585086 C2.08469403,4.23924055 2.24504608,4.23924055 2.40539814,4.2725457 L5.18483372,3.83957868 C5.18483372,3.83957868 5.32736887,3.62309517 5.39863645,3.63974775 C6.64581908,2.37415185 8.73039577,2.22427865 10.1557473,3.3066962 L10.1557473,3.3066962 Z" id="Path" fill="#EA4335"></path>
                <path d="M14.0220135,4.30585086 C13.7013094,3.20678073 13.0420843,2.22427865 12.1334227,1.45826007 L10.1735642,3.29004362 C10.9931414,3.92284157 11.4741976,4.8720385 11.4385638,5.85454058 L11.4385638,6.17093956 C12.4006761,6.17093956 13.1668026,6.90365298 13.1668026,7.78623959 C13.1668026,8.66882621 12.3828592,9.40153963 11.4385638,9.40153963 L7.98208619,9.40153963 L7.64356519,9.73459118 L7.64356519,11.6829428 L7.98208619,11.9993417 L11.4563807,11.9993417 C13.9507459,12.0159943 15.9818719,10.134253 15.9996888,7.80289217 C16.0175057,6.42072822 15.2691961,5.10517459 14.0220135,4.30585086 Z" id="Path" fill="#4285F4"></path>
                <path d="M4.48997482,11.9993417 L7.96426929,11.9993417 L7.96426929,9.40153963 L4.48997482,9.40153963 C4.24053829,9.40153963 3.99110177,9.3515819 3.77729903,9.25166643 L3.29624287,9.40153963 L1.88870819,10.7004407 L1.76398993,11.1500603 C2.54793329,11.7162479 3.51004561,12.0159943 4.48997482,11.9993417 Z" id="Path" fill="#34A853"></path>
                <path d="M4.48997482,3.57313744 C1.99560956,3.58979002 -0.0176995472,5.48818387 0.000117347524,7.81954475 C0.000117347524,9.11844581 0.659342453,10.3507366 1.76398993,11.1334077 L3.77729903,9.25166643 C2.90427119,8.88530972 2.51229951,7.91946022 2.90427119,7.10348391 C3.29624287,6.2875076 4.32962277,5.92115089 5.20265061,6.2875076 C5.59462229,6.45403338 5.8975095,6.7371272 6.07567845,7.10348391 L8.08898756,5.22174263 C7.23377661,4.18928281 5.8975095,3.57313744 4.48997482,3.57313744 Z" id="Path" fill="#FBBC05"></path>
            </g>
        </g>
    </g>
</svg>