<?xml version="1.0" encoding="UTF-8"?>
<svg width="16px" height="16px" viewBox="0 0 16 16" version="1.1" xmlns="http://www.w3.org/2000/svg" xmlns:xlink="http://www.w3.org/1999/xlink">
    <title>Microsoft_Azure</title>
    <defs>
        <linearGradient x1="57.9656757%" y1="7.4114724%" x2="38.6269352%" y2="103.76182%" id="linearGradient-1">
            <stop stop-color="#114A8B" offset="0%"></stop>
            <stop stop-color="#0669BC" offset="100%"></stop>
        </linearGradient>
        <linearGradient x1="58.6290034%" y1="52.3127289%" x2="52.3896242%" y2="54.8636556%" id="linearGradient-2">
            <stop stop-color="#000000" stop-opacity="0.3" offset="0%"></stop>
            <stop stop-color="#000000" stop-opacity="0.2" offset="7.1%"></stop>
            <stop stop-color="#000000" stop-opacity="0.1" offset="32.1%"></stop>
            <stop stop-color="#000000" stop-opacity="0.05" offset="62.3%"></stop>
            <stop stop-color="#000000" stop-opacity="0" offset="100%"></stop>
        </linearGradient>
        <linearGradient x1="38.7054404%" y1="4.60005789%" x2="61.0746629%" y2="99.9794963%" id="linearGradient-3">
            <stop stop-color="#3CCBF4" offset="0%"></stop>
            <stop stop-color="#2892DF" offset="100%"></stop>
        </linearGradient>
    </defs>
    <g id="symbols" stroke="none" stroke-width="1" fill="none" fill-rule="evenodd">
        <g id="Icons/Logos/Azure" fill-rule="nonzero">
            <g id="Microsoft_Azure">
                <path d="M5.33395335,0.000192973358 L10.0684954,0.000192973358 L5.15357599,15.4548503 C5.04999691,15.7804797 4.76227131,15.999807 4.43843067,15.999807 L0.753786713,15.999807 C0.511019817,15.999807 0.283102166,15.8757628 0.141499347,15.666489 C-0.000103471335,15.4572153 -0.0380528565,15.1883666 0.039550556,14.9442428 L4.6186262,0.545149735 C4.72216401,0.219376839 5.00999781,0 5.33395335,0 L5.33395335,0.000192973358 Z" id="Path" fill="url(#linearGradient-1)"></path>
                <path d="M12.2139313,10.3661426 L4.7060874,10.3661426 C4.5632452,10.3659752 4.43485815,10.4585964 4.38245239,10.5996201 C4.33004663,10.7406439 4.36429966,10.9013371 4.46879662,11.0046917 L9.29316365,15.7834839 C9.43362486,15.9225384 9.61857111,15.999807 9.81065757,15.999807 L14.0618901,15.999807 L12.2139313,10.3661426 Z" id="Path" fill="#0078D4"></path>
                <path d="M5.33395335,0.000187067113 C5.00613889,-0.00114209958 4.71561894,0.223979855 4.61698971,0.55576327 L0.0451873485,14.9311206 C-0.0376647304,15.176212 -0.00277226632,15.4487766 0.138690428,15.6615255 C0.280153123,15.8742744 0.510434471,16.0005106 0.755786865,15.99981 L4.53552897,15.99981 C4.82212744,15.9454625 5.05900642,15.7316677 5.15557614,15.4401843 L6.06728187,12.588617 L9.32389326,15.8122369 C9.46036339,15.9320348 9.63155799,15.9982752 9.80865742,15.99981 L14.0440706,15.99981 L12.1864747,10.3661428 L6.77133543,10.3674936 L10.0855876,0.000187067113 L5.33395335,0.000187067113 Z" id="Path" fill="url(#linearGradient-2)"></path>
                <path d="M11.3811407,0.544377842 C11.277749,0.219129719 10.9903448,0.000192973358 10.6669045,0.000192973358 L5.39032127,0.000192973358 C5.71374353,0.000192973358 6.00111847,0.219166854 6.10455743,0.544377842 L10.6838149,14.9440498 C10.7614769,15.1882182 10.7235622,15.4571388 10.5819594,15.666489 C10.4403566,15.8758393 10.2124042,16 9.96957875,16 L15.2463438,16 C15.4891372,16 15.7170354,15.8757514 15.8585957,15.6664107 C16.000156,15.4570699 16.0380499,15.188186 15.9603982,14.9440498 L11.3811407,0.544377842 Z" id="Path" fill="url(#linearGradient-3)"></path>
            </g>
        </g>
    </g>
</svg>