<svg width="20" height="20" xmlns="http://www.w3.org/2000/svg">
    <defs>
        <linearGradient x1="58%" y1="7.4%" x2="38.6%" y2="103.8%" id="cloud_azure_icon_svg__a">
            <stop stop-color="#114A8B" offset="0%"/>
            <stop stop-color="#0669BC" offset="100%"/>
        </linearGradient>
        <linearGradient x1="58.6%" y1="52.3%" x2="52.4%" y2="54.9%" id="cloud_azure_icon_svg__b">
            <stop stop-opacity=".3" offset="0%"/>
            <stop stop-opacity=".2" offset="7.1%"/>
            <stop stop-opacity=".1" offset="32.1%"/>
            <stop stop-opacity=".1" offset="62.3%"/>
            <stop stop-opacity="0" offset="100%"/>
        </linearGradient>
        <linearGradient x1="38.7%" y1="4.6%" x2="61.1%" y2="100%" id="cloud_azure_icon_svg__c">
            <stop stop-color="#3CCBF4" offset="0%"/>
            <stop stop-color="#2892DF" offset="100%"/>
        </linearGradient>
    </defs>
    <g fill="none">
        <path d="M6.7 0h5.9L6.4 19.3a1 1 0 01-.9.7H1a1 1 0 01-.7-.4 1 1 0 01-.2-1L5.8.7c.1-.3.5-.6.9-.6z" fill="url(#cloud_azure_icon_svg__a)"/>
        <path d="M15.3 13H5.9c-.2 0-.4 0-.4.2v.6l6.1 6 .7.2h5.3l-2.3-7z" fill="#0078D4"/>
        <path d="M6.7 0a1 1 0 00-1 .7l-5.6 18v.9c.3.2.5.4.8.4h4.8c.3 0 .6-.3.7-.7l1.2-3.6 4 4c.2.2.4.3.7.3h5.3l-2.4-7H8.5l4.1-13h-6z" fill="url(#cloud_azure_icon_svg__b)"/>
        <path d="M14.2.7a1 1 0 00-.9-.7H6.7c.4 0 .8.3 1 .7l5.7 18c0 .3 0 .6-.2.9a1 1 0 01-.7.4H19c.3 0 .5-.2.7-.4.2-.3.2-.6.2-1L14.2.7z" fill="url(#cloud_azure_icon_svg__c)"/>
    </g>
</svg>
