<svg xmlns="http://www.w3.org/2000/svg" viewBox="0 0 45.3 45.5">
    <path d="M19.2 14.3H6.7c-.4 0-.6-.3-.6-.6V5.4c0-.4.3-.6.6-.6h12.5c.4 0 .6.3.6.6v8.3c0 .3-.3.6-.6.6z" fill-rule="evenodd" clip-rule="evenodd" fill="#1b75bc"/>
    <path d="M31.7 18.3c3.1 0 5.8 1.6 7.3 4v-4.2c0-.5-.4-1-1-1H7a1 1 0 00-1 1v7.6c0 .5.4 1 1 1h15.9a8.9 8.9 0 018.8-8.4zm-8.4 11.1H7c-.5 0-.9.4-.9.9v7.8c0 .5.4.9.9.9h23.5c.5 0 .9-.4.9-.9v-2.3a8.7 8.7 0 01-8.1-6.4z" fill="#1b75bc"/>
    <path d="M42.7 36.2l-5.3-5.3A7 7 0 1024.8 27a7 7 0 0010.3 6l5.4 5.4a1 1 0 001.5 0l.7-.7c.4-.4.4-1 0-1.5z" fill="#6eac43"/>
    <path d="M43.2 42.1H3.4V2C3.4 1.2 2.8.6 2 .6 1.3.6.6 1.2.6 2v41.6c0 .8.6 1.4 1.4 1.4h41.2c.8 0 1.4-.6 1.4-1.4.1-.9-.6-1.5-1.4-1.5z" fill="#1d2f47"/>
</svg>
