<svg viewBox="0 0 347 75" xmlns="http://www.w3.org/2000/svg" fill-rule="evenodd" clip-rule="evenodd" stroke-linejoin="round" stroke-miterlimit="2">
    <path d="M50 25.1H3c-.6 0-1.1-.5-1.1-1V11.8c0-.6.5-1 1.1-1h47c.6 0 1.1.4 1.1 1V24c0 .7-.4 1.3-1.1 1.3zM37.4 44H3.1c-.6 0-1.2-.5-1.2-1.1v-12c0-.6.5-1.3 1.2-1.3h34.3c.6 0 1.2.5 1.2 1.3v12c0 .6-.5 1.1-1.2 1.1z" fill="#58595b" fill-rule="nonzero"/>
    <path d="M74.6 65.4h-47c-.6 0-1.2-.5-1.2-1.2v-12c0-.6.5-1.2 1.2-1.2h46.9c.6 0 1.2.5 1.2 1.2v12c0 .7-.5 1.2-1.1 1.2z" fill="url(#galaxy-logo_svg__galaxy-logo_svg__galaxy-logo_svg__galaxy-logo_svg__galaxy-logo_svg__galaxy-logo_svg___Linear1)" fill-rule="nonzero" transform="translate(-7.7 -2.8)"/>
    <path d="M131.5 55.5c-2.5.9-5.7 1.9-9.7 2.8-4.1.9-8.1 1.4-12.1 1.4-9.3 0-16.6-2.6-21.9-7.7a27.7 27.7 0 01-7.9-21c0-8.4 2.7-15.4 8-20.6a30.6 30.6 0 0122.3-7.8 41.3 41.3 0 0121.2 4.9v12.9h-1.6l-3-2.3a26 26 0 00-8.8-4.4 20.6 20.6 0 00-12.9.2 15.7 15.7 0 00-9.2 9c-.9 2.4-1.3 5-1.3 7.9 0 6 1.6 10.7 4.8 13.8 3.2 3.3 8 4.9 14.3 4.9h1.8l1.8-.1V38.5h-10.9V28.3h25.3l-.2 27.2zm33.5-1.2l-2.7 1.9a14 14 0 01-3 1.8 19.6 19.6 0 01-8.7 1.6 14 14 0 01-9.9-3.6 12 12 0 01-4-9.4c0-3 .7-5.5 2-7.4 1.3-1.9 3.3-3.4 5.7-4.5 2.4-1 5.5-1.9 9.1-2.4 3.6-.4 7.4-.8 11.3-1v-.2c0-2.3-.9-3.9-2.8-4.7-1.9-.8-4.6-1.3-8.2-1.3-2.2 0-4.5.4-7 1.3l-5.3 1.8h-1.2v-10a67.4 67.4 0 0116.4-2.1c7.5 0 13 1.1 16.3 3.4 3.3 2.4 5 6 5 11v28h-13.1l.1-4.3zm0-6.5v-8.5a67.4 67.4 0 00-10.5 1.5c-1.3.4-2.3 1-3 1.8-.7.8-1 1.9-1 3l.2 2.1c.1.6.5 1 1.1 1.6.6.6 1.2 1 2 1.2.8.1 2 .3 3.7.3 1.3 0 2.7-.3 4.1-.8 1.2-.6 2.4-1.4 3.4-2.3zm22-46.5h13.3v57.3H187zm47.4 53l-2.7 1.9a14 14 0 01-3 1.8 19.6 19.6 0 01-8.7 1.6 14 14 0 01-9.9-3.6 12 12 0 01-4-9.4c0-3 .7-5.5 2-7.4 1.3-1.9 3.3-3.4 5.7-4.5 2.5-1 5.5-1.9 9.1-2.4 3.6-.4 7.4-.8 11.3-1v-.2c0-2.3-.9-3.9-2.8-4.7-1.9-.8-4.6-1.3-8.2-1.3-2.2 0-4.5.4-7 1.3l-5.3 1.8h-1.2v-10a67.4 67.4 0 0116.4-2.1c7.5 0 13 1.1 16.3 3.4 3.4 2.4 5 6 5 11v28h-13.1l.1-4.3zm0-6.5v-8.5a67.4 67.4 0 00-10.5 1.5c-1.3.4-2.3 1-3 1.8-.7.8-1 1.9-1 3l.2 2.1c.1.6.5 1 1.1 1.6.6.6 1.2 1 2 1.2.8.1 2 .3 3.7.3 1.3 0 2.7-.3 4.1-.8 1.2-.6 2.4-1.4 3.4-2.3zm65.2 10.7h-15.5l-8.8-12.3-9.1 12.4H251L267.3 38l-16-20.8h15.5l8.7 12.3 8.7-12.3h15.2l-16.1 20.4 16.3 21z" fill="#58595b" fill-rule="nonzero"/>
    <path d="M322.1 44l9.4-26.8h13.6l-23 56.5h-14.4l6.6-15.5-16-41h13.9l9.9 26.8z" fill="#58595b" fill-rule="nonzero"/>
    <defs>
        <linearGradient id="galaxy-logo_svg__galaxy-logo_svg__galaxy-logo_svg__galaxy-logo_svg__galaxy-logo_svg__galaxy-logo_svg___Linear1" x1="0" y1="0" x2="1" y2="0" gradientUnits="userSpaceOnUse" gradientTransform="translate(26.5 58.2) scale(49.2633)">
            <stop offset="0" stop-color="#d0bd2b"/>
            <stop offset=".2" stop-color="#d0bd2b"/>
            <stop offset="1" stop-color="#d0bd2b" stop-opacity="0"/>
        </linearGradient>
    </defs>
</svg>
