<?xml version="1.0" encoding="UTF-8" standalone="no"?>
<!DOCTYPE svg PUBLIC "-//W3C//DTD SVG 1.1//EN" "http://www.w3.org/Graphics/SVG/1.1/DTD/svg11.dtd">
<svg width="100%" height="100%" viewBox="0 0 347 75" version="1.1" xmlns="http://www.w3.org/2000/svg" xmlnsXlink="http://www.w3.org/1999/xlink" xmlSpace="preserve" xmlnsSerif="http://www.serif.com/" style="fill-rule:evenodd;clip-rule:evenodd;stroke-linejoin:round;stroke-miterlimit:2;">
    <g transform="matrix(1,0,0,1,-7.7,-2.75)">
        <path d="M57.7,27.9L10.7,27.9C10.1,27.9 9.6,27.4 9.6,26.8L9.6,14.6C9.6,14 10.1,13.5 10.7,13.5L57.7,13.5C58.3,13.5 58.8,14 58.8,14.6L58.8,26.7C58.8,27.3 58.4,27.9 57.7,27.9Z" style="fill:rgb(88,89,91);fill-rule:nonzero;"/>
    </g>
    <g transform="matrix(1,0,0,1,-7.7,-2.75)">
        <path d="M45.1,46.8L10.8,46.8C10.2,46.8 9.6,46.3 9.6,45.6L9.6,33.6C9.6,33 10.1,32.4 10.8,32.4L45.1,32.4C45.7,32.4 46.3,32.9 46.3,33.6L46.3,45.6C46.3,46.3 45.8,46.8 45.1,46.8Z" style="fill:rgb(88,89,91);fill-rule:nonzero;"/>
    </g>
    <g transform="matrix(1,0,0,1,-7.7,-2.75)">
        <path d="M74.6,65.4L27.6,65.4C27,65.4 26.4,64.9 26.4,64.2L26.4,52.2C26.4,51.6 26.9,51 27.6,51L74.5,51C75.1,51 75.7,51.5 75.7,52.2L75.7,64.2C75.7,64.9 75.2,65.4 74.6,65.4Z" style="fill:url(#_Linear1);fill-rule:nonzero;"/>
    </g>
    <g transform="matrix(1,0,0,1,-7.7,-20.8)">
        <g transform="matrix(1,0,0,1,0,18.05)">
            <path d="M139.2,58.2C136.7,59.1 133.5,60.1 129.5,61C125.4,61.9 121.4,62.4 117.4,62.4C108.1,62.4 100.8,59.9 95.5,54.8C90.2,49.7 87.6,42.7 87.6,33.8C87.6,25.3 90.3,18.4 95.6,13.2C100.9,8 108.4,5.4 117.9,5.4C121.5,5.4 124.9,5.7 128.2,6.4C131.5,7 135.1,8.3 139.1,10.3L139.1,23.1L137.5,23.1C136.8,22.6 135.8,21.9 134.5,20.9C133.2,19.9 131.9,19.1 130.7,18.5C129.3,17.7 127.6,17 125.7,16.5C123.8,15.9 121.8,15.6 119.6,15.6C117.1,15.6 114.8,16 112.8,16.7C110.8,17.4 108.9,18.6 107.3,20.1C105.7,21.6 104.5,23.5 103.6,25.7C102.7,28 102.3,30.6 102.3,33.5C102.3,39.6 103.9,44.2 107.1,47.4C110.3,50.6 115.1,52.2 121.4,52.2L123.2,52.2C123.8,52.2 124.4,52.2 125,52.1L125,41.4L114.1,41.4L114.1,31.1L139.4,31.1L139.2,58.2Z" style="fill:rgb(88,89,91);fill-rule:nonzero;"/>
        </g>
        <g transform="matrix(1,0,0,1,0,18.05)">
            <path d="M172.7,57C172,57.6 171.1,58.2 170,58.9C169,59.7 167.9,60.3 167,60.7C165.7,61.3 164.3,61.7 162.9,62C161.5,62.3 160,62.4 158.3,62.4C154.4,62.4 151.1,61.2 148.4,58.7C145.7,56.3 144.4,53.2 144.4,49.4C144.4,46.4 145.1,43.9 146.4,42C147.7,40.1 149.7,38.6 152.1,37.5C154.5,36.4 157.6,35.6 161.2,35.1C164.8,34.6 168.6,34.3 172.5,34.1L172.5,33.9C172.5,31.6 171.6,30 169.7,29.2C167.8,28.3 165.1,27.9 161.5,27.9C159.3,27.9 157,28.3 154.5,29.1C152,29.9 150.2,30.5 149.2,30.9L148,30.9L148,20.9C149.4,20.5 151.7,20.1 154.9,19.6C158,19.1 161.2,18.8 164.4,18.8C171.9,18.8 177.4,20 180.7,22.3C184,24.6 185.7,28.2 185.7,33.2L185.7,61.3L172.6,61.3L172.7,57ZM172.7,50.5L172.7,42C170.9,42.1 169,42.3 166.9,42.6C164.8,42.9 163.2,43.2 162.2,43.5C160.9,43.9 159.9,44.5 159.2,45.3C158.5,46.1 158.2,47.2 158.2,48.4C158.2,49.3 158.3,50 158.4,50.5C158.5,51.1 158.9,51.5 159.5,52.1C160.1,52.6 160.7,53 161.5,53.2C162.3,53.4 163.5,53.5 165.2,53.5C166.5,53.5 167.9,53.2 169.3,52.7C170.5,52.1 171.7,51.4 172.7,50.5Z" style="fill:rgb(88,89,91);fill-rule:nonzero;"/>
        </g>
        <g transform="matrix(1,0,0,1,0,18.05)">
            <rect x="194.7" y="4" width="13.3" height="57.3" style="fill:rgb(88,89,91);fill-rule:nonzero;"/>
        </g>
        <g transform="matrix(1,0,0,1,0,18.05)">
            <path d="M242.1,57C241.4,57.6 240.5,58.2 239.4,58.9C238.4,59.7 237.3,60.3 236.4,60.7C235.1,61.3 233.7,61.7 232.3,62C230.9,62.3 229.4,62.4 227.7,62.4C223.8,62.4 220.5,61.2 217.8,58.7C215.1,56.3 213.8,53.2 213.8,49.4C213.8,46.4 214.5,43.9 215.8,42C217.1,40.1 219.1,38.6 221.5,37.5C224,36.4 227,35.6 230.6,35.1C234.2,34.6 238,34.3 241.9,34.1L241.9,33.9C241.9,31.6 241,30 239.1,29.2C237.2,28.3 234.5,27.9 230.9,27.9C228.7,27.9 226.4,28.3 223.9,29.1C221.4,29.9 219.6,30.5 218.6,30.9L217.4,30.9L217.4,20.9C218.8,20.5 221.1,20.1 224.3,19.6C227.4,19.1 230.6,18.8 233.8,18.8C241.3,18.8 246.8,20 250.1,22.3C253.5,24.6 255.1,28.2 255.1,33.2L255.1,61.3L242,61.3L242.1,57ZM242.1,50.5L242.1,42C240.3,42.1 238.4,42.3 236.3,42.6C234.2,42.9 232.6,43.2 231.6,43.5C230.3,43.9 229.3,44.5 228.6,45.3C227.9,46.1 227.6,47.2 227.6,48.4C227.6,49.3 227.7,50 227.8,50.5C227.9,51.1 228.3,51.5 228.9,52.1C229.5,52.6 230.1,53 230.9,53.2C231.7,53.4 232.9,53.5 234.6,53.5C235.9,53.5 237.3,53.2 238.7,52.7C239.9,52.1 241.1,51.4 242.1,50.5Z" style="fill:rgb(88,89,91);fill-rule:nonzero;"/>
        </g>
        <g transform="matrix(1,0,0,1,0,18.05)">
            <path d="M307.3,61.3L291.8,61.3L283,49L273.9,61.4L258.7,61.4L275,40.7L259,20L274.5,20L283.2,32.2L291.9,20L307.1,20L291,40.4L307.3,61.3Z" style="fill:rgb(88,89,91);fill-rule:nonzero;"/>
        </g>
        <g transform="matrix(1,0,0,1,0,18.05)">
            <path d="M329.8,46.7L339.2,20L352.8,20L329.8,76.5L315.4,76.5L322,61L306,20L319.9,20L329.8,46.7Z" style="fill:rgb(88,89,91);fill-rule:nonzero;"/>
        </g>
    </g>
    <defs>
        <linearGradient id="_Linear1" x1="0" y1="0" x2="1" y2="0" gradientUnits="userSpaceOnUse" gradientTransform="matrix(49.2633,0,0,49.2633,26.4634,58.214)"><stop offset="0" style="stop-color:rgb(208,189,43);stop-opacity:1"/><stop offset="0.17" style="stop-color:rgb(208,189,43);stop-opacity:1"/><stop offset="1" style="stop-color:rgb(208,189,43);stop-opacity:0"/></linearGradient>
    </defs>
</svg>
