<svg xmlns="http://www.w3.org/2000/svg" viewBox="0 0 8986.8 1407.9">
    <path d="M1057.1 369.2h50.8l144.8-144.8 7.1-61.5A650.9 650.9 0 00201 480.5c16.1-6.6 34-7.7 50.8-3l289.6-47.8s14.7-24.4 22.4-22.9a361.2 361.2 0 01494.4-37.6z" fill="#ea4335"/>
    <path d="M1459 480.5a651.8 651.8 0 00-196.6-317l-203.2 203.2a361.3 361.3 0 01132.6 286.6v36.1a181 181 0 010 361.8H830l-36 36.6v217l36 36.1h361.8A470.5 470.5 0 001459 480.5z" fill="#4285f4"/>
    <path d="M467.7 1338.6h361.8V1049H467.7c-25.8 0-51.2-5.6-74.7-16.3l-50.8 15.8-145.8 144.8-12.7 50.8a467 467 0 00284 94.5z" fill="#34a853"/>
    <path d="M467.7 399.2a470.4 470.4 0 00-284 843.4l209.8-209.8a181 181 0 11239.3-239.3l209.8-209.8a469.4 469.4 0 00-374.9-184.5z" fill="#fbbc05"/>
    <path d="M2629.1 1136.4a462.6 462.6 0 01-335.3-137.7 446.7 446.7 0 01-140.7-331.3 447.6 447.6 0 01140.7-331.3 462.6 462.6 0 01335.3-140.2 449.1 449.1 0 01321.6 129.6l-90.4 92a326 326 0 00-231.2-91.5 322.4 322.4 0 00-238.8 101.6 332.2 332.2 0 00-98 241.3 331.5 331.5 0 0098 238.3 341 341 0 00475.6 5.6 270 270 0 0069.6-158h-304.9v-130H3062c4.2 26.2 6 52.7 5.1 79.3a406.7 406.7 0 01-111.3 299.8 432.8 432.8 0 01-326.7 132.5zm1003-86.4a311 311 0 01-430.4 0 289.6 289.6 0 01-87.9-215.9 290 290 0 0188-215.9c120.3-115 310-115 430.3 0a290 290 0 0188 215.9c2 81.2-30 159.5-88.5 215.9zm-335.4-84.8a164.6 164.6 0 00232.7 7.6c2.6-2.5 5.2-5 7.6-7.6a181.1 181.1 0 0050.8-131.1 181.5 181.5 0 00-50.8-131.6 167.3 167.3 0 00-241.4 0 181.5 181.5 0 00-50.8 131.6 181 181 0 0051.3 131.1zm997 84.8a311 311 0 01-430.5 0 289.6 289.6 0 01-87.9-215.9 290 290 0 0188-215.9 311 311 0 01430.3 0 290 290 0 0188 215.9 289.2 289.2 0 01-88 215.9zm-335.4-84.8a164.6 164.6 0 00232.7 7.6c2.6-2.5 5.2-5 7.6-7.6a181.1 181.1 0 0050.8-131.1 181.5 181.5 0 00-50.8-131.6 167.1 167.1 0 00-241.3 0 181.5 181.5 0 00-50.8 131.6 181 181 0 0051.3 131.1zm770.2 442.5a266.5 266.5 0 01-169.2-53.9 311.9 311.9 0 01-98.6-125l115.8-48.3a194.6 194.6 0 0057.4 75.7c26.8 21.6 60.5 33 95 32 44.2 2.7 87.4-14 118.4-45.7a185.8 185.8 0 0042.2-132.1v-43.7h-4.6a193.9 193.9 0 01-159 68.6 275.9 275.9 0 01-203.2-88.4 292.5 292.5 0 01-86.9-212.9 295.4 295.4 0 0187-214.4 275.3 275.3 0 01203.1-88.9c32.3-.1 64.3 7.1 93.5 20.8 25.3 11 47.8 27.5 66.1 48.3h4.6v-48.3h126v541.1c6.7 86.5-22.5 172-80.8 236.3a284.5 284.5 0 01-206.8 78.8zm9.2-390.2c44 1 86-17.7 114.8-50.8a187.9 187.9 0 0046.2-130.1 191.9 191.9 0 00-46.2-132.6 147.5 147.5 0 00-114.8-50.8 157.2 157.2 0 00-118.9 50.8 185.5 185.5 0 00-50.8 131.6 182 182 0 0050.8 130.1 157.5 157.5 0 00119 51.8zM5240.2 230v888.1h-132.6V230zm363.8 906.4a288.3 288.3 0 01-213.9-86.9c-56.9-57-88-134.9-85.9-215.4a298.3 298.3 0 0182.8-217.5 273 273 0 01203.2-84.9 256.6 256.6 0 01179.3 70.6 352.9 352.9 0 0150.8 61.5 371.6 371.6 0 0130 59.4l13.7 34.6L5457.6 925a152.5 152.5 0 00146.3 91.5c61 .2 117.4-31.7 149-83.8l101.5 68.6a333.7 333.7 0 01-97.6 92.5 276.7 276.7 0 01-152.8 42.6zm-169.7-311.5l270.3-112.3a93 93 0 00-42.2-46.2 137.7 137.7 0 00-69.6-17.8 156.9 156.9 0 00-109.2 48.3 160.9 160.9 0 00-49.3 128zm1124.4 311.5A418.6 418.6 0 016133 708.1a418.7 418.7 0 01408.8-428.3l17-.1A379.3 379.3 0 016860 413.8l-73.2 71.1a276.3 276.3 0 00-227.6-104.2 310.8 310.8 0 00-226 90.4 317.5 317.5 0 00-92 236.8 317.2 317.2 0 0092 236.8 310.4 310.4 0 00226 90.4 323 323 0 00254-118.9l73.2 73.2a400 400 0 01-140.7 107.2 428.3 428.3 0 01-187 39.8zm524.3-18.3h-105.2V297.5H7083zm171.8-493.9a294.2 294.2 0 01414.6 0 297.4 297.4 0 0181.3 213.4 297.4 297.4 0 01-81.3 213.4 294.2 294.2 0 01-414.6 0 297.4 297.4 0 01-81.3-213.4 297 297 0 0181.3-213.4zM7333 985a177.4 177.4 0 00257.6 0 203.5 203.5 0 0054.4-147.3 202.6 202.6 0 00-54.4-147.3 177.4 177.4 0 00-257.6 0 203.5 203.5 0 00-54.4 147.3 203 203 0 0055 146.8zm1000.4 133.1h-101.6v-77.7h-3a196 196 0 01-74.2 70.1 207 207 0 01-104.2 27.9 197.7 197.7 0 01-159.5-64 254.4 254.4 0 01-54.4-171.7V557.2h105.2v326.2c0 104.7 46.2 157 138.7 157a129 129 0 00106.7-50.8 191.4 191.4 0 0041.2-121.4v-311h105.2v560.9zm357.2 18.3a246.9 246.9 0 01-188-85.9 305 305 0 01-78.8-212.9 305 305 0 0178.8-212.9 247.2 247.2 0 01188-85.9c40-.6 79.5 8.8 114.8 27.4a193.8 193.8 0 0176.2 68.6h4.6l-4.6-77.7V297.5h105.2v820.6h-101.6v-77.7h-4.6a193.8 193.8 0 01-76.2 68.6 238.2 238.2 0 01-113.8 27.4zm17.3-96c48.1.7 94.2-19.3 126.5-54.9 35.7-40.7 54-93.8 50.8-147.9a206 206 0 00-50.8-147.9 171.6 171.6 0 00-254 0 203.4 203.4 0 00-50.8 147.3 203.4 203.4 0 0050.8 147.3 167.4 167.4 0 00127.5 56.1z" fill="#5f6368"/>
</svg>
