<svg xmlns="http://www.w3.org/2000/svg" id="Layer_1" viewBox="0 0 419 66">
	<style>
		.st1{fill-rule:evenodd;clip-rule:evenodd;fill:#74ae43;stroke:#b3d398;stroke-width:.8}
	</style>
	<g id="Symbols" opacity=".28">
		<g id="Header-3" transform="translate(-861)">
			<g id="Group-2">
				<g id="Group">
					<g transform="rotate(180 701.5 58)">
						<path id="Fill-1" d="M120.8 47.8v8.4c0 1 .6 1.9 1.5 2.4l7.5 4.2c.9.5 2 .5 2.9 0l7.5-4.2c.9-.5 1.5-1.4 1.5-2.4v-8.4c0-1-.6-1.9-1.5-2.4l-7.5-4.2a3 3 0 0 0-2.9 0l-7.5 4.2c-.9.5-1.5 1.4-1.5 2.4" class="st1"/>
						<path d="M132.8 67.8v8.4c0 1 .6 1.9 1.5 2.4l7.5 4.2c.9.5 2 .5 2.9 0l7.5-4.2c.9-.5 1.5-1.4 1.5-2.4v-8.4c0-1-.6-1.9-1.5-2.4l-7.5-4.2a3 3 0 0 0-2.9 0l-7.5 4.2c-.9.5-1.5 1.4-1.5 2.4M156.9 67.8v8.4c0 1 .6 1.9 1.5 2.4l7.5 4.2c.9.5 2 .5 2.9 0l7.5-4.2c.9-.5 1.5-1.4 1.5-2.4v-8.4c0-1-.6-1.9-1.5-2.4l-7.5-4.2a3 3 0 0 0-2.9 0l-7.5 4.2c-1 .5-1.5 1.4-1.5 2.4M120.8 87.8v8.4c0 1 .6 1.9 1.5 2.4l7.5 4.2c.9.5 2 .5 2.9 0l7.5-4.2c.9-.5 1.5-1.4 1.5-2.4v-8.4c0-1-.6-1.9-1.5-2.4l-7.5-4.2a3 3 0 0 0-2.9 0l-7.5 4.2c-.9.5-1.5 1.4-1.5 2.4M108 108.6v8.4c0 1 .6 1.9 1.5 2.4l7.5 4.2c.9.5 2 .5 2.9 0l7.5-4.2c.9-.5 1.5-1.4 1.5-2.4v-8.4c0-1-.6-1.9-1.5-2.4l-7.5-4.2a3 3 0 0 0-2.9 0l-7.5 4.2c-.9.5-1.5 1.4-1.5 2.4M132.8 107.8v8.4c0 1 .6 1.9 1.5 2.4l7.5 4.2c.9.5 2 .5 2.9 0l7.5-4.2c.9-.5 1.5-1.4 1.5-2.4v-8.4c0-1-.6-1.9-1.5-2.4l-7.5-4.2a3 3 0 0 0-2.9 0l-7.5 4.2c-.9.5-1.5 1.4-1.5 2.4M156.9 107.8v8.4c0 1 .6 1.9 1.5 2.4l7.5 4.2c.9.5 2 .5 2.9 0l7.5-4.2c.9-.5 1.5-1.4 1.5-2.4v-8.4c0-1-.6-1.9-1.5-2.4l-7.5-4.2a3 3 0 0 0-2.9 0l-7.5 4.2c-1 .5-1.5 1.4-1.5 2.4" class="st1"/>
					</g>
					<path d="M72 47.8v8.4c0 1 .6 1.9 1.5 2.4l7.5 4.2c.9.5 2 .5 2.9 0l7.5-4.2c.9-.5 1.5-1.4 1.5-2.4v-8.4c0-1-.6-1.9-1.5-2.4l-7.5-4.2a3 3 0 0 0-2.9 0l-7.5 4.2c-.9.5-1.5 1.4-1.5 2.4M96 47.8v8.4c0 1 .6 1.9 1.5 2.4l7.5 4.2c.9.5 2 .5 2.9 0l7.5-4.2c.9-.5 1.5-1.4 1.5-2.4v-8.4c0-1-.6-1.9-1.5-2.4l-7.5-4.2a3 3 0 0 0-2.9 0l-7.5 4.2c-.9.5-1.5 1.4-1.5 2.4M144.9 47.8v8.4c0 1 .6 1.9 1.5 2.4l7.5 4.2c.9.5 2 .5 2.9 0l7.5-4.2c.9-.5 1.5-1.4 1.5-2.4v-8.4c0-1-.6-1.9-1.5-2.4l-7.5-4.2a3 3 0 0 0-2.9 0l-7.5 4.2c-1 .5-1.5 1.4-1.5 2.4M120.8 47.8v8.4c0 1 .6 1.9 1.5 2.4l7.5 4.2c.9.5 2 .5 2.9 0l7.5-4.2c.9-.5 1.5-1.4 1.5-2.4v-8.4c0-1-.6-1.9-1.5-2.4l-7.5-4.2a3 3 0 0 0-2.9 0l-7.5 4.2c-.9.5-1.5 1.4-1.5 2.4M156.9 67.8v8.4c0 1 .6 1.9 1.5 2.4l7.5 4.2c.9.5 2 .5 2.9 0l7.5-4.2c.9-.5 1.5-1.4 1.5-2.4v-8.4c0-1-.6-1.9-1.5-2.4l-7.5-4.2a3 3 0 0 0-2.9 0l-7.5 4.2c-1 .5-1.5 1.4-1.5 2.4M48 47.8v8.4c0 1 .6 1.9 1.5 2.4l7.5 4.2c.9.5 2 .5 2.9 0l7.5-4.2c.9-.5 1.5-1.4 1.5-2.4v-8.4c0-1-.6-1.9-1.5-2.4l-7.5-4.2a3 3 0 0 0-2.9 0l-7.5 4.2c-.9.5-1.5 1.4-1.5 2.4M0 47.8v8.4c0 1 .6 1.9 1.5 2.4L9 62.8c.9.5 2 .5 2.9 0l7.5-4.2c.9-.5 1.5-1.4 1.5-2.4v-8.4c0-1-.6-1.9-1.5-2.4l-7.5-4.2a3 3 0 0 0-2.9 0l-7.5 4.2c-.9.5-1.5 1.4-1.5 2.4M12 67.8v8.4c0 1 .6 1.9 1.5 2.4l7.5 4.2c.9.5 2 .5 2.9 0l7.5-4.2c.9-.5 1.5-1.4 1.5-2.4v-8.4c0-1-.6-1.9-1.5-2.4l-7.5-4.2a3 3 0 0 0-2.9 0l-7.5 4.2c-.9.5-1.5 1.4-1.5 2.4M36 67.8v8.4c0 1 .6 1.9 1.5 2.4l7.5 4.2c.9.5 2 .5 2.9 0l7.5-4.2c.9-.5 1.5-1.4 1.5-2.4v-8.4c0-1-.6-1.9-1.5-2.4l-7.5-4.2a3 3 0 0 0-2.9 0l-7.5 4.2c-.9.5-1.5 1.4-1.5 2.4M72 87.8v8.4c0 1 .6 1.9 1.5 2.4l7.5 4.2c.9.5 2 .5 2.9 0l7.5-4.2c.9-.5 1.5-1.4 1.5-2.4v-8.4c0-1-.6-1.9-1.5-2.4l-7.5-4.2a3 3 0 0 0-2.9 0l-7.5 4.2c-.9.5-1.5 1.4-1.5 2.4M96 87.8v8.4c0 1 .6 1.9 1.5 2.4l7.5 4.2c.9.5 2 .5 2.9 0l7.5-4.2c.9-.5 1.5-1.4 1.5-2.4v-8.4c0-1-.6-1.9-1.5-2.4l-7.5-4.2a3 3 0 0 0-2.9 0l-7.5 4.2c-.9.5-1.5 1.4-1.5 2.4M84 67.8v8.4c0 1 .6 1.9 1.5 2.4l7.5 4.2c.9.5 2 .5 2.9 0l7.5-4.2c.9-.5 1.5-1.4 1.5-2.4v-8.4c0-1-.6-1.9-1.5-2.4l-7.5-4.2a3 3 0 0 0-2.9 0l-7.5 4.2c-.9.5-1.5 1.4-1.5 2.4M60 67.8v8.4c0 1 .6 1.9 1.5 2.4l7.5 4.2c.9.5 2 .5 2.9 0l7.5-4.2c.9-.5 1.5-1.4 1.5-2.4v-8.4c0-1-.6-1.9-1.5-2.4l-7.5-4.2a3 3 0 0 0-2.9 0l-7.5 4.2c-.9.5-1.5 1.4-1.5 2.4M168.9 87.8v8.4c0 1 .6 1.9 1.5 2.4l7.5 4.2c.9.5 2 .5 2.9 0l7.5-4.2c.9-.5 1.5-1.4 1.5-2.4v-8.4c0-1-.6-1.9-1.5-2.4l-7.5-4.2a3 3 0 0 0-2.9 0l-7.5 4.2c-1 .5-1.5 1.4-1.5 2.4M144.9 87.8v8.4c0 1 .6 1.9 1.5 2.4l7.5 4.2c.9.5 2 .5 2.9 0l7.5-4.2c.9-.5 1.5-1.4 1.5-2.4v-8.4c0-1-.6-1.9-1.5-2.4l-7.5-4.2a3 3 0 0 0-2.9 0l-7.5 4.2c-1 .5-1.5 1.4-1.5 2.4M120.8 87.8v8.4c0 1 .6 1.9 1.5 2.4l7.5 4.2c.9.5 2 .5 2.9 0l7.5-4.2c.9-.5 1.5-1.4 1.5-2.4v-8.4c0-1-.6-1.9-1.5-2.4l-7.5-4.2a3 3 0 0 0-2.9 0l-7.5 4.2c-.9.5-1.5 1.4-1.5 2.4M48 87.8v8.4c0 1 .6 1.9 1.5 2.4l7.5 4.2c.9.5 2 .5 2.9 0l7.5-4.2c.9-.5 1.5-1.4 1.5-2.4v-8.4c0-1-.6-1.9-1.5-2.4l-7.5-4.2a3 3 0 0 0-2.9 0l-7.5 4.2c-.9.5-1.5 1.4-1.5 2.4M24 87.8v8.4c0 1 .6 1.9 1.5 2.4l7.5 4.2c.9.5 2 .5 2.9 0l7.5-4.2c.9-.5 1.5-1.4 1.5-2.4v-8.4c0-1-.6-1.9-1.5-2.4l-7.5-4.2a3 3 0 0 0-2.9 0l-7.5 4.2c-.9.5-1.5 1.4-1.5 2.4M0 87.8v8.4c0 1 .6 1.9 1.5 2.4l7.5 4.2c.9.5 2 .5 2.9 0l7.5-4.2c.9-.5 1.5-1.4 1.5-2.4v-8.4c0-1-.6-1.9-1.5-2.4l-7.5-4.2a3 3 0 0 0-2.9 0l-7.5 4.2c-.9.5-1.5 1.4-1.5 2.4M84 27.8v8.4c0 1 .6 1.9 1.5 2.4l7.5 4.2c.9.5 2 .5 2.9 0l7.5-4.2c.9-.5 1.5-1.4 1.5-2.4v-8.4c0-1-.6-1.9-1.5-2.4l-7.5-4.2a3 3 0 0 0-2.9 0l-7.5 4.2c-.9.5-1.5 1.4-1.5 2.4M60 27.8v8.4c0 1 .6 1.9 1.5 2.4l7.5 4.2c.9.5 2 .5 2.9 0l7.5-4.2c.9-.5 1.5-1.4 1.5-2.4v-8.4c0-1-.6-1.9-1.5-2.4l-7.5-4.2a3 3 0 0 0-2.9 0l-7.5 4.2c-.9.5-1.5 1.4-1.5 2.4M132.8 27v8.4c0 1 .6 1.9 1.5 2.4l7.5 4.2c.9.5 2 .5 2.9 0l7.5-4.2c.9-.5 1.5-1.4 1.5-2.4V27c0-1-.6-1.9-1.5-2.4l-7.5-4.2a3 3 0 0 0-2.9 0l-7.5 4.2c-.9.5-1.5 1.4-1.5 2.4M156.9 27v8.4c0 1 .6 1.9 1.5 2.4l7.5 4.2c.9.5 2 .5 2.9 0l7.5-4.2c.9-.5 1.5-1.4 1.5-2.4V27c0-1-.6-1.9-1.5-2.4l-7.5-4.2a3 3 0 0 0-2.9 0l-7.5 4.2c-1 .5-1.5 1.4-1.5 2.4M12 27v8.4c0 1 .6 1.9 1.5 2.4L21 42c.9.5 2 .5 2.9 0l7.5-4.2c.9-.5 1.5-1.4 1.5-2.4V27c0-1-.6-1.9-1.5-2.4l-7.5-4.2a3 3 0 0 0-2.9 0l-7.5 4.2c-.9.5-1.5 1.4-1.5 2.4" class="st1" transform="rotate(180 610.67 48)"/>
					<g>
						<path d="M96 27.8v8.4c0 1 .6 1.9 1.5 2.4l7.5 4.2c.9.5 2 .5 2.9 0l7.5-4.2c.9-.5 1.5-1.4 1.5-2.4v-8.4c0-1-.6-1.9-1.5-2.4l-7.5-4.2a3 3 0 0 0-2.9 0l-7.5 4.2c-.9.5-1.5 1.4-1.5 2.4M132.8 47.8v8.4c0 1 .6 1.9 1.5 2.4l7.5 4.2c.9.5 2 .5 2.9 0l7.5-4.2c.9-.5 1.5-1.4 1.5-2.4v-8.4c0-1-.6-1.9-1.5-2.4l-7.5-4.2a3 3 0 0 0-2.9 0l-7.5 4.2c-.9.5-1.5 1.4-1.5 2.4M24 27.8v8.4c0 1 .6 1.9 1.5 2.4l7.5 4.2c.9.5 2 .5 2.9 0l7.5-4.2c.9-.5 1.5-1.4 1.5-2.4v-8.4c0-1-.6-1.9-1.5-2.4l-7.5-4.2a3 3 0 0 0-2.9 0l-7.5 4.2c-.9.5-1.5 1.4-1.5 2.4M0 27.8v8.4c0 1 .6 1.9 1.5 2.4L9 42.8c.9.5 2 .5 2.9 0l7.5-4.2c.9-.5 1.5-1.4 1.5-2.4v-8.4c0-1-.6-1.9-1.5-2.4l-7.5-4.2a3 3 0 0 0-2.9 0l-7.5 4.2c-.9.5-1.5 1.4-1.5 2.4M12 47.8v8.4c0 1 .6 1.9 1.5 2.4l7.5 4.2c.9.5 2 .5 2.9 0l7.5-4.2c.9-.5 1.5-1.4 1.5-2.4v-8.4c0-1-.6-1.9-1.5-2.4l-7.5-4.2a3 3 0 0 0-2.9 0l-7.5 4.2c-.9.5-1.5 1.4-1.5 2.4M36 47.8v8.4c0 1 .6 1.9 1.5 2.4l7.5 4.2c.9.5 2 .5 2.9 0l7.5-4.2c.9-.5 1.5-1.4 1.5-2.4v-8.4c0-1-.6-1.9-1.5-2.4l-7.5-4.2a3 3 0 0 0-2.9 0l-7.5 4.2c-.9.5-1.5 1.4-1.5 2.4M72 67.8v8.4c0 1 .6 1.9 1.5 2.4l7.5 4.2c.9.5 2 .5 2.9 0l7.5-4.2c.9-.5 1.5-1.4 1.5-2.4v-8.4c0-1-.6-1.9-1.5-2.4l-7.5-4.2a3 3 0 0 0-2.9 0l-7.5 4.2c-.9.5-1.5 1.4-1.5 2.4M96 67.8v8.4c0 1 .6 1.9 1.5 2.4l7.5 4.2c.9.5 2 .5 2.9 0l7.5-4.2c.9-.5 1.5-1.4 1.5-2.4v-8.4c0-1-.6-1.9-1.5-2.4l-7.5-4.2a3 3 0 0 0-2.9 0l-7.5 4.2c-.9.5-1.5 1.4-1.5 2.4M108 47.8v8.4c0 1 .6 1.9 1.5 2.4l7.5 4.2c.9.5 2 .5 2.9 0l7.5-4.2c.9-.5 1.5-1.4 1.5-2.4v-8.4c0-1-.6-1.9-1.5-2.4l-7.5-4.2a3 3 0 0 0-2.9 0l-7.5 4.2c-.9.5-1.5 1.4-1.5 2.4M84 47.8v8.4c0 1 .6 1.9 1.5 2.4l7.5 4.2c.9.5 2 .5 2.9 0l7.5-4.2c.9-.5 1.5-1.4 1.5-2.4v-8.4c0-1-.6-1.9-1.5-2.4l-7.5-4.2a3 3 0 0 0-2.9 0l-7.5 4.2c-.9.5-1.5 1.4-1.5 2.4M144.9 67.8v8.4c0 1 .6 1.9 1.5 2.4l7.5 4.2c.9.5 2 .5 2.9 0l7.5-4.2c.9-.5 1.5-1.4 1.5-2.4v-8.4c0-1-.6-1.9-1.5-2.4l-7.5-4.2a3 3 0 0 0-2.9 0l-7.5 4.2c-1 .5-1.5 1.4-1.5 2.4M120.8 67.8v8.4c0 1 .6 1.9 1.5 2.4l7.5 4.2c.9.5 2 .5 2.9 0l7.5-4.2c.9-.5 1.5-1.4 1.5-2.4v-8.4c0-1-.6-1.9-1.5-2.4l-7.5-4.2a3 3 0 0 0-2.9 0l-7.5 4.2c-.9.5-1.5 1.4-1.5 2.4M48 67.8v8.4c0 1 .6 1.9 1.5 2.4l7.5 4.2c.9.5 2 .5 2.9 0l7.5-4.2c.9-.5 1.5-1.4 1.5-2.4v-8.4c0-1-.6-1.9-1.5-2.4l-7.5-4.2a3 3 0 0 0-2.9 0l-7.5 4.2c-.9.5-1.5 1.4-1.5 2.4M24 67.8v8.4c0 1 .6 1.9 1.5 2.4l7.5 4.2c.9.5 2 .5 2.9 0l7.5-4.2c.9-.5 1.5-1.4 1.5-2.4v-8.4c0-1-.6-1.9-1.5-2.4l-7.5-4.2a3 3 0 0 0-2.9 0l-7.5 4.2c-.9.5-1.5 1.4-1.5 2.4M0 67.8v8.4c0 1 .6 1.9 1.5 2.4L9 82.8c.9.5 2 .5 2.9 0l7.5-4.2c.9-.5 1.5-1.4 1.5-2.4v-8.4c0-1-.6-1.9-1.5-2.4l-7.5-4.2a3 3 0 0 0-2.9 0l-7.5 4.2c-.9.5-1.5 1.4-1.5 2.4M108 88.6V97c0 1 .6 1.9 1.5 2.4l7.5 4.2c.9.5 2 .5 2.9 0l7.5-4.2c.9-.5 1.5-1.4 1.5-2.4v-8.4c0-1-.6-1.9-1.5-2.4l-7.5-4.2a3 3 0 0 0-2.9 0l-7.5 4.2c-.9.5-1.5 1.4-1.5 2.4M84 88.6V97c0 1 .6 1.9 1.5 2.4l7.5 4.2c.9.5 2 .5 2.9 0l7.5-4.2c.9-.5 1.5-1.4 1.5-2.4v-8.4c0-1-.6-1.9-1.5-2.4L95.9 82a3 3 0 0 0-2.9 0l-7.5 4.2c-.9.5-1.5 1.4-1.5 2.4M60 88.6V97c0 1 .6 1.9 1.5 2.4l7.5 4.2c.9.5 2 .5 2.9 0l7.5-4.2c.9-.5 1.5-1.4 1.5-2.4v-8.4c0-1-.6-1.9-1.5-2.4L71.9 82a3 3 0 0 0-2.9 0l-7.5 4.2c-.9.5-1.5 1.4-1.5 2.4M132.8 87.8v8.4c0 1 .6 1.9 1.5 2.4l7.5 4.2c.9.5 2 .5 2.9 0l7.5-4.2c.9-.5 1.5-1.4 1.5-2.4v-8.4c0-1-.6-1.9-1.5-2.4l-7.5-4.2a3 3 0 0 0-2.9 0l-7.5 4.2c-.9.5-1.5 1.4-1.5 2.4M156.9 87.8v8.4c0 1 .6 1.9 1.5 2.4l7.5 4.2c.9.5 2 .5 2.9 0l7.5-4.2c.9-.5 1.5-1.4 1.5-2.4v-8.4c0-1-.6-1.9-1.5-2.4l-7.5-4.2a3 3 0 0 0-2.9 0l-7.5 4.2c-1 .5-1.5 1.4-1.5 2.4M12 87.8v8.4c0 1 .6 1.9 1.5 2.4l7.5 4.2c.9.5 2 .5 2.9 0l7.5-4.2c.9-.5 1.5-1.4 1.5-2.4v-8.4c0-1-.6-1.9-1.5-2.4l-7.5-4.2a3 3 0 0 0-2.9 0l-7.5 4.2c-.9.5-1.5 1.4-1.5 2.4M36 87.8v8.4c0 1 .6 1.9 1.5 2.4l7.5 4.2c.9.5 2 .5 2.9 0l7.5-4.2c.9-.5 1.5-1.4 1.5-2.4v-8.4c0-1-.6-1.9-1.5-2.4l-7.5-4.2a3 3 0 0 0-2.9 0l-7.5 4.2c-.9.5-1.5 1.4-1.5 2.4" class="st1" transform="rotate(180 519.83 48)"/>
					</g>
				</g>
			</g>
		</g>
	</g>
</svg>
