<svg xmlns="http://www.w3.org/2000/svg" viewBox="0 0 419 66">
    <path d="M421.2 68.2v-8.4c0-1-.6-1.9-1.5-2.4l-7.5-4.2a3 3 0 00-2.9 0l-7.5 4.2c-.9.5-1.5 1.4-1.5 2.4v8.4c0 1 .6 1.9 1.5 2.4l7.5 4.2a3 3 0 002.9 0l7.5-4.2c.9-.5 1.5-1.4 1.5-2.4m-12-20v-8.4c0-1-.6-1.9-1.5-2.4l-7.5-4.2a3 3 0 00-2.9 0l-7.5 4.2c-.9.5-1.5 1.4-1.5 2.4v8.4c0 1 .6 1.9 1.5 2.4l7.5 4.2a3 3 0 002.9 0l7.5-4.2c.9-.5 1.5-1.4 1.5-2.4m-24.1 0v-8.4c0-1-.6-1.9-1.5-2.4l-7.5-4.2a3 3 0 00-2.9 0l-7.5 4.2c-.9.5-1.5 1.4-1.5 2.4v8.4c0 1 .6 1.9 1.5 2.4l7.5 4.2a3 3 0 002.9 0l7.5-4.2c1-.5 1.5-1.4 1.5-2.4m36.1-20v-8.4c0-1-.6-1.9-1.5-2.4l-7.5-4.2a3 3 0 00-2.9 0l-7.5 4.2c-.9.5-1.5 1.4-1.5 2.4v8.4c0 1 .6 1.9 1.5 2.4l7.5 4.2a3 3 0 002.9 0l7.5-4.2c.9-.5 1.5-1.4 1.5-2.4M434 7.4V-1c0-1-.6-1.9-1.5-2.4L425-7.6a3 3 0 00-2.9 0l-7.5 4.2c-.9.5-1.5 1.4-1.5 2.4v8.4c0 1 .6 1.9 1.5 2.4l7.5 4.2a3 3 0 002.9 0l7.5-4.2c.9-.5 1.5-1.4 1.5-2.4m-24.8.8V-.2c0-1-.6-1.9-1.5-2.4l-7.5-4.2a3 3 0 00-2.9 0l-7.5 4.2c-.9.5-1.5 1.4-1.5 2.4v8.4c0 1 .6 1.9 1.5 2.4l7.5 4.2a3 3 0 002.9 0l7.5-4.2c.9-.5 1.5-1.4 1.5-2.4m-24.1 0V-.2c0-1-.6-1.9-1.5-2.4l-7.5-4.2a3 3 0 00-2.9 0l-7.5 4.2c-.9.5-1.5 1.4-1.5 2.4v8.4c0 1 .6 1.9 1.5 2.4l7.5 4.2a3 3 0 002.9 0l7.5-4.2c1-.5 1.5-1.4 1.5-2.4m-96.8 40v-8.4c0-1-.6-1.9-1.5-2.4l-7.5-4.2a3 3 0 00-2.9 0l-7.5 4.2c-.9.5-1.5 1.4-1.5 2.4v8.4c0 1 .6 1.9 1.5 2.4l7.5 4.2a3 3 0 003 0l7.4-4.2c1-.5 1.5-1.4 1.5-2.4m-24 0v-8.4c0-1-.6-1.9-1.5-2.4l-7.5-4.2a3 3 0 00-2.9 0l-7.5 4.2c-.9.5-1.5 1.4-1.5 2.4v8.4c0 1 .6 1.9 1.5 2.4l7.5 4.2a3 3 0 003 0l7.4-4.2c1-.5 1.5-1.4 1.5-2.4m-48.9 0v-8.4c0-1-.6-1.9-1.5-2.4l-7.5-4.2a3 3 0 00-2.9 0l-7.5 4.2c-.9.5-1.5 1.4-1.5 2.4v8.4c0 1 .6 1.9 1.5 2.4l7.5 4.2a3 3 0 003 0l7.4-4.2c1-.5 1.5-1.4 1.5-2.4m24.1 0v-8.4c0-1-.6-1.9-1.5-2.4l-7.5-4.2a3 3 0 00-2.9 0l-7.5 4.2c-.9.5-1.5 1.4-1.5 2.4v8.4c0 1 .6 1.9 1.5 2.4l7.5 4.2a3 3 0 003 0l7.4-4.2c1-.5 1.5-1.4 1.5-2.4m-36-20v-8.4c0-1-.7-1.9-1.6-2.4l-7.5-4.2a3 3 0 00-2.9 0l-7.5 4.2c-.9.5-1.5 1.4-1.5 2.4v8.4c0 1 .6 1.9 1.5 2.4l7.5 4.2a3 3 0 003 0l7.4-4.2c1-.5 1.5-1.4 1.5-2.4m109 20v-8.4c0-1-.7-1.9-1.6-2.4l-7.5-4.2a3 3 0 00-2.9 0l-7.5 4.2c-.9.5-1.5 1.4-1.5 2.4v8.4c0 1 .6 1.9 1.5 2.4l7.5 4.2a3 3 0 003 0l7.4-4.2c1-.5 1.5-1.4 1.5-2.4m48 0v-8.4c0-1-.6-1.9-1.5-2.4l-7.5-4.2a3 3 0 00-2.9 0l-7.5 4.2c-.9.5-1.5 1.4-1.5 2.4v8.4c0 1 .6 1.9 1.5 2.4l7.5 4.2a3 3 0 003 0l7.4-4.2c1-.5 1.5-1.4 1.5-2.4m-12-20v-8.4c0-1-.6-1.9-1.5-2.4l-7.5-4.2a3 3 0 00-2.9 0l-7.5 4.2c-.9.5-1.5 1.4-1.5 2.4v8.4c0 1 .6 1.9 1.5 2.4l7.5 4.2a3 3 0 003 0l7.4-4.2c1-.5 1.5-1.4 1.5-2.4m-24 0v-8.4c0-1-.6-1.9-1.5-2.4l-7.5-4.2a3 3 0 00-2.9 0l-7.5 4.2c-.9.5-1.5 1.4-1.5 2.4v8.4c0 1 .6 1.9 1.5 2.4l7.5 4.2a3 3 0 003 0l7.4-4.2c1-.5 1.5-1.4 1.5-2.4m-36-20V-.2c0-1-.6-1.9-1.5-2.4l-7.5-4.2a3 3 0 00-2.9 0L269-2.6c-.9.5-1.5 1.4-1.5 2.4v8.4c0 1 .6 1.9 1.5 2.4l7.5 4.2a3 3 0 003 0l7.4-4.2c1-.5 1.5-1.4 1.5-2.4m-24 0V-.2c0-1-.6-1.9-1.5-2.4l-7.5-4.2a3 3 0 00-2.9 0L245-2.6c-.9.5-1.5 1.4-1.5 2.4v8.4c0 1 .6 1.9 1.5 2.4l7.5 4.2a3 3 0 003 0l7.4-4.2c1-.5 1.5-1.4 1.5-2.4m12 20v-8.4c0-1-.6-1.9-1.5-2.4l-7.5-4.2a3 3 0 00-2.9 0l-7.5 4.2c-.9.5-1.5 1.4-1.5 2.4v8.4c0 1 .6 1.9 1.5 2.4l7.5 4.2a3 3 0 003 0l7.4-4.2c1-.5 1.5-1.4 1.5-2.4m24 0v-8.4c0-1-.6-1.9-1.5-2.4l-7.5-4.2a3 3 0 00-2.9 0l-7.5 4.2c-.9.5-1.5 1.4-1.5 2.4v8.4c0 1 .6 1.9 1.5 2.4l7.5 4.2a3 3 0 003 0l7.4-4.2c1-.5 1.5-1.4 1.5-2.4m-108.9-20V-.2c0-1-.6-1.9-1.5-2.4l-7.5-4.2a3 3 0 00-2.9 0L172-2.6c-.9.5-1.5 1.4-1.5 2.4v8.4c0 1 .6 1.9 1.5 2.4l7.5 4.2a3 3 0 003 0l7.4-4.2c1-.5 1.5-1.4 1.5-2.4m24 0V-.2c0-1-.6-1.9-1.5-2.4l-7.5-4.2a3 3 0 00-2.9 0L196-2.6c-.9.5-1.5 1.4-1.5 2.4v8.4c0 1 .6 1.9 1.5 2.4l7.5 4.2a3 3 0 003 0l7.4-4.2c1-.5 1.5-1.4 1.5-2.4m24.1 0V-.2c0-1-.6-1.9-1.5-2.4l-7.5-4.2a3 3 0 00-2.9 0l-7.5 4.2c-.9.5-1.5 1.4-1.5 2.4v8.4c0 1 .6 1.9 1.5 2.4l7.5 4.2a3 3 0 003 0l7.4-4.2c1-.5 1.5-1.4 1.5-2.4m72.8 0V-.2c0-1-.6-1.9-1.5-2.4l-7.5-4.2a3 3 0 00-2.9 0L293-2.6c-.9.5-1.5 1.4-1.5 2.4v8.4c0 1 .6 1.9 1.5 2.4l7.5 4.2a3 3 0 003 0l7.4-4.2c1-.5 1.5-1.4 1.5-2.4m24 0V-.2c0-1-.6-1.9-1.5-2.4l-7.5-4.2a3 3 0 00-2.9 0L317-2.6c-.9.5-1.5 1.4-1.5 2.4v8.4c0 1 .6 1.9 1.5 2.4l7.5 4.2a3 3 0 003 0l7.4-4.2c1-.5 1.5-1.4 1.5-2.4m24 0V-.2c0-1-.6-1.9-1.5-2.4l-7.5-4.2a3 3 0 00-2.9 0L341-2.6c-.9.5-1.5 1.4-1.5 2.4v8.4c0 1 .6 1.9 1.5 2.4l7.5 4.2a3 3 0 003 0l7.4-4.2c1-.5 1.5-1.4 1.5-2.4m-84 60v-8.4c0-1-.6-1.9-1.5-2.4l-7.5-4.2a3 3 0 00-2.9 0l-7.5 4.2c-.9.5-1.5 1.4-1.5 2.4v8.4c0 1 .6 1.9 1.5 2.4l7.5 4.2a3 3 0 003 0l7.4-4.2c1-.5 1.5-1.4 1.5-2.4m24 0v-8.4c0-1-.6-1.9-1.5-2.4l-7.5-4.2a3 3 0 00-2.9 0l-7.5 4.2c-.9.5-1.5 1.4-1.5 2.4v8.4c0 1 .6 1.9 1.5 2.4l7.5 4.2a3 3 0 003 0l7.4-4.2c1-.5 1.5-1.4 1.5-2.4m-72.8.8v-8.4c0-1-.6-1.9-1.5-2.4l-7.5-4.2a3 3 0 00-2.9 0l-7.5 4.2c-.9.5-1.5 1.4-1.5 2.4V69c0 1 .6 1.9 1.5 2.4l7.5 4.2a3 3 0 003 0l7.4-4.2c1-.5 1.5-1.4 1.5-2.4m-24 0v-8.4c0-1-.7-1.9-1.6-2.4l-7.5-4.2a3 3 0 00-2.9 0l-7.5 4.2c-.9.5-1.5 1.4-1.5 2.4V69c0 1 .6 1.9 1.5 2.4l7.5 4.2a3 3 0 003 0l7.4-4.2c1-.5 1.5-1.4 1.5-2.4m145 0v-8.4c0-1-.7-1.9-1.6-2.4l-7.5-4.2a3 3 0 00-2.9 0l-7.5 4.2c-.9.5-1.5 1.4-1.5 2.4V69c0 1 .6 1.9 1.5 2.4l7.5 4.2a3 3 0 003 0l7.4-4.2c1-.5 1.5-1.4 1.5-2.4m-265.7-.8v-8.4c0-1-.6-1.9-1.5-2.4l-7.5-4.2a3 3 0 00-3 0l-7.4 4.2c-1 .5-1.5 1.4-1.5 2.4v8.4c0 1 .6 1.9 1.5 2.4l7.5 4.2a3 3 0 002.9 0l7.5-4.2c.9-.5 1.5-1.4 1.5-2.4m-36.8-20v-8.4c0-1-.6-1.9-1.5-2.4l-7.5-4.2a3 3 0 00-3 0l-7.4 4.2c-1 .5-1.5 1.4-1.5 2.4v8.4c0 1 .6 1.9 1.5 2.4l7.5 4.2a3 3 0 002.9 0l7.5-4.2c.9-.5 1.5-1.4 1.5-2.4m108.8 20v-8.4c0-1-.6-1.9-1.5-2.4l-7.5-4.2a3 3 0 00-3 0l-7.4 4.2c-1 .5-1.5 1.4-1.5 2.4v8.4c0 1 .6 1.9 1.5 2.4l7.5 4.2a3 3 0 002.9 0l7.5-4.2c.9-.5 1.5-1.4 1.5-2.4m24 0v-8.4c0-1-.6-1.9-1.5-2.4l-7.5-4.2a3 3 0 00-3 0l-7.4 4.2c-1 .5-1.5 1.4-1.5 2.4v8.4c0 1 .6 1.9 1.5 2.4l7.5 4.2a3 3 0 002.9 0l7.5-4.2c.9-.5 1.5-1.4 1.5-2.4m-12-20v-8.4c0-1-.6-1.9-1.5-2.4l-7.5-4.2a3 3 0 00-3 0l-7.4 4.2c-1 .5-1.5 1.4-1.5 2.4v8.4c0 1 .6 1.9 1.5 2.4l7.5 4.2a3 3 0 002.9 0l7.5-4.2c.9-.5 1.5-1.4 1.5-2.4m-24 0v-8.4c0-1-.6-1.9-1.5-2.4l-7.5-4.2a3 3 0 00-3 0l-7.4 4.2c-1 .5-1.5 1.4-1.5 2.4v8.4c0 1 .6 1.9 1.5 2.4l7.5 4.2a3 3 0 002.9 0l7.5-4.2c.9-.5 1.5-1.4 1.5-2.4m-36-20v-8.4c0-1-.6-1.9-1.5-2.4l-7.5-4.2a3 3 0 00-3 0l-7.4 4.2c-1 .5-1.5 1.4-1.5 2.4v8.4c0 1 .6 1.9 1.5 2.4l7.5 4.2a3 3 0 002.9 0l7.5-4.2c.9-.5 1.5-1.4 1.5-2.4m-24 0v-8.4c0-1-.6-1.9-1.5-2.4l-7.5-4.2a3 3 0 00-3 0l-7.4 4.2c-1 .5-1.5 1.4-1.5 2.4v8.4c0 1 .6 1.9 1.5 2.4l7.5 4.2a3 3 0 002.9 0l7.5-4.2c.9-.5 1.5-1.4 1.5-2.4m-12 20v-8.4c0-1-.6-1.9-1.5-2.4l-7.5-4.2a3 3 0 00-3 0l-7.4 4.2c-1 .5-1.5 1.4-1.5 2.4v8.4c0 1 .6 1.9 1.5 2.4l7.5 4.2a3 3 0 002.9 0l7.5-4.2c.9-.5 1.5-1.4 1.5-2.4m24 0v-8.4c0-1-.6-1.9-1.5-2.4l-7.5-4.2a3 3 0 00-3 0l-7.4 4.2c-1 .5-1.5 1.4-1.5 2.4v8.4c0 1 .6 1.9 1.5 2.4l7.5 4.2a3 3 0 002.9 0l7.5-4.2c.9-.5 1.5-1.4 1.5-2.4m-61-20v-8.4c0-1-.5-1.9-1.4-2.4l-7.5-4.2a3 3 0 00-3 0l-7.4 4.2c-1 .5-1.5 1.4-1.5 2.4v8.4c0 1 .6 1.9 1.5 2.4l7.5 4.2a3 3 0 002.9 0l7.5-4.2c1-.5 1.5-1.4 1.5-2.4m24 0v-8.4c0-1-.5-1.9-1.4-2.4l-7.5-4.2a3 3 0 00-3 0l-7.4 4.2c-1 .5-1.5 1.4-1.5 2.4v8.4c0 1 .6 1.9 1.5 2.4l7.5 4.2a3 3 0 002.9 0l7.5-4.2c.9-.5 1.5-1.4 1.5-2.4m72.8 0v-8.4c0-1-.6-1.9-1.5-2.4l-7.5-4.2a3 3 0 00-3 0l-7.4 4.2c-1 .5-1.5 1.4-1.5 2.4v8.4c0 1 .6 1.9 1.5 2.4l7.5 4.2a3 3 0 002.9 0l7.5-4.2c.9-.5 1.5-1.4 1.5-2.4m24 0v-8.4c0-1-.6-1.9-1.5-2.4l-7.5-4.2a3 3 0 00-3 0l-7.4 4.2c-1 .5-1.5 1.4-1.5 2.4v8.4c0 1 .6 1.9 1.5 2.4l7.5 4.2a3 3 0 002.9 0l7.5-4.2c.9-.5 1.5-1.4 1.5-2.4m24 0v-8.4c0-1-.6-1.9-1.5-2.4l-7.5-4.2a3 3 0 00-3 0l-7.4 4.2c-1 .5-1.5 1.4-1.5 2.4v8.4c0 1 .6 1.9 1.5 2.4l7.5 4.2a3 3 0 002.9 0l7.5-4.2c.9-.5 1.5-1.4 1.5-2.4M70.7 7.4V-1c0-1-.6-1.9-1.5-2.4l-7.5-4.2a3 3 0 00-3 0l-7.4 4.2c-1 .5-1.5 1.4-1.5 2.4v8.4c0 1 .6 1.9 1.5 2.4l7.5 4.2a3 3 0 002.9 0l7.5-4.2c.9-.5 1.5-1.4 1.5-2.4m24 0V-1c0-1-.6-1.9-1.5-2.4l-7.5-4.2a3 3 0 00-3 0l-7.4 4.2c-1 .5-1.5 1.4-1.5 2.4v8.4c0 1 .6 1.9 1.5 2.4l7.5 4.2a3 3 0 002.9 0l7.5-4.2c.9-.5 1.5-1.4 1.5-2.4m24 0V-1c0-1-.6-1.9-1.5-2.4l-7.5-4.2a3 3 0 00-3 0l-7.4 4.2c-1 .5-1.5 1.4-1.5 2.4v8.4c0 1 .6 1.9 1.5 2.4l7.5 4.2a3 3 0 002.9 0l7.5-4.2c.9-.5 1.5-1.4 1.5-2.4m-72.8.8V-.2c0-1-.6-1.9-1.5-2.4l-7.5-4.2a3 3 0 00-3 0l-7.4 4.2c-1 .5-1.5 1.4-1.5 2.4v8.4c0 1 .6 1.9 1.5 2.4l7.5 4.2a3 3 0 002.9 0l7.5-4.2c.9-.5 1.5-1.4 1.5-2.4m-24.1 0V-.2c0-1-.6-1.9-1.5-2.4l-7.5-4.2a3 3 0 00-3 0L2.5-2.6A2.5 2.5 0 00.9-.2v8.4c0 1 .6 1.9 1.5 2.4l7.5 4.2a3 3 0 002.9 0l7.5-4.2c1-.5 1.5-1.4 1.5-2.4m144.9 0V-.2c0-1-.6-1.9-1.5-2.4l-7.5-4.2a3 3 0 00-3 0l-7.4 4.2c-1 .5-1.5 1.4-1.5 2.4v8.4c0 1 .6 1.9 1.5 2.4l7.5 4.2a3 3 0 002.9 0l7.5-4.2c.9-.5 1.5-1.4 1.5-2.4m-24 0V-.2c0-1-.6-1.9-1.5-2.4l-7.5-4.2a3 3 0 00-3 0l-7.4 4.2c-1 .5-1.5 1.4-1.5 2.4v8.4c0 1 .6 1.9 1.5 2.4l7.5 4.2a3 3 0 002.9 0l7.5-4.2c.9-.5 1.5-1.4 1.5-2.4" fill-rule="evenodd" clip-rule="evenodd" fill="#74ae43" stroke="#b3d398" stroke-width=".8" opacity=".2"/>
</svg>
