<svg xmlns="http://www.w3.org/2000/svg" viewBox="0 0 757.5 1914.5">
    <defs>
        <style>
            .cls-1{fill:#fff;fill-opacity:.4;fill-rule:evenodd}.cls-2{opacity:.4}.cls-3{fill:none;stroke:#bebebe}
        </style>
    </defs>
    <path d="M178.5 1283.83a11.88 11.88 0 0 0 5.87 10.26l29.76 17.32a11.63 11.63 0 0 0 11.74 0l29.76-17.32a11.88 11.88 0 0 0 5.87-10.26v-34.66a11.85 11.85 0 0 0-5.87-10.25l-29.76-17.33a11.63 11.63 0 0 0-11.74 0l-29.76 17.33a11.85 11.85 0 0 0-5.87 10.25zM262.5 1283.83a11.88 11.88 0 0 0 5.87 10.26l29.76 17.32a11.63 11.63 0 0 0 11.74 0l29.76-17.32a11.88 11.88 0 0 0 5.87-10.26v-34.66a11.85 11.85 0 0 0-5.87-10.25l-29.76-17.33a11.63 11.63 0 0 0-11.74 0l-29.76 17.33a11.85 11.85 0 0 0-5.87 10.25zM307.5 1211.83a11.88 11.88 0 0 0 5.87 10.26l29.76 17.32a11.63 11.63 0 0 0 11.74 0l29.76-17.32a11.88 11.88 0 0 0 5.87-10.26v-34.66a11.85 11.85 0 0 0-5.87-10.25l-29.76-17.33a11.63 11.63 0 0 0-11.74 0l-29.76 17.33a11.85 11.85 0 0 0-5.87 10.25zm84 0a11.88 11.88 0 0 0 5.87 10.26l29.76 17.32a11.63 11.63 0 0 0 11.74 0l29.76-17.32a11.88 11.88 0 0 0 5.87-10.26v-34.66a11.85 11.85 0 0 0-5.87-10.25l-29.76-17.33a11.63 11.63 0 0 0-11.74 0l-29.76 17.33a11.85 11.85 0 0 0-5.87 10.25zM547.5 1249.83a11.88 11.88 0 0 0 5.87 10.26l29.76 17.32a11.63 11.63 0 0 0 11.74 0l29.76-17.32a11.88 11.88 0 0 0 5.87-10.26v-34.66a11.85 11.85 0 0 0-5.87-10.25l-29.76-17.33a11.63 11.63 0 0 0-11.74 0l-29.76 17.33a11.85 11.85 0 0 0-5.87 10.25zm42 73a11.88 11.88 0 0 0 5.87 10.26l29.76 17.32a11.63 11.63 0 0 0 11.74 0l29.76-17.32a11.88 11.88 0 0 0 5.87-10.26v-34.66a11.85 11.85 0 0 0-5.87-10.25l-29.76-17.33a11.63 11.63 0 0 0-11.74 0l-29.76 17.33a11.85 11.85 0 0 0-5.87 10.25zm-43 73a11.88 11.88 0 0 0 5.87 10.26l29.76 17.32a11.63 11.63 0 0 0 11.74 0l29.76-17.32a11.88 11.88 0 0 0 5.87-10.26v-34.66a11.85 11.85 0 0 0-5.87-10.25l-29.76-17.33a11.63 11.63 0 0 0-11.74 0l-29.76 17.33a11.85 11.85 0 0 0-5.87 10.25zM757.5 1288.17a11.88 11.88 0 0 0-5.87-10.26l-29.76-17.32a11.63 11.63 0 0 0-11.74 0l-29.76 17.32a11.88 11.88 0 0 0-5.87 10.26v34.66a11.85 11.85 0 0 0 5.87 10.25l29.76 17.33a11.63 11.63 0 0 0 11.74 0l29.76-17.33a11.85 11.85 0 0 0 5.87-10.25zM28.5 201.83a11.88 11.88 0 0 0 5.87 10.26l29.76 17.32a11.63 11.63 0 0 0 11.74 0l29.76-17.32a11.88 11.88 0 0 0 5.87-10.26v-34.66a11.85 11.85 0 0 0-5.87-10.25l-29.76-17.33a11.63 11.63 0 0 0-11.74 0l-29.76 17.33a11.85 11.85 0 0 0-5.87 10.25z" class="cls-1"/>
    <path d="M111.5 201.83a11.88 11.88 0 0 0 5.87 10.26l29.76 17.32a11.63 11.63 0 0 0 11.74 0l29.76-17.32a11.88 11.88 0 0 0 5.87-10.26v-34.66a11.85 11.85 0 0 0-5.87-10.25l-29.76-17.33a11.63 11.63 0 0 0-11.74 0l-29.76 17.33a11.85 11.85 0 0 0-5.87 10.25zm279 680a11.88 11.88 0 0 0 5.87 10.26l29.76 17.32a11.63 11.63 0 0 0 11.74 0l29.76-17.32a11.88 11.88 0 0 0 5.87-10.26v-34.66a11.85 11.85 0 0 0-5.87-10.25l-29.76-17.33a11.63 11.63 0 0 0-11.74 0l-29.76 17.33a11.85 11.85 0 0 0-5.87 10.25zm84 0a11.88 11.88 0 0 0 5.87 10.26l29.76 17.32a11.63 11.63 0 0 0 11.74 0l29.76-17.32a11.88 11.88 0 0 0 5.87-10.26v-34.66a11.85 11.85 0 0 0-5.87-10.25l-29.76-17.33a11.63 11.63 0 0 0-11.74 0l-29.76 17.33a11.85 11.85 0 0 0-5.87 10.25zm45-72a11.88 11.88 0 0 0 5.87 10.26l29.76 17.32a11.63 11.63 0 0 0 11.74 0l29.76-17.32a11.88 11.88 0 0 0 5.87-10.26v-34.66a11.85 11.85 0 0 0-5.87-10.25l-29.76-17.33a11.63 11.63 0 0 0-11.74 0l-29.76 17.33a11.85 11.85 0 0 0-5.87 10.25zm84 0a11.88 11.88 0 0 0 5.87 10.26l29.76 17.32a11.63 11.63 0 0 0 11.74 0l29.76-17.32a11.88 11.88 0 0 0 5.87-10.26v-34.66a11.85 11.85 0 0 0-5.87-10.25l-29.76-17.33a11.63 11.63 0 0 0-11.74 0l-29.76 17.33a11.85 11.85 0 0 0-5.87 10.25zm-517-21a11.88 11.88 0 0 0 5.87 10.26l29.76 17.32a11.63 11.63 0 0 0 11.74 0l29.76-17.32a11.88 11.88 0 0 0 5.87-10.26v-34.66a11.85 11.85 0 0 0-5.87-10.25l-29.76-17.33a11.63 11.63 0 0 0-11.74 0l-29.76 17.33a11.85 11.85 0 0 0-5.87 10.25zm42 73a11.88 11.88 0 0 0 5.87 10.26l29.76 17.32a11.63 11.63 0 0 0 11.74 0l29.76-17.32a11.88 11.88 0 0 0 5.87-10.26v-34.66a11.85 11.85 0 0 0-5.87-10.25l-29.76-17.33a11.63 11.63 0 0 0-11.74 0l-29.76 17.33a11.85 11.85 0 0 0-5.87 10.25zm-43 73a11.88 11.88 0 0 0 5.87 10.26l29.76 17.32a11.63 11.63 0 0 0 11.74 0l29.76-17.32a11.88 11.88 0 0 0 5.87-10.26v-34.66a11.85 11.85 0 0 0-5.87-10.25l-29.76-17.33a11.63 11.63 0 0 0-11.74 0l-29.76 17.33a11.85 11.85 0 0 0-5.87 10.25zm253-34.66a11.88 11.88 0 0 0-5.87-10.26l-29.76-17.32a11.63 11.63 0 0 0-11.74 0l-29.76 17.32a11.88 11.88 0 0 0-5.87 10.26v34.66a11.85 11.85 0 0 0 5.87 10.25l29.76 17.33a11.63 11.63 0 0 0 11.74 0l29.76-17.33a11.85 11.85 0 0 0 5.87-10.25zm-42-73a11.88 11.88 0 0 0-5.87-10.26l-29.76-17.32a11.63 11.63 0 0 0-11.74 0l-29.76 17.32a11.88 11.88 0 0 0-5.87 10.26v34.66a11.85 11.85 0 0 0 5.87 10.25l29.76 17.33a11.63 11.63 0 0 0 11.74 0l29.76-17.33a11.85 11.85 0 0 0 5.87-10.25zm43-73a11.88 11.88 0 0 0-5.87-10.26l-29.76-17.32a11.63 11.63 0 0 0-11.74 0l-29.76 17.32a11.88 11.88 0 0 0-5.87 10.26v34.66a11.85 11.85 0 0 0 5.87 10.25l29.76 17.33a11.63 11.63 0 0 0 11.74 0l29.76-17.33a11.85 11.85 0 0 0 5.87-10.25zm226-214.34a11.88 11.88 0 0 0 5.87 10.26l29.76 17.32a11.63 11.63 0 0 0 11.74 0l29.76-17.32a11.88 11.88 0 0 0 5.87-10.26v-34.66a11.85 11.85 0 0 0-5.87-10.25l-29.76-17.33a11.63 11.63 0 0 0-11.74 0l-29.76 17.33a11.85 11.85 0 0 0-5.87 10.25zm42 73a11.88 11.88 0 0 0 5.87 10.26l29.76 17.32a11.63 11.63 0 0 0 11.74 0l29.76-17.32a11.88 11.88 0 0 0 5.87-10.26v-34.66a11.85 11.85 0 0 0-5.87-10.25l-29.76-17.33a11.63 11.63 0 0 0-11.74 0l-29.76 17.33a11.85 11.85 0 0 0-5.87 10.25zm-43 73a11.88 11.88 0 0 0 5.87 10.26l29.76 17.32a11.63 11.63 0 0 0 11.74 0l29.76-17.32a11.88 11.88 0 0 0 5.87-10.26v-34.66a11.85 11.85 0 0 0-5.87-10.25l-29.76-17.33a11.63 11.63 0 0 0-11.74 0l-29.76 17.33a11.85 11.85 0 0 0-5.87 10.25zm-61 1044a11.88 11.88 0 0 0 5.87 10.26l29.76 17.32a11.63 11.63 0 0 0 11.74 0l29.76-17.32a11.88 11.88 0 0 0 5.87-10.26v-34.66a11.85 11.85 0 0 0-5.87-10.25l-29.76-17.33a11.63 11.63 0 0 0-11.74 0l-29.76 17.33a11.85 11.85 0 0 0-5.87 10.25zm84 0a11.88 11.88 0 0 0 5.87 10.26l29.76 17.32a11.63 11.63 0 0 0 11.74 0l29.76-17.32a11.88 11.88 0 0 0 5.87-10.26v-34.66a11.85 11.85 0 0 0-5.87-10.25l-29.76-17.33a11.63 11.63 0 0 0-11.74 0l-29.76 17.33a11.85 11.85 0 0 0-5.87 10.25zm45-72a11.88 11.88 0 0 0 5.87 10.26l29.76 17.32a11.63 11.63 0 0 0 11.74 0l29.76-17.32a11.88 11.88 0 0 0 5.87-10.26v-34.66a11.85 11.85 0 0 0-5.87-10.25l-29.76-17.33a11.63 11.63 0 0 0-11.74 0l-29.76 17.33a11.85 11.85 0 0 0-5.87 10.25zm-437-4a11.88 11.88 0 0 0 5.87 10.26l29.76 17.32a11.63 11.63 0 0 0 11.74 0l29.76-17.32a11.88 11.88 0 0 0 5.87-10.26v-34.66a11.85 11.85 0 0 0-5.87-10.25l-29.76-17.33a11.63 11.63 0 0 0-11.74 0l-29.76 17.33a11.85 11.85 0 0 0-5.87 10.25zm42 73a11.88 11.88 0 0 0 5.87 10.26l29.76 17.32a11.63 11.63 0 0 0 11.74 0l29.76-17.32a11.88 11.88 0 0 0 5.87-10.26v-34.66a11.85 11.85 0 0 0-5.87-10.25l-29.76-17.33a11.63 11.63 0 0 0-11.74 0l-29.76 17.33a11.85 11.85 0 0 0-5.87 10.25zm-43 73a11.88 11.88 0 0 0 5.87 10.26l29.76 17.32a11.63 11.63 0 0 0 11.74 0l29.76-17.32a11.88 11.88 0 0 0 5.87-10.26v-34.66a11.85 11.85 0 0 0-5.87-10.25l-29.76-17.33a11.63 11.63 0 0 0-11.74 0l-29.76 17.33a11.85 11.85 0 0 0-5.87 10.25zm253-34.66a11.88 11.88 0 0 0-5.87-10.26l-29.76-17.32a11.63 11.63 0 0 0-11.74 0l-29.76 17.32a11.88 11.88 0 0 0-5.87 10.26v34.66a11.85 11.85 0 0 0 5.87 10.25l29.76 17.33a11.63 11.63 0 0 0 11.74 0l29.76-17.33a11.85 11.85 0 0 0 5.87-10.25zm-42-73a11.88 11.88 0 0 0-5.87-10.26l-29.76-17.32a11.63 11.63 0 0 0-11.74 0l-29.76 17.32a11.88 11.88 0 0 0-5.87 10.26v34.66a11.85 11.85 0 0 0 5.87 10.25l29.76 17.33a11.63 11.63 0 0 0 11.74 0l29.76-17.33a11.85 11.85 0 0 0 5.87-10.25zm43-73a11.88 11.88 0 0 0-5.87-10.26l-29.76-17.32a11.63 11.63 0 0 0-11.74 0l-29.76 17.32a11.88 11.88 0 0 0-5.87 10.26v34.66a11.85 11.85 0 0 0 5.87 10.25l29.76 17.33a11.63 11.63 0 0 0 11.74 0l29.76-17.33a11.85 11.85 0 0 0 5.87-10.25zm226-214.34a11.88 11.88 0 0 0 5.87 10.26l29.76 17.32a11.63 11.63 0 0 0 11.74 0l29.76-17.32a11.88 11.88 0 0 0 5.87-10.26v-34.66a11.85 11.85 0 0 0-5.87-10.25l-29.76-17.33a11.63 11.63 0 0 0-11.74 0l-29.76 17.33a11.85 11.85 0 0 0-5.87 10.25zm-1 146a11.88 11.88 0 0 0 5.87 10.26l29.76 17.32a11.63 11.63 0 0 0 11.74 0l29.76-17.32a11.88 11.88 0 0 0 5.87-10.26v-34.66a11.85 11.85 0 0 0-5.87-10.25l-29.76-17.33a11.63 11.63 0 0 0-11.74 0l-29.76 17.33a11.85 11.85 0 0 0-5.87 10.25zm-378-1487a11.88 11.88 0 0 0 5.87 10.26l29.76 17.32a11.63 11.63 0 0 0 11.74 0l29.76-17.32a11.88 11.88 0 0 0 5.87-10.26V29.17a11.85 11.85 0 0 0-5.87-10.25L342.87 1.59a11.63 11.63 0 0 0-11.74 0l-29.76 17.33a11.85 11.85 0 0 0-5.87 10.25zm-43 73a11.88 11.88 0 0 0 5.87 10.26l29.76 17.32a11.63 11.63 0 0 0 11.74 0l29.76-17.32a11.88 11.88 0 0 0 5.87-10.26v-34.66a11.85 11.85 0 0 0-5.87-10.25l-29.76-17.33a11.63 11.63 0 0 0-11.74 0l-29.76 17.33a11.85 11.85 0 0 0-5.87 10.25zm253-34.66a11.88 11.88 0 0 0-5.87-10.26l-29.76-17.32a11.63 11.63 0 0 0-11.74 0l-29.76 17.32a11.88 11.88 0 0 0-5.87 10.26v34.66a11.85 11.85 0 0 0 5.87 10.25l29.76 17.33a11.63 11.63 0 0 0 11.74 0l29.76-17.33a11.85 11.85 0 0 0 5.87-10.25zm-42-73a11.88 11.88 0 0 0-5.87-10.26L427.87 1.59a11.63 11.63 0 0 0-11.74 0l-29.76 17.32a11.88 11.88 0 0 0-5.87 10.26v34.66a11.85 11.85 0 0 0 5.87 10.25l29.76 17.33a11.63 11.63 0 0 0 11.74 0l29.76-17.33a11.85 11.85 0 0 0 5.87-10.25z" class="cls-1"/>
    <g class="cls-2">
        <path d="M150.5 944.26a19 19 0 0 0 9.41 16.44l47.68 27.76a18.68 18.68 0 0 0 18.82 0l47.68-27.76a19 19 0 0 0 9.41-16.44v-55.52a19 19 0 0 0-9.41-16.43l-47.68-27.77a18.68 18.68 0 0 0-18.82 0l-47.68 27.77a19 19 0 0 0-9.41 16.43zm150 0a19 19 0 0 0 9.41 16.44l47.68 27.76a18.68 18.68 0 0 0 18.82 0l47.68-27.76a19 19 0 0 0 9.41-16.44v-55.52a19 19 0 0 0-9.41-16.43l-47.68-27.77a18.68 18.68 0 0 0-18.82 0l-47.68 27.77a19 19 0 0 0-9.41 16.43zm-150-255a19 19 0 0 0 9.41 16.44l47.68 27.76a18.68 18.68 0 0 0 18.82 0l47.68-27.76a19 19 0 0 0 9.41-16.44v-55.52a19 19 0 0 0-9.41-16.43l-47.68-27.77a18.68 18.68 0 0 0-18.82 0l-47.68 27.77a19 19 0 0 0-9.41 16.43zm150 0a19 19 0 0 0 9.41 16.44l47.68 27.76a18.68 18.68 0 0 0 18.82 0l47.68-27.76a19 19 0 0 0 9.41-16.44v-55.52a19 19 0 0 0-9.41-16.43l-47.68-27.77a18.68 18.68 0 0 0-18.82 0l-47.68 27.77a19 19 0 0 0-9.41 16.43zm154 255a19 19 0 0 0 9.41 16.44l47.68 27.76a18.68 18.68 0 0 0 18.82 0l47.68-27.76a19 19 0 0 0 9.41-16.44v-55.52a19 19 0 0 0-9.41-16.43l-47.68-27.77a18.68 18.68 0 0 0-18.82 0l-47.68 27.77a19 19 0 0 0-9.41 16.43zm0-255a19 19 0 0 0 9.41 16.44l47.68 27.76a18.68 18.68 0 0 0 18.82 0l47.68-27.76a19 19 0 0 0 9.41-16.44v-55.52a19 19 0 0 0-9.41-16.43l-47.68-27.77a18.68 18.68 0 0 0-18.82 0l-47.68 27.77a19 19 0 0 0-9.41 16.43zm-304-537a19 19 0 0 0 9.41 16.44l47.68 27.76a18.68 18.68 0 0 0 18.82 0l47.68-27.76a19 19 0 0 0 9.41-16.44V96.74a19 19 0 0 0-9.41-16.43l-47.68-27.77a18.68 18.68 0 0 0-18.82 0l-47.68 27.77a19 19 0 0 0-9.41 16.43zm150 0a19 19 0 0 0 9.41 16.44l47.68 27.76a18.68 18.68 0 0 0 18.82 0l47.68-27.76a19 19 0 0 0 9.41-16.44V96.74a19 19 0 0 0-9.41-16.43l-47.68-27.77a18.68 18.68 0 0 0-18.82 0l-47.68 27.77a19 19 0 0 0-9.41 16.43zm154 0a19 19 0 0 0 9.41 16.44l47.68 27.76a18.68 18.68 0 0 0 18.82 0l47.68-27.76a19 19 0 0 0 9.41-16.44V96.74a19 19 0 0 0-9.41-16.43l-47.68-27.77a18.68 18.68 0 0 0-18.82 0l-47.68 27.77a19 19 0 0 0-9.41 16.43zm-304 272a19 19 0 0 0 9.41 16.44l47.68 27.76a18.68 18.68 0 0 0 18.82 0l47.68-27.76a19 19 0 0 0 9.41-16.44v-55.52a19 19 0 0 0-9.41-16.43l-47.68-27.77a18.68 18.68 0 0 0-18.82 0l-47.68 27.77a19 19 0 0 0-9.41 16.43zm150 0a19 19 0 0 0 9.41 16.44l47.68 27.76a18.68 18.68 0 0 0 18.82 0l47.68-27.76a19 19 0 0 0 9.41-16.44v-55.52a19 19 0 0 0-9.41-16.43l-47.68-27.77a18.68 18.68 0 0 0-18.82 0l-47.68 27.77a19 19 0 0 0-9.41 16.43zm154 0a19 19 0 0 0 9.41 16.44l47.68 27.76a18.68 18.68 0 0 0 18.82 0l47.68-27.76a19 19 0 0 0 9.41-16.44v-55.52a19 19 0 0 0-9.41-16.43l-47.68-27.77a18.68 18.68 0 0 0-18.82 0l-47.68 27.77a19 19 0 0 0-9.41 16.43zm-231 393a19 19 0 0 0 9.41 16.44l47.68 27.76a18.68 18.68 0 0 0 18.82 0l47.68-27.76a19 19 0 0 0 9.41-16.44v-55.52a19 19 0 0 0-9.41-16.43l-47.68-27.77a18.68 18.68 0 0 0-18.82 0l-47.68 27.77a19 19 0 0 0-9.41 16.43zm155 0a19 19 0 0 0 9.41 16.44l47.68 27.76a18.68 18.68 0 0 0 18.82 0l47.68-27.76a19 19 0 0 0 9.41-16.44v-55.52a19 19 0 0 0-9.41-16.43l-47.68-27.77a18.68 18.68 0 0 0-18.82 0l-47.68 27.77a19 19 0 0 0-9.41 16.43zm-155-260a19 19 0 0 0 9.41 16.44l47.68 27.76a18.68 18.68 0 0 0 18.82 0l47.68-27.76a19 19 0 0 0 9.41-16.44v-55.52a19 19 0 0 0-9.41-16.43l-47.68-27.77a18.68 18.68 0 0 0-18.82 0l-47.68 27.77a19 19 0 0 0-9.41 16.43zm155 0a19 19 0 0 0 9.41 16.44l47.68 27.76a18.68 18.68 0 0 0 18.82 0l47.68-27.76a19 19 0 0 0 9.41-16.44v-55.52a19 19 0 0 0-9.41-16.43l-47.68-27.77a18.68 18.68 0 0 0-18.82 0l-47.68 27.77a19 19 0 0 0-9.41 16.43zm151 0a19 19 0 0 0 9.41 16.44l47.68 27.76a18.68 18.68 0 0 0 18.82 0l47.68-27.76a19 19 0 0 0 9.41-16.44v-55.52a19 19 0 0 0-9.41-16.43l-47.68-27.77a18.68 18.68 0 0 0-18.82 0l-47.68 27.77a19 19 0 0 0-9.41 16.43zm-306-276a19 19 0 0 0 9.41 16.44l47.68 27.76a18.68 18.68 0 0 0 18.82 0l47.68-27.76a19 19 0 0 0 9.41-16.44v-55.52a19 19 0 0 0-9.41-16.43l-47.68-27.77a18.68 18.68 0 0 0-18.82 0l-47.68 27.77a19 19 0 0 0-9.41 16.43zm-148 0a19 19 0 0 0 9.41 16.44l47.68 27.76a18.68 18.68 0 0 0 18.82 0l47.68-27.76a19 19 0 0 0 9.41-16.44v-55.52a19 19 0 0 0-9.41-16.43l-47.68-27.77a18.68 18.68 0 0 0-18.82 0l-47.68 27.77a19 19 0 0 0-9.41 16.43zm-75-128a19 19 0 0 0 9.41 16.44l47.68 27.76a18.68 18.68 0 0 0 18.82 0l47.68-27.76a19 19 0 0 0 9.41-16.44V97.74a19 19 0 0 0-9.41-16.43L76.41 53.54a18.68 18.68 0 0 0-18.82 0L9.91 81.31A19 19 0 0 0 .5 97.74zm378 128a19 19 0 0 0 9.41 16.44l47.68 27.76a18.68 18.68 0 0 0 18.82 0l47.68-27.76a19 19 0 0 0 9.41-16.44v-55.52a19 19 0 0 0-9.41-16.43l-47.68-27.77a18.68 18.68 0 0 0-18.82 0l-47.68 27.77a19 19 0 0 0-9.41 16.43z" class="cls-3"/>
    </g>
    <g class="cls-2">
        <path d="M226.5 1867.26a19 19 0 0 0 9.41 16.44l47.68 27.76a18.68 18.68 0 0 0 18.82 0l47.68-27.76a19 19 0 0 0 9.41-16.44v-55.52a19 19 0 0 0-9.41-16.43l-47.68-27.77a18.68 18.68 0 0 0-18.82 0l-47.68 27.77a19 19 0 0 0-9.41 16.43zm150 0a19 19 0 0 0 9.41 16.44l47.68 27.76a18.68 18.68 0 0 0 18.82 0l47.68-27.76a19 19 0 0 0 9.41-16.44v-55.52a19 19 0 0 0-9.41-16.43l-47.68-27.77a18.68 18.68 0 0 0-18.82 0l-47.68 27.77a19 19 0 0 0-9.41 16.43zm-150-255a19 19 0 0 0 9.41 16.44l47.68 27.76a18.68 18.68 0 0 0 18.82 0l47.68-27.76a19 19 0 0 0 9.41-16.44v-55.52a19 19 0 0 0-9.41-16.43l-47.68-27.77a18.68 18.68 0 0 0-18.82 0l-47.68 27.77a19 19 0 0 0-9.41 16.43zm150 0a19 19 0 0 0 9.41 16.44l47.68 27.76a18.68 18.68 0 0 0 18.82 0l47.68-27.76a19 19 0 0 0 9.41-16.44v-55.52a19 19 0 0 0-9.41-16.43l-47.68-27.77a18.68 18.68 0 0 0-18.82 0l-47.68 27.77a19 19 0 0 0-9.41 16.43zm154 255a19 19 0 0 0 9.41 16.44l47.68 27.76a18.68 18.68 0 0 0 18.82 0l47.68-27.76a19 19 0 0 0 9.41-16.44v-55.52a19 19 0 0 0-9.41-16.43l-47.68-27.77a18.68 18.68 0 0 0-18.82 0l-47.68 27.77a19 19 0 0 0-9.41 16.43zm0-255a19 19 0 0 0 9.41 16.44l47.68 27.76a18.68 18.68 0 0 0 18.82 0l47.68-27.76a19 19 0 0 0 9.41-16.44v-55.52a19 19 0 0 0-9.41-16.43l-47.68-27.77a18.68 18.68 0 0 0-18.82 0l-47.68 27.77a19 19 0 0 0-9.41 16.43zm-304-537a19 19 0 0 0 9.41 16.44l47.68 27.76a18.68 18.68 0 0 0 18.82 0l47.68-27.76a19 19 0 0 0 9.41-16.44v-55.52a19 19 0 0 0-9.41-16.43l-47.68-27.77a18.68 18.68 0 0 0-18.82 0l-47.68 27.77a19 19 0 0 0-9.41 16.43zm150 0a19 19 0 0 0 9.41 16.44l47.68 27.76a18.68 18.68 0 0 0 18.82 0l47.68-27.76a19 19 0 0 0 9.41-16.44v-55.52a19 19 0 0 0-9.41-16.43l-47.68-27.77a18.68 18.68 0 0 0-18.82 0l-47.68 27.77a19 19 0 0 0-9.41 16.43zm154 0a19 19 0 0 0 9.41 16.44l47.68 27.76a18.68 18.68 0 0 0 18.82 0l47.68-27.76a19 19 0 0 0 9.41-16.44v-55.52a19 19 0 0 0-9.41-16.43l-47.68-27.77a18.68 18.68 0 0 0-18.82 0l-47.68 27.77a19 19 0 0 0-9.41 16.43zm-304 272a19 19 0 0 0 9.41 16.44l47.68 27.76a18.68 18.68 0 0 0 18.82 0l47.68-27.76a19 19 0 0 0 9.41-16.44v-55.52a19 19 0 0 0-9.41-16.43l-47.68-27.77a18.68 18.68 0 0 0-18.82 0l-47.68 27.77a19 19 0 0 0-9.41 16.43zm150 0a19 19 0 0 0 9.41 16.44l47.68 27.76a18.68 18.68 0 0 0 18.82 0l47.68-27.76a19 19 0 0 0 9.41-16.44v-55.52a19 19 0 0 0-9.41-16.43l-47.68-27.77a18.68 18.68 0 0 0-18.82 0l-47.68 27.77a19 19 0 0 0-9.41 16.43zm154 0a19 19 0 0 0 9.41 16.44l47.68 27.76a18.68 18.68 0 0 0 18.82 0l47.68-27.76a19 19 0 0 0 9.41-16.44v-55.52a19 19 0 0 0-9.41-16.43l-47.68-27.77a18.68 18.68 0 0 0-18.82 0l-47.68 27.77a19 19 0 0 0-9.41 16.43zm-231 393a19 19 0 0 0 9.41 16.44l47.68 27.76a18.68 18.68 0 0 0 18.82 0l47.68-27.76a19 19 0 0 0 9.41-16.44v-55.52a19 19 0 0 0-9.41-16.43l-47.68-27.77a18.68 18.68 0 0 0-18.82 0l-47.68 27.77a19 19 0 0 0-9.41 16.43zm155 0a19 19 0 0 0 9.41 16.44l47.68 27.76a18.68 18.68 0 0 0 18.82 0l47.68-27.76a19 19 0 0 0 9.41-16.44v-55.52a19 19 0 0 0-9.41-16.43l-47.68-27.77a18.68 18.68 0 0 0-18.82 0l-47.68 27.77a19 19 0 0 0-9.41 16.43zm-155-260a19 19 0 0 0 9.41 16.44l47.68 27.76a18.68 18.68 0 0 0 18.82 0l47.68-27.76a19 19 0 0 0 9.41-16.44v-55.52a19 19 0 0 0-9.41-16.43l-47.68-27.77a18.68 18.68 0 0 0-18.82 0l-47.68 27.77a19 19 0 0 0-9.41 16.43zm155 0a19 19 0 0 0 9.41 16.44l47.68 27.76a18.68 18.68 0 0 0 18.82 0l47.68-27.76a19 19 0 0 0 9.41-16.44v-55.52a19 19 0 0 0-9.41-16.43l-47.68-27.77a18.68 18.68 0 0 0-18.82 0l-47.68 27.77a19 19 0 0 0-9.41 16.43zm151 0a19 19 0 0 0 9.41 16.44l47.68 27.76a18.68 18.68 0 0 0 18.82 0l47.68-27.76a19 19 0 0 0 9.41-16.44v-55.52a19 19 0 0 0-9.41-16.43l-47.68-27.77a18.68 18.68 0 0 0-18.82 0l-47.68 27.77a19 19 0 0 0-9.41 16.43zm-306-276a19 19 0 0 0 9.41 16.44l47.68 27.76a18.68 18.68 0 0 0 18.82 0l47.68-27.76a19 19 0 0 0 9.41-16.44v-55.52a19 19 0 0 0-9.41-16.43l-47.68-27.77a18.68 18.68 0 0 0-18.82 0l-47.68 27.77a19 19 0 0 0-9.41 16.43zm-148 0a19 19 0 0 0 9.41 16.44l47.68 27.76a18.68 18.68 0 0 0 18.82 0l47.68-27.76a19 19 0 0 0 9.41-16.44v-55.52a19 19 0 0 0-9.41-16.43l-47.68-27.77a18.68 18.68 0 0 0-18.82 0l-47.68 27.77a19 19 0 0 0-9.41 16.43zm-75-128a19 19 0 0 0 9.41 16.44l47.68 27.76a18.68 18.68 0 0 0 18.82 0l47.68-27.76a19 19 0 0 0 9.41-16.44v-55.52a19 19 0 0 0-9.41-16.43l-47.68-27.77a18.68 18.68 0 0 0-18.82 0l-47.68 27.77a19 19 0 0 0-9.41 16.43zm378 128a19 19 0 0 0 9.41 16.44l47.68 27.76a18.68 18.68 0 0 0 18.82 0l47.68-27.76a19 19 0 0 0 9.41-16.44v-55.52a19 19 0 0 0-9.41-16.43l-47.68-27.77a18.68 18.68 0 0 0-18.82 0l-47.68 27.77a19 19 0 0 0-9.41 16.43z" class="cls-3"/>
    </g>
</svg>
