<?xml version="1.0" encoding="utf-8"?>
<!-- Generator: Adobe Illustrator 23.0.1, SVG Export Plug-In . SVG Version: 6.00 Build 0)  -->
<svg version="1.1" id="Layer_1" xmlns="http://www.w3.org/2000/svg" xmlns:xlink="http://www.w3.org/1999/xlink" x="0px" y="0px"
	 viewBox="0 0 1822 1440" style="enable-background:new 0 0 1822 1440;" xml:space="preserve">
<style type="text/css">
	.st0{opacity:0.15;}
	.st1{fill-rule:evenodd;clip-rule:evenodd;fill:#9B9B9B;}
</style>
<title>Import from Dockstore 2560</title>
<desc>Created with Sketch.</desc>
<g id="Import-from-Dockstore-2560">
	<g id="Group-2" transform="translate(14.000000, 43.000000)" class="st0">
		<path id="Fill-7" class="st1" d="M135.5,816.6c0,6.1,3.2,11.8,8.5,14.8l43.1,25.1c5.3,3.1,11.7,3.1,17,0l43.1-25.1
			c5.3-3.1,8.5-8.7,8.5-14.8v-50.1c0-6.1-3.2-11.8-8.5-14.8L204,726.6c-5.3-3.1-11.7-3.1-17,0L144,751.7c-5.3,3.1-8.5,8.7-8.5,14.8
			V816.6z"/>
		<path class="st1" d="M270.9,816.6c0,6.1,3.2,11.8,8.5,14.8l43.1,25.1c5.3,3.1,11.7,3.1,17,0l43.1-25.1c5.3-3.1,8.5-8.7,8.5-14.8
			v-50.1c0-6.1-3.2-11.8-8.5-14.8l-43.1-25.1c-5.3-3.1-11.7-3.1-17,0l-43.1,25.1c-5.3,3.1-8.5,8.7-8.5,14.8V816.6z"/>
		<path class="st1" d="M413,816.4c0,6.1,3.2,11.8,8.5,14.8l43.1,25.1c5.3,3.1,11.7,3.1,17,0l43.1-25.1c5.3-3.1,8.5-8.7,8.5-14.8
			v-50.1c0-6.1-3.2-11.8-8.5-14.8l-43.1-25.1c-5.3-3.1-11.7-3.1-17,0l-43.1,25.1c-5.3,3.1-8.5,8.7-8.5,14.8V816.4z"/>
		<path class="st1" d="M135.5,577.3c0,6.1,3.2,11.8,8.5,14.8l43.1,25.1c5.3,3.1,11.7,3.1,17,0l43.1-25.1c5.3-3.1,8.5-8.7,8.5-14.8
			v-50.1c0-6.1-3.2-11.8-8.5-14.8L204,487.3c-5.3-3.1-11.7-3.1-17,0L144,512.4c-5.3,3.1-8.5,8.7-8.5,14.8V577.3z"/>
		<path class="st1" d="M270.9,577.3c0,6.1,3.2,11.8,8.5,14.8l43.1,25.1c5.3,3.1,11.7,3.1,17,0l43.1-25.1c5.3-3.1,8.5-8.7,8.5-14.8
			v-50.1c0-6.1-3.2-11.8-8.5-14.8l-43.1-25.1c-5.3-3.1-11.7-3.1-17,0l-43.1,25.1c-5.3,3.1-8.5,8.7-8.5,14.8V577.3z"/>
		<path class="st1" d="M410,577.3c0,6.1,3.2,11.8,8.5,14.8l43.1,25.1c5.3,3.1,11.7,3.1,17,0l43.1-25.1c5.3-3.1,8.5-8.7,8.5-14.8
			v-50.1c0-6.1-3.2-11.8-8.5-14.8l-43.1-25.1c-5.3-3.1-11.7-3.1-17,0l-43.1,25.1c-5.3,3.1-8.5,8.7-8.5,14.8V577.3z"/>
		<path class="st1" d="M135.5,92.4c0,6.1,3.2,11.8,8.5,14.8l43.1,25.1c5.3,3.1,11.7,3.1,17,0l43.1-25.1c5.3-3.1,8.5-8.7,8.5-14.8
			V42.2c0-6.1-3.2-11.8-8.5-14.8L204,2.3c-5.3-3.1-11.7-3.1-17,0L144,27.4c-5.3,3.1-8.5,8.7-8.5,14.8V92.4z"/>
		<path class="st1" d="M270.9,92.4c0,6.1,3.2,11.8,8.5,14.8l43.1,25.1c5.3,3.1,11.7,3.1,17,0l43.1-25.1c5.3-3.1,8.5-8.7,8.5-14.8
			V42.2c0-6.1-3.2-11.8-8.5-14.8L339.5,2.3c-5.3-3.1-11.7-3.1-17,0l-43.1,25.1c-5.3,3.1-8.5,8.7-8.5,14.8V92.4z"/>
		<path class="st1" d="M410,92.4c0,6.1,3.2,11.8,8.5,14.8l43.1,25.1c5.3,3.1,11.7,3.1,17,0l43.1-25.1c5.3-3.1,8.5-8.7,8.5-14.8V42.2
			c0-6.1-3.2-11.8-8.5-14.8L478.6,2.3c-5.3-3.1-11.7-3.1-17,0l-43.1,25.1c-5.3,3.1-8.5,8.7-8.5,14.8V92.4z"/>
		<path class="st1" d="M135.5,338c0,6.1,3.2,11.8,8.5,14.8l43.1,25.1c5.3,3.1,11.7,3.1,17,0l43.1-25.1c5.3-3.1,8.5-8.7,8.5-14.8
			v-50.1c0-6.1-3.2-11.8-8.5-14.8L204,247.9c-5.3-3.1-11.7-3.1-17,0L144,273c-5.3,3.1-8.5,8.7-8.5,14.8V338z"/>
		<path class="st1" d="M270.9,338c0,6.1,3.2,11.8,8.5,14.8l43.1,25.1c5.3,3.1,11.7,3.1,17,0l43.1-25.1c5.3-3.1,8.5-8.7,8.5-14.8
			v-50.1c0-6.1-3.2-11.8-8.5-14.8l-43.1-25.1c-5.3-3.1-11.7-3.1-17,0L279.4,273c-5.3,3.1-8.5,8.7-8.5,14.8V338z"/>
		<path class="st1" d="M410,338c0,6.1,3.2,11.8,8.5,14.8l43.1,25.1c5.3,3.1,11.7,3.1,17,0l43.1-25.1c5.3-3.1,8.5-8.7,8.5-14.8v-50.1
			c0-6.1-3.2-11.8-8.5-14.8l-43.1-25.1c-5.3-3.1-11.7-3.1-17,0L418.5,273c-5.3,3.1-8.5,8.7-8.5,14.8V338z"/>
		<path class="st1" d="M201.4,696.9c0,6.1,3.2,11.8,8.5,14.8l43.1,25.1c5.3,3.1,11.7,3.1,17,0l43.1-25.1c5.3-3.1,8.5-8.7,8.5-14.8
			v-50.1c0-6.1-3.2-11.8-8.5-14.8l-43.1-25.1c-5.3-3.1-11.7-3.1-17,0L209.9,632c-5.3,3.1-8.5,8.7-8.5,14.8V696.9z"/>
		<path class="st1" d="M341.4,696.9c0,6.1,3.2,11.8,8.5,14.8l43.1,25.1c5.3,3.1,11.7,3.1,17,0l43.1-25.1c5.3-3.1,8.5-8.7,8.5-14.8
			v-50.1c0-6.1-3.2-11.8-8.5-14.8l-43.1-25.1c-5.3-3.1-11.7-3.1-17,0L349.9,632c-5.3,3.1-8.5,8.7-8.5,14.8V696.9z"/>
		<path class="st1" d="M201.4,458.1c0,6.1,3.2,11.8,8.5,14.8L253,498c5.3,3.1,11.7,3.1,17,0L313,473c5.3-3.1,8.5-8.7,8.5-14.8V408
			c0-6.1-3.2-11.8-8.5-14.8l-43.1-25.1c-5.3-3.1-11.7-3.1-17,0l-43.1,25.1c-5.3,3.1-8.5,8.7-8.5,14.8V458.1z"/>
		<path class="st1" d="M341.4,458.1c0,6.1,3.2,11.8,8.5,14.8l43.1,25.1c5.3,3.1,11.7,3.1,17,0L453,473c5.3-3.1,8.5-8.7,8.5-14.8V408
			c0-6.1-3.2-11.8-8.5-14.8l-43.1-25.1c-5.3-3.1-11.7-3.1-17,0l-43.1,25.1c-5.3,3.1-8.5,8.7-8.5,14.8V458.1z"/>
		<path class="st1" d="M477.7,458.1c0,6.1,3.2,11.8,8.5,14.8l43.1,25.1c5.3,3.1,11.7,3.1,17,0l43.1-25.1c5.3-3.1,8.5-8.7,8.5-14.8
			V408c0-6.1-3.2-11.8-8.5-14.8l-43.1-25.1c-5.3-3.1-11.7-3.1-17,0l-43.1,25.1c-5.3,3.1-8.5,8.7-8.5,14.8V458.1z"/>
		<path class="st1" d="M201.4,214.9c0,6.1,3.2,11.8,8.5,14.8l43.1,25.1c5.3,3.1,11.7,3.1,17,0l43.1-25.1c5.3-3.1,8.5-8.7,8.5-14.8
			v-50.1c0-6.1-3.2-11.8-8.5-14.8l-43.1-25.1c-5.3-3.1-11.7-3.1-17,0l-43.1,25.1c-5.3,3.1-8.5,8.7-8.5,14.8V214.9z"/>
		<path class="st1" d="M67.7,214.9c0,6.1,3.2,11.8,8.5,14.8l43.1,25.1c5.3,3.1,11.7,3.1,17,0l43.1-25.1c5.3-3.1,8.5-8.7,8.5-14.8
			v-50.1c0-6.1-3.2-11.8-8.5-14.8l-43.1-25.1c-5.3-3.1-11.7-3.1-17,0l-43.1,25.1c-5.3,3.1-8.5,8.7-8.5,14.8V214.9z"/>
		<path class="st1" d="M0,93.3c0,6.1,3.2,11.8,8.5,14.8l43.1,25.1c5.3,3.1,11.7,3.1,17,0l43.1-25.1c5.3-3.1,8.5-8.7,8.5-14.8V43.1
			c0-6.1-3.2-11.8-8.5-14.8L68.6,3.2c-5.3-3.1-11.7-3.1-17,0L8.5,28.3C3.2,31.3,0,37,0,43.1V93.3z"/>
		<path class="st1" d="M341.4,214.9c0,6.1,3.2,11.8,8.5,14.8l43.1,25.1c5.3,3.1,11.7,3.1,17,0l43.1-25.1c5.3-3.1,8.5-8.7,8.5-14.8
			v-50.1c0-6.1-3.2-11.8-8.5-14.8l-43.1-25.1c-5.3-3.1-11.7-3.1-17,0l-43.1,25.1c-5.3,3.1-8.5,8.7-8.5,14.8V214.9z"/>
		<path class="st1" d="M678.5,816.6c0,6.1,3.2,11.8,8.5,14.8l43.1,25.1c5.3,3.1,11.7,3.1,17,0l43.1-25.1c5.3-3.1,8.5-8.7,8.5-14.8
			v-50.1c0-6.1-3.2-11.8-8.5-14.8L747,726.6c-5.3-3.1-11.7-3.1-17,0L687,751.7c-5.3,3.1-8.5,8.7-8.5,14.8V816.6z"/>
		<path class="st1" d="M813.9,816.6c0,6.1,3.2,11.8,8.5,14.8l43.1,25.1c5.3,3.1,11.7,3.1,17,0l43.1-25.1c5.3-3.1,8.5-8.7,8.5-14.8
			v-50.1c0-6.1-3.2-11.8-8.5-14.8l-43.1-25.1c-5.3-3.1-11.7-3.1-17,0l-43.1,25.1c-5.3,3.1-8.5,8.7-8.5,14.8V816.6z"/>
		<path class="st1" d="M678.5,577.3c0,6.1,3.2,11.8,8.5,14.8l43.1,25.1c5.3,3.1,11.7,3.1,17,0l43.1-25.1c5.3-3.1,8.5-8.7,8.5-14.8
			v-50.1c0-6.1-3.2-11.8-8.5-14.8L747,487.3c-5.3-3.1-11.7-3.1-17,0L687,512.4c-5.3,3.1-8.5,8.7-8.5,14.8V577.3z"/>
		<path class="st1" d="M813.9,577.3c0,6.1,3.2,11.8,8.5,14.8l43.1,25.1c5.3,3.1,11.7,3.1,17,0l43.1-25.1c5.3-3.1,8.5-8.7,8.5-14.8
			v-50.1c0-6.1-3.2-11.8-8.5-14.8l-43.1-25.1c-5.3-3.1-11.7-3.1-17,0l-43.1,25.1c-5.3,3.1-8.5,8.7-8.5,14.8V577.3z"/>
		<path class="st1" d="M953,816.6c0,6.1,3.2,11.8,8.5,14.8l43.1,25.1c5.3,3.1,11.7,3.1,17,0l43.1-25.1c5.3-3.1,8.5-8.7,8.5-14.8
			v-50.1c0-6.1-3.2-11.8-8.5-14.8l-43.1-25.1c-5.3-3.1-11.7-3.1-17,0l-43.1,25.1c-5.3,3.1-8.5,8.7-8.5,14.8V816.6z"/>
		<path class="st1" d="M953,577.3c0,6.1,3.2,11.8,8.5,14.8l43.1,25.1c5.3,3.1,11.7,3.1,17,0l43.1-25.1c5.3-3.1,8.5-8.7,8.5-14.8
			v-50.1c0-6.1-3.2-11.8-8.5-14.8l-43.1-25.1c-5.3-3.1-11.7-3.1-17,0l-43.1,25.1c-5.3,3.1-8.5,8.7-8.5,14.8V577.3z"/>
		<path class="st1" d="M678.5,92.4c0,6.1,3.2,11.8,8.5,14.8l43.1,25.1c5.3,3.1,11.7,3.1,17,0l43.1-25.1c5.3-3.1,8.5-8.7,8.5-14.8
			V42.2c0-6.1-3.2-11.8-8.5-14.8L747,2.3c-5.3-3.1-11.7-3.1-17,0L687,27.4c-5.3,3.1-8.5,8.7-8.5,14.8V92.4z"/>
		<path class="st1" d="M953,92.4c0,6.1,3.2,11.8,8.5,14.8l43.1,25.1c5.3,3.1,11.7,3.1,17,0l43.1-25.1c5.3-3.1,8.5-8.7,8.5-14.8V42.2
			c0-6.1-3.2-11.8-8.5-14.8l-43.1-25.1c-5.3-3.1-11.7-3.1-17,0l-43.1,25.1c-5.3,3.1-8.5,8.7-8.5,14.8V92.4z"/>
		<path class="st1" d="M678.5,338c0,6.1,3.2,11.8,8.5,14.8l43.1,25.1c5.3,3.1,11.7,3.1,17,0l43.1-25.1c5.3-3.1,8.5-8.7,8.5-14.8
			v-50.1c0-6.1-3.2-11.8-8.5-14.8L747,247.9c-5.3-3.1-11.7-3.1-17,0L687,273c-5.3,3.1-8.5,8.7-8.5,14.8V338z"/>
		<path class="st1" d="M813.9,338c0,6.1,3.2,11.8,8.5,14.8l43.1,25.1c5.3,3.1,11.7,3.1,17,0l43.1-25.1c5.3-3.1,8.5-8.7,8.5-14.8
			v-50.1c0-6.1-3.2-11.8-8.5-14.8l-43.1-25.1c-5.3-3.1-11.7-3.1-17,0L822.4,273c-5.3,3.1-8.5,8.7-8.5,14.8V338z"/>
		<path class="st1" d="M953,338c0,6.1,3.2,11.8,8.5,14.8l43.1,25.1c5.3,3.1,11.7,3.1,17,0l43.1-25.1c5.3-3.1,8.5-8.7,8.5-14.8v-50.1
			c0-6.1-3.2-11.8-8.5-14.8l-43.1-25.1c-5.3-3.1-11.7-3.1-17,0L961.5,273c-5.3,3.1-8.5,8.7-8.5,14.8V338z"/>
		<path class="st1" d="M1089,338.4c0,6.1,3.2,11.8,8.5,14.8l43.1,25.1c5.3,3.1,11.7,3.1,17,0l43.1-25.1c5.3-3.1,8.5-8.7,8.5-14.8
			v-50.1c0-6.1-3.2-11.8-8.5-14.8l-43.1-25.1c-5.3-3.1-11.7-3.1-17,0l-43.1,25.1c-5.3,3.1-8.5,8.7-8.5,14.8V338.4z"/>
		<path class="st1" d="M884.4,696.9c0,6.1,3.2,11.8,8.5,14.8l43.1,25.1c5.3,3.1,11.7,3.1,17,0l43.1-25.1c5.3-3.1,8.5-8.7,8.5-14.8
			v-50.1c0-6.1-3.2-11.8-8.5-14.8l-43.1-25.1c-5.3-3.1-11.7-3.1-17,0L892.9,632c-5.3,3.1-8.5,8.7-8.5,14.8V696.9z"/>
		<path class="st1" d="M744.4,458.1c0,6.1,3.2,11.8,8.5,14.8L796,498c5.3,3.1,11.7,3.1,17,0L856,473c5.3-3.1,8.5-8.7,8.5-14.8V408
			c0-6.1-3.2-11.8-8.5-14.8l-43.1-25.1c-5.3-3.1-11.7-3.1-17,0l-43.1,25.1c-5.3,3.1-8.5,8.7-8.5,14.8V458.1z"/>
		<path class="st1" d="M612,458.4c0,6.1,3.2,11.8,8.5,14.8l43.1,25.1c5.3,3.1,11.7,3.1,17,0l43.1-25.1c5.3-3.1,8.5-8.7,8.5-14.8
			v-50.1c0-6.1-3.2-11.8-8.5-14.8l-43.1-25.1c-5.3-3.1-11.7-3.1-17,0l-43.1,25.1c-5.3,3.1-8.5,8.7-8.5,14.8V458.4z"/>
		<path class="st1" d="M1020.7,458.1c0,6.1,3.2,11.8,8.5,14.8l43.1,25.1c5.3,3.1,11.7,3.1,17,0l43.1-25.1c5.3-3.1,8.5-8.7,8.5-14.8
			V408c0-6.1-3.2-11.8-8.5-14.8l-43.1-25.1c-5.3-3.1-11.7-3.1-17,0l-43.1,25.1c-5.3,3.1-8.5,8.7-8.5,14.8V458.1z"/>
		<path class="st1" d="M744.4,215.9c0,6.1,3.2,11.8,8.5,14.8l43.1,25.1c5.3,3.1,11.7,3.1,17,0l43.1-25.1c5.3-3.1,8.5-8.7,8.5-14.8
			v-50.1c0-6.1-3.2-11.8-8.5-14.8l-43.1-25.1c-5.3-3.1-11.7-3.1-17,0l-43.1,25.1c-5.3,3.1-8.5,8.7-8.5,14.8V215.9z"/>
		<path class="st1" d="M610.7,215.9c0,6.1,3.2,11.8,8.5,14.8l43.1,25.1c5.3,3.1,11.7,3.1,17,0l43.1-25.1c5.3-3.1,8.5-8.7,8.5-14.8
			v-50.1c0-6.1-3.2-11.8-8.5-14.8l-43.1-25.1c-5.3-3.1-11.7-3.1-17,0l-43.1,25.1c-5.3,3.1-8.5,8.7-8.5,14.8V215.9z"/>
		<path class="st1" d="M543,93.3c0,6.1,3.2,11.8,8.5,14.8l43.1,25.1c5.3,3.1,11.7,3.1,17,0l43.1-25.1c5.3-3.1,8.5-8.7,8.5-14.8V43.1
			c0-6.1-3.2-11.8-8.5-14.8L611.6,3.2c-5.3-3.1-11.7-3.1-17,0l-43.1,25.1c-5.3,3.1-8.5,8.7-8.5,14.8V93.3z"/>
		<path class="st1" d="M884.4,215.9c0,6.1,3.2,11.8,8.5,14.8l43.1,25.1c5.3,3.1,11.7,3.1,17,0l43.1-25.1c5.3-3.1,8.5-8.7,8.5-14.8
			v-50.1c0-6.1-3.2-11.8-8.5-14.8l-43.1-25.1c-5.3-3.1-11.7-3.1-17,0l-43.1,25.1c-5.3,3.1-8.5,8.7-8.5,14.8V215.9z"/>
		<path class="st1" d="M1224.5,819.6c0,6.1,3.2,11.8,8.5,14.8l43.1,25.1c5.3,3.1,11.7,3.1,17,0l43.1-25.1c5.3-3.1,8.5-8.7,8.5-14.8
			v-50.1c0-6.1-3.2-11.8-8.5-14.8l-43.1-25.1c-5.3-3.1-11.7-3.1-17,0l-43.1,25.1c-5.3,3.1-8.5,8.7-8.5,14.8V819.6z"/>
		<path class="st1" d="M1359.9,819.6c0,6.1,3.2,11.8,8.5,14.8l43.1,25.1c5.3,3.1,11.7,3.1,17,0l43.1-25.1c5.3-3.1,8.5-8.7,8.5-14.8
			v-50.1c0-6.1-3.2-11.8-8.5-14.8l-43.1-25.1c-5.3-3.1-11.7-3.1-17,0l-43.1,25.1c-5.3,3.1-8.5,8.7-8.5,14.8V819.6z"/>
		<path class="st1" d="M1224.5,577.3c0,6.1,3.2,11.8,8.5,14.8l43.1,25.1c5.3,3.1,11.7,3.1,17,0l43.1-25.1c5.3-3.1,8.5-8.7,8.5-14.8
			v-50.1c0-6.1-3.2-11.8-8.5-14.8l-43.1-25.1c-5.3-3.1-11.7-3.1-17,0l-43.1,25.1c-5.3,3.1-8.5,8.7-8.5,14.8V577.3z"/>
		<path class="st1" d="M1359.9,577.3c0,6.1,3.2,11.8,8.5,14.8l43.1,25.1c5.3,3.1,11.7,3.1,17,0l43.1-25.1c5.3-3.1,8.5-8.7,8.5-14.8
			v-50.1c0-6.1-3.2-11.8-8.5-14.8l-43.1-25.1c-5.3-3.1-11.7-3.1-17,0l-43.1,25.1c-5.3,3.1-8.5,8.7-8.5,14.8V577.3z"/>
		<path class="st1" d="M1499,819.6c0,6.1,3.2,11.8,8.5,14.8l43.1,25.1c5.3,3.1,11.7,3.1,17,0l43.1-25.1c5.3-3.1,8.5-8.7,8.5-14.8
			v-50.1c0-6.1-3.2-11.8-8.5-14.8l-43.1-25.1c-5.3-3.1-11.7-3.1-17,0l-43.1,25.1c-5.3,3.1-8.5,8.7-8.5,14.8V819.6z"/>
		<path class="st1" d="M1499,577.3c0,6.1,3.2,11.8,8.5,14.8l43.1,25.1c5.3,3.1,11.7,3.1,17,0l43.1-25.1c5.3-3.1,8.5-8.7,8.5-14.8
			v-50.1c0-6.1-3.2-11.8-8.5-14.8l-43.1-25.1c-5.3-3.1-11.7-3.1-17,0l-43.1,25.1c-5.3,3.1-8.5,8.7-8.5,14.8V577.3z"/>
		<path class="st1" d="M1637,577.4c0,6.1,3.2,11.8,8.5,14.8l43.1,25.1c5.3,3.1,11.7,3.1,17,0l43.1-25.1c5.3-3.1,8.5-8.7,8.5-14.8
			v-50.1c0-6.1-3.2-11.8-8.5-14.8l-43.1-25.1c-5.3-3.1-11.7-3.1-17,0l-43.1,25.1c-5.3,3.1-8.5,8.7-8.5,14.8V577.4z"/>
		<path class="st1" d="M1499,92.4c0,6.1,3.2,11.8,8.5,14.8l43.1,25.1c5.3,3.1,11.7,3.1,17,0l43.1-25.1c5.3-3.1,8.5-8.7,8.5-14.8
			V42.2c0-6.1-3.2-11.8-8.5-14.8l-43.1-25.1c-5.3-3.1-11.7-3.1-17,0l-43.1,25.1c-5.3,3.1-8.5,8.7-8.5,14.8V92.4z"/>
		<path class="st1" d="M1224.5,338c0,6.1,3.2,11.8,8.5,14.8l43.1,25.1c5.3,3.1,11.7,3.1,17,0l43.1-25.1c5.3-3.1,8.5-8.7,8.5-14.8
			v-50.1c0-6.1-3.2-11.8-8.5-14.8l-43.1-25.1c-5.3-3.1-11.7-3.1-17,0L1233,273c-5.3,3.1-8.5,8.7-8.5,14.8V338z"/>
		<path class="st1" d="M1359.9,338c0,6.1,3.2,11.8,8.5,14.8l43.1,25.1c5.3,3.1,11.7,3.1,17,0l43.1-25.1c5.3-3.1,8.5-8.7,8.5-14.8
			v-50.1c0-6.1-3.2-11.8-8.5-14.8l-43.1-25.1c-5.3-3.1-11.7-3.1-17,0l-43.1,25.1c-5.3,3.1-8.5,8.7-8.5,14.8V338z"/>
		<path class="st1" d="M1499,338c0,6.1,3.2,11.8,8.5,14.8l43.1,25.1c5.3,3.1,11.7,3.1,17,0l43.1-25.1c5.3-3.1,8.5-8.7,8.5-14.8
			v-50.1c0-6.1-3.2-11.8-8.5-14.8l-43.1-25.1c-5.3-3.1-11.7-3.1-17,0l-43.1,25.1c-5.3,3.1-8.5,8.7-8.5,14.8V338z"/>
		<path class="st1" d="M1637,338.4c0,6.1,3.2,11.8,8.5,14.8l43.1,25.1c5.3,3.1,11.7,3.1,17,0l43.1-25.1c5.3-3.1,8.5-8.7,8.5-14.8
			v-50.1c0-6.1-3.2-11.8-8.5-14.8l-43.1-25.1c-5.3-3.1-11.7-3.1-17,0l-43.1,25.1c-5.3,3.1-8.5,8.7-8.5,14.8V338.4z"/>
		<path class="st1" d="M1776,338.4c0,6.1,3.2,11.8,8.5,14.8l43.1,25.1c5.3,3.1,11.7,3.1,17,0l43.1-25.1c5.3-3.1,8.5-8.7,8.5-14.8
			v-50.1c0-6.1-3.2-11.8-8.5-14.8l-43.1-25.1c-5.3-3.1-11.7-3.1-17,0l-43.1,25.1c-5.3,3.1-8.5,8.7-8.5,14.8V338.4z"/>
		<path class="st1" d="M1430.4,696.9c0,6.1,3.2,11.8,8.5,14.8l43.1,25.1c5.3,3.1,11.7,3.1,17,0l43.1-25.1c5.3-3.1,8.5-8.7,8.5-14.8
			v-50.1c0-6.1-3.2-11.8-8.5-14.8l-43.1-25.1c-5.3-3.1-11.7-3.1-17,0l-43.1,25.1c-5.3,3.1-8.5,8.7-8.5,14.8V696.9z"/>
		<path class="st1" d="M1020,697.4c0,6.1,3.2,11.8,8.5,14.8l43.1,25.1c5.3,3.1,11.7,3.1,17,0l43.1-25.1c5.3-3.1,8.5-8.7,8.5-14.8
			v-50.1c0-6.1-3.2-11.8-8.5-14.8l-43.1-25.1c-5.3-3.1-11.7-3.1-17,0l-43.1,25.1c-5.3,3.1-8.5,8.7-8.5,14.8V697.4z"/>
		<path class="st1" d="M1158,697.4c0,6.1,3.2,11.8,8.5,14.8l43.1,25.1c5.3,3.1,11.7,3.1,17,0l43.1-25.1c5.3-3.1,8.5-8.7,8.5-14.8
			v-50.1c0-6.1-3.2-11.8-8.5-14.8l-43.1-25.1c-5.3-3.1-11.7-3.1-17,0l-43.1,25.1c-5.3,3.1-8.5,8.7-8.5,14.8V697.4z"/>
		<path class="st1" d="M1290.4,458.1c0,6.1,3.2,11.8,8.5,14.8L1342,498c5.3,3.1,11.7,3.1,17,0L1402,473c5.3-3.1,8.5-8.7,8.5-14.8
			V408c0-6.1-3.2-11.8-8.5-14.8l-43.1-25.1c-5.3-3.1-11.7-3.1-17,0l-43.1,25.1c-5.3,3.1-8.5,8.7-8.5,14.8V458.1z"/>
		<path class="st1" d="M1430.4,458.1c0,6.1,3.2,11.8,8.5,14.8l43.1,25.1c5.3,3.1,11.7,3.1,17,0L1542,473c5.3-3.1,8.5-8.7,8.5-14.8
			V408c0-6.1-3.2-11.8-8.5-14.8l-43.1-25.1c-5.3-3.1-11.7-3.1-17,0l-43.1,25.1c-5.3,3.1-8.5,8.7-8.5,14.8V458.1z"/>
		<path class="st1" d="M1566.7,458.1c0,6.1,3.2,11.8,8.5,14.8l43.1,25.1c5.3,3.1,11.7,3.1,17,0l43.1-25.1c5.3-3.1,8.5-8.7,8.5-14.8
			V408c0-6.1-3.2-11.8-8.5-14.8l-43.1-25.1c-5.3-3.1-11.7-3.1-17,0l-43.1,25.1c-5.3,3.1-8.5,8.7-8.5,14.8V458.1z"/>
		<path class="st1" d="M1290.4,213.9c0,6.1,3.2,11.8,8.5,14.8l43.1,25.1c5.3,3.1,11.7,3.1,17,0l43.1-25.1c5.3-3.1,8.5-8.7,8.5-14.8
			v-50.1c0-6.1-3.2-11.8-8.5-14.8l-43.1-25.1c-5.3-3.1-11.7-3.1-17,0l-43.1,25.1c-5.3,3.1-8.5,8.7-8.5,14.8V213.9z"/>
		<path class="st1" d="M1156.7,213.9c0,6.1,3.2,11.8,8.5,14.8l43.1,25.1c5.3,3.1,11.7,3.1,17,0l43.1-25.1c5.3-3.1,8.5-8.7,8.5-14.8
			v-50.1c0-6.1-3.2-11.8-8.5-14.8l-43.1-25.1c-5.3-3.1-11.7-3.1-17,0l-43.1,25.1c-5.3,3.1-8.5,8.7-8.5,14.8V213.9z"/>
		<path class="st1" d="M1089,93.3c0,6.1,3.2,11.8,8.5,14.8l43.1,25.1c5.3,3.1,11.7,3.1,17,0l43.1-25.1c5.3-3.1,8.5-8.7,8.5-14.8
			V43.1c0-6.1-3.2-11.8-8.5-14.8l-43.1-25.1c-5.3-3.1-11.7-3.1-17,0l-43.1,25.1c-5.3,3.1-8.5,8.7-8.5,14.8V93.3z"/>
		<path class="st1" d="M1430.4,213.9c0,6.1,3.2,11.8,8.5,14.8l43.1,25.1c5.3,3.1,11.7,3.1,17,0l43.1-25.1c5.3-3.1,8.5-8.7,8.5-14.8
			v-50.1c0-6.1-3.2-11.8-8.5-14.8l-43.1-25.1c-5.3-3.1-11.7-3.1-17,0l-43.1,25.1c-5.3,3.1-8.5,8.7-8.5,14.8V213.9z"/>
		<path class="st1" d="M338.5,1416.6c0,6.1,3.2,11.8,8.5,14.8l43.1,25.1c5.3,3.1,11.7,3.1,17,0l43.1-25.1c5.3-3.1,8.5-8.7,8.5-14.8
			v-50.1c0-6.1-3.2-11.8-8.5-14.8l-43.1-25.1c-5.3-3.1-11.7-3.1-17,0l-43.1,25.1c-5.3,3.1-8.5,8.7-8.5,14.8V1416.6z"/>
		<path class="st1" d="M473.9,1416.6c0,6.1,3.2,11.8,8.5,14.8l43.1,25.1c5.3,3.1,11.7,3.1,17,0l43.1-25.1c5.3-3.1,8.5-8.7,8.5-14.8
			v-50.1c0-6.1-3.2-11.8-8.5-14.8l-43.1-25.1c-5.3-3.1-11.7-3.1-17,0l-43.1,25.1c-5.3,3.1-8.5,8.7-8.5,14.8V1416.6z"/>
		<path class="st1" d="M613,1416.6c0,6.1,3.2,11.8,8.5,14.8l43.1,25.1c5.3,3.1,11.7,3.1,17,0l43.1-25.1c5.3-3.1,8.5-8.7,8.5-14.8
			v-50.1c0-6.1-3.2-11.8-8.5-14.8l-43.1-25.1c-5.3-3.1-11.7-3.1-17,0l-43.1,25.1c-5.3,3.1-8.5,8.7-8.5,14.8V1416.6z"/>
		<path class="st1" d="M338.5,938.6c0,6.1,3.2,11.8,8.5,14.8l43.1,25.1c5.3,3.1,11.7,3.1,17,0l43.1-25.1c5.3-3.1,8.5-8.7,8.5-14.8
			v-50.1c0-6.1-3.2-11.8-8.5-14.8L407,848.5c-5.3-3.1-11.7-3.1-17,0L347,873.6c-5.3,3.1-8.5,8.7-8.5,14.8V938.6z"/>
		<path class="st1" d="M613,938.6c0,6.1,3.2,11.8,8.5,14.8l43.1,25.1c5.3,3.1,11.7,3.1,17,0l43.1-25.1c5.3-3.1,8.5-8.7,8.5-14.8
			v-50.1c0-6.1-3.2-11.8-8.5-14.8l-43.1-25.1c-5.3-3.1-11.7-3.1-17,0l-43.1,25.1c-5.3,3.1-8.5,8.7-8.5,14.8V938.6z"/>
		<path class="st1" d="M338.5,1177.3c0,6.1,3.2,11.8,8.5,14.8l43.1,25.1c5.3,3.1,11.7,3.1,17,0l43.1-25.1c5.3-3.1,8.5-8.7,8.5-14.8
			v-50.1c0-6.1-3.2-11.8-8.5-14.8l-43.1-25.1c-5.3-3.1-11.7-3.1-17,0l-43.1,25.1c-5.3,3.1-8.5,8.7-8.5,14.8V1177.3z"/>
		<path class="st1" d="M473.9,1177.3c0,6.1,3.2,11.8,8.5,14.8l43.1,25.1c5.3,3.1,11.7,3.1,17,0l43.1-25.1c5.3-3.1,8.5-8.7,8.5-14.8
			v-50.1c0-6.1-3.2-11.8-8.5-14.8l-43.1-25.1c-5.3-3.1-11.7-3.1-17,0l-43.1,25.1c-5.3,3.1-8.5,8.7-8.5,14.8V1177.3z"/>
		<path class="st1" d="M613,1177.3c0,6.1,3.2,11.8,8.5,14.8l43.1,25.1c5.3,3.1,11.7,3.1,17,0l43.1-25.1c5.3-3.1,8.5-8.7,8.5-14.8
			v-50.1c0-6.1-3.2-11.8-8.5-14.8l-43.1-25.1c-5.3-3.1-11.7-3.1-17,0l-43.1,25.1c-5.3,3.1-8.5,8.7-8.5,14.8V1177.3z"/>
		<path class="st1" d="M748,1177.6c0,6.1,3.2,11.8,8.5,14.8l43.1,25.1c5.3,3.1,11.7,3.1,17,0l43.1-25.1c5.3-3.1,8.5-8.7,8.5-14.8
			v-50.1c0-6.1-3.2-11.8-8.5-14.8l-43.1-25.1c-5.3-3.1-11.7-3.1-17,0l-43.1,25.1c-5.3,3.1-8.5,8.7-8.5,14.8V1177.6z"/>
		<path class="st1" d="M404.4,1297.4c0,6.1,3.2,11.8,8.5,14.8l43.1,25.1c5.3,3.1,11.7,3.1,17,0l43.1-25.1c5.3-3.1,8.5-8.7,8.5-14.8
			v-50.1c0-6.1-3.2-11.8-8.5-14.8l-43.1-25.1c-5.3-3.1-11.7-3.1-17,0l-43.1,25.1c-5.3,3.1-8.5,8.7-8.5,14.8V1297.4z"/>
		<path class="st1" d="M544.4,1297.4c0,6.1,3.2,11.8,8.5,14.8l43.1,25.1c5.3,3.1,11.7,3.1,17,0l43.1-25.1c5.3-3.1,8.5-8.7,8.5-14.8
			v-50.1c0-6.1-3.2-11.8-8.5-14.8l-43.1-25.1c-5.3-3.1-11.7-3.1-17,0l-43.1,25.1c-5.3,3.1-8.5,8.7-8.5,14.8V1297.4z"/>
		<path class="st1" d="M680.7,1297.4c0,6.1,3.2,11.8,8.5,14.8l43.1,25.1c5.3,3.1,11.7,3.1,17,0l43.1-25.1c5.3-3.1,8.5-8.7,8.5-14.8
			v-50.1c0-6.1-3.2-11.8-8.5-14.8l-43.1-25.1c-5.3-3.1-11.7-3.1-17,0l-43.1,25.1c-5.3,3.1-8.5,8.7-8.5,14.8V1297.4z"/>
		<path class="st1" d="M405.4,1058.1c0,6.1,3.2,11.8,8.5,14.8L457,1098c5.3,3.1,11.7,3.1,17,0L517,1073c5.3-3.1,8.5-8.7,8.5-14.8
			V1008c0-6.1-3.2-11.8-8.5-14.8l-43.1-25.1c-5.3-3.1-11.7-3.1-17,0l-43.1,25.1c-5.3,3.1-8.5,8.7-8.5,14.8V1058.1z"/>
		<path class="st1" d="M270.7,1058.1c0,6.1,3.2,11.8,8.5,14.8l43.1,25.1c5.3,3.1,11.7,3.1,17,0l43.1-25.1c5.3-3.1,8.5-8.7,8.5-14.8
			V1008c0-6.1-3.2-11.8-8.5-14.8l-43.1-25.1c-5.3-3.1-11.7-3.1-17,0l-43.1,25.1c-5.3,3.1-8.5,8.7-8.5,14.8V1058.1z"/>
		<path class="st1" d="M203,939.5c0,6.1,3.2,11.8,8.5,14.8l43.1,25.1c5.3,3.1,11.7,3.1,17,0l43.1-25.1c5.3-3.1,8.5-8.7,8.5-14.8
			v-50.1c0-6.1-3.2-11.8-8.5-14.8l-43.1-25.1c-5.3-3.1-11.7-3.1-17,0l-43.1,25.1c-5.3,3.1-8.5,8.7-8.5,14.8V939.5z"/>
		<path class="st1" d="M542.4,1058.1c0,6.1,3.2,11.8,8.5,14.8l43.1,25.1c5.3,3.1,11.7,3.1,17,0L654,1073c5.3-3.1,8.5-8.7,8.5-14.8
			V1008c0-6.1-3.2-11.8-8.5-14.8l-43.1-25.1c-5.3-3.1-11.7-3.1-17,0l-43.1,25.1c-5.3,3.1-8.5,8.7-8.5,14.8V1058.1z"/>
		<path class="st1" d="M882.5,1416.3c0,6.1,3.2,11.8,8.5,14.8l43.1,25.1c5.3,3.1,11.7,3.1,17,0l43.1-25.1c5.3-3.1,8.5-8.7,8.5-14.8
			v-50.1c0-6.1-3.2-11.8-8.5-14.8l-43.1-25.1c-5.3-3.1-11.7-3.1-17,0l-43.1,25.1c-5.3,3.1-8.5,8.7-8.5,14.8V1416.3z"/>
		<path class="st1" d="M1157,1416.3c0,6.1,3.2,11.8,8.5,14.8l43.1,25.1c5.3,3.1,11.7,3.1,17,0l43.1-25.1c5.3-3.1,8.5-8.7,8.5-14.8
			v-50.1c0-6.1-3.2-11.8-8.5-14.8l-43.1-25.1c-5.3-3.1-11.7-3.1-17,0l-43.1,25.1c-5.3,3.1-8.5,8.7-8.5,14.8V1416.3z"/>
		<path class="st1" d="M882.5,938.4c0,6.1,3.2,11.8,8.5,14.8l43.1,25.1c5.3,3.1,11.7,3.1,17,0l43.1-25.1c5.3-3.1,8.5-8.7,8.5-14.8
			v-50.1c0-6.1-3.2-11.8-8.5-14.8L951,848.3c-5.3-3.1-11.7-3.1-17,0L891,873.4c-5.3,3.1-8.5,8.7-8.5,14.8V938.4z"/>
		<path class="st1" d="M1017.9,938.4c0,6.1,3.2,11.8,8.5,14.8l43.1,25.1c5.3,3.1,11.7,3.1,17,0l43.1-25.1c5.3-3.1,8.5-8.7,8.5-14.8
			v-50.1c0-6.1-3.2-11.8-8.5-14.8l-43.1-25.1c-5.3-3.1-11.7-3.1-17,0l-43.1,25.1c-5.3,3.1-8.5,8.7-8.5,14.8V938.4z"/>
		<path class="st1" d="M1157,938.4c0,6.1,3.2,11.8,8.5,14.8l43.1,25.1c5.3,3.1,11.7,3.1,17,0l43.1-25.1c5.3-3.1,8.5-8.7,8.5-14.8
			v-50.1c0-6.1-3.2-11.8-8.5-14.8l-43.1-25.1c-5.3-3.1-11.7-3.1-17,0l-43.1,25.1c-5.3,3.1-8.5,8.7-8.5,14.8V938.4z"/>
		<path class="st1" d="M882.5,1177c0,6.1,3.2,11.8,8.5,14.8l43.1,25.1c5.3,3.1,11.7,3.1,17,0l43.1-25.1c5.3-3.1,8.5-8.7,8.5-14.8
			v-50.1c0-6.1-3.2-11.8-8.5-14.8l-43.1-25.1c-5.3-3.1-11.7-3.1-17,0L891,1112c-5.3,3.1-8.5,8.7-8.5,14.8V1177z"/>
		<path class="st1" d="M1017.9,1177c0,6.1,3.2,11.8,8.5,14.8l43.1,25.1c5.3,3.1,11.7,3.1,17,0l43.1-25.1c5.3-3.1,8.5-8.7,8.5-14.8
			v-50.1c0-6.1-3.2-11.8-8.5-14.8l-43.1-25.1c-5.3-3.1-11.7-3.1-17,0l-43.1,25.1c-5.3,3.1-8.5,8.7-8.5,14.8V1177z"/>
		<path class="st1" d="M1157,1177c0,6.1,3.2,11.8,8.5,14.8l43.1,25.1c5.3,3.1,11.7,3.1,17,0l43.1-25.1c5.3-3.1,8.5-8.7,8.5-14.8
			v-50.1c0-6.1-3.2-11.8-8.5-14.8l-43.1-25.1c-5.3-3.1-11.7-3.1-17,0l-43.1,25.1c-5.3,3.1-8.5,8.7-8.5,14.8V1177z"/>
		<path class="st1" d="M1291,1177.4c0,6.1,3.2,11.8,8.5,14.8l43.1,25.1c5.3,3.1,11.7,3.1,17,0l43.1-25.1c5.3-3.1,8.5-8.7,8.5-14.8
			v-50.1c0-6.1-3.2-11.8-8.5-14.8l-43.1-25.1c-5.3-3.1-11.7-3.1-17,0l-43.1,25.1c-5.3,3.1-8.5,8.7-8.5,14.8V1177.4z"/>
		<path class="st1" d="M948.4,1297.1c0,6.1,3.2,11.8,8.5,14.8l43.1,25.1c5.3,3.1,11.7,3.1,17,0l43.1-25.1c5.3-3.1,8.5-8.7,8.5-14.8
			V1247c0-6.1-3.2-11.8-8.5-14.8l-43.1-25.1c-5.3-3.1-11.7-3.1-17,0l-43.1,25.1c-5.3,3.1-8.5,8.7-8.5,14.8V1297.1z"/>
		<path class="st1" d="M1088.4,1297.1c0,6.1,3.2,11.8,8.5,14.8l43.1,25.1c5.3,3.1,11.7,3.1,17,0l43.1-25.1c5.3-3.1,8.5-8.7,8.5-14.8
			V1247c0-6.1-3.2-11.8-8.5-14.8l-43.1-25.1c-5.3-3.1-11.7-3.1-17,0l-43.1,25.1c-5.3,3.1-8.5,8.7-8.5,14.8V1297.1z"/>
		<path class="st1" d="M1224.7,1297.1c0,6.1,3.2,11.8,8.5,14.8l43.1,25.1c5.3,3.1,11.7,3.1,17,0l43.1-25.1c5.3-3.1,8.5-8.7,8.5-14.8
			V1247c0-6.1-3.2-11.8-8.5-14.8l-43.1-25.1c-5.3-3.1-11.7-3.1-17,0l-43.1,25.1c-5.3,3.1-8.5,8.7-8.5,14.8V1297.1z"/>
		<path class="st1" d="M948.4,1057.9c0,6.1,3.2,11.8,8.5,14.8l43.1,25.1c5.3,3.1,11.7,3.1,17,0l43.1-25.1c5.3-3.1,8.5-8.7,8.5-14.8
			v-50.1c0-6.1-3.2-11.8-8.5-14.8l-43.1-25.1c-5.3-3.1-11.7-3.1-17,0l-43.1,25.1c-5.3,3.1-8.5,8.7-8.5,14.8V1057.9z"/>
		<path class="st1" d="M814.7,1057.9c0,6.1,3.2,11.8,8.5,14.8l43.1,25.1c5.3,3.1,11.7,3.1,17,0l43.1-25.1c5.3-3.1,8.5-8.7,8.5-14.8
			v-50.1c0-6.1-3.2-11.8-8.5-14.8l-43.1-25.1c-5.3-3.1-11.7-3.1-17,0l-43.1,25.1c-5.3,3.1-8.5,8.7-8.5,14.8V1057.9z"/>
		<path class="st1" d="M747,939.3c0,6.1,3.2,11.8,8.5,14.8l43.1,25.1c5.3,3.1,11.7,3.1,17,0l43.1-25.1c5.3-3.1,8.5-8.7,8.5-14.8
			v-50.1c0-6.1-3.2-11.8-8.5-14.8l-43.1-25.1c-5.3-3.1-11.7-3.1-17,0l-43.1,25.1c-5.3,3.1-8.5,8.7-8.5,14.8V939.3z"/>
		<path class="st1" d="M1428.5,1416.6c0,6.1,3.2,11.8,8.5,14.8l43.1,25.1c5.3,3.1,11.7,3.1,17,0l43.1-25.1c5.3-3.1,8.5-8.7,8.5-14.8
			v-50.1c0-6.1-3.2-11.8-8.5-14.8l-43.1-25.1c-5.3-3.1-11.7-3.1-17,0l-43.1,25.1c-5.3,3.1-8.5,8.7-8.5,14.8V1416.6z"/>
		<path class="st1" d="M1563.9,1416.6c0,6.1,3.2,11.8,8.5,14.8l43.1,25.1c5.3,3.1,11.7,3.1,17,0l43.1-25.1c5.3-3.1,8.5-8.7,8.5-14.8
			v-50.1c0-6.1-3.2-11.8-8.5-14.8l-43.1-25.1c-5.3-3.1-11.7-3.1-17,0l-43.1,25.1c-5.3,3.1-8.5,8.7-8.5,14.8V1416.6z"/>
		<path class="st1" d="M1703,1416.6c0,6.1,3.2,11.8,8.5,14.8l43.1,25.1c5.3,3.1,11.7,3.1,17,0l43.1-25.1c5.3-3.1,8.5-8.7,8.5-14.8
			v-50.1c0-6.1-3.2-11.8-8.5-14.8l-43.1-25.1c-5.3-3.1-11.7-3.1-17,0l-43.1,25.1c-5.3,3.1-8.5,8.7-8.5,14.8V1416.6z"/>
		<path class="st1" d="M1428.5,938.6c0,6.1,3.2,11.8,8.5,14.8l43.1,25.1c5.3,3.1,11.7,3.1,17,0l43.1-25.1c5.3-3.1,8.5-8.7,8.5-14.8
			v-50.1c0-6.1-3.2-11.8-8.5-14.8l-43.1-25.1c-5.3-3.1-11.7-3.1-17,0l-43.1,25.1c-5.3,3.1-8.5,8.7-8.5,14.8V938.6z"/>
		<path class="st1" d="M1701,938.6c0,6.1,3.2,11.8,8.5,14.8l43.1,25.1c5.3,3.1,11.7,3.1,17,0l43.1-25.1c5.3-3.1,8.5-8.7,8.5-14.8
			v-50.1c0-6.1-3.2-11.8-8.5-14.8l-43.1-25.1c-5.3-3.1-11.7-3.1-17,0l-43.1,25.1c-5.3,3.1-8.5,8.7-8.5,14.8V938.6z"/>
		<path class="st1" d="M1428.5,1177.3c0,6.1,3.2,11.8,8.5,14.8l43.1,25.1c5.3,3.1,11.7,3.1,17,0l43.1-25.1c5.3-3.1,8.5-8.7,8.5-14.8
			v-50.1c0-6.1-3.2-11.8-8.5-14.8l-43.1-25.1c-5.3-3.1-11.7-3.1-17,0l-43.1,25.1c-5.3,3.1-8.5,8.7-8.5,14.8V1177.3z"/>
		<path class="st1" d="M1563.9,1177.3c0,6.1,3.2,11.8,8.5,14.8l43.1,25.1c5.3,3.1,11.7,3.1,17,0l43.1-25.1c5.3-3.1,8.5-8.7,8.5-14.8
			v-50.1c0-6.1-3.2-11.8-8.5-14.8l-43.1-25.1c-5.3-3.1-11.7-3.1-17,0l-43.1,25.1c-5.3,3.1-8.5,8.7-8.5,14.8V1177.3z"/>
		<path class="st1" d="M1703,1177.3c0,6.1,3.2,11.8,8.5,14.8l43.1,25.1c5.3,3.1,11.7,3.1,17,0l43.1-25.1c5.3-3.1,8.5-8.7,8.5-14.8
			v-50.1c0-6.1-3.2-11.8-8.5-14.8l-43.1-25.1c-5.3-3.1-11.7-3.1-17,0l-43.1,25.1c-5.3,3.1-8.5,8.7-8.5,14.8V1177.3z"/>
		<path class="st1" d="M1494.4,1297.4c0,6.1,3.2,11.8,8.5,14.8l43.1,25.1c5.3,3.1,11.7,3.1,17,0l43.1-25.1c5.3-3.1,8.5-8.7,8.5-14.8
			v-50.1c0-6.1-3.2-11.8-8.5-14.8l-43.1-25.1c-5.3-3.1-11.7-3.1-17,0l-43.1,25.1c-5.3,3.1-8.5,8.7-8.5,14.8V1297.4z"/>
		<path class="st1" d="M1634.4,1297.4c0,6.1,3.2,11.8,8.5,14.8l43.1,25.1c5.3,3.1,11.7,3.1,17,0l43.1-25.1c5.3-3.1,8.5-8.7,8.5-14.8
			v-50.1c0-6.1-3.2-11.8-8.5-14.8l-43.1-25.1c-5.3-3.1-11.7-3.1-17,0l-43.1,25.1c-5.3,3.1-8.5,8.7-8.5,14.8V1297.4z"/>
		<path class="st1" d="M1770.7,1297.4c0,6.1,3.2,11.8,8.5,14.8l43.1,25.1c5.3,3.1,11.7,3.1,17,0l43.1-25.1c5.3-3.1,8.5-8.7,8.5-14.8
			v-50.1c0-6.1-3.2-11.8-8.5-14.8l-43.1-25.1c-5.3-3.1-11.7-3.1-17,0l-43.1,25.1c-5.3,3.1-8.5,8.7-8.5,14.8V1297.4z"/>
		<path class="st1" d="M1496.4,1058.1c0,6.1,3.2,11.8,8.5,14.8l43.1,25.1c5.3,3.1,11.7,3.1,17,0l43.1-25.1c5.3-3.1,8.5-8.7,8.5-14.8
			V1008c0-6.1-3.2-11.8-8.5-14.8l-43.1-25.1c-5.3-3.1-11.7-3.1-17,0l-43.1,25.1c-5.3,3.1-8.5,8.7-8.5,14.8V1058.1z"/>
		<path class="st1" d="M1360.7,1058.1c0,6.1,3.2,11.8,8.5,14.8l43.1,25.1c5.3,3.1,11.7,3.1,17,0l43.1-25.1c5.3-3.1,8.5-8.7,8.5-14.8
			V1008c0-6.1-3.2-11.8-8.5-14.8l-43.1-25.1c-5.3-3.1-11.7-3.1-17,0l-43.1,25.1c-5.3,3.1-8.5,8.7-8.5,14.8V1058.1z"/>
		<path class="st1" d="M1293,939.5c0,6.1,3.2,11.8,8.5,14.8l43.1,25.1c5.3,3.1,11.7,3.1,17,0l43.1-25.1c5.3-3.1,8.5-8.7,8.5-14.8
			v-50.1c0-6.1-3.2-11.8-8.5-14.8l-43.1-25.1c-5.3-3.1-11.7-3.1-17,0l-43.1,25.1c-5.3,3.1-8.5,8.7-8.5,14.8V939.5z"/>
		<path class="st1" d="M1632.4,1058.1c0,6.1,3.2,11.8,8.5,14.8l43.1,25.1c5.3,3.1,11.7,3.1,17,0l43.1-25.1c5.3-3.1,8.5-8.7,8.5-14.8
			V1008c0-6.1-3.2-11.8-8.5-14.8l-43.1-25.1c-5.3-3.1-11.7-3.1-17,0l-43.1,25.1c-5.3,3.1-8.5,8.7-8.5,14.8V1058.1z"/>
	</g>
</g>
</svg>
