<svg xmlns="http://www.w3.org/2000/svg" id="Layer_1" data-name="Layer 1" viewBox="0 0 757.5 1914.5">
    <defs>
        <style>
            .cls-1{fill:#fff;fill-opacity:.4;fill-rule:evenodd}.cls-2{opacity:.4}.cls-3{fill:none;stroke:#bebebe}
        </style>
    </defs>
    <g id="Homepage">
        <g id="Terra-LP-Copy">
            <g id="Group-2">
                <g id="Group">
                    <g id="Group-8">
                        <path id="Fill-7" d="M179 1262.83a11.88 11.88 0 0 0 5.87 10.26l29.76 17.32a11.63 11.63 0 0 0 11.74 0l29.76-17.32a11.88 11.88 0 0 0 5.87-10.26v-34.66a11.85 11.85 0 0 0-5.87-10.25l-29.76-17.33a11.63 11.63 0 0 0-11.74 0l-29.76 17.33a11.85 11.85 0 0 0-5.87 10.25z" class="cls-1" transform="translate(-.5 21)"/>
                        <path d="M263 1262.83a11.88 11.88 0 0 0 5.87 10.26l29.76 17.32a11.63 11.63 0 0 0 11.74 0l29.76-17.32a11.88 11.88 0 0 0 5.87-10.26v-34.66a11.85 11.85 0 0 0-5.87-10.25l-29.76-17.33a11.63 11.63 0 0 0-11.74 0l-29.76 17.33a11.85 11.85 0 0 0-5.87 10.25z" class="cls-1" transform="translate(-.5 21)"/>
                    </g>
                    <path d="M308 1190.83a11.88 11.88 0 0 0 5.87 10.26l29.76 17.32a11.63 11.63 0 0 0 11.74 0l29.76-17.32a11.88 11.88 0 0 0 5.87-10.26v-34.66a11.85 11.85 0 0 0-5.87-10.25l-29.76-17.33a11.63 11.63 0 0 0-11.74 0l-29.76 17.33a11.85 11.85 0 0 0-5.87 10.25zM392 1190.83a11.88 11.88 0 0 0 5.87 10.26l29.76 17.32a11.63 11.63 0 0 0 11.74 0l29.76-17.32a11.88 11.88 0 0 0 5.87-10.26v-34.66a11.85 11.85 0 0 0-5.87-10.25l-29.76-17.33a11.63 11.63 0 0 0-11.74 0l-29.76 17.33a11.85 11.85 0 0 0-5.87 10.25z" class="cls-1" transform="translate(-.5 21)"/>
                    <g id="Group-10">
                        <path d="M548 1228.83a11.88 11.88 0 0 0 5.87 10.26l29.76 17.32a11.63 11.63 0 0 0 11.74 0l29.76-17.32a11.88 11.88 0 0 0 5.87-10.26v-34.66a11.85 11.85 0 0 0-5.87-10.25l-29.76-17.33a11.63 11.63 0 0 0-11.74 0l-29.76 17.33a11.85 11.85 0 0 0-5.87 10.25zM590 1301.83a11.88 11.88 0 0 0 5.87 10.26l29.76 17.32a11.63 11.63 0 0 0 11.74 0l29.76-17.32a11.88 11.88 0 0 0 5.87-10.26v-34.66a11.85 11.85 0 0 0-5.87-10.25l-29.76-17.33a11.63 11.63 0 0 0-11.74 0l-29.76 17.33a11.85 11.85 0 0 0-5.87 10.25zM547 1374.83a11.88 11.88 0 0 0 5.87 10.26l29.76 17.32a11.63 11.63 0 0 0 11.74 0l29.76-17.32a11.88 11.88 0 0 0 5.87-10.26v-34.66a11.85 11.85 0 0 0-5.87-10.25l-29.76-17.33a11.63 11.63 0 0 0-11.74 0l-29.76 17.33a11.85 11.85 0 0 0-5.87 10.25z" class="cls-1" transform="translate(-.5 21)"/>
                    </g>
                    <path d="M758 1267.17a11.88 11.88 0 0 0-5.87-10.26l-29.76-17.32a11.63 11.63 0 0 0-11.74 0l-29.76 17.32a11.88 11.88 0 0 0-5.87 10.26v34.66a11.85 11.85 0 0 0 5.87 10.25l29.76 17.33a11.63 11.63 0 0 0 11.74 0l29.76-17.33a11.85 11.85 0 0 0 5.87-10.25zM29 180.83a11.88 11.88 0 0 0 5.87 10.26l29.76 17.32a11.63 11.63 0 0 0 11.74 0l29.76-17.32a11.88 11.88 0 0 0 5.87-10.26v-34.66a11.85 11.85 0 0 0-5.87-10.25l-29.76-17.33a11.63 11.63 0 0 0-11.74 0l-29.76 17.33A11.85 11.85 0 0 0 29 146.17z" class="cls-1" transform="translate(-.5 21)"/>
                    <path d="M112 180.83a11.88 11.88 0 0 0 5.87 10.26l29.76 17.32a11.63 11.63 0 0 0 11.74 0l29.76-17.32a11.88 11.88 0 0 0 5.87-10.26v-34.66a11.85 11.85 0 0 0-5.87-10.25l-29.76-17.33a11.63 11.63 0 0 0-11.74 0l-29.76 17.33a11.85 11.85 0 0 0-5.87 10.25zM391 860.83a11.88 11.88 0 0 0 5.87 10.26l29.76 17.32a11.63 11.63 0 0 0 11.74 0l29.76-17.32a11.88 11.88 0 0 0 5.87-10.26v-34.66a11.85 11.85 0 0 0-5.87-10.25l-29.76-17.33a11.63 11.63 0 0 0-11.74 0l-29.76 17.33a11.85 11.85 0 0 0-5.87 10.25zM475 860.83a11.88 11.88 0 0 0 5.87 10.26l29.76 17.32a11.63 11.63 0 0 0 11.74 0l29.76-17.32a11.88 11.88 0 0 0 5.87-10.26v-34.66a11.85 11.85 0 0 0-5.87-10.25l-29.76-17.33a11.63 11.63 0 0 0-11.74 0l-29.76 17.33a11.85 11.85 0 0 0-5.87 10.25zM520 788.83a11.88 11.88 0 0 0 5.87 10.26l29.76 17.32a11.63 11.63 0 0 0 11.74 0l29.76-17.32a11.88 11.88 0 0 0 5.87-10.26v-34.66a11.85 11.85 0 0 0-5.87-10.25l-29.76-17.33a11.63 11.63 0 0 0-11.74 0l-29.76 17.33a11.85 11.85 0 0 0-5.87 10.25zM604 788.83a11.88 11.88 0 0 0 5.87 10.26l29.76 17.32a11.63 11.63 0 0 0 11.74 0l29.76-17.32a11.88 11.88 0 0 0 5.87-10.26v-34.66a11.85 11.85 0 0 0-5.87-10.25l-29.76-17.33a11.63 11.63 0 0 0-11.74 0l-29.76 17.33a11.85 11.85 0 0 0-5.87 10.25zM87 767.83a11.88 11.88 0 0 0 5.87 10.26l29.76 17.32a11.63 11.63 0 0 0 11.74 0l29.76-17.32a11.88 11.88 0 0 0 5.87-10.26v-34.66a11.85 11.85 0 0 0-5.87-10.25l-29.76-17.33a11.63 11.63 0 0 0-11.74 0l-29.76 17.33A11.85 11.85 0 0 0 87 733.17zM129 840.83a11.88 11.88 0 0 0 5.87 10.26l29.76 17.32a11.63 11.63 0 0 0 11.74 0l29.76-17.32a11.88 11.88 0 0 0 5.87-10.26v-34.66a11.85 11.85 0 0 0-5.87-10.25l-29.76-17.33a11.63 11.63 0 0 0-11.74 0l-29.76 17.33a11.85 11.85 0 0 0-5.87 10.25zM86 913.83a11.88 11.88 0 0 0 5.87 10.26l29.76 17.32a11.63 11.63 0 0 0 11.74 0l29.76-17.32a11.88 11.88 0 0 0 5.87-10.26v-34.66a11.85 11.85 0 0 0-5.87-10.25l-29.76-17.33a11.63 11.63 0 0 0-11.74 0l-29.76 17.33A11.85 11.85 0 0 0 86 879.17zM339 879.17a11.88 11.88 0 0 0-5.87-10.26l-29.76-17.32a11.63 11.63 0 0 0-11.74 0l-29.76 17.32a11.88 11.88 0 0 0-5.87 10.26v34.66a11.85 11.85 0 0 0 5.87 10.25l29.76 17.33a11.63 11.63 0 0 0 11.74 0l29.76-17.33a11.85 11.85 0 0 0 5.87-10.25zM297 806.17a11.88 11.88 0 0 0-5.87-10.26l-29.76-17.32a11.63 11.63 0 0 0-11.74 0l-29.76 17.32a11.88 11.88 0 0 0-5.87 10.26v34.66a11.85 11.85 0 0 0 5.87 10.25l29.76 17.33a11.63 11.63 0 0 0 11.74 0l29.76-17.33a11.85 11.85 0 0 0 5.87-10.25zM340 733.17a11.88 11.88 0 0 0-5.87-10.26l-29.76-17.32a11.63 11.63 0 0 0-11.74 0l-29.76 17.32a11.88 11.88 0 0 0-5.87 10.26v34.66a11.85 11.85 0 0 0 5.87 10.25l29.76 17.33a11.63 11.63 0 0 0 11.74 0l29.76-17.33a11.85 11.85 0 0 0 5.87-10.25zM566 518.83a11.88 11.88 0 0 0 5.87 10.26l29.76 17.32a11.63 11.63 0 0 0 11.74 0l29.76-17.32a11.88 11.88 0 0 0 5.87-10.26v-34.66a11.85 11.85 0 0 0-5.87-10.25l-29.76-17.33a11.63 11.63 0 0 0-11.74 0l-29.76 17.33a11.85 11.85 0 0 0-5.87 10.25zM608 591.83a11.88 11.88 0 0 0 5.87 10.26l29.76 17.32a11.63 11.63 0 0 0 11.74 0l29.76-17.32a11.88 11.88 0 0 0 5.87-10.26v-34.66a11.85 11.85 0 0 0-5.87-10.25l-29.76-17.33a11.63 11.63 0 0 0-11.74 0l-29.76 17.33a11.85 11.85 0 0 0-5.87 10.25zM565 664.83a11.88 11.88 0 0 0 5.87 10.26l29.76 17.32a11.63 11.63 0 0 0 11.74 0l29.76-17.32a11.88 11.88 0 0 0 5.87-10.26v-34.66a11.85 11.85 0 0 0-5.87-10.25l-29.76-17.33a11.63 11.63 0 0 0-11.74 0l-29.76 17.33a11.85 11.85 0 0 0-5.87 10.25zM504 1708.83a11.88 11.88 0 0 0 5.87 10.26l29.76 17.32a11.63 11.63 0 0 0 11.74 0l29.76-17.32a11.88 11.88 0 0 0 5.87-10.26v-34.66a11.85 11.85 0 0 0-5.87-10.25l-29.76-17.33a11.63 11.63 0 0 0-11.74 0l-29.76 17.33a11.85 11.85 0 0 0-5.87 10.25zM588 1708.83a11.88 11.88 0 0 0 5.87 10.26l29.76 17.32a11.63 11.63 0 0 0 11.74 0l29.76-17.32a11.88 11.88 0 0 0 5.87-10.26v-34.66a11.85 11.85 0 0 0-5.87-10.25l-29.76-17.33a11.63 11.63 0 0 0-11.74 0l-29.76 17.33a11.85 11.85 0 0 0-5.87 10.25zM633 1636.83a11.88 11.88 0 0 0 5.87 10.26l29.76 17.32a11.63 11.63 0 0 0 11.74 0l29.76-17.32a11.88 11.88 0 0 0 5.87-10.26v-34.66a11.85 11.85 0 0 0-5.87-10.25l-29.76-17.33a11.63 11.63 0 0 0-11.74 0l-29.76 17.33a11.85 11.85 0 0 0-5.87 10.25zM196 1632.83a11.88 11.88 0 0 0 5.87 10.26l29.76 17.32a11.63 11.63 0 0 0 11.74 0l29.76-17.32a11.88 11.88 0 0 0 5.87-10.26v-34.66a11.85 11.85 0 0 0-5.87-10.25l-29.76-17.33a11.63 11.63 0 0 0-11.74 0l-29.76 17.33a11.85 11.85 0 0 0-5.87 10.25zM238 1705.83a11.88 11.88 0 0 0 5.87 10.26l29.76 17.32a11.63 11.63 0 0 0 11.74 0l29.76-17.32a11.88 11.88 0 0 0 5.87-10.26v-34.66a11.85 11.85 0 0 0-5.87-10.25l-29.76-17.33a11.63 11.63 0 0 0-11.74 0l-29.76 17.33a11.85 11.85 0 0 0-5.87 10.25zM195 1778.83a11.88 11.88 0 0 0 5.87 10.26l29.76 17.32a11.63 11.63 0 0 0 11.74 0l29.76-17.32a11.88 11.88 0 0 0 5.87-10.26v-34.66a11.85 11.85 0 0 0-5.87-10.25l-29.76-17.33a11.63 11.63 0 0 0-11.74 0l-29.76 17.33a11.85 11.85 0 0 0-5.87 10.25zM448 1744.17a11.88 11.88 0 0 0-5.87-10.26l-29.76-17.32a11.63 11.63 0 0 0-11.74 0l-29.76 17.32a11.88 11.88 0 0 0-5.87 10.26v34.66a11.85 11.85 0 0 0 5.87 10.25l29.76 17.33a11.63 11.63 0 0 0 11.74 0l29.76-17.33a11.85 11.85 0 0 0 5.87-10.25zM406 1671.17a11.88 11.88 0 0 0-5.87-10.26l-29.76-17.32a11.63 11.63 0 0 0-11.74 0l-29.76 17.32a11.88 11.88 0 0 0-5.87 10.26v34.66a11.85 11.85 0 0 0 5.87 10.25l29.76 17.33a11.63 11.63 0 0 0 11.74 0l29.76-17.33a11.85 11.85 0 0 0 5.87-10.25zM449 1598.17a11.88 11.88 0 0 0-5.87-10.26l-29.76-17.32a11.63 11.63 0 0 0-11.74 0l-29.76 17.32a11.88 11.88 0 0 0-5.87 10.26v34.66a11.85 11.85 0 0 0 5.87 10.25l29.76 17.33a11.63 11.63 0 0 0 11.74 0l29.76-17.33a11.85 11.85 0 0 0 5.87-10.25zM675 1383.83a11.88 11.88 0 0 0 5.87 10.26l29.76 17.32a11.63 11.63 0 0 0 11.74 0l29.76-17.32a11.88 11.88 0 0 0 5.87-10.26v-34.66a11.85 11.85 0 0 0-5.87-10.25l-29.76-17.33a11.63 11.63 0 0 0-11.74 0l-29.76 17.33a11.85 11.85 0 0 0-5.87 10.25zM674 1529.83a11.88 11.88 0 0 0 5.87 10.26l29.76 17.32a11.63 11.63 0 0 0 11.74 0l29.76-17.32a11.88 11.88 0 0 0 5.87-10.26v-34.66a11.85 11.85 0 0 0-5.87-10.25l-29.76-17.33a11.63 11.63 0 0 0-11.74 0l-29.76 17.33a11.85 11.85 0 0 0-5.87 10.25zM296 42.83a11.88 11.88 0 0 0 5.87 10.26l29.76 17.32a11.63 11.63 0 0 0 11.74 0l29.76-17.32A11.88 11.88 0 0 0 379 42.83V8.17a11.85 11.85 0 0 0-5.87-10.25l-29.76-17.33a11.63 11.63 0 0 0-11.74 0L301.87-2.08A11.85 11.85 0 0 0 296 8.17zM253 115.83a11.88 11.88 0 0 0 5.87 10.26l29.76 17.32a11.63 11.63 0 0 0 11.74 0l29.76-17.32a11.88 11.88 0 0 0 5.87-10.26V81.17a11.85 11.85 0 0 0-5.87-10.25l-29.76-17.33a11.63 11.63 0 0 0-11.74 0l-29.76 17.33A11.85 11.85 0 0 0 253 81.17zM506 81.17a11.88 11.88 0 0 0-5.87-10.26l-29.76-17.32a11.63 11.63 0 0 0-11.74 0l-29.76 17.32A11.88 11.88 0 0 0 423 81.17v34.66a11.85 11.85 0 0 0 5.87 10.25l29.76 17.33a11.63 11.63 0 0 0 11.74 0l29.76-17.33a11.85 11.85 0 0 0 5.87-10.25zM464 8.17a11.88 11.88 0 0 0-5.87-10.26l-29.76-17.32a11.63 11.63 0 0 0-11.74 0L386.87-2.09A11.88 11.88 0 0 0 381 8.17v34.66a11.85 11.85 0 0 0 5.87 10.25l29.76 17.33a11.63 11.63 0 0 0 11.74 0l29.76-17.33A11.85 11.85 0 0 0 464 42.83z" class="cls-1" transform="translate(-.5 21)"/>
                </g>
                <g id="Group-12" class="cls-2">
                    <path d="M151 923.26a19 19 0 0 0 9.41 16.44l47.68 27.76a18.68 18.68 0 0 0 18.82 0l47.68-27.76a19 19 0 0 0 9.41-16.44v-55.52a19 19 0 0 0-9.41-16.43l-47.68-27.77a18.68 18.68 0 0 0-18.82 0l-47.68 27.77a19 19 0 0 0-9.41 16.43zM301 923.26a19 19 0 0 0 9.41 16.44l47.68 27.76a18.68 18.68 0 0 0 18.82 0l47.68-27.76a19 19 0 0 0 9.41-16.44v-55.52a19 19 0 0 0-9.41-16.43l-47.68-27.77a18.68 18.68 0 0 0-18.82 0l-47.68 27.77a19 19 0 0 0-9.41 16.43zM151 668.26a19 19 0 0 0 9.41 16.44l47.68 27.76a18.68 18.68 0 0 0 18.82 0l47.68-27.76a19 19 0 0 0 9.41-16.44v-55.52a19 19 0 0 0-9.41-16.43l-47.68-27.77a18.68 18.68 0 0 0-18.82 0l-47.68 27.77a19 19 0 0 0-9.41 16.43zM301 668.26a19 19 0 0 0 9.41 16.44l47.68 27.76a18.68 18.68 0 0 0 18.82 0l47.68-27.76a19 19 0 0 0 9.41-16.44v-55.52a19 19 0 0 0-9.41-16.43l-47.68-27.77a18.68 18.68 0 0 0-18.82 0l-47.68 27.77a19 19 0 0 0-9.41 16.43zM455 923.26a19 19 0 0 0 9.41 16.44l47.68 27.76a18.68 18.68 0 0 0 18.82 0l47.68-27.76a19 19 0 0 0 9.41-16.44v-55.52a19 19 0 0 0-9.41-16.43l-47.68-27.77a18.68 18.68 0 0 0-18.82 0l-47.68 27.77a19 19 0 0 0-9.41 16.43zM455 668.26a19 19 0 0 0 9.41 16.44l47.68 27.76a18.68 18.68 0 0 0 18.82 0l47.68-27.76a19 19 0 0 0 9.41-16.44v-55.52a19 19 0 0 0-9.41-16.43l-47.68-27.77a18.68 18.68 0 0 0-18.82 0l-47.68 27.77a19 19 0 0 0-9.41 16.43zM151 131.26a19 19 0 0 0 9.41 16.44l47.68 27.76a18.68 18.68 0 0 0 18.82 0l47.68-27.76a19 19 0 0 0 9.41-16.44V75.74a19 19 0 0 0-9.41-16.43l-47.68-27.77a18.68 18.68 0 0 0-18.82 0l-47.68 27.77A19 19 0 0 0 151 75.74zM301 131.26a19 19 0 0 0 9.41 16.44l47.68 27.76a18.68 18.68 0 0 0 18.82 0l47.68-27.76a19 19 0 0 0 9.41-16.44V75.74a19 19 0 0 0-9.41-16.43l-47.68-27.77a18.68 18.68 0 0 0-18.82 0l-47.68 27.77A19 19 0 0 0 301 75.74zM455 131.26a19 19 0 0 0 9.41 16.44l47.68 27.76a18.68 18.68 0 0 0 18.82 0l47.68-27.76a19 19 0 0 0 9.41-16.44V75.74a19 19 0 0 0-9.41-16.43l-47.68-27.77a18.68 18.68 0 0 0-18.82 0l-47.68 27.77A19 19 0 0 0 455 75.74zM151 403.26a19 19 0 0 0 9.41 16.44l47.68 27.76a18.68 18.68 0 0 0 18.82 0l47.68-27.76a19 19 0 0 0 9.41-16.44v-55.52a19 19 0 0 0-9.41-16.43l-47.68-27.77a18.68 18.68 0 0 0-18.82 0l-47.68 27.77a19 19 0 0 0-9.41 16.43zM301 403.26a19 19 0 0 0 9.41 16.44l47.68 27.76a18.68 18.68 0 0 0 18.82 0l47.68-27.76a19 19 0 0 0 9.41-16.44v-55.52a19 19 0 0 0-9.41-16.43l-47.68-27.77a18.68 18.68 0 0 0-18.82 0l-47.68 27.77a19 19 0 0 0-9.41 16.43zM455 403.26a19 19 0 0 0 9.41 16.44l47.68 27.76a18.68 18.68 0 0 0 18.82 0l47.68-27.76a19 19 0 0 0 9.41-16.44v-55.52a19 19 0 0 0-9.41-16.43l-47.68-27.77a18.68 18.68 0 0 0-18.82 0l-47.68 27.77a19 19 0 0 0-9.41 16.43zM224 796.26a19 19 0 0 0 9.41 16.44l47.68 27.76a18.68 18.68 0 0 0 18.82 0l47.68-27.76a19 19 0 0 0 9.41-16.44v-55.52a19 19 0 0 0-9.41-16.43l-47.68-27.77a18.68 18.68 0 0 0-18.82 0l-47.68 27.77a19 19 0 0 0-9.41 16.43zM379 796.26a19 19 0 0 0 9.41 16.44l47.68 27.76a18.68 18.68 0 0 0 18.82 0l47.68-27.76a19 19 0 0 0 9.41-16.44v-55.52a19 19 0 0 0-9.41-16.43l-47.68-27.77a18.68 18.68 0 0 0-18.82 0l-47.68 27.77a19 19 0 0 0-9.41 16.43zM224 536.26a19 19 0 0 0 9.41 16.44l47.68 27.76a18.68 18.68 0 0 0 18.82 0l47.68-27.76a19 19 0 0 0 9.41-16.44v-55.52a19 19 0 0 0-9.41-16.43l-47.68-27.77a18.68 18.68 0 0 0-18.82 0l-47.68 27.77a19 19 0 0 0-9.41 16.43zM379 536.26a19 19 0 0 0 9.41 16.44l47.68 27.76a18.68 18.68 0 0 0 18.82 0l47.68-27.76a19 19 0 0 0 9.41-16.44v-55.52a19 19 0 0 0-9.41-16.43l-47.68-27.77a18.68 18.68 0 0 0-18.82 0l-47.68 27.77a19 19 0 0 0-9.41 16.43zM530 536.26a19 19 0 0 0 9.41 16.44l47.68 27.76a18.68 18.68 0 0 0 18.82 0l47.68-27.76a19 19 0 0 0 9.41-16.44v-55.52a19 19 0 0 0-9.41-16.43l-47.68-27.77a18.68 18.68 0 0 0-18.82 0l-47.68 27.77a19 19 0 0 0-9.41 16.43zM224 260.26a19 19 0 0 0 9.41 16.44l47.68 27.76a18.68 18.68 0 0 0 18.82 0l47.68-27.76a19 19 0 0 0 9.41-16.44v-55.52a19 19 0 0 0-9.41-16.43l-47.68-27.77a18.68 18.68 0 0 0-18.82 0l-47.68 27.77a19 19 0 0 0-9.41 16.43zM76 260.26a19 19 0 0 0 9.41 16.44l47.68 27.76a18.68 18.68 0 0 0 18.82 0l47.68-27.76a19 19 0 0 0 9.41-16.44v-55.52a19 19 0 0 0-9.41-16.43l-47.68-27.77a18.68 18.68 0 0 0-18.82 0l-47.68 27.77A19 19 0 0 0 76 204.74zM1 132.26a19 19 0 0 0 9.41 16.44l47.68 27.76a18.68 18.68 0 0 0 18.82 0l47.68-27.76a19 19 0 0 0 9.41-16.44V76.74a19 19 0 0 0-9.41-16.43L76.91 32.54a18.68 18.68 0 0 0-18.82 0L10.41 60.31A19 19 0 0 0 1 76.74zM379 260.26a19 19 0 0 0 9.41 16.44l47.68 27.76a18.68 18.68 0 0 0 18.82 0l47.68-27.76a19 19 0 0 0 9.41-16.44v-55.52a19 19 0 0 0-9.41-16.43l-47.68-27.77a18.68 18.68 0 0 0-18.82 0l-47.68 27.77a19 19 0 0 0-9.41 16.43z" class="cls-3" transform="translate(-.5 21)"/>
                </g>
                <g class="cls-2">
                    <path d="M227 1846.26a19 19 0 0 0 9.41 16.44l47.68 27.76a18.68 18.68 0 0 0 18.82 0l47.68-27.76a19 19 0 0 0 9.41-16.44v-55.52a19 19 0 0 0-9.41-16.43l-47.68-27.77a18.68 18.68 0 0 0-18.82 0l-47.68 27.77a19 19 0 0 0-9.41 16.43zM377 1846.26a19 19 0 0 0 9.41 16.44l47.68 27.76a18.68 18.68 0 0 0 18.82 0l47.68-27.76a19 19 0 0 0 9.41-16.44v-55.52a19 19 0 0 0-9.41-16.43l-47.68-27.77a18.68 18.68 0 0 0-18.82 0l-47.68 27.77a19 19 0 0 0-9.41 16.43zM227 1591.26a19 19 0 0 0 9.41 16.44l47.68 27.76a18.68 18.68 0 0 0 18.82 0l47.68-27.76a19 19 0 0 0 9.41-16.44v-55.52a19 19 0 0 0-9.41-16.43l-47.68-27.77a18.68 18.68 0 0 0-18.82 0l-47.68 27.77a19 19 0 0 0-9.41 16.43zM377 1591.26a19 19 0 0 0 9.41 16.44l47.68 27.76a18.68 18.68 0 0 0 18.82 0l47.68-27.76a19 19 0 0 0 9.41-16.44v-55.52a19 19 0 0 0-9.41-16.43l-47.68-27.77a18.68 18.68 0 0 0-18.82 0l-47.68 27.77a19 19 0 0 0-9.41 16.43zM531 1846.26a19 19 0 0 0 9.41 16.44l47.68 27.76a18.68 18.68 0 0 0 18.82 0l47.68-27.76a19 19 0 0 0 9.41-16.44v-55.52a19 19 0 0 0-9.41-16.43l-47.68-27.77a18.68 18.68 0 0 0-18.82 0l-47.68 27.77a19 19 0 0 0-9.41 16.43zM531 1591.26a19 19 0 0 0 9.41 16.44l47.68 27.76a18.68 18.68 0 0 0 18.82 0l47.68-27.76a19 19 0 0 0 9.41-16.44v-55.52a19 19 0 0 0-9.41-16.43l-47.68-27.77a18.68 18.68 0 0 0-18.82 0l-47.68 27.77a19 19 0 0 0-9.41 16.43zM227 1054.26a19 19 0 0 0 9.41 16.44l47.68 27.76a18.68 18.68 0 0 0 18.82 0l47.68-27.76a19 19 0 0 0 9.41-16.44v-55.52a19 19 0 0 0-9.41-16.43l-47.68-27.77a18.68 18.68 0 0 0-18.82 0l-47.68 27.77a19 19 0 0 0-9.41 16.43zM377 1054.26a19 19 0 0 0 9.41 16.44l47.68 27.76a18.68 18.68 0 0 0 18.82 0l47.68-27.76a19 19 0 0 0 9.41-16.44v-55.52a19 19 0 0 0-9.41-16.43l-47.68-27.77a18.68 18.68 0 0 0-18.82 0l-47.68 27.77a19 19 0 0 0-9.41 16.43zM531 1054.26a19 19 0 0 0 9.41 16.44l47.68 27.76a18.68 18.68 0 0 0 18.82 0l47.68-27.76a19 19 0 0 0 9.41-16.44v-55.52a19 19 0 0 0-9.41-16.43l-47.68-27.77a18.68 18.68 0 0 0-18.82 0l-47.68 27.77a19 19 0 0 0-9.41 16.43zM227 1326.26a19 19 0 0 0 9.41 16.44l47.68 27.76a18.68 18.68 0 0 0 18.82 0l47.68-27.76a19 19 0 0 0 9.41-16.44v-55.52a19 19 0 0 0-9.41-16.43l-47.68-27.77a18.68 18.68 0 0 0-18.82 0l-47.68 27.77a19 19 0 0 0-9.41 16.43zM377 1326.26a19 19 0 0 0 9.41 16.44l47.68 27.76a18.68 18.68 0 0 0 18.82 0l47.68-27.76a19 19 0 0 0 9.41-16.44v-55.52a19 19 0 0 0-9.41-16.43l-47.68-27.77a18.68 18.68 0 0 0-18.82 0l-47.68 27.77a19 19 0 0 0-9.41 16.43zM531 1326.26a19 19 0 0 0 9.41 16.44l47.68 27.76a18.68 18.68 0 0 0 18.82 0l47.68-27.76a19 19 0 0 0 9.41-16.44v-55.52a19 19 0 0 0-9.41-16.43l-47.68-27.77a18.68 18.68 0 0 0-18.82 0l-47.68 27.77a19 19 0 0 0-9.41 16.43zM300 1719.26a19 19 0 0 0 9.41 16.44l47.68 27.76a18.68 18.68 0 0 0 18.82 0l47.68-27.76a19 19 0 0 0 9.41-16.44v-55.52a19 19 0 0 0-9.41-16.43l-47.68-27.77a18.68 18.68 0 0 0-18.82 0l-47.68 27.77a19 19 0 0 0-9.41 16.43zM455 1719.26a19 19 0 0 0 9.41 16.44l47.68 27.76a18.68 18.68 0 0 0 18.82 0l47.68-27.76a19 19 0 0 0 9.41-16.44v-55.52a19 19 0 0 0-9.41-16.43l-47.68-27.77a18.68 18.68 0 0 0-18.82 0l-47.68 27.77a19 19 0 0 0-9.41 16.43zM300 1459.26a19 19 0 0 0 9.41 16.44l47.68 27.76a18.68 18.68 0 0 0 18.82 0l47.68-27.76a19 19 0 0 0 9.41-16.44v-55.52a19 19 0 0 0-9.41-16.43l-47.68-27.77a18.68 18.68 0 0 0-18.82 0l-47.68 27.77a19 19 0 0 0-9.41 16.43zM455 1459.26a19 19 0 0 0 9.41 16.44l47.68 27.76a18.68 18.68 0 0 0 18.82 0l47.68-27.76a19 19 0 0 0 9.41-16.44v-55.52a19 19 0 0 0-9.41-16.43l-47.68-27.77a18.68 18.68 0 0 0-18.82 0l-47.68 27.77a19 19 0 0 0-9.41 16.43zM606 1459.26a19 19 0 0 0 9.41 16.44l47.68 27.76a18.68 18.68 0 0 0 18.82 0l47.68-27.76a19 19 0 0 0 9.41-16.44v-55.52a19 19 0 0 0-9.41-16.43l-47.68-27.77a18.68 18.68 0 0 0-18.82 0l-47.68 27.77a19 19 0 0 0-9.41 16.43zM300 1183.26a19 19 0 0 0 9.41 16.44l47.68 27.76a18.68 18.68 0 0 0 18.82 0l47.68-27.76a19 19 0 0 0 9.41-16.44v-55.52a19 19 0 0 0-9.41-16.43l-47.68-27.77a18.68 18.68 0 0 0-18.82 0l-47.68 27.77a19 19 0 0 0-9.41 16.43zM152 1183.26a19 19 0 0 0 9.41 16.44l47.68 27.76a18.68 18.68 0 0 0 18.82 0l47.68-27.76a19 19 0 0 0 9.41-16.44v-55.52a19 19 0 0 0-9.41-16.43l-47.68-27.77a18.68 18.68 0 0 0-18.82 0l-47.68 27.77a19 19 0 0 0-9.41 16.43zM77 1055.26a19 19 0 0 0 9.41 16.44l47.68 27.76a18.68 18.68 0 0 0 18.82 0l47.68-27.76a19 19 0 0 0 9.41-16.44v-55.52a19 19 0 0 0-9.41-16.43l-47.68-27.77a18.68 18.68 0 0 0-18.82 0l-47.68 27.77A19 19 0 0 0 77 999.74zM455 1183.26a19 19 0 0 0 9.41 16.44l47.68 27.76a18.68 18.68 0 0 0 18.82 0l47.68-27.76a19 19 0 0 0 9.41-16.44v-55.52a19 19 0 0 0-9.41-16.43l-47.68-27.77a18.68 18.68 0 0 0-18.82 0l-47.68 27.77a19 19 0 0 0-9.41 16.43z" class="cls-3" transform="translate(-.5 21)"/>
                </g>
            </g>
        </g>
    </g>
</svg>
