<svg xmlns="http://www.w3.org/2000/svg" viewBox="0 0 1822 1440">
    <path d="M149.5 859.6a17 17 0 0 0 8.5 14.8l43.1 25.1a16.7 16.7 0 0 0 17 0l43.1-25.1a17 17 0 0 0 8.5-14.8v-50.1a17 17 0 0 0-8.5-14.8L218 769.6a16.7 16.7 0 0 0-17 0l-43 25.1a17 17 0 0 0-8.5 14.8v50.1zm135.4 0a17 17 0 0 0 8.5 14.8l43.1 25.1a16.7 16.7 0 0 0 17 0l43.1-25.1a17 17 0 0 0 8.5-14.8v-50.1a17 17 0 0 0-8.5-14.8l-43.1-25.1a16.7 16.7 0 0 0-17 0l-43.1 25.1a17 17 0 0 0-8.5 14.8v50.1zm142.1-.2a17 17 0 0 0 8.5 14.8l43.1 25.1a16.7 16.7 0 0 0 17 0l43.1-25.1a17 17 0 0 0 8.5-14.8v-50.1a17 17 0 0 0-8.5-14.8l-43.1-25.1a16.7 16.7 0 0 0-17 0l-43.1 25.1a17 17 0 0 0-8.5 14.8v50.1zM149.5 620.3a17 17 0 0 0 8.5 14.8l43.1 25.1a16.7 16.7 0 0 0 17 0l43.1-25.1a17 17 0 0 0 8.5-14.8v-50.1a17 17 0 0 0-8.5-14.8L218 530.3a16.7 16.7 0 0 0-17 0l-43 25.1a17 17 0 0 0-8.5 14.8v50.1zm135.4 0a17 17 0 0 0 8.5 14.8l43.1 25.1a16.7 16.7 0 0 0 17 0l43.1-25.1a17 17 0 0 0 8.5-14.8v-50.1a17 17 0 0 0-8.5-14.8l-43.1-25.1a16.7 16.7 0 0 0-17 0l-43.1 25.1a17 17 0 0 0-8.5 14.8v50.1zm139.1 0a17 17 0 0 0 8.5 14.8l43.1 25.1a16.7 16.7 0 0 0 17 0l43.1-25.1a17 17 0 0 0 8.5-14.8v-50.1a17 17 0 0 0-8.5-14.8l-43.1-25.1a16.7 16.7 0 0 0-17 0l-43.1 25.1a17 17 0 0 0-8.5 14.8v50.1zM149.5 135.4a17 17 0 0 0 8.5 14.8l43.1 25.1a16.7 16.7 0 0 0 17 0l43.1-25.1a17 17 0 0 0 8.5-14.8V85.2a17 17 0 0 0-8.5-14.8L218 45.3a16.7 16.7 0 0 0-17 0l-43 25.1a17 17 0 0 0-8.5 14.8v50.2zm135.4 0a17 17 0 0 0 8.5 14.8l43.1 25.1a16.7 16.7 0 0 0 17 0l43.1-25.1a17 17 0 0 0 8.5-14.8V85.2a17 17 0 0 0-8.5-14.8l-43.1-25.1a16.7 16.7 0 0 0-17 0l-43.1 25.1a17 17 0 0 0-8.5 14.8v50.2zm139.1 0a17 17 0 0 0 8.5 14.8l43.1 25.1a16.7 16.7 0 0 0 17 0l43.1-25.1a17 17 0 0 0 8.5-14.8V85.2a17 17 0 0 0-8.5-14.8l-43.1-25.1a16.7 16.7 0 0 0-17 0l-43.1 25.1a17 17 0 0 0-8.5 14.8v50.2zM149.5 381a17 17 0 0 0 8.5 14.8l43.1 25.1a16.7 16.7 0 0 0 17 0l43.1-25.1a17 17 0 0 0 8.5-14.8v-50.1a17 17 0 0 0-8.5-14.8L218 290.9a16.7 16.7 0 0 0-17 0L158 316a17 17 0 0 0-8.5 14.8V381zm135.4 0a17 17 0 0 0 8.5 14.8l43.1 25.1a16.7 16.7 0 0 0 17 0l43.1-25.1a17 17 0 0 0 8.5-14.8v-50.1a17 17 0 0 0-8.5-14.8L353.5 291a16.7 16.7 0 0 0-17 0l-43.1 25a17 17 0 0 0-8.5 14.8V381zm139.1 0a17 17 0 0 0 8.5 14.8l43.1 25.1a16.7 16.7 0 0 0 17 0l43.1-25.1a17 17 0 0 0 8.5-14.8v-50.1a17 17 0 0 0-8.5-14.8L492.6 291a16.7 16.7 0 0 0-17 0l-43.1 25a17 17 0 0 0-8.5 14.8V381zM215.4 739.9a17 17 0 0 0 8.5 14.8l43.1 25.1a16.7 16.7 0 0 0 17 0l43.1-25.1a17 17 0 0 0 8.5-14.8v-50.1a17 17 0 0 0-8.5-14.8L284 649.9a16.7 16.7 0 0 0-17 0L223.9 675a17 17 0 0 0-8.5 14.8v50.1zm140 0a17 17 0 0 0 8.5 14.8l43.1 25.1a16.7 16.7 0 0 0 17 0l43.1-25.1a17 17 0 0 0 8.5-14.8v-50.1a17 17 0 0 0-8.5-14.8L424 649.9a16.7 16.7 0 0 0-17 0L363.9 675a17 17 0 0 0-8.5 14.8v50.1zm-140-238.8a17 17 0 0 0 8.5 14.8L267 541a16.7 16.7 0 0 0 17 0l43-25a17 17 0 0 0 8.5-14.8V451a17 17 0 0 0-8.5-14.8l-43.1-25.1a16.7 16.7 0 0 0-17 0l-43.1 25.1a17 17 0 0 0-8.5 14.8v50.1zm140 0a17 17 0 0 0 8.5 14.8L407 541a16.7 16.7 0 0 0 17 0l43-25a17 17 0 0 0 8.5-14.8V451a17 17 0 0 0-8.5-14.8l-43.1-25.1a16.7 16.7 0 0 0-17 0l-43.1 25.1a17 17 0 0 0-8.5 14.8v50.1zm136.3 0a17 17 0 0 0 8.5 14.8l43.1 25.1a16.7 16.7 0 0 0 17 0l43.1-25.1a17 17 0 0 0 8.5-14.8V451a17 17 0 0 0-8.5-14.8l-43.1-25.1a16.7 16.7 0 0 0-17 0l-43.1 25.1a17 17 0 0 0-8.5 14.8v50.1zM215.4 257.9a17 17 0 0 0 8.5 14.8l43.1 25.1a16.7 16.7 0 0 0 17 0l43.1-25.1a17 17 0 0 0 8.5-14.8v-50.1a17 17 0 0 0-8.5-14.8L284 167.9a16.7 16.7 0 0 0-17 0L223.9 193a17 17 0 0 0-8.5 14.8v50.1zm-133.7 0a17 17 0 0 0 8.5 14.8l43.1 25.1a16.7 16.7 0 0 0 17 0l43.1-25.1a17 17 0 0 0 8.5-14.8v-50.1a17 17 0 0 0-8.5-14.8l-43.1-25.1a16.7 16.7 0 0 0-17 0L90.2 193a17 17 0 0 0-8.5 14.8v50.1zM14 136.3a17 17 0 0 0 8.5 14.8l43.1 25.1a16.7 16.7 0 0 0 17 0l43.1-25.1a17 17 0 0 0 8.5-14.8V86.1a17 17 0 0 0-8.5-14.8L82.6 46.2a16.7 16.7 0 0 0-17 0L22.5 71.3A17 17 0 0 0 14 86.1v50.2zm341.4 121.6a17 17 0 0 0 8.5 14.8l43.1 25.1a16.7 16.7 0 0 0 17 0l43.1-25.1a17 17 0 0 0 8.5-14.8v-50.1a17 17 0 0 0-8.5-14.8L424 167.9a16.7 16.7 0 0 0-17 0L363.9 193a17 17 0 0 0-8.5 14.8v50.1zm337.1 601.7a17 17 0 0 0 8.5 14.8l43.1 25.1a16.7 16.7 0 0 0 17 0l43.1-25.1a17 17 0 0 0 8.5-14.8v-50.1a17 17 0 0 0-8.5-14.8L761 769.6a16.7 16.7 0 0 0-17 0l-43 25.1a17 17 0 0 0-8.5 14.8v50.1zm135.4 0a17 17 0 0 0 8.5 14.8l43.1 25.1a16.7 16.7 0 0 0 17 0l43.1-25.1a17 17 0 0 0 8.5-14.8v-50.1a17 17 0 0 0-8.5-14.8l-43.1-25.1a16.7 16.7 0 0 0-17 0l-43.1 25.1a17 17 0 0 0-8.5 14.8v50.1zM692.5 620.3a17 17 0 0 0 8.5 14.8l43.1 25.1a16.7 16.7 0 0 0 17 0l43.1-25.1a17 17 0 0 0 8.5-14.8v-50.1a17 17 0 0 0-8.5-14.8L761 530.3a16.7 16.7 0 0 0-17 0l-43 25.1a17 17 0 0 0-8.5 14.8v50.1zm135.4 0a17 17 0 0 0 8.5 14.8l43.1 25.1a16.7 16.7 0 0 0 17 0l43.1-25.1a17 17 0 0 0 8.5-14.8v-50.1a17 17 0 0 0-8.5-14.8l-43.1-25.1a16.7 16.7 0 0 0-17 0l-43.1 25.1a17 17 0 0 0-8.5 14.8v50.1zM967 859.6a17 17 0 0 0 8.5 14.8l43.1 25.1a16.7 16.7 0 0 0 17 0l43.1-25.1a17 17 0 0 0 8.5-14.8v-50.1a17 17 0 0 0-8.5-14.8l-43.1-25.1a16.7 16.7 0 0 0-17 0l-43.1 25.1a17 17 0 0 0-8.5 14.8v50.1zm0-239.3a17 17 0 0 0 8.5 14.8l43.1 25.1a16.7 16.7 0 0 0 17 0l43.1-25.1a17 17 0 0 0 8.5-14.8v-50.1a17 17 0 0 0-8.5-14.8l-43.1-25.1a16.7 16.7 0 0 0-17 0l-43.1 25.1a17 17 0 0 0-8.5 14.8v50.1zM692.5 135.4a17 17 0 0 0 8.5 14.8l43.1 25.1a16.7 16.7 0 0 0 17 0l43.1-25.1a17 17 0 0 0 8.5-14.8V85.2a17 17 0 0 0-8.5-14.8L761 45.3a16.7 16.7 0 0 0-17 0l-43 25.1a17 17 0 0 0-8.5 14.8v50.2zm274.5 0a17 17 0 0 0 8.5 14.8l43.1 25.1a16.7 16.7 0 0 0 17 0l43.1-25.1a17 17 0 0 0 8.5-14.8V85.2a17 17 0 0 0-8.5-14.8l-43.1-25.1a16.7 16.7 0 0 0-17 0l-43.1 25.1a17 17 0 0 0-8.5 14.8v50.2zM692.5 381a17 17 0 0 0 8.5 14.8l43.1 25.1a16.7 16.7 0 0 0 17 0l43.1-25.1a17 17 0 0 0 8.5-14.8v-50.1a17 17 0 0 0-8.5-14.8L761 290.9a16.7 16.7 0 0 0-17 0L701 316a17 17 0 0 0-8.5 14.8V381zm135.4 0a17 17 0 0 0 8.5 14.8l43.1 25.1a16.7 16.7 0 0 0 17 0l43.1-25.1a17 17 0 0 0 8.5-14.8v-50.1a17 17 0 0 0-8.5-14.8L896.5 291a16.7 16.7 0 0 0-17 0l-43.1 25a17 17 0 0 0-8.5 14.8V381zm139.1 0a17 17 0 0 0 8.5 14.8l43.1 25.1a16.7 16.7 0 0 0 17 0l43.1-25.1a17 17 0 0 0 8.5-14.8v-50.1a17 17 0 0 0-8.5-14.8l-43.1-25.1a16.7 16.7 0 0 0-17 0l-43.1 25a17 17 0 0 0-8.5 14.8V381zm136 .4a17 17 0 0 0 8.5 14.8l43.1 25.1a16.7 16.7 0 0 0 17 0l43.1-25.1a17 17 0 0 0 8.5-14.8v-50.1a17 17 0 0 0-8.5-14.8l-43.1-25.1a16.7 16.7 0 0 0-17 0l-43.1 25.1a17 17 0 0 0-8.5 14.8v50.1zM898.4 739.9a17 17 0 0 0 8.5 14.8l43.1 25.1a16.7 16.7 0 0 0 17 0l43.1-25.1a17 17 0 0 0 8.5-14.8v-50.1a17 17 0 0 0-8.5-14.8L967 649.9a16.7 16.7 0 0 0-17 0L906.9 675a17 17 0 0 0-8.5 14.8v50.1zm-140-238.8a17 17 0 0 0 8.5 14.8L810 541a16.7 16.7 0 0 0 17 0l43-25a17 17 0 0 0 8.5-14.8V451a17 17 0 0 0-8.5-14.8l-43.1-25.1a16.7 16.7 0 0 0-17 0l-43.1 25.1a17 17 0 0 0-8.5 14.8v50.1zm-132.4.3a17 17 0 0 0 8.5 14.8l43.1 25.1a16.7 16.7 0 0 0 17 0l43.1-25.1a17 17 0 0 0 8.5-14.8v-50.1a17 17 0 0 0-8.5-14.8l-43.1-25.1a16.7 16.7 0 0 0-17 0l-43.1 25.1a17 17 0 0 0-8.5 14.8v50.1zm408.7-.3a17 17 0 0 0 8.5 14.8l43.1 25.1a16.7 16.7 0 0 0 17 0l43.1-25.1a17 17 0 0 0 8.5-14.8V451a17 17 0 0 0-8.5-14.8l-43.1-25.1a16.7 16.7 0 0 0-17 0l-43.1 25.1a17 17 0 0 0-8.5 14.8v50.1zM758.4 258.9a17 17 0 0 0 8.5 14.8l43.1 25.1a16.7 16.7 0 0 0 17 0l43.1-25.1a17 17 0 0 0 8.5-14.8v-50.1a17 17 0 0 0-8.5-14.8L827 168.9a16.7 16.7 0 0 0-17 0L766.9 194a17 17 0 0 0-8.5 14.8v50.1zm-133.7 0a17 17 0 0 0 8.5 14.8l43.1 25.1a16.7 16.7 0 0 0 17 0l43.1-25.1a17 17 0 0 0 8.5-14.8v-50.1a17 17 0 0 0-8.5-14.8l-43.1-25.1a16.7 16.7 0 0 0-17 0L633.2 194a17 17 0 0 0-8.5 14.8v50.1zM557 136.3a17 17 0 0 0 8.5 14.8l43.1 25.1a16.7 16.7 0 0 0 17 0l43.1-25.1a17 17 0 0 0 8.5-14.8V86.1a17 17 0 0 0-8.5-14.8l-43.1-25.1a16.7 16.7 0 0 0-17 0l-43.1 25.1a17 17 0 0 0-8.5 14.8v50.2zm341.4 122.6a17 17 0 0 0 8.5 14.8l43.1 25.1a16.7 16.7 0 0 0 17 0l43.1-25.1a17 17 0 0 0 8.5-14.8v-50.1a17 17 0 0 0-8.5-14.8L967 168.9a16.7 16.7 0 0 0-17 0L906.9 194a17 17 0 0 0-8.5 14.8v50.1zm340.1 603.7a17 17 0 0 0 8.5 14.8l43.1 25.1a16.7 16.7 0 0 0 17 0l43.1-25.1a17 17 0 0 0 8.5-14.8v-50.1a17 17 0 0 0-8.5-14.8l-43.1-25.1a16.7 16.7 0 0 0-17 0l-43.1 25.1a17 17 0 0 0-8.5 14.8v50.1zm135.4 0a17 17 0 0 0 8.5 14.8l43.1 25.1a16.7 16.7 0 0 0 17 0l43.1-25.1a17 17 0 0 0 8.5-14.8v-50.1a17 17 0 0 0-8.5-14.8l-43.1-25.1a16.7 16.7 0 0 0-17 0l-43.1 25.1a17 17 0 0 0-8.5 14.8v50.1zm-135.4-242.3a17 17 0 0 0 8.5 14.8l43.1 25.1a16.7 16.7 0 0 0 17 0l43.1-25.1a17 17 0 0 0 8.5-14.8v-50.1a17 17 0 0 0-8.5-14.8l-43.1-25.1a16.7 16.7 0 0 0-17 0l-43.1 25.1a17 17 0 0 0-8.5 14.8v50.1zm135.4 0a17 17 0 0 0 8.5 14.8l43.1 25.1a16.7 16.7 0 0 0 17 0l43.1-25.1a17 17 0 0 0 8.5-14.8v-50.1a17 17 0 0 0-8.5-14.8l-43.1-25.1a16.7 16.7 0 0 0-17 0l-43.1 25.1a17 17 0 0 0-8.5 14.8v50.1zM1513 862.6a17 17 0 0 0 8.5 14.8l43.1 25.1a16.7 16.7 0 0 0 17 0l43.1-25.1a17 17 0 0 0 8.5-14.8v-50.1a17 17 0 0 0-8.5-14.8l-43.1-25.1a16.7 16.7 0 0 0-17 0l-43.1 25.1a17 17 0 0 0-8.5 14.8v50.1zm0-242.3a17 17 0 0 0 8.5 14.8l43.1 25.1a16.7 16.7 0 0 0 17 0l43.1-25.1a17 17 0 0 0 8.5-14.8v-50.1a17 17 0 0 0-8.5-14.8l-43.1-25.1a16.7 16.7 0 0 0-17 0l-43.1 25.1a17 17 0 0 0-8.5 14.8v50.1zm138 .1a17 17 0 0 0 8.5 14.8l43.1 25.1a16.7 16.7 0 0 0 17 0l43.1-25.1a17 17 0 0 0 8.5-14.8v-50.1a17 17 0 0 0-8.5-14.8l-43.1-25.1a16.7 16.7 0 0 0-17 0l-43.1 25.1a17 17 0 0 0-8.5 14.8v50.1zm-138-485a17 17 0 0 0 8.5 14.8l43.1 25.1a16.7 16.7 0 0 0 17 0l43.1-25.1a17 17 0 0 0 8.5-14.8V85.2a17 17 0 0 0-8.5-14.8l-43.1-25.1a16.7 16.7 0 0 0-17 0l-43.1 25.1a17 17 0 0 0-8.5 14.8v50.2zM1238.5 381a17 17 0 0 0 8.5 14.8l43.1 25.1a16.7 16.7 0 0 0 17 0l43.1-25.1a17 17 0 0 0 8.5-14.8v-50.1a17 17 0 0 0-8.5-14.8l-43.1-25.1a16.7 16.7 0 0 0-17 0l-43.1 25a17 17 0 0 0-8.5 14.8V381zm135.4 0a17 17 0 0 0 8.5 14.8l43.1 25.1a16.7 16.7 0 0 0 17 0l43.1-25.1a17 17 0 0 0 8.5-14.8v-50.1a17 17 0 0 0-8.5-14.8l-43.1-25.1a16.7 16.7 0 0 0-17 0l-43.1 25.1a17 17 0 0 0-8.5 14.8V381zm139.1 0a17 17 0 0 0 8.5 14.8l43.1 25.1a16.7 16.7 0 0 0 17 0l43.1-25.1a17 17 0 0 0 8.5-14.8v-50.1a17 17 0 0 0-8.5-14.8l-43.1-25.1a16.7 16.7 0 0 0-17 0l-43.1 25.1a17 17 0 0 0-8.5 14.8V381zm138 .4a17 17 0 0 0 8.5 14.8l43.1 25.1a16.7 16.7 0 0 0 17 0l43.1-25.1a17 17 0 0 0 8.5-14.8v-50.1a17 17 0 0 0-8.5-14.8l-43.1-25.1a16.7 16.7 0 0 0-17 0l-43.1 25.1a17 17 0 0 0-8.5 14.8v50.1zm139 0a17 17 0 0 0 8.5 14.8l43.1 25.1a16.7 16.7 0 0 0 17 0l43.1-25.1a17 17 0 0 0 8.5-14.8v-50.1a17 17 0 0 0-8.5-14.8l-43.1-25.1a16.7 16.7 0 0 0-17 0l-43.1 25.1a17 17 0 0 0-8.5 14.8v50.1zm-345.6 358.5a17 17 0 0 0 8.5 14.8l43.1 25.1a16.7 16.7 0 0 0 17 0l43.1-25.1a17 17 0 0 0 8.5-14.8v-50.1a17 17 0 0 0-8.5-14.8l-43.1-25.1a16.7 16.7 0 0 0-17 0l-43.1 25.1a17 17 0 0 0-8.5 14.8v50.1zm-410.4.5a17 17 0 0 0 8.5 14.8l43.1 25.1a16.7 16.7 0 0 0 17 0l43.1-25.1a17 17 0 0 0 8.5-14.8v-50.1a17 17 0 0 0-8.5-14.8l-43.1-25.1a16.7 16.7 0 0 0-17 0l-43.1 25.1a17 17 0 0 0-8.5 14.8v50.1zm138 0a17 17 0 0 0 8.5 14.8l43.1 25.1a16.7 16.7 0 0 0 17 0l43.1-25.1a17 17 0 0 0 8.5-14.8v-50.1a17 17 0 0 0-8.5-14.8l-43.1-25.1a16.7 16.7 0 0 0-17 0l-43.1 25.1a17 17 0 0 0-8.5 14.8v50.1zm132.4-239.3a17 17 0 0 0 8.5 14.8L1356 541a16.7 16.7 0 0 0 17 0l43-25a17 17 0 0 0 8.5-14.8V451a17 17 0 0 0-8.5-14.8l-43.1-25.1a16.7 16.7 0 0 0-17 0l-43.1 25.1a17 17 0 0 0-8.5 14.8v50.1zm140 0a17 17 0 0 0 8.5 14.8L1496 541a16.7 16.7 0 0 0 17 0l43-25a17 17 0 0 0 8.5-14.8V451a17 17 0 0 0-8.5-14.8l-43.1-25.1a16.7 16.7 0 0 0-17 0l-43.1 25.1a17 17 0 0 0-8.5 14.8v50.1zm136.3 0a17 17 0 0 0 8.5 14.8l43.1 25.1a16.7 16.7 0 0 0 17 0l43.1-25.1a17 17 0 0 0 8.5-14.8V451a17 17 0 0 0-8.5-14.8l-43.1-25.1a16.7 16.7 0 0 0-17 0l-43.1 25.1a17 17 0 0 0-8.5 14.8v50.1zm-276.3-244.2a17 17 0 0 0 8.5 14.8l43.1 25.1a16.7 16.7 0 0 0 17 0l43.1-25.1a17 17 0 0 0 8.5-14.8v-50.1a17 17 0 0 0-8.5-14.8l-43.1-25.1a16.7 16.7 0 0 0-17 0l-43.1 25.1a17 17 0 0 0-8.5 14.8v50.1zm-133.7 0a17 17 0 0 0 8.5 14.8l43.1 25.1a16.7 16.7 0 0 0 17 0l43.1-25.1a17 17 0 0 0 8.5-14.8v-50.1a17 17 0 0 0-8.5-14.8l-43.1-25.1a16.7 16.7 0 0 0-17 0l-43.1 25.1a17 17 0 0 0-8.5 14.8v50.1zM1103 136.3a17 17 0 0 0 8.5 14.8l43.1 25.1a16.7 16.7 0 0 0 17 0l43.1-25.1a17 17 0 0 0 8.5-14.8V86.1a17 17 0 0 0-8.5-14.8l-43.1-25.1a16.7 16.7 0 0 0-17 0l-43.1 25.1a17 17 0 0 0-8.5 14.8v50.2zm341.4 120.6a17 17 0 0 0 8.5 14.8l43.1 25.1a16.7 16.7 0 0 0 17 0l43.1-25.1a17 17 0 0 0 8.5-14.8v-50.1a17 17 0 0 0-8.5-14.8l-43.1-25.1a16.7 16.7 0 0 0-17 0l-43.1 25.1a17 17 0 0 0-8.5 14.8v50.1zM352.5 1459.6a17 17 0 0 0 8.5 14.8l43.1 25.1a16.7 16.7 0 0 0 17 0l43.1-25.1a17 17 0 0 0 8.5-14.8v-50.1a17 17 0 0 0-8.5-14.8l-43.1-25.1a16.7 16.7 0 0 0-17 0l-43.1 25.1a17 17 0 0 0-8.5 14.8v50.1zm135.4 0a17 17 0 0 0 8.5 14.8l43.1 25.1a16.7 16.7 0 0 0 17 0l43.1-25.1a17 17 0 0 0 8.5-14.8v-50.1a17 17 0 0 0-8.5-14.8l-43.1-25.1a16.7 16.7 0 0 0-17 0l-43.1 25.1a17 17 0 0 0-8.5 14.8v50.1zm139.1 0a17 17 0 0 0 8.5 14.8l43.1 25.1a16.7 16.7 0 0 0 17 0l43.1-25.1a17 17 0 0 0 8.5-14.8v-50.1a17 17 0 0 0-8.5-14.8l-43.1-25.1a16.7 16.7 0 0 0-17 0l-43.1 25.1a17 17 0 0 0-8.5 14.8v50.1zm-274.5-478a17 17 0 0 0 8.5 14.8l43.1 25.1a16.7 16.7 0 0 0 17 0l43.1-25.1a17 17 0 0 0 8.5-14.8v-50.1a17 17 0 0 0-8.5-14.8L421 891.5a16.7 16.7 0 0 0-17 0l-43 25.1a17 17 0 0 0-8.5 14.8v50.2zm274.5 0a17 17 0 0 0 8.5 14.8l43.1 25.1a16.7 16.7 0 0 0 17 0l43.1-25.1a17 17 0 0 0 8.5-14.8v-50.1a17 17 0 0 0-8.5-14.8l-43.1-25.1a16.7 16.7 0 0 0-17 0l-43.1 25.1a17 17 0 0 0-8.5 14.8v50.1zm-274.5 238.7a17 17 0 0 0 8.5 14.8l43.1 25.1a16.7 16.7 0 0 0 17 0l43.1-25.1a17 17 0 0 0 8.5-14.8v-50.1a17 17 0 0 0-8.5-14.8l-43.1-25.1a16.7 16.7 0 0 0-17 0l-43.1 25.1a17 17 0 0 0-8.5 14.8v50.1zm135.4 0a17 17 0 0 0 8.5 14.8l43.1 25.1a16.7 16.7 0 0 0 17 0l43.1-25.1a17 17 0 0 0 8.5-14.8v-50.1a17 17 0 0 0-8.5-14.8l-43.1-25.1a16.7 16.7 0 0 0-17 0l-43.1 25.1a17 17 0 0 0-8.5 14.8v50.1zm139.1 0a17 17 0 0 0 8.5 14.8l43.1 25.1a16.7 16.7 0 0 0 17 0l43.1-25.1a17 17 0 0 0 8.5-14.8v-50.1a17 17 0 0 0-8.5-14.8l-43.1-25.1a16.7 16.7 0 0 0-17 0l-43.1 25.1a17 17 0 0 0-8.5 14.8v50.1zm135 .3a17 17 0 0 0 8.5 14.8l43.1 25.1a16.7 16.7 0 0 0 17 0l43.1-25.1a17 17 0 0 0 8.5-14.8v-50.1a17 17 0 0 0-8.5-14.8l-43.1-25.1a16.7 16.7 0 0 0-17 0l-43.1 25.1a17 17 0 0 0-8.5 14.8v50.1zm-343.6 119.8a17 17 0 0 0 8.5 14.8l43.1 25.1a16.7 16.7 0 0 0 17 0l43.1-25.1a17 17 0 0 0 8.5-14.8v-50.1a17 17 0 0 0-8.5-14.8l-43.1-25.1a16.7 16.7 0 0 0-17 0l-43.1 25.1a17 17 0 0 0-8.5 14.8v50.1zm140 0a17 17 0 0 0 8.5 14.8l43.1 25.1a16.7 16.7 0 0 0 17 0l43.1-25.1a17 17 0 0 0 8.5-14.8v-50.1a17 17 0 0 0-8.5-14.8l-43.1-25.1a16.7 16.7 0 0 0-17 0l-43.1 25.1a17 17 0 0 0-8.5 14.8v50.1zm136.3 0a17 17 0 0 0 8.5 14.8l43.1 25.1a16.7 16.7 0 0 0 17 0l43.1-25.1a17 17 0 0 0 8.5-14.8v-50.1a17 17 0 0 0-8.5-14.8l-43.1-25.1a16.7 16.7 0 0 0-17 0l-43.1 25.1a17 17 0 0 0-8.5 14.8v50.1zm-275.3-239.3a17 17 0 0 0 8.5 14.8L471 1141a16.7 16.7 0 0 0 17 0l43-25a17 17 0 0 0 8.5-14.8V1051a17 17 0 0 0-8.5-14.8l-43.1-25.1a16.7 16.7 0 0 0-17 0l-43.1 25.1a17 17 0 0 0-8.5 14.8v50.1zm-134.7 0a17 17 0 0 0 8.5 14.8l43.1 25.1a16.7 16.7 0 0 0 17 0l43.1-25.1a17 17 0 0 0 8.5-14.8V1051a17 17 0 0 0-8.5-14.8l-43.1-25.1a16.7 16.7 0 0 0-17 0l-43.1 25.1a17 17 0 0 0-8.5 14.8v50.1zM217 982.5a17 17 0 0 0 8.5 14.8l43.1 25.1a16.7 16.7 0 0 0 17 0l43.1-25.1a17 17 0 0 0 8.5-14.8v-50.1a17 17 0 0 0-8.5-14.8l-43.1-25.1a16.7 16.7 0 0 0-17 0l-43.1 25.1a17 17 0 0 0-8.5 14.8v50.1zm339.4 118.6a17 17 0 0 0 8.5 14.8L608 1141a16.7 16.7 0 0 0 17 0l43-25a17 17 0 0 0 8.5-14.8V1051a17 17 0 0 0-8.5-14.8l-43.1-25.1a16.7 16.7 0 0 0-17 0l-43.1 25.1a17 17 0 0 0-8.5 14.8v50.1zm340.1 358.2a17 17 0 0 0 8.5 14.8l43.1 25.1a16.7 16.7 0 0 0 17 0l43.1-25.1a17 17 0 0 0 8.5-14.8v-50.1a17 17 0 0 0-8.5-14.8l-43.1-25.1a16.7 16.7 0 0 0-17 0l-43.1 25.1a17 17 0 0 0-8.5 14.8v50.1zm274.5 0a17 17 0 0 0 8.5 14.8l43.1 25.1a16.7 16.7 0 0 0 17 0l43.1-25.1a17 17 0 0 0 8.5-14.8v-50.1a17 17 0 0 0-8.5-14.8l-43.1-25.1a16.7 16.7 0 0 0-17 0l-43.1 25.1a17 17 0 0 0-8.5 14.8v50.1zM896.5 981.4a17 17 0 0 0 8.5 14.8l43.1 25.1a16.7 16.7 0 0 0 17 0l43.1-25.1a17 17 0 0 0 8.5-14.8v-50.1a17 17 0 0 0-8.5-14.8L965 891.3a16.7 16.7 0 0 0-17 0l-43 25.1a17 17 0 0 0-8.5 14.8v50.2zm135.4 0a17 17 0 0 0 8.5 14.8l43.1 25.1a16.7 16.7 0 0 0 17 0l43.1-25.1a17 17 0 0 0 8.5-14.8v-50.1a17 17 0 0 0-8.5-14.8l-43.1-25.1a16.7 16.7 0 0 0-17 0l-43.1 25.1a17 17 0 0 0-8.5 14.8v50.1zm139.1 0a17 17 0 0 0 8.5 14.8l43.1 25.1a16.7 16.7 0 0 0 17 0l43.1-25.1a17 17 0 0 0 8.5-14.8v-50.1a17 17 0 0 0-8.5-14.8l-43.1-25.1a16.7 16.7 0 0 0-17 0l-43.1 25.1a17 17 0 0 0-8.5 14.8v50.1zM896.5 1220a17 17 0 0 0 8.5 14.8l43.1 25.1a16.7 16.7 0 0 0 17 0l43.1-25.1a17 17 0 0 0 8.5-14.8v-50.1a17 17 0 0 0-8.5-14.8l-43.1-25.1a16.7 16.7 0 0 0-17 0l-43.1 25a17 17 0 0 0-8.5 14.8v50.2zm135.4 0a17 17 0 0 0 8.5 14.8l43.1 25.1a16.7 16.7 0 0 0 17 0l43.1-25.1a17 17 0 0 0 8.5-14.8v-50.1a17 17 0 0 0-8.5-14.8l-43.1-25.1a16.7 16.7 0 0 0-17 0l-43.1 25.1a17 17 0 0 0-8.5 14.8v50.1zm139.1 0a17 17 0 0 0 8.5 14.8l43.1 25.1a16.7 16.7 0 0 0 17 0l43.1-25.1a17 17 0 0 0 8.5-14.8v-50.1a17 17 0 0 0-8.5-14.8l-43.1-25.1a16.7 16.7 0 0 0-17 0l-43.1 25.1a17 17 0 0 0-8.5 14.8v50.1zm134 .4a17 17 0 0 0 8.5 14.8l43.1 25.1a16.7 16.7 0 0 0 17 0l43.1-25.1a17 17 0 0 0 8.5-14.8v-50.1a17 17 0 0 0-8.5-14.8l-43.1-25.1a16.7 16.7 0 0 0-17 0l-43.1 25.1a17 17 0 0 0-8.5 14.8v50.1zm-342.6 119.7a17 17 0 0 0 8.5 14.8l43.1 25.1a16.7 16.7 0 0 0 17 0l43.1-25.1a17 17 0 0 0 8.5-14.8V1290a17 17 0 0 0-8.5-14.8l-43.1-25.1a16.7 16.7 0 0 0-17 0l-43.1 25.1a17 17 0 0 0-8.5 14.8v50.1zm140 0a17 17 0 0 0 8.5 14.8l43.1 25.1a16.7 16.7 0 0 0 17 0l43.1-25.1a17 17 0 0 0 8.5-14.8V1290a17 17 0 0 0-8.5-14.8l-43.1-25.1a16.7 16.7 0 0 0-17 0l-43.1 25.1a17 17 0 0 0-8.5 14.8v50.1zm136.3 0a17 17 0 0 0 8.5 14.8l43.1 25.1a16.7 16.7 0 0 0 17 0l43.1-25.1a17 17 0 0 0 8.5-14.8V1290a17 17 0 0 0-8.5-14.8l-43.1-25.1a16.7 16.7 0 0 0-17 0l-43.1 25.1a17 17 0 0 0-8.5 14.8v50.1zm-276.3-239.2a17 17 0 0 0 8.5 14.8l43.1 25.1a16.7 16.7 0 0 0 17 0l43.1-25.1a17 17 0 0 0 8.5-14.8v-50.1a17 17 0 0 0-8.5-14.8l-43.1-25.1a16.7 16.7 0 0 0-17 0l-43.1 25.1a17 17 0 0 0-8.5 14.8v50.1zm-133.7 0a17 17 0 0 0 8.5 14.8l43.1 25.1a16.7 16.7 0 0 0 17 0l43.1-25.1a17 17 0 0 0 8.5-14.8v-50.1a17 17 0 0 0-8.5-14.8l-43.1-25.1a16.7 16.7 0 0 0-17 0l-43.1 25.1a17 17 0 0 0-8.5 14.8v50.1zM761 982.3a17 17 0 0 0 8.5 14.8l43.1 25.1a16.7 16.7 0 0 0 17 0l43.1-25.1a17 17 0 0 0 8.5-14.8v-50.1a17 17 0 0 0-8.5-14.8l-43.1-25.1a16.7 16.7 0 0 0-17 0l-43.1 25.1a17 17 0 0 0-8.5 14.8v50.1zm681.5 477.3a17 17 0 0 0 8.5 14.8l43.1 25.1a16.7 16.7 0 0 0 17 0l43.1-25.1a17 17 0 0 0 8.5-14.8v-50.1a17 17 0 0 0-8.5-14.8l-43.1-25.1a16.7 16.7 0 0 0-17 0l-43.1 25.1a17 17 0 0 0-8.5 14.8v50.1zm135.4 0a17 17 0 0 0 8.5 14.8l43.1 25.1a16.7 16.7 0 0 0 17 0l43.1-25.1a17 17 0 0 0 8.5-14.8v-50.1a17 17 0 0 0-8.5-14.8l-43.1-25.1a16.7 16.7 0 0 0-17 0l-43.1 25.1a17 17 0 0 0-8.5 14.8v50.1zm139.1 0a17 17 0 0 0 8.5 14.8l43.1 25.1a16.7 16.7 0 0 0 17 0l43.1-25.1a17 17 0 0 0 8.5-14.8v-50.1a17 17 0 0 0-8.5-14.8l-43.1-25.1a16.7 16.7 0 0 0-17 0l-43.1 25.1a17 17 0 0 0-8.5 14.8v50.1zm-274.5-478a17 17 0 0 0 8.5 14.8l43.1 25.1a16.7 16.7 0 0 0 17 0l43.1-25.1a17 17 0 0 0 8.5-14.8v-50.1a17 17 0 0 0-8.5-14.8l-43.1-25.1a16.7 16.7 0 0 0-17 0l-43.1 25.1a17 17 0 0 0-8.5 14.8v50.1zm272.5 0a17 17 0 0 0 8.5 14.8l43.1 25.1a16.7 16.7 0 0 0 17 0l43.1-25.1a17 17 0 0 0 8.5-14.8v-50.1a17 17 0 0 0-8.5-14.8l-43.1-25.1a16.7 16.7 0 0 0-17 0l-43.1 25.1a17 17 0 0 0-8.5 14.8v50.1zm-272.5 238.7a17 17 0 0 0 8.5 14.8l43.1 25.1a16.7 16.7 0 0 0 17 0l43.1-25.1a17 17 0 0 0 8.5-14.8v-50.1a17 17 0 0 0-8.5-14.8l-43.1-25.1a16.7 16.7 0 0 0-17 0l-43.1 25.1a17 17 0 0 0-8.5 14.8v50.1zm135.4 0a17 17 0 0 0 8.5 14.8l43.1 25.1a16.7 16.7 0 0 0 17 0l43.1-25.1a17 17 0 0 0 8.5-14.8v-50.1a17 17 0 0 0-8.5-14.8l-43.1-25.1a16.7 16.7 0 0 0-17 0l-43.1 25.1a17 17 0 0 0-8.5 14.8v50.1zm139.1 0a17 17 0 0 0 8.5 14.8l43.1 25.1a16.7 16.7 0 0 0 17 0l43.1-25.1a17 17 0 0 0 8.5-14.8v-50.1a17 17 0 0 0-8.5-14.8l-43.1-25.1a16.7 16.7 0 0 0-17 0l-43.1 25.1a17 17 0 0 0-8.5 14.8v50.1zm-208.6 120.1a17 17 0 0 0 8.5 14.8l43.1 25.1a16.7 16.7 0 0 0 17 0l43.1-25.1a17 17 0 0 0 8.5-14.8v-50.1a17 17 0 0 0-8.5-14.8l-43.1-25.1a16.7 16.7 0 0 0-17 0l-43.1 25.1a17 17 0 0 0-8.5 14.8v50.1zm140 0a17 17 0 0 0 8.5 14.8l43.1 25.1a16.7 16.7 0 0 0 17 0l43.1-25.1a17 17 0 0 0 8.5-14.8v-50.1a17 17 0 0 0-8.5-14.8l-43.1-25.1a16.7 16.7 0 0 0-17 0l-43.1 25.1a17 17 0 0 0-8.5 14.8v50.1zm136.3 0a17 17 0 0 0 8.5 14.8l43.1 25.1a16.7 16.7 0 0 0 17 0l43.1-25.1a17 17 0 0 0 8.5-14.8v-50.1a17 17 0 0 0-8.5-14.8l-43.1-25.1a16.7 16.7 0 0 0-17 0l-43.1 25.1a17 17 0 0 0-8.5 14.8v50.1zm-274.3-239.3a17 17 0 0 0 8.5 14.8l43.1 25.1a16.7 16.7 0 0 0 17 0l43.1-25.1a17 17 0 0 0 8.5-14.8V1051a17 17 0 0 0-8.5-14.8l-43.1-25.1a16.7 16.7 0 0 0-17 0l-43.1 25.1a17 17 0 0 0-8.5 14.8v50.1zm-135.7 0a17 17 0 0 0 8.5 14.8l43.1 25.1a16.7 16.7 0 0 0 17 0l43.1-25.1a17 17 0 0 0 8.5-14.8V1051a17 17 0 0 0-8.5-14.8l-43.1-25.1a16.7 16.7 0 0 0-17 0l-43.1 25.1a17 17 0 0 0-8.5 14.8v50.1zM1307 982.5a17 17 0 0 0 8.5 14.8l43.1 25.1a16.7 16.7 0 0 0 17 0l43.1-25.1a17 17 0 0 0 8.5-14.8v-50.1a17 17 0 0 0-8.5-14.8l-43.1-25.1a16.7 16.7 0 0 0-17 0l-43.1 25.1a17 17 0 0 0-8.5 14.8v50.1zm339.4 118.6a17 17 0 0 0 8.5 14.8l43.1 25.1a16.7 16.7 0 0 0 17 0l43.1-25.1a17 17 0 0 0 8.5-14.8V1051a17 17 0 0 0-8.5-14.8l-43.1-25.1a16.7 16.7 0 0 0-17 0l-43.1 25.1a17 17 0 0 0-8.5 14.8v50.1z" opacity=".1" fill-rule="evenodd" clip-rule="evenodd" fill="#9b9b9b"/>
</svg>
