<svg xmlns="http://www.w3.org/2000/svg" viewBox="0 0 106.4 119.2">
    <defs>
        <filter id="hex-button" width="107.5" height="108.4" x="-5.8" y="-5.4">
            <feOffset dy="2" in="SourceAlpha" result="shadowOffsetOuter1"/>
            <feGaussianBlur in="shadowOffsetOuter1" result="shadowBlurOuter1" stdDeviation="1"/>
            <feColorMatrix in="shadowBlurOuter1" result="shadowMatrixOuter1" values="0 0 0 0 0 0 0 0 0 0 0 0 0 0 0 0 0 0 0.12 0"/>
            <feOffset in="SourceAlpha" result="shadowOffsetOuter2"/>
            <feGaussianBlur in="shadowOffsetOuter2" result="shadowBlurOuter2" stdDeviation="1"/>
            <feColorMatrix in="shadowBlurOuter2" result="shadowMatrixOuter2" values="0 0 0 0 0 0 0 0 0 0 0 0 0 0 0 0 0 0 0.12 0"/>
            <feMerge>
                <feMergeNode in="shadowMatrixOuter1"/>
                <feMergeNode in="shadowMatrixOuter2"/>
            </feMerge>
        </filter>
    </defs>
    <path fill-rule="evenodd" d="M2 83.81A15.22 15.22 0 0 0 9.53 97l38.14 22.21a15 15 0 0 0 15.06 0L100.87 97a15.22 15.22 0 0 0 7.53-13.15V39.39a15.21 15.21 0 0 0-7.53-13.15L62.73 4a15 15 0 0 0-15.06 0L9.53 26.24A15.21 15.21 0 0 0 2 39.39z" filter="url(#hex-button)" transform="translate(-2 -2)"/>
    <path fill="#74ae43" fill-rule="evenodd" d="M0 81.81A15.22 15.22 0 0 0 7.53 95l38.14 22.21a15 15 0 0 0 15.06 0L98.87 95a15.22 15.22 0 0 0 7.53-13.15V37.39a15.21 15.21 0 0 0-7.53-13.15L60.73 2a15 15 0 0 0-15.06 0L7.53 24.24A15.21 15.21 0 0 0 0 37.39z"/>
</svg>
