<svg xmlns="http://www.w3.org/2000/svg" viewBox="0 0 106.4 119.2">
    <path fill-rule="evenodd" d="M2 83.81A15.22 15.22 0 0 0 9.53 97l38.14 22.21a15 15 0 0 0 15.06 0L100.87 97a15.22 15.22 0 0 0 7.53-13.15V39.39a15.21 15.21 0 0 0-7.53-13.15L62.73 4a15 15 0 0 0-15.06 0L9.53 26.24A15.21 15.21 0 0 0 2 39.39z" transform="translate(-2 -2)"/>
    <path fill="currentColor" fill-rule="evenodd" d="M0 81.81A15.22 15.22 0 0 0 7.53 95l38.14 22.21a15 15 0 0 0 15.06 0L98.87 95a15.22 15.22 0 0 0 7.53-13.15V37.39a15.21 15.21 0 0 0-7.53-13.15L60.73 2a15 15 0 0 0-15.06 0L7.53 24.24A15.21 15.21 0 0 0 0 37.39z"/>
</svg>
