<svg id="Layer_1" xmlns="http://www.w3.org/2000/svg" viewBox="0 0 1822 1440"><style>.st0{opacity:.15}.st1{fill-rule:evenodd;clip-rule:evenodd;fill:#9b9b9b}</style><g id="Import-from-Dockstore-2560"><g id="Group-2" transform="translate(14 43)" class="st0"><path id="Fill-7" class="st1" d="M135.5 816.6a17 17 0 0 0 8.5 14.8l43.1 25.1a16.7 16.7 0 0 0 17 0l43.1-25.1a17 17 0 0 0 8.5-14.8v-50.1a17 17 0 0 0-8.5-14.8L204 726.6a16.7 16.7 0 0 0-17 0l-43 25.1a17 17 0 0 0-8.5 14.8v50.1z"/><path class="st1" d="M270.9 816.6a17 17 0 0 0 8.5 14.8l43.1 25.1a16.7 16.7 0 0 0 17 0l43.1-25.1a17 17 0 0 0 8.5-14.8v-50.1a17 17 0 0 0-8.5-14.8l-43.1-25.1a16.7 16.7 0 0 0-17 0l-43.1 25.1a17 17 0 0 0-8.5 14.8v50.1zM413 816.4a17 17 0 0 0 8.5 14.8l43.1 25.1a16.7 16.7 0 0 0 17 0l43.1-25.1a17 17 0 0 0 8.5-14.8v-50.1a17 17 0 0 0-8.5-14.8l-43.1-25.1a16.7 16.7 0 0 0-17 0l-43.1 25.1a17 17 0 0 0-8.5 14.8v50.1zM135.5 577.3a17 17 0 0 0 8.5 14.8l43.1 25.1a16.7 16.7 0 0 0 17 0l43.1-25.1a17 17 0 0 0 8.5-14.8v-50.1a17 17 0 0 0-8.5-14.8L204 487.3a16.7 16.7 0 0 0-17 0l-43 25.1a17 17 0 0 0-8.5 14.8v50.1zM270.9 577.3a17 17 0 0 0 8.5 14.8l43.1 25.1a16.7 16.7 0 0 0 17 0l43.1-25.1a17 17 0 0 0 8.5-14.8v-50.1a17 17 0 0 0-8.5-14.8l-43.1-25.1a16.7 16.7 0 0 0-17 0l-43.1 25.1a17 17 0 0 0-8.5 14.8v50.1zM410 577.3a17 17 0 0 0 8.5 14.8l43.1 25.1a16.7 16.7 0 0 0 17 0l43.1-25.1a17 17 0 0 0 8.5-14.8v-50.1a17 17 0 0 0-8.5-14.8l-43.1-25.1a16.7 16.7 0 0 0-17 0l-43.1 25.1a17 17 0 0 0-8.5 14.8v50.1zM135.5 92.4a17 17 0 0 0 8.5 14.8l43.1 25.1a16.7 16.7 0 0 0 17 0l43.1-25.1a17 17 0 0 0 8.5-14.8V42.2a17 17 0 0 0-8.5-14.8L204 2.3a16.7 16.7 0 0 0-17 0l-43 25.1a17 17 0 0 0-8.5 14.8v50.2zM270.9 92.4a17 17 0 0 0 8.5 14.8l43.1 25.1a16.7 16.7 0 0 0 17 0l43.1-25.1a17 17 0 0 0 8.5-14.8V42.2a17 17 0 0 0-8.5-14.8L339.5 2.3a16.7 16.7 0 0 0-17 0l-43.1 25.1a17 17 0 0 0-8.5 14.8v50.2zM410 92.4a17 17 0 0 0 8.5 14.8l43.1 25.1a16.7 16.7 0 0 0 17 0l43.1-25.1a17 17 0 0 0 8.5-14.8V42.2a17 17 0 0 0-8.5-14.8L478.6 2.3a16.7 16.7 0 0 0-17 0l-43.1 25.1a17 17 0 0 0-8.5 14.8v50.2zM135.5 338a17 17 0 0 0 8.5 14.8l43.1 25.1a16.7 16.7 0 0 0 17 0l43.1-25.1a17 17 0 0 0 8.5-14.8v-50.1a17 17 0 0 0-8.5-14.8L204 247.9a16.7 16.7 0 0 0-17 0L144 273a17 17 0 0 0-8.5 14.8V338zM270.9 338a17 17 0 0 0 8.5 14.8l43.1 25.1a16.7 16.7 0 0 0 17 0l43.1-25.1a17 17 0 0 0 8.5-14.8v-50.1a17 17 0 0 0-8.5-14.8L339.5 248a16.7 16.7 0 0 0-17 0l-43.1 25a17 17 0 0 0-8.5 14.8V338zM410 338a17 17 0 0 0 8.5 14.8l43.1 25.1a16.7 16.7 0 0 0 17 0l43.1-25.1a17 17 0 0 0 8.5-14.8v-50.1a17 17 0 0 0-8.5-14.8L478.6 248a16.7 16.7 0 0 0-17 0l-43.1 25a17 17 0 0 0-8.5 14.8V338zM201.4 696.9a17 17 0 0 0 8.5 14.8l43.1 25.1a16.7 16.7 0 0 0 17 0l43.1-25.1a17 17 0 0 0 8.5-14.8v-50.1a17 17 0 0 0-8.5-14.8L270 606.9a16.7 16.7 0 0 0-17 0L209.9 632a17 17 0 0 0-8.5 14.8v50.1zM341.4 696.9a17 17 0 0 0 8.5 14.8l43.1 25.1a16.7 16.7 0 0 0 17 0l43.1-25.1a17 17 0 0 0 8.5-14.8v-50.1a17 17 0 0 0-8.5-14.8L410 606.9a16.7 16.7 0 0 0-17 0L349.9 632a17 17 0 0 0-8.5 14.8v50.1zM201.4 458.1a17 17 0 0 0 8.5 14.8L253 498a16.7 16.7 0 0 0 17 0l43-25a17 17 0 0 0 8.5-14.8V408a17 17 0 0 0-8.5-14.8l-43.1-25.1a16.7 16.7 0 0 0-17 0l-43.1 25.1a17 17 0 0 0-8.5 14.8v50.1zM341.4 458.1a17 17 0 0 0 8.5 14.8L393 498a16.7 16.7 0 0 0 17 0l43-25a17 17 0 0 0 8.5-14.8V408a17 17 0 0 0-8.5-14.8l-43.1-25.1a16.7 16.7 0 0 0-17 0l-43.1 25.1a17 17 0 0 0-8.5 14.8v50.1zM477.7 458.1a17 17 0 0 0 8.5 14.8l43.1 25.1a16.7 16.7 0 0 0 17 0l43.1-25.1a17 17 0 0 0 8.5-14.8V408a17 17 0 0 0-8.5-14.8l-43.1-25.1a16.7 16.7 0 0 0-17 0l-43.1 25.1a17 17 0 0 0-8.5 14.8v50.1zM201.4 214.9a17 17 0 0 0 8.5 14.8l43.1 25.1a16.7 16.7 0 0 0 17 0l43.1-25.1a17 17 0 0 0 8.5-14.8v-50.1a17 17 0 0 0-8.5-14.8L270 124.9a16.7 16.7 0 0 0-17 0L209.9 150a17 17 0 0 0-8.5 14.8v50.1zM67.7 214.9a17 17 0 0 0 8.5 14.8l43.1 25.1a16.7 16.7 0 0 0 17 0l43.1-25.1a17 17 0 0 0 8.5-14.8v-50.1a17 17 0 0 0-8.5-14.8l-43.1-25.1a16.7 16.7 0 0 0-17 0L76.2 150a17 17 0 0 0-8.5 14.8v50.1zM0 93.3a17 17 0 0 0 8.5 14.8l43.1 25.1a16.7 16.7 0 0 0 17 0l43.1-25.1a17 17 0 0 0 8.5-14.8V43.1a17 17 0 0 0-8.5-14.8L68.6 3.2a16.7 16.7 0 0 0-17 0L8.5 28.3A17 17 0 0 0 0 43.1v50.2zM341.4 214.9a17 17 0 0 0 8.5 14.8l43.1 25.1a16.7 16.7 0 0 0 17 0l43.1-25.1a17 17 0 0 0 8.5-14.8v-50.1a17 17 0 0 0-8.5-14.8L410 124.9a16.7 16.7 0 0 0-17 0L349.9 150a17 17 0 0 0-8.5 14.8v50.1zM678.5 816.6a17 17 0 0 0 8.5 14.8l43.1 25.1a16.7 16.7 0 0 0 17 0l43.1-25.1a17 17 0 0 0 8.5-14.8v-50.1a17 17 0 0 0-8.5-14.8L747 726.6a16.7 16.7 0 0 0-17 0l-43 25.1a17 17 0 0 0-8.5 14.8v50.1zM813.9 816.6a17 17 0 0 0 8.5 14.8l43.1 25.1a16.7 16.7 0 0 0 17 0l43.1-25.1a17 17 0 0 0 8.5-14.8v-50.1a17 17 0 0 0-8.5-14.8l-43.1-25.1a16.7 16.7 0 0 0-17 0l-43.1 25.1a17 17 0 0 0-8.5 14.8v50.1zM678.5 577.3a17 17 0 0 0 8.5 14.8l43.1 25.1a16.7 16.7 0 0 0 17 0l43.1-25.1a17 17 0 0 0 8.5-14.8v-50.1a17 17 0 0 0-8.5-14.8L747 487.3a16.7 16.7 0 0 0-17 0l-43 25.1a17 17 0 0 0-8.5 14.8v50.1zM813.9 577.3a17 17 0 0 0 8.5 14.8l43.1 25.1a16.7 16.7 0 0 0 17 0l43.1-25.1a17 17 0 0 0 8.5-14.8v-50.1a17 17 0 0 0-8.5-14.8l-43.1-25.1a16.7 16.7 0 0 0-17 0l-43.1 25.1a17 17 0 0 0-8.5 14.8v50.1zM953 816.6a17 17 0 0 0 8.5 14.8l43.1 25.1a16.7 16.7 0 0 0 17 0l43.1-25.1a17 17 0 0 0 8.5-14.8v-50.1a17 17 0 0 0-8.5-14.8l-43.1-25.1a16.7 16.7 0 0 0-17 0l-43.1 25.1a17 17 0 0 0-8.5 14.8v50.1zM953 577.3a17 17 0 0 0 8.5 14.8l43.1 25.1a16.7 16.7 0 0 0 17 0l43.1-25.1a17 17 0 0 0 8.5-14.8v-50.1a17 17 0 0 0-8.5-14.8l-43.1-25.1a16.7 16.7 0 0 0-17 0l-43.1 25.1a17 17 0 0 0-8.5 14.8v50.1zM678.5 92.4a17 17 0 0 0 8.5 14.8l43.1 25.1a16.7 16.7 0 0 0 17 0l43.1-25.1a17 17 0 0 0 8.5-14.8V42.2a17 17 0 0 0-8.5-14.8L747 2.3a16.7 16.7 0 0 0-17 0l-43 25.1a17 17 0 0 0-8.5 14.8v50.2zM953 92.4a17 17 0 0 0 8.5 14.8l43.1 25.1a16.7 16.7 0 0 0 17 0l43.1-25.1a17 17 0 0 0 8.5-14.8V42.2a17 17 0 0 0-8.5-14.8l-43.1-25.1a16.7 16.7 0 0 0-17 0l-43.1 25.1a17 17 0 0 0-8.5 14.8v50.2zM678.5 338a17 17 0 0 0 8.5 14.8l43.1 25.1a16.7 16.7 0 0 0 17 0l43.1-25.1a17 17 0 0 0 8.5-14.8v-50.1a17 17 0 0 0-8.5-14.8L747 247.9a16.7 16.7 0 0 0-17 0L687 273a17 17 0 0 0-8.5 14.8V338zM813.9 338a17 17 0 0 0 8.5 14.8l43.1 25.1a16.7 16.7 0 0 0 17 0l43.1-25.1a17 17 0 0 0 8.5-14.8v-50.1a17 17 0 0 0-8.5-14.8L882.5 248a16.7 16.7 0 0 0-17 0l-43.1 25a17 17 0 0 0-8.5 14.8V338zM953 338a17 17 0 0 0 8.5 14.8l43.1 25.1a16.7 16.7 0 0 0 17 0l43.1-25.1a17 17 0 0 0 8.5-14.8v-50.1a17 17 0 0 0-8.5-14.8l-43.1-25.1a16.7 16.7 0 0 0-17 0l-43.1 25a17 17 0 0 0-8.5 14.8V338zM1089 338.4a17 17 0 0 0 8.5 14.8l43.1 25.1a16.7 16.7 0 0 0 17 0l43.1-25.1a17 17 0 0 0 8.5-14.8v-50.1a17 17 0 0 0-8.5-14.8l-43.1-25.1a16.7 16.7 0 0 0-17 0l-43.1 25.1a17 17 0 0 0-8.5 14.8v50.1zM884.4 696.9a17 17 0 0 0 8.5 14.8l43.1 25.1a16.7 16.7 0 0 0 17 0l43.1-25.1a17 17 0 0 0 8.5-14.8v-50.1a17 17 0 0 0-8.5-14.8L953 606.9a16.7 16.7 0 0 0-17 0L892.9 632a17 17 0 0 0-8.5 14.8v50.1zM744.4 458.1a17 17 0 0 0 8.5 14.8L796 498a16.7 16.7 0 0 0 17 0l43-25a17 17 0 0 0 8.5-14.8V408a17 17 0 0 0-8.5-14.8l-43.1-25.1a16.7 16.7 0 0 0-17 0l-43.1 25.1a17 17 0 0 0-8.5 14.8v50.1zM612 458.4a17 17 0 0 0 8.5 14.8l43.1 25.1a16.7 16.7 0 0 0 17 0l43.1-25.1a17 17 0 0 0 8.5-14.8v-50.1a17 17 0 0 0-8.5-14.8l-43.1-25.1a16.7 16.7 0 0 0-17 0l-43.1 25.1a17 17 0 0 0-8.5 14.8v50.1zM1020.7 458.1a17 17 0 0 0 8.5 14.8l43.1 25.1a16.7 16.7 0 0 0 17 0l43.1-25.1a17 17 0 0 0 8.5-14.8V408a17 17 0 0 0-8.5-14.8l-43.1-25.1a16.7 16.7 0 0 0-17 0l-43.1 25.1a17 17 0 0 0-8.5 14.8v50.1zM744.4 215.9a17 17 0 0 0 8.5 14.8l43.1 25.1a16.7 16.7 0 0 0 17 0l43.1-25.1a17 17 0 0 0 8.5-14.8v-50.1a17 17 0 0 0-8.5-14.8L813 125.9a16.7 16.7 0 0 0-17 0L752.9 151a17 17 0 0 0-8.5 14.8v50.1zM610.7 215.9a17 17 0 0 0 8.5 14.8l43.1 25.1a16.7 16.7 0 0 0 17 0l43.1-25.1a17 17 0 0 0 8.5-14.8v-50.1a17 17 0 0 0-8.5-14.8l-43.1-25.1a16.7 16.7 0 0 0-17 0L619.2 151a17 17 0 0 0-8.5 14.8v50.1zM543 93.3a17 17 0 0 0 8.5 14.8l43.1 25.1a16.7 16.7 0 0 0 17 0l43.1-25.1a17 17 0 0 0 8.5-14.8V43.1a17 17 0 0 0-8.5-14.8L611.6 3.2a16.7 16.7 0 0 0-17 0l-43.1 25.1a17 17 0 0 0-8.5 14.8v50.2zM884.4 215.9a17 17 0 0 0 8.5 14.8l43.1 25.1a16.7 16.7 0 0 0 17 0l43.1-25.1a17 17 0 0 0 8.5-14.8v-50.1a17 17 0 0 0-8.5-14.8L953 125.9a16.7 16.7 0 0 0-17 0L892.9 151a17 17 0 0 0-8.5 14.8v50.1zM1224.5 819.6a17 17 0 0 0 8.5 14.8l43.1 25.1a16.7 16.7 0 0 0 17 0l43.1-25.1a17 17 0 0 0 8.5-14.8v-50.1a17 17 0 0 0-8.5-14.8l-43.1-25.1a16.7 16.7 0 0 0-17 0l-43.1 25.1a17 17 0 0 0-8.5 14.8v50.1zM1359.9 819.6a17 17 0 0 0 8.5 14.8l43.1 25.1a16.7 16.7 0 0 0 17 0l43.1-25.1a17 17 0 0 0 8.5-14.8v-50.1a17 17 0 0 0-8.5-14.8l-43.1-25.1a16.7 16.7 0 0 0-17 0l-43.1 25.1a17 17 0 0 0-8.5 14.8v50.1zM1224.5 577.3a17 17 0 0 0 8.5 14.8l43.1 25.1a16.7 16.7 0 0 0 17 0l43.1-25.1a17 17 0 0 0 8.5-14.8v-50.1a17 17 0 0 0-8.5-14.8l-43.1-25.1a16.7 16.7 0 0 0-17 0l-43.1 25.1a17 17 0 0 0-8.5 14.8v50.1zM1359.9 577.3a17 17 0 0 0 8.5 14.8l43.1 25.1a16.7 16.7 0 0 0 17 0l43.1-25.1a17 17 0 0 0 8.5-14.8v-50.1a17 17 0 0 0-8.5-14.8l-43.1-25.1a16.7 16.7 0 0 0-17 0l-43.1 25.1a17 17 0 0 0-8.5 14.8v50.1zM1499 819.6a17 17 0 0 0 8.5 14.8l43.1 25.1a16.7 16.7 0 0 0 17 0l43.1-25.1a17 17 0 0 0 8.5-14.8v-50.1a17 17 0 0 0-8.5-14.8l-43.1-25.1a16.7 16.7 0 0 0-17 0l-43.1 25.1a17 17 0 0 0-8.5 14.8v50.1zM1499 577.3a17 17 0 0 0 8.5 14.8l43.1 25.1a16.7 16.7 0 0 0 17 0l43.1-25.1a17 17 0 0 0 8.5-14.8v-50.1a17 17 0 0 0-8.5-14.8l-43.1-25.1a16.7 16.7 0 0 0-17 0l-43.1 25.1a17 17 0 0 0-8.5 14.8v50.1zM1637 577.4a17 17 0 0 0 8.5 14.8l43.1 25.1a16.7 16.7 0 0 0 17 0l43.1-25.1a17 17 0 0 0 8.5-14.8v-50.1a17 17 0 0 0-8.5-14.8l-43.1-25.1a16.7 16.7 0 0 0-17 0l-43.1 25.1a17 17 0 0 0-8.5 14.8v50.1zM1499 92.4a17 17 0 0 0 8.5 14.8l43.1 25.1a16.7 16.7 0 0 0 17 0l43.1-25.1a17 17 0 0 0 8.5-14.8V42.2a17 17 0 0 0-8.5-14.8l-43.1-25.1a16.7 16.7 0 0 0-17 0l-43.1 25.1a17 17 0 0 0-8.5 14.8v50.2zM1224.5 338a17 17 0 0 0 8.5 14.8l43.1 25.1a16.7 16.7 0 0 0 17 0l43.1-25.1a17 17 0 0 0 8.5-14.8v-50.1a17 17 0 0 0-8.5-14.8l-43.1-25.1a16.7 16.7 0 0 0-17 0l-43.1 25a17 17 0 0 0-8.5 14.8V338zM1359.9 338a17 17 0 0 0 8.5 14.8l43.1 25.1a16.7 16.7 0 0 0 17 0l43.1-25.1a17 17 0 0 0 8.5-14.8v-50.1a17 17 0 0 0-8.5-14.8l-43.1-25.1a16.7 16.7 0 0 0-17 0l-43.1 25.1a17 17 0 0 0-8.5 14.8V338zM1499 338a17 17 0 0 0 8.5 14.8l43.1 25.1a16.7 16.7 0 0 0 17 0l43.1-25.1a17 17 0 0 0 8.5-14.8v-50.1a17 17 0 0 0-8.5-14.8l-43.1-25.1a16.7 16.7 0 0 0-17 0l-43.1 25.1a17 17 0 0 0-8.5 14.8V338zM1637 338.4a17 17 0 0 0 8.5 14.8l43.1 25.1a16.7 16.7 0 0 0 17 0l43.1-25.1a17 17 0 0 0 8.5-14.8v-50.1a17 17 0 0 0-8.5-14.8l-43.1-25.1a16.7 16.7 0 0 0-17 0l-43.1 25.1a17 17 0 0 0-8.5 14.8v50.1zM1776 338.4a17 17 0 0 0 8.5 14.8l43.1 25.1a16.7 16.7 0 0 0 17 0l43.1-25.1a17 17 0 0 0 8.5-14.8v-50.1a17 17 0 0 0-8.5-14.8l-43.1-25.1a16.7 16.7 0 0 0-17 0l-43.1 25.1a17 17 0 0 0-8.5 14.8v50.1zM1430.4 696.9a17 17 0 0 0 8.5 14.8l43.1 25.1a16.7 16.7 0 0 0 17 0l43.1-25.1a17 17 0 0 0 8.5-14.8v-50.1a17 17 0 0 0-8.5-14.8l-43.1-25.1a16.7 16.7 0 0 0-17 0l-43.1 25.1a17 17 0 0 0-8.5 14.8v50.1zM1020 697.4a17 17 0 0 0 8.5 14.8l43.1 25.1a16.7 16.7 0 0 0 17 0l43.1-25.1a17 17 0 0 0 8.5-14.8v-50.1a17 17 0 0 0-8.5-14.8l-43.1-25.1a16.7 16.7 0 0 0-17 0l-43.1 25.1a17 17 0 0 0-8.5 14.8v50.1zM1158 697.4a17 17 0 0 0 8.5 14.8l43.1 25.1a16.7 16.7 0 0 0 17 0l43.1-25.1a17 17 0 0 0 8.5-14.8v-50.1a17 17 0 0 0-8.5-14.8l-43.1-25.1a16.7 16.7 0 0 0-17 0l-43.1 25.1a17 17 0 0 0-8.5 14.8v50.1zM1290.4 458.1a17 17 0 0 0 8.5 14.8L1342 498a16.7 16.7 0 0 0 17 0l43-25a17 17 0 0 0 8.5-14.8V408a17 17 0 0 0-8.5-14.8l-43.1-25.1a16.7 16.7 0 0 0-17 0l-43.1 25.1a17 17 0 0 0-8.5 14.8v50.1zM1430.4 458.1a17 17 0 0 0 8.5 14.8L1482 498a16.7 16.7 0 0 0 17 0l43-25a17 17 0 0 0 8.5-14.8V408a17 17 0 0 0-8.5-14.8l-43.1-25.1a16.7 16.7 0 0 0-17 0l-43.1 25.1a17 17 0 0 0-8.5 14.8v50.1zM1566.7 458.1a17 17 0 0 0 8.5 14.8l43.1 25.1a16.7 16.7 0 0 0 17 0l43.1-25.1a17 17 0 0 0 8.5-14.8V408a17 17 0 0 0-8.5-14.8l-43.1-25.1a16.7 16.7 0 0 0-17 0l-43.1 25.1a17 17 0 0 0-8.5 14.8v50.1zM1290.4 213.9a17 17 0 0 0 8.5 14.8l43.1 25.1a16.7 16.7 0 0 0 17 0l43.1-25.1a17 17 0 0 0 8.5-14.8v-50.1a17 17 0 0 0-8.5-14.8l-43.1-25.1a16.7 16.7 0 0 0-17 0l-43.1 25.1a17 17 0 0 0-8.5 14.8v50.1zM1156.7 213.9a17 17 0 0 0 8.5 14.8l43.1 25.1a16.7 16.7 0 0 0 17 0l43.1-25.1a17 17 0 0 0 8.5-14.8v-50.1a17 17 0 0 0-8.5-14.8l-43.1-25.1a16.7 16.7 0 0 0-17 0l-43.1 25.1a17 17 0 0 0-8.5 14.8v50.1zM1089 93.3a17 17 0 0 0 8.5 14.8l43.1 25.1a16.7 16.7 0 0 0 17 0l43.1-25.1a17 17 0 0 0 8.5-14.8V43.1a17 17 0 0 0-8.5-14.8l-43.1-25.1a16.7 16.7 0 0 0-17 0l-43.1 25.1a17 17 0 0 0-8.5 14.8v50.2zM1430.4 213.9a17 17 0 0 0 8.5 14.8l43.1 25.1a16.7 16.7 0 0 0 17 0l43.1-25.1a17 17 0 0 0 8.5-14.8v-50.1a17 17 0 0 0-8.5-14.8l-43.1-25.1a16.7 16.7 0 0 0-17 0l-43.1 25.1a17 17 0 0 0-8.5 14.8v50.1zM338.5 1416.6a17 17 0 0 0 8.5 14.8l43.1 25.1a16.7 16.7 0 0 0 17 0l43.1-25.1a17 17 0 0 0 8.5-14.8v-50.1a17 17 0 0 0-8.5-14.8l-43.1-25.1a16.7 16.7 0 0 0-17 0l-43.1 25.1a17 17 0 0 0-8.5 14.8v50.1zM473.9 1416.6a17 17 0 0 0 8.5 14.8l43.1 25.1a16.7 16.7 0 0 0 17 0l43.1-25.1a17 17 0 0 0 8.5-14.8v-50.1a17 17 0 0 0-8.5-14.8l-43.1-25.1a16.7 16.7 0 0 0-17 0l-43.1 25.1a17 17 0 0 0-8.5 14.8v50.1zM613 1416.6a17 17 0 0 0 8.5 14.8l43.1 25.1a16.7 16.7 0 0 0 17 0l43.1-25.1a17 17 0 0 0 8.5-14.8v-50.1a17 17 0 0 0-8.5-14.8l-43.1-25.1a16.7 16.7 0 0 0-17 0l-43.1 25.1a17 17 0 0 0-8.5 14.8v50.1zM338.5 938.6a17 17 0 0 0 8.5 14.8l43.1 25.1a16.7 16.7 0 0 0 17 0l43.1-25.1a17 17 0 0 0 8.5-14.8v-50.1a17 17 0 0 0-8.5-14.8L407 848.5a16.7 16.7 0 0 0-17 0l-43 25.1a17 17 0 0 0-8.5 14.8v50.2zM613 938.6a17 17 0 0 0 8.5 14.8l43.1 25.1a16.7 16.7 0 0 0 17 0l43.1-25.1a17 17 0 0 0 8.5-14.8v-50.1a17 17 0 0 0-8.5-14.8l-43.1-25.1a16.7 16.7 0 0 0-17 0l-43.1 25.1a17 17 0 0 0-8.5 14.8v50.1zM338.5 1177.3a17 17 0 0 0 8.5 14.8l43.1 25.1a16.7 16.7 0 0 0 17 0l43.1-25.1a17 17 0 0 0 8.5-14.8v-50.1a17 17 0 0 0-8.5-14.8l-43.1-25.1a16.7 16.7 0 0 0-17 0l-43.1 25.1a17 17 0 0 0-8.5 14.8v50.1zM473.9 1177.3a17 17 0 0 0 8.5 14.8l43.1 25.1a16.7 16.7 0 0 0 17 0l43.1-25.1a17 17 0 0 0 8.5-14.8v-50.1a17 17 0 0 0-8.5-14.8l-43.1-25.1a16.7 16.7 0 0 0-17 0l-43.1 25.1a17 17 0 0 0-8.5 14.8v50.1zM613 1177.3a17 17 0 0 0 8.5 14.8l43.1 25.1a16.7 16.7 0 0 0 17 0l43.1-25.1a17 17 0 0 0 8.5-14.8v-50.1a17 17 0 0 0-8.5-14.8l-43.1-25.1a16.7 16.7 0 0 0-17 0l-43.1 25.1a17 17 0 0 0-8.5 14.8v50.1zM748 1177.6a17 17 0 0 0 8.5 14.8l43.1 25.1a16.7 16.7 0 0 0 17 0l43.1-25.1a17 17 0 0 0 8.5-14.8v-50.1a17 17 0 0 0-8.5-14.8l-43.1-25.1a16.7 16.7 0 0 0-17 0l-43.1 25.1a17 17 0 0 0-8.5 14.8v50.1zM404.4 1297.4a17 17 0 0 0 8.5 14.8l43.1 25.1a16.7 16.7 0 0 0 17 0l43.1-25.1a17 17 0 0 0 8.5-14.8v-50.1a17 17 0 0 0-8.5-14.8l-43.1-25.1a16.7 16.7 0 0 0-17 0l-43.1 25.1a17 17 0 0 0-8.5 14.8v50.1zM544.4 1297.4a17 17 0 0 0 8.5 14.8l43.1 25.1a16.7 16.7 0 0 0 17 0l43.1-25.1a17 17 0 0 0 8.5-14.8v-50.1a17 17 0 0 0-8.5-14.8l-43.1-25.1a16.7 16.7 0 0 0-17 0l-43.1 25.1a17 17 0 0 0-8.5 14.8v50.1zM680.7 1297.4a17 17 0 0 0 8.5 14.8l43.1 25.1a16.7 16.7 0 0 0 17 0l43.1-25.1a17 17 0 0 0 8.5-14.8v-50.1a17 17 0 0 0-8.5-14.8l-43.1-25.1a16.7 16.7 0 0 0-17 0l-43.1 25.1a17 17 0 0 0-8.5 14.8v50.1zM405.4 1058.1a17 17 0 0 0 8.5 14.8L457 1098a16.7 16.7 0 0 0 17 0l43-25a17 17 0 0 0 8.5-14.8V1008a17 17 0 0 0-8.5-14.8l-43.1-25.1a16.7 16.7 0 0 0-17 0l-43.1 25.1a17 17 0 0 0-8.5 14.8v50.1zM270.7 1058.1a17 17 0 0 0 8.5 14.8l43.1 25.1a16.7 16.7 0 0 0 17 0l43.1-25.1a17 17 0 0 0 8.5-14.8V1008a17 17 0 0 0-8.5-14.8l-43.1-25.1a16.7 16.7 0 0 0-17 0l-43.1 25.1a17 17 0 0 0-8.5 14.8v50.1zM203 939.5a17 17 0 0 0 8.5 14.8l43.1 25.1a16.7 16.7 0 0 0 17 0l43.1-25.1a17 17 0 0 0 8.5-14.8v-50.1a17 17 0 0 0-8.5-14.8l-43.1-25.1a16.7 16.7 0 0 0-17 0l-43.1 25.1a17 17 0 0 0-8.5 14.8v50.1zM542.4 1058.1a17 17 0 0 0 8.5 14.8L594 1098a16.7 16.7 0 0 0 17 0l43-25a17 17 0 0 0 8.5-14.8V1008a17 17 0 0 0-8.5-14.8l-43.1-25.1a16.7 16.7 0 0 0-17 0l-43.1 25.1a17 17 0 0 0-8.5 14.8v50.1zM882.5 1416.3a17 17 0 0 0 8.5 14.8l43.1 25.1a16.7 16.7 0 0 0 17 0l43.1-25.1a17 17 0 0 0 8.5-14.8v-50.1a17 17 0 0 0-8.5-14.8l-43.1-25.1a16.7 16.7 0 0 0-17 0l-43.1 25.1a17 17 0 0 0-8.5 14.8v50.1zM1157 1416.3a17 17 0 0 0 8.5 14.8l43.1 25.1a16.7 16.7 0 0 0 17 0l43.1-25.1a17 17 0 0 0 8.5-14.8v-50.1a17 17 0 0 0-8.5-14.8l-43.1-25.1a16.7 16.7 0 0 0-17 0l-43.1 25.1a17 17 0 0 0-8.5 14.8v50.1zM882.5 938.4a17 17 0 0 0 8.5 14.8l43.1 25.1a16.7 16.7 0 0 0 17 0l43.1-25.1a17 17 0 0 0 8.5-14.8v-50.1a17 17 0 0 0-8.5-14.8L951 848.3a16.7 16.7 0 0 0-17 0l-43 25.1a17 17 0 0 0-8.5 14.8v50.2zM1017.9 938.4a17 17 0 0 0 8.5 14.8l43.1 25.1a16.7 16.7 0 0 0 17 0l43.1-25.1a17 17 0 0 0 8.5-14.8v-50.1a17 17 0 0 0-8.5-14.8l-43.1-25.1a16.7 16.7 0 0 0-17 0l-43.1 25.1a17 17 0 0 0-8.5 14.8v50.1zM1157 938.4a17 17 0 0 0 8.5 14.8l43.1 25.1a16.7 16.7 0 0 0 17 0l43.1-25.1a17 17 0 0 0 8.5-14.8v-50.1a17 17 0 0 0-8.5-14.8l-43.1-25.1a16.7 16.7 0 0 0-17 0l-43.1 25.1a17 17 0 0 0-8.5 14.8v50.1zM882.5 1177a17 17 0 0 0 8.5 14.8l43.1 25.1a16.7 16.7 0 0 0 17 0l43.1-25.1a17 17 0 0 0 8.5-14.8v-50.1a17 17 0 0 0-8.5-14.8l-43.1-25.1a16.7 16.7 0 0 0-17 0l-43.1 25a17 17 0 0 0-8.5 14.8v50.2zM1017.9 1177a17 17 0 0 0 8.5 14.8l43.1 25.1a16.7 16.7 0 0 0 17 0l43.1-25.1a17 17 0 0 0 8.5-14.8v-50.1a17 17 0 0 0-8.5-14.8l-43.1-25.1a16.7 16.7 0 0 0-17 0l-43.1 25.1a17 17 0 0 0-8.5 14.8v50.1zM1157 1177a17 17 0 0 0 8.5 14.8l43.1 25.1a16.7 16.7 0 0 0 17 0l43.1-25.1a17 17 0 0 0 8.5-14.8v-50.1a17 17 0 0 0-8.5-14.8l-43.1-25.1a16.7 16.7 0 0 0-17 0l-43.1 25.1a17 17 0 0 0-8.5 14.8v50.1zM1291 1177.4a17 17 0 0 0 8.5 14.8l43.1 25.1a16.7 16.7 0 0 0 17 0l43.1-25.1a17 17 0 0 0 8.5-14.8v-50.1a17 17 0 0 0-8.5-14.8l-43.1-25.1a16.7 16.7 0 0 0-17 0l-43.1 25.1a17 17 0 0 0-8.5 14.8v50.1zM948.4 1297.1a17 17 0 0 0 8.5 14.8l43.1 25.1a16.7 16.7 0 0 0 17 0l43.1-25.1a17 17 0 0 0 8.5-14.8V1247a17 17 0 0 0-8.5-14.8l-43.1-25.1a16.7 16.7 0 0 0-17 0l-43.1 25.1a17 17 0 0 0-8.5 14.8v50.1zM1088.4 1297.1a17 17 0 0 0 8.5 14.8l43.1 25.1a16.7 16.7 0 0 0 17 0l43.1-25.1a17 17 0 0 0 8.5-14.8V1247a17 17 0 0 0-8.5-14.8l-43.1-25.1a16.7 16.7 0 0 0-17 0l-43.1 25.1a17 17 0 0 0-8.5 14.8v50.1zM1224.7 1297.1a17 17 0 0 0 8.5 14.8l43.1 25.1a16.7 16.7 0 0 0 17 0l43.1-25.1a17 17 0 0 0 8.5-14.8V1247a17 17 0 0 0-8.5-14.8l-43.1-25.1a16.7 16.7 0 0 0-17 0l-43.1 25.1a17 17 0 0 0-8.5 14.8v50.1zM948.4 1057.9a17 17 0 0 0 8.5 14.8l43.1 25.1a16.7 16.7 0 0 0 17 0l43.1-25.1a17 17 0 0 0 8.5-14.8v-50.1a17 17 0 0 0-8.5-14.8l-43.1-25.1a16.7 16.7 0 0 0-17 0L956.9 993a17 17 0 0 0-8.5 14.8v50.1zM814.7 1057.9a17 17 0 0 0 8.5 14.8l43.1 25.1a16.7 16.7 0 0 0 17 0l43.1-25.1a17 17 0 0 0 8.5-14.8v-50.1a17 17 0 0 0-8.5-14.8l-43.1-25.1a16.7 16.7 0 0 0-17 0L823.2 993a17 17 0 0 0-8.5 14.8v50.1zM747 939.3a17 17 0 0 0 8.5 14.8l43.1 25.1a16.7 16.7 0 0 0 17 0l43.1-25.1a17 17 0 0 0 8.5-14.8v-50.1a17 17 0 0 0-8.5-14.8l-43.1-25.1a16.7 16.7 0 0 0-17 0l-43.1 25.1a17 17 0 0 0-8.5 14.8v50.1zM1428.5 1416.6a17 17 0 0 0 8.5 14.8l43.1 25.1a16.7 16.7 0 0 0 17 0l43.1-25.1a17 17 0 0 0 8.5-14.8v-50.1a17 17 0 0 0-8.5-14.8l-43.1-25.1a16.7 16.7 0 0 0-17 0l-43.1 25.1a17 17 0 0 0-8.5 14.8v50.1zM1563.9 1416.6a17 17 0 0 0 8.5 14.8l43.1 25.1a16.7 16.7 0 0 0 17 0l43.1-25.1a17 17 0 0 0 8.5-14.8v-50.1a17 17 0 0 0-8.5-14.8l-43.1-25.1a16.7 16.7 0 0 0-17 0l-43.1 25.1a17 17 0 0 0-8.5 14.8v50.1zM1703 1416.6a17 17 0 0 0 8.5 14.8l43.1 25.1a16.7 16.7 0 0 0 17 0l43.1-25.1a17 17 0 0 0 8.5-14.8v-50.1a17 17 0 0 0-8.5-14.8l-43.1-25.1a16.7 16.7 0 0 0-17 0l-43.1 25.1a17 17 0 0 0-8.5 14.8v50.1zM1428.5 938.6a17 17 0 0 0 8.5 14.8l43.1 25.1a16.7 16.7 0 0 0 17 0l43.1-25.1a17 17 0 0 0 8.5-14.8v-50.1a17 17 0 0 0-8.5-14.8l-43.1-25.1a16.7 16.7 0 0 0-17 0l-43.1 25.1a17 17 0 0 0-8.5 14.8v50.1zM1701 938.6a17 17 0 0 0 8.5 14.8l43.1 25.1a16.7 16.7 0 0 0 17 0l43.1-25.1a17 17 0 0 0 8.5-14.8v-50.1a17 17 0 0 0-8.5-14.8l-43.1-25.1a16.7 16.7 0 0 0-17 0l-43.1 25.1a17 17 0 0 0-8.5 14.8v50.1zM1428.5 1177.3a17 17 0 0 0 8.5 14.8l43.1 25.1a16.7 16.7 0 0 0 17 0l43.1-25.1a17 17 0 0 0 8.5-14.8v-50.1a17 17 0 0 0-8.5-14.8l-43.1-25.1a16.7 16.7 0 0 0-17 0l-43.1 25.1a17 17 0 0 0-8.5 14.8v50.1zM1563.9 1177.3a17 17 0 0 0 8.5 14.8l43.1 25.1a16.7 16.7 0 0 0 17 0l43.1-25.1a17 17 0 0 0 8.5-14.8v-50.1a17 17 0 0 0-8.5-14.8l-43.1-25.1a16.7 16.7 0 0 0-17 0l-43.1 25.1a17 17 0 0 0-8.5 14.8v50.1zM1703 1177.3a17 17 0 0 0 8.5 14.8l43.1 25.1a16.7 16.7 0 0 0 17 0l43.1-25.1a17 17 0 0 0 8.5-14.8v-50.1a17 17 0 0 0-8.5-14.8l-43.1-25.1a16.7 16.7 0 0 0-17 0l-43.1 25.1a17 17 0 0 0-8.5 14.8v50.1zM1494.4 1297.4a17 17 0 0 0 8.5 14.8l43.1 25.1a16.7 16.7 0 0 0 17 0l43.1-25.1a17 17 0 0 0 8.5-14.8v-50.1a17 17 0 0 0-8.5-14.8l-43.1-25.1a16.7 16.7 0 0 0-17 0l-43.1 25.1a17 17 0 0 0-8.5 14.8v50.1zM1634.4 1297.4a17 17 0 0 0 8.5 14.8l43.1 25.1a16.7 16.7 0 0 0 17 0l43.1-25.1a17 17 0 0 0 8.5-14.8v-50.1a17 17 0 0 0-8.5-14.8l-43.1-25.1a16.7 16.7 0 0 0-17 0l-43.1 25.1a17 17 0 0 0-8.5 14.8v50.1zM1770.7 1297.4a17 17 0 0 0 8.5 14.8l43.1 25.1a16.7 16.7 0 0 0 17 0l43.1-25.1a17 17 0 0 0 8.5-14.8v-50.1a17 17 0 0 0-8.5-14.8l-43.1-25.1a16.7 16.7 0 0 0-17 0l-43.1 25.1a17 17 0 0 0-8.5 14.8v50.1zM1496.4 1058.1a17 17 0 0 0 8.5 14.8l43.1 25.1a16.7 16.7 0 0 0 17 0l43.1-25.1a17 17 0 0 0 8.5-14.8V1008a17 17 0 0 0-8.5-14.8l-43.1-25.1a16.7 16.7 0 0 0-17 0l-43.1 25.1a17 17 0 0 0-8.5 14.8v50.1zM1360.7 1058.1a17 17 0 0 0 8.5 14.8l43.1 25.1a16.7 16.7 0 0 0 17 0l43.1-25.1a17 17 0 0 0 8.5-14.8V1008a17 17 0 0 0-8.5-14.8l-43.1-25.1a16.7 16.7 0 0 0-17 0l-43.1 25.1a17 17 0 0 0-8.5 14.8v50.1zM1293 939.5a17 17 0 0 0 8.5 14.8l43.1 25.1a16.7 16.7 0 0 0 17 0l43.1-25.1a17 17 0 0 0 8.5-14.8v-50.1a17 17 0 0 0-8.5-14.8l-43.1-25.1a16.7 16.7 0 0 0-17 0l-43.1 25.1a17 17 0 0 0-8.5 14.8v50.1zM1632.4 1058.1a17 17 0 0 0 8.5 14.8l43.1 25.1a16.7 16.7 0 0 0 17 0l43.1-25.1a17 17 0 0 0 8.5-14.8V1008a17 17 0 0 0-8.5-14.8l-43.1-25.1a16.7 16.7 0 0 0-17 0l-43.1 25.1a17 17 0 0 0-8.5 14.8v50.1z"/></g></g></svg>