<svg xmlns="http://www.w3.org/2000/svg" viewBox="0 0 44 51">
    <path d="M2.3 26.8c0 1.6-.1 2.1-.4 2.4-.4.3-.8.5-1.3.5l.1.9c.7 0 1.5-.3 2-.7l.7-1.3c.1-.5.2-.9.1-1.4v-5.9H2.3v5.5zm8.9-.7l.1 1.8h-1.1l-.1-1.1a2 2 0 01-.9.9L8 28c-1 0-2.3-.6-2.3-2.8v-3.8h1.2V25c0 1.2.4 2.1 1.5 2.1L9 27l.5-.4.4-.5.1-.6v-4h1.2v4.6zm2.2-2.6l-.1-2.1h1.1l.1 1.1c.2-.4.6-.7 1-1a3 3 0 011.3-.3c1.6 0 2.8 1.3 2.8 3.3 0 2.3-1.4 3.5-3 3.5l-1.1-.2c-.4-.2-.7-.4-.9-.8v3.6h-1.2v-7.1zm1.2 1.8l.1.5c.1.4.3.7.7 1 .3.2.7.4 1.1.4 1.3 0 2-1 2-2.5 0-1.3-.7-2.4-1.9-2.4-.5 0-1 .3-1.3.6s-.5.8-.6 1.3v1.1zm7.1-3.9l1.4 3.8.4 1.3.4-1.4 1.3-3.8h1.3L24.8 26c-.9 2.2-1.4 3.4-2.3 4.1-.4.4-.9.6-1.5.8l-.3-1a2 2 0 001-.6c.4-.4.8-.8 1-1.3l.1-.3-.1-.3-2.4-6h1.4zm8-1.9v1.9h1.7v.9h-1.7v3.5c0 .8.2 1.3.9 1.3l.7-.1.1.9c-.4.1-.7.2-1.1.1l-.7-.1a2 2 0 01-.6-.4c-.4-.5-.5-1.1-.5-1.7v-3.6h-1v-.9h1v-1.6l1.2-.2zm3.9 5.4l.1.9.5.8.8.5.9.1 1.8-.3.2.9c-.7.3-1.4.4-2.2.4-.4 0-.9 0-1.3-.2l-1.1-.7-.7-1.1-.2-1.3c0-2 1.2-3.5 3.1-3.5 2.1 0 2.7 1.9 2.7 3.1v.6l-4.6-.2zm3.5-.9l-.1-.7-.3-.6-.6-.4-.7-.2c-.5 0-.9.3-1.3.6-.3.4-.5.8-.5 1.3h3.5zm2.9-.6l-.1-2H41v1.3h.1c.1-.4.3-.7.7-1 .3-.3.7-.4 1.1-.4h.3v1.1h-.4c-.4 0-.8.2-1.1.5-.3.3-.5.7-.5 1.1l-.1.6v3.5H40v-4.7z" fill="#4e4e4e"/>
    <path d="M39.5 3.5c0 .6-.1 1.2-.4 1.7-.3.5-.8.9-1.3 1.2-.5.3-1.1.4-1.7.3-.6-.1-1.1-.3-1.6-.7-.5-.4-.8-1-.9-1.6-.1-.6-.1-1.2.1-1.8s.6-1.1 1.1-1.4c.5-.4 1.1-.6 1.7-.6.4 0 .8 0 1.2.2.4.1.7.3 1 .6l.7.9c.2.3.1.8.1 1.2z" fill="#767677"/>
    <path d="M21.9 38.4c-8 0-15.1-2.9-18.7-7.1a20 20 0 0037.4 0C37 35.5 30 38.4 21.9 38.4zm0-27.6c8 0 15.1 2.9 18.7 7.1a20 20 0 00-37.4 0c3.7-4.3 10.7-7.1 18.7-7.1z" fill="#f37726"/>
    <path d="M10.9 46.7c0 .8-.1 1.5-.5 2.2a4 4 0 01-1.7 1.4c-.7.3-1.4.4-2.2.3a4 4 0 01-2-.9c-.6-.5-1-1.2-1.1-1.9-.2-.7-.1-1.5.1-2.2.3-.7.7-1.3 1.3-1.8.6-.4 1.3-.7 2.1-.7.5 0 1 0 1.5.2s.9.4 1.3.8.7.7.9 1.2l.3 1.4z" fill="#9e9e9e"/>
    <path d="M4.1 9.8c-.4 0-.9-.1-1.2-.3-.4-.2-.7-.6-.8-1-.2-.4-.3-.8-.2-1.2s.3-.8.6-1.1c.3-.3.7-.5 1.1-.6.4-.2.8-.2 1.2 0 .4.2.8.4 1 .8.3.3.4.8.4 1.2 0 .6-.2 1.2-.6 1.6-.3.3-.9.6-1.5.6z" fill="#616262"/>
</svg>
