<?xml version="1.0" encoding="UTF-8" standalone="no"?>
<!DOCTYPE svg PUBLIC "-//W3C//DTD SVG 1.1//EN" "http://www.w3.org/Graphics/SVG/1.1/DTD/svg11.dtd">
<svg xmlns="http://www.w3.org/2000/svg" xmlns:xlink="http://www.w3.org/1999/xlink" version="1.1" width="273.0979pt" height="87.12063pt" viewBox="0 0 273.0979 87.12063">
<g enable-background="new">
<g id="Layer-1" data-name="Azure s">
<path transform="matrix(1,0,0,-1,109.2824,55.054605)" d="M 0 0 L -4.482 -12.77 L 4.609 -12.77 L .148 0 Z M 3.129 5.624 L 14.546 -24.694 L 8.753 -24.694 L 6.068 -17.168 L -5.877 -17.168 L -8.457 -24.694 L -14.208 -24.694 L -2.791 5.624 Z " fill="#77787b"/>
<path transform="matrix(1,0,0,-1,126.393199,58.014505)" d="M 0 0 L 17.358 0 L 17.358 -2.051 L 5.962 -17.675 L 17.422 -17.675 L 17.422 -21.734 L -.803 -21.734 L -.803 -19.303 L 10.423 -4.06 L 0 -4.06 Z " fill="#77787b"/>
<clipPath id="cp0">
<path transform="matrix(1,0,0,-1,-68.7176,151.1864)" d="M 0 215.433 L 408.189 215.433 L 408.189 0 L 0 0 Z "/>
</clipPath>
<g clip-path="url(#cp0)">
<path transform="matrix(1,0,0,-1,165.58661,58.014505)" d="M 0 0 L 0 -21.734 L -5.159 -21.734 L -5.159 -18.88 L -5.243 -18.88 C -5.92 -19.866 -6.826 -20.639 -7.96 -21.195 C -9.095 -21.752 -10.367 -22.03 -11.776 -22.03 C -14.3 -22.03 -16.22 -21.315 -17.538 -19.884 C -18.856 -18.454 -19.515 -16.23 -19.515 -13.214 L -19.515 0 L -14.334 0 L -14.334 -12.601 C -14.334 -14.433 -13.972 -15.812 -13.246 -16.734 C -12.52 -17.657 -11.424 -18.119 -9.958 -18.119 C -8.506 -18.119 -7.344 -17.608 -6.47 -16.586 C -5.596 -15.564 -5.159 -14.229 -5.159 -12.579 L -5.159 0 Z " fill="#77787b"/>
<path transform="matrix(1,0,0,-1,180.99192,57.655206)" d="M 0 0 C .409 0 .775 -.028 1.1 -.085 C 1.424 -.141 1.699 -.211 1.924 -.296 L 1.924 -5.476 C 1.656 -5.278 1.265 -5.092 .751 -4.915 C .236 -4.739 -.388 -4.651 -1.12 -4.651 C -2.375 -4.651 -3.436 -5.18 -4.302 -6.237 C -5.169 -7.294 -5.603 -8.922 -5.603 -11.12 L -5.603 -22.094 L -10.719 -22.094 L -10.719 -.359 L -5.603 -.359 L -5.603 -3.784 L -5.518 -3.784 C -5.053 -2.601 -4.348 -1.674 -3.404 -1.004 C -2.459 -.335 -1.325 0 0 0 " fill="#77787b"/>
<path transform="matrix(1,0,0,-1,198.0553,66.6835)" d="M 0 0 C 0 1.691 -.392 2.982 -1.174 3.869 C -1.956 4.758 -3.059 5.201 -4.482 5.201 C -5.709 5.201 -6.808 4.762 -7.781 3.881 C -8.753 3 -9.402 1.706 -9.726 0 Z M 3.277 -7.59 L 3.277 -11.797 C 2.431 -12.332 1.325 -12.766 -.042 -13.098 C -1.41 -13.428 -2.869 -13.594 -4.419 -13.594 C -7.731 -13.594 -10.307 -12.614 -12.146 -10.655 C -13.986 -8.696 -14.906 -5.969 -14.906 -2.473 C -14.906 .896 -13.923 3.669 -11.957 5.847 C -9.99 8.024 -7.499 9.113 -4.482 9.113 C -1.48 9.113 .856 8.193 2.526 6.354 C 4.197 4.515 5.032 1.975 5.032 -1.268 L 5.032 -3.742 L -9.853 -3.742 C -9.627 -5.926 -8.926 -7.452 -7.749 -8.318 C -6.572 -9.186 -5.053 -9.619 -3.193 -9.619 C -1.966 -9.619 -.797 -9.433 .317 -9.059 C 1.43 -8.686 2.417 -8.195 3.277 -7.59 " fill="#77787b"/>
</g>
<g id="Layer-1" data-name="MS-logotype">
</g>
<clipPath id="cp1">
<path transform="matrix(1,0,0,-1,-68.7176,151.1864)" d="M 0 215.433 L 408.189 215.433 L 408.189 0 L 0 0 Z "/>
</clipPath>
<g clip-path="url(#cp1)">
<path transform="matrix(1,0,0,-1,257.8346,20.518403)" d="M 0 0 L -7.62 0 L -7.62 -17.548 L -12.8 -17.548 L -12.8 0 L -16.437 0 L -16.437 4.187 L -12.8 4.187 L -12.8 7.21 C -12.8 9.493 -12.057 11.364 -10.569 12.823 C -9.083 14.282 -7.176 15.012 -4.851 15.012 C -4.23 15.012 -3.681 14.979 -3.201 14.916 C -2.722 14.853 -2.299 14.758 -1.933 14.631 L -1.933 10.212 C -2.102 10.311 -2.398 10.431 -2.821 10.571 C -3.244 10.712 -3.73 10.783 -4.279 10.783 C -5.351 10.783 -6.175 10.448 -6.753 9.778 C -7.332 9.109 -7.62 8.119 -7.62 6.809 L -7.62 4.187 L 0 4.187 L 0 9.07 L 5.138 10.635 L 5.138 4.187 L 10.318 4.187 L 10.318 0 L 5.138 0 L 5.138 -10.169 C 5.138 -11.509 5.381 -12.453 5.867 -13.002 C 6.354 -13.552 7.118 -13.827 8.161 -13.827 C 8.457 -13.827 8.813 -13.757 9.229 -13.615 C 9.645 -13.475 10.007 -13.306 10.318 -13.108 L 10.318 -17.337 C 9.993 -17.52 9.454 -17.688 8.7 -17.844 C 7.946 -17.999 7.203 -18.076 6.47 -18.076 C 4.313 -18.076 2.696 -17.503 1.618 -16.354 C .539 -15.205 0 -13.475 0 -11.163 Z M -33.973 -6.829 C -33.973 -9.099 -33.458 -10.832 -32.429 -12.03 C -31.401 -13.229 -29.928 -13.827 -28.011 -13.827 C -26.15 -13.827 -24.733 -13.229 -23.761 -12.03 C -22.789 -10.832 -22.302 -9.056 -22.302 -6.702 C -22.302 -4.362 -22.806 -2.597 -23.814 -1.405 C -24.822 -.215 -26.235 .381 -28.053 .381 C -29.928 .381 -31.383 -.243 -32.419 -1.49 C -33.455 -2.737 -33.973 -4.518 -33.973 -6.829 M -39.301 -6.998 C -39.301 -3.403 -38.286 -.557 -36.256 1.544 C -34.227 3.644 -31.408 4.694 -27.799 4.694 C -24.402 4.694 -21.749 3.683 -19.839 1.66 C -17.929 -.363 -16.974 -3.094 -16.974 -6.533 C -16.974 -10.057 -17.989 -12.861 -20.019 -14.947 C -22.048 -17.034 -24.811 -18.076 -28.307 -18.076 C -31.676 -18.076 -34.35 -17.087 -36.33 -15.106 C -38.311 -13.126 -39.301 -10.423 -39.301 -6.998 M -50.822 -1.522 C -50.822 -2.255 -50.59 -2.829 -50.125 -3.245 C -49.66 -3.661 -48.631 -4.186 -47.038 -4.82 C -44.994 -5.638 -43.56 -6.558 -42.736 -7.579 C -41.911 -8.602 -41.499 -9.838 -41.499 -11.29 C -41.499 -13.334 -42.285 -14.976 -43.856 -16.216 C -45.428 -17.457 -47.552 -18.076 -50.23 -18.076 C -51.132 -18.076 -52.13 -17.968 -53.222 -17.749 C -54.314 -17.53 -55.241 -17.252 -56.002 -16.914 L -56.002 -11.882 C -55.072 -12.53 -54.071 -13.045 -53 -13.425 C -51.929 -13.806 -50.957 -13.996 -50.083 -13.996 C -48.927 -13.996 -48.074 -13.834 -47.524 -13.51 C -46.974 -13.186 -46.7 -12.643 -46.7 -11.882 C -46.7 -11.177 -46.985 -10.582 -47.556 -10.096 C -48.126 -9.609 -49.208 -9.049 -50.801 -8.414 C -52.69 -7.625 -54.029 -6.737 -54.818 -5.751 C -55.608 -4.764 -56.002 -3.51 -56.002 -1.987 C -56.002 -.028 -55.224 1.582 -53.666 2.844 C -52.109 4.105 -50.089 4.736 -47.608 4.736 C -46.848 4.736 -45.995 4.651 -45.05 4.482 C -44.106 4.313 -43.317 4.095 -42.683 3.827 L -42.683 -1.036 C -43.359 -.585 -44.148 -.197 -45.05 .127 C -45.953 .451 -46.848 .613 -47.735 .613 C -48.708 .613 -49.466 .423 -50.008 .043 C -50.551 -.338 -50.822 -.859 -50.822 -1.522 M -75.432 -6.829 C -75.432 -9.099 -74.917 -10.832 -73.888 -12.03 C -72.86 -13.229 -71.387 -13.827 -69.47 -13.827 C -67.609 -13.827 -66.192 -13.229 -65.22 -12.03 C -64.248 -10.832 -63.761 -9.056 -63.761 -6.702 C -63.761 -4.362 -64.265 -2.597 -65.273 -1.405 C -66.281 -.215 -67.694 .381 -69.512 .381 C -71.387 .381 -72.842 -.243 -73.878 -1.49 C -74.914 -2.737 -75.432 -4.518 -75.432 -6.829 M -80.76 -6.998 C -80.76 -3.403 -79.745 -.557 -77.715 1.544 C -75.686 3.644 -72.867 4.694 -69.258 4.694 C -65.861 4.694 -63.208 3.683 -61.298 1.66 C -59.388 -.363 -58.433 -3.094 -58.433 -6.533 C -58.433 -10.057 -59.448 -12.861 -61.478 -14.947 C -63.507 -17.034 -66.27 -18.076 -69.766 -18.076 C -73.135 -18.076 -75.809 -17.087 -77.789 -15.106 C -79.77 -13.126 -80.76 -10.423 -80.76 -6.998 M -82.961 4.546 C -82.552 4.546 -82.186 4.518 -81.861 4.461 C -81.537 4.405 -81.262 4.335 -81.037 4.25 L -81.037 -.93 C -81.305 -.732 -81.696 -.546 -82.21 -.37 C -82.725 -.193 -83.349 -.105 -84.081 -.105 C -85.336 -.105 -86.396 -.634 -87.263 -1.691 C -88.13 -2.748 -88.563 -4.376 -88.563 -6.575 L -88.563 -17.548 L -93.68 -17.548 L -93.68 4.187 L -88.563 4.187 L -88.563 .762 L -88.479 .762 C -88.014 1.945 -87.309 2.872 -86.365 3.542 C -85.42 4.211 -84.286 4.546 -82.961 4.546 M -102.581 -13.827 C -101.82 -13.827 -100.981 -13.651 -100.065 -13.299 C -99.149 -12.946 -98.303 -12.481 -97.528 -11.903 L -97.528 -16.66 C -98.345 -17.125 -99.272 -17.478 -100.308 -17.717 C -101.344 -17.957 -102.482 -18.076 -103.723 -18.076 C -106.922 -18.076 -109.523 -17.065 -111.524 -15.043 C -113.526 -13.021 -114.526 -10.438 -114.526 -7.294 C -114.526 -3.799 -113.504 -.92 -111.46 1.343 C -109.417 3.605 -106.521 4.736 -102.771 4.736 C -101.813 4.736 -100.844 4.612 -99.864 4.366 C -98.884 4.119 -98.106 3.834 -97.528 3.51 L -97.528 -1.396 C -98.317 -.817 -99.124 -.37 -99.949 -.053 C -100.773 .265 -101.616 .423 -102.475 .423 C -104.491 .423 -106.119 -.232 -107.359 -1.543 C -108.6 -2.854 -109.22 -4.623 -109.22 -6.85 C -109.22 -9.049 -108.625 -10.762 -107.433 -11.987 C -106.242 -13.214 -104.625 -13.827 -102.581 -13.827 M -118.1 -17.548 L -123.215999 -17.548 L -123.215999 4.185999 L -118.1 4.185999 Z M -123.745 10.466 C -123.745 11.312 -123.438 12.02 -122.825 12.591 C -122.211 13.161 -121.482 13.447 -120.637 13.447 C -119.735 13.447 -118.987 13.154 -118.396 12.569 C -117.803 11.984 -117.507 11.283 -117.507 10.466 C -117.507 9.634 -117.811 8.937 -118.417 8.373 C -119.023 7.809 -119.763 7.527 -120.637 7.527 C -121.511 7.527 -122.247 7.812 -122.846 8.383 C -123.445 8.954 -123.745 9.648 -123.745 10.466 M -128.146 12.771 L -128.146 -17.548 L -133.411 -17.548 L -133.411 6.216 L -133.496 6.216 L -142.904 -17.548 L -146.393 -17.548 L -156.034 6.216 L -156.097 6.216 L -156.097 -17.548 L -160.96 -17.548 L -160.96 12.771 L -153.412 12.771 L -144.701 -9.704 L -144.575 -9.704 L -135.377 12.771 Z " fill="#77787b"/>
</g>
<g id="Layer-1" data-name="MS-symbol">
</g>
<path transform="matrix(1,0,0,-1,-68.7176,151.1864)" d="M 106.213 109.219 L 71.993999 109.219 L 71.993999 143.437 L 106.213 143.437 Z " fill="#f26522"/>
<path transform="matrix(1,0,0,-1,-68.7176,151.1864)" d="M 143.992 109.219 L 109.774 109.219 L 109.774 143.437 L 143.992 143.437 Z " fill="#8dc63f"/>
<path transform="matrix(1,0,0,-1,-68.7176,151.1864)" d="M 106.213 71.439 L 71.993999 71.439 L 71.993999 105.657 L 106.213 105.657 Z " fill="#00aeef"/>
<path transform="matrix(1,0,0,-1,-68.7176,151.1864)" d="M 143.992 71.439 L 109.774 71.439 L 109.774 105.657 L 143.992 105.657 Z " fill="#ffc20d"/>
</g>
</g>
</svg>
