<?xml version="1.0" encoding="UTF-8" standalone="no"?>
<svg
   xmlns:dc="http://purl.org/dc/elements/1.1/"
   xmlns:cc="http://creativecommons.org/ns#"
   xmlns:rdf="http://www.w3.org/1999/02/22-rdf-syntax-ns#"
   xmlns:svg="http://www.w3.org/2000/svg"
   xmlns="http://www.w3.org/2000/svg"
   viewBox="0 0 544.25201 287.24399"
   height="287.24399"
   width="544.25201"
   xml:space="preserve"
   id="svg2"
   version="1.1"><metadata
     id="metadata8"><rdf:RDF><cc:Work
         rdf:about=""><dc:format>image/svg+xml</dc:format><dc:type
           rdf:resource="http://purl.org/dc/dcmitype/StillImage" /></cc:Work></rdf:RDF></metadata><defs
     id="defs6"><clipPath
       id="clipPath26"
       clipPathUnits="userSpaceOnUse"><path
         id="path24"
         d="M 0,215.433 H 408.189 V 0 H 0 Z" /></clipPath><clipPath
       id="clipPath46"
       clipPathUnits="userSpaceOnUse"><path
         id="path44"
         d="M 0,215.433 H 408.189 V 0 H 0 Z" /></clipPath></defs><g
     transform="matrix(1.3333333,0,0,-1.3333333,0,287.244)"
     id="g10"><g
       transform="translate(178,96.1318)"
       id="g12"><path
         id="path14"
         style="fill:#706d6e;fill-opacity:1;fill-rule:nonzero;stroke:none"
         d="M 0,0 -4.482,-12.77 H 4.609 L 0.148,0 Z M 3.129,5.624 14.546,-24.694 H 8.753 l -2.685,7.526 H -5.877 l -2.58,-7.526 h -5.751 L -2.791,5.624 Z" /></g><g
       transform="translate(195.1108,93.1719)"
       id="g16"><path
         id="path18"
         style="fill:#706d6e;fill-opacity:1;fill-rule:nonzero;stroke:none"
         d="M 0,0 H 17.358 V -2.051 L 5.962,-17.675 h 11.46 v -4.059 H -0.803 v 2.431 L 10.423,-4.06 H 0 Z" /></g><g
       id="g20"><g
         clip-path="url(#clipPath26)"
         id="g22"><g
           transform="translate(234.3042,93.1719)"
           id="g28"><path
             id="path30"
             style="fill:#706d6e;fill-opacity:1;fill-rule:nonzero;stroke:none"
             d="m 0,0 v -21.734 h -5.159 v 2.854 h -0.084 c -0.677,-0.986 -1.583,-1.759 -2.717,-2.315 -1.135,-0.557 -2.407,-0.835 -3.816,-0.835 -2.524,0 -4.444,0.715 -5.762,2.146 -1.318,1.43 -1.977,3.654 -1.977,6.67 V 0 h 5.181 v -12.601 c 0,-1.832 0.362,-3.211 1.088,-4.133 0.726,-0.923 1.822,-1.385 3.288,-1.385 1.452,0 2.614,0.511 3.488,1.533 0.874,1.022 1.311,2.357 1.311,4.007 l 0,12.579 z" /></g><g
           transform="translate(249.7095,93.5312)"
           id="g32"><path
             id="path34"
             style="fill:#706d6e;fill-opacity:1;fill-rule:nonzero;stroke:none"
             d="m 0,0 c 0.409,0 0.775,-0.028 1.1,-0.085 0.324,-0.056 0.599,-0.126 0.824,-0.211 v -5.18 c -0.268,0.198 -0.659,0.384 -1.173,0.561 -0.515,0.176 -1.139,0.264 -1.871,0.264 -1.255,0 -2.316,-0.529 -3.182,-1.586 -0.867,-1.057 -1.301,-2.685 -1.301,-4.883 v -10.974 h -5.116 v 21.735 h 5.116 v -3.425 h 0.085 c 0.465,1.183 1.17,2.11 2.114,2.78 C -2.459,-0.335 -1.325,0 0,0" /></g><g
           transform="translate(266.7729,84.5029)"
           id="g36"><path
             id="path38"
             style="fill:#706d6e;fill-opacity:1;fill-rule:nonzero;stroke:none"
             d="m 0,0 c 0,1.691 -0.392,2.982 -1.174,3.869 -0.782,0.889 -1.885,1.332 -3.308,1.332 -1.227,0 -2.326,-0.439 -3.299,-1.32 C -8.753,3 -9.402,1.706 -9.726,0 Z m 3.277,-7.59 v -4.207 c -0.846,-0.535 -1.952,-0.969 -3.319,-1.301 -1.368,-0.33 -2.827,-0.496 -4.377,-0.496 -3.312,0 -5.888,0.98 -7.727,2.939 -1.84,1.959 -2.76,4.686 -2.76,8.182 0,3.369 0.983,6.142 2.949,8.32 1.967,2.177 4.458,3.266 7.475,3.266 3.002,0 5.338,-0.92 7.008,-2.759 C 4.197,4.515 5.032,1.975 5.032,-1.268 V -3.742 H -9.853 c 0.226,-2.184 0.927,-3.71 2.104,-4.576 1.177,-0.868 2.696,-1.301 4.556,-1.301 1.227,0 2.396,0.186 3.51,0.56 1.113,0.373 2.1,0.864 2.96,1.469" /></g></g></g><g
       id="g40"><g
         clip-path="url(#clipPath46)"
         id="g42"><g
           transform="translate(326.5522,130.668)"
           id="g48"><path
             id="path50"
             style="fill:#706d6e;fill-opacity:1;fill-rule:nonzero;stroke:none"
             d="M 0,0 H -7.62 V -17.548 H -12.8 V 0 h -3.637 V 4.187 H -12.8 V 7.21 c 0,2.283 0.743,4.154 2.231,5.613 1.486,1.459 3.393,2.189 5.718,2.189 0.621,0 1.17,-0.033 1.65,-0.096 0.479,-0.063 0.902,-0.158 1.268,-0.285 v -4.419 c -0.169,0.099 -0.465,0.219 -0.888,0.359 -0.423,0.141 -0.909,0.212 -1.458,0.212 -1.072,0 -1.896,-0.335 -2.474,-1.005 C -7.332,9.109 -7.62,8.119 -7.62,6.809 V 4.187 H 0 V 9.07 l 5.138,1.565 V 4.187 h 5.18 V 0 h -5.18 v -10.169 c 0,-1.34 0.243,-2.284 0.729,-2.833 0.487,-0.55 1.251,-0.825 2.294,-0.825 0.296,0 0.652,0.07 1.068,0.212 0.416,0.14 0.778,0.309 1.089,0.507 v -4.229 C 9.993,-17.52 9.454,-17.688 8.7,-17.844 c -0.754,-0.155 -1.497,-0.232 -2.23,-0.232 -2.157,0 -3.774,0.573 -4.852,1.722 C 0.539,-15.205 0,-13.475 0,-11.163 Z m -33.973,-6.829 c 0,-2.27 0.515,-4.003 1.544,-5.201 1.028,-1.199 2.501,-1.797 4.418,-1.797 1.861,0 3.278,0.598 4.25,1.797 0.972,1.198 1.459,2.974 1.459,5.328 0,2.34 -0.504,4.105 -1.512,5.297 -1.008,1.19 -2.421,1.786 -4.239,1.786 -1.875,0 -3.33,-0.624 -4.366,-1.871 -1.036,-1.247 -1.554,-3.028 -1.554,-5.339 m -5.328,-0.169 c 0,3.595 1.015,6.441 3.045,8.542 2.029,2.1 4.848,3.15 8.457,3.15 3.397,0 6.05,-1.011 7.96,-3.034 1.91,-2.023 2.865,-4.754 2.865,-8.193 0,-3.524 -1.015,-6.328 -3.045,-8.414 -2.029,-2.087 -4.792,-3.129 -8.288,-3.129 -3.369,0 -6.043,0.989 -8.023,2.97 -1.981,1.98 -2.971,4.683 -2.971,8.108 m -11.521,5.476 c 0,-0.733 0.232,-1.307 0.697,-1.723 0.465,-0.416 1.494,-0.941 3.087,-1.575 2.044,-0.818 3.478,-1.738 4.302,-2.759 0.825,-1.023 1.237,-2.259 1.237,-3.711 0,-2.044 -0.786,-3.686 -2.357,-4.926 -1.572,-1.241 -3.696,-1.86 -6.374,-1.86 -0.902,0 -1.9,0.108 -2.992,0.327 -1.092,0.219 -2.019,0.497 -2.78,0.835 v 5.032 c 0.93,-0.648 1.931,-1.163 3.002,-1.543 1.071,-0.381 2.043,-0.571 2.917,-0.571 1.156,0 2.009,0.162 2.559,0.486 0.55,0.324 0.824,0.867 0.824,1.628 0,0.705 -0.285,1.3 -0.856,1.786 -0.57,0.487 -1.652,1.047 -3.245,1.682 -1.889,0.789 -3.228,1.677 -4.017,2.663 -0.79,0.987 -1.184,2.241 -1.184,3.764 0,1.959 0.778,3.569 2.336,4.831 1.557,1.261 3.577,1.892 6.058,1.892 0.76,0 1.613,-0.085 2.558,-0.254 0.944,-0.169 1.733,-0.387 2.367,-0.655 v -4.863 c -0.676,0.451 -1.465,0.839 -2.367,1.163 -0.903,0.324 -1.798,0.486 -2.685,0.486 -0.973,0 -1.731,-0.19 -2.273,-0.57 -0.543,-0.381 -0.814,-0.902 -0.814,-1.565 m -24.61,-5.307 c 0,-2.27 0.515,-4.003 1.544,-5.201 1.028,-1.199 2.501,-1.797 4.418,-1.797 1.861,0 3.278,0.598 4.25,1.797 0.972,1.198 1.459,2.974 1.459,5.328 0,2.34 -0.504,4.105 -1.512,5.297 -1.008,1.19 -2.421,1.786 -4.239,1.786 -1.875,0 -3.33,-0.624 -4.366,-1.871 -1.036,-1.247 -1.554,-3.028 -1.554,-5.339 m -5.328,-0.169 c 0,3.595 1.015,6.441 3.045,8.542 2.029,2.1 4.848,3.15 8.457,3.15 3.397,0 6.05,-1.011 7.96,-3.034 1.91,-2.023 2.865,-4.754 2.865,-8.193 0,-3.524 -1.015,-6.328 -3.045,-8.414 -2.029,-2.087 -4.792,-3.129 -8.288,-3.129 -3.369,0 -6.043,0.989 -8.023,2.97 -1.981,1.98 -2.971,4.683 -2.971,8.108 m -2.201,11.544 c 0.409,0 0.775,-0.028 1.1,-0.085 0.324,-0.056 0.599,-0.126 0.824,-0.211 v -5.18 c -0.268,0.198 -0.659,0.384 -1.173,0.56 -0.515,0.177 -1.139,0.265 -1.871,0.265 -1.255,0 -2.315,-0.529 -3.182,-1.586 -0.867,-1.057 -1.3,-2.685 -1.3,-4.884 V -17.548 H -93.68 V 4.187 h 5.117 V 0.762 h 0.084 c 0.465,1.183 1.17,2.11 2.114,2.78 0.945,0.669 2.079,1.004 3.404,1.004 m -19.62,-18.373 c 0.761,0 1.6,0.176 2.516,0.528 0.916,0.353 1.762,0.818 2.537,1.396 v -4.757 c -0.817,-0.465 -1.744,-0.818 -2.78,-1.057 -1.036,-0.24 -2.174,-0.359 -3.415,-0.359 -3.199,0 -5.8,1.011 -7.801,3.033 -2.002,2.022 -3.002,4.605 -3.002,7.749 0,3.495 1.022,6.374 3.066,8.637 2.043,2.262 4.939,3.393 8.689,3.393 0.958,0 1.927,-0.124 2.907,-0.37 0.98,-0.247 1.758,-0.532 2.336,-0.856 v -4.906 c -0.789,0.579 -1.596,1.026 -2.421,1.343 -0.824,0.318 -1.667,0.476 -2.526,0.476 -2.016,0 -3.644,-0.655 -4.884,-1.966 -1.241,-1.311 -1.861,-3.08 -1.861,-5.307 0,-2.199 0.595,-3.912 1.787,-5.137 1.191,-1.227 2.808,-1.84 4.852,-1.84 m -15.519,-3.721 h -5.116 V 4.186 h 5.116 z m -5.645,28.014 c 0,0.846 0.307,1.554 0.92,2.125 0.614,0.57 1.343,0.856 2.188,0.856 0.902,0 1.65,-0.293 2.241,-0.878 0.593,-0.585 0.889,-1.286 0.889,-2.103 0,-0.832 -0.304,-1.529 -0.91,-2.093 -0.606,-0.564 -1.346,-0.846 -2.22,-0.846 -0.874,0 -1.61,0.285 -2.209,0.856 -0.599,0.571 -0.899,1.265 -0.899,2.083 m -4.401,2.305 v -30.319 h -5.265 V 6.216 h -0.085 l -9.408,-23.764 h -3.489 l -9.641,23.764 h -0.063 v -23.764 h -4.863 v 30.319 h 7.548 l 8.711,-22.475 h 0.126 l 9.198,22.475 z" /></g></g></g><path
       id="path52"
       style="fill:#f1511b;fill-opacity:1;fill-rule:nonzero;stroke:none"
       d="M 106.213,109.219 H 71.994 v 34.218 h 34.219 z" /><path
       id="path54"
       style="fill:#80cc28;fill-opacity:1;fill-rule:nonzero;stroke:none"
       d="m 143.992,109.219 h -34.218 v 34.218 h 34.218 z" /><path
       id="path56"
       style="fill:#00adef;fill-opacity:1;fill-rule:nonzero;stroke:none"
       d="M 106.213,71.439 H 71.994 v 34.218 h 34.219 z" /><path
       id="path58"
       style="fill:#fbbc09;fill-opacity:1;fill-rule:nonzero;stroke:none"
       d="m 143.992,71.439 h -34.218 v 34.218 h 34.218 z" /></g></svg>