<svg xmlns="http://www.w3.org/2000/svg" width="364.1" height="116.2" viewBox="0 0 273.1 87.1">
    <g data-name="Azure s">
        <path d="M109.3 55l-4.5 12.8h9l-4.4-12.7zm3.1-5.6l11.4 30.3H118l-2.6-7.5h-12l-2.6 7.5h-5.7l11.4-30.3zm14 8.6h17.4v2l-11.4 15.7h11.4v4h-18.2v-2.4l11.2-15.2h-10.4z" fill="#77787b"/>
        <clipPath id="a">
            <path transform="matrix(1 0 0 -1 -68.7 151.2)" d="M0 215.4h408.2V0H0z"/>
        </clipPath>
        <g clip-path="url(#a)" fill="#77787b">
            <path d="M165.6 58v21.7h-5.2V77a7 7 0 01-2.8 2.3c-1.1.6-2.4.8-3.8.8-2.5 0-4.4-.7-5.8-2.1-1.3-1.4-2-3.7-2-6.7V58h5.3v12.6c0 1.8.3 3.2 1 4.1.8 1 1.9 1.4 3.3 1.4 1.5 0 2.6-.5 3.5-1.5a6 6 0 001.3-4V58zm15.4-.3a6.4 6.4 0 012 .3v5c-.4-.2-.7-.4-1.3-.5-.5-.2-1.1-.3-1.8-.3a4 4 0 00-3.2 1.6c-.9 1-1.3 2.7-1.3 4.9v11h-5.1V58h5v3.4h.2a6 6 0 012-2.7 6 6 0 013.5-1m17 9c0-1.7-.3-3-1.1-3.9a4.2 4.2 0 00-3.3-1.3c-1.3 0-2.4.4-3.3 1.3-1 .9-1.6 2.2-2 3.9zm3.3 7.6v4.2c-.8.5-2 1-3.3 1.3-1.4.3-2.8.5-4.4.5a10 10 0 01-7.7-3c-1.8-2-2.8-4.6-2.8-8.1 0-3.4 1-6.2 3-8.4 2-2.1 4.5-3.2 7.5-3.2s5.3.9 7 2.7A11 11 0 01203 68v2.4h-14.9c.2 2.2 1 3.7 2.1 4.6 1.2.9 2.7 1.3 4.6 1.3a11 11 0 006.4-2"/>
        </g>
        <clipPath id="b">
            <path transform="matrix(1 0 0 -1 -68.7 151.2)" d="M0 215.4h408.2V0H0z"/>
        </clipPath>
        <g clip-path="url(#b)">
            <path d="M257.8 20.5h-7.6v17.6H245V20.5h-3.6v-4.2h3.6v-3a7.5 7.5 0 018-7.8 12.8 12.8 0 012.9.4v4.4a5.2 5.2 0 00-2.3-.6c-1.1 0-2 .4-2.5 1-.6.7-.9 1.7-.9 3v2.6h7.6v-4.9L263 10v6.4h5.2v4.2H263v10.2c0 1.3.2 2.3.7 2.8.5.6 1.3.8 2.3.8.3 0 .6 0 1-.2a5 5 0 001.2-.5V38a11 11 0 01-3.8.7c-2.3 0-3.9-.6-5-1.7a8 8 0 01-1.6-5.2zm-34 6.8c0 2.3.6 4 1.6 5.2 1 1.2 2.5 1.8 4.4 1.8 1.9 0 3.3-.6 4.3-1.8 1-1.1 1.4-3 1.4-5.3s-.5-4-1.5-5.3a5.3 5.3 0 00-4.2-1.8c-1.9 0-3.3.7-4.4 2a8 8 0 00-1.5 5.2m-5.4.2c0-3.6 1-6.4 3-8.5 2.1-2.1 5-3.2 8.5-3.2 3.4 0 6 1 8 3s2.9 4.8 2.9 8.3c0 3.5-1 6.3-3 8.4a11 11 0 01-8.4 3c-3.3 0-6-.9-8-2.9s-3-4.7-3-8M207 22c0 .8.2 1.3.7 1.8.5.4 1.5.9 3.1 1.5 2 .9 3.5 1.8 4.3 2.8.8 1 1.2 2.3 1.2 3.7a6 6 0 01-2.3 5 10 10 0 01-6.4 1.8 15.3 15.3 0 01-5.8-1.2v-5c1 .6 2 1.2 3 1.5 1.1.4 2 .6 3 .6 1.1 0 2-.1 2.5-.5.6-.3.8-.8.8-1.6 0-.7-.3-1.3-.8-1.8-.6-.5-1.7-1-3.3-1.7a10 10 0 01-4-2.6 6 6 0 01-1.2-3.8 6 6 0 012.4-4.8 9.3 9.3 0 016-2 14.7 14.7 0 015 1v4.9a9 9 0 00-2.4-1.2 8 8 0 00-2.7-.5 4 4 0 00-2.3.6c-.5.4-.8.9-.8 1.5m-24.6 5.3c0 2.3.5 4 1.5 5.2 1 1.2 2.5 1.8 4.5 1.8 1.8 0 3.2-.6 4.2-1.8 1-1.1 1.5-3 1.5-5.3s-.5-4-1.5-5.3a5.3 5.3 0 00-4.3-1.8c-1.9 0-3.3.7-4.3 2a8 8 0 00-1.6 5.2m-5.3.2c0-3.6 1-6.4 3-8.5 2-2.1 4.9-3.2 8.5-3.2 3.4 0 6 1 8 3a12 12 0 012.8 8.3c0 3.5-1 6.3-3 8.4a11 11 0 01-8.3 3c-3.4 0-6-.9-8-2.9s-3-4.7-3-8M174.9 16a6.4 6.4 0 011.9.3v5.1l-1.2-.5c-.5-.2-1.1-.3-1.8-.3a4 4 0 00-3.2 1.6c-.9 1-1.3 2.7-1.3 4.9v11h-5.1V16.3h5v3.5h.2a6 6 0 012-2.8c1-.7 2.1-1 3.5-1m-19.6 18.3a7 7 0 002.5-.5c.9-.3 1.7-.8 2.5-1.4v4.8c-.8.4-1.7.8-2.8 1-1 .3-2.1.4-3.4.4-3.2 0-5.8-1-7.8-3s-3-4.6-3-7.8c0-3.5 1-6.4 3-8.6 2.1-2.3 5-3.4 8.8-3.4a12 12 0 015.2 1.2v5a7.5 7.5 0 00-2.4-1.4 7 7 0 00-2.5-.5c-2 0-3.7.7-5 2a7.4 7.4 0 00-1.8 5.3c0 2.2.6 3.9 1.8 5.1a6.4 6.4 0 004.9 1.8m-15.6 3.8h-5V16.3h5zm-5.6-28c0-.9.3-1.6 1-2.2a3 3 0 012.1-.8 3 3 0 012.2.8 3 3 0 011 2.2c0 .8-.4 1.5-1 2a3 3 0 01-2.2.9 3 3 0 01-2.2-.9c-.6-.5-1-1.2-1-2m-4.3-2.4v30.4h-5.3V14.3l-9.5 23.8h-3.5l-9.6-23.8v23.8h-5V7.7h7.6l8.7 22.5h.2l9.2-22.5z" fill="#77787b"/>
        </g>
        <path d="M37.5 42H3.3V7.7h34.2z" fill="#f26522"/>
        <path d="M75.3 42H41V7.7h34.2z" fill="#8dc63f"/>
        <path d="M37.5 79.7H3.3V45.5h34.2z" fill="#00aeef"/>
        <path d="M75.3 79.7H41V45.5h34.2z" fill="#ffc20d"/>
    </g>
</svg>
