<svg width="828" height="120" xmlns="http://www.w3.org/2000/svg">
    <g fill="none" fill-rule="evenodd">
        <g fill-rule="nonzero">
            <path d="M518 19a4.5 4.5 0 10-9 1 4.5 4.5 0 009-1m6.8-15.5a2.5 2.5 0 10-1.5 1.3c.7-.2 1.2-.7 1.5-1.3" fill="#3792AD"/>
            <path d="M462 16a4.5 4.5 0 119-1 4.5 4.5 0 01-9 1" fill="#8ACA25"/>
            <path d="M463 8.8a2 2 0 10-4 .4 2 2 0 004-.4m45 20.3a3.5 3.5 0 10-7 .8 3.5 3.5 0 007-.8m-10.3 5.2a3 3 0 10-1.7 1.5 3 3 0 001.7-1.5" fill="#3792AD"/>
            <path d="M519 25.7a1.5 1.5 0 113-.4 1.5 1.5 0 01-3 .4m-15-12a1.5 1.5 0 113-.4 1.5 1.5 0 01-3 .4m-7-3.9a2.5 2.5 0 115-.6 2.5 2.5 0 01-5 .6m-7.4-3a3 3 0 114.8-3.6 3 3 0 01-4.8 3.6m-14.5 4h.2a4.2 4.2 0 002.5-5.2c-.7-2-3-3-5-2.4h-.1a4.2 4.2 0 00-2.5 5.2c.7 2 3 3 5 2.4M454 25.4a4 4 0 118-.8 4 4 0 01-8 .8m-8 1.9a3 3 0 116-.6 3 3 0 01-6 .6" fill="#8ACA25"/>
            <path d="M457 5.7a3 3 0 10-6 .6 3 3 0 006-.6m-8 1.4a3.5 3.5 0 10-.8 2.6c.6-.7.9-1.7.8-2.6m73 2a3.5 3.5 0 10-7 .8 3.5 3.5 0 007-.8m-32 20.1a2.5 2.5 0 10-5 .6 2.5 2.5 0 005-.6m-7-3.4a2 2 0 10-4 .4 2 2 0 004-.4m-7-4.5a1.5 1.5 0 10-1.3 1.7c.8-.1 1.4-.8 1.3-1.7M434.4 23l3.6 2.7v78.8c-.2 8.4-10 15.5-17.5 15.5-2.2 0-4.5-.1-6.2-1.4-3-2-3.4-5.4-3.3-9 .3-8.5 9.7-15.1 17.5-15.4 2-.2 4.1.3 6 1.2.4.3 0-72.4 0-72.4m7.5-10.4a4 4 0 10-8 .8 4 4 0 008-.8" fill="#3792AD"/>
            <path d="M524 27.8a2.5 2.5 0 115-.6 2.5 2.5 0 01-5 .6" fill="#8ACA25"/>
            <path d="M463.9 90.3a33 33 0 006.1.4 33 33 0 005.5-.5c1.6-.3 3.2-.8 4.7-1.6a8.6 8.6 0 004.5-8 9 9 0 00-4-8 11 11 0 00-4.3-1.8c-1.7-.4-3.5-.6-5.3-.6h-7.2v20.1zm6.7-24.5c3.8 0 6.6-.8 8.4-2.5 1.8-1.6 2.7-4 2.6-6.4a8 8 0 00-2.7-6.2c-2-1.7-4.8-2.5-8.9-2.5l-3.5.1-2.6.3v17.2h6.7zm-11.6-21l2-.2 2.8-.3a78.1 78.1 0 015.8-.3c5.5 0 9.8 1 12.8 3.1s4.4 5.4 4.4 9.8a10.7 10.7 0 01-2.4 7 11 11 0 01-2.7 2.4c-1 .6-2 1-3.2 1.4 1.5.2 3 .6 4.3 1.2 2.8 1.1 5 3.4 6.2 6.2a14.9 14.9 0 01-.5 11.9c-1 1.8-2.5 3.4-4.3 4.5a21 21 0 01-6.4 2.6 32 32 0 01-8.1.9H467l-2.9-.2-2.8-.3-2.4-.3V44.8m37.3 5.2v-5.9h5.8V50l-1.4.1h-4.4zm2.3 12.5H494l-.1-.9v-2.1l.1-1h8.9V94l-1.1.1h-2.2l-1.2-.1V62.5M526 91c3.8 0 6.6-1.3 8.4-4a18 18 0 002.8-10.5c0-4.5-1-8-2.8-10.6-1.8-2.6-4.6-3.9-8.4-4a9.8 9.8 0 00-8.4 4 18.2 18.2 0 00-2.8 10.6c0 4.5 1 8 2.8 10.6 1.9 2.6 4.7 3.9 8.4 3.9zm0 4c-2.4 0-4.8-.4-7-1.4a14 14 0 01-5-4 16.7 16.7 0 01-3-5.8 27.2 27.2 0 010-14.6c.6-2.1 1.6-4.1 3-5.9 1.3-1.6 3-3 5-3.9 2.2-1 4.6-1.4 7-1.4a14 14 0 0112 5.4 17 17 0 013 5.8c1.3 4.8 1.3 9.8 0 14.6-.6 2.1-1.6 4.1-3 5.9a14 14 0 01-5 3.9c-2.2 1-4.6 1.4-7 1.4m46.9-5.3a27.4 27.4 0 011.1 3.8c-2.9 1-6 1.5-9 1.5-5.9 0-10.3-1.6-13.4-4.7-3-3.2-4.6-7.8-4.6-13.8 0-2.4.3-5 1-7.3.8-2.1 2-4.1 3.4-5.9a15 15 0 015.5-3.9c2.4-1 5-1.4 7.6-1.4a33 33 0 019 1.2l-.3 2.1c-.2.7-.3 1.3-.6 1.9a28.6 28.6 0 00-8.2-1.2c-1.9 0-3.7.3-5.5 1-1.5.8-2.9 1.8-4 3.1-1 1.4-1.8 2.9-2.3 4.6-.5 1.9-.8 3.8-.8 5.8 0 5 1.2 8.6 3.7 11 2.4 2.2 5.7 3.4 9.8 3.5a23.7 23.7 0 007.6-1.3M591 91c3.8 0 6.6-1.3 8.4-4a18 18 0 002.8-10.5c0-4.4-.9-8-2.7-10.5a9.9 9.9 0 00-8.5-4c-3.7 0-6.5 1.3-8.4 4a18 18 0 00-2.8 10.5c0 4.5 1 8 2.8 10.6 1.9 2.6 4.7 3.9 8.4 3.9zm0 4c-2.4 0-4.8-.4-7-1.4a14 14 0 01-5-4 16.6 16.6 0 01-3-5.8 27.2 27.2 0 010-14.6c.6-2.1 1.6-4.1 3-5.9 1.3-1.6 3-3 5-3.9 2.2-1 4.6-1.4 7-1.4a14 14 0 0112 5.4 16 16 0 013 5.8c1.3 4.8 1.3 9.8 0 14.6-.6 2.1-1.6 4.1-3 5.9a14 14 0 01-5 3.9 16 16 0 01-7 1.4m22-36.2h4.1a53.9 53.9 0 01.3 6.4 15.4 15.4 0 014.4-4.9 13.7 13.7 0 017.6-2.3c4 0 7 1.2 8.8 3.6a16 16 0 012.8 10.2v22c-.4.2-.8.2-1.1.2h-2.2a9 9 0 01-1.3-.1V73.2c0-4-.6-6.7-1.8-8.4a6.3 6.3 0 00-5.5-2.6A10.9 10.9 0 00621 66a18.1 18.1 0 00-3.4 10.6V94l-1 .1h-2.3l-1.2-.1V59m60.4 4l-3.6-.9c-1.4-.3-2.9-.4-4.4-.4-2 0-3.8.3-5.6 1a11 11 0 00-4 3 17.7 17.7 0 00-3.1 10.7c0 4.8 1.1 8.2 3.4 10.3 2.2 2.2 5.5 3.3 9.7 3.3a36.8 36.8 0 007.6-.8V63.1zm0-19.9a9 9 0 011.1-.1h2.3l1.1.1v49.3a45.6 45.6 0 01-12 1.6 28 28 0 01-7-.9c-2.1-.5-4-1.5-5.8-2.9-1.6-1.5-3-3.3-3.8-5.4a24.4 24.4 0 01-.1-16.2 15.3 15.3 0 019-9.6c2.2-1 4.6-1.4 7-1.4a27.2 27.2 0 018.1 1.2V43.1m11.6 16l1.2-.1h2.3l1.1.1v19.7c0 2 .2 4.1.8 6.1.7 2.8 3 5 5.9 5.6a30.3 30.3 0 0012.1-.4v-31l1.2-.1h2.3l1.1.1v34.2a58.4 58.4 0 01-12.2 1.7c-2 0-4.1-.2-6.2-.6-1.8-.4-3.6-1.2-5-2.4-1.5-1.3-2.7-3-3.4-5a21 21 0 01-1.2-7.9v-20m60.9 30.6a27.4 27.4 0 011.1 3.8c-2.9 1-6 1.5-9 1.5-5.9 0-10.4-1.6-13.4-4.7-3-3.2-4.6-7.8-4.6-13.8 0-2.4.3-5 1-7.3a17 17 0 013.4-5.9 15 15 0 015.5-3.9c2.4-1 5-1.4 7.6-1.4a33 33 0 019 1.2l-.3 2.1-.5 1.9a28.6 28.6 0 00-8.2-1.2c-2 0-3.8.3-5.6 1-1.5.8-2.9 1.8-4 3.1a13 13 0 00-2.3 4.6c-.5 1.9-.8 3.8-.8 5.8 0 5 1.2 8.6 3.7 11 2.4 2.2 5.7 3.4 9.8 3.5a23.7 23.7 0 007.6-1.3m10.3-27h-6c-.2-.2-.2-.6-.2-.9v-2l.1-1h6v-6.6l4.4-4.2h.3v10.9h9.6l.1.8v3.1h-9.7v23c0 .9.1 1.8.5 2.7a4 4 0 001.1 1.5c.5.4 1.1.6 1.7.8l2 .1c1.4 0 2.8-.2 4.2-.6.3 1.3.6 2.6.7 4-2 .5-3.9.7-5.9.7-2.3 0-4.6-.7-6.4-2.1-1.7-1.4-2.5-3.7-2.5-6.9V62.7M789 91c3.8 0 6.6-1.3 8.4-4 1.9-2.6 2.8-6 2.8-10.5s-1-8-2.8-10.6c-1.8-2.6-4.6-3.9-8.4-4-3.7 0-6.6 1.4-8.4 4a18 18 0 00-2.8 10.6c0 4.5 1 8 2.8 10.6 1.8 2.6 4.7 3.9 8.4 3.9zm0 4c-2.4 0-4.8-.4-7-1.4a14 14 0 01-5-4 16.7 16.7 0 01-3-5.8 27.5 27.5 0 010-14.6c.6-2.1 1.6-4.1 3-5.9 1.3-1.6 3-3 5-3.9 2.2-1 4.6-1.4 7-1.4a14 14 0 0112 5.4 17 17 0 013 5.8c1.3 4.8 1.3 9.8 0 14.6-.6 2.1-1.6 4.1-3 5.9a14 14 0 01-5 3.9c-2.2 1-4.6 1.4-7 1.4m23-36.9h4a58.6 58.6 0 01.2 6.1c1-1.7 2.2-3.2 3.8-4.4a10 10 0 016.3-1.8h.7l.8.1a13.8 13.8 0 010 4.4h-1.5c-2.7-.2-5.3.9-7.2 3-1.8 2-2.7 5.3-2.7 10v18.4a8 8 0 01-1.1.1h-2.1l-1.2-.1V58" fill="#393536"/>
        </g>
        <g transform="translate(-23.6 -24)" fill-rule="nonzero">
            <circle fill="#75AADB" transform="rotate(-45 84 84)" cx="84" cy="84" r="59.4"/>
            <path d="M156.4 101.6a23 23 0 0012.2 3.5c7 0 11.2-3.8 11.2-9.2 0-5-2.9-8-10-10.7-8.7-3.3-14-8-14-15.5 0-8.4 6.8-14.7 17.1-14.7 5.4 0 9.4 1.3 11.7 2.6l-2 5.8c-1.6-1-5.1-2.6-10-2.6-7.2 0-10 4.4-10 8.1 0 5 3.3 7.6 10.6 10.5 9 3.5 13.5 8 13.5 15.9 0 8.4-6 15.7-18.5 15.7a27 27 0 01-13.6-3.6l1.8-5.8zM204 61.8v9.4h10v5.4h-10v21c0 4.8 1.4 7.5 5.3 7.5 1.8 0 3-.2 4-.5l.3 5.4c-1.4.5-3.5 1-6.2 1a9.8 9.8 0 01-7.4-3c-2-2.2-2.7-5.6-2.7-10.2V76.6h-6v-5.4h6v-7.3l6.7-2zm49.7 37.6c0 4.1 0 7.6.3 10.7h-6.1l-.4-6.3h-.2a14.2 14.2 0 01-12.6 7.2c-6 0-13.2-3.5-13.2-17V71.2h7v21.4c0 7.4 2.3 12.5 8.5 12.5a10 10 0 009.8-10.1V71.2h7v28.2h-.1zM298 53v47c0 3.5.2 7.4.4 10.1h-6.1l-.4-6.8h-.2c-2 4.4-6.6 7.7-12.8 7.7-9.3 0-16.4-8-16.4-19.8-.1-13 7.8-20.8 17-20.8 6 0 9.8 2.8 11.6 5.8h.1V53h6.9zm-6.8 34c0-.9 0-2-.3-3-1-4.4-4.8-8-10-8-7.2 0-11.4 6.4-11.4 14.9 0 7.9 3.8 14.4 11.3 14.4 4.6 0 8.9-3.2 10.1-8.5l.3-3V87zm26.2-26.8c0 2.4-1.7 4.4-4.4 4.4-2.6 0-4.2-2-4.2-4.4 0-2.4 1.7-4.4 4.3-4.4 2.6 0 4.3 2 4.3 4.4zm-7.7 49.9v-39h7v39h-7zm52.9-19.8c0 14.4-9.8 20.7-19 20.7-10.2 0-18.2-7.8-18.2-20 0-13 8.4-20.6 18.9-20.6 11 0 18.3 8.1 18.3 20zm-30.1.4c0 8.5 4.7 15 11.5 15 6.6 0 11.6-6.4 11.6-15.2 0-6.6-3.3-14.8-11.5-14.8-8.1 0-11.6 7.7-11.6 15z" fill="#4D4D4D"/>
            <path d="M105.2 102h6.4v5h-9.9L85.3 82.4h-8.7V102h8.6v5H63.6v-5H71V58.7l-7.4-1V53c2.8.6 5.3 1 8.3 1 4.6 0 9.3-1 13.9-1 9 0 17.2 4 17.2 14 0 7.6-4.6 12.5-11.7 14.5l13.9 20.5zM76.6 77.6h4.7c11.4.2 15.8-4.2 15.8-10 0-6.9-5-9.6-11.2-9.6-3 0-6 .3-9.3.7v18.9z" fill="#FFF"/>
            <g fill="#4D4D4D">
                <path d="M358.1 57a4.5 4.5 0 100 9 4.5 4.5 0 000-9zm3.8 4.5a3.8 3.8 0 11-7.5 0 3.8 3.8 0 017.5 0z"/>
                <path d="M359.7 63.3l-1-1.6c.6-.2.9-.7.9-1.4 0-1-.8-1.3-1.6-1.3h-.6l-.6.1h-.8V59v.6l.6.1v3.6h-.7v.7h2.1v-.7h-.7v-1.5h.6l1.4 2.1h1v-.6h-.6zm-.8-2.9l-.3.6-1 .2h-.3v-1.5h.7c.4 0 .9.1.9.7z"/>
            </g>
        </g>
        <path fill="#979797" d="M373 20h4v80h-4z"/>
    </g>
</svg>
