<svg xmlns="http://www.w3.org/2000/svg" preserveAspectRatio="xMidYMid" width="724" height="561">
    <defs>
        <linearGradient id="r-logo_svg__a" x1="0" x2="1" y1="0" y2="1" gradientUnits="objectBoundingBox" spreadMethod="pad">
            <stop offset="0" stop-color="#CBCED0"/>
            <stop offset="1" stop-color="#84838B"/>
        </linearGradient>
        <linearGradient id="r-logo_svg__b" x1="0" x2="1" y1="0" y2="1" gradientUnits="objectBoundingBox" spreadMethod="pad">
            <stop offset="0" stop-color="#276DC3"/>
            <stop offset="1" stop-color="#165CAA"/>
        </linearGradient>
    </defs>
    <path d="M361.5 486C162.3 486 .9 377.7.9 244.4 1 111 162.3 3 361.5 3 560.5 3 722 111.1 722 244.5c0 133.3-161.4 241.4-360.5 241.4zm55.1-388.6c-151.3 0-274 74-274 165 0 91.3 122.7 165.2 274 165.2 151.4 0 263-50.6 263-165.1s-111.6-165-263-165z" fill="url(#r-logo_svg__a)" fill-rule="evenodd"/>
    <path d="M550 377s21.8 6.6 34.5 13a67 67 0 0117.5 12.5c5.4 5.7 8 11.5 8 11.5l86 145H557l-65-122s-13.3-22.9-21.5-29.5c-6.8-5.5-9.7-7.5-16.5-7.5h-33v159H298V153h247s112.5 2 112.5 109S550 377 550 377zm-53.5-136H422v69h74.5s34.5-.1 34.5-35.1c0-35.7-34.5-33.9-34.5-33.9z" fill="url(#r-logo_svg__b)" fill-rule="evenodd"/>
</svg>
