<svg width="350" height="88" xmlns="http://www.w3.org/2000/svg">
    <g fill="none" fill-rule="evenodd">
        <path d="M0 28.4v32.2C0 64.5 2 68 5.4 70l28 16.1c3.3 2 7.4 2 10.7 0l28-16.1a11 11 0 005.4-9.4V28.4A11 11 0 0072 19L44.1 3a11 11 0 00-10.8 0l-28 16A11 11 0 000 28.4z" fill="#359348" fill-rule="nonzero"/>
        <path d="M9.7 22L2.3 49c-.9 3.3 0 6.8 2.4 9.2l19.7 20a9.4 9.4 0 009 2.5l27.2-7.1a9.4 9.4 0 006.7-6.6l7.4-27.1c.9-3.3 0-6.8-2.4-9.2l-19.7-20a9.4 9.4 0 00-9-2.4l-27.2 7a9.7 9.7 0 00-6.7 6.8z" fill="#73AD43" fill-rule="nonzero"/>
        <path d="M35.3 72.7l-5-1.6c-18.2-5.5-14.8-1.9-19-20.4-4.4-18.6-5.8-13.8 8-26.8 14-13 9-11.9 27.3-6.3C65 23 61.4 19.5 65.7 38c4.3 18.6 5.8 13.8-8.1 26.8-11.2 10.5-10.2 11.8-19 9l-3.3-1.1z" fill="#AFD139"/>
        <path d="M23.3 34.4h-9.6c-.3 0-.5.2-.5.5v1.5c0 .3.2.5.5.5h3.2c.2 0 .3 0 .3.3v15.2c0 .3.2.5.5.5h1.6c.3 0 .5-.2.5-.5V37.2c0-.3 0-.3.2-.3h3.3c.3 0 .5-.2.5-.5v-1.5c0-.3-.2-.5-.5-.5zm6.9 3.9h-2.4a4 4 0 00-3 1.1c-.6.8-1 1.9-1 3.3v5.8c0 1.4.4 2.5 1 3.3.8.7 1.7 1.1 3 1.1h6c.2 0 .4-.1.4-.4v-1.4c0-.3-.2-.5-.5-.5h-5.5c-1.3 0-2-.7-2-2.2v-1.3c0-.2.2-.2.3-.2h7.3c.3 0 .5-.2.5-.6v-3.6c0-1.4-.4-2.5-1-3.3a4 4 0 00-3-1.1zm1.6 6.3c0 .3-.2.3-.3.3h-5c-.2 0-.3-.1-.3-.3v-1.8c0-.7.2-1.3.5-1.6.2-.3.7-.5 1.4-.5h1.8c.6 0 1 .2 1.4.5.2.3.4.9.4 1.6v1.8zM62 39.4a3.8 3.8 0 00-3-1.2h-5c-.3 0-.5.2-.5.5V40c0 .3.2.5.5.5h4.7c1.2 0 1.9.7 1.9 2.1v1.1H57c-1.4 0-2.5.4-3.3 1.1-.8.7-1.2 1.7-1.2 3v1c0 1.3.4 2.3 1.2 3 .7.7 1.8 1 3.3 1h6V42.6a5 5 0 00-1-3.2zm-1.5 10.9c0 .1 0 .3-.2.3H57c-.7 0-1.2-.2-1.5-.5-.4-.2-.5-.8-.5-1.5v-1c0-.6.1-1 .5-1.3.3-.3.8-.5 1.5-.5h3.3c.2 0 .2.1.2.3v4.2zm-17.8-12h-1c-.6 0-1.1.2-1.6.4a2 2 0 00-1 1.2v-1.1c0-.3-.2-.5-.5-.5H37c-.3 0-.5.2-.5.5v13.7c0 .3.2.4.5.4h1.6c.3 0 .4-.1.4-.4v-9.2c0-1.7.7-2.6 2.1-2.6h1.6c.3 0 .5 0 .5-.4v-1.5c0-.3-.2-.5-.5-.5zm8.4 0h-1c-.5 0-1 .2-1.6.4a2 2 0 00-1 1.2v-1.1c0-.3-.2-.5-.5-.5h-1.6c-.3 0-.5.2-.5.5v13.7c0 .3.2.4.5.4H47c.3 0 .4-.1.4-.4v-9.2c0-1.7.7-2.6 2.2-2.6H51c.3 0 .5 0 .5-.4v-1.5c0-.3-.2-.5-.5-.5z" fill="#FFF" fill-rule="nonzero"/>
        <path stroke="#979797" stroke-linecap="square" d="M100.5.5v87"/>
        <path d="M215 54.4l-3.8 11h7.8l-3.8-11h-.2zm2.7-4.8l9.7 26h-5l-2.2-6.5h-10.1l-2.2 6.4h-5l9.8-25.9h5zm11.9 7.4h14.7v1.7l-9.7 13.4h9.8v3.4h-15.5v-2l9.5-13h-8.8v-3.6m33.3.1v18.5h-4.4v-2.4c-.7.8-1.4 1.5-2.4 2s-2 .7-3.2.7c-2.2 0-3.8-.6-5-1.8a9.2 9.2 0 01-1.6-5.7V56.9h4.4v10.8c0 1.6.3 2.8 1 3.6.5.8 1.5 1.2 2.7 1.2 1.2 0 2.2-.5 3-1.4.7-.8 1-2 1-3.4V57h4.5m13.1-.4a5.4 5.4 0 011.6.3v4.4l-1-.5-1.6-.2c-1 0-2 .5-2.7 1.4-.7.9-1.1 2.3-1.1 4.2v9.3h-4.3V57h4.3v3c.5-1 1-1.8 1.9-2.4.8-.6 1.7-.9 2.9-.9m14.5 7.7a5 5 0 00-1-3.3 3.5 3.5 0 00-2.9-1.2c-1 0-2 .4-2.8 1.1-.8.8-1.3 1.9-1.6 3.4h8.3zm2.7 6.5v3.6a15.7 15.7 0 01-6.5 1.5c-2.8 0-5-.8-6.6-2.5a9.9 9.9 0 01-2.3-7c0-2.9.8-5.3 2.5-7.1a8.2 8.2 0 016.3-2.8c2.6 0 4.6.8 6 2.3a9.4 9.4 0 012.1 6.5v2.2h-12.6c.2 1.8.8 3.1 1.8 3.9 1 .7 2.3 1.1 3.8 1.1a9.2 9.2 0 005.5-1.7zm48-46.1h-6.4v15h-4.4v-15h-3.1v-3.5h3v-2.6a6.5 6.5 0 016.8-6.7 10.6 10.6 0 012.5.3v3.8a4.5 4.5 0 00-2-.5c-1 0-1.6.3-2.1.9-.5.6-.7 1.4-.7 2.5v2.3h6.4V17l4.4-1.4v5.6h4.4v3.5h-4.4v8.8c0 1.1.2 2 .6 2.4.4.4 1 .7 2 .7.2 0 .5 0 .9-.2l.9-.4v3.6a9.3 9.3 0 01-3.3.6c-1.8 0-3.2-.5-4-1.5-1-1-1.5-2.4-1.5-4.4v-9.6zm-28.8 5.9c0 2 .4 3.4 1.3 4.4.9 1 2.1 1.6 3.7 1.6s2.8-.5 3.7-1.6c.8-1 1.2-2.5 1.2-4.5s-.4-3.5-1.3-4.5c-.8-1-2-1.6-3.6-1.6s-2.8.6-3.7 1.6a7 7 0 00-1.3 4.6zm-4.5.1c0-3 .8-5.5 2.5-7.3a9.5 9.5 0 017.2-2.7c3 0 5.2.9 6.8 2.6a10 10 0 012.4 7c0 3-.8 5.5-2.6 7.2a9.3 9.3 0 01-7 2.7 9 9 0 01-6.8-2.5 9.4 9.4 0 01-2.5-7zm-9.8-4.6c0 .6.2 1 .6 1.4.4.4 1.2.8 2.6 1.4a9 9 0 013.6 2.3c.7 1 1 2 1 3.2 0 1.8-.6 3.2-2 4.2a8.5 8.5 0 01-5.3 1.6 13 13 0 01-5-1V35a10.5 10.5 0 005.1 1.8c1 0 1.7-.1 2.2-.4.4-.3.7-.7.7-1.4a2 2 0 00-.8-1.5c-.4-.4-1.4-1-2.7-1.4a8.5 8.5 0 01-3.4-2.3 5 5 0 01-1-3.2 5 5 0 012-4.2 8 8 0 015-1.6 12.3 12.3 0 014.3.8v4.1l-2-1c-.8-.2-1.6-.4-2.3-.4a4 4 0 00-2 .5c-.4.3-.6.8-.6 1.4zm-21 4.5c0 2 .5 3.4 1.4 4.4.8 1 2.1 1.6 3.7 1.6s2.8-.5 3.6-1.6c.9-1 1.3-2.5 1.3-4.5s-.5-3.5-1.3-4.5c-.9-1-2-1.6-3.6-1.6s-2.8.6-3.7 1.6a7 7 0 00-1.3 4.6zm-4.5.1c0-3 .9-5.5 2.6-7.3a9.5 9.5 0 017.2-2.7c2.9 0 5.1.9 6.8 2.6a10 10 0 012.4 7c0 3-.9 5.5-2.6 7.2a9.3 9.3 0 01-7 2.7c-2.9 0-5.2-.8-6.8-2.5a9.4 9.4 0 01-2.6-7zm-1.8-9.8a5.5 5.5 0 011.6.2v4.4l-1-.4c-.4-.2-1-.3-1.6-.3-1 0-2 .5-2.7 1.4-.7.9-1.1 2.3-1.1 4.2v9.4h-4.3V21.3h4.3v2.9c.5-1 1-1.8 1.9-2.4.8-.6 1.7-.8 2.9-.8zM254 36.7a6 6 0 002.1-.5 9 9 0 002.2-1.2v4.1l-2.4 1-2.9.2c-2.7 0-4.9-.8-6.6-2.6a9 9 0 01-2.5-6.6c0-3 .8-5.5 2.6-7.4 1.7-2 4.2-2.9 7.3-2.9a10 10 0 014.5 1V26c-.7-.5-1.4-.8-2-1.1a6 6 0 00-2.2-.4c-1.7 0-3.1.5-4.2 1.7a6.4 6.4 0 00-1.5 4.5 6 6 0 001.5 4.4c1 1 2.4 1.6 4.1 1.6zm-17.5 3.2h4.3V21.3h-4.3v18.6zm-.5-24a2.6 2.6 0 012.6-2.6 2.6 2.6 0 012.7 2.6c0 .7-.2 1.3-.8 1.8-.5.5-1.1.7-1.8.7-.8 0-1.4-.2-2-.7-.4-.5-.7-1.1-.7-1.8zm-3.7-2v26h-4.5V19.5l-8 20.4h-3l-8.2-20.4V40h-4.2V14h6.4l7.4 19.3h.1l7.8-19.3h6.2z" fill="#6D6E6D"/>
        <path fill="#E15D29" d="M125 43.2h29V14h-29z"/>
        <path fill="#84BF41" d="M157 43.2h29.2V14H157z"/>
        <path fill="#00A3DA" d="M125 75.5h29V46.3h-29z"/>
        <path fill="#F6BC26" d="M157 75.5h29.2V46.3H157z"/>
    </g>
</svg>
