<svg width="414" height="88" xmlns="http://www.w3.org/2000/svg">
    <g fill="none" fill-rule="evenodd">
        <path d="M0 28.4v32.2C0 64.5 2 68 5.4 70l28 16.1c3.3 2 7.4 2 10.7 0l28-16.1a11 11 0 005.4-9.4V28.4A11 11 0 0072 19L44.1 3a11 11 0 00-10.8 0l-28 16A11 11 0 000 28.4z" fill="#359348" fill-rule="nonzero"/>
        <path d="M9.7 22L2.3 49c-.9 3.3 0 6.8 2.4 9.2l19.7 20a9.4 9.4 0 009 2.5l27.2-7.1a9.4 9.4 0 006.7-6.6l7.4-27.1c.9-3.3 0-6.8-2.4-9.2l-19.7-20a9.4 9.4 0 00-9-2.4l-27.2 7a9.7 9.7 0 00-6.7 6.8z" fill="#73AD43" fill-rule="nonzero"/>
        <path d="M35.3 72.7l-5-1.6c-18.2-5.5-14.8-1.9-19-20.4-4.4-18.6-5.8-13.8 8-26.8 14-13 9-11.9 27.3-6.3C65 23 61.4 19.5 65.7 38c4.3 18.6 5.8 13.8-8.1 26.8-11.2 10.5-10.2 11.8-19 9l-3.3-1.1z" fill="#AFD139"/>
        <path d="M23.3 34.4h-9.6c-.3 0-.5.2-.5.5v1.5c0 .3.2.5.5.5h3.2c.2 0 .3 0 .3.3v15.2c0 .3.2.5.5.5h1.6c.3 0 .5-.2.5-.5V37.2c0-.3 0-.3.2-.3h3.3c.3 0 .5-.2.5-.5v-1.5c0-.3-.2-.5-.5-.5zm6.9 3.9h-2.4a4 4 0 00-3 1.1c-.6.8-1 1.9-1 3.3v5.8c0 1.4.4 2.5 1 3.3.8.7 1.7 1.1 3 1.1h6c.2 0 .4-.1.4-.4v-1.4c0-.3-.2-.5-.5-.5h-5.5c-1.3 0-2-.7-2-2.2v-1.3c0-.2.2-.2.3-.2h7.3c.3 0 .5-.2.5-.6v-3.6c0-1.4-.4-2.5-1-3.3a4 4 0 00-3-1.1zm1.6 6.3c0 .3-.2.3-.3.3h-5c-.2 0-.3-.1-.3-.3v-1.8c0-.7.2-1.3.5-1.6.2-.3.7-.5 1.4-.5h1.8c.6 0 1 .2 1.4.5.2.3.4.9.4 1.6v1.8zM62 39.4a3.8 3.8 0 00-3-1.2h-5c-.3 0-.5.2-.5.5V40c0 .3.2.5.5.5h4.7c1.2 0 1.9.7 1.9 2.1v1.1H57c-1.4 0-2.5.4-3.3 1.1-.8.7-1.2 1.7-1.2 3v1c0 1.3.4 2.3 1.2 3 .7.7 1.8 1 3.3 1h6V42.6a5 5 0 00-1-3.2zm-1.5 10.9c0 .1 0 .3-.2.3H57c-.7 0-1.2-.2-1.5-.5-.4-.2-.5-.8-.5-1.5v-1c0-.6.1-1 .5-1.3.3-.3.8-.5 1.5-.5h3.3c.2 0 .2.1.2.3v4.2zm-17.8-12h-1c-.6 0-1.1.2-1.6.4a2 2 0 00-1 1.2v-1.1c0-.3-.2-.5-.5-.5H37c-.3 0-.5.2-.5.5v13.7c0 .3.2.4.5.4h1.6c.3 0 .4-.1.4-.4v-9.2c0-1.7.7-2.6 2.1-2.6h1.6c.3 0 .5 0 .5-.4v-1.5c0-.3-.2-.5-.5-.5zm8.4 0h-1c-.5 0-1 .2-1.6.4a2 2 0 00-1 1.2v-1.1c0-.3-.2-.5-.5-.5h-1.6c-.3 0-.5.2-.5.5v13.7c0 .3.2.4.5.4H47c.3 0 .4-.1.4-.4v-9.2c0-1.7.7-2.6 2.2-2.6H51c.3 0 .5 0 .5-.4v-1.5c0-.3-.2-.5-.5-.5z" fill="#FFF" fill-rule="nonzero"/>
        <path stroke="#979797" stroke-linecap="square" d="M100.5.5v87"/>
        <g fill-rule="nonzero">
            <path d="M339.8 33.2l9.3 24.6h-4.7l-2.2-6.1h-9.8l-2.1 6.1h-4.7l9.3-24.6h4.9zm-2.6 4.6L333.6 48h7.4l-3.7-10.3zm14 2.4h14.2v1.6l-9.3 12.7h9.4v3.3h-15v-2l9.3-12.3h-8.6zm32.1 0v17.6h-4.2v-2.3c-.6.8-1.4 1.4-2.3 1.9a7 7 0 01-3.1.6c-2 0-3.7-.5-4.7-1.7-1.1-1.2-1.7-3-1.7-5.4V40.2h4.3v10.2c0 1.5.3 2.6.9 3.3.6.8 1.5 1.2 2.7 1.2 1.1 0 2-.4 2.8-1.3.7-.8 1-1.9 1-3.2V40.2h4.3zm12.7-.3a5.4 5.4 0 011.5.2v4.2l-1-.4a3.5 3.5 0 00-4.1 1c-.7.9-1 2.2-1 4v8.9H387V40.2h4.2v2.7h.1c.4-1 1-1.7 1.7-2.2.8-.6 1.7-.8 2.8-.8zm16.6 13.5v3.4a15.4 15.4 0 01-6.3 1.5c-2.7 0-4.9-.9-6.4-2.5a9.3 9.3 0 01-2.2-6.6c0-2.8.8-5 2.4-6.7a8 8 0 016.1-2.7c2.5 0 4.4.8 5.7 2.2a8.8 8.8 0 012.1 6.2v2h-12.2c.2 1.8.8 3 1.7 3.8 1 .7 2.2 1 3.8 1a9 9 0 005.3-1.6zm-2.7-6.2c0-1.4-.3-2.4-1-3.1-.6-.8-1.5-1.1-2.7-1.1a4 4 0 00-2.7 1 6 6 0 00-1.6 3.2h8zm-205.3-14v24.6h-4.3V38.5l-7.8 19.3h-2.8l-8-19.3v19.3h-4V33.2h6.2l7.2 18.2 7.6-18.2h5.9zm3.6 1.9c0-.7.3-1.3.8-1.8.5-.4 1-.7 1.8-.7.7 0 1.3.3 1.8.8.5.4.7 1 .7 1.7 0 .6-.2 1.2-.7 1.7-.5.4-1.1.7-1.8.7a3 3 0 01-1.9-.7c-.4-.5-.7-1-.7-1.7zm4.6 5v17.7h-4.2V40.2h4.2zm12.7 14.7a7.9 7.9 0 004.2-1.6v3.9c-.7.4-1.5.6-2.3.8-.9.2-1.8.3-2.8.3-2.6 0-4.8-.8-6.4-2.4a8.5 8.5 0 01-2.5-6.3c0-2.8.9-5.2 2.6-7 1.6-1.9 4-2.8 7-2.8a9.8 9.8 0 014.4 1v4c-.7-.5-1.3-.8-2-1a5.3 5.3 0 00-6 1.2A6 6 0 00220 49c0 1.8.5 3.2 1.5 4.2s2.3 1.5 4 1.5zm16-15a5.4 5.4 0 011.7.3v4.2l-1-.4c-.4-.2-1-.3-1.5-.3-1 0-2 .5-2.6 1.3-.7.9-1 2.2-1 4v8.9h-4.3V40.2h4.2v2.7a5 5 0 011.8-2.2c.8-.6 1.7-.8 2.8-.8zm1.9 9.4c0-2.9.8-5.2 2.5-6.9 1.6-1.7 4-2.5 7-2.5 2.7 0 4.9.8 6.4 2.4a9.2 9.2 0 012.4 6.7c0 2.7-.9 5.1-2.5 6.8a9 9 0 01-6.8 2.5c-2.9 0-5-.8-6.6-2.4a8.8 8.8 0 01-2.4-6.6zm4.4-.1c0 1.8.4 3.3 1.2 4.2.9 1 2 1.5 3.6 1.5s2.7-.5 3.5-1.5c.8-1 1.2-2.4 1.2-4.3 0-2-.4-3.3-1.2-4.3-.9-1-2-1.4-3.5-1.4s-2.7.5-3.6 1.5c-.8 1-1.2 2.4-1.2 4.3zm20-4.3c0 .6.3 1 .7 1.4.3.3 1.2.8 2.5 1.3 1.7.6 2.8 1.4 3.5 2.2.7.8 1 1.8 1 3 0 1.7-.6 3-2 4a8 8 0 01-5.1 1.5 12.7 12.7 0 01-4.7-1v-4c.7.5 1.5 1 2.4 1.3.9.3 1.7.4 2.4.4 1 0 1.6-.1 2.1-.4.5-.2.7-.7.7-1.3 0-.6-.3-1-.7-1.4-.5-.4-1.4-.9-2.7-1.4a8.1 8.1 0 01-3.3-2.2 5 5 0 01-1-3c0-1.6.7-3 2-4 1.2-1 2.9-1.5 5-1.5a12.1 12.1 0 014 .7v4l-2-1c-.7-.2-1.4-.3-2.2-.3-.8 0-1.4.1-1.8.4-.5.3-.7.8-.7 1.3zm9.5 4.4c0-2.9.9-5.2 2.5-6.9 1.7-1.7 4-2.5 7-2.5 2.7 0 4.9.8 6.5 2.4a9.2 9.2 0 012.3 6.7c0 2.7-.8 5.1-2.5 6.8a9 9 0 01-6.8 2.5c-2.8 0-5-.8-6.5-2.4a8.8 8.8 0 01-2.5-6.6zm4.4-.1c0 1.8.4 3.3 1.2 4.2.9 1 2 1.5 3.7 1.5a4 4 0 003.4-1.5c.8-1 1.2-2.4 1.2-4.3 0-2-.4-3.3-1.2-4.3-.8-1-2-1.4-3.5-1.4-1.4 0-2.7.5-3.5 1.5-.9 1-1.3 2.4-1.3 4.3zm27.8-5.5h-6.2v14.2H299V43.6h-3v-3.4h3v-2.5a6 6 0 011.8-4.5 6.4 6.4 0 014.7-1.8 10.5 10.5 0 012.4.3v3.6a4.2 4.2 0 00-2-.5c-.8 0-1.5.3-2 .8-.4.6-.6 1.4-.6 2.4v2.2h6.2v-4l4.2-1.3v5.3h4.2v3.4h-4.2v8.2c0 1.1.2 1.9.6 2.3.4.5 1 .7 1.9.7.2 0 .5 0 .8-.2.4 0 .7-.2 1-.4v3.4a9.1 9.1 0 01-3.1.6c-1.9 0-3.2-.4-4-1.4-1-.9-1.4-2.3-1.4-4.2v-9z" fill="#77787B"/>
            <path fill="#F26522" d="M124 25h19.7v19.5H124z"/>
            <path fill="#8DC63F" d="M145.7 25h19.7v19.5h-19.7z"/>
            <path fill="#00AEEF" d="M124 46.5h19.7V66H124z"/>
            <path fill="#FFC20E" d="M145.7 46.5h19.7V66h-19.7z"/>
        </g>
    </g>
</svg>
