<svg xmlns="http://www.w3.org/2000/svg" data-name="Layer 1" viewBox="0 0 130.7 146.6">
    <defs>
        <mask id="text-frame" width="145.4" height="161" x="-14.7" y="-7.8" maskUnits="userSpaceOnUse">
            <path fill="#fff" d="M-14-7h116v161H-14z" transform="translate(-.7 -.8)"/>
        </mask>
    </defs>
    <g mask="url(#text-frame)">
        <path fill="none" stroke="#979797" stroke-width=".6" d="M.3 100.5a18.6 18.6 0 0 0 9.2 16l46.7 27.3a18.2 18.2 0 0 0 18.4 0l46.6-27.2a18.6 18.6 0 0 0 9.3-16.1V46a18.6 18.6 0 0 0-9.3-16.1L74.6 2.8a18.3 18.3 0 0 0-18.4 0L9.5 30A18.6 18.6 0 0 0 .3 46z"/>
    </g>
</svg>
