<svg xmlns="http://www.w3.org/2000/svg" width="164" height="51.9">
    <defs>
        <mask id="ANVIL-Logo_svg__a" width="25.1" height="42.8" x="12.2" y="9.1" maskUnits="userSpaceOnUse">
            <path fill="#fff" fill-rule="evenodd" d="M12.2 19.6h25.1v31.6H12.2V19.6z"/>
        </mask>
    </defs>
    <path d="M79 22.9c0 1.4-1 2.2-2.6 2.2h-1.6V27H74v-6.3h2.4c1.6 0 2.6.8 2.6 2.2zm-.9 0c0-1-.6-1.4-1.8-1.4h-1.5v2.8h1.6c1.1 0 1.7-.5 1.7-1.4zm1.9 1a3.4 3.4 0 1 1 3.3 3.2 3.2 3.2 0 0 1-3.4-3.3zm5.7 0a2.5 2.5 0 1 0-2.4 2.4 2.4 2.4 0 0 0 2.4-2.4zm11-3.2L94.6 27h-1L92 22l-1.7 5h-1l-2-6.3h.9l1.7 5.1 1.7-5.1h.9l1.7 5.2 1.7-5.2zm5.7 5.5v.8h-4.6v-6.3h4.5v.8h-3.6v2h3.2v.7h-3.2v2zm5.6.8l-1.3-2h-2v2h-.9v-6.3h2.5c1.6 0 2.6.8 2.6 2.2a2 2 0 0 1-1.4 2L109 27zm0-4.1c0-1-.6-1.4-1.7-1.4h-1.5v2.8h1.5c1.1 0 1.7-.5 1.7-1.4zm7 3.3v.8h-4.6v-6.3h4.5v.8h-3.6v2h3.2v.7h-3.2v2zm1.4-5.5h2.7a3.2 3.2 0 1 1 0 6.3h-2.7zm2.6 5.5a2.4 2.4 0 1 0 0-4.7h-1.7v4.7zm-2.2 9.1c0 1-.9 1.7-2.4 1.7h-3v-6.3h2.8c1.4 0 2.2.6 2.2 1.6a1.5 1.5 0 0 1-.8 1.4 1.5 1.5 0 0 1 1.2 1.6zm-4.6-3.9v2h1.9c.9 0 1.4-.3 1.4-1s-.5-1-1.4-1zm3.7 3.8c0-.7-.6-1-1.6-1h-2v2h2c1 0 1.5-.2 1.5-1zm4.5-.4V37h-.9v-2.2l-2.5-4.1h1l2 3.3 2-3.3h.9z" fill="#6d6e70"/>
    <path fill="#349348" fill-rule="evenodd" d="M129 19.9V34a4.7 4.7 0 0 0 2.4 4.1l12.6 7.1a5 5 0 0 0 4.9 0l12.6-7A4.7 4.7 0 0 0 164 34V19.9a4.7 4.7 0 0 0-2.4-4.1L149 8.6a5 5 0 0 0-5 0l-12.5 7.2a4.7 4.7 0 0 0-2.5 4"/>
    <path fill="#73ad43" fill-rule="evenodd" d="M133.4 17L130 29a4 4 0 0 0 1 4l9 8.8a4.3 4.3 0 0 0 4.1 1.1l12.3-3.1a4.2 4.2 0 0 0 3-3l3.3-11.9a4 4 0 0 0-1-4l-9-8.8a4.3 4.3 0 0 0-4.1-1l-12.3 3a4.2 4.2 0 0 0-3 3"/>
    <path fill="#afd139" fill-rule="evenodd" d="M145 39.4l-2.3-.7c-8.2-2.4-6.6-.8-8.6-9s-2.6-6 3.7-11.8 4-5.2 12.3-2.8 6.7.8 8.6 9 2.6 6.1-3.6 11.8c-5.1 4.7-4.7 5.2-8.7 4"/>
    <path d="M139.5 22.6h-4.3a.2.2 0 0 0-.2.2v.6a.2.2 0 0 0 .2.2h1.5v6.9a.2.2 0 0 0 .3.2h.7c.2 0 .2 0 .2-.2v-6.8a.1.1 0 0 1 .1 0h1.5a.2.2 0 0 0 .2-.3v-.6a.2.2 0 0 0-.2-.2m3.9 4.4l-.2.1H141l-.1-.1v-.8a1 1 0 0 1 .2-.7.8.8 0 0 1 .6-.2h.8a.8.8 0 0 1 .7.2 1 1 0 0 1 .2.7zm-.7-2.8h-1.1a1.7 1.7 0 0 0-1.4.5 2 2 0 0 0-.4 1.5v2.5a2.1 2.1 0 0 0 .4 1.4 1.8 1.8 0 0 0 1.4.6h2.6a.2.2 0 0 0 .3-.3v-.6c0-.1-.1-.2-.3-.2h-2.5c-.5 0-.8-.3-.8-1v-.5l.1-.1h3.3c.1 0 .2 0 .2-.2v-1.6a2 2 0 0 0-.5-1.5 1.7 1.7 0 0 0-1.3-.5zm13.6 5.3v.1h-1.5a1 1 0 0 1-.7-.2.9.9 0 0 1-.3-.6v-.4a.8.8 0 0 1 .3-.6 1 1 0 0 1 .7-.2h1.6zm.7-4.7a1.7 1.7 0 0 0-1.3-.6h-2.3a.2.2 0 0 0-.2.2v.7c0 .1 0 .2.2.2h2.1c.6 0 .8.3.8 1v.4h-1.6a2.1 2.1 0 0 0-1.4.5 1.7 1.7 0 0 0-.6 1.3v.4a1.6 1.6 0 0 0 .6 1.3 2.1 2.1 0 0 0 1.4.5h2.8v-4.5a2.1 2.1 0 0 0-.5-1.4zm-8.7-.6h-.4a1.4 1.4 0 0 0-.8.2 1 1 0 0 0-.4.5v-.4c0-.2-.1-.3-.2-.3h-.8c-.1 0-.2.1-.2.3v6l.2.2h.8l.2-.2v-4c0-.8.3-1.2 1-1.2h.7c.1 0 .2 0 .2-.2v-.7l-.2-.2m3.7 0h-.4a1.4 1.4 0 0 0-.8.2 1 1 0 0 0-.4.5v-.4c0-.2 0-.3-.2-.3h-.8l-.1.3v6s0 .2.2.2h.7l.2-.2v-4c0-.8.3-1.2 1-1.2h.7c.1 0 .2 0 .2-.2v-.7c0-.1 0-.2-.2-.2" fill="#fefefe" fill-rule="evenodd"/>
    <path fill="#035c94" d="M39 19.6H0v2.8s27.5 10.3 8.9 26.2v2.6H43v-2.6c-3.8-4.3-13.2-12.8-6.9-16.8 6.9-4.1 11.5-4.3 18.2-6.6s9-4 5.3-4H39z"/>
    <path d="M18.9 20s-5-5.2 1.6-12 2.4-8.6 4.1-7c.3.4 4 3.8 3.8 6.8-.1 3.9-4 7.4-4 7.4s5.7-3.1 5.9-5c.2-1.5 3.7 5.6-.5 9.8m.5-9.7s-.5 3.3-12 8.2m13.5-4.2S31.5 17 21.3 21m6.9-14.6s-.4 3-11 7.3" stroke="#035c94" fill="none" stroke-width="1.1"/>
    <g mask="url(#ANVIL-Logo_svg__a)" stroke="#fff" fill="none" stroke-width="1.1">
        <path d="M24.4 9.5c-5.2 4.7-6 6-6 8.5 0 1.7.7 4 6 8.5s6 6.8 6 8.4c0 2.5-.8 3.8-6 8.5"/>
        <path d="M24.3 43.4c-9-7.7-6.8-11.1 0-17 5.4-4.5 6-6.8 6-8.4 0-2.6-.7-3.8-6-8.5M18.4 18h12m-.1 16.9h-12m1.3-3.7H29m-9.2 7.5H29m-9.3-24.4h9.4m-9.3 7.5H29m-4.7 21.6c-5.2 4.7-6 6-6 8.5m11.9-.1c0-2.5-.8-3.8-6-8.4m-4.5 4.7h9.4"/>
    </g>
</svg>
