<svg xmlns="http://www.w3.org/2000/svg" width="170.4" height="51.8">
    <defs>
        <mask id="ANVIL-Logo-White_svg__a" x="12.2" y="20" width="25.1" height="31.8" maskUnits="userSpaceOnUse">
            <path fill-rule="evenodd" fill="#fff" d="M12.2 19.8h25v31.7h-25V19.8z" transform="translate(0 .2)"/>
        </mask>
    </defs>
    <path d="M83 22.1c0 1.4-1 2.2-2.6 2.2h-1.6v2H78v-6.4h2.4c1.6 0 2.6.8 2.6 2.2zm-1 0c0-.9-.5-1.4-1.7-1.4h-1.5v2.8h1.6c1.1 0 1.7-.5 1.7-1.4zm2 1a3.4 3.4 0 1 1 3.3 3.2 3.2 3.2 0 0 1-3.4-3.2zm5.7 0a2.5 2.5 0 1 0-2.4 2.4 2.4 2.4 0 0 0 2.4-2.4zm11-3.2l-2.1 6.3h-1l-1.7-5-1.7 5h-1L91.1 20h1l1.6 5.1 1.8-5h.8l1.8 5 1.7-5zm5.7 5.5v.8h-4.6V20h4.4v.8h-3.5v2h3.1v.7h-3.1v2zm5.6.8l-1.3-2h-2v2h-.9V20h2.5c1.6 0 2.6.9 2.6 2.2a2 2 0 0 1-1.4 2l1.5 2.1zm0-4c0-1-.6-1.5-1.7-1.5h-1.6v2.8h1.6c1.1 0 1.7-.5 1.7-1.4zm7 3.2v.8h-4.6V20h4.4v.8h-3.5v2h3.2v.7h-3.2v2zm1.4-5.5h2.6a3.2 3.2 0 1 1 0 6.3h-2.6zm2.6 5.5a2.4 2.4 0 1 0 0-4.7h-1.7v4.7zm-2.3 9.1c0 1.1-.8 1.7-2.4 1.7h-3V30h2.9c1.4 0 2.2.6 2.2 1.7a1.5 1.5 0 0 1-.8 1.4 1.5 1.5 0 0 1 1.1 1.5zm-4.5-3.8v2h1.9c.9 0 1.4-.4 1.4-1s-.5-1-1.4-1zm3.6 3.8c0-.8-.5-1.1-1.5-1.1h-2v2h2c1 0 1.5-.2 1.5-1zm4.6-.5v2.2h-.9V34l-2.5-4h1l2 3.2 2-3.3h.9z" fill="#fff"/>
    <path d="M134 19.8v15a5 5 0 0 0 2.6 4.3l12.9 7.5a5 5 0 0 0 5 0l13-7.5a5 5 0 0 0 2.5-4.4v-15a5 5 0 0 0-2.5-4.3l-13-7.5a5 5 0 0 0-5 0l-13 7.5a5 5 0 0 0-2.5 4.4z" fill="none" stroke="#fff" stroke-width=".8"/>
    <path d="M138.6 16.8L135 29.4a4.3 4.3 0 0 0 1.1 4.2l9.2 9.2a4.4 4.4 0 0 0 4.2 1.2l12.6-3.3a4.4 4.4 0 0 0 3-3l3.5-12.6a4.4 4.4 0 0 0-1.1-4.3l-9.1-9.2a4.4 4.4 0 0 0-4.3-1.2l-12.5 3.3a4.3 4.3 0 0 0-3.1 3.1z" fill="none" stroke="#fff" stroke-width=".8"/>
    <path d="M150.5 40.3l-2.4-.7c-8.4-2.6-6.8-.9-8.8-9.5s-2.7-6.4 3.8-12.4 4.2-5.6 12.6-3 6.9.9 8.9 9.5 2.6 6.4-3.8 12.4c-5.2 5-4.7 5.5-8.9 4.2z" fill="none" stroke="#fff" stroke-width=".8"/>
    <g fill="#fff">
        <path d="M144.8 22.6h-4.4c-.1 0-.2 0-.2.2v.7c0 .1 0 .2.2.2h1.5l.1.1V31c0 .2.1.2.3.2h.7c.1 0 .2 0 .2-.2v-7l.1-.2h1.5c.2 0 .2 0 .2-.2v-.7c0-.2 0-.2-.2-.2z" fill-rule="evenodd"/>
        <path d="M148.1 24.3H147a1.8 1.8 0 0 0-1.4.6 2.2 2.2 0 0 0-.5 1.5V29a2.2 2.2 0 0 0 .5 1.6 1.7 1.7 0 0 0 1.4.5h2.7c.2 0 .3 0 .3-.2v-.7c0-.1-.1-.2-.3-.2h-2.5c-.6 0-1-.4-1-1v-.6l.2-.1h3.4c.1 0 .2-.1.2-.3v-1.6a2.2 2.2 0 0 0-.5-1.6 1.8 1.8 0 0 0-1.4-.5zm.7 3l-.1.1h-2.3l-.2-.1v-.9a1 1 0 0 1 .2-.7.9.9 0 0 1 .7-.2h.9a.8.8 0 0 1 .6.2 1.1 1.1 0 0 1 .2.7v.9zm14-2.4a1.7 1.7 0 0 0-1.4-.6h-2.3c-.2 0-.2.1-.2.2v.7c0 .2 0 .3.2.3h2.2c.5 0 .8.3.8 1v.5h-1.6a2.2 2.2 0 0 0-1.5.5 1.8 1.8 0 0 0-.6 1.3v.5a1.8 1.8 0 0 0 .6 1.4 2.2 2.2 0 0 0 1.5.5h2.8v-4.8a2.1 2.1 0 0 0-.5-1.5zm-.7 5v.1h-1.6a1 1 0 0 1-.7-.2 1 1 0 0 1-.2-.7v-.4a.8.8 0 0 1 .2-.7 1 1 0 0 1 .7-.2h1.5a.1.1 0 0 1 .1.1z"/>
        <path d="M153.9 24.3h-.5a1.5 1.5 0 0 0-.7.2 1 1 0 0 0-.5.6v-.5c0-.2-.1-.3-.2-.3h-.8c-.1 0-.2.1-.2.3v6.3c0 .2 0 .2.2.2h.8c.1 0 .2 0 .2-.2v-4.2c0-.8.3-1.2 1-1.2h.7c.1 0 .2 0 .2-.2v-.7c0-.2-.1-.3-.2-.3zm3.9 0h-.5a1.5 1.5 0 0 0-.7.2 1 1 0 0 0-.5.6v-.5c0-.2 0-.3-.2-.3h-.7c-.2 0-.2.1-.2.3v6.3c0 .2 0 .2.2.2h.7c.1 0 .2 0 .2-.2v-4.2c0-.8.3-1.2 1-1.2h.7c.2 0 .2 0 .2-.2v-.7c0-.2 0-.3-.2-.3z" fill-rule="evenodd"/>
    </g>
    <path d="M29.4 20a7 7 0 0 0 1.9-5.3 9.1 9.1 0 0 0-.8-3.3c-1 2-5 4.1-5.8 4.6l-1.4-.1s4.4-4.2 4.6-7.8c0-2-2-4.6-3-5.7a14 14 0 0 1-4 6.3c-6 6.3-1.9 11-1.6 11.3h-1c-.2 0-.3.2-.4 0-1.1-1.7-3.3-6.5 2.2-12.1 4-4.2 3.7-6.3 3.6-6.8a.6.6 0 0 1 0-.8l.4-.4.4.4a.8.8 0 0 1 .1.2 2 2 0 0 0 .4.5c.7.6 4 4 4 7.2a10 10 0 0 1-1.9 5c1.4-1 2.6-2 2.6-2.7a.7.7 0 0 1 .6-.7c.6-.1 1 .6 1.1.9 1 1.7 1.9 6-.5 9.3" fill="#fff"/>
    <path d="M18.5 19.4l-.5-1c11-4.7 11.7-7.9 11.7-8l1.1.3c0 .3-.8 3.8-12.3 8.7zm-1.2-4.9l-.4-1c10-4 10.8-6.9 10.8-6.9l1 .2c0 .3-.7 3.4-11.4 7.7z" fill="#fff"/>
    <g fill="#fff" mask="url(#ANVIL-Logo-White_svg__a)">
        <path d="M20 32.2a5.8 5.8 0 0 0-1 2.7h10.8a6 6 0 0 0-1.1-2.7zm7.8 7.5h-7a29.1 29.1 0 0 0 3.5 3.4c1.6-1.4 2.7-2.5 3.5-3.4zM19 35.9a7 7 0 0 0 1 2.7h8.7a4.7 4.7 0 0 0 1-2.7zm5.3 8.7a58.5 58.5 0 0 0-3.6 3.5h7a34 34 0 0 0-3.4-3.5zm-4.5 4.6a4.7 4.7 0 0 0-1 2.5h10.9a4.6 4.6 0 0 0-1-2.5zm8-26.6h-7a30.2 30.2 0 0 0 3.5 3.5 29.9 29.9 0 0 0 3.5-3.5zm-3.5 5a32.2 32.2 0 0 0-3.5 3.5h7a30.2 30.2 0 0 0-3.5-3.5zm1.5-7.6h-6.6a7.8 7.8 0 0 0 .9 1.6h8.6a7.5 7.5 0 0 0 .8-1.6z"/>
    </g>
    <path d="M8.9 49.2v2.6h8.8C18 49.5 19 48 23.5 44c-4-3.5-5.7-6.2-5.7-8.7 0-2.8 2.1-5.2 5.7-8.4-3.6-3.2-5-5.3-5.4-6.9H0v3s27.5 10.3 8.9 26.3zm50.7-27.6H39V20h-8.4c-.5 1.7-1.9 3.8-5.5 7 5 4.3 5.7 6.7 5.7 8.4 0 2.8-.9 4.1-5.8 8.6 4.5 4 5.6 5.5 5.7 7.8H43v-2.6c-3.8-4.3-13.2-12.9-6.8-16.9 6.8-4.1 11.4-4.3 18.1-6.6s9-4 5.3-4zm-28.4-7s-.5 2.2-8.2 5.4h2.7c6.2-3 6.6-5 6.6-5.3z" fill="#fff"/>
</svg>
