<?xml version="1.0" encoding="utf-8"?>
<!-- Generator: Adobe Illustrator 23.0.4, SVG Export Plug-In . SVG Version: 6.00 Build 0)  -->
<svg version="1.1" id="Layer_1" xmlns="http://www.w3.org/2000/svg" xmlns:xlink="http://www.w3.org/1999/xlink" x="0px" y="0px"
	 viewBox="0 0 62 52" style="enable-background:new 0 0 62 52;" xml:space="preserve">
<style type="text/css">
	.st0{fill:#035C94;}
	.st1{fill:none;}
	.st2{fill:#FFFFFF;}
</style>
<title>anvil_logo_proposed_matisse_(AnVIL blue, 035c94)_transparent_bckgrd</title>
<desc>Created with Sketch.</desc>
<g id="Symbols">
	<g id="Header" transform="translate(-80.000000, -6.000000)">
		<g id="Group" transform="translate(80.000000, 6.000000)">
			<g>
				<g id="layer1" transform="translate(0.000000, 0.001153)">
					<path id="path14" class="st0" d="M39,19.6H0v2.8c0,0,27.5,10.3,8.9,26.2v2.6h34.2v-2.6c-3.8-4.3-13.2-12.8-6.9-16.8
						c6.9-4.1,11.4-4.3,18.1-6.6s9-3.9,5.3-3.9H39V19.6z"/>
					<path class="st0" d="M30.2,20.4l-0.8-0.8c1.6-1.6,1.9-3.7,1.9-5.2c-0.1-1.4-0.4-2.6-0.7-3.3c-1.1,1.9-5,4.1-5.8,4.6l-0.6-0.9
						c0,0,3.7-3.4,3.8-7c0.1-2.1-2-4.6-3-5.7c-0.2,1.3-1.2,3.4-4,6.3c-6.1,6.3-1.8,11-1.6,11.2l-0.8,0.8c-0.1-0.1-5.2-5.7,1.6-12.7
						c4-4.1,3.8-6.2,3.7-6.7c-0.2-0.3-0.2-0.6,0-0.8l0.4-0.4l0.4,0.4c0,0,0.1,0.1,0.1,0.2c0,0,0.1,0.2,0.3,0.4
						c0.7,0.7,4.1,4.1,4,7.2c-0.1,1.8-0.9,3.6-1.8,5c1.4-1,2.5-2,2.6-2.6s0.5-0.7,0.6-0.7c0.6-0.1,1,0.6,1.1,0.9
						C32.4,12.3,33.4,17.2,30.2,20.4z"/>
					<path class="st0" d="M18.5,19.1l-0.4-1c10.9-4.6,11.7-7.8,11.7-7.8l1.1,0.2C30.8,10.7,30,14.2,18.5,19.1z"/>
					<path class="st0" d="M21.5,21.5l-0.4-1c9.5-3.6,10.2-6.1,10.2-6.2l1.1,0.2C32.3,14.7,31.7,17.6,21.5,21.5z"/>
					<path class="st0" d="M17.3,14.2l-0.4-1c10-4.1,10.8-6.8,10.8-6.9l1.1,0.2C28.7,6.8,28,9.9,17.3,14.2z"/>
					<g id="path35">
					</g>
				</g>
				<g id="layer2" transform="translate(12.000000, 19.556708)">
					<g id="g3772-Clipped">
						<g id="path4634">
						</g>
						<g id="g3772">
							<g transform="translate(6.000000, -10.222222)">
								<g>
									<path class="st1" d="M6.3,16.4c3.3-2.9,4.6-4.7,5.2-6.1H1.2C1.7,11.7,3,13.6,6.3,16.4z"/>
									<path class="st1" d="M0.9,25.5c0,2.2,1.7,4.7,5.4,7.9c5-4.6,5.6-5.7,5.6-7.8c0-1.5-0.7-3.6-5.5-7.7
										C2.9,20.9,0.9,23.1,0.9,25.5z"/>
									<path class="st2" d="M6.3,16.4c-3.3-2.8-4.6-4.7-5.2-6.1H0.1c0.5,1.6,1.8,3.7,5.4,6.8C5.7,17,5.8,16.8,6,16.7
										C6.1,16.6,6.2,16.5,6.3,16.4z"/>
									<path class="st2" d="M6.4,17.9c4.8,4.1,5.5,6.3,5.5,7.7c0,2.2-0.6,3.3-5.6,7.8c0.1,0.1,0.2,0.2,0.3,0.3L6.3,34l0.4,0.5
										c5.2-4.8,6.2-6.1,6.2-9c0-1.6-0.8-4-5.7-8.4c-0.1,0.1-0.3,0.2-0.4,0.4C6.7,17.6,6.5,17.7,6.4,17.9z"/>
									<path class="st2" d="M12.7,10.3h-1.2c-0.6,1.4-1.9,3.3-5.2,6.1c0.1,0.1,0.2,0.2,0.4,0.3C6.9,16.9,7,17,7.2,17.1
										C10.8,14,12.3,11.9,12.7,10.3z"/>
									<path class="st2" d="M6.3,33.4c-3.7-3.3-5.4-5.7-5.4-7.9c0-2.4,2-4.6,5.5-7.6c-0.1-0.1-0.2-0.2-0.3-0.3
										c-0.2-0.2-0.4-0.3-0.6-0.5c-3.6,3.2-5.7,5.6-5.7,8.4c0,2.6,1.9,5.4,6.1,9L6.3,34L6,33.7C6.1,33.6,6.2,33.5,6.3,33.4z"/>
									<path class="st2" d="M6.3,33.4c-0.1,0.1-0.2,0.2-0.3,0.3L6.3,34l0.3-0.3C6.5,33.6,6.4,33.5,6.3,33.4z"/>
									<path class="st2" d="M6.3,16.4c-0.1,0.1-0.2,0.2-0.3,0.3c-0.2,0.1-0.3,0.3-0.5,0.4c0.2,0.2,0.4,0.3,0.6,0.5
										c0.1,0.1,0.2,0.2,0.3,0.3c0.1-0.1,0.3-0.2,0.4-0.4c0.1-0.1,0.3-0.2,0.4-0.4C7,17,6.9,16.9,6.7,16.7
										C6.6,16.6,6.5,16.5,6.3,16.4z"/>
								</g>
								
									<rect x="0.4" y="25" transform="matrix(1 -6.172604e-03 6.172604e-03 1 -0.1576 3.999088e-02)" class="st2" width="12" height="1.1"/>
								
									<rect x="1.6" y="21.3" transform="matrix(1 -7.054322e-03 7.054322e-03 1 -0.154 4.463491e-02)" class="st2" width="9.3" height="1.1"/>
								
									<rect x="1.8" y="28.8" transform="matrix(1 -7.054322e-03 7.054322e-03 1 -0.2069 4.587973e-02)" class="st2" width="9.2" height="1.1"/>
								
									<rect x="1.8" y="11.8" transform="matrix(1 -7.054322e-03 7.054322e-03 1 -8.696283e-02 4.545349e-02)" class="st2" width="9.2" height="1.1"/>
								
									<rect x="1.7" y="38.2" transform="matrix(1 -7.054322e-03 7.054322e-03 1 -0.2732 4.611160e-02)" class="st2" width="9.4" height="1.1"/>
							</g>
						</g>
					</g>
				</g>
			</g>
		</g>
	</g>
</g>
<g>
	<path class="st1" d="M24.3,44.1c-4.4,4-5.3,5.3-5.5,7.1h10.9C29.6,49.4,28.7,48.2,24.3,44.1z"/>
	<path class="st2" d="M24.3,44.1c-0.1-0.1-0.2-0.2-0.4-0.3l0.4-0.4L23.9,43c-4.8,4.4-6,5.9-6.2,8.2h1.1C19,49.4,19.9,48.2,24.3,44.1
		z"/>
	<path class="st2" d="M24.3,44.1c4.4,4,5.3,5.2,5.4,7.1h1.1c-0.1-2.4-1.3-3.9-6.1-8.2l-0.4,0.4l0.4,0.4C24.5,43.9,24.4,44,24.3,44.1
		z"/>
	<path class="st2" d="M24.3,44.1c0.1-0.1,0.2-0.2,0.4-0.3l-0.4-0.4l-0.4,0.4C24,43.9,24.2,44,24.3,44.1z"/>
</g>
</svg>
