<svg xmlns="http://www.w3.org/2000/svg" viewBox="0 0 62 52">
    <path d="M39 19.6H0v2.8s27.5 10.3 8.9 26.2v2.6h34.2v-2.6c-3.8-4.3-13.2-12.8-6.9-16.8 6.9-4.1 11.4-4.3 18.1-6.6s9-3.9 5.3-3.9H39v-1.7z" fill="#035c94"/>
    <path d="M30.2 20.4l-.8-.8a7.2 7.2 0 0 0 1.9-5.2 11 11 0 0 0-.7-3.3c-1.1 1.9-5 4.1-5.8 4.6l-.6-.9s3.7-3.4 3.8-7c.1-2.1-2-4.6-3-5.7-.2 1.3-1.2 3.4-4 6.3-6.1 6.3-1.8 11-1.6 11.2l-.8.8c-.1-.1-5.2-5.7 1.6-12.7 4-4.1 3.8-6.2 3.7-6.7-.2-.3-.2-.6 0-.8l.4-.4.4.4.1.2.3.4c.7.7 4.1 4.1 4 7.2-.1 1.8-.9 3.6-1.8 5 1.4-1 2.5-2 2.6-2.6s.5-.7.6-.7c.6-.1 1 .6 1.1.9.8 1.7 1.8 6.6-1.4 9.8z" fill="#035c94"/>
    <path d="M18.5 19.1l-.4-1c10.9-4.6 11.7-7.8 11.7-7.8l1.1.2c-.1.2-.9 3.7-12.4 8.6zm3 2.4l-.4-1c9.5-3.6 10.2-6.1 10.2-6.2l1.1.2c-.1.2-.7 3.1-10.9 7zm-4.2-7.3l-.4-1c10-4.1 10.8-6.8 10.8-6.9l1.1.2c-.1.3-.8 3.4-11.5 7.7z" fill="#035c94"/>
    <path d="M24.3 25.7c3.3-2.9 4.6-4.7 5.2-6H19.2c.5 1.3 1.8 3.2 5.1 6zm-5.4 9.1c0 2.2 1.7 4.7 5.4 8 5-4.7 5.6-5.8 5.6-7.9 0-1.5-.7-3.6-5.5-7.7-3.5 3-5.5 5.2-5.5 7.6z" fill="none"/>
    <path d="M24.3 25.7a17.6 17.6 0 0 1-5.2-6h-1c.5 1.5 1.8 3.6 5.4 6.7.2 0 .3-.3.5-.4l.3-.3zm.1 1.5c4.8 4.1 5.5 6.3 5.5 7.7 0 2.2-.6 3.3-5.6 7.8l.3.3-.3.3.4.5c5.2-4.8 6.2-6 6.2-9 0-1.6-.8-4-5.7-8.4l-.4.4-.4.4z" fill="#fff"/>
    <path d="M30.7 19.6h-1.2c-.6 1.4-1.9 3.3-5.2 6.1l.4.3.5.4c3.6-3 5.1-5.2 5.5-6.8zm-6.4 23.1c-3.7-3.3-5.4-5.7-5.4-7.9 0-2.4 2-4.6 5.5-7.6l-.3-.3-.6-.5c-3.6 3.2-5.7 5.6-5.7 8.4 0 2.6 1.9 5.4 6.1 9l.4-.5-.3-.3.3-.3z" fill="#fff"/>
    <path d="M24.3 42.7l-.3.3.3.3.3-.3-.3-.3zm0-17l-.3.3-.5.4.6.5.3.3.4-.4.4-.4c-.2 0-.3-.2-.5-.4l-.4-.3zm-5.9 8.7l12-.1v1.1h-12zm1.2-3.7l9.3-.1v1.1h-9.3zm.2 7.5L29 38v1.1h-9.2zm0-17L29 21v1.1h-9.2zm-.1 26.4l9.4-.1v1.1h-9.4z" fill="#fff"/>
    <path d="M24.3 44.1c-4.4 4-5.3 5.3-5.5 7.1h10.9c-.1-1.8-1-3-5.4-7.1z" fill="none"/>
    <path d="M24.3 44.1l-.4-.3.4-.4-.4-.4c-4.8 4.4-6 5.9-6.2 8.2h1.1c.2-1.8 1.1-3 5.5-7.1z" fill="#fff"/>
    <path d="M24.3 44.1c4.4 4 5.3 5.2 5.4 7.1h1.1c-.1-2.4-1.3-3.9-6.1-8.2l-.4.4.4.4-.4.3z" fill="#fff"/>
    <path d="M24.3 44.1l.4-.3-.4-.4-.4.4.4.3z" fill="#fff"/>
</svg>
