<svg xmlns="http://www.w3.org/2000/svg" width="667.6" height="162.6">
    <defs>
        <linearGradient id="nemo-logo_svg__a" x1="66" x2="66" y2="162.3" gradientUnits="userSpaceOnUse">
            <stop offset="0" stop-color="#f7923d"/>
            <stop offset=".2" stop-color="#f68e3d"/>
            <stop offset=".4" stop-color="#f4813d"/>
            <stop offset=".6" stop-color="#f06d3d"/>
            <stop offset=".7" stop-color="#eb503c"/>
            <stop offset=".9" stop-color="#e42b3c"/>
            <stop offset="1" stop-color="#e11d3c"/>
        </linearGradient>
    </defs>
    <path fill="none" stroke="#d1d3d4" stroke-miterlimit="10" d="M159.7 3.4v159"/>
    <path d="M289.5 4v123.8h-9.3a7.4 7.4 0 0 1-3.5-.8 10.6 10.6 0 0 1-3-2.5l-69.9-90.4.3 4.6.2 4.2v85H188V3.8h9.5a9 9 0 0 1 3.6.7A8 8 0 0 1 204 7l70 90.6-.4-4.8q-.2-2.3-.1-4.5V4zm90.8 111.3a33.1 33.1 0 0 1-7.2 6.3 41.5 41.5 0 0 1-8.6 4.2 52.4 52.4 0 0 1-9.5 2.4 61 61 0 0 1-9.6.8 45.1 45.1 0 0 1-16.8-3 37.2 37.2 0 0 1-13.3-9 40.9 40.9 0 0 1-8.8-14.7 59.3 59.3 0 0 1-3.2-20.1 49.8 49.8 0 0 1 2.9-17 41 41 0 0 1 8.1-13.8 37.5 37.5 0 0 1 13-9.2 42.5 42.5 0 0 1 17.3-3.4 40.5 40.5 0 0 1 14.7 2.7A32.9 32.9 0 0 1 371 49a35.4 35.4 0 0 1 7.7 12.3 46.6 46.6 0 0 1 2.8 16.7q0 4-.8 5.3a3.5 3.5 0 0 1-3.2 1.3h-57.4a47.3 47.3 0 0 0 2.2 13.7 27.6 27.6 0 0 0 5.5 9.7 21.7 21.7 0 0 0 8.3 5.7 29.2 29.2 0 0 0 10.8 2 32.4 32.4 0 0 0 9.7-1.3 47 47 0 0 0 7-2.8l5-2.8a7 7 0 0 1 3.6-1.3 3.7 3.7 0 0 1 3.2 1.5zm-14-41A28.7 28.7 0 0 0 365 65a21 21 0 0 0-4.2-7.3A19 19 0 0 0 354 53a22.8 22.8 0 0 0-9.1-1.7q-10.6 0-16.7 6t-7.7 17zM525.2 4v123.8h-16V39.7l.1-4.2.3-4.6-41.2 75.6a7 7 0 0 1-6.7 4.2h-2.5a6.9 6.9 0 0 1-6.6-4.2l-42-75.9a85 85 0 0 1 .5 9v88.2H395V4h13.6a11.7 11.7 0 0 1 3.8.5 5.3 5.3 0 0 1 2.5 2.6l41.4 74.2a52 52 0 0 1 2.3 4.7l2 5a82.8 82.8 0 0 1 4.2-9.8L505.4 7a5 5 0 0 1 2.4-2.6 11.7 11.7 0 0 1 3.8-.5zm140.3 62a70.7 70.7 0 0 1-4.4 25.4 58.7 58.7 0 0 1-12.6 20 56.5 56.5 0 0 1-19.4 13 69.8 69.8 0 0 1-50.1 0 56 56 0 0 1-19.4-13 59.5 59.5 0 0 1-12.6-20 70 70 0 0 1-4.5-25.5 70.2 70.2 0 0 1 4.5-25.4 59.4 59.4 0 0 1 12.6-20A56.5 56.5 0 0 1 579 7.2a69.2 69.2 0 0 1 50.1 0 57 57 0 0 1 19.4 13.1 58.6 58.6 0 0 1 12.6 20 70.8 70.8 0 0 1 4.4 25.5zm-18.8 0a61 61 0 0 0-3-20 42.3 42.3 0 0 0-8.6-14.8 37.2 37.2 0 0 0-13.4-9.4 49 49 0 0 0-35.3 0 37.6 37.6 0 0 0-13.5 9.4 42 42 0 0 0-8.6 14.9 60.9 60.9 0 0 0-3 19.8 60.8 60.8 0 0 0 3 19.9 42 42 0 0 0 8.6 14.9 37.1 37.1 0 0 0 13.5 9.3 49.7 49.7 0 0 0 35.3 0 36.7 36.7 0 0 0 13.4-9.3 42.3 42.3 0 0 0 8.6-15 60.8 60.8 0 0 0 3-19.8zm-446.3 80.3h-5.8v16h-2.7v-16H186V144h14.4zm4.4 4.7a7 7 0 0 1 1.8-1.3 4.9 4.9 0 0 1 2.3-.5 4.6 4.6 0 0 1 1.9.3 3.7 3.7 0 0 1 1.3 1 4.4 4.4 0 0 1 .9 1.6 6.7 6.7 0 0 1 .2 2v8.3h-2.5V154a3.3 3.3 0 0 0-.6-2.2 2.4 2.4 0 0 0-2-.7 3.7 3.7 0 0 0-1.8.4 6 6 0 0 0-1.5 1.2v9.5h-2.5v-18.8h2.5zm22.4 9.5a5 5 0 0 1-1 1 6.1 6.1 0 0 1-1.3.6 7.7 7.7 0 0 1-1.4.3 9 9 0 0 1-1.4.1 6.7 6.7 0 0 1-2.5-.4 5.5 5.5 0 0 1-2-1.3 6 6 0 0 1-1.3-2.2 8.8 8.8 0 0 1-.5-3 7.4 7.4 0 0 1 .5-2.5 6 6 0 0 1 1.2-2 5.6 5.6 0 0 1 1.9-1.4 6.3 6.3 0 0 1 2.5-.5 6 6 0 0 1 2.2.4 4.8 4.8 0 0 1 1.8 1.1 5.2 5.2 0 0 1 1.1 1.8 6.9 6.9 0 0 1 .4 2.5 1.6 1.6 0 0 1-.1.8.5.5 0 0 1-.5.2h-8.5a7 7 0 0 0 .3 2 4 4 0 0 0 .9 1.4 3.2 3.2 0 0 0 1.2.9 4.3 4.3 0 0 0 1.6.3 4.8 4.8 0 0 0 1.4-.2 7 7 0 0 0 1-.4l.8-.5a1 1 0 0 1 .5-.1.5.5 0 0 1 .5.2zm-2-6a4.2 4.2 0 0 0-.2-1.4 3 3 0 0 0-.7-1.1 2.8 2.8 0 0 0-1-.7 3.4 3.4 0 0 0-1.3-.3 3.3 3.3 0 0 0-2.5 1 4.4 4.4 0 0 0-1.1 2.4zM252 144v18.4h-1.3a1 1 0 0 1-.6-.2 1.6 1.6 0 0 1-.4-.3l-10.3-13.4v13.9H237V144h1.4a1.3 1.3 0 0 1 .6.1 1.2 1.2 0 0 1 .4.4l10.4 13.4-.1-.7V144zm14.3 16.5a5 5 0 0 1-1 1 6.2 6.2 0 0 1-1.3.6 7.7 7.7 0 0 1-1.4.3 9 9 0 0 1-1.4.1 6.7 6.7 0 0 1-2.5-.4 5.5 5.5 0 0 1-2-1.3 6 6 0 0 1-1.3-2.2 8.8 8.8 0 0 1-.5-3 7.4 7.4 0 0 1 .4-2.5 6 6 0 0 1 1.3-2 5.6 5.6 0 0 1 1.9-1.4 6.3 6.3 0 0 1 2.5-.5 6 6 0 0 1 2.2.4 4.8 4.8 0 0 1 1.7 1.1 5.2 5.2 0 0 1 1.2 1.8 6.9 6.9 0 0 1 .4 2.5 1.6 1.6 0 0 1-.1.8.5.5 0 0 1-.5.2h-8.5a7 7 0 0 0 .3 2 4 4 0 0 0 .8 1.4 3.2 3.2 0 0 0 1.3.9 4.3 4.3 0 0 0 1.6.3 4.8 4.8 0 0 0 1.4-.2 7 7 0 0 0 1-.4l.8-.5a1 1 0 0 1 .5-.1.5.5 0 0 1 .5.2zm-2-6a4.2 4.2 0 0 0-.3-1.4 3 3 0 0 0-.6-1.1 2.8 2.8 0 0 0-1-.7 3.4 3.4 0 0 0-1.3-.3 3.3 3.3 0 0 0-2.5 1 4.4 4.4 0 0 0-1.1 2.4zm15.7-5.1v13h-1.5a.6.6 0 0 1-.7-.5l-.2-1.3a8.6 8.6 0 0 1-.9.8 5.4 5.4 0 0 1-2 1 5.2 5.2 0 0 1-1.3.2 4.6 4.6 0 0 1-1.9-.4 3.7 3.7 0 0 1-1.4-1 4.3 4.3 0 0 1-.8-1.5 6.7 6.7 0 0 1-.3-2v-8.3h2.5v8.3a3.3 3.3 0 0 0 .7 2.1 2.4 2.4 0 0 0 2 .8 3.7 3.7 0 0 0 1.7-.5 6.1 6.1 0 0 0 1.6-1.2v-9.5zm5.8 2.5a6 6 0 0 1 1.5-2 3.4 3.4 0 0 1 2.9-.6 2 2 0 0 1 .7.2l-.2 2a.4.4 0 0 1-.4.3 3 3 0 0 1-.6-.1 4 4 0 0 0-.7 0 3 3 0 0 0-1 0 2.5 2.5 0 0 0-1 .6 3.5 3.5 0 0 0-.6.8 8.1 8.1 0 0 0-.5 1.1v8.2h-2.5v-13h1.5a.8.8 0 0 1 .5.1 1 1 0 0 1 .2.6zm12-2.7a6.9 6.9 0 0 1 2.6.5 5.4 5.4 0 0 1 2 1.3 6 6 0 0 1 1.2 2.1 9 9 0 0 1 0 5.5 5.9 5.9 0 0 1-1.2 2.1 5.4 5.4 0 0 1-2 1.4 7.4 7.4 0 0 1-5.2 0 5.5 5.5 0 0 1-2-1.4 6 6 0 0 1-1.2-2 9 9 0 0 1 0-5.6 6 6 0 0 1 1.3-2.1 5.4 5.4 0 0 1 2-1.3 6.9 6.9 0 0 1 2.5-.5zm0 11.4a3.2 3.2 0 0 0 2.8-1.2 7.2 7.2 0 0 0 0-7 3.2 3.2 0 0 0-2.8-1.3 3.2 3.2 0 0 0-2.7 1.3 7.1 7.1 0 0 0 0 7 3.2 3.2 0 0 0 2.7 1.2zm16.7-9a.7.7 0 0 1-.3.3.6.6 0 0 1-.2 0 1 1 0 0 1-.5-.1l-.6-.3a6 6 0 0 0-.8-.3 4 4 0 0 0-1.1-.2 3.3 3.3 0 0 0-1 .2 2.3 2.3 0 0 0-.8.3 1.7 1.7 0 0 0-.4.6 1.5 1.5 0 0 0-.2.7 1.2 1.2 0 0 0 .3.8 2.4 2.4 0 0 0 .7.6 7.4 7.4 0 0 0 1 .4l1.3.4 1.2.4a4.4 4.4 0 0 1 1 .7 3 3 0 0 1 .8 1 2.9 2.9 0 0 1 .3 1.3 4.3 4.3 0 0 1-.3 1.6 3.7 3.7 0 0 1-1 1.4 4.5 4.5 0 0 1-1.5.8 6.6 6.6 0 0 1-2.2.4 6.7 6.7 0 0 1-2.4-.5 6.2 6.2 0 0 1-2-1.1l.7-1a.7.7 0 0 1 .6-.3.9.9 0 0 1 .5.1l.6.4a4.6 4.6 0 0 0 .9.4 4 4 0 0 0 1.3.2 3.5 3.5 0 0 0 1-.2 2.3 2.3 0 0 0 .9-.4 1.7 1.7 0 0 0 .4-.7 1.9 1.9 0 0 0 .2-.7 1.3 1.3 0 0 0-.3-.9 2.5 2.5 0 0 0-.8-.5 6 6 0 0 0-1-.5l-1.2-.3a12.3 12.3 0 0 1-1.3-.5 4.2 4.2 0 0 1-1-.7 3.1 3.1 0 0 1-.8-1 3.2 3.2 0 0 1-.3-1.4 3.5 3.5 0 0 1 .3-1.5 3.6 3.6 0 0 1 1-1.2 4.5 4.5 0 0 1 1.4-.8 6 6 0 0 1 2-.3 6.3 6.3 0 0 1 2.3.4 5.3 5.3 0 0 1 1.8 1.1zm12.5.2a1.3 1.3 0 0 1-.2.2.5.5 0 0 1-.3.1.7.7 0 0 1-.5-.1 5.6 5.6 0 0 0-.5-.4 5 5 0 0 0-.9-.3 4.3 4.3 0 0 0-2.8.1 3.1 3.1 0 0 0-1.1 1 4.3 4.3 0 0 0-.7 1.5 7.5 7.5 0 0 0-.3 2 7.3 7.3 0 0 0 .3 2 4.4 4.4 0 0 0 .7 1.5 3 3 0 0 0 1.2.9 3.6 3.6 0 0 0 1.5.3 3.8 3.8 0 0 0 1.3-.2 4.3 4.3 0 0 0 .9-.4 6 6 0 0 0 .5-.4.7.7 0 0 1 .5-.2.5.5 0 0 1 .5.2l.7.9a4.8 4.8 0 0 1-1 1 5.7 5.7 0 0 1-1.2.6 6.7 6.7 0 0 1-1.3.3 8.4 8.4 0 0 1-1.4.1 5.7 5.7 0 0 1-2.2-.4 5.1 5.1 0 0 1-1.9-1.3 6.2 6.2 0 0 1-1.2-2.1 8.4 8.4 0 0 1-.4-2.8 8.5 8.5 0 0 1 .4-2.7 6 6 0 0 1 1.2-2.1 5.5 5.5 0 0 1 1.9-1.4 6.5 6.5 0 0 1 2.6-.5 6.3 6.3 0 0 1 2.5.4 6 6 0 0 1 1.8 1.3zm6.2-6.4a1.6 1.6 0 0 1-.2.6 1.8 1.8 0 0 1-.3.6 1.7 1.7 0 0 1-.6.4 1.7 1.7 0 0 1-.6.1 1.6 1.6 0 0 1-.7-.1 1.7 1.7 0 0 1-1-1 1.6 1.6 0 0 1 0-.6 1.7 1.7 0 0 1 0-.7 1.8 1.8 0 0 1 1-.9 1.6 1.6 0 0 1 .7-.1 1.7 1.7 0 0 1 .6.1 1.7 1.7 0 0 1 .6.4 1.9 1.9 0 0 1 .3.5 1.6 1.6 0 0 1 .2.7zm-.5 4v13h-2.5v-13zm14.3 11.1a4.9 4.9 0 0 1-1 1 6.2 6.2 0 0 1-1.4.6 7.8 7.8 0 0 1-1.4.3 9 9 0 0 1-1.4.1 6.7 6.7 0 0 1-2.5-.4 5.5 5.5 0 0 1-2-1.3 6 6 0 0 1-1.3-2.2 8.8 8.8 0 0 1-.4-3 7.4 7.4 0 0 1 .4-2.5 6 6 0 0 1 1.2-2 5.6 5.6 0 0 1 2-1.4 6.3 6.3 0 0 1 2.5-.5 6 6 0 0 1 2.2.4 4.8 4.8 0 0 1 1.7 1.1 5.2 5.2 0 0 1 1.1 1.8 6.9 6.9 0 0 1 .5 2.5 1.6 1.6 0 0 1-.2.8.5.5 0 0 1-.4.2H338a7 7 0 0 0 .3 2 4 4 0 0 0 .8 1.4 3.2 3.2 0 0 0 1.2.9 4.3 4.3 0 0 0 1.6.3 4.8 4.8 0 0 0 1.5-.2 7 7 0 0 0 1-.4l.7-.5a1 1 0 0 1 .6-.1.5.5 0 0 1 .4.2zm-2-6a4.2 4.2 0 0 0-.3-1.4 3 3 0 0 0-.6-1.1 2.8 2.8 0 0 0-1-.7 3.4 3.4 0 0 0-1.4-.3 3.3 3.3 0 0 0-2.4 1 4.4 4.4 0 0 0-1.2 2.4zm7.2-3.3a8.8 8.8 0 0 1 .8-.8 5.5 5.5 0 0 1 1-.7 5.1 5.1 0 0 1 1.1-.4 5.3 5.3 0 0 1 1.3-.1 4.6 4.6 0 0 1 1.9.3 3.7 3.7 0 0 1 1.3 1 4.3 4.3 0 0 1 .9 1.6 6.8 6.8 0 0 1 .3 2v8.3h-2.5V154a3.3 3.3 0 0 0-.7-2.2 2.4 2.4 0 0 0-2-.7 3.7 3.7 0 0 0-1.7.4 6 6 0 0 0-1.6 1.2v9.5h-2.5v-12.9h1.5a.6.6 0 0 1 .7.5zm21 .6a1.3 1.3 0 0 1-.2.2.5.5 0 0 1-.3.1.7.7 0 0 1-.5-.1 5.7 5.7 0 0 0-.5-.4 5 5 0 0 0-.9-.3 4.3 4.3 0 0 0-2.8.1 3.1 3.1 0 0 0-1.1 1 4.3 4.3 0 0 0-.7 1.5 7.5 7.5 0 0 0-.3 2 7.3 7.3 0 0 0 .3 2 4.4 4.4 0 0 0 .7 1.5 3 3 0 0 0 1.2.9 3.5 3.5 0 0 0 1.5.3 3.8 3.8 0 0 0 1.3-.2 4.3 4.3 0 0 0 .9-.4 6 6 0 0 0 .5-.4.7.7 0 0 1 .5-.2.5.5 0 0 1 .5.2l.7.9a4.8 4.8 0 0 1-1 1 5.7 5.7 0 0 1-1.2.6 6.6 6.6 0 0 1-1.3.3 8.4 8.4 0 0 1-1.4.1 5.7 5.7 0 0 1-2.2-.4 5.1 5.1 0 0 1-1.9-1.3 6.2 6.2 0 0 1-1.2-2.1 8.4 8.4 0 0 1-.4-2.8 8.5 8.5 0 0 1 .4-2.7 6 6 0 0 1 1.2-2.1 5.5 5.5 0 0 1 1.9-1.4 6.5 6.5 0 0 1 2.6-.5 6.3 6.3 0 0 1 2.5.4 6 6 0 0 1 1.9 1.3zm13.5 8.7a5 5 0 0 1-1 1 6.2 6.2 0 0 1-1.3.6 7.8 7.8 0 0 1-1.4.3 9 9 0 0 1-1.4.1 6.7 6.7 0 0 1-2.5-.4 5.5 5.5 0 0 1-2-1.3 6 6 0 0 1-1.3-2.2 8.8 8.8 0 0 1-.5-3 7.4 7.4 0 0 1 .5-2.5 6 6 0 0 1 1.2-2 5.6 5.6 0 0 1 1.9-1.4 6.3 6.3 0 0 1 2.5-.5 6 6 0 0 1 2.2.4 4.8 4.8 0 0 1 1.8 1.1 5.2 5.2 0 0 1 1.1 1.8 6.9 6.9 0 0 1 .4 2.5 1.6 1.6 0 0 1-.1.8.5.5 0 0 1-.5.2h-8.5a7 7 0 0 0 .3 2 4 4 0 0 0 .9 1.4 3.2 3.2 0 0 0 1.2.9 4.3 4.3 0 0 0 1.6.3 4.8 4.8 0 0 0 1.4-.2 7 7 0 0 0 1-.4l.8-.5a1 1 0 0 1 .5-.1.5.5 0 0 1 .5.2zm-2-6a4.2 4.2 0 0 0-.2-1.4 3 3 0 0 0-.7-1.1 2.8 2.8 0 0 0-1-.7 3.4 3.4 0 0 0-1.3-.3 3.3 3.3 0 0 0-2.5 1 4.4 4.4 0 0 0-1.1 2.4zm31.1-10.5v18.4h-2.4v-13.7l.1-.7-6.1 11.2a1 1 0 0 1-1 .6h-.4a1 1 0 0 1-1-.6l-6-11.2a12.6 12.6 0 0 1 0 1.3v13h-2.4V144h2a1.8 1.8 0 0 1 .6.1.8.8 0 0 1 .4.4l6.1 11a7.4 7.4 0 0 1 .3.7l.3.7a12.4 12.4 0 0 1 .7-1.4l6-11a.7.7 0 0 1 .3-.4 1.8 1.8 0 0 1 .6 0zm14.6 5.4v13h-1.5a.6.6 0 0 1-.7-.5l-.2-1.3a8.6 8.6 0 0 1-.8.8 5.4 5.4 0 0 1-2.1 1 5.2 5.2 0 0 1-1.3.2 4.6 4.6 0 0 1-1.9-.4 3.7 3.7 0 0 1-1.3-1 4.3 4.3 0 0 1-.9-1.5 6.7 6.7 0 0 1-.2-2v-8.3h2.5v8.3a3.3 3.3 0 0 0 .6 2.1 2.4 2.4 0 0 0 2 .8 3.7 3.7 0 0 0 1.7-.5 6 6 0 0 0 1.6-1.2v-9.5zm6-5.9v18.9H434v-18.9zm15.8 18.9h-2.5v-11h-6.5v7.6a1.6 1.6 0 0 0 .4 1.1 1.3 1.3 0 0 0 1 .4 1.7 1.7 0 0 0 .6 0 2.4 2.4 0 0 0 .4-.3l.3-.2a.4.4 0 0 1 .2 0 .3.3 0 0 1 .2 0 .7.7 0 0 1 .2.2l.7 1.2a4.3 4.3 0 0 1-1.4.8 5 5 0 0 1-1.8.4 3.2 3.2 0 0 1-2.4-1 3.5 3.5 0 0 1-.9-2.4v-7.8h-1.5a.5.5 0 0 1-.5-.5v-1l2.2-.3.5-3.9a.6.6 0 0 1 .2-.3.6.6 0 0 1 .4-.2h1.2v4.4h9zm.6-17a1.6 1.6 0 0 1-.1.6 1.8 1.8 0 0 1-.4.5 1.7 1.7 0 0 1-1.2.5 1.6 1.6 0 0 1-.7-.1 1.8 1.8 0 0 1-.9-1 1.7 1.7 0 0 1-.1-.6 1.7 1.7 0 0 1 .1-.7 1.7 1.7 0 0 1 .4-.5 1.8 1.8 0 0 1 .5-.4 1.6 1.6 0 0 1 .7-.1 1.7 1.7 0 0 1 1.2.5 1.8 1.8 0 0 1 .4.5 1.7 1.7 0 0 1 .1.7zm2.9 8.2h6.3v2.1h-6.3zm15.2-4.4a6.9 6.9 0 0 1 2.5.5 5.4 5.4 0 0 1 2 1.3 6 6 0 0 1 1.2 2.1 9 9 0 0 1 0 5.5 5.9 5.9 0 0 1-1.2 2.1 5.4 5.4 0 0 1-2 1.4 7.4 7.4 0 0 1-5.1 0 5.5 5.5 0 0 1-2-1.4 6 6 0 0 1-1.3-2 9 9 0 0 1 0-5.6 6 6 0 0 1 1.3-2.1 5.5 5.5 0 0 1 2-1.3 6.9 6.9 0 0 1 2.6-.5zm0 11.4a3.2 3.2 0 0 0 2.7-1.2 7.2 7.2 0 0 0 0-7 3.2 3.2 0 0 0-2.7-1.3 3.2 3.2 0 0 0-2.8 1.3 7.1 7.1 0 0 0 0 7 3.2 3.2 0 0 0 2.8 1.2zm9 1.8v-13h1.4a.6.6 0 0 1 .7.5l.2 1.2a6.6 6.6 0 0 1 1.6-1.4 3.8 3.8 0 0 1 2-.5 3 3 0 0 1 2.1.7 4 4 0 0 1 1.2 2 4 4 0 0 1 .7-1.3 4.1 4.1 0 0 1 1-.8 4.4 4.4 0 0 1 1.2-.5 5.2 5.2 0 0 1 1.2-.1 5 5 0 0 1 1.9.3 3.6 3.6 0 0 1 1.3 1 4.2 4.2 0 0 1 .9 1.5 7 7 0 0 1 .3 2.1v8.3H495V154a3.3 3.3 0 0 0-.6-2.2 2.3 2.3 0 0 0-1.9-.7 2.8 2.8 0 0 0-1 .2 2.3 2.3 0 0 0-.9.5 2.6 2.6 0 0 0-.5 1 3.6 3.6 0 0 0-.2 1.2v8.3h-2.5V154a3.4 3.4 0 0 0-.6-2.2 2.2 2.2 0 0 0-1.8-.7 2.8 2.8 0 0 0-1.5.4 4.8 4.8 0 0 0-1.3 1.1v9.7zm24.1-17a1.6 1.6 0 0 1-.1.6 1.8 1.8 0 0 1-.4.6 1.7 1.7 0 0 1-.6.4 1.7 1.7 0 0 1-.6.1 1.6 1.6 0 0 1-.7-.1 1.7 1.7 0 0 1-.9-1 1.6 1.6 0 0 1-.1-.6 1.7 1.7 0 0 1 .1-.7 1.8 1.8 0 0 1 1-.9 1.6 1.6 0 0 1 .6-.1 1.7 1.7 0 0 1 .6.1 1.7 1.7 0 0 1 .6.4 1.9 1.9 0 0 1 .4.5 1.6 1.6 0 0 1 .1.7zm-.5 4v13h-2.4v-13zm12.7 2.4a1.3 1.3 0 0 1-.2.2.5.5 0 0 1-.3.1.7.7 0 0 1-.4-.1 5.8 5.8 0 0 0-.6-.4 5 5 0 0 0-.8-.3 4.3 4.3 0 0 0-2.8.1 3.1 3.1 0 0 0-1.2 1 4.3 4.3 0 0 0-.7 1.5 7.5 7.5 0 0 0-.2 2 7.3 7.3 0 0 0 .2 2 4.4 4.4 0 0 0 .8 1.5 3 3 0 0 0 1.1.9 3.5 3.5 0 0 0 1.5.3 3.8 3.8 0 0 0 1.3-.2 4.3 4.3 0 0 0 .9-.4 5.8 5.8 0 0 0 .6-.4.7.7 0 0 1 .4-.2.5.5 0 0 1 .5.2l.7.9a4.8 4.8 0 0 1-1 1 5.7 5.7 0 0 1-1.1.6 6.6 6.6 0 0 1-1.4.3 8.4 8.4 0 0 1-1.3.1 5.7 5.7 0 0 1-2.3-.4 5.1 5.1 0 0 1-1.8-1.3 6.2 6.2 0 0 1-1.2-2.1 8.4 8.4 0 0 1-.5-2.8 8.5 8.5 0 0 1 .4-2.7 6 6 0 0 1 1.2-2.1 5.5 5.5 0 0 1 2-1.4 6.5 6.5 0 0 1 2.6-.5 6.3 6.3 0 0 1 2.4.4 6 6 0 0 1 1.9 1.3zm26.1 1.4a10.2 10.2 0 0 1-.7 3.7 8.2 8.2 0 0 1-4.7 4.8 10 10 0 0 1-3.7.7h-6.9V144h6.9a10 10 0 0 1 3.7.7 8.2 8.2 0 0 1 4.7 4.8 10.2 10.2 0 0 1 .7 3.7zm-2.8 0a9 9 0 0 0-.4-3 6.2 6.2 0 0 0-1.3-2.1 5.4 5.4 0 0 0-2-1.4 7 7 0 0 0-2.6-.5H529v14h4.2a7 7 0 0 0 2.6-.5 5.4 5.4 0 0 0 2-1.4 6.2 6.2 0 0 0 1.3-2.2 9 9 0 0 0 .4-2.9zm5-2a7.1 7.1 0 0 1 5.2-2 5 5 0 0 1 2 .3 4 4 0 0 1 1.4 1 4.3 4.3 0 0 1 .9 1.6 6.3 6.3 0 0 1 .3 2v8.3h-1.1a1 1 0 0 1-.6-.2.8.8 0 0 1-.3-.4l-.3-1.2a10.4 10.4 0 0 1-1 .9 6.2 6.2 0 0 1-1 .6 5.2 5.2 0 0 1-1.1.3 6.4 6.4 0 0 1-1.3.2 4.8 4.8 0 0 1-1.5-.3 3.2 3.2 0 0 1-1.1-.6 3 3 0 0 1-.8-1 3.7 3.7 0 0 1-.3-1.6 2.9 2.9 0 0 1 .4-1.5 3.7 3.7 0 0 1 1.4-1.2 8.7 8.7 0 0 1 2.4-1 18.3 18.3 0 0 1 3.7-.4v-1a3.3 3.3 0 0 0-.6-2.1 2.3 2.3 0 0 0-1.8-.7 4 4 0 0 0-1.4.2 5.2 5.2 0 0 0-1 .4l-.7.5a1 1 0 0 1-.6.2.7.7 0 0 1-.4-.2 1.2 1.2 0 0 1-.3-.3zm7.3 5.4a19 19 0 0 0-2.5.2 7 7 0 0 0-1.8.5 2.3 2.3 0 0 0-1 .8 1.6 1.6 0 0 0-.2.9 2 2 0 0 0 .1.8 1.6 1.6 0 0 0 .5.6 1.7 1.7 0 0 0 .6.3 3 3 0 0 0 .8.1 4.5 4.5 0 0 0 1-.1 4.2 4.2 0 0 0 1-.3 4.5 4.5 0 0 0 .8-.5 7.2 7.2 0 0 0 .7-.7zm9.7 6a3.2 3.2 0 0 1-2.4-1 3.5 3.5 0 0 1-.9-2.4v-7.8h-1.5a.5.5 0 0 1-.5-.5v-1l2.1-.3.6-3.9a.6.6 0 0 1 .2-.3.6.6 0 0 1 .4-.2h1.2v4.4h3.7v1.8h-3.7v7.6a1.6 1.6 0 0 0 .4 1.1 1.3 1.3 0 0 0 1 .4 1.7 1.7 0 0 0 .6 0 2.4 2.4 0 0 0 .4-.3l.3-.2a.4.4 0 0 1 .2 0 .3.3 0 0 1 .2 0 .7.7 0 0 1 .2.2l.7 1.2a4.3 4.3 0 0 1-1.4.8 5 5 0 0 1-1.8.4zm4.8-11.4a7.1 7.1 0 0 1 5.2-2 5 5 0 0 1 2 .3 4 4 0 0 1 1.4 1 4.3 4.3 0 0 1 .9 1.6 6.3 6.3 0 0 1 .3 2v8.3H575a1 1 0 0 1-.6-.2.8.8 0 0 1-.3-.4l-.3-1.2a10.4 10.4 0 0 1-1 .9 6.2 6.2 0 0 1-1 .6 5.2 5.2 0 0 1-1 .3 6.4 6.4 0 0 1-1.4.2 4.8 4.8 0 0 1-1.4-.3 3.2 3.2 0 0 1-1.2-.6 3 3 0 0 1-.8-1 3.7 3.7 0 0 1-.3-1.6 2.9 2.9 0 0 1 .4-1.5 3.7 3.7 0 0 1 1.4-1.2 8.7 8.7 0 0 1 2.4-1 18.3 18.3 0 0 1 3.7-.4v-1a3.3 3.3 0 0 0-.6-2.1 2.3 2.3 0 0 0-1.8-.7 4 4 0 0 0-1.4.2 5.3 5.3 0 0 0-1 .4l-.6.5a1 1 0 0 1-.7.2.7.7 0 0 1-.4-.2 1.2 1.2 0 0 1-.3-.3zm7.3 5.4a19 19 0 0 0-2.5.2 7 7 0 0 0-1.8.5 2.4 2.4 0 0 0-1 .8 1.6 1.6 0 0 0-.2.9 2 2 0 0 0 .2.8 1.6 1.6 0 0 0 .4.6 1.7 1.7 0 0 0 .6.3 3 3 0 0 0 .8.1 4.5 4.5 0 0 0 1-.1 4.2 4.2 0 0 0 1-.3 4.5 4.5 0 0 0 .8-.5 7 7 0 0 0 .7-.7zm27 5.8h-2a1 1 0 0 1-.7-.2 1 1 0 0 1-.3-.5l-1.6-4.2h-8l-1.7 4.2a1 1 0 0 1-.3.5.9.9 0 0 1-.6.2h-2.1l7.3-18.4h2.7zm-5.3-6.9l-2.8-7a15.9 15.9 0 0 1-.5-2l-.3 1.1-.3.9-2.7 7zm9.4-3.6a6 6 0 0 1 1.5-2 3.4 3.4 0 0 1 3-.6 2 2 0 0 1 .6.2l-.2 2a.4.4 0 0 1-.4.3 3 3 0 0 1-.6-.1 4 4 0 0 0-.7 0 3 3 0 0 0-1 0 2.5 2.5 0 0 0-.9.6 3.5 3.5 0 0 0-.6.8 8.3 8.3 0 0 0-.6 1.1v8.2h-2.5v-13h1.5a.8.8 0 0 1 .5.1 1 1 0 0 1 .2.6zm15.6-.1a1.3 1.3 0 0 1-.2.2.5.5 0 0 1-.3.1.7.7 0 0 1-.5-.1 5.6 5.6 0 0 0-.5-.4 5 5 0 0 0-.8-.3 4.3 4.3 0 0 0-2.8.1 3.1 3.1 0 0 0-1.2 1 4.3 4.3 0 0 0-.7 1.5 7.5 7.5 0 0 0-.3 2 7.3 7.3 0 0 0 .3 2 4.4 4.4 0 0 0 .7 1.5 3 3 0 0 0 1.2.9 3.6 3.6 0 0 0 1.5.3 3.8 3.8 0 0 0 1.3-.2 4.3 4.3 0 0 0 .9-.4 6 6 0 0 0 .5-.4.7.7 0 0 1 .5-.2.5.5 0 0 1 .5.2l.7.9a4.8 4.8 0 0 1-1 1 5.7 5.7 0 0 1-1.2.6 6.6 6.6 0 0 1-1.3.3 8.4 8.4 0 0 1-1.4.1 5.7 5.7 0 0 1-2.2-.4 5.1 5.1 0 0 1-1.9-1.3 6.2 6.2 0 0 1-1.2-2.1 8.4 8.4 0 0 1-.4-2.8 8.5 8.5 0 0 1 .4-2.7 6 6 0 0 1 1.2-2.1 5.5 5.5 0 0 1 1.9-1.4 6.5 6.5 0 0 1 2.6-.5 6.3 6.3 0 0 1 2.5.4 6 6 0 0 1 1.9 1.3zm5.6-.8a7 7 0 0 1 1.8-1.3 4.9 4.9 0 0 1 2.3-.5 4.6 4.6 0 0 1 1.9.3 3.7 3.7 0 0 1 1.3 1 4.4 4.4 0 0 1 .9 1.6 6.8 6.8 0 0 1 .2 2v8.3h-2.5V154a3.3 3.3 0 0 0-.6-2.2 2.4 2.4 0 0 0-2-.7 3.7 3.7 0 0 0-1.7.4 6 6 0 0 0-1.6 1.2v9.5h-2.5v-18.8h2.5zm14.9-5.6a1.6 1.6 0 0 1-.2.6 1.8 1.8 0 0 1-.4.6 1.7 1.7 0 0 1-.5.4 1.7 1.7 0 0 1-.7.1 1.6 1.6 0 0 1-.6-.1 1.7 1.7 0 0 1-1-1 1.7 1.7 0 0 1 0-.6 1.7 1.7 0 0 1 0-.7 1.8 1.8 0 0 1 1-.9 1.6 1.6 0 0 1 .6-.1 1.7 1.7 0 0 1 .7.1 1.7 1.7 0 0 1 .5.4 1.8 1.8 0 0 1 .4.5 1.6 1.6 0 0 1 .2.7zm-.5 4v13h-2.5v-13zm14.9 0l-5.3 13h-2.2l-5.3-13h2a.8.8 0 0 1 .5.1.7.7 0 0 1 .3.4l3 8 .4 1 .2 1 .2-1 .3-1 3.2-8a.7.7 0 0 1 .7-.5zm12.2 11.1a5 5 0 0 1-1 1 6.2 6.2 0 0 1-1.3.6 7.7 7.7 0 0 1-1.4.3 9 9 0 0 1-1.4.1 6.7 6.7 0 0 1-2.5-.4 5.5 5.5 0 0 1-2-1.3 6 6 0 0 1-1.3-2.2 8.8 8.8 0 0 1-.5-3 7.4 7.4 0 0 1 .5-2.5 6 6 0 0 1 1.2-2 5.6 5.6 0 0 1 1.9-1.4 6.3 6.3 0 0 1 2.5-.5 6 6 0 0 1 2.2.4 4.9 4.9 0 0 1 1.7 1.1 5.2 5.2 0 0 1 1.2 1.8 6.9 6.9 0 0 1 .4 2.5 1.6 1.6 0 0 1-.1.8.5.5 0 0 1-.5.2h-8.5a7 7 0 0 0 .3 2 4 4 0 0 0 .9 1.4 3.2 3.2 0 0 0 1.2.9 4.3 4.3 0 0 0 1.6.3 4.8 4.8 0 0 0 1.4-.2 7 7 0 0 0 1-.4l.8-.5a1 1 0 0 1 .5-.1.5.5 0 0 1 .5.2zm-2-6a4.3 4.3 0 0 0-.3-1.4 3 3 0 0 0-.6-1.1 2.8 2.8 0 0 0-1-.7 3.4 3.4 0 0 0-1.3-.3 3.3 3.3 0 0 0-2.5 1 4.4 4.4 0 0 0-1.1 2.4z" fill="#25374a"/>
    <path fill="url(#nemo-logo_svg__a)" d="M90.7 40.4A2.6 2.6 0 0 0 93 39l1.3-3h.1a2.5 2.5 0 1 0-2.5-2.5 2.5 2.5 0 0 0 .9 2l-1.3 2.8a1 1 0 0 1-1.4.3l-8.6-8.2-1.9-5.4-1.1-1.8a2.5 2.5 0 0 0 .4-1.3 2.5 2.5 0 1 0-2.5 2.5 2.5 2.5 0 0 0 .8-.1l.9 1.4 1.4 4-4.7-.9a2.5 2.5 0 1 0-2.5 2.5 2.5 2.5 0 0 0 2-.9l5.9 1 8.7 8.4a2.6 2.6 0 0 0 1.8.7zm3.7-7.8a.9.9 0 1 1-.9.8.9.9 0 0 1 1-.8zm-18-10a.9.9 0 1 1 .9-.8.9.9 0 0 1-.9.8zm-4 7a.9.9 0 1 1 .8-.9.9.9 0 0 1-.9.9zM41 18.7l2.2 1.7a2.5 2.5 0 0 1 1 2.3l-.6 4.7a2.5 2.5 0 1 0 3.6 2.3 2.5 2.5 0 0 0-1.9-2.4l.5-4.4a4.2 4.2 0 0 0-1.6-3.7L42 17.4a2.7 2.7 0 0 0-2.3-.4l-6.5 1.8a2.5 2.5 0 0 0-2-1.2 2.5 2.5 0 0 0 0 5 2.5 2.5 0 0 0 2.4-2.1l6.5-2a1 1 0 0 1 1 .2zm3.7 10.1a.9.9 0 1 1-.9 1 .9.9 0 0 1 .9-1zM31 21a.9.9 0 1 1 1-.8.9.9 0 0 1-1 .8zm-1.5 112.8a2.5 2.5 0 0 0-2.5 2.5 2.4 2.4 0 0 0 0 .6l-3.4 1.5-4.2-.2-4.8-7.9-2.9-4.3a2.5 2.5 0 0 0 .6-1.5 2.5 2.5 0 1 0-2.6 2.5 2.4 2.4 0 0 0 .6-.1l2.8 4.3 5.3 8.6 5.5.3 4-1.8a2.5 2.5 0 0 0 1.6.5 2.5 2.5 0 1 0 0-5zm-19.8-8.4a.9.9 0 1 1 1-1 .9.9 0 0 1-1 1zm19.8 11.8a.9.9 0 1 1 .9-.9.9.9 0 0 1-1 .9zm-6.2-36.5a2.5 2.5 0 0 0-.2-.7l4.6-3.2.5-11.8-5.3-6.3a2.3 2.3 0 0 0-3-.4l-7.6 5.3a1.5 1.5 0 0 1-1.2.2L9 83.3a2.6 2.6 0 1 0-.4 1.6l2.4.5a3.1 3.1 0 0 0 2.4-.5l7.6-5.3a.6.6 0 0 1 .8.1l4.9 5.9-.5 10.3-3.9 2.8a2.5 2.5 0 0 0-1.3-.5 2.5 2.5 0 1 0 2.5 2.6zm-17-16.2a.9.9 0 1 1 1-1 .9.9 0 0 1-1 1zM21 101.6a.9.9 0 1 1 .8-.8.9.9 0 0 1-.8.8zm111-2.5V80.7l-3-14-1-4.2-2.8-3.6a1 1 0 0 1 0-1.1l.4-.6a3 3 0 0 0 .2-3l-7-14.8-1.1-1.7-4.8-11.3-11.3-13.7c-3-4.6-3.4-4.8-4.1-5l-9.8-2.9a1.4 1.4 0 0 1-.4-.2l-5.7-4A2.8 2.8 0 0 0 80 0h-7.5a3 3 0 0 0-2.2 1l-3.8 4.2v126.6l.5 14.6a4.1 4.1 0 0 0 .5 1.9l1.7 7.9a4.7 4.7 0 0 0 1.5 2.5l.6.5a5.3 5.3 0 0 0 2.5 1.3l9.3 1.8h11l6.7-.9 8.4-4.8 1.8-3.1 10.2-12a3.2 3.2 0 0 0 .7-2l.1-1.5a1.9 1.9 0 0 1 .6-1.2l1.4-1.4a3.2 3.2 0 0 0 .8-1.3l7-21.6a2.9 2.9 0 0 0 .1-1.5l-1.7-8.2 1.4-2.2a2.7 2.7 0 0 0 .5-1.5zm-1.7 0a1 1 0 0 1-.2.6l-1 1.5-5-8a2.8 2.8 0 0 0-1.5-1.1l-5.7-2.5a2.5 2.5 0 1 0-2.6 2.4 2.5 2.5 0 0 0 2-.9l5.7 2.5-3.3 9a2.5 2.5 0 1 0 2.5 2.5 2.5 2.5 0 0 0-1-2l3-8.2 5.2 8.1 1 4.7-4.9 6a1.1 1.1 0 0 1-2 .2l-1-1.6a2.8 2.8 0 0 0-4.7 0l-3 4.6-3.2 8.7a2.4 2.4 0 0 0-.4-.1 2.5 2.5 0 1 0 2.5 2.5 2.5 2.5 0 0 0-.6-1.6l3.3-8.8 2.8-4.4a1.1 1.1 0 0 1 1.9 0l1 1.6a2.8 2.8 0 0 0 4.8-.2l4-4.9.3 1.7a1.2 1.2 0 0 1 0 .6l-7 21.6a1.5 1.5 0 0 1-.5.6l-1.4 1.4a3.5 3.5 0 0 0-1 2.3l-.1 1.6a1.6 1.6 0 0 1-.4.9l-10.3 12.1-1.6 2.9-7.7 4.4-2.6.3V155a3 3 0 0 1 .6-1.8l6.2-6a2.5 2.5 0 0 0 1 .3 2.5 2.5 0 1 0-2.4-2.5 2.5 2.5 0 0 0 .2 1l-6.3 6.2a4.7 4.7 0 0 0-.9 2.8v5.5l-2.2.2H83.3l-9.2-1.8a3.7 3.7 0 0 1-1.7-.8l-.6-.6a3 3 0 0 1-1-1.6l-1.7-8.2H69a2.5 2.5 0 0 1-.4-1.3l-.3-8.8 2 .6a3.8 3.8 0 0 0 5-4l-.5-4.8a2.6 2.6 0 1 0-1.6 0l.5 5a2.1 2.1 0 0 1-2.9 2.3l-2.5-1-.1-3.8v-32l2.3 2.7v.1a.6.6 0 0 1 .2.8 4.5 4.5 0 0 0-.8 2.5v.7a3.2 3.2 0 0 0 4.1 3l6-1.9a.9.9 0 0 1 .9.2l4.9 4.5a2.5 2.5 0 0 0-.3 1 2.5 2.5 0 1 0 2.6-2.5 2.5 2.5 0 0 0-1.2.3l-4.9-4.5a2.5 2.5 0 0 0-2.5-.6l-6 2a1.5 1.5 0 0 1-2-1.5v-.7a2.9 2.9 0 0 1 .5-1.6 2.3 2.3 0 0 0-.2-2.9l-3.6-4.1V83.8l8.8 5.3a2.5 2.5 0 0 0 2.7-.1l8.6-7a2.5 2.5 0 0 0 1.4.4A2.5 2.5 0 1 0 87 80a2.5 2.5 0 0 0 .2.8l-8.6 7a.9.9 0 0 1-.8 0L68.1 82V59.3l1.7 2.1a3.7 3.7 0 0 0 2.7 1.2 3.6 3.6 0 0 0 1.1-.2l12-4a2.5 2.5 0 1 0-.7-1.7v.2l-11.8 4a2 2 0 0 1-2-.5l-3-3.8v-12l4-7a1.6 1.6 0 0 1 1.3-.3l3.1.1a2.5 2.5 0 0 0 2.4 2 2.5 2.5 0 1 0-2.3-3.6l-3.2-.2a3.3 3.3 0 0 0-2.5 1l-2.8 4.8V5.8l3.3-3.7a1.4 1.4 0 0 1 1-.4H80a1.2 1.2 0 0 1 .7.2l5.7 4a3.2 3.2 0 0 0 .4.2l-4.1 5.5a2.5 2.5 0 0 1-3.4.6l-4.8-3a2.5 2.5 0 1 0-2.5 2.6 2.5 2.5 0 0 0 2-1l4.4 2.8a4.2 4.2 0 0 0 5.6-1l4.5-5.9L97 9.3c.4 0 2 2.4 3.3 4.4l7.8 9.5-4.6 3.2a4.6 4.6 0 0 0-2 3.3 4.4 4.4 0 0 0 1.2 3.5l.2.2 4.3 4.1a2.5 2.5 0 0 0-.4 1.2 2.5 2.5 0 1 0 1.6-2.3l-4.4-4.2V32a2.7 2.7 0 0 1-.8-2.1 3 3 0 0 1 1.3-2.1l4.7-3.3 2.3 2.8 4.7 11.2 1 1.7 1.8 3.6-7 4.4-4.3-3.5a2.7 2.7 0 0 0-2.6-.5L100 46a2.5 2.5 0 1 0 .7 1.8 2.2 2.2 0 0 0 0-.2l5-1.8a1 1 0 0 1 1 .1l8.9 7.3a1.7 1.7 0 0 1 .5.7l3.4 8.4a.6.6 0 0 1-.6.8l-5.1-.8a2.5 2.5 0 0 0-2.5-2.2 2.5 2.5 0 0 0 0 5 2.5 2.5 0 0 0 2.1-1.2l5.2.8a2.4 2.4 0 0 0 .4 0 2.3 2.3 0 0 0 2-3l-3.4-8.5a3.3 3.3 0 0 0-1-1.3l-3.2-2.6 6.4-4 4.6 9.6a1.4 1.4 0 0 1 0 1.3l-.5.6a2.7 2.7 0 0 0 .1 3.2l2.6 3.2.7 3.2-5.5 8.3a.8.8 0 0 1-1 .3l-17.3-7.7a2.3 2.3 0 0 0-3.1 1.3l-2.2 5.8a2.5 2.5 0 1 0 2.6 2.5 2.5 2.5 0 0 0-1-2l2.1-5.7a.7.7 0 0 1 1-.4l17.2 7.7a2.5 2.5 0 0 0 3.1-.9l4.6-7 2.6 12.3zm-15-9.6a.9.9 0 1 1-1-.9.9.9 0 0 1 .9 1zm4.3 15.6a.9.9 0 1 1-.9-1 .9.9 0 0 1 .9 1zm-8.6 23a.9.9 0 1 1-.8-1 .9.9 0 0 1 .8 1zm-6.4 16.8a.9.9 0 1 1 .9.8.9.9 0 0 1-.9-.8zm-31-17a.9.9 0 1 1 1-1 .9.9 0 0 1-1 1zm13.5-14.5a.9.9 0 1 1 .9.9.9.9 0 0 1-1-.9zM88.8 80a.9.9 0 1 1 .9.9.9.9 0 0 1-.9-.9zm-2.1-23.2a.9.9 0 1 1 .8.9.9.9 0 0 1-.8-.9zm-8.7-20a.9.9 0 1 1 .9.9.9.9 0 0 1-.9-.9zM72.8 9.3a.9.9 0 1 1-.8-.9.9.9 0 0 1 .8.9zm35.8 29.4a.9.9 0 1 1 .8.9.9.9 0 0 1-.8-.9zM99 47.8a.9.9 0 1 1-.9-.9.9.9 0 0 1 .9 1zm13 14.8a.9.9 0 1 1-.8-.9.9.9 0 0 1 .9 1zM99.2 77a.9.9 0 1 1-.8-.8.9.9 0 0 1 .9.8zM53 137.7l-7 1a2.5 2.5 0 0 0-2.1-1.2 2.5 2.5 0 0 0 0 5 2.5 2.5 0 0 0 2.5-2.2l6.7-1v.1l-3.6 7.5a.7.7 0 0 1-.8.4l-2.4-.5a3 3 0 0 0-1.8.3l-1.8.9a2.7 2.7 0 0 0-1.4 3.1l.8 2.1a2.5 2.5 0 0 0-.9 2 2.5 2.5 0 1 0 2.5-2.6l-.8-2a1 1 0 0 1 .5-1.1l1.8-1a1.3 1.3 0 0 1 .8 0l2.4.4a2.3 2.3 0 0 0 2.6-1.2l3.6-7.5a1.7 1.7 0 0 0-1.7-2.5zm-9.1 3.2a.9.9 0 1 1 .9-.9.9.9 0 0 1-.9.9zm-.2 13.4a.9.9 0 1 1-.8.8.9.9 0 0 1 .8-.8zm59-95.6a3 3 0 0 0 .5 0 3.1 3.1 0 0 0 2-.7l2.4-1.9a2.5 2.5 0 0 0 1.4.5 2.5 2.5 0 1 0-2.5-2.5 2.4 2.4 0 0 0 .1.7l-2.4 1.9a1.4 1.4 0 0 1-1.3.4l-7.1-1.4-5.9-9.5a2.4 2.4 0 0 0-3-1L76.5 47a2.5 2.5 0 0 0-2-1.2 2.5 2.5 0 1 0 0 5 2.5 2.5 0 0 0 2.4-2.2l10.7-1.8a.8.8 0 0 1 1 .3l5.8 9.5-3.9 12a3 3 0 0 1-.3.6l-8.3 2.2a2.5 2.5 0 0 0-2.2-1.4 2.5 2.5 0 0 0 0 5 2.5 2.5 0 0 0 2.4-2l9.1-2.4.2-.2A4.6 4.6 0 0 0 92 69l3.8-11.7zm6.3-5.5a.9.9 0 1 1-.9.9.9.9 0 0 1 .9-.9zm-34.7-4a.9.9 0 1 1 .9-.9.9.9 0 0 1-.9.9zm5.3 24.2a.9.9 0 1 1 .9-.8.9.9 0 0 1-.9.8zm7 51.9a2.5 2.5 0 0 0 2.5-2.6 2.5 2.5 0 0 0-.4-1.3l6.6-7.9a2.8 2.8 0 0 0 .7-2l-1-9.9 3.3 2.9a2.2 2.2 0 0 0 3.1-.2l1.7-1.8a2.5 2.5 0 0 0 1 .3 2.5 2.5 0 1 0-2.5-2.6 2.5 2.5 0 0 0 .3 1.2l-1.7 1.8a.6.6 0 0 1-.8 0l-4.3-3.7 3.1-4.6a2.4 2.4 0 0 0 .7 0 2.5 2.5 0 1 0-2.6-2.4 2.5 2.5 0 0 0 .6 1.4l-3 4.5-4.3-3.7a2.4 2.4 0 0 0 .1-.5 2.5 2.5 0 1 0-2.5 2.5 2.5 2.5 0 0 0 1.5-.6l4.2 3.7.3.3 1.2 11.5a1.1 1.1 0 0 1-.3.9 168 168 0 0 0-6.7 7.9 2.5 2.5 0 0 0-.8-.2 2.5 2.5 0 0 0 0 5zm17.5-26a.9.9 0 1 1-.8 1 .9.9 0 0 1 .8-1zM99 91.7a.9.9 0 1 1-1 .9.9.9 0 0 1 1-.9zM87.2 95a.9.9 0 1 1 .9-.8.9.9 0 0 1-.9.8zm-.6 26.9a.9.9 0 1 1-.9.8.9.9 0 0 1 .9-.8zm18.4 14.4a2.5 2.5 0 1 0-2.5 2.5 2.5 2.5 0 0 0 1.5-.5l4 1.8 5.5-.3 5.3-8.6 2.9-4.3a2.4 2.4 0 0 0 .5.1 2.5 2.5 0 1 0-2.5-2.5 2.5 2.5 0 0 0 .6 1.5l-2.9 4.3-4.8 8-4.2.1-3.5-1.6a2.5 2.5 0 0 0 0-.5zm-2.5.9a.9.9 0 1 1 .8-.9.9.9 0 0 1-.8.9zm19.7-13.6a.9.9 0 1 1-.9.9.9.9 0 0 1 1-.9zm-31.4 27.5a2.7 2.7 0 0 0-1.4-3.1l-1.8-1a3 3 0 0 0-1.9-.2l-2.4.5a.7.7 0 0 1-.7-.4l-3.7-7.5 6.8 1a2.5 2.5 0 0 0 2.5 2.2 2.5 2.5 0 0 0 0-5 2.5 2.5 0 0 0-2.1 1.1l-7-1a1.7 1.7 0 0 0-1.7 2.5l3.7 7.5a2.3 2.3 0 0 0 2.5 1.2l2.4-.5a1.3 1.3 0 0 1 .8.2l1.8.9a1 1 0 0 1 .6 1.1l-.8 2a2.5 2.5 0 1 0 2.4 2.5 2.5 2.5 0 0 0-.9-1.9l.8-2zm-2.6-12a.9.9 0 1 1-.9 1 .9.9 0 0 1 .9-1zm.1 16.9a.9.9 0 1 1 .9-.9.9.9 0 0 1-.9.9zM31 131l-.3-.3a3.3 3.3 0 0 1-1.2-3.5l.6-2v-7.3l-4.5-9a2.5 2.5 0 0 0 .5-1.5 2.5 2.5 0 1 0-2.5 2.5 2.4 2.4 0 0 0 .5 0l4.3 8.4v6.7l-.5 1.8a4.9 4.9 0 0 0 1.8 5.3l.4.2 7.1 4.4-2 6.6a2.5 2.5 0 1 0 2.5 2.5 2.5 2.5 0 0 0-1-2l2.2-7 12.1-5.5a4.6 4.6 0 0 0 2.5-2.6l1.9-8.2a2.5 2.5 0 1 0-1.7 0l-1.8 7.7a3 3 0 0 1-1.5 1.6L38 135.3zm-7.4-22.7a.9.9 0 1 1 .9-1 .9.9 0 0 1-.9 1zM35 146.7a.9.9 0 1 1 .9-1 .9.9 0 0 1-.9 1zM53.5 118a.9.9 0 1 1 .9.9.9.9 0 0 1-.9-.9zm33.9-85.9a2.5 2.5 0 0 0 1-4.8l-.5-4.7a2.5 2.5 0 0 1 1-2.3l2.1-1.7a1 1 0 0 1 1-.1l6.5 1.9a2.5 2.5 0 0 0 2.4 2.2 2.5 2.5 0 1 0 0-5 2.5 2.5 0 0 0-2 1.2l-6.5-2a2.7 2.7 0 0 0-2.3.5l-2.3 1.8a4.2 4.2 0 0 0-1.5 3.7l.4 4.4a2.5 2.5 0 0 0-1.8 2.4 2.5 2.5 0 0 0 2.5 2.5zm13.5-12.9a.9.9 0 1 1-.9.9.9.9 0 0 1 1-.9zm-13.5 9.5a.9.9 0 1 1-.9 1 .9.9 0 0 1 .9-1zM59.5 0h-7.4a2.8 2.8 0 0 0-1.7.5l-5.7 4a1.4 1.4 0 0 1-.4.3l-9.8 2.9c-.7.2-1.1.4-4.2 5L19.1 26.4l-4.8 11.3-1 1.7L6 54a3 3 0 0 0 .3 3l.4.7a1 1 0 0 1 0 1.1l-3 3.6-.8 4.1v.1l-3 14V99a2.7 2.7 0 0 0 .4 1.5l1.5 2.2L0 111a2.8 2.8 0 0 0 .1 1.5l7 21.6a3.2 3.2 0 0 0 .8 1.3l1.5 1.4a1.9 1.9 0 0 1 .5 1.2l.1 1.6a3.3 3.3 0 0 0 .8 1.8l10.2 12 1.8 3.2 8.3 4.8 6.8.9h11l9.2-1.9a5.3 5.3 0 0 0 2.5-1.2l.6-.5a4.7 4.7 0 0 0 1.5-2.5l1.8-8a4.1 4.1 0 0 0 .5-1.8l.5-14.6V5.2L61.8 1a3 3 0 0 0-2.3-1zM64 41.4l-2.8-4.8a3.3 3.3 0 0 0-2.6-1l-3.1.2a2.5 2.5 0 1 0-2.3 3.5 2.5 2.5 0 0 0 2.4-1.9l3.1-.1a1.6 1.6 0 0 1 1.2.4l4.1 7v11.9l-3 3.8a2 2 0 0 1-2 .4L47 57v-.2a2.5 2.5 0 1 0-2.5 2.5 2.5 2.5 0 0 0 1.8-.8l12 4a3.7 3.7 0 0 0 1.2.2 3.7 3.7 0 0 0 2.7-1.1l1.7-2.2V82l-9.7 5.8a.9.9 0 0 1-.9 0l-8.5-7a2.5 2.5 0 0 0 .1-.8 2.5 2.5 0 1 0-2.5 2.5 2.4 2.4 0 0 0 1.3-.4l8.6 7a2.5 2.5 0 0 0 2.7.1l9-5.3v13.5l-3.7 4.1a2.3 2.3 0 0 0-.3 3 2.9 2.9 0 0 1 .5 1.5v.7a1.5 1.5 0 0 1-2 1.5l-6-2a2.5 2.5 0 0 0-2.4.6l-5 4.5a2.5 2.5 0 0 0-1.1-.3 2.5 2.5 0 1 0 2.3 1.5l4.9-4.5a.9.9 0 0 1 .8-.2l6 2a3.2 3.2 0 0 0 4.2-3v-.8a4.5 4.5 0 0 0-.8-2.5.6.6 0 0 1 0-.8l2.5-2.8v32l-.1 3.9-2.6.9a2.1 2.1 0 0 1-2.8-2.3l.5-5a2.5 2.5 0 0 0 1.9-2.3 2.5 2.5 0 1 0-3.6 2.3l-.4 4.9a3.8 3.8 0 0 0 5 4l2-.7-.4 8.8a2.5 2.5 0 0 1-.3 1.2l-.1.1-1.8 8.2a3 3 0 0 1-1 1.6l-.6.6a3.7 3.7 0 0 1-1.7.8l-9.1 1.8H38l-2-.2-.2-5.5a4.7 4.7 0 0 0-.8-2.8l-6.4-6.2a2.5 2.5 0 0 0 .3-1 2.5 2.5 0 1 0-2.5 2.5 2.5 2.5 0 0 0 1-.3l6.3 6a3 3 0 0 1 .5 1.8v5.2l-2.5-.3-7.7-4.4-1.6-2.9L12 140.4a1.6 1.6 0 0 1-.3-1l-.1-1.5a3.5 3.5 0 0 0-1-2.3l-1.5-1.4a1.5 1.5 0 0 1-.4-.6l-7-21.6a1.2 1.2 0 0 1 0-.6l.3-1.7 4 4.9a2.8 2.8 0 0 0 4.7.2l1.1-1.6a1.1 1.1 0 0 1 1-.5 1.1 1.1 0 0 1 1 .5l2.7 4.4 3.3 8.8a2.5 2.5 0 0 0-.6 1.6 2.5 2.5 0 1 0 2.5-2.5 2.4 2.4 0 0 0-.4 0L18 117l-2.9-4.6a2.8 2.8 0 0 0-2.3-1.2 2.8 2.8 0 0 0-2.4 1.2l-1 1.6a1.1 1.1 0 0 1-2-.1v-.1l-5-6 1-4.7 5.2-8 3 8.1a2.5 2.5 0 0 0-1 2 2.5 2.5 0 1 0 2.6-2.6l-3.2-9 5.7-2.5a2.5 2.5 0 0 0 2 1 2.5 2.5 0 1 0-2.6-2.6l-5.8 2.6a2.8 2.8 0 0 0-1.5 1.2l-5 7.9-1-1.5a1 1 0 0 1-.1-.6V81l2.6-12.3 4.6 7a2.5 2.5 0 0 0 3 .9l17.3-7.7a.7.7 0 0 1 1 .4l2 5.7a2.5 2.5 0 0 0-1 2 2.5 2.5 0 1 0 2.7-2.5l-2.2-5.8a2.3 2.3 0 0 0-3.1-1.3L11.3 75a.8.8 0 0 1-1-.3l-5.6-8.3.7-3.2L8 60a2.7 2.7 0 0 0 .1-3.2l-.4-.6a1.4 1.4 0 0 1 0-1.4l4.5-9.5 6.4 4-3.2 2.6a3.3 3.3 0 0 0-1 1.3L11 61.6a2.3 2.3 0 0 0 2 3.2 2.4 2.4 0 0 0 .4 0l5.2-1a2.5 2.5 0 0 0 2.1 1.3 2.5 2.5 0 0 0 0-5 2.5 2.5 0 0 0-2.4 2.2l-5.1.8a.6.6 0 0 1-.7-.8l3.5-8.4a1.7 1.7 0 0 1 .5-.7l8.8-7.3a1 1 0 0 1 1-.1l5 1.8a2.4 2.4 0 0 0 0 .2 2.5 2.5 0 1 0 .8-1.8l-5.2-1.8a2.7 2.7 0 0 0-2.6.5L20 48.2l-7-4.4 1.7-3.6 1-1.7 4.8-11.2 2.3-2.8 4.7 3.3a3 3 0 0 1 1.2 2A2.7 2.7 0 0 1 28 32v.2l-4.4 4.2a2.5 2.5 0 0 0-1-.2 2.5 2.5 0 1 0 2.6 2.5 2.4 2.4 0 0 0-.4-1.2l4.3-4.1.2-.2a4.4 4.4 0 0 0 1.1-3.5 4.6 4.6 0 0 0-2-3.3l-4.6-3.2 7.8-9.4v-.1c1.4-2 3-4.3 3.4-4.4l8.6-2.6 4.5 6a4.2 4.2 0 0 0 5.5 1l4.5-2.9a2.5 2.5 0 0 0 2 1 2.5 2.5 0 1 0-2.5-2.5l-4.8 3a2.5 2.5 0 0 1-3.4-.7l-4.2-5.5a3.1 3.1 0 0 0 .4-.2l5.8-4a1.2 1.2 0 0 1 .7-.2h7.4a1.4 1.4 0 0 1 1 .4L64 5.8zm-10-4.6a.9.9 0 1 1-.8-.9.9.9 0 0 1 .8 1zm-8.5 20a.9.9 0 1 1-.9-1 .9.9 0 0 1 .9 1zm-2.1 23.1a.9.9 0 1 1-.9-.9.9.9 0 0 1 .9.9zm1.6 33.5a.9.9 0 1 1-.9-.8.9.9 0 0 1 .9.8zm13.4 14.4a.9.9 0 1 1 .8-.8.9.9 0 0 1-.8.8zm-31 17a.9.9 0 1 1-.8-.8.9.9 0 0 1 .8.9zM21 128a.9.9 0 1 1 .9.9.9.9 0 0 1-.9-.9zm-8.5-23a.9.9 0 1 1 .9 1 .9.9 0 0 1-.9-1zm4.4-15.5a.9.9 0 1 1 .8.9.9.9 0 0 1-.8-.9zm16-12.6a.9.9 0 1 1 1 .9.9.9 0 0 1-1-.9zm-13-14.3a.9.9 0 1 1 1 .9.9.9 0 0 1-1-.9zM33 47.8a.9.9 0 1 1 .8.9.9.9 0 0 1-.8-.9zm-9.5-9a.9.9 0 1 1-.9-1 .9.9 0 0 1 .9 1zM59.2 9.2a.9.9 0 1 1 .9.9.9.9 0 0 1-.9-1zm-24 84.6a2.5 2.5 0 0 0 .5-1.4 2.5 2.5 0 1 0-2.5 2.5 2.4 2.4 0 0 0 .6-.1l3.2 4.6-4.4 3.7a.6.6 0 0 1-.8 0l-1.6-1.8a2.5 2.5 0 0 0 .3-1.2 2.5 2.5 0 1 0-2.6 2.6 2.5 2.5 0 0 0 1-.3l1.7 1.8a2.2 2.2 0 0 0 3.1.2l3.4-2.9-1 9.8a2.8 2.8 0 0 0 .7 2.1c3.3 3.8 5.7 6.7 6.6 8a2.5 2.5 0 0 0-.4 1.2 2.5 2.5 0 1 0 2.5-2.5 2.5 2.5 0 0 0-.8.2c-1.3-1.8-4.6-5.6-6.7-8a1.1 1.1 0 0 1-.3-.8L39 100l.3-.3 4.1-3.7a2.5 2.5 0 0 0 1.6.6 2.5 2.5 0 1 0-2.6-2.5 2.4 2.4 0 0 0 .1.5l-4.2 3.7zm-2-.6a.9.9 0 1 1 .9-.8.9.9 0 0 1-.9.8zm-5.3 7.8a.9.9 0 1 1 .9-.9.9.9 0 0 1-.9 1zm17.6 21a.9.9 0 1 1-.9.8.9.9 0 0 1 .9-.8zm-.7-28.6a.9.9 0 1 1-.8.9.9.9 0 0 1 .8-.9zm80.8-12.2a2.5 2.5 0 0 0-2.5 2.2l-2.3.5a1.5 1.5 0 0 1-1.1-.2l-7.6-5.3a2.3 2.3 0 0 0-3 .4l-5.3 6.3.5 11.8 4.5 3.2a2.5 2.5 0 0 0-.1.8 2.5 2.5 0 1 0 2.5-2.6 2.5 2.5 0 0 0-1.3.5l-4-2.8-.4-10.3 4.8-5.9a.6.6 0 0 1 .9 0l7.5 5.2a3.1 3.1 0 0 0 2.5.5l2.3-.5a2.5 2.5 0 0 0 2.1 1.2 2.5 2.5 0 1 0 0-5zM111.2 100a.9.9 0 1 1-.9.8.9.9 0 0 1 .9-.8zm14.4-15.4a.9.9 0 1 1 .9-1 .9.9 0 0 1-.9 1zM42.2 46.2l-6 9.5-7 1.4a1.4 1.4 0 0 1-1.3-.4l-2.5-2a2.5 2.5 0 0 0 .2-.6 2.5 2.5 0 1 0-2.5 2.5 2.5 2.5 0 0 0 1.4-.5l2.3 1.9a3.1 3.1 0 0 0 2 .8 3 3 0 0 0 .7 0l6.7-1.4 3.9 11.7a4.6 4.6 0 0 0 .7 1.3l.1.2L50 73a2.5 2.5 0 0 0 2.4 2 2.5 2.5 0 1 0 0-5 2.5 2.5 0 0 0-2.1 1.4l-8.4-2.2a3 3 0 0 1-.3-.7l-3.9-11.9 5.9-9.5a.8.8 0 0 1 1-.3l10.7 1.8a2.5 2.5 0 0 0 2.4 2.2 2.5 2.5 0 1 0 0-5 2.5 2.5 0 0 0-2 1.2L45 45.2a2.4 2.4 0 0 0-3 1zM23 55a.9.9 0 1 1 .8-.8.9.9 0 0 1-.8.8zm29.3 16.8a.9.9 0 1 1-.8.9.9.9 0 0 1 .8-.9zm5.3-24.3a.9.9 0 1 1-.8 1 .9.9 0 0 1 .8-1zm50.8 57.5a2.5 2.5 0 0 0-2.5 2.5 2.5 2.5 0 0 0 .6 1.5l-4.5 9v7.3l.5 2a3.3 3.3 0 0 1-1.2 3.5l-.3.2-7.2 4.4-12.1-5.5a3 3 0 0 1-1.5-1.6l-1.8-7.7a2.5 2.5 0 1 0-1.7 0l1.9 8.1v.1a4.6 4.6 0 0 0 2.4 2.6l12.2 5.6 2.1 7a2.5 2.5 0 0 0-.9 1.9 2.5 2.5 0 1 0 2.5-2.5l-2-6.7 7-4.3.4-.3a4.9 4.9 0 0 0 1.8-5.2l-.5-1.8v-6.7l4.3-8.5a2.4 2.4 0 0 0 .5.1 2.5 2.5 0 0 0 0-5zm-30.8 14a.9.9 0 1 1 .8-.8.9.9 0 0 1-.8.9zM97 145a.9.9 0 1 1-.8.9.9.9 0 0 1 .8-.9zm11.5-36.7a.9.9 0 1 1 .9-.8.9.9 0 0 1-.9.9zm-48.7-82a2.5 2.5 0 0 0-2.6 2.5l-4.6.9 1.4-4 .9-1.4a2.5 2.5 0 0 0 .7.1 2.5 2.5 0 1 0-2.5-2.5 2.5 2.5 0 0 0 .5 1.3L52.5 25l-2 5.4-8.5 8.2a1 1 0 0 1-1.5-.3l-1.2-2.9a2.5 2.5 0 0 0 .9-1.9 2.5 2.5 0 1 0-2.5 2.5l1.3 3a2.6 2.6 0 0 0 4.2.8l8.7-8.3 6-1a2.5 2.5 0 0 0 1.9.8 2.5 2.5 0 0 0 0-5zM55.6 21a.9.9 0 1 1-.8.9.9.9 0 0 1 .8-.9zm-18 13.4a.9.9 0 1 1 1-.9.9.9 0 0 1-1 .9zm22.2-4.7a.9.9 0 1 1 .8-.9.9.9 0 0 1-.8.9z"/>
</svg>
