<svg xmlns="http://www.w3.org/2000/svg" xmlns:xlink="http://www.w3.org/1999/xlink" width="667.604" height="162.559" viewBox="0 0 667.604 162.559">
  <defs>
    <linearGradient id="a" x1="66.03" x2="66.03" y2="162.288" gradientUnits="userSpaceOnUse">
      <stop offset="0" stop-color="#f7923d"/>
      <stop offset="0.18" stop-color="#f68e3d"/>
      <stop offset="0.367" stop-color="#f4813d"/>
      <stop offset="0.556" stop-color="#f06d3d"/>
      <stop offset="0.746" stop-color="#eb503c"/>
      <stop offset="0.937" stop-color="#e42b3c"/>
      <stop offset="1" stop-color="#e11d3c"/>
    </linearGradient>
  </defs>
  <title>nemo-logo</title>
  <g>
    <line x1="159.71" y1="3.428" x2="159.71" y2="162.354" fill="none" stroke="#d1d3d4" stroke-miterlimit="10"/>
    <g>
      <path d="M289.545,3.993V127.817h-9.314a7.4,7.4,0,0,1-3.578-.776,10.592,10.592,0,0,1-2.888-2.5L203.833,34.087q.173,2.328.3,4.57t.13,4.226v84.934H188.14V3.993h9.485a8.994,8.994,0,0,1,3.621.561A7.931,7.931,0,0,1,203.92,7.1l70.1,90.539q-.26-2.5-.388-4.872t-.129-4.44V3.993Z" fill="#25374a"/>
      <path d="M380.257,115.314a33.118,33.118,0,0,1-7.157,6.252,41.484,41.484,0,0,1-8.623,4.268,52.4,52.4,0,0,1-9.443,2.415,61.091,61.091,0,0,1-9.613.776,45.1,45.1,0,0,1-16.772-3.062A37.232,37.232,0,0,1,315.284,117a40.853,40.853,0,0,1-8.8-14.658A59.3,59.3,0,0,1,303.341,82.2a49.833,49.833,0,0,1,2.845-17.03,41.005,41.005,0,0,1,8.15-13.754,37.541,37.541,0,0,1,12.977-9.226,42.531,42.531,0,0,1,17.245-3.363,40.5,40.5,0,0,1,14.788,2.63,32.873,32.873,0,0,1,11.684,7.631,35.352,35.352,0,0,1,7.718,12.33,46.643,46.643,0,0,1,2.8,16.729q0,3.88-.862,5.217A3.508,3.508,0,0,1,377.5,84.7H320.069a47.283,47.283,0,0,0,2.243,13.668,27.576,27.576,0,0,0,5.474,9.7,21.743,21.743,0,0,0,8.322,5.778,29.245,29.245,0,0,0,10.778,1.9,32.372,32.372,0,0,0,9.7-1.293,47.025,47.025,0,0,0,7.071-2.8q2.976-1.507,5-2.8a6.908,6.908,0,0,1,3.579-1.294,3.7,3.7,0,0,1,3.191,1.553ZM366.374,74.269a28.741,28.741,0,0,0-1.423-9.226,20.968,20.968,0,0,0-4.182-7.329,19.042,19.042,0,0,0-6.725-4.829,22.764,22.764,0,0,0-9.142-1.724q-10.6,0-16.684,6.122T320.5,74.269Z" fill="#25374a"/>
      <path d="M525.206,3.993V127.817H509.167V39.692q0-1.983.129-4.225t.3-4.57l-41.216,75.622a7.034,7.034,0,0,1-6.64,4.225h-2.587a6.86,6.86,0,0,1-6.553-4.225L410.608,30.638a85,85,0,0,1,.518,9.054v88.125H395V3.993h13.624a11.7,11.7,0,0,1,3.751.475,5.35,5.35,0,0,1,2.543,2.63L456.31,81.254A51.976,51.976,0,0,1,458.551,86q1.035,2.5,1.984,5a82.843,82.843,0,0,1,4.224-9.83L505.374,7.1a5.008,5.008,0,0,1,2.457-2.63,11.692,11.692,0,0,1,3.751-.475Z" fill="#25374a"/>
      <path d="M665.5,65.905a70.711,70.711,0,0,1-4.441,25.481,58.7,58.7,0,0,1-12.546,20.005,56.535,56.535,0,0,1-19.4,13.064,69.83,69.83,0,0,1-50.143,0,55.98,55.98,0,0,1-19.4-13.064,59.535,59.535,0,0,1-12.545-20.005,70.077,70.077,0,0,1-4.484-25.481,70.184,70.184,0,0,1,4.484-25.437A59.44,59.44,0,0,1,559.567,20.42a56.472,56.472,0,0,1,19.4-13.107,69.234,69.234,0,0,1,50.143,0,57.038,57.038,0,0,1,19.4,13.107,58.614,58.614,0,0,1,12.546,20.048A70.819,70.819,0,0,1,665.5,65.905Zm-18.8,0a60.921,60.921,0,0,0-3.018-19.832,42.284,42.284,0,0,0-8.58-14.918,37.192,37.192,0,0,0-13.451-9.4,49.084,49.084,0,0,0-35.268,0,37.586,37.586,0,0,0-13.494,9.4,41.912,41.912,0,0,0-8.623,14.918,60.867,60.867,0,0,0-3.019,19.832,60.761,60.761,0,0,0,3.019,19.876,41.95,41.95,0,0,0,8.623,14.874,37.1,37.1,0,0,0,13.494,9.356,49.693,49.693,0,0,0,35.268,0,36.717,36.717,0,0,0,13.451-9.356,42.323,42.323,0,0,0,8.58-14.874A60.815,60.815,0,0,0,646.7,65.905Z" fill="#25374a"/>
    </g>
    <g>
      <path d="M200.4,146.308h-5.818v16.047h-2.7V146.308h-5.843v-2.271H200.4Z" fill="#25374a"/>
      <path d="M204.8,151.04a7.037,7.037,0,0,1,1.805-1.339,4.893,4.893,0,0,1,2.276-.51,4.629,4.629,0,0,1,1.882.357,3.743,3.743,0,0,1,1.359,1,4.355,4.355,0,0,1,.828,1.55,6.72,6.72,0,0,1,.281,2v8.253h-2.5V154.1a3.3,3.3,0,0,0-.638-2.163,2.387,2.387,0,0,0-1.951-.771,3.7,3.7,0,0,0-1.793.453,5.994,5.994,0,0,0-1.549,1.23v9.5h-2.488V143.527H204.8Z" fill="#25374a"/>
      <path d="M227.226,160.505a4.907,4.907,0,0,1-1.059.925,6.136,6.136,0,0,1-1.276.631,7.727,7.727,0,0,1-1.4.358,9.092,9.092,0,0,1-1.422.114,6.667,6.667,0,0,1-2.482-.453,5.509,5.509,0,0,1-1.977-1.326,6.064,6.064,0,0,1-1.3-2.168,8.823,8.823,0,0,1-.465-2.979,7.382,7.382,0,0,1,.421-2.519,6.085,6.085,0,0,1,1.205-2.035,5.575,5.575,0,0,1,1.92-1.365,6.3,6.3,0,0,1,2.552-.5,6,6,0,0,1,2.187.389,4.849,4.849,0,0,1,1.729,1.129A5.226,5.226,0,0,1,227,152.533a6.9,6.9,0,0,1,.414,2.474,1.566,1.566,0,0,1-.128.772.516.516,0,0,1-.471.2h-8.5a7.039,7.039,0,0,0,.331,2.022,4.085,4.085,0,0,0,.811,1.434,3.206,3.206,0,0,0,1.231.855,4.325,4.325,0,0,0,1.594.281,4.805,4.805,0,0,0,1.435-.191,6.965,6.965,0,0,0,1.046-.415c.294-.149.54-.287.74-.415a1.025,1.025,0,0,1,.529-.191.545.545,0,0,1,.472.23Zm-2.054-6.072a4.227,4.227,0,0,0-.211-1.364,3.081,3.081,0,0,0-.619-1.085,2.8,2.8,0,0,0-.994-.714,3.37,3.37,0,0,0-1.353-.255,3.322,3.322,0,0,0-2.467.905,4.384,4.384,0,0,0-1.142,2.513Z" fill="#25374a"/>
      <path d="M252.048,144.037v18.318h-1.377a1.094,1.094,0,0,1-.53-.115,1.574,1.574,0,0,1-.427-.37l-10.346-13.381c.017.229.032.455.046.676s.019.429.019.625v12.565h-2.386V144.037h1.4a1.329,1.329,0,0,1,.535.083,1.174,1.174,0,0,1,.4.376l10.371,13.394q-.038-.37-.057-.721t-.019-.656V144.037Z" fill="#25374a"/>
      <path d="M266.309,160.505a4.926,4.926,0,0,1-1.058.925,6.168,6.168,0,0,1-1.277.631,7.727,7.727,0,0,1-1.4.358,9.092,9.092,0,0,1-1.422.114,6.671,6.671,0,0,1-2.482-.453,5.509,5.509,0,0,1-1.977-1.326,6.062,6.062,0,0,1-1.3-2.168,8.8,8.8,0,0,1-.465-2.979,7.382,7.382,0,0,1,.42-2.519,6.087,6.087,0,0,1,1.206-2.035,5.566,5.566,0,0,1,1.92-1.365,6.3,6.3,0,0,1,2.551-.5,5.992,5.992,0,0,1,2.187.389,4.84,4.84,0,0,1,1.729,1.129,5.226,5.226,0,0,1,1.142,1.824,6.9,6.9,0,0,1,.414,2.474,1.566,1.566,0,0,1-.128.772.516.516,0,0,1-.471.2h-8.5a6.971,6.971,0,0,0,.331,2.022,4.068,4.068,0,0,0,.81,1.434,3.206,3.206,0,0,0,1.231.855,4.329,4.329,0,0,0,1.594.281,4.805,4.805,0,0,0,1.435-.191,6.965,6.965,0,0,0,1.046-.415c.294-.149.54-.287.74-.415a1.025,1.025,0,0,1,.53-.191.543.543,0,0,1,.471.23Zm-2.053-6.072a4.227,4.227,0,0,0-.212-1.364,3.079,3.079,0,0,0-.618-1.085,2.813,2.813,0,0,0-1-.714,3.365,3.365,0,0,0-1.352-.255,3.323,3.323,0,0,0-2.468.905,4.384,4.384,0,0,0-1.142,2.513Z" fill="#25374a"/>
      <path d="M279.958,149.4v12.96h-1.493a.636.636,0,0,1-.662-.5l-.179-1.3a8.621,8.621,0,0,1-.881.816,5.367,5.367,0,0,1-2.091,1.04,5.186,5.186,0,0,1-1.264.147,4.606,4.606,0,0,1-1.88-.358,3.712,3.712,0,0,1-1.359-1,4.311,4.311,0,0,1-.829-1.55,6.745,6.745,0,0,1-.281-2V149.4h2.5v8.253a3.3,3.3,0,0,0,.638,2.162,2.385,2.385,0,0,0,1.952.772,3.666,3.666,0,0,0,1.785-.453,6.1,6.1,0,0,0,1.557-1.244V149.4Z" fill="#25374a"/>
      <path d="M285.787,151.882a5.939,5.939,0,0,1,1.5-2,3.434,3.434,0,0,1,2.914-.631,2.052,2.052,0,0,1,.658.287l-.166,1.875a.4.4,0,0,1-.421.344,3.036,3.036,0,0,1-.536-.07,4.028,4.028,0,0,0-.765-.07,2.977,2.977,0,0,0-1.059.173,2.474,2.474,0,0,0-.823.51,3.481,3.481,0,0,0-.644.829,8.137,8.137,0,0,0-.522,1.116v8.113H283.44V149.4h1.428a.789.789,0,0,1,.555.147.963.963,0,0,1,.211.516Z" fill="#25374a"/>
      <path d="M297.828,149.191a6.854,6.854,0,0,1,2.583.465A5.406,5.406,0,0,1,302.376,151a5.977,5.977,0,0,1,1.243,2.1,9.005,9.005,0,0,1,0,5.53,5.89,5.89,0,0,1-1.243,2.105,5.442,5.442,0,0,1-1.965,1.333,7.44,7.44,0,0,1-5.178,0,5.482,5.482,0,0,1-1.971-1.333,5.931,5.931,0,0,1-1.257-2.105,8.908,8.908,0,0,1,0-5.53,6.021,6.021,0,0,1,1.257-2.1,5.446,5.446,0,0,1,1.971-1.339A6.888,6.888,0,0,1,297.828,149.191Zm0,11.4a3.176,3.176,0,0,0,2.743-1.237,7.158,7.158,0,0,0,0-6.971,3.171,3.171,0,0,0-2.743-1.244,3.215,3.215,0,0,0-2.774,1.244,7.116,7.116,0,0,0,0,6.971A3.221,3.221,0,0,0,297.828,160.594Z" fill="#25374a"/>
      <path d="M314.461,151.627a.7.7,0,0,1-.216.236.557.557,0,0,1-.294.07.931.931,0,0,1-.453-.14q-.249-.141-.6-.307a6.03,6.03,0,0,0-.823-.306,3.99,3.99,0,0,0-1.123-.14,3.341,3.341,0,0,0-.975.134,2.31,2.31,0,0,0-.747.37,1.657,1.657,0,0,0-.471.561,1.506,1.506,0,0,0-.166.7,1.155,1.155,0,0,0,.286.8,2.445,2.445,0,0,0,.753.549,7.36,7.36,0,0,0,1.059.414q.594.186,1.212.389t1.212.466a4.417,4.417,0,0,1,1.058.65,3.06,3.06,0,0,1,.753.938,2.862,2.862,0,0,1,.287,1.339,4.294,4.294,0,0,1-.325,1.678,3.675,3.675,0,0,1-.957,1.333,4.536,4.536,0,0,1-1.563.88,6.579,6.579,0,0,1-2.13.319,6.709,6.709,0,0,1-2.474-.446,6.209,6.209,0,0,1-1.9-1.136l.586-.957a.682.682,0,0,1,.663-.37.871.871,0,0,1,.5.179q.256.178.613.389a4.588,4.588,0,0,0,.866.383,4.073,4.073,0,0,0,1.277.172,3.457,3.457,0,0,0,1.11-.16,2.28,2.28,0,0,0,.784-.433,1.741,1.741,0,0,0,.465-.632,1.888,1.888,0,0,0,.154-.752,1.266,1.266,0,0,0-.288-.849,2.464,2.464,0,0,0-.753-.58,6.049,6.049,0,0,0-1.064-.421q-.6-.179-1.225-.383a12.264,12.264,0,0,1-1.224-.472,4.159,4.159,0,0,1-1.066-.676,3.1,3.1,0,0,1-.752-1,3.214,3.214,0,0,1-.287-1.428,3.459,3.459,0,0,1,.312-1.442,3.576,3.576,0,0,1,.906-1.211,4.464,4.464,0,0,1,1.466-.836,5.927,5.927,0,0,1,2-.312,6.324,6.324,0,0,1,2.327.408,5.345,5.345,0,0,1,1.78,1.122Z" fill="#25374a"/>
      <path d="M326.988,151.818a1.347,1.347,0,0,1-.223.224.51.51,0,0,1-.313.083.74.74,0,0,1-.427-.16,5.6,5.6,0,0,0-.562-.344,5.043,5.043,0,0,0-.816-.345,4.257,4.257,0,0,0-2.8.172,3.12,3.12,0,0,0-1.168.945,4.333,4.333,0,0,0-.708,1.492,7.475,7.475,0,0,0-.242,1.977,7.286,7.286,0,0,0,.255,2.022,4.356,4.356,0,0,0,.727,1.492,3.091,3.091,0,0,0,1.148.919,3.554,3.554,0,0,0,1.506.312,3.79,3.79,0,0,0,1.326-.2,4.305,4.305,0,0,0,.868-.427,6.081,6.081,0,0,0,.574-.427.716.716,0,0,1,.471-.2.548.548,0,0,1,.473.23l.714.918a4.809,4.809,0,0,1-1,.931,5.677,5.677,0,0,1-1.18.625,6.65,6.65,0,0,1-1.307.358,8.383,8.383,0,0,1-1.384.114,5.744,5.744,0,0,1-2.264-.446,5.123,5.123,0,0,1-1.824-1.3,6.238,6.238,0,0,1-1.219-2.1,8.351,8.351,0,0,1-.446-2.826,8.5,8.5,0,0,1,.4-2.666,5.952,5.952,0,0,1,1.186-2.111,5.5,5.5,0,0,1,1.933-1.391,6.493,6.493,0,0,1,2.627-.5,6.281,6.281,0,0,1,2.45.446,5.99,5.99,0,0,1,1.887,1.263Z" fill="#25374a"/>
      <path d="M333.187,145.389a1.593,1.593,0,0,1-.141.657,1.842,1.842,0,0,1-.376.549,1.711,1.711,0,0,1-.555.369,1.687,1.687,0,0,1-.663.135,1.6,1.6,0,0,1-.651-.135,1.744,1.744,0,0,1-.912-.918,1.636,1.636,0,0,1-.134-.657,1.666,1.666,0,0,1,.134-.669,1.751,1.751,0,0,1,.912-.919,1.611,1.611,0,0,1,.651-.134,1.7,1.7,0,0,1,.663.134,1.73,1.73,0,0,1,.555.37,1.855,1.855,0,0,1,.376.549A1.621,1.621,0,0,1,333.187,145.389Zm-.473,4.006v12.96h-2.488V149.4Z" fill="#25374a"/>
      <path d="M346.963,160.505a4.9,4.9,0,0,1-1.058.925,6.185,6.185,0,0,1-1.276.631,7.759,7.759,0,0,1-1.4.358,9.092,9.092,0,0,1-1.422.114,6.666,6.666,0,0,1-2.481-.453,5.512,5.512,0,0,1-1.978-1.326,6.062,6.062,0,0,1-1.3-2.168,8.8,8.8,0,0,1-.465-2.979,7.358,7.358,0,0,1,.421-2.519,6.085,6.085,0,0,1,1.205-2.035,5.566,5.566,0,0,1,1.92-1.365,6.3,6.3,0,0,1,2.551-.5,6,6,0,0,1,2.188.389,4.845,4.845,0,0,1,1.728,1.129,5.226,5.226,0,0,1,1.142,1.824,6.9,6.9,0,0,1,.414,2.474,1.581,1.581,0,0,1-.127.772.519.519,0,0,1-.472.2h-8.5a6.971,6.971,0,0,0,.331,2.022,4.054,4.054,0,0,0,.811,1.434,3.2,3.2,0,0,0,1.23.855,4.331,4.331,0,0,0,1.595.281,4.793,4.793,0,0,0,1.434-.191,6.965,6.965,0,0,0,1.046-.415c.294-.149.54-.287.74-.415a1.028,1.028,0,0,1,.53-.191.543.543,0,0,1,.471.23Zm-2.053-6.072a4.227,4.227,0,0,0-.212-1.364,3.064,3.064,0,0,0-.618-1.085,2.813,2.813,0,0,0-1-.714,3.365,3.365,0,0,0-1.352-.255,3.325,3.325,0,0,0-2.468.905,4.39,4.39,0,0,0-1.142,2.513Z" fill="#25374a"/>
      <path d="M352.167,151.193a8.844,8.844,0,0,1,.88-.816,5.474,5.474,0,0,1,.976-.631,5.131,5.131,0,0,1,1.11-.408,5.255,5.255,0,0,1,1.268-.147,4.629,4.629,0,0,1,1.882.357,3.735,3.735,0,0,1,1.359,1,4.341,4.341,0,0,1,.829,1.55,6.753,6.753,0,0,1,.28,2v8.253h-2.5V154.1a3.3,3.3,0,0,0-.639-2.163,2.385,2.385,0,0,0-1.951-.771,3.705,3.705,0,0,0-1.793.453,5.994,5.994,0,0,0-1.549,1.23v9.5h-2.487V149.4h1.491a.609.609,0,0,1,.652.5Z" fill="#25374a"/>
      <path d="M373.189,151.818a1.347,1.347,0,0,1-.223.224.51.51,0,0,1-.313.083.738.738,0,0,1-.427-.16,5.713,5.713,0,0,0-.562-.344,5.082,5.082,0,0,0-.816-.345,4.26,4.26,0,0,0-2.8.172,3.125,3.125,0,0,0-1.167.945,4.333,4.333,0,0,0-.708,1.492,7.475,7.475,0,0,0-.242,1.977,7.326,7.326,0,0,0,.254,2.022,4.375,4.375,0,0,0,.728,1.492,3.091,3.091,0,0,0,1.148.919,3.55,3.55,0,0,0,1.506.312,3.78,3.78,0,0,0,1.325-.2,4.279,4.279,0,0,0,.868-.427,5.98,5.98,0,0,0,.575-.427.714.714,0,0,1,.471-.2.548.548,0,0,1,.473.23l.713.918a4.779,4.779,0,0,1-1,.931,5.677,5.677,0,0,1-1.18.625,6.641,6.641,0,0,1-1.308.358,8.365,8.365,0,0,1-1.384.114,5.743,5.743,0,0,1-2.263-.446,5.123,5.123,0,0,1-1.824-1.3,6.238,6.238,0,0,1-1.219-2.1,8.351,8.351,0,0,1-.446-2.826,8.53,8.53,0,0,1,.4-2.666,5.954,5.954,0,0,1,1.187-2.111,5.5,5.5,0,0,1,1.932-1.391,6.5,6.5,0,0,1,2.628-.5,6.273,6.273,0,0,1,2.449.446,5.983,5.983,0,0,1,1.888,1.263Z" fill="#25374a"/>
      <path d="M386.723,160.505a4.926,4.926,0,0,1-1.058.925,6.185,6.185,0,0,1-1.276.631,7.759,7.759,0,0,1-1.4.358,9.092,9.092,0,0,1-1.422.114,6.671,6.671,0,0,1-2.482-.453,5.509,5.509,0,0,1-1.977-1.326,6.062,6.062,0,0,1-1.3-2.168,8.8,8.8,0,0,1-.465-2.979,7.382,7.382,0,0,1,.42-2.519,6.087,6.087,0,0,1,1.206-2.035,5.566,5.566,0,0,1,1.92-1.365,6.3,6.3,0,0,1,2.551-.5,5.992,5.992,0,0,1,2.187.389,4.84,4.84,0,0,1,1.729,1.129,5.226,5.226,0,0,1,1.142,1.824,6.9,6.9,0,0,1,.414,2.474,1.566,1.566,0,0,1-.128.772.516.516,0,0,1-.471.2h-8.5a6.971,6.971,0,0,0,.331,2.022,4.054,4.054,0,0,0,.811,1.434,3.2,3.2,0,0,0,1.23.855,4.331,4.331,0,0,0,1.595.281,4.8,4.8,0,0,0,1.434-.191,6.965,6.965,0,0,0,1.046-.415c.294-.149.54-.287.74-.415a1.025,1.025,0,0,1,.53-.191.543.543,0,0,1,.471.23Zm-2.053-6.072a4.227,4.227,0,0,0-.212-1.364,3.064,3.064,0,0,0-.618-1.085,2.813,2.813,0,0,0-.995-.714,3.365,3.365,0,0,0-1.352-.255,3.323,3.323,0,0,0-2.468.905,4.384,4.384,0,0,0-1.142,2.513Z" fill="#25374a"/>
      <path d="M415.805,144.037v18.318h-2.372V149.318q0-.293.019-.625c.014-.221.027-.446.045-.676L407.4,159.2a1.039,1.039,0,0,1-.982.625h-.383a1.013,1.013,0,0,1-.969-.625l-6.213-11.225a12.61,12.61,0,0,1,.077,1.339v13.037h-2.386V144.037h2.016a1.751,1.751,0,0,1,.555.07.8.8,0,0,1,.376.389l6.123,10.971a7.436,7.436,0,0,1,.331.7c.1.247.2.493.294.74a12.358,12.358,0,0,1,.625-1.454l6.009-10.958a.745.745,0,0,1,.362-.389,1.751,1.751,0,0,1,.555-.07Z" fill="#25374a"/>
      <path d="M430.374,149.4v12.96h-1.493a.636.636,0,0,1-.663-.5l-.179-1.3a8.621,8.621,0,0,1-.881.816,5.367,5.367,0,0,1-2.091,1.04,5.183,5.183,0,0,1-1.263.147,4.608,4.608,0,0,1-1.881-.358,3.72,3.72,0,0,1-1.359-1,4.311,4.311,0,0,1-.829-1.55,6.745,6.745,0,0,1-.281-2V149.4h2.5v8.253a3.3,3.3,0,0,0,.637,2.162,2.385,2.385,0,0,0,1.952.772,3.67,3.67,0,0,0,1.786-.453,6.08,6.08,0,0,0,1.556-1.244V149.4Z" fill="#25374a"/>
      <path d="M436.406,143.527v18.828h-2.5V143.527Z" fill="#25374a"/>
      <path d="M452.236,162.355h-2.5V151.41h-6.506V159a1.553,1.553,0,0,0,.375,1.141,1.307,1.307,0,0,0,.964.377,1.741,1.741,0,0,0,.593-.09,2.35,2.35,0,0,0,.428-.2c.118-.072.221-.138.306-.2a.413.413,0,0,1,.229-.089.305.305,0,0,1,.2.057.728.728,0,0,1,.147.185l.74,1.2a4.3,4.3,0,0,1-1.455.868,5.067,5.067,0,0,1-1.747.306,3.206,3.206,0,0,1-2.418-.88,3.48,3.48,0,0,1-.848-2.513V151.41h-1.5a.484.484,0,0,1-.51-.536v-1.007l2.117-.294.549-3.865a.6.6,0,0,1,.2-.338.578.578,0,0,1,.377-.121h1.263v4.35h9Zm.561-17.042a1.583,1.583,0,0,1-.14.657,1.819,1.819,0,0,1-.376.548,1.74,1.74,0,0,1-1.219.5,1.593,1.593,0,0,1-.65-.134,1.753,1.753,0,0,1-.912-.918,1.659,1.659,0,0,1-.133-.657,1.731,1.731,0,0,1,.133-.676,1.708,1.708,0,0,1,.37-.555,1.752,1.752,0,0,1,.542-.37,1.609,1.609,0,0,1,.65-.134,1.74,1.74,0,0,1,1.219.5,1.791,1.791,0,0,1,.376.555A1.651,1.651,0,0,1,452.8,145.313Z" fill="#25374a"/>
      <path d="M455.654,153.63h6.378v2.117h-6.378Z" fill="#25374a"/>
      <path d="M470.859,149.191a6.861,6.861,0,0,1,2.583.465A5.4,5.4,0,0,1,475.406,151a5.962,5.962,0,0,1,1.243,2.1,9.005,9.005,0,0,1,0,5.53,5.875,5.875,0,0,1-1.243,2.105,5.438,5.438,0,0,1-1.964,1.333,7.443,7.443,0,0,1-5.179,0,5.491,5.491,0,0,1-1.971-1.333,5.931,5.931,0,0,1-1.257-2.105,8.927,8.927,0,0,1,0-5.53,6.021,6.021,0,0,1,1.257-2.1,5.455,5.455,0,0,1,1.971-1.339A6.9,6.9,0,0,1,470.859,149.191Zm0,11.4a3.175,3.175,0,0,0,2.742-1.237,7.158,7.158,0,0,0,0-6.971,3.169,3.169,0,0,0-2.742-1.244,3.214,3.214,0,0,0-2.774,1.244,7.11,7.11,0,0,0,0,6.971A3.22,3.22,0,0,0,470.859,160.594Z" fill="#25374a"/>
      <path d="M479.852,162.355V149.4h1.492a.608.608,0,0,1,.651.5l.179,1.238a6.613,6.613,0,0,1,1.588-1.4,3.794,3.794,0,0,1,2.047-.542,3.055,3.055,0,0,1,2.092.707,4.086,4.086,0,0,1,1.174,1.92,4.052,4.052,0,0,1,.726-1.186,4.118,4.118,0,0,1,1-.817,4.43,4.43,0,0,1,1.166-.471,5.223,5.223,0,0,1,1.257-.153,4.912,4.912,0,0,1,1.843.325,3.641,3.641,0,0,1,1.371.95,4.194,4.194,0,0,1,.856,1.544,6.916,6.916,0,0,1,.292,2.092v8.253h-2.5V154.1a3.3,3.3,0,0,0-.631-2.194,2.289,2.289,0,0,0-1.843-.74,2.838,2.838,0,0,0-1.02.185,2.335,2.335,0,0,0-.849.555,2.647,2.647,0,0,0-.574.918,3.558,3.558,0,0,0-.211,1.276v8.253h-2.5V154.1a3.409,3.409,0,0,0-.6-2.22,2.166,2.166,0,0,0-1.759-.714,2.808,2.808,0,0,0-1.493.421,4.785,4.785,0,0,0-1.262,1.148v9.618Z" fill="#25374a"/>
      <path d="M504.012,145.389a1.593,1.593,0,0,1-.141.657,1.842,1.842,0,0,1-.376.549,1.711,1.711,0,0,1-.555.369,1.687,1.687,0,0,1-.663.135,1.6,1.6,0,0,1-.652-.135,1.747,1.747,0,0,1-.911-.918,1.636,1.636,0,0,1-.134-.657,1.666,1.666,0,0,1,.134-.669,1.753,1.753,0,0,1,.911-.919,1.619,1.619,0,0,1,.652-.134,1.7,1.7,0,0,1,.663.134,1.73,1.73,0,0,1,.555.37,1.855,1.855,0,0,1,.376.549A1.621,1.621,0,0,1,504.012,145.389Zm-.473,4.006v12.96h-2.488V149.4Z" fill="#25374a"/>
      <path d="M516.232,151.818a1.347,1.347,0,0,1-.223.224.51.51,0,0,1-.313.083.738.738,0,0,1-.427-.16,5.834,5.834,0,0,0-.562-.344,5.082,5.082,0,0,0-.816-.345,4.26,4.26,0,0,0-2.8.172,3.125,3.125,0,0,0-1.167.945,4.315,4.315,0,0,0-.708,1.492,7.475,7.475,0,0,0-.242,1.977,7.326,7.326,0,0,0,.254,2.022,4.375,4.375,0,0,0,.728,1.492,3.091,3.091,0,0,0,1.148.919,3.55,3.55,0,0,0,1.506.312,3.784,3.784,0,0,0,1.325-.2,4.279,4.279,0,0,0,.868-.427,5.831,5.831,0,0,0,.574-.427.718.718,0,0,1,.472-.2.548.548,0,0,1,.473.23l.713.918a4.779,4.779,0,0,1-1,.931,5.677,5.677,0,0,1-1.18.625,6.641,6.641,0,0,1-1.308.358,8.365,8.365,0,0,1-1.384.114,5.743,5.743,0,0,1-2.263-.446,5.123,5.123,0,0,1-1.824-1.3,6.238,6.238,0,0,1-1.219-2.1,8.351,8.351,0,0,1-.446-2.826,8.53,8.53,0,0,1,.4-2.666A5.954,5.954,0,0,1,508,151.085a5.5,5.5,0,0,1,1.932-1.391,6.5,6.5,0,0,1,2.628-.5,6.273,6.273,0,0,1,2.449.446A5.983,5.983,0,0,1,516.9,150.9Z" fill="#25374a"/>
      <path d="M542.291,153.2a10.188,10.188,0,0,1-.657,3.738,8.172,8.172,0,0,1-4.726,4.757,9.962,9.962,0,0,1-3.711.664h-6.889V144.037H533.2a9.982,9.982,0,0,1,3.711.663,8.163,8.163,0,0,1,4.726,4.765A10.2,10.2,0,0,1,542.291,153.2Zm-2.78,0a8.949,8.949,0,0,0-.447-2.928,6.177,6.177,0,0,0-1.269-2.193,5.409,5.409,0,0,0-1.99-1.372,6.914,6.914,0,0,0-2.608-.472h-4.16v13.93h4.16a6.914,6.914,0,0,0,2.608-.472,5.409,5.409,0,0,0,1.99-1.372,6.176,6.176,0,0,0,1.269-2.187A8.927,8.927,0,0,0,539.511,153.2Z" fill="#25374a"/>
      <path d="M544.536,151.206a7.121,7.121,0,0,1,5.141-2.053,4.986,4.986,0,0,1,1.964.363,4.032,4.032,0,0,1,1.442,1.014,4.326,4.326,0,0,1,.886,1.556,6.345,6.345,0,0,1,.3,2v8.266h-1.11a1.058,1.058,0,0,1-.561-.121.837.837,0,0,1-.306-.453l-.268-1.135a10.406,10.406,0,0,1-.983.809,6.232,6.232,0,0,1-1.013.6,5.19,5.19,0,0,1-1.13.376,6.372,6.372,0,0,1-1.325.128,4.776,4.776,0,0,1-1.436-.211,3.226,3.226,0,0,1-1.167-.644,3.045,3.045,0,0,1-.785-1.084,3.741,3.741,0,0,1-.286-1.518,2.878,2.878,0,0,1,.414-1.473,3.741,3.741,0,0,1,1.352-1.27,8.691,8.691,0,0,1,2.449-.918,18.334,18.334,0,0,1,3.718-.408v-.944a3.294,3.294,0,0,0-.625-2.194,2.285,2.285,0,0,0-1.836-.727,4,4,0,0,0-1.371.2,5.246,5.246,0,0,0-.957.453c-.268.166-.5.316-.7.453a1.086,1.086,0,0,1-.619.2.7.7,0,0,1-.44-.141,1.179,1.179,0,0,1-.3-.331Zm7.3,5.4a19.019,19.019,0,0,0-2.576.236,7.083,7.083,0,0,0-1.723.491,2.339,2.339,0,0,0-.955.72,1.558,1.558,0,0,0-.294.926,2.01,2.01,0,0,0,.159.835,1.552,1.552,0,0,0,.434.574,1.733,1.733,0,0,0,.644.325,3.018,3.018,0,0,0,.8.1,4.488,4.488,0,0,0,1.053-.115,4.161,4.161,0,0,0,.9-.325,4.492,4.492,0,0,0,.8-.516,7.165,7.165,0,0,0,.752-.7Z" fill="#25374a"/>
      <path d="M561.5,162.559a3.2,3.2,0,0,1-2.418-.88,3.48,3.48,0,0,1-.848-2.513V151.41h-1.5a.484.484,0,0,1-.51-.536v-1.007l2.1-.294.561-3.865a.608.608,0,0,1,.2-.338.576.576,0,0,1,.377-.121h1.263v4.35H564.4v1.811h-3.673V159a1.553,1.553,0,0,0,.375,1.141,1.306,1.306,0,0,0,.963.377,1.743,1.743,0,0,0,.594-.09,2.382,2.382,0,0,0,.428-.2c.118-.072.221-.138.305-.2a.419.419,0,0,1,.23-.089.307.307,0,0,1,.2.057.707.707,0,0,1,.146.185l.741,1.2a4.314,4.314,0,0,1-1.455.868A5.071,5.071,0,0,1,561.5,162.559Z" fill="#25374a"/>
      <path d="M566.349,151.206a7.116,7.116,0,0,1,5.14-2.053,4.991,4.991,0,0,1,1.965.363,4.04,4.04,0,0,1,1.442,1.014,4.326,4.326,0,0,1,.886,1.556,6.345,6.345,0,0,1,.3,2v8.266h-1.11a1.059,1.059,0,0,1-.562-.121.842.842,0,0,1-.3-.453l-.269-1.135a10.4,10.4,0,0,1-.982.809,6.241,6.241,0,0,1-1.014.6,5.164,5.164,0,0,1-1.129.376,6.389,6.389,0,0,1-1.326.128,4.785,4.785,0,0,1-1.436-.211,3.226,3.226,0,0,1-1.167-.644A3.043,3.043,0,0,1,566,160.62a3.724,3.724,0,0,1-.287-1.518,2.88,2.88,0,0,1,.415-1.473,3.741,3.741,0,0,1,1.352-1.27,8.691,8.691,0,0,1,2.449-.918,18.317,18.317,0,0,1,3.718-.408v-.944a3.294,3.294,0,0,0-.625-2.194,2.287,2.287,0,0,0-1.836-.727,4,4,0,0,0-1.372.2,5.278,5.278,0,0,0-.957.453c-.267.166-.5.316-.7.453a1.083,1.083,0,0,1-.618.2.7.7,0,0,1-.44-.141,1.164,1.164,0,0,1-.3-.331Zm7.3,5.4a19.051,19.051,0,0,0-2.577.236,7.087,7.087,0,0,0-1.722.491,2.35,2.35,0,0,0-.956.72,1.565,1.565,0,0,0-.294.926,1.994,1.994,0,0,0,.16.835,1.561,1.561,0,0,0,.433.574,1.741,1.741,0,0,0,.644.325,3.026,3.026,0,0,0,.8.1,4.488,4.488,0,0,0,1.053-.115,4.2,4.2,0,0,0,.9-.325,4.485,4.485,0,0,0,.8-.516,7.074,7.074,0,0,0,.753-.7Z" fill="#25374a"/>
      <path d="M600.623,162.355h-2.091a.927.927,0,0,1-.587-.179,1,1,0,0,1-.332-.459l-1.619-4.248h-8.075l-1.621,4.248a1.037,1.037,0,0,1-.331.44.9.9,0,0,1-.586.2h-2.093l7.3-18.318h2.742Zm-5.369-6.824-2.718-7.106a15.9,15.9,0,0,1-.586-1.836c-.093.365-.19.705-.287,1.02s-.193.595-.288.842l-2.7,7.08Z" fill="#25374a"/>
      <path d="M604.693,151.882a5.937,5.937,0,0,1,1.5-2,3.437,3.437,0,0,1,2.915-.631,2.052,2.052,0,0,1,.658.287l-.166,1.875a.4.4,0,0,1-.421.344,3.036,3.036,0,0,1-.536-.07,4.036,4.036,0,0,0-.765-.07,2.977,2.977,0,0,0-1.059.173,2.474,2.474,0,0,0-.823.51,3.481,3.481,0,0,0-.644.829,8.255,8.255,0,0,0-.523,1.116v8.113h-2.487V149.4h1.428a.789.789,0,0,1,.555.147.97.97,0,0,1,.211.516Z" fill="#25374a"/>
      <path d="M620.293,151.818a1.347,1.347,0,0,1-.223.224.51.51,0,0,1-.313.083.74.74,0,0,1-.427-.16,5.6,5.6,0,0,0-.562-.344,5.082,5.082,0,0,0-.816-.345,4.26,4.26,0,0,0-2.8.172,3.125,3.125,0,0,0-1.167.945,4.333,4.333,0,0,0-.708,1.492,7.475,7.475,0,0,0-.242,1.977,7.286,7.286,0,0,0,.255,2.022,4.356,4.356,0,0,0,.727,1.492,3.091,3.091,0,0,0,1.148.919,3.554,3.554,0,0,0,1.506.312,3.79,3.79,0,0,0,1.326-.2,4.332,4.332,0,0,0,.868-.427,6.081,6.081,0,0,0,.574-.427.714.714,0,0,1,.471-.2.548.548,0,0,1,.473.23l.713.918a4.779,4.779,0,0,1-1,.931,5.677,5.677,0,0,1-1.18.625,6.641,6.641,0,0,1-1.308.358,8.362,8.362,0,0,1-1.383.114,5.744,5.744,0,0,1-2.264-.446,5.123,5.123,0,0,1-1.824-1.3,6.238,6.238,0,0,1-1.219-2.1,8.351,8.351,0,0,1-.446-2.826,8.5,8.5,0,0,1,.4-2.666,5.952,5.952,0,0,1,1.186-2.111,5.5,5.5,0,0,1,1.933-1.391,6.489,6.489,0,0,1,2.627-.5,6.281,6.281,0,0,1,2.45.446,5.99,5.99,0,0,1,1.887,1.263Z" fill="#25374a"/>
      <path d="M625.905,151.04a7.037,7.037,0,0,1,1.805-1.339,4.893,4.893,0,0,1,2.276-.51,4.629,4.629,0,0,1,1.882.357,3.743,3.743,0,0,1,1.359,1,4.373,4.373,0,0,1,.829,1.55,6.753,6.753,0,0,1,.28,2v8.253h-2.5V154.1a3.3,3.3,0,0,0-.638-2.163,2.387,2.387,0,0,0-1.951-.771,3.7,3.7,0,0,0-1.793.453,5.994,5.994,0,0,0-1.549,1.23v9.5h-2.488V143.527h2.488Z" fill="#25374a"/>
      <path d="M640.766,145.389a1.593,1.593,0,0,1-.141.657,1.823,1.823,0,0,1-.376.549,1.711,1.711,0,0,1-.555.369,1.687,1.687,0,0,1-.663.135,1.6,1.6,0,0,1-.651-.135,1.744,1.744,0,0,1-.912-.918,1.653,1.653,0,0,1-.134-.657,1.683,1.683,0,0,1,.134-.669,1.751,1.751,0,0,1,.912-.919,1.614,1.614,0,0,1,.651-.134,1.7,1.7,0,0,1,.663.134,1.73,1.73,0,0,1,.555.37,1.836,1.836,0,0,1,.376.549A1.621,1.621,0,0,1,640.766,145.389Zm-.473,4.006v12.96h-2.487V149.4Z" fill="#25374a"/>
      <path d="M655.153,149.4l-5.255,12.96h-2.245L642.4,149.4h2.055a.8.8,0,0,1,.484.14.671.671,0,0,1,.255.357l3.1,7.96q.166.5.287.988t.223.976q.1-.484.23-.969c.084-.323.187-.655.306-1l3.137-7.96a.749.749,0,0,1,.728-.5Z" fill="#25374a"/>
      <path d="M667.413,160.505a4.907,4.907,0,0,1-1.059.925,6.185,6.185,0,0,1-1.276.631,7.738,7.738,0,0,1-1.4.358,9.082,9.082,0,0,1-1.422.114,6.666,6.666,0,0,1-2.481-.453,5.509,5.509,0,0,1-1.977-1.326,6.064,6.064,0,0,1-1.3-2.168,8.823,8.823,0,0,1-.465-2.979,7.382,7.382,0,0,1,.421-2.519,6.085,6.085,0,0,1,1.2-2.035,5.575,5.575,0,0,1,1.92-1.365,6.3,6.3,0,0,1,2.551-.5,6,6,0,0,1,2.188.389,4.857,4.857,0,0,1,1.729,1.129,5.224,5.224,0,0,1,1.141,1.824,6.9,6.9,0,0,1,.415,2.474,1.566,1.566,0,0,1-.128.772.518.518,0,0,1-.472.2h-8.5A7.039,7.039,0,0,0,658.84,158a4.07,4.07,0,0,0,.811,1.434,3.206,3.206,0,0,0,1.231.855,4.325,4.325,0,0,0,1.594.281,4.805,4.805,0,0,0,1.435-.191,6.908,6.908,0,0,0,1.045-.415q.441-.224.741-.415a1.022,1.022,0,0,1,.529-.191.545.545,0,0,1,.472.23Zm-2.054-6.072a4.254,4.254,0,0,0-.211-1.364,3.081,3.081,0,0,0-.619-1.085,2.8,2.8,0,0,0-1-.714,3.362,3.362,0,0,0-1.352-.255,3.322,3.322,0,0,0-2.467.905,4.377,4.377,0,0,0-1.142,2.513Z" fill="#25374a"/>
    </g>
    <path d="M90.683,40.441a2.568,2.568,0,0,0,2.352-1.535l1.309-2.977c.022,0,.041.013.063.013a2.522,2.522,0,1,0-2.521-2.522,2.481,2.481,0,0,0,.915,1.9l-1.283,2.918a.913.913,0,0,1-1.467.292l-8.576-8.216L79.6,24.91l-1.122-1.763a2.453,2.453,0,0,0,.458-1.367A2.522,2.522,0,1,0,76.418,24.3a2.459,2.459,0,0,0,.739-.149l.944,1.482,1.363,3.939-4.637-.84,0-.01a2.522,2.522,0,1,0-2.522,2.522,2.482,2.482,0,0,0,1.916-.937l5.98,1.083,8.7,8.335A2.571,2.571,0,0,0,90.683,40.441Zm3.724-7.885a.865.865,0,1,1-.864.864A.866.866,0,0,1,94.407,32.556ZM76.418,22.645a.865.865,0,1,1,.865-.865A.866.866,0,0,1,76.418,22.645Zm-4.111,6.943a.865.865,0,1,1,.865-.864A.866.866,0,0,1,72.307,29.588ZM41.032,18.714l2.157,1.733a2.543,2.543,0,0,1,.94,2.246l-.483,4.73A2.517,2.517,0,1,0,47.2,29.71a2.49,2.49,0,0,0-1.878-2.391l.454-4.457a4.192,4.192,0,0,0-1.55-3.708L42.046,17.4,42,17.37a2.707,2.707,0,0,0-2.314-.385l-6.452,1.861a2.481,2.481,0,0,0-2.089-1.2,2.522,2.522,0,0,0,0,5.044,2.5,2.5,0,0,0,2.464-2.232l6.536-1.886A1.061,1.061,0,0,1,41.032,18.714Zm3.647,10.132a.865.865,0,1,1-.864.864A.866.866,0,0,1,44.679,28.846ZM31.147,21.038a.865.865,0,1,1,.865-.865A.866.866,0,0,1,31.147,21.038ZM29.593,133.784a2.524,2.524,0,0,0-2.522,2.522,2.4,2.4,0,0,0,.111.548l-3.5,1.568-4.177-.2-4.85-7.882L11.8,126.016a2.466,2.466,0,0,0,.566-1.526,2.522,2.522,0,1,0-2.521,2.522,2.381,2.381,0,0,0,.553-.112l2.849,4.318,5.3,8.615L24,140.1l4.08-1.829a2.463,2.463,0,0,0,1.515.559,2.522,2.522,0,1,0,0-5.043ZM9.849,125.355a.865.865,0,1,1,.864-.865A.866.866,0,0,1,9.849,125.355ZM29.593,137.17a.865.865,0,1,1,.864-.864A.866.866,0,0,1,29.593,137.17Zm-6.206-36.42a2.464,2.464,0,0,0-.159-.782L27.761,96.8l.5-11.765L23,78.662a2.279,2.279,0,0,0-3.056-.409l-7.569,5.336a1.481,1.481,0,0,1-1.159.236l-2.295-.491a2.552,2.552,0,1,0-.395,1.61l2.343.5a3.139,3.139,0,0,0,2.461-.5L20.9,79.608a.613.613,0,0,1,.823.11L26.575,85.6l-.436,10.311L22.2,98.665a2.456,2.456,0,0,0-1.334-.437,2.522,2.522,0,1,0,2.522,2.522ZM6.449,84.458a.865.865,0,1,1,.865-.864A.866.866,0,0,1,6.449,84.458Zm14.416,17.157a.865.865,0,1,1,.864-.865A.865.865,0,0,1,20.865,101.615Zm111.2-2.5V80.74L129.087,66.7l.035-.052-.053-.035-.877-4.142-2.87-3.546a.982.982,0,0,1-.044-1.174l.407-.589a3.03,3.03,0,0,0,.24-3.028l-7.068-14.723-1.068-1.719L113,26.447,101.75,12.738c-3.066-4.595-3.472-4.862-4.169-5.068L87.8,4.8a1.4,1.4,0,0,1-.417-.2L81.657.527A2.833,2.833,0,0,0,80.005,0H72.523a3.03,3.03,0,0,0-2.239.991l-3.8,4.173L66.5,131.8l.467,14.562a4.111,4.111,0,0,0,.538,1.906l1.739,7.9a4.7,4.7,0,0,0,1.468,2.511c.2.179.41.366.61.543a5.333,5.333,0,0,0,2.492,1.232l9.291,1.838H94.037l6.779-.875,8.38-4.851,1.765-3.09,10.225-12.03a3.245,3.245,0,0,0,.764-1.893l.1-1.561a1.891,1.891,0,0,1,.55-1.219l1.416-1.416a3.2,3.2,0,0,0,.773-1.258l7.064-21.6a2.859,2.859,0,0,0,.081-1.471l-1.724-8.239,1.426-2.218A2.679,2.679,0,0,0,132.06,99.117Zm-1.657,0a1.028,1.028,0,0,1-.163.556l-.953,1.482-5.046-7.892a2.835,2.835,0,0,0-1.513-1.169l-5.781-2.518c0-.023.013-.042.013-.065a2.522,2.522,0,1,0-2.521,2.521,2.481,2.481,0,0,0,1.9-.913l5.729,2.5-3.3,8.926a2.52,2.52,0,1,0,2.542,2.517,2.478,2.478,0,0,0-.985-1.948l3.017-8.171,5.165,8.078.046-.03.982,4.694-.042-.035-4.891,6.052-.042.087a1.124,1.124,0,0,1-1.948.136l-1.087-1.63a2.789,2.789,0,0,0-4.675.049l-2.874,4.516-3.3,8.726a2.38,2.38,0,0,0-.4-.082,2.522,2.522,0,1,0,2.522,2.522,2.488,2.488,0,0,0-.648-1.646l3.315-8.774,2.782-4.372a1.133,1.133,0,0,1,1.9-.02l1.087,1.63a2.781,2.781,0,0,0,4.773-.243l3.953-4.891.348,1.661a1.194,1.194,0,0,1-.034.616l-7.065,21.6a1.514,1.514,0,0,1-.369.6l-1.416,1.416a3.547,3.547,0,0,0-1.032,2.287l-.1,1.562a1.588,1.588,0,0,1-.372.923L109.6,152.516l-1.621,2.836-7.7,4.46-2.565.331.067-5.267a3.063,3.063,0,0,1,.529-1.727l6.188-6.039a2.477,2.477,0,0,0,1.084.268,2.522,2.522,0,1,0-2.522-2.522,2.476,2.476,0,0,0,.266,1.081l-6.284,6.134-.044.061a4.714,4.714,0,0,0-.875,2.734l-.069,5.491-2.118.274H83.272l-9.133-1.807a3.668,3.668,0,0,1-1.716-.849c-.2-.174-.405-.359-.6-.536a3.049,3.049,0,0,1-.953-1.632l-1.8-8.167-.075-.12a2.451,2.451,0,0,1-.366-1.214l-.285-8.853,1.962.675a3.787,3.787,0,0,0,5-3.944l-.474-4.928a2.567,2.567,0,1,0-1.654.118l.478,4.969a2.129,2.129,0,0,1-2.812,2.217l-2.557-.879-.125-3.9,0-31.975,2.382,2.743.044.047a.621.621,0,0,1,.073.79,4.542,4.542,0,0,0-.781,2.552v.684A3.159,3.159,0,0,0,74,109.633l6.009-1.928a.88.88,0,0,1,.863.191l4.885,4.509a2.493,2.493,0,0,0-.22,1.013,2.522,2.522,0,1,0,2.521-2.521,2.455,2.455,0,0,0-1.152.314L82,106.678a2.537,2.537,0,0,0-2.494-.551l-6.009,1.928a1.5,1.5,0,0,1-1.96-1.43v-.684a2.891,2.891,0,0,1,.5-1.624,2.278,2.278,0,0,0-.258-2.873l-3.615-4.163V83.816l8.865,5.291.035.02a2.542,2.542,0,0,0,2.648-.152L88.35,82a2.453,2.453,0,0,0,1.311.421A2.522,2.522,0,1,0,87.139,79.9a2.471,2.471,0,0,0,.165.816l-8.564,6.91a.887.887,0,0,1-.889.046l-9.695-5.787,0-22.615,1.7,2.149.053.06a3.722,3.722,0,0,0,2.671,1.128,3.647,3.647,0,0,0,1.156-.187l11.991-3.977a2.51,2.51,0,1,0-.708-1.735c0,.074.037.137.043.21L73.217,60.847a2.055,2.055,0,0,1-2.088-.493L68.153,56.6l0-11.951,4.124-6.971a1.645,1.645,0,0,1,1.176-.413l3.147.169a2.491,2.491,0,0,0,2.395,1.892A2.522,2.522,0,1,0,76.7,35.783l-3.16-.169a3.3,3.3,0,0,0-2.5.961l-.074.074L68.151,41.4l0-35.593,3.363-3.7a1.372,1.372,0,0,1,1.013-.449h7.482a1.193,1.193,0,0,1,.693.221l5.729,4.066a3.194,3.194,0,0,0,.386.187l-4.131,5.476a2.544,2.544,0,0,1-3.392.631l-4.8-2.987a2.518,2.518,0,1,0-2.513,2.565,2.478,2.478,0,0,0,1.938-.97l4.5,2.8a4.2,4.2,0,0,0,5.591-1.041L88.45,6.713,97.113,9.26c.359.106,1.942,2.424,3.281,4.432l.023.034,7.81,9.513-4.62,3.2a4.574,4.574,0,0,0-1.942,3.266A4.386,4.386,0,0,0,102.8,33.17c.06.065.123.129.187.192l4.281,4.141a2.453,2.453,0,0,0-.352,1.208,2.543,2.543,0,1,0,1.576-2.33l-4.352-4.21c-.043-.041-.084-.083-.124-.127a2.7,2.7,0,0,1-.7-2.156,2.918,2.918,0,0,1,1.24-2.084l4.73-3.279,2.29,2.79,4.743,11.146,1.068,1.708,1.73,3.6-7.038,4.4L107.8,44.66a2.688,2.688,0,0,0-2.594-.455l-5.2,1.844a2.517,2.517,0,1,0,.725,1.763,2.195,2.195,0,0,0-.049-.244l5.075-1.8a1.024,1.024,0,0,1,.987.173l8.85,7.275a1.69,1.69,0,0,1,.488.661l3.453,8.4a.6.6,0,0,1-.65.817l-5.113-.837a2.5,2.5,0,0,0-2.45-2.165,2.522,2.522,0,0,0,0,5.044,2.485,2.485,0,0,0,2.128-1.252l5.168.846a2.4,2.4,0,0,0,.376.031,2.258,2.258,0,0,0,2.074-3.114l-3.453-8.4a3.346,3.346,0,0,0-.969-1.311l-3.228-2.653,6.409-4.006,4.6,9.575a1.367,1.367,0,0,1-.109,1.367l-.407.589a2.652,2.652,0,0,0,.118,3.161l2.62,3.236.669,3.16-5.5,8.315a.814.814,0,0,1-1.012.3l-17.324-7.654a2.331,2.331,0,0,0-3.128,1.319L98.2,74.426a2.511,2.511,0,1,0,2.643,2.5,2.478,2.478,0,0,0-1.06-2l2.125-5.7a.674.674,0,0,1,.905-.382l17.324,7.654a2.469,2.469,0,0,0,3.065-.9l4.6-6.954,2.6,12.273Zm-15.1-9.606a.865.865,0,1,1-.864-.865A.866.866,0,0,1,115.3,89.511Zm4.353,15.546a.865.865,0,1,1-.864-.864A.866.866,0,0,1,119.656,105.057Zm-8.512,22.964a.864.864,0,1,1-.864-.864A.864.864,0,0,1,111.144,128.021Zm-6.431,16.835a.864.864,0,1,1,.864.865A.865.865,0,0,1,104.713,144.856ZM73.787,127.84a.865.865,0,1,1,.864-.865A.865.865,0,0,1,73.787,127.84Zm13.407-14.422a.865.865,0,1,1,.864.865A.866.866,0,0,1,87.194,113.418ZM88.8,79.9a.865.865,0,1,1,.865.865A.866.866,0,0,1,88.8,79.9ZM86.679,56.708a.864.864,0,1,1,.864.864A.865.865,0,0,1,86.679,56.708Zm-8.551-19.9a.865.865,0,1,1,.865.864A.865.865,0,0,1,78.128,36.808ZM72.838,9.294a.864.864,0,1,1-.864-.864A.864.864,0,0,1,72.838,9.294Zm35.731,29.417a.865.865,0,1,1,.864.865A.866.866,0,0,1,108.569,38.711Zm-9.488,9.1a.865.865,0,1,1-.864-.865A.866.866,0,0,1,99.081,47.812Zm13.113,14.8a.865.865,0,1,1-.865-.864A.866.866,0,0,1,112.194,62.615ZM99.187,76.923a.864.864,0,1,1-.864-.865A.865.865,0,0,1,99.187,76.923ZM52.951,137.674l-6.958,1.047a2.484,2.484,0,0,0-2.1-1.206,2.522,2.522,0,0,0,0,5.044,2.5,2.5,0,0,0,2.459-2.216l6.729-1.015a.076.076,0,0,1,.056.036.074.074,0,0,1,.005.082l-3.667,7.5a.665.665,0,0,1-.727.359l-2.405-.481a2.928,2.928,0,0,0-1.871.25l-1.806.9a2.66,2.66,0,0,0-1.365,3.121l.8,2.14a2.482,2.482,0,0,0-.891,1.884A2.522,2.522,0,1,0,43.74,152.6c-.033,0-.061.018-.094.019l-.758-2.009a1,1,0,0,1,.522-1.15l1.806-.9a1.264,1.264,0,0,1,.8-.107l2.405.481a2.321,2.321,0,0,0,2.54-1.256l3.668-7.5a1.74,1.74,0,0,0-1.683-2.5ZM43.9,140.9a.865.865,0,1,1,.864-.864A.866.866,0,0,1,43.9,140.9Zm-.156,13.352a.864.864,0,1,1-.864.864A.864.864,0,0,1,43.74,154.253Zm58.867-95.54a3,3,0,0,0,.566.053,3.114,3.114,0,0,0,2.062-.782l2.368-1.875a2.456,2.456,0,0,0,1.394.478,2.522,2.522,0,1,0-2.522-2.522,2.437,2.437,0,0,0,.144.709L104.186,56.7l-.042.036a1.444,1.444,0,0,1-1.231.347l-7.146-1.342-5.856-9.517a2.424,2.424,0,0,0-2.92-.989L76.424,46.994a2.482,2.482,0,0,0-2.1-1.2,2.522,2.522,0,1,0,0,5.043,2.5,2.5,0,0,0,2.46-2.221l10.667-1.775.095-.041a.759.759,0,0,1,.948.3l5.848,9.5L90.428,68.549a2.918,2.918,0,0,1-.29.623l-8.353,2.186a2.494,2.494,0,0,0-2.171-1.315,2.522,2.522,0,0,0,0,5.044A2.491,2.491,0,0,0,82.048,73l9.086-2.379.173-.229a4.57,4.57,0,0,0,.7-1.33l3.812-11.628ZM109,53.2a.865.865,0,1,1-.864.865A.866.866,0,0,1,109,53.2ZM74.329,49.177a.865.865,0,1,1,.864-.864A.866.866,0,0,1,74.329,49.177Zm5.285,24.252a.864.864,0,1,1,.865-.864A.865.865,0,0,1,79.614,73.429Zm6.963,51.823A2.525,2.525,0,0,0,89.1,122.73a2.453,2.453,0,0,0-.429-1.322c.892-1.22,3.322-4.1,6.641-7.862a2.793,2.793,0,0,0,.682-2.119l-.979-9.79,3.331,2.855a2.231,2.231,0,0,0,3.092-.175l1.662-1.785a2.49,2.49,0,0,0,1.037.236,2.522,2.522,0,1,0-2.522-2.522,2.463,2.463,0,0,0,.3,1.128l-1.688,1.814a.577.577,0,0,1-.8.045l-4.339-3.718,3.156-4.65a2.446,2.446,0,0,0,.611.123,2.522,2.522,0,1,0-2.522-2.522,2.46,2.46,0,0,0,.533,1.477l-3.036,4.474-4.2-3.718a2.375,2.375,0,0,0,.11-.54,2.522,2.522,0,1,0-2.522,2.522,2.469,2.469,0,0,0,1.518-.561l4.159,3.68-.006.009.31.266,1.151,11.517a1.129,1.129,0,0,1-.276.858c-2.052,2.326-5.377,6.142-6.689,7.921a2.469,2.469,0,0,0-.8-.163,2.522,2.522,0,0,0,0,5.044Zm17.559-25.87a.865.865,0,1,1-.864.864A.866.866,0,0,1,104.136,99.382ZM98.852,91.6a.865.865,0,1,1-.865.864A.866.866,0,0,1,98.852,91.6Zm-11.64,3.422a.865.865,0,1,1,.864-.865A.866.866,0,0,1,87.212,95.024Zm-.635,26.842a.865.865,0,1,1-.864.864A.864.864,0,0,1,86.577,121.866Zm18.413,14.44a2.522,2.522,0,1,0-2.522,2.521,2.465,2.465,0,0,0,1.515-.559l4.079,1.829,5.446-.264,5.3-8.615,2.849-4.318a2.4,2.4,0,0,0,.554.112,2.522,2.522,0,1,0-2.522-2.522,2.472,2.472,0,0,0,.566,1.526l-2.837,4.3-4.864,7.9-4.177.2-3.5-1.568A2.456,2.456,0,0,0,104.99,136.306Zm-2.522.864a.865.865,0,1,1,.864-.864A.866.866,0,0,1,102.468,137.17Zm19.744-13.544a.865.865,0,1,1-.864.864A.865.865,0,0,1,122.212,123.626ZM90.757,151.093a2.659,2.659,0,0,0-1.366-3.121l-1.805-.9a2.929,2.929,0,0,0-1.871-.25l-2.405.481a.665.665,0,0,1-.727-.359l-3.668-7.5a.074.074,0,0,1,.006-.082.076.076,0,0,1,.056-.036l6.728,1.015a2.5,2.5,0,0,0,2.46,2.216,2.522,2.522,0,0,0,0-5.044,2.484,2.484,0,0,0-2.1,1.206l-6.892-1.039-.066-.008a1.739,1.739,0,0,0-1.683,2.5l3.667,7.5a2.325,2.325,0,0,0,2.541,1.256l2.405-.481a1.255,1.255,0,0,1,.8.108l1.806.9a1,1,0,0,1,.522,1.149l-.758,2.01c-.033,0-.06-.019-.094-.019a2.522,2.522,0,1,0,2.522,2.522,2.486,2.486,0,0,0-.89-1.884l.784-2.078Zm-2.592-11.921a.865.865,0,1,1-.864.865A.865.865,0,0,1,88.165,139.172Zm.155,16.809a.864.864,0,1,1,.865-.864A.865.865,0,0,1,88.32,155.981Zm-57.4-25.049-.279-.209a3.254,3.254,0,0,1-1.193-3.479l.567-2.078-.065-7.249-4.487-8.974a2.474,2.474,0,0,0,.585-1.554,2.522,2.522,0,1,0-2.521,2.522,2.413,2.413,0,0,0,.515-.1l4.254,8.508.059,6.636-.506,1.857a4.9,4.9,0,0,0,1.8,5.241l.31.233,7.137,4.365-2.016,6.63c-.017,0-.03-.01-.047-.01a2.522,2.522,0,1,0,2.522,2.522,2.483,2.483,0,0,0-.926-1.908l2.13-7.007,12.183-5.537a4.632,4.632,0,0,0,2.422-2.619l.018-.048,1.874-8.218a2.529,2.529,0,1,0-1.7,0l-1.765,7.74a2.969,2.969,0,0,1-1.534,1.631l-12.123,5.51ZM23.53,108.253a.864.864,0,1,1,.864-.864A.865.865,0,0,1,23.53,108.253Zm11.5,38.4a.864.864,0,1,1,.864-.864A.864.864,0,0,1,35.034,146.653Zm18.494-28.548a.865.865,0,1,1,.865.864A.865.865,0,0,1,53.528,118.105ZM87.381,32.232a2.514,2.514,0,0,0,1.034-4.809l-.483-4.73a2.538,2.538,0,0,1,.94-2.246l2.156-1.733a1.061,1.061,0,0,1,.885-.137l6.537,1.886a2.5,2.5,0,0,0,2.463,2.232,2.522,2.522,0,1,0,0-5.044,2.482,2.482,0,0,0-2.089,1.2l-6.451-1.861a2.707,2.707,0,0,0-2.314.385l-2.225,1.784a4.192,4.192,0,0,0-1.551,3.707l.455,4.458a2.49,2.49,0,0,0-1.879,2.391A2.525,2.525,0,0,0,87.381,32.232Zm13.532-12.923a.865.865,0,1,1-.864.864A.866.866,0,0,1,100.913,19.309ZM87.381,28.846a.865.865,0,1,1-.864.864A.866.866,0,0,1,87.381,28.846ZM59.537,0H52.055A2.836,2.836,0,0,0,50.4.527L44.674,4.593a1.407,1.407,0,0,1-.418.2L34.48,7.67c-.7.206-1.1.473-4.169,5.068L19.057,26.447,14.271,37.692l-1.048,1.677L6.136,54.134a3.027,3.027,0,0,0,.24,3.028l.407.589a.985.985,0,0,1-.044,1.174l-2.87,3.546-.878,4.142-.052.035.034.052L0,80.74V99.117a2.68,2.68,0,0,0,.427,1.452l1.426,2.219L.129,111.026a2.848,2.848,0,0,0,.08,1.471l7.065,21.6a3.187,3.187,0,0,0,.773,1.258l1.416,1.416a1.9,1.9,0,0,1,.55,1.219l.1,1.561a3.261,3.261,0,0,0,.764,1.893L21.1,153.472l1.766,3.09,8.38,4.851,6.725.868,10.981.007,9.292-1.838a5.322,5.322,0,0,0,2.491-1.233c.2-.176.411-.363.611-.542a4.711,4.711,0,0,0,1.468-2.511l1.738-7.9a4.114,4.114,0,0,0,.538-1.906l.467-14.535v-.014L65.571,5.485V5.164L61.777.991A3.032,3.032,0,0,0,59.537,0ZM63.91,41.4,61.1,36.649l-.074-.074a3.3,3.3,0,0,0-2.505-.961l-3.159.169a2.518,2.518,0,1,0-2.294,3.547,2.49,2.49,0,0,0,2.394-1.892l3.148-.169a1.643,1.643,0,0,1,1.176.413l4.123,6.971V56.6l-2.976,3.75a2.055,2.055,0,0,1-2.088.493L47,56.918c.006-.073.042-.136.042-.21a2.522,2.522,0,1,0-2.522,2.521,2.5,2.5,0,0,0,1.814-.786L58.322,62.42a3.652,3.652,0,0,0,1.156.187,3.724,3.724,0,0,0,2.672-1.128l1.758-2.212,0,22.618L54.21,87.672a.891.891,0,0,1-.89-.046l-8.563-6.91a2.5,2.5,0,0,0,.165-.816A2.522,2.522,0,1,0,42.4,82.422,2.447,2.447,0,0,0,43.71,82l8.6,6.937.049.037a2.543,2.543,0,0,0,2.649.152l8.9-5.311,0,13.465-3.615,4.163a2.278,2.278,0,0,0-.258,2.873,2.891,2.891,0,0,1,.5,1.624v.684a1.5,1.5,0,0,1-1.96,1.43l-6.009-1.928a2.533,2.533,0,0,0-2.493.551l-4.911,4.533A2.455,2.455,0,0,0,44,110.9a2.543,2.543,0,1,0,2.3,1.508l4.885-4.509a.877.877,0,0,1,.863-.191l6.009,1.928a3.159,3.159,0,0,0,4.124-3.008v-.684a4.535,4.535,0,0,0-.782-2.552.622.622,0,0,1,.074-.79L63.9,99.808l0,31.976-.125,3.9-2.557.879a2.129,2.129,0,0,1-2.811-2.217l.477-4.969a2.49,2.49,0,0,0,1.912-2.4,2.522,2.522,0,1,0-3.565,2.281l-.474,4.928a3.786,3.786,0,0,0,5,3.944l1.961-.675-.284,8.853a2.463,2.463,0,0,1-.367,1.214l-.074.12-1.8,8.167a3.051,3.051,0,0,1-.954,1.632c-.2.177-.406.362-.6.536a3.663,3.663,0,0,1-1.716.849l-9.132,1.807H38.13l-2.118-.274-.07-5.481a4.714,4.714,0,0,0-.875-2.744l-.043-.061-6.285-6.134a2.462,2.462,0,0,0,.266-1.081,2.522,2.522,0,1,0-2.521,2.522,2.48,2.48,0,0,0,1.084-.268l6.188,6.039a3.08,3.08,0,0,1,.529,1.738l.067,5.256-2.565-.331-7.7-4.46-1.62-2.836L12.137,140.368a1.584,1.584,0,0,1-.373-.922l-.1-1.562a3.547,3.547,0,0,0-1.032-2.287l-1.416-1.416a1.528,1.528,0,0,1-.37-.6l-7.065-21.6a1.194,1.194,0,0,1-.033-.616l.347-1.661L6.051,114.6a2.781,2.781,0,0,0,4.773.243l1.087-1.63a1.131,1.131,0,0,1,.955-.5,1.116,1.116,0,0,1,.944.524l2.781,4.372,3.315,8.774a2.488,2.488,0,0,0-.647,1.646,2.522,2.522,0,1,0,2.522-2.522,2.36,2.36,0,0,0-.4.082l-3.3-8.726-2.873-4.516a2.783,2.783,0,0,0-2.325-1.292h-.03a2.781,2.781,0,0,0-2.321,1.243l-1.087,1.63a1.123,1.123,0,0,1-1.947-.136l-.042-.087-4.892-6.052-.042.035.982-4.694.047.03,5.165-8.078,3.017,8.171a2.476,2.476,0,0,0-.986,1.948,2.522,2.522,0,1,0,2.543-2.517l-3.3-8.926,5.728-2.5a2.481,2.481,0,0,0,1.9.913A2.522,2.522,0,1,0,15.1,89.511c0,.023.013.042.013.065L9.332,92.094A2.833,2.833,0,0,0,7.82,93.263l-5.046,7.892-.953-1.482a1.029,1.029,0,0,1-.164-.556v-18.2l2.6-12.273,4.6,6.954a2.469,2.469,0,0,0,3.065.9l17.323-7.654a.676.676,0,0,1,.906.381l2.125,5.705a2.478,2.478,0,0,0-1.06,2,2.522,2.522,0,1,0,2.643-2.5L31.7,68.641a2.333,2.333,0,0,0-3.129-1.319L11.252,74.976a.816.816,0,0,1-1.013-.3l-5.5-8.315.67-3.16,2.619-3.236a2.652,2.652,0,0,0,.119-3.161l-.408-.589a1.367,1.367,0,0,1-.108-1.367l4.6-9.575,6.409,4.006-3.227,2.653a3.346,3.346,0,0,0-.969,1.311l-3.453,8.4a2.257,2.257,0,0,0,2.074,3.114,2.4,2.4,0,0,0,.376-.031l5.167-.846a2.486,2.486,0,0,0,2.128,1.252,2.522,2.522,0,0,0,0-5.044,2.494,2.494,0,0,0-2.449,2.165l-5.114.837a.6.6,0,0,1-.649-.817l3.453-8.4a1.69,1.69,0,0,1,.488-.661l8.85-7.275a1.026,1.026,0,0,1,.987-.173l5.074,1.8a2.449,2.449,0,0,0-.049.244,2.535,2.535,0,1,0,.726-1.763l-5.2-1.844a2.691,2.691,0,0,0-2.594.455l-4.271,3.511-7.038-4.4,1.729-3.6,1.068-1.708,4.743-11.146,2.291-2.79,4.73,3.279a2.92,2.92,0,0,1,1.239,2.084,2.692,2.692,0,0,1-.7,2.157q-.06.064-.123.126l-4.353,4.21a2.5,2.5,0,0,0-.945-.191,2.522,2.522,0,1,0,2.522,2.521A2.443,2.443,0,0,0,24.8,37.5l4.281-4.141c.065-.063.127-.127.187-.191A4.386,4.386,0,0,0,30.4,29.708a4.576,4.576,0,0,0-1.943-3.266l-4.619-3.2,7.783-9.481.049-.066c1.339-2.008,2.922-4.326,3.282-4.432L43.61,6.713l4.445,5.892a4.2,4.2,0,0,0,5.591,1.041l4.5-2.8a2.48,2.48,0,0,0,1.938.97,2.522,2.522,0,1,0-2.513-2.565l-4.8,2.987a2.545,2.545,0,0,1-3.393-.631l-4.13-5.476a3.11,3.11,0,0,0,.385-.187l5.729-4.066a1.2,1.2,0,0,1,.693-.221h7.482a1.374,1.374,0,0,1,1.014.449l3.363,3.7Zm-9.978-4.59a.864.864,0,1,1-.864-.864A.864.864,0,0,1,53.932,36.808Zm-8.55,19.9a.865.865,0,1,1-.865-.865A.866.866,0,0,1,45.382,56.708ZM43.264,79.9a.865.865,0,1,1-.864-.864A.865.865,0,0,1,43.264,79.9Zm1.6,33.518a.865.865,0,1,1-.865-.864A.866.866,0,0,1,44.867,113.418ZM58.273,127.84a.865.865,0,1,1,.865-.865A.866.866,0,0,1,58.273,127.84ZM27.348,144.856a.865.865,0,1,1-.864-.864A.866.866,0,0,1,27.348,144.856Zm-6.432-16.835a.865.865,0,1,1,.865.864A.865.865,0,0,1,20.916,128.021Zm-8.511-22.964a.864.864,0,1,1,.864.865A.865.865,0,0,1,12.405,105.057Zm4.353-15.546a.864.864,0,1,1,.864.864A.865.865,0,0,1,16.758,89.511ZM32.873,76.923a.865.865,0,1,1,.865.864A.866.866,0,0,1,32.873,76.923ZM19.867,62.615a.865.865,0,1,1,.864.865A.866.866,0,0,1,19.867,62.615Zm13.112-14.8a.865.865,0,1,1,.865.864A.866.866,0,0,1,32.979,47.812Zm-9.488-9.1a.864.864,0,1,1-.864-.864A.865.865,0,0,1,23.491,38.711ZM59.222,9.294a.865.865,0,1,1,.864.864A.865.865,0,0,1,59.222,9.294ZM35.2,93.943a2.461,2.461,0,0,0,.534-1.477,2.522,2.522,0,1,0-2.522,2.522,2.438,2.438,0,0,0,.61-.123l3.156,4.65-4.338,3.718a.577.577,0,0,1-.8-.045l-1.689-1.814a2.451,2.451,0,0,0,.3-1.128,2.522,2.522,0,1,0-2.522,2.522,2.487,2.487,0,0,0,1.037-.236l1.663,1.785a2.231,2.231,0,0,0,3.092.175l3.33-2.855-.979,9.79a2.793,2.793,0,0,0,.683,2.12c3.319,3.76,5.749,6.641,6.641,7.861a2.453,2.453,0,0,0-.429,1.322,2.522,2.522,0,1,0,2.522-2.522,2.464,2.464,0,0,0-.8.163c-1.313-1.779-4.637-5.595-6.689-7.921a1.13,1.13,0,0,1-.277-.858l1.152-11.517.31-.266-.007-.009,4.16-3.68a2.467,2.467,0,0,0,1.518.561,2.522,2.522,0,1,0-2.522-2.522,2.429,2.429,0,0,0,.109.54l-4.2,3.718Zm-1.988-.612a.865.865,0,1,1,.864-.865A.866.866,0,0,1,33.209,93.331Zm-5.285,7.78a.865.865,0,1,1,.865-.865A.866.866,0,0,1,27.924,101.111Zm17.56,20.755a.865.865,0,1,1-.865.864A.865.865,0,0,1,45.484,121.866ZM44.849,93.3a.865.865,0,1,1-.865.864A.866.866,0,0,1,44.849,93.3Zm80.762-12.223a2.5,2.5,0,0,0-2.469,2.262l-2.3.491a1.478,1.478,0,0,1-1.158-.236l-7.569-5.336a2.281,2.281,0,0,0-3.057.409L103.8,85.03l.5,11.765,4.532,3.173a2.463,2.463,0,0,0-.158.782,2.522,2.522,0,1,0,2.522-2.522,2.456,2.456,0,0,0-1.334.437l-3.941-2.758L105.486,85.6l4.855-5.878a.613.613,0,0,1,.824-.11l7.569,5.335a3.142,3.142,0,0,0,2.46.5l2.343-.5a2.481,2.481,0,0,0,2.074,1.171,2.522,2.522,0,1,0,0-5.043ZM111.2,99.886a.865.865,0,1,1-.865.864A.866.866,0,0,1,111.2,99.886Zm14.415-15.428a.865.865,0,1,1,.865-.864A.866.866,0,0,1,125.611,84.458ZM42.15,46.225l-5.857,9.517-7.146,1.342a1.443,1.443,0,0,1-1.231-.348l-2.475-1.961a2.45,2.45,0,0,0,.144-.71,2.522,2.522,0,1,0-2.522,2.522,2.462,2.462,0,0,0,1.395-.478l2.367,1.875a3.115,3.115,0,0,0,2.063.782,2.994,2.994,0,0,0,.565-.053l6.793-1.276,3.812,11.628a4.567,4.567,0,0,0,.7,1.33l.173.229L50.013,73a2.491,2.491,0,0,0,2.433,2.084,2.522,2.522,0,1,0,0-5.044,2.494,2.494,0,0,0-2.171,1.315l-8.353-2.186a2.949,2.949,0,0,1-.289-.624L37.714,56.6l5.847-9.5a.76.76,0,0,1,.949-.3l.095.041,10.666,1.775a2.5,2.5,0,0,0,2.461,2.221,2.522,2.522,0,1,0,0-5.043,2.482,2.482,0,0,0-2.095,1.2L45.07,45.236A2.424,2.424,0,0,0,42.15,46.225Zm-19.087,8.7a.865.865,0,1,1,.865-.864A.866.866,0,0,1,23.063,54.929ZM52.446,71.7a.864.864,0,1,1-.864.864A.865.865,0,0,1,52.446,71.7Zm5.286-24.253a.865.865,0,1,1-.864.865A.865.865,0,0,1,57.732,47.448Zm50.8,57.419a2.526,2.526,0,0,0-2.522,2.522,2.474,2.474,0,0,0,.585,1.554l-4.487,8.974-.064,7.249.567,2.078a3.255,3.255,0,0,1-1.194,3.479l-.279.209-7.21,4.406L81.8,129.828A2.968,2.968,0,0,1,80.27,128.2l-1.765-7.74a2.516,2.516,0,1,0-1.7,0l1.862,8.167.029.1a4.632,4.632,0,0,0,2.422,2.619L93.3,136.874l2.131,7.007a2.483,2.483,0,0,0-.926,1.908,2.522,2.522,0,1,0,2.522-2.522c-.017,0-.031.009-.047.01l-2.016-6.63,7.071-4.321.376-.277a4.9,4.9,0,0,0,1.8-5.241l-.507-1.857.059-6.636,4.255-8.508a2.388,2.388,0,0,0,.515.1,2.522,2.522,0,0,0,0-5.044Zm-30.863,14.1a.864.864,0,1,1,.864-.864A.865.865,0,0,1,77.668,118.969Zm19.359,25.956a.864.864,0,1,1-.865.864A.865.865,0,0,1,97.027,144.925Zm11.5-36.672a.864.864,0,1,1,.864-.864A.864.864,0,0,1,108.531,108.253ZM59.753,26.2a2.524,2.524,0,0,0-2.522,2.522l0,.01-4.637.84,1.364-3.939.943-1.482a2.466,2.466,0,0,0,.739.149A2.522,2.522,0,1,0,53.12,21.78a2.454,2.454,0,0,0,.459,1.367L52.457,24.91l-1.871,5.405L42.01,38.531a.913.913,0,0,1-1.467-.292l-1.284-2.918a2.48,2.48,0,0,0,.916-1.9,2.522,2.522,0,1,0-2.522,2.522c.022,0,.041-.012.063-.013l1.31,2.977a2.57,2.57,0,0,0,4.13.821l8.7-8.335,5.98-1.083a2.482,2.482,0,0,0,1.915.937,2.522,2.522,0,0,0,0-5.044Zm-4.111-5.286a.865.865,0,1,1-.864.864A.866.866,0,0,1,55.642,20.916ZM37.653,34.285a.865.865,0,1,1,.865-.865A.866.866,0,0,1,37.653,34.285Zm22.1-4.7a.865.865,0,1,1,.865-.864A.865.865,0,0,1,59.753,29.588Z" fill="url(#a)"/>
  </g>
</svg>
