<svg xmlns="http://www.w3.org/2000/svg" xmlns:xlink="http://www.w3.org/1999/xlink" width="1490.7" height="548">
    <defs>
        <path id="rare-x-logo_svg__a" d="M0 0h1490.7v548H0z"/>
    </defs>
    <clipPath id="rare-x-logo_svg__b">
        <use xlink:href="#rare-x-logo_svg__a" overflow="visible"/>
    </clipPath>
    <path clip-path="url(#rare-x-logo_svg__b)" fill="#85CCB0" d="M1146.3 187.3a11.2 11.2 0 1122.4 0 11.2 11.2 0 01-22.4 0"/>
    <path clip-path="url(#rare-x-logo_svg__b)" fill="#4E6988" d="M1051.7 27.3a8 8 0 1116 0 8 8 0 01-16 0"/>
    <path clip-path="url(#rare-x-logo_svg__b)" fill="#EF4D58" d="M1168.6 226.7a5 5 0 1110.2 0 5 5 0 01-10.2 0"/>
    <path clip-path="url(#rare-x-logo_svg__b)" fill="#26355C" d="M1098.7 35.2a17.1 17.1 0 1134.2 0 17.1 17.1 0 01-34.2 0"/>
    <path clip-path="url(#rare-x-logo_svg__b)" fill="#FFC84B" d="M1138.6 176.3a6.4 6.4 0 1112.8 0 6.4 6.4 0 01-12.8 0"/>
    <path clip-path="url(#rare-x-logo_svg__b)" fill="#85CCB0" d="M1161.6 25.9a7 7 0 1114.1 0 7 7 0 01-14 0"/>
    <path clip-path="url(#rare-x-logo_svg__b)" fill="#26355C" d="M1063.6 50a9.7 9.7 0 1119.3 0 9.7 9.7 0 01-19.3 0"/>
    <path clip-path="url(#rare-x-logo_svg__b)" fill="#EF4D58" d="M1085.5 29.4a11.3 11.3 0 1122.6 0 11.3 11.3 0 01-22.6 0"/>
    <path clip-path="url(#rare-x-logo_svg__b)" fill="#26355C" d="M1110.7 62.3a5.7 5.7 0 1111.4 0 5.7 5.7 0 01-11.4 0"/>
    <path clip-path="url(#rare-x-logo_svg__b)" fill="#EF4D58" d="M1093.6 58a5 5 0 1110.2 0 5 5 0 01-10.2 0m45.4-13.5a12.1 12.1 0 1124.2 0 12.1 12.1 0 01-24.3 0"/>
    <path clip-path="url(#rare-x-logo_svg__b)" fill="#4E6988" d="M1143 23a5.4 5.4 0 1110.8 0 5.4 5.4 0 01-10.8 0"/>
    <path clip-path="url(#rare-x-logo_svg__b)" fill="#26355C" d="M1154.7 33.9a6.7 6.7 0 1113.4 0 6.7 6.7 0 01-13.4 0"/>
    <path clip-path="url(#rare-x-logo_svg__b)" fill="#85CCB0" d="M1176.4 41.6a6.5 6.5 0 1113 0 6.5 6.5 0 01-13 0"/>
    <path clip-path="url(#rare-x-logo_svg__b)" fill="#EF4D58" d="M1197.6 78.2a6.7 6.7 0 1113.5 0 6.7 6.7 0 01-13.5 0"/>
    <path clip-path="url(#rare-x-logo_svg__b)" fill="#26355C" d="M1142.5 74.3a6.8 6.8 0 1113.6 0 6.8 6.8 0 01-13.6 0m20.5 13.2a13.2 13.2 0 1126.5 0 13.2 13.2 0 01-26.5 0"/>
    <path clip-path="url(#rare-x-logo_svg__b)" fill="#85CCB0" d="M1190.6 70.7c0-3.8 3-6.9 6.9-6.9s6.9 3.1 6.9 7-3.1 6.8-7 6.8-6.8-3-6.8-6.9"/>
    <path clip-path="url(#rare-x-logo_svg__b)" fill="#26355C" d="M1116.5 138a7 7 0 1114 0 7 7 0 01-14 0"/>
    <path clip-path="url(#rare-x-logo_svg__b)" fill="#85CCB0" d="M1163.8 112.6a10.4 10.4 0 1120.8 0 10.4 10.4 0 01-20.8 0"/>
    <path clip-path="url(#rare-x-logo_svg__b)" fill="#EF4D58" d="M1195.4 134.7a6.3 6.3 0 10-12.5 0 6.3 6.3 0 0012.5 0"/>
    <path clip-path="url(#rare-x-logo_svg__b)" fill="#26355C" d="M1189.2 141.5a10 10 0 1120 0 10 10 0 01-20 0"/>
    <path clip-path="url(#rare-x-logo_svg__b)" fill="#85CCB0" d="M1226 118.1a13.4 13.4 0 11-26.6 0 13.4 13.4 0 0126.7 0"/>
    <path clip-path="url(#rare-x-logo_svg__b)" fill="#EF4D58" d="M1217.5 130.5a7.5 7.5 0 1115 0 7.5 7.5 0 01-15 0m-25.4-12.6a5.3 5.3 0 1110.6 0 5.3 5.3 0 01-10.6 0m36.2 41.7a8 8 0 11-16 0 8 8 0 0116 0M1250 141a5.6 5.6 0 11-11 0 5.6 5.6 0 0111 0"/>
    <path clip-path="url(#rare-x-logo_svg__b)" fill="#85CCB0" d="M1246.7 155.2a14.6 14.6 0 11-29.2 0 14.6 14.6 0 0129.2 0"/>
    <path clip-path="url(#rare-x-logo_svg__b)" fill="#4E6988" d="M1227 178.7a7.3 7.3 0 11-14.8 0 7.3 7.3 0 0114.7 0"/>
    <path clip-path="url(#rare-x-logo_svg__b)" fill="#85CCB0" d="M1224.3 193.2a6.1 6.1 0 1112.2 0 6.1 6.1 0 01-12.2 0"/>
    <path clip-path="url(#rare-x-logo_svg__b)" fill="#4E6988" d="M1244 205.7a6.4 6.4 0 1112.8 0 6.4 6.4 0 01-12.8 0"/>
    <path clip-path="url(#rare-x-logo_svg__b)" fill="#EF4D58" d="M1264.4 192.3a7.6 7.6 0 11-15.1 0 7.6 7.6 0 0115.1 0M1296 335a3.8 3.8 0 11-7.6 0 3.8 3.8 0 017.6 0m-42.6 67a5.8 5.8 0 11-11.6 0 5.8 5.8 0 0111.6 0m-21.2-216.4a7.5 7.5 0 1015 0 7.5 7.5 0 00-15 0"/>
    <path clip-path="url(#rare-x-logo_svg__b)" fill="#4E6988" d="M1253.9 171.5a7.5 7.5 0 1115 0 7.5 7.5 0 01-15 0"/>
    <path clip-path="url(#rare-x-logo_svg__b)" fill="#EF4D58" d="M1272.5 240.8a7.5 7.5 0 1115 0 7.5 7.5 0 01-15 0m-2-80.7a7.5 7.5 0 1114.9 0 7.5 7.5 0 01-15 0m53.4 180.5a10.3 10.3 0 1120.7 0 10.3 10.3 0 01-20.7 0"/>
    <path clip-path="url(#rare-x-logo_svg__b)" fill="#FFC84B" d="M1314.2 291a7.5 7.5 0 1114.9 0 7.5 7.5 0 01-15 0"/>
    <path clip-path="url(#rare-x-logo_svg__b)" fill="#85CCB0" d="M1260 157a4.3 4.3 0 11-8.7 0 4.3 4.3 0 018.7 0"/>
    <path clip-path="url(#rare-x-logo_svg__b)" fill="#4E6988" d="M1295.6 141.3a6.8 6.8 0 11-13.6 0 6.8 6.8 0 0113.6 0m-71.6 68a3.7 3.7 0 11-7.4 0 3.7 3.7 0 017.3 0"/>
    <path clip-path="url(#rare-x-logo_svg__b)" fill="#EF4D58" d="M1200.4 226.7a5.6 5.6 0 11-11.2 0 5.6 5.6 0 0111.2 0m95.9 55.5a5.6 5.6 0 11-11.2 0 5.6 5.6 0 0111.2 0m-89.8-50.7a12.4 12.4 0 1124.7 0 12.4 12.4 0 01-24.7 0"/>
    <path clip-path="url(#rare-x-logo_svg__b)" fill="#26355C" d="M1246 222a11 11 0 11-22 0 11 11 0 0122 0"/>
    <path clip-path="url(#rare-x-logo_svg__b)" fill="#85CCB0" d="M1278.7 272.2a19 19 0 11-28.5-25 19 19 0 0128.5 25"/>
    <path clip-path="url(#rare-x-logo_svg__b)" fill="#4E6988" d="M1236.4 352.8a12 12 0 1124 0 12 12 0 01-24 0"/>
    <path clip-path="url(#rare-x-logo_svg__b)" fill="#EF4D58" d="M1190.8 285.5a6.8 6.8 0 1113.7 0 6.8 6.8 0 01-13.7 0m129.8-99.5a7 7 0 11-14.2 0 7 7 0 0114.2 0m4 24.7a7 7 0 11-14.1 0 7 7 0 0114.1 0m37.4 111.7a7 7 0 11-14.2 0 7 7 0 0114.2 0M1072 34.6a4 4 0 11-8.1 0 4 4 0 018.1 0m35 50.3a6.6 6.6 0 1113.3 0 6.6 6.6 0 01-13.3 0m25.6 27.3a15 15 0 11-30.1 0 15 15 0 0130.1 0"/>
    <path clip-path="url(#rare-x-logo_svg__b)" fill="#4E6988" d="M1155.7 123.2a7.3 7.3 0 11-14.6 0 7.3 7.3 0 0114.6 0m-18.1 0a5.4 5.4 0 11-10.8 0 5.4 5.4 0 0110.8 0"/>
    <path clip-path="url(#rare-x-logo_svg__b)" fill="#85CCB0" d="M1135.7 140.2a6.8 6.8 0 1113.6 0 6.8 6.8 0 01-13.6 0"/>
    <path clip-path="url(#rare-x-logo_svg__b)" fill="#EF4D58" d="M1150 154a5.6 5.6 0 1111.4 0 5.6 5.6 0 01-11.3 0m34.9 16.8a7.3 7.3 0 11-14.6 0 7.3 7.3 0 0114.6 0m27.4-75.8a5.8 5.8 0 11-11.5 0 5.8 5.8 0 0111.5 0"/>
    <path clip-path="url(#rare-x-logo_svg__b)" fill="#FFC84B" d="M1229.7 106.6a5.8 5.8 0 11-11.5 0 5.8 5.8 0 0111.5 0"/>
    <path clip-path="url(#rare-x-logo_svg__b)" fill="#EF4D58" d="M1218.8 199.3a13.3 13.3 0 11-26.6 0 13.3 13.3 0 0126.6 0"/>
    <path clip-path="url(#rare-x-logo_svg__b)" fill="#26355C" d="M1182.4 187.3a11 11 0 11-22.1 0 11 11 0 0122 0"/>
    <path clip-path="url(#rare-x-logo_svg__b)" fill="#85CCB0" d="M1109.5 83a12.7 12.7 0 11-25.4 0 12.7 12.7 0 0125.4 0"/>
    <path clip-path="url(#rare-x-logo_svg__b)" fill="#EF4D58" d="M1339.7 148.3a16 16 0 11-32.1 0 16 16 0 0132 0"/>
    <path clip-path="url(#rare-x-logo_svg__b)" fill="#4E6988" d="M1326.4 112.1a5.6 5.6 0 11-11.1 0 5.6 5.6 0 0111.1 0"/>
    <path clip-path="url(#rare-x-logo_svg__b)" fill="#EF4D58" d="M1306.1 248.3a5.6 5.6 0 11-11.1 0 5.6 5.6 0 0111.1 0"/>
    <path clip-path="url(#rare-x-logo_svg__b)" fill="#85CCB0" d="M1323.2 122.5a5.6 5.6 0 11-11.2 0 5.6 5.6 0 0111.2 0"/>
    <path clip-path="url(#rare-x-logo_svg__b)" fill="#FFC84B" d="M1304.5 102.6a6.1 6.1 0 1112.2 0 6.1 6.1 0 01-12.2 0"/>
    <path clip-path="url(#rare-x-logo_svg__b)" fill="#85CCB0" d="M1326 86a6 6 0 11-12 0 6 6 0 0112 0"/>
    <path clip-path="url(#rare-x-logo_svg__b)" fill="#26355C" d="M1336.4 135.2a10.6 10.6 0 1121.2 0 10.6 10.6 0 01-21.2 0M1203.7 254a8.9 8.9 0 11-17.8 0 8.9 8.9 0 0117.8 0m44.9-9a5.4 5.4 0 11-10.8 0 5.4 5.4 0 0110.8 0m-38.6 55.8a7.6 7.6 0 11-15.2 0 7.6 7.6 0 0115.2 0"/>
    <path clip-path="url(#rare-x-logo_svg__b)" fill="#4E6988" d="M1190 312a7.5 7.5 0 11-15.2 0 7.5 7.5 0 0115.1 0"/>
    <path clip-path="url(#rare-x-logo_svg__b)" fill="#FFC84B" d="M1205.5 320a8 8 0 1115.9 0 8 8 0 01-16 0"/>
    <path clip-path="url(#rare-x-logo_svg__b)" fill="#EF4D58" d="M1173.8 340.9a8 8 0 11-15.9 0 8 8 0 0116 0"/>
    <path clip-path="url(#rare-x-logo_svg__b)" fill="#26355C" d="M1154.4 371a5.9 5.9 0 1111.8 0 5.9 5.9 0 01-11.8 0m44.6-2.9a9.7 9.7 0 11-19.5 0 9.7 9.7 0 0119.4 0"/>
    <path clip-path="url(#rare-x-logo_svg__b)" fill="#EF4D58" d="M1229.6 357.2a10.4 10.4 0 11-18.6 9.1 10.4 10.4 0 0118.6-9.1"/>
    <path clip-path="url(#rare-x-logo_svg__b)" fill="#4E6988" d="M1269.7 315.7a18.2 18.2 0 11-36.4 0 18.2 18.2 0 0136.4 0"/>
    <path clip-path="url(#rare-x-logo_svg__b)" fill="#26355C" d="M1234.3 340.4a7.8 7.8 0 11-15.7 0 7.8 7.8 0 0115.7 0m31.9-14.4a7.8 7.8 0 1115.7 0 7.8 7.8 0 01-15.7 0"/>
    <path clip-path="url(#rare-x-logo_svg__b)" fill="#EF4D58" d="M1287.3 348.7a10 10 0 11-19.9 0 10 10 0 0120 0"/>
    <path clip-path="url(#rare-x-logo_svg__b)" fill="#26355C" d="M1258.3 286a12 12 0 11-24 0 12 12 0 0124 0m19.7-72.4a10 10 0 11-20 0 10 10 0 0120 0"/>
    <path clip-path="url(#rare-x-logo_svg__b)" fill="#FFC84B" d="M1295.1 266.8a12.7 12.7 0 11-25.4 0 12.7 12.7 0 0125.4 0"/>
    <path clip-path="url(#rare-x-logo_svg__b)" fill="#85CCB0" d="M1268 227.7a10.5 10.5 0 11-21 0 10.5 10.5 0 0121 0"/>
    <path clip-path="url(#rare-x-logo_svg__b)" fill="#26355C" d="M1295.1 294a6.7 6.7 0 1113.5 0 6.7 6.7 0 01-13.5 0m-3.7-22.7a11 11 0 1122.1 0 11 11 0 01-22.1 0"/>
    <path clip-path="url(#rare-x-logo_svg__b)" fill="#85CCB0" d="M1275.6 309.6a16.5 16.5 0 1133 0 16.5 16.5 0 01-33 0"/>
    <path clip-path="url(#rare-x-logo_svg__b)" fill="#FFC84B" d="M1336.4 322.4a16.4 16.4 0 11-32.8 0 16.4 16.4 0 0132.8 0"/>
    <path clip-path="url(#rare-x-logo_svg__b)" fill="#4E6988" d="M1341.7 358.7a7.7 7.7 0 11-15.3 0 7.7 7.7 0 0115.3 0M1210 266.8a7.7 7.7 0 11-15.4 0 7.7 7.7 0 0115.4 0"/>
    <path clip-path="url(#rare-x-logo_svg__b)" fill="#FFC84B" d="M1328.8 392a12.1 12.1 0 11-24.2 0 12.1 12.1 0 0124.2 0m-137.7-240.4a7.7 7.7 0 11-15.3 0 7.7 7.7 0 0115.3 0"/>
    <path clip-path="url(#rare-x-logo_svg__b)" fill="#85CCB0" d="M1309.5 396.4a7.7 7.7 0 11-15.3 0 7.7 7.7 0 0115.3 0m81.7-27.4a7.7 7.7 0 11-15.3 0 7.7 7.7 0 0115.3 0"/>
    <path clip-path="url(#rare-x-logo_svg__b)" fill="#26355C" d="M1228.3 381.8a8 8 0 11-16 0 8 8 0 0116 0"/>
    <path clip-path="url(#rare-x-logo_svg__b)" fill="#EF4D58" d="M1189.2 394.1a14.7 14.7 0 11-29.5 0 14.7 14.7 0 0129.5 0"/>
    <path clip-path="url(#rare-x-logo_svg__b)" fill="#85CCB0" d="M1156.9 408.9a10.5 10.5 0 11-21 0 10.5 10.5 0 0121 0"/>
    <path clip-path="url(#rare-x-logo_svg__b)" fill="#26355C" d="M1138.5 429.1a7 7 0 11-14 0 7 7 0 0114 0"/>
    <path clip-path="url(#rare-x-logo_svg__b)" fill="#FFC84B" d="M1165.5 435.7a17.4 17.4 0 11-34.7 0 17.4 17.4 0 0134.7 0"/>
    <path clip-path="url(#rare-x-logo_svg__b)" fill="#26355C" d="M1202.3 422.3a8.6 8.6 0 11-17.3 0 8.6 8.6 0 0117.3 0"/>
    <path clip-path="url(#rare-x-logo_svg__b)" fill="#4E6988" d="M1180.3 444.5a8.9 8.9 0 11-17.7 0 8.9 8.9 0 0117.7 0"/>
    <path clip-path="url(#rare-x-logo_svg__b)" fill="#FFC84B" d="M1211.6 436.7a9.8 9.8 0 1119.6 0 9.8 9.8 0 01-19.6 0"/>
    <path clip-path="url(#rare-x-logo_svg__b)" fill="#EF4D58" d="M1206.6 442.2a6.6 6.6 0 11-13.1 0 6.6 6.6 0 0113 0"/>
    <path clip-path="url(#rare-x-logo_svg__b)" fill="#26355C" d="M1199.6 459.4a9 9 0 1118 0 9 9 0 01-18 0m67.1-82.4a16 16 0 11-31.8 0 16 16 0 0131.8 0"/>
    <path clip-path="url(#rare-x-logo_svg__b)" fill="#FFC84B" d="M1243.2 268.7a17 17 0 11-34 0 17 17 0 0134 0m-27.8 131.8a7.6 7.6 0 11-15.3 0 7.6 7.6 0 0115.3 0"/>
    <path clip-path="url(#rare-x-logo_svg__b)" fill="#85CCB0" d="M1246.6 410.4a13.1 13.1 0 11-26.3 0 13.1 13.1 0 0126.3 0"/>
    <path clip-path="url(#rare-x-logo_svg__b)" fill="#26355C" d="M1151.2 467.6a8.2 8.2 0 11-16.4 0 8.2 8.2 0 0116.4 0"/>
    <path clip-path="url(#rare-x-logo_svg__b)" fill="#85CCB0" d="M1171.7 464.7a7.5 7.5 0 11-15 0 7.5 7.5 0 0115 0m24 1.9a7.6 7.6 0 11-15.2 0 7.6 7.6 0 0115.2 0"/>
    <path clip-path="url(#rare-x-logo_svg__b)" fill="#EF4D58" d="M1205.3 479.8a8.6 8.6 0 11-17.1 0 8.6 8.6 0 0117.1 0"/>
    <path clip-path="url(#rare-x-logo_svg__b)" fill="#4E6988" d="M1192.5 493.8a7.4 7.4 0 11-14.8 0 7.4 7.4 0 0114.8 0"/>
    <path clip-path="url(#rare-x-logo_svg__b)" fill="#FFC84B" d="M1172.7 515a14.2 14.2 0 11-28.3 0 14.2 14.2 0 0128.3 0"/>
    <path clip-path="url(#rare-x-logo_svg__b)" fill="#85CCB0" d="M1117.7 492.9a6.3 6.3 0 11-12.6 0 6.3 6.3 0 0112.6 0"/>
    <path clip-path="url(#rare-x-logo_svg__b)" fill="#EF4D58" d="M1112.9 497.7a13.2 13.2 0 1126.5 0 13.2 13.2 0 01-26.5 0"/>
    <path clip-path="url(#rare-x-logo_svg__b)" fill="#26355C" d="M1170.5 495.3a11.8 11.8 0 11-23.5 0 11.8 11.8 0 0123.5 0"/>
    <path clip-path="url(#rare-x-logo_svg__b)" fill="#EF4D58" d="M1122.2 464.6a7.7 7.7 0 11-15.4 0 7.7 7.7 0 0115.4 0"/>
    <path clip-path="url(#rare-x-logo_svg__b)" fill="#26355C" d="M1095 503.8a4.4 4.4 0 11-8.8 0 4.4 4.4 0 018.8 0"/>
    <path clip-path="url(#rare-x-logo_svg__b)" fill="#85CCB0" d="M1114.6 440.9a8.5 8.5 0 11-17 0 8.5 8.5 0 0117 0"/>
    <path clip-path="url(#rare-x-logo_svg__b)" fill="#26355C" d="M1126.1 515a15.5 15.5 0 11-31 0 15.5 15.5 0 0131 0"/>
    <path clip-path="url(#rare-x-logo_svg__b)" fill="#FFC84B" d="M1121.8 425.2a7.2 7.2 0 11-14.5 0 7.2 7.2 0 0114.5 0"/>
    <path clip-path="url(#rare-x-logo_svg__b)" fill="#26355C" d="M1093.2 480.4a9.2 9.2 0 11-18.5 0 9.2 9.2 0 0118.5 0"/>
    <path clip-path="url(#rare-x-logo_svg__b)" fill="#FFC84B" d="M1123.5 474a6.3 6.3 0 11-12.7 0 6.3 6.3 0 0112.7 0"/>
    <path clip-path="url(#rare-x-logo_svg__b)" fill="#4E6988" d="M1092.7 497.7a11.9 11.9 0 11-23.7 0 11.9 11.9 0 0123.7 0"/>
    <path clip-path="url(#rare-x-logo_svg__b)" fill="#85CCB0" d="M1138 525.3a5.4 5.4 0 11-10.8 0 5.4 5.4 0 0110.8 0"/>
    <path clip-path="url(#rare-x-logo_svg__b)" fill="#EF4D58" d="M1147.4 384.8a8 8 0 11-16.1 0 8 8 0 0116.1 0"/>
    <path clip-path="url(#rare-x-logo_svg__b)" fill="#85CCB0" d="M1156.6 360.4a5.4 5.4 0 11-10.9 0 5.4 5.4 0 0110.9 0"/>
    <path clip-path="url(#rare-x-logo_svg__b)" fill="#26355C" d="M1129.2 404a4.6 4.6 0 11-9.3 0 4.6 4.6 0 019.3 0"/>
    <path clip-path="url(#rare-x-logo_svg__b)" fill="#85CCB0" d="M1071 520.5a9.3 9.3 0 11-18.6 0 9.3 9.3 0 0118.6 0"/>
    <path clip-path="url(#rare-x-logo_svg__b)" fill="#FFC84B" d="M1088 524.2a6.6 6.6 0 11-13.2 0 6.6 6.6 0 0113.1 0"/>
    <path clip-path="url(#rare-x-logo_svg__b)" fill="#26355C" d="M1106.7 450.4a7.4 7.4 0 11-14.8 0 7.4 7.4 0 0114.8 0M1341.5 199a12 12 0 11-24 0 12 12 0 0124 0m35.2-70.6a6 6 0 11-12.1 0 6 6 0 0112.1 0m-77 308a8.8 8.8 0 1117.7.7 8.8 8.8 0 01-17.7-.7"/>
    <path clip-path="url(#rare-x-logo_svg__b)" fill="#FFC84B" d="M1267.7 384a9.6 9.6 0 1119.2 0 9.6 9.6 0 01-19.2 0"/>
    <path clip-path="url(#rare-x-logo_svg__b)" fill="#85CCB0" d="M1295 371a10.5 10.5 0 11-21.2 0 10.5 10.5 0 0121.1 0"/>
    <path clip-path="url(#rare-x-logo_svg__b)" fill="#FFC84B" d="M1289 373.6a9.8 9.8 0 1119.6 0 9.8 9.8 0 01-19.6 0"/>
    <path clip-path="url(#rare-x-logo_svg__b)" fill="#EF4D58" d="M1316 436.1a8.7 8.7 0 1117.3 0 8.7 8.7 0 01-17.3 0"/>
    <path clip-path="url(#rare-x-logo_svg__b)" fill="#FFC84B" d="M1284.2 413.6a6.3 6.3 0 1012.6 0 6.3 6.3 0 00-12.6 0"/>
    <path clip-path="url(#rare-x-logo_svg__b)" fill="#26355C" d="M1327 412.3a8.4 8.4 0 1116.7 0 8.4 8.4 0 01-16.7 0"/>
    <path clip-path="url(#rare-x-logo_svg__b)" fill="#EF4D58" d="M1360.2 377a16.6 16.6 0 11-33.2 0 16.6 16.6 0 0133.2 0m-30.7-98.7a8.2 8.2 0 11-16.5 0 8.2 8.2 0 0116.5 0"/>
    <path clip-path="url(#rare-x-logo_svg__b)" fill="#26355C" d="M1370.7 358.7a7.4 7.4 0 11-15 0 7.4 7.4 0 0115 0"/>
    <path clip-path="url(#rare-x-logo_svg__b)" fill="#4E6988" d="M1359 381.3a12.3 12.3 0 1124.6 0 12.3 12.3 0 01-24.5 0"/>
    <path clip-path="url(#rare-x-logo_svg__b)" fill="#26355C" d="M1354.8 522.9a6.2 6.2 0 1112.5 0 6.2 6.2 0 01-12.5 0m22.3-123.9a7.1 7.1 0 1114.2 0 7.1 7.1 0 01-14.2 0"/>
    <path clip-path="url(#rare-x-logo_svg__b)" fill="#EF4D58" d="M1255.5 293.1a14 14 0 1128 0 14 14 0 01-28 0"/>
    <path clip-path="url(#rare-x-logo_svg__b)" fill="#85CCB0" d="M1235.2 300.7a15.2 15.2 0 11-30.5 0 15.2 15.2 0 0130.5 0m-29.3-82.4a14.7 14.7 0 11-29.3 0 14.7 14.7 0 0129.3 0"/>
    <path clip-path="url(#rare-x-logo_svg__b)" fill="#EF4D58" d="M1289.5 127.3a7.2 7.2 0 1114.3 0 7.2 7.2 0 01-14.3 0"/>
    <path clip-path="url(#rare-x-logo_svg__b)" fill="#26355C" d="M1297.4 154.5a7 7 0 1113.9 0 7 7 0 01-14 0"/>
    <path clip-path="url(#rare-x-logo_svg__b)" fill="#85CCB0" d="M1290.1 182.1a7.5 7.5 0 1114.9 0 7.5 7.5 0 01-14.9 0"/>
    <path clip-path="url(#rare-x-logo_svg__b)" fill="#4E6988" d="M1301.8 207a9.4 9.4 0 11-18.7 0 9.4 9.4 0 0118.7 0"/>
    <path clip-path="url(#rare-x-logo_svg__b)" fill="#85CCB0" d="M1285.5 226.4a12 12 0 1124 0 12 12 0 01-24 0m17 28.1a13.7 13.7 0 1127.4 0 13.7 13.7 0 01-27.4 0m-99.3 89.9a16.9 16.9 0 11-33.8 0 16.9 16.9 0 0133.8 0m-23.9 73.6a5.6 5.6 0 11-11.3 0 5.6 5.6 0 0111.3 0"/>
    <path clip-path="url(#rare-x-logo_svg__b)" fill="#4E6988" d="M1198.4 396.4a9 9 0 11-17.9 0 9 9 0 0118 0m112.9-42.9a8.2 8.2 0 11-16.5 0 8.2 8.2 0 0116.5 0"/>
    <path clip-path="url(#rare-x-logo_svg__b)" fill="#EF4D58" d="M1321.7 410.7a8.2 8.2 0 11-16.4 0 8.2 8.2 0 0116.4 0"/>
    <path clip-path="url(#rare-x-logo_svg__b)" fill="#85CCB0" d="M1236.5 255.9a9 9 0 11-18 0 9 9 0 0118 0"/>
    <path clip-path="url(#rare-x-logo_svg__b)" fill="#FFC84B" d="M1175 135.7a5.3 5.3 0 11-10.5 0 5.3 5.3 0 0110.5 0m-23.5-47a14 14 0 11-28 0 14 14 0 0128 0"/>
    <path clip-path="url(#rare-x-logo_svg__b)" fill="#85CCB0" d="M1206.1 170.3a7.8 7.8 0 11-15.5 0 7.8 7.8 0 0115.5 0"/>
    <path clip-path="url(#rare-x-logo_svg__b)" fill="#EF4D58" d="M1346.2 71.3a11 11 0 11-21.9 0 11 11 0 0121.9 0"/>
    <path clip-path="url(#rare-x-logo_svg__b)" fill="#4E6988" d="M1479.7 27.9a9.2 9.2 0 11-18.3 0 9.2 9.2 0 0118.3 0"/>
    <path clip-path="url(#rare-x-logo_svg__b)" fill="#85CCB0" d="M1410.8 77.6a5 5 0 11-9.8 0 5 5 0 019.8 0"/>
    <path clip-path="url(#rare-x-logo_svg__b)" fill="#FFC84B" d="M1435.7 50.4a6.6 6.6 0 11-13.2 0 6.6 6.6 0 0113.2 0"/>
    <path clip-path="url(#rare-x-logo_svg__b)" fill="#EF4D58" d="M1455.8 34.2a6.2 6.2 0 11-12.5 0 6.2 6.2 0 0112.5 0"/>
    <path clip-path="url(#rare-x-logo_svg__b)" fill="#85CCB0" d="M1458.8 63.2a15.4 15.4 0 11-30.9 0 15.4 15.4 0 0130.9 0M1371.2 26a8 8 0 11-16.2 0 8 8 0 0116.2 0"/>
    <path clip-path="url(#rare-x-logo_svg__b)" fill="#26355C" d="M1413.4 35.8a14.6 14.6 0 11-29.3 0 14.6 14.6 0 0129.3 0"/>
    <path clip-path="url(#rare-x-logo_svg__b)" fill="#EF4D58" d="M1395.1 124.6a13.2 13.2 0 1126.3 0 13.2 13.2 0 01-26.3 0"/>
    <path clip-path="url(#rare-x-logo_svg__b)" fill="#85CCB0" d="M1373.7 46.7a5.9 5.9 0 1111.8 0 5.9 5.9 0 01-11.8 0"/>
    <path clip-path="url(#rare-x-logo_svg__b)" fill="#FFC84B" d="M1341.4 43.8a9.3 9.3 0 1118.6 0 9.3 9.3 0 01-18.6 0"/>
    <path clip-path="url(#rare-x-logo_svg__b)" fill="#26355C" d="M1359.3 59.6a13 13 0 1125.9 0 13 13 0 01-26 0"/>
    <path clip-path="url(#rare-x-logo_svg__b)" fill="#4E6988" d="M1356.6 62.7a5.1 5.1 0 11-10.1 0 5.1 5.1 0 0110.1 0"/>
    <path clip-path="url(#rare-x-logo_svg__b)" fill="#85CCB0" d="M1337 72.2a6.1 6.1 0 1112.3 0 6.1 6.1 0 01-12.3 0"/>
    <path clip-path="url(#rare-x-logo_svg__b)" fill="#4E6988" d="M1391.4 69.4a6.7 6.7 0 11-13.3 0 6.7 6.7 0 0113.3 0m-246.2-12.8a6.7 6.7 0 11-13.4 0 6.7 6.7 0 0113.4 0"/>
    <path clip-path="url(#rare-x-logo_svg__b)" fill="#26355C" d="M1422.5 74.9a7.1 7.1 0 11-14.2 0 7.1 7.1 0 0114.2 0"/>
    <path clip-path="url(#rare-x-logo_svg__b)" fill="#FFC84B" d="M1411.9 95.6a6.3 6.3 0 1112.6 0 6.3 6.3 0 01-12.6 0"/>
    <path clip-path="url(#rare-x-logo_svg__b)" fill="#85CCB0" d="M1423 31a3.6 3.6 0 117.2 0 3.6 3.6 0 01-7.3 0"/>
    <path clip-path="url(#rare-x-logo_svg__b)" fill="#EF4D58" d="M1418.4 33.6a7.8 7.8 0 110-15.5 7.8 7.8 0 010 15.5"/>
    <path clip-path="url(#rare-x-logo_svg__b)" fill="#4E6988" d="M1401 108.4a4.5 4.5 0 119 0 4.5 4.5 0 01-9 0"/>
    <path clip-path="url(#rare-x-logo_svg__b)" fill="#85CCB0" d="M1380.6 98.8a6.8 6.8 0 1113.5 0 6.8 6.8 0 01-13.5 0"/>
    <path clip-path="url(#rare-x-logo_svg__b)" fill="#FFC84B" d="M1347.6 103.8a19.2 19.2 0 1138.5 0 19.2 19.2 0 01-38.5 0m56.8-45.4a4.8 4.8 0 11-9.6 0 4.8 4.8 0 019.6 0"/>
    <path clip-path="url(#rare-x-logo_svg__b)" fill="#4E6988" d="M1358 102a14.7 14.7 0 11-29.3 0 14.7 14.7 0 0129.3 0"/>
    <path clip-path="url(#rare-x-logo_svg__b)" fill="#85CCB0" d="M1382.8 120.8a3.9 3.9 0 117.7 0 3.9 3.9 0 01-7.7 0m11.5 34.4a5.3 5.3 0 1110.7 0 5.3 5.3 0 01-10.7 0"/>
    <path clip-path="url(#rare-x-logo_svg__b)" fill="#EF4D58" d="M1373.8 161.4a8.3 8.3 0 1116.6 0 8.3 8.3 0 01-16.6 0"/>
    <path clip-path="url(#rare-x-logo_svg__b)" fill="#4E6988" d="M1384.1 142.9a5.2 5.2 0 11-10.4 0 5.2 5.2 0 0110.4 0m56.7-50.9a5.2 5.2 0 11-10.3 0 5.2 5.2 0 0110.3 0"/>
    <path clip-path="url(#rare-x-logo_svg__b)" fill="#EF4D58" d="M1370.7 147.7a5.7 5.7 0 11-11.4 0 5.7 5.7 0 0111.4 0"/>
    <path clip-path="url(#rare-x-logo_svg__b)" fill="#85CCB0" d="M1387.1 184.7a5.9 5.9 0 11-11.8 0 5.9 5.9 0 0111.8 0m-42.6 37.8a5.9 5.9 0 11-11.7 0 5.9 5.9 0 0111.7 0m-4.8-54.1a8.6 8.6 0 11-17.3 0 8.6 8.6 0 0117.3 0"/>
    <path clip-path="url(#rare-x-logo_svg__b)" fill="#FFC84B" d="M1357.6 165.8a11.3 11.3 0 11-22.6 0 11.3 11.3 0 0122.6 0"/>
    <path clip-path="url(#rare-x-logo_svg__b)" fill="#85CCB0" d="M1373 197.7a13.7 13.7 0 11-27.4 0 13.7 13.7 0 0127.4 0m-16.4-20.5a5.1 5.1 0 11-10.1 0 5.1 5.1 0 0110.1 0"/>
    <path clip-path="url(#rare-x-logo_svg__b)" fill="#4E6988" d="M1369 214.4a6.8 6.8 0 11-13.6 0 6.8 6.8 0 0113.6 0"/>
    <path clip-path="url(#rare-x-logo_svg__b)" fill="#26355C" d="M1354.4 237.2a13 13 0 11-25.9 0 13 13 0 0126 0"/>
    <path clip-path="url(#rare-x-logo_svg__b)" fill="#85CCB0" d="M1335.4 314.6a5.4 5.4 0 11-10.8 0 5.4 5.4 0 0110.8 0m8.1-55.5a5.4 5.4 0 11-10.9 0 5.4 5.4 0 0110.9 0m33.2 152.7a15 15 0 11-30 0 15 15 0 0130 0m-30 35.8a10.9 10.9 0 11-21.8 0 10.9 10.9 0 0121.8 0"/>
    <path clip-path="url(#rare-x-logo_svg__b)" fill="#26355C" d="M1325.5 461.3a5.5 5.5 0 11-11 0 5.5 5.5 0 0111 0"/>
    <path clip-path="url(#rare-x-logo_svg__b)" fill="#FFC84B" d="M1341.6 470.7a6.1 6.1 0 11-12.2 0 6.1 6.1 0 0112.2 0m18.8 5.5a5.5 5.5 0 11-11 0 5.5 5.5 0 0111 0m5.4-21.5a6.6 6.6 0 11-13.1 0 6.6 6.6 0 0113.1 0"/>
    <path clip-path="url(#rare-x-logo_svg__b)" fill="#EF4D58" d="M1358.2 433.3a5.7 5.7 0 11-11.5 0 5.7 5.7 0 0111.5 0"/>
    <path clip-path="url(#rare-x-logo_svg__b)" fill="#4E6988" d="M1375.4 440.4a4.8 4.8 0 11-9.6 0 4.8 4.8 0 019.6 0"/>
    <path clip-path="url(#rare-x-logo_svg__b)" fill="#26355C" d="M1387 459.1a5.8 5.8 0 11-11.6 0 5.8 5.8 0 0111.5 0"/>
    <path clip-path="url(#rare-x-logo_svg__b)" fill="#EF4D58" d="M1378.5 436.7a5.7 5.7 0 1111.4 0 5.7 5.7 0 01-11.4 0"/>
    <path clip-path="url(#rare-x-logo_svg__b)" fill="#FFC84B" d="M1390 418a5.6 5.6 0 1111.2 0 5.6 5.6 0 01-11.3 0m-95-230.7a12.7 12.7 0 11-25.4 0 12.7 12.7 0 0125.4 0m82.4 159.7a11.5 11.5 0 11-23 0 11.5 11.5 0 0123 0M1184.4 64.7a8.3 8.3 0 11-16.5 0 8.3 8.3 0 0116.5 0m233.8 385.2a3.7 3.7 0 11-7.4 0 3.7 3.7 0 017.4 0"/>
    <path clip-path="url(#rare-x-logo_svg__b)" fill="#EF4D58" d="M1413 453.4a5.4 5.4 0 11-11 0 5.4 5.4 0 0111 0"/>
    <path clip-path="url(#rare-x-logo_svg__b)" fill="#26355C" d="M1409.4 434a6.8 6.8 0 11-13.7 0 6.8 6.8 0 0113.7 0m19.1 38.2a8.2 8.2 0 11-16.4 0 8.2 8.2 0 0116.4 0"/>
    <path clip-path="url(#rare-x-logo_svg__b)" fill="#FFC84B" d="M1448.5 516.1a3.3 3.3 0 11-6.7 0 3.3 3.3 0 016.7 0"/>
    <path clip-path="url(#rare-x-logo_svg__b)" fill="#85CCB0" d="M1459.7 525.3a4.4 4.4 0 11-8.8 0 4.4 4.4 0 018.8 0"/>
    <path clip-path="url(#rare-x-logo_svg__b)" fill="#EF4D58" d="M1464 492.9a13 13 0 11-26.2 0 13 13 0 0126.1 0"/>
    <path clip-path="url(#rare-x-logo_svg__b)" fill="#4E6988" d="M1443.9 458.5a10.6 10.6 0 11-21.1 0 10.6 10.6 0 0121.1 0"/>
    <path clip-path="url(#rare-x-logo_svg__b)" fill="#FFC84B" d="M1432.5 519.8a11 11 0 11-22 0 11 11 0 0122 0"/>
    <path clip-path="url(#rare-x-logo_svg__b)" fill="#26355C" d="M1409.7 495.5a4.3 4.3 0 11-8.6 0 4.3 4.3 0 018.6 0"/>
    <path clip-path="url(#rare-x-logo_svg__b)" fill="#85CCB0" d="M1428.1 431a10.1 10.1 0 11-20.2 0 10.1 10.1 0 0120.2 0"/>
    <path clip-path="url(#rare-x-logo_svg__b)" fill="#4E6988" d="M1379.4 486.9a22 22 0 11-44 0 22 22 0 0144 0m94 23.1a5.2 5.2 0 11-10.4 0 5.2 5.2 0 0110.4 0"/>
    <path clip-path="url(#rare-x-logo_svg__b)" fill="#FFC84B" d="M1376.2 506.8a5.2 5.2 0 11-10.4 0 5.2 5.2 0 0110.4 0"/>
    <path clip-path="url(#rare-x-logo_svg__b)" fill="#EF4D58" d="M1373.8 472.7a6 6 0 11-11.9 0 6 6 0 0111.9 0m105.5 51.1a6 6 0 11-11.8 0 6 6 0 0111.8 0"/>
    <path clip-path="url(#rare-x-logo_svg__b)" fill="#85CCB0" d="M1389.2 481.8a4.6 4.6 0 11-9.2 0 4.6 4.6 0 019.2 0"/>
    <path clip-path="url(#rare-x-logo_svg__b)" fill="#EF4D58" d="M1406.3 462a9.2 9.2 0 11-18.3 0 9.2 9.2 0 0118.3 0"/>
    <path clip-path="url(#rare-x-logo_svg__b)" fill="#FFC84B" d="M1407.5 472.7a6 6 0 11-11.8 0 6 6 0 0111.8 0m-86.7-50a6 6 0 11-8.2 9 6 6 0 018.2-9m84.6-28.1a9.8 9.8 0 11-19.6 0 9.8 9.8 0 0119.6 0"/>
    <path clip-path="url(#rare-x-logo_svg__b)" fill="#26355C" d="M1334.2 298.5a7.5 7.5 0 1115 0 7.5 7.5 0 01-15 0"/>
    <path clip-path="url(#rare-x-logo_svg__b)" fill="#FFC84B" d="M1377.5 526.2a4 4 0 11-7.9 0 4 4 0 018 0m-40.9-134.7a4.3 4.3 0 118.5 0 4.3 4.3 0 01-8.5 0"/>
    <path clip-path="url(#rare-x-logo_svg__b)" fill="#4E6988" d="M1433.6 525.3a5 5 0 1110 0 5 5 0 01-10 0"/>
    <path clip-path="url(#rare-x-logo_svg__b)" fill="#85CCB0" d="M1411.5 503a13 13 0 1126.1 0 13 13 0 01-26.1 0"/>
    <path clip-path="url(#rare-x-logo_svg__b)" fill="#FFC84B" d="M1436.5 487.5a5.7 5.7 0 11-11.5 0 5.7 5.7 0 0111.5 0"/>
    <path clip-path="url(#rare-x-logo_svg__b)" fill="#EF4D58" d="M1413.5 513.2a17.8 17.8 0 11-35.5 0 17.8 17.8 0 0135.5 0"/>
    <path clip-path="url(#rare-x-logo_svg__b)" fill="#4E6988" d="M1064.2 292.2h-124a2.7 2.7 0 01-2.8-2.7V237c0-1.5 1.2-2.8 2.7-2.8h124.1c1.5 0 2.8 1.3 2.8 2.8v52.5c0 1.5-1.3 2.7-2.8 2.7"/>
    <path clip-path="url(#rare-x-logo_svg__b)" fill="#26355C" d="M929.7 166.8h142.2c2.8 0 4.3-1.4 4.3-4.3v-47.3c0-2.8-1.9-4.2-5.6-4.2H925c-20 0-35.4 6-46 18.2a69.7 69.7 0 00-15.9 47.5v197.1c0 5.5 1.2 10.8 3.7 16.1a53.8 53.8 0 0023.4 25c5.1 2.7 10.3 4 15.4 4H1072c2.8 0 4.3-1.4 4.3-4.3v-47.2c0-2.9-1.5-4.3-4.3-4.3H929.7c-2.9 0-4.3-1.4-4.3-4.3V171.5c0-3.1 1.4-4.7 4.3-4.7M250.8 413.1a14.7 14.7 0 01-3.2-6.2L224 334.3c-2.3-6.9-4.8-13.5-7.5-20-2.8-6.4-7.4-14-14-22.5-.3-.6-.4-1.2-.4-1.7 0-.9.2-1.6.6-2.2l1-1.3c7.5-4 13.4-8.3 17.7-13 4.3-4.8 8.4-10 12.5-15.7 6-11.5 9-29.8 9-55v-10c-.9-27.1-7.8-47.4-20.6-60.9a62.2 62.2 0 00-46.4-21H16c-2.9 0-4.3 1.4-4.3 4.2v299.4c0 2.9 1.4 4.3 4.3 4.3h53.7c2.8 0 4.3-1.4 4.3-4.3V309.4c0-2.9 1.4-4.3 4.3-4.3h52.4c12.3 1.7 20.4 10.6 24.5 26.6l26.6 75.2c.6 2 1.8 4.5 3.8 7.5 2 3 4 4.5 5.6 4.5h59.3c1.7 0 2.6-.7 2.6-2.1 0-.6-.8-1.8-2.4-3.7M179 224.4a32.5 32.5 0 01-9.2 15c-5 4-9.4 6-13.4 6H78.8c-3.2 0-4.7-1.4-4.7-4.3v-70c0-2.9 1.4-4.3 4.3-4.3h84.2c6.3.9 11.7 6 16.3 15.5a29 29 0 012.8 9.2 85.3 85.3 0 01-2.6 32.9m298.3-88.1c-3.4-11.2-9.8-18.2-19.1-21-9.3-3-22.1-4.3-38.5-4.3a130 130 0 00-37.3 4.2c-9.2 3-15.5 10-19 21l-87.1 280.2c0 1.7 1.1 2.5 3.4 2.5h55.9c2.8 0 4.7-1.4 5.5-4.3l22.8-73.4c.9-3.2 2.7-4.7 5.6-4.7h101c2.8 0 4.7 1.4 5.5 4.3L499 415c.8 2.5 2.7 3.8 5.6 3.8h56.2c2 0 3-.8 3-2.5l-86.3-280.1zm-25.3 141.3h-64c-2.3 0-3.5-1-3.5-3 0-.3 0-.6.2-.9.2-.2.2-.7.2-1.2l30.1-98c1.7-5.1 3.3-7.7 4.7-7.7 1.5 0 2.5.5 3 1.5.6 1 1.3 3 2.2 6.2l30 98c0 .5.1 1 .3 1.2l.2 1c0 2-1.2 3-3.4 3m377.3 135.4a14.7 14.7 0 01-3.2-6.2l-23.6-72.6c-2.3-6.9-4.8-13.5-7.6-20-2.7-6.4-7.3-14-14-22.5l-.3-1.7c0-.9.2-1.6.6-2.2l1-1.3c7.5-4 13.4-8.3 17.7-13 4.3-4.8 8.4-10 12.4-15.7 6-11.5 9-29.8 9-55v-10c-.8-27.1-7.7-47.4-20.6-60.9a62.2 62.2 0 00-46.4-21H594.7c-2.9 0-4.3 1.4-4.3 4.2v299.4c0 2.9 1.4 4.3 4.3 4.3h53.7c2.8 0 4.3-1.4 4.3-4.3V309.4c0-2.9 1.4-4.3 4.2-4.3h52.4c12.4 1.7 20.5 10.6 24.5 26.6l26.7 75.2c.5 2 1.8 4.5 3.8 7.5 2 3 3.9 4.5 5.6 4.5h59.3c1.7 0 2.6-.7 2.6-2.1 0-.6-.8-1.8-2.4-3.7m-71.7-188.7a32.5 32.5 0 01-9.3 15c-4.8 4-9.3 6-13.3 6h-77.7c-3.2 0-4.7-1.4-4.7-4.3v-70c0-2.9 1.4-4.3 4.2-4.3h84.2c6.3.9 11.8 6 16.4 15.5a29 29 0 012.8 9.2 85.1 85.1 0 01-2.6 32.9"/>
</svg>
