<svg xmlns="http://www.w3.org/2000/svg" xmlns:xlink="http://www.w3.org/1999/xlink" viewBox="0 0 44.3 47">
    <defs>
        <path id="broad-square_svg__a" d="M1.9 2.1H42v43.4H1.9V2.1z"/>
    </defs>
    <use fill="#0079c1" overflow="visible" xlink:href="#broad-square_svg__a"/>
    <clipPath id="broad-square_svg__b">
        <use overflow="visible" xlink:href="#broad-square_svg__a"/>
    </clipPath>
    <path fill="#fff" d="M134.1 34.5c-2-2.1-4.1-4.1-6.2-6a75 75 0 0 0 5-4.8l1.2 1.1-1.2-1.2.5-.5-.5.4a111 111 0 0 0-5-4.7c1.9-1.7 3.7-3.4 5.5-5.3l-5.8 5A78.8 78.8 0 0 0 122 14a84 84 0 0 0 11.4-10.1 85.8 85.8 0 0 1-12.1 9.5A92.7 92.7 0 0 0 67.4-4a90.6 90.6 0 0 0-53.9 17.7C9 10.7 4.8 7.4 1 3.8c3.6 3.8 7.6 7.3 11.8 10.4a78.8 78.8 0 0 0-5.6 4.5A81.9 81.9 0 0 1 1 13.4 78 78 0 0 0 6.9 19a111 111 0 0 0-5 4.7l-.9-.8.8.8-.8.9.9-.8c1.6 1.7 3.3 3.2 5 4.8L1 34.2c2-1.9 4.1-3.6 6.2-5.3 1.8 1.6 3.7 3.1 5.6 4.5A89.6 89.6 0 0 0 1 43.8c3.9-3.6 8.1-6.9 12.6-9.8a91 91 0 0 0 107.6 0c4.6 3 9 6.4 13 10.2A95.4 95.4 0 0 0 122 33.5c1.9-1.4 3.8-2.9 5.6-4.5 2.2 1.6 4.4 3.5 6.5 5.5zm-1.2-10.8a74.2 74.2 0 0 1-5.3 4.5 78.8 78.8 0 0 0-5.6-4.5c1.9-1.4 3.8-2.9 5.6-4.5l5.3 4.5zm-5.7-4.7l-5.9 4.3-6.3-4.2c2.2-1.3 4.3-2.8 6.3-4.3 2 1.3 4 2.7 5.9 4.2zm-59.8-3.8A90.5 90.5 0 0 0 31 22.8a78 78 0 0 1-8.3-3.8 99.1 99.1 0 0 1 89.4.1c-2.7 1.4-5.5 2.6-8.3 3.8a89.3 89.3 0 0 0-36.4-7.7zm33.5 8.7a99.9 99.9 0 0 1-67 0 99.9 99.9 0 0 1 67 0zm-72.2 0a67.2 67.2 0 0 0-7.5 4 93 93 0 0 1-6.8-4l6.8-4a132 132 0 0 0 7.5 4zm2.3 1a90 90 0 0 0 72.6 0c2.8 1.1 5.6 2.4 8.3 3.7a97.8 97.8 0 0 1-44.6 10.6 97.8 97.8 0 0 1-44.6-10.6c2.7-1.3 5.5-2.6 8.3-3.7zm75-1.1a89 89 0 0 0 7.5-4 93 93 0 0 1 6.8 4 93 93 0 0 1-6.8 4 89 89 0 0 0-7.5-4zM67.4-1.1c19.7 0 37.9 5.7 53 15.3a93 93 0 0 1-6.8 4 91.2 91.2 0 0 0-92.4 0 93 93 0 0 1-6.8-4 97.4 97.4 0 0 1 53-15.3zM13.5 14.8l6.4 4.3a69 69 0 0 0-6.3 4.2l-6-4.3c1.9-1.5 3.8-2.9 5.9-4.2zm-11.6 9c1.7-1.6 3.5-3 5.3-4.5 1.8 1.6 3.7 3.1 5.6 4.5a78.8 78.8 0 0 0-5.6 4.5 249 249 0 0 1-5.3-4.5zm5.7 4.8c1.9-1.5 3.9-2.9 5.9-4.2l6.4 4.3a69 69 0 0 0-6.3 4.2 91.9 91.9 0 0 1-6-4.3zm59.7 20.2a97.4 97.4 0 0 1-52.9-15.4l6.8-4a89.9 89.9 0 0 0 92.3 0 93 93 0 0 1 6.8 4 97.5 97.5 0 0 1-53 15.4zm53.9-16l-6.3-4.2c2.2-1.3 4.3-2.8 6.3-4.3 2 1.3 4 2.7 5.9 4.2-1.9 1.6-3.8 3-5.9 4.3z" clip-path="url(#broad-square_svg__b)"/>
</svg>
