<svg xmlns="http://www.w3.org/2000/svg" viewBox="0 0 304 211.2">
    <path fill="#7785AB" d="M126.9 205.1L0 168.1V43.3L126.9 6.5zM304 155.4l-168.2 49.7V6.5L304 55.9z"/>
    <path fill="#FFF" d="M97.8 144.9c0 13.3-11.5 21.7-24.5 19a26.3 26.3 0 0 1-20.8-24.8c0-11.4 9-20.1 20.9-19.5a26 26 0 0 1 24.4 25.3zM69 58.1c0 9-7.1 17-15.4 17.9-7.8.8-13.7-5-13.7-13.1s6-15.9 13.8-17.6C62 43.4 69 49.1 69 58.1zm-42.6 64.7c0 5.6-3.8 9.7-8.3 9.1-4.3-.5-7.7-5.1-7.7-10.3 0-5.2 3.4-9.3 7.7-9.2 4.5.2 8.3 4.8 8.3 10.4z"/>
    <path fill="none" stroke="#FFF" stroke-miterlimit="10" stroke-width="5.6" d="M53.7 62l25.4 84.1-61.2-23.2z"/>
    <path fill="none" stroke="#FFF" stroke-linecap="round" stroke-miterlimit="10" stroke-width="4.5" d="M173.2 43.3v120.5m26.1-115.2v110M221.2 53v101.2M239.9 57v93.7m16-90.4v87.3m14-84.3v81.6m12.3-79.1v76.7m10.9-74.4v72.3" opacity=".4"/>
    <path fill="#7785AB" d="M174 33.2l-38.2-9.3V.2L174 12.1zm130 32.3l-11.6-2.8v-14l11.6 3.6zM126.9 22.7l-23 5.6V7.1l23-7.1zm-116.7 29L0 54.1V38.9l10.2-3.2zm116.6 159.5l-24.5-7.6v-21.9l24.5 5.9zM9.6 175L0 172v-14.9l9.6 2.3zM174 199.2l-38.1 11.9v-22.9l38.1-9.3zm129.9-40.5l-11.6 3.6v-11.7l11.6-2.9zM53.1 28.7c0 2.5-1.9 5.1-4.2 5.7-2.3.6-4.1-.9-4.1-3.3s1.8-5 4.1-5.7c2.3-.7 4.2.8 4.2 3.3zm0 154.5c0 2.5-1.9 4-4.2 3.3-2.3-.7-4.1-3.2-4.1-5.7s1.8-3.9 4.1-3.3c2.3.6 4.2 3.2 4.2 5.7z"/>
</svg>
