<svg xmlns="http://www.w3.org/2000/svg" viewBox="0 0 480.6 328.7">
    <path fill="#4e7dbf" d="M433 180.4c5-72.7-69.3-125.8-135.2-101.2a309 309 0 0 0 20.4 32.4c7 10.2 13.8 19.9 19.5 31a130.6 130.6 0 0 1 12.5 35.4 154 154 0 0 1 2.7 30c0 29.4-9.9 54.4-28.7 72.4a112.1 112.1 0 0 1-65.3 28.7 147.8 147.8 0 0 1-16.9 1 106.4 106.4 0 0 1-29.8-4.3 108.8 108.8 0 0 1-48.6-30.2c-14.5-15.5-25-34.9-30.9-57.6a149.2 149.2 0 0 1-2.3-66.5c1.3-6.7 8.7-39.7 24.4-39.7h.7a11 11 0 0 1 4.7 1.3c6 3.2 7.7 10 9.5 17.2.6 2.6 1.9 7.5 3.1 10 1.3-4.4 1.4-14.6 1.5-22.4.3-18.7.6-42 9.8-64.4a93 93 0 0 1 7-13.5c-41.8 5.5-80.2 36.8-83.4 86.5C51.4 123 2 167.8.1 224.2s44.6 104.5 101 104.5h92.3l93.8-.2 118.5-.2c82.5 0 104.5-118.4 27.3-147.9z"/>
    <path fill="#faa62a" d="M331 181.7a110 110 0 0 0-10.6-30.1c-5.2-10-11.5-19.2-18.2-28.9-9-13-18.4-26.4-26.4-43.9A112.4 112.4 0 0 1 268.4.3V0A116.8 116.8 0 0 0 256 5.3a148.8 148.8 0 0 0-23.1 14.5A73.5 73.5 0 0 0 216.1 38l-1.1 1.6-2.7 3.6A81 81 0 0 0 202 60.8c-7.8 19-8 40.3-8.3 57.4-.2 20.9-.5 42.5-20.6 42.5-12.2 0-17.5-9.5-20.3-18.1a98.8 98.8 0 0 0-3.4 12.7 129.6 129.6 0 0 0 2 57.8c5.1 19.5 14 36 26.3 49.2a89 89 0 0 0 39.8 24.7 99.2 99.2 0 0 0 39 2.6 93 93 0 0 0 54.1-23.4c15-14.4 22.7-34 22.7-58.3a135 135 0 0 0-2.3-26.2z"/>
</svg>
