<svg xmlns="http://www.w3.org/2000/svg" viewBox="0 0 193 47">
    <g fill="#005f6f">
        <path d="M180.2 3.9c0-.4 0-.8.4-1 .2-.2.4-.2.5-.2l.5.1c.4.3.4.7.4 1.1v2.8c0 .3.1 1.1 1 1.1l.6-.2c.4-.4.4-1 .4-1.5V3.8c0-.1 0-.6.4-.9l.5-.2c.1 0 .3 0 .5.2.4.3.4.8.4.9V8c0 .2.1 1.2-.9 1.2-.1 0-.6 0-.8-.4l-.1-.4-.2.3c-.2.3-.7.6-1.6.6-.4 0-1.4 0-1.9-1.1-.2-.4-.2-.7-.2-1.5l.1-2.8m10.3-.8l.2-.1c.1-.1.3-.3.6-.3.4 0 .8.4.8.8 0 .3-.2.5-.4.7l-1.2 1.1 1.4 2.2c.3.4.3.5.3.8l-.1.4a1 1 0 01-.9.5l-.4-.1c-.3-.1-.4-.4-.5-.6l-1.2-2-.6.6v1c0 .1 0 .7-.4.9l-.5.1a1 1 0 01-.7-.3c-.2-.3-.2-.7-.2-.8V1.2c0-.1.1-.5.4-.7l.5-.1c.4 0 .7.2.9.6v4.2l2-2.1M45.1 29.7c0 .8 0 1.3-.2 2.1a4.3 4.3 0 01-4.3 3.4c-.4 0-1.4-.1-2.4-.6-2.3-1.3-2.1-3.6-2.2-4.4v-16a5 5 0 01.9-3.1 4.4 4.4 0 017.9 1.1l.3 2.1v15.4m-.5-25.6c0 2.2-1.8 4.1-4.1 4.1a4.1 4.1 0 01-4.1-4.1c0-2.2 1.8-4.1 4.1-4.1 2.3.1 4.1 1.9 4.1 4.1m-15.9 6.7a10.5 10.5 0 00-5.6-1.7 8.3 8.3 0 00-6 2.2l-.7.8V4.6c0-.1 0-1-.3-1.7A4.4 4.4 0 0012 .1c-.5 0-1.9.1-3 1.2-1.5 1.4-1.5 3.2-1.5 5.2v5.8c0 .2-.1.1-.2 0l-.4-.2c-.3-.1-.5-.1-.7-.3-.3-.2-.5-.5-.5-.6l-.1-.3v-.7l.2-.1.2-.2s.1-.3 0-.4l-.1-.1h-.1c-.1 0 0 0 0 0v-.2c0-.1 0-.9-.5-1.2-.6-.4-.8-.4-1.2-.3-.3.1-.5.4-.6.6l-.3.5v.8c0 .1 0 0-.1 0l-.1.2.2.4.1.2.1.3.2.3c.1.1.3.2.3.4l-.1.5-1 .7c-.4.2-.7.4-.9.7l-.3.5-.6.8-.4.9-.1.9c.1.4.6.4.9.5l.6.2c.2.2 0 .6 0 .8l-.3 1.2-.1.6-.1.8c.1.5.4.5.5.8.1.4-.1.7-.1 1.1v1.1c0 1.2.3 2.4.1 3.5l-.1 1 .1 1.8v2.4c0 .2-.2.5-.4.6l-.5.2-.4.1-.3.1-.2.2v.2c.2.3.5.4.8.4l.9-.1c.3-.1.6-.3.9-.2h1.5c.3-.1.2-.6.1-.8l-.2-.7-.2-.8.1-.7.2-2 .1-.6v-.7c0-.3.2-.5.3-.8.2-.3.3.1.3.2l.2.8.2.7v1.4l-.4 2-.2 1 .1.5c.1.1.2.4.1.5v.1l-.1.1-.4.5c-.3.4-.1.8.3.8h.9l.6-.2c.2-.1.1-.3.3-.5l.4-.3.1-.3-.1-.4v-.3l.1-.1v-.7l.1-.8.1-.4.1-.2.1.1v.3l.1.5a4 4 0 002 2.9c1 .5 1.8.6 2.2.6.8 0 1.4-.2 1.7-.4 1.1-.4 1.7-1.2 2.3-2.2l1 .8 1.2.7a10 10 0 004.9 1.1c5.2 0 7.7-2.9 8.8-4.6 2.2-3.3 2.3-7.2 2.3-8.4-.1-4.5-1.5-9-5.3-11.6m-4.2 11.3c0 1.7-.3 4.3-1.4 5.7-1 1.2-2.3 1.2-2.8 1.2-2.6 0-3.4-2.1-3.6-2.9-.4-1.2-.5-2.6-.5-3.8 0-2 .2-4.6 1.7-6 .8-.8 1.6-.9 2.1-1 1.3-.1 2.6.5 3.3 1.5 1.2 1.9 1.2 4.9 1.2 5.3zM86 16.3c-1.5 1.5-1.7 4.1-1.7 6 0 1.3.1 2.6.5 3.8.2.8 1.1 2.9 3.6 2.9.5 0 1.9-.1 2.8-1.2 1.2-1.4 1.4-4 1.4-5.7 0-.4.1-3.4-1.3-5.2-.8-1.1-2-1.7-3.3-1.5-.4 0-1.2.1-2 .9m-1.5-4.1l.7-.8a9.7 9.7 0 0111.6-.5c3.8 2.6 5.2 7 5.2 11.4 0 1.2-.1 5.2-2.3 8.4a10.3 10.3 0 01-8.8 4.6c-2.5 0-3.8-.6-4.9-1.1l-1.2-.7-1-.8a5 5 0 01-2.3 2.2c-.3.1-1 .3-1.7.3-.4 0-1.2-.1-2.2-.6-2.3-1.3-2.1-4-2.1-4.7V6.5c0-1.9 0-3.8 1.5-5.2a4.3 4.3 0 013-1.2c1.7 0 3.5 1.1 4.1 2.8.3.7.3 1.5.3 1.7v7.6h.1zm34.9 11l-2.3.8-2.4.7c-1.2.4-2.8.8-2.8 2.3 0 1 .6 2.2 2.6 2.2 2.5 0 4.2-1.5 4.8-2l.1-4m8.4 7.8c0 .1 0 1.2-.3 2-.4.9-1.2 2.2-3.6 2.2a4 4 0 01-4.1-3.3c-.3.3-1 1.1-1.9 1.7-1.2.8-3 1.6-6.3 1.6-.7 0-3.1-.1-5-1.2-.3-.2-.9-.6-1.5-1.3-1.7-2-1.7-4.1-1.7-5.1a7 7 0 014.4-6.8c2.5-1.2 7.1-1.7 9.8-2.4.3 0 1.7-.3 1.7-1.7 0-1-.9-2-3-2h-.8c-.4 0-1.8.1-2.7 1.1-.4.4-.5.9-.8 1.3a3.9 3.9 0 01-3.3 1.7c-2 0-3.9-1.4-3.9-3.5 0-.6.2-1.6 1.1-2.8 2.3-2.9 6.5-3.6 10-3.6 1 0 2 0 2.9.2 1.2.1 6.3.6 8.4 5 .5 1.1.7 1.9.8 4.1V31h-.2zm52.4-3.6l-5.2-7.8 3.5-3.6c.9-1 1.7-2 1.7-3.4a4 4 0 00-2.4-3.5l-1.2-.2c-1.7 0-2.7 1-3.8 2.1l-6.3 7.1V5.8c0-.6.1-3.5-2.1-4.9-1-.7-2-.7-2.4-.7-.5 0-1.7.1-2.8 1-1.2 1-1.6 2.3-1.7 3.8l-.1 1.2v6.2c0 .1.1 0 .1 0l.1-.1.4-.3c.2-.1.2-.4.4-.6l.3-.1c.1-.1.2-.5.1-.6l-.2-.2-.1-.2-.2-.1c-.2-.3-.3-.7-.2-1.1 0-.3.2-.4.3-.6 0-.2 0-.3.2-.5.4-.4.9-.5 1.4-.5l.7.2c.3.1.4.2.5.5.2.4 0 .4 0 .7l.1.4v1l-.2.8c0 .3-.1.5-.4.5l-.2.1c-.1.2.1.2.1.4v.3l.1.4.4.8c.1.1.2.1.2.3l.1.4.1.8.2 1.6.3 1.3.2 1.1v2.2l.1.4.1.6v.1l-.1.1v.1l-.1.1-.2.1.6 3-.2.7-.1.8-.1.8-.3 1.6-.3 1.6-.1.4v.2l-.1.4v.2l.1.2.4.2.4.1.4.1.1.4-.3.2-.2.1-.7.1-1.1-.1-.2-.1h-.1v.1l-.1.1h-.5l.2.3.4.3.2.4v.3l.1.2h.3l.9.1h.3c2 0 3.7-1.2 4.3-3.2.2-.7.2-1.3.2-1.6v-2.9l2-2 4.6 7.1.9 1.2c.9.9 1.9 1.4 3.2 1.4 2.4 0 4.4-1.8 4.4-4.3a7 7 0 00-1.4-3.8M66.6 10.1C64.1 9 61.7 9 60.7 9c-6.4-.1-9.7 2.8-11.3 5-2.3 3.2-2.3 6.8-2.3 8.1 0 1.7 0 5.7 3.1 9.4 1.5 1.8 4 3.8 9.1 4.1l-.4-1.8c-.4-1.2 0-2.8 0-2.8.1-.7-.2-2.1-.3-2.7v-.1h-.2l-.1-.2-.2-.1-.2-.4v-.7c-.1-.2-.4-.2-.5-.3-.4-.3 0-.7 0-1.1l-.2-.7V24l.2-1.5v-.2a8.6 8.6 0 01.6-4l.3-.5c.3-.5-.2-.5-.2-1 0-.4.3-.8.4-1.1.3-.7.3-1.5.6-2.2l.4-.7c.2-.2.6-.3.9-.3.8 0 1.3.5 1.5 1.2l.3 1.7c0 .3.2.7.4.9l.1.1c.1 0 .2.1.1.2l-.2.4-.3.3.1.2c.3.1.5.3.6.6.3.6.4 1.2.4 1.9l.1 1.3-.1.5.1.5c.1.5 0 1.1 0 1.6v.8l.1.3.2.3v.5l-.2.2-.4.4c-.1.1 0 .3 0 .4v.4l-.2.4-.2.3-.1.1-.1.1h-.2v.3l-.1.4-.3.9-.4.7-.1.4v.4l-.1.5-.2.4v.1l-.2 3.1v.5c2.6-.1 8.9-.9 11.5-7 1.1-2.6 1.2-5.3 1.2-6.2-.1-5.4-2.2-10.3-7.1-12.5m-58 34.3c0 .2 0 .4-.2.6-.1.2-.3.2-.4.2l-.4-.1c-.2-.2-.2-.4-.2-.6v-3.9c0-.1.2-.4.5-.4s.5.2.5.4v3.8m6 0v.3c-.1.2-.3.4-.5.4-.1 0-.3 0-.4-.2l-.1-.5v-1.5c0-.1 0-.7-.5-.7-.3 0-.4.2-.5.4v1.8c0 .2 0 .4-.2.5l-.4.1c-.4 0-.5-.3-.5-.4V43l-.1-.5c0-.1-.2-.3-.4-.3l-.3.1c-.2.2-.2.4-.2.7v1.3c0 .2 0 .4-.2.5l-.4.2c-.1 0-.3 0-.4-.2l-.1-.4V42c0-.2 0-.4.2-.5l.3-.1.3.1c.2.1.2.3.3.4l.3-.3c.1-.1.3-.2.7-.2.1 0 .5 0 .8.4l.2.3.1-.1c.3-.4.6-.5 1-.5l.7.2c.4.3.4.8.4 1.3v1.4m1.5 1.1c0 .4-.1.5-.2.6l-.3.1c-.1 0-.4 0-.5-.4v-4.1c.1-.3.2-.4.5-.4l.3.1.2.2.1.2.2-.2c.1-.1.4-.3.9-.3h.4l.8.5c.2.3.4.6.4 1.3 0 .1 0 .5-.2.9-.1.3-.5 1-1.4 1-.4 0-.6-.1-.7-.2l-.2-.2v.9m0-3.2c-.2.2-.4.4-.4 1 0 .3 0 .7.3.9l.4.2.3-.1c.4-.3.4-1 .4-1 0-.1 0-1-.7-1h-.3zm3.7 2.1c0 .2 0 .4-.2.6l-.3.1c-.1 0-.4 0-.5-.3V42c0-.2 0-.4.2-.5l.3-.1.4.2.1.5.2-.3c.2-.3.4-.4.7-.4.3 0 .5.2.5.4l-.1.3c-.2.2-.4.2-.6.2l-.4.2c-.3.2-.3.6-.3.9v1m4.4-2.5c.2.2.5.6.5 1.3l-.1.8c-.3.8-1 1-1.2 1.1l-.5.1a2 2 0 01-.9-.2c-.7-.3-1-1-1-1.7 0-.4.1-.9.4-1.2.2-.3.7-.6 1.4-.6.8-.2 1.2.2 1.4.4m-1.6.3c-.3.1-.5.4-.5 1l.1.6c.2.4.5.5.7.5l.4-.2c.4-.3.4-.8.4-.9 0-.3-.1-.7-.3-.9-.2-.2-.4-.2-.5-.2l-.3.1zm3.7 1.4l.1.3.1-.5.4-1.5.1-.2c0-.1.1-.4.4-.4l.2.1c.1 0 .3.2.3.4l-.1.3-.8 2.3c-.2.4-.2.6-.7.6l-.4-.1-.3-.4-.8-2.4-.1-.3v-.2c.1-.2.3-.3.4-.3l.3.1c.2.1.3.3.3.5l.4 1.4.2.3m1.9-3.1c0-.3.2-.5.5-.5s.5.2.5.5-.2.5-.5.5l-.4-.2-.1-.3m1 3.9v.3c0 .1-.1.4-.5.4l-.3-.1c-.2-.1-.2-.4-.2-.6V42c0-.2 0-.4.2-.5l.3-.1c.3 0 .4.2.5.3v2.7zm2.8-1.5c0-.2 0-.5-.3-.6l-.3-.1-.4.1c-.2.2-.2.6-.2.7v1.7c-.1.3-.4.3-.4.3s-.3 0-.4-.2c-.2 0-.2-.1-.2-.4v-2.7c.1-.3.4-.3.5-.3.3 0 .4.2.4.3l.1.2.1-.1c.1-.2.4-.4.9-.4.7 0 1.1.5 1.1.7l.1.6v1.8c0 .2 0 .4-.2.5l-.3.1-.3-.1c-.3-.2-.2-.5-.2-.5v-1.6m5 1.5v.4c0 .4-.1.7-.3 1-.4.4-1 .6-1.5.6-.3 0-.6 0-.9-.2-.3-.1-.5-.3-.5-.6s.2-.4.4-.4h.2l.3.2.5.1c.1 0 .4 0 .6-.3.2-.2.1-.4.2-.9l-.1.1c-.2.1-.4.3-.9.3s-.8-.2-.9-.3c-.2-.2-.6-.6-.6-1.4 0-.2 0-.7.3-1.1.2-.2.5-.7 1.2-.7.1 0 .5 0 .8.2l.2.2c0-.1.1-.4.5-.4.1 0 .3 0 .4.2l.1.4v2.6m-2-2.2c-.2.1-.5.3-.5.9l.1.4c0 .2.2.5.7.5l.3-.1c.2-.1.4-.3.4-.9a1 1 0 00-.4-.8l-.4-.1-.2.1zm5.9-.8h.2c.2.1.2.2.2.4l-.1.3-.4.1v1.9c0 .1.1.2.3.2h.1c.2 0 .3.2.3.4l-.1.2c-.1.2-.3.2-.7.2-.4 0-.6-.1-.8-.3l-.1-.7v-1.9h-.3c-.1 0-.3-.1-.3-.4l.1-.2c.1-.2.3-.2.4-.2V41c0-.2 0-.4.2-.6l.3-.1.3.1c.2.1.2.4.2.6v.5l.2-.1m4 3.1v.1l-.2.4-.3.1-.4-.1-.1-.2v-1.9c0-.1 0-.6-.5-.6-.3 0-.4.2-.5.3l-.1.6v1.3c0 .2 0 .4-.2.6l-.3.1-.3-.1c-.3-.1-.3-.4-.3-.6v-3.9c0-.1 0-.3.3-.4l.3-.1.3.1c.3.2.2.5.2.5v1.1l.1-.1c.1-.1.4-.3.8-.3h.4c.2 0 .6.2.8.7l.1.6-.1 1.8m1.4-.9l.1.4c.1.1.3.4.7.4.1 0 .3 0 .5-.2l.4-.2c.3 0 .4.2.4.5 0 .2-.2.4-.3.5-.2.1-.5.3-1.1.3-.2 0-.8 0-1.2-.4a2 2 0 01-.6-1.4c0-.3 0-1.1.7-1.6.2-.1.5-.4 1.1-.4.2 0 .8 0 1.2.5.4.4.4 1 .4 1.2 0 .1 0 .4-.2.4h-2.1m1.5-.8l-.1-.3c-.1-.2-.4-.3-.6-.3-.1 0-.3 0-.5.2l-.2.4H48zm6.4 1.7v.1l-.2.4-.3.1-.4-.1-.1-.2v-1.9c0-.1 0-.6-.5-.6-.3 0-.4.2-.5.3l-.1.6v1.3c0 .2 0 .4-.2.6l-.3.1-.3-.1c-.3-.1-.3-.4-.3-.6v-3.9c0-.1 0-.3.3-.4l.3-.1.3.1c.3.2.2.5.2.5v1.1l.2-.1c.1-.1.4-.3.8-.3h.4c.2 0 .6.2.8.7l.1.6-.2 1.8m1.6-.9l.1.4c.1.1.3.4.7.4.1 0 .3 0 .5-.2l.4-.2c.3 0 .4.2.4.5 0 .2-.2.4-.3.5-.2.1-.5.3-1.1.3-.2 0-.8 0-1.2-.4a2 2 0 01-.6-1.4c0-.3 0-1.1.7-1.6.2-.1.5-.4 1.1-.4.2 0 .8 0 1.2.5.4.4.4 1 .4 1.2 0 .1 0 .4-.2.4H56m1.4-.8l-.1-.3c-.1-.2-.4-.3-.6-.3-.1 0-.3 0-.5.2l-.2.4h1.4zm4.6 1.5v.2c0 .1 0 .6-.5.6-.4 0-.4-.3-.5-.4l-.3.2-.9.3-.6-.1c-.4-.2-.7-.6-.7-1.1 0-.6.4-.8.6-.9.4-.2 1-.2 1.4-.3.2 0 .3-.1.3-.3l-.1-.2c-.1-.2-.4-.2-.5-.2l-.5.1-.1.1-.4.2c-.3 0-.4-.2-.4-.4 0-.4.5-.6.5-.6l1-.2h.4c.7.1.9.5 1 .8l.1.7.2 1.5m-1-1l-.6.2-.4.1c-.1 0-.3.1-.3.4 0 .2.1.4.5.4h.2l.5-.3.1-.2v-.6zm1.6-2.6v-.3c.1-.2.3-.4.5-.4l.3.1c.2.1.2.3.2.5v4.1c0 .1-.2.4-.5.4-.1 0-.4 0-.5-.3v-4.1"/>
        <path d="M65.5 41.4h.2c.2.1.2.2.2.4l-.1.3-.4.1h-.2v1.9c0 .1.1.2.3.2h.1c.2 0 .3.2.3.4l-.1.2c-.1.2-.3.2-.7.2-.4 0-.6-.1-.8-.3-.2-.2-.2-.4-.2-.7v-1.9h-.3c-.1 0-.3-.1-.3-.4l.1-.2c.1-.2.3-.2.4-.2V41c0-.2 0-.4.2-.6l.3-.1.3.1c.2.1.2.4.2.6v.5l.5-.1m4 3.1v.1l-.2.4-.3.1-.4-.1-.1-.2v-1.9c0-.1 0-.6-.5-.6-.3 0-.4.2-.5.3l-.1.6v1.3c0 .2 0 .4-.2.6l-.3.1-.3-.1c-.3-.1-.3-.4-.3-.6v-3.9c0-.1 0-.3.3-.4l.3-.1.3.1c.3.2.2.5.2.5v1.1l.2-.1c.1-.1.4-.3.8-.3h.4c.2 0 .6.2.8.7l.1.6-.2 1.8m5.5-2.6c.2.2.5.6.5 1.3l-.2.8c-.3.8-1 1-1.2 1.1l-.5.1a2 2 0 01-.9-.2c-.7-.3-1-1-1-1.7 0-.4.1-.9.4-1.2.2-.3.7-.6 1.4-.6.9-.2 1.3.2 1.5.4m-1.6.3c-.3.1-.5.4-.5 1l.1.6c.2.4.5.5.7.5l.4-.2c.4-.3.4-.8.4-.9 0-.3-.1-.7-.3-.9-.2-.2-.4-.2-.5-.2l-.3.1zm3.7-.8h.2c.2 0 .3 0 .4.2l.1.2c0 .2-.2.3-.3.4h-.4v2.5c0 .1-.1.4-.5.4l-.3-.1c-.2-.1-.2-.4-.2-.6v-2.2l-.4-.1-.1-.3c0-.3.2-.3.3-.4s.2 0 .2 0v-.3c0-.1 0-.5.2-.8.2-.3.5-.3.8-.3.3 0 .6.1.6.4l-.1.3-.3.1c-.2.1-.2.2-.2.3v.3m3.9 0h.2c.2 0 .3 0 .4.2l.1.2c0 .2-.2.3-.3.4H81v2.5c0 .1-.1.4-.5.4l-.3-.1c-.2-.1-.2-.3-.2-.6v-2.2l-.4-.1-.1-.3c0-.3.2-.3.3-.4h.2v-.3c0-.1 0-.5.2-.8.2-.3.5-.3.8-.3s.6.1.6.4l-.1.3-.3.1-.2.5v.1m.8.7c0-.2 0-.4.2-.5l.3-.1.3.1c.2.1.2.4.2.6v1.6c0 .2.1.6.6.6l.4-.1c.2-.3.2-.7.2-1V42c0-.1 0-.4.2-.5l.3-.1.3.1c.2.2.2.5.2.5v2.4c0 .1 0 .7-.5.7-.1 0-.3 0-.4-.3l-.1-.2-.1.2c-.1.2-.4.4-.9.4-.2 0-.8 0-1.1-.6l-.1-.9v-1.6m5.2-.7h.2c.2.1.2.2.2.4l-.1.3-.4.1h-.2v1.9c0 .1.1.2.3.2h.1c.2 0 .3.2.3.4l-.1.2c-.1.2-.3.2-.7.2-.4 0-.6-.1-.8-.3-.2-.2-.2-.4-.2-.7v-1.9h-.3c-.1 0-.3-.1-.3-.4l.1-.2c.1-.2.3-.2.4-.2V41c0-.2 0-.4.2-.6l.3-.1.3.1c.2.1.2.4.2.6v.5l.5-.1m.7.7c0-.2 0-.4.2-.5l.3-.1.3.1c.2.1.2.4.2.6v1.6c0 .2.1.6.6.6l.4-.1c.3-.2.2-.6.2-.8V42c0-.1 0-.4.2-.5l.3-.1.3.1c.2.2.2.4.2.5v2.4c0 .1 0 .7-.5.7-.1 0-.3 0-.4-.3l-.1-.2-.1.2c-.1.2-.4.4-.9.4-.2 0-.8 0-1.1-.6l-.1-.9v-1.6m4.9 2.3c0 .2 0 .4-.2.6l-.3.1c-.1 0-.4 0-.5-.3V42c0-.2 0-.4.2-.5l.3-.1.4.2.1.5.2-.3c.2-.3.4-.4.7-.4.3 0 .5.2.5.4l-.1.3c-.2.2-.4.2-.6.2l-.4.2c-.2.2-.2.6-.2.9l-.1 1m2.3-.8l.1.4c.1.1.3.4.7.4.1 0 .3 0 .5-.2l.4-.2c.3 0 .4.2.4.5 0 .2-.2.4-.3.5-.2.1-.5.3-1.1.3-.2 0-.8 0-1.2-.4a2 2 0 01-.6-1.4c0-.3 0-1.1.7-1.6.2-.1.5-.4 1.1-.4.2 0 .8 0 1.2.5.4.4.4 1 .4 1.2 0 .1 0 .4-.2.4h-2.1m1.4-.8l-.1-.3c-.1-.2-.4-.3-.6-.3-.1 0-.3 0-.5.2l-.2.4h1.4zm6.7 1.6v.4c0 .4-.1.7-.3 1-.4.4-1 .6-1.5.6-.3 0-.6 0-.9-.2-.3-.1-.5-.3-.5-.6s.2-.4.4-.4h.2l.3.2.5.1c.1 0 .4 0 .6-.3l.2-.9-.1.1c-.2.1-.4.3-.9.3s-.8-.2-.9-.3c-.2-.2-.6-.6-.6-1.4 0-.2 0-.7.3-1.1.2-.2.5-.7 1.2-.7l.8.2.2.2c0-.1.1-.4.5-.4.1 0 .3 0 .4.2l.1.4v2.6m-2-2.2c-.2.1-.5.3-.5.9l.1.4c0 .2.2.5.7.5l.3-.1c.2-.1.4-.3.4-.9a1 1 0 00-.4-.8l-.4-.1-.2.1zm3.5 1.4l.1.4c.1.1.3.4.7.4.1 0 .3 0 .5-.2l.4-.2c.3 0 .4.2.4.5 0 .2-.2.4-.3.5-.2.1-.5.3-1.1.3-.2 0-.8 0-1.2-.4a2 2 0 01-.5-1.4c0-.3 0-1.1.7-1.6.2-.1.5-.4 1.1-.4.2 0 .8 0 1.2.5.4.4.4 1 .4 1.2 0 .1 0 .4-.2.4h-2.2m1.5-.8l-.1-.3c-.1-.2-.4-.3-.6-.3-.1 0-.3 0-.5.2l-.2.4h1.4zm3.5.1c0-.2 0-.5-.3-.6l-.3-.1-.4.1c-.3.2-.3.6-.3.7v1.7c-.1.3-.4.3-.5.3-.1 0-.3 0-.4-.2l-.1-.4v-2.7c.1-.3.4-.3.4-.3.3 0 .4.2.4.3l.1.2.1-.1c.1-.2.4-.4.9-.4.7 0 1.1.5 1.2.7l.1.6v1.8c0 .2 0 .4-.2.5l-.3.1-.3-.1c-.3-.2-.2-.5-.2-.5v-1.6m2.6.7l.1.4c.1.1.3.4.7.4.1 0 .3 0 .5-.2l.4-.2c.3 0 .4.2.4.5 0 .2-.2.4-.3.5-.2.1-.5.3-1.1.3-.2 0-.8 0-1.2-.4a2 2 0 01-.6-1.4c0-.3 0-1.1.7-1.6.2-.1.5-.4 1.1-.4.2 0 .8 0 1.2.5.4.4.4 1 .4 1.2 0 .1 0 .4-.2.4H112m1.4-.8l-.1-.3c-.1-.2-.4-.3-.6-.3-.1 0-.3 0-.5.2l-.2.4h1.4zm2.4 1.6c0 .2 0 .4-.2.6l-.3.1c-.1 0-.4 0-.5-.3V42c0-.2 0-.4.2-.5l.3-.1.4.2.1.5.2-.3c.2-.3.4-.4.7-.4.3 0 .5.2.5.4l-.1.3c-.2.2-.4.2-.6.2l-.4.2c-.2.2-.2.6-.2.9l-.1 1m4.6-.1v.2c0 .1 0 .6-.5.6-.4 0-.4-.3-.5-.4l-.3.2-.9.3-.5-.1c-.4-.2-.7-.6-.7-1.1 0-.6.4-.8.6-.9.4-.2 1-.2 1.4-.3.2 0 .3-.1.3-.3l-.1-.2c-.1-.2-.4-.2-.5-.2l-.5.1-.1.1-.4.2c-.3 0-.4-.2-.4-.4 0-.4.5-.6.5-.6l1-.2h.4c.7.1.9.5 1 .8l.1.7.1 1.5m-1-1l-.6.2-.4.1c-.1 0-.3.1-.3.4 0 .2.1.4.5.4h.2l.5-.3.1-.2v-.6zm2.9-1.9h.2c.2.1.2.2.2.4l-.1.3-.4.1h-.2v1.9c0 .1.1.2.3.2h.1c.2 0 .3.2.3.4l-.1.2c-.1.2-.3.2-.7.2-.4 0-.6-.1-.8-.3-.2-.2-.2-.4-.2-.7v-1.9h-.3c-.1 0-.3-.1-.3-.4l.1-.2c.1-.2.3-.2.4-.2V41c0-.2 0-.4.2-.6l.3-.1.3.1c.2.1.2.4.2.6v.5l.5-.1m.8-.9c0-.3.2-.5.5-.5s.5.2.5.5-.2.5-.5.5l-.4-.2-.1-.3m1 3.9v.3c0 .1-.1.4-.5.4l-.3-.1c-.2-.1-.2-.4-.2-.6V42c0-.2 0-.4.2-.5l.3-.1c.3 0 .4.2.5.3v2.7zm3.7-2.5c.2.2.5.6.5 1.3l-.2.8c-.3.8-1 1-1.2 1.1l-.5.1a2 2 0 01-.9-.2c-.7-.3-1-1-1-1.7 0-.4.1-.9.4-1.2.2-.3.7-.6 1.4-.6.8-.2 1.3.2 1.5.4m-1.7.3c-.3.1-.5.4-.5 1l.1.6c.2.4.5.5.7.5l.4-.2c.4-.3.4-.8.4-.9 0-.3-.1-.7-.3-.9-.2-.2-.4-.2-.5-.2l-.3.1zm4.8.7c0-.2 0-.5-.3-.6l-.3-.1-.4.1c-.3.2-.3.6-.3.7v1.7c-.1.3-.4.3-.4.3-.1 0-.3 0-.4-.2l-.1-.4v-2.7c.1-.3.4-.3.4-.3.3 0 .4.2.4.3l.1.2.1-.1c.1-.2.4-.4.9-.4.7 0 1.1.5 1.2.7l.1.6v1.8c0 .2 0 .4-.2.5l-.3.1-.3-.1c-.3-.2-.2-.5-.2-.5v-1.6m3.4-.6c-.2-.2-.4-.2-.5-.2-.3 0-.5.1-.5.3l.1.2.5.2.3.1.5.2c.2.1.6.3.6.9l-.2.7c-.3.4-.8.5-1.3.5-.7 0-1.1-.2-1.3-.4-.1 0-.3-.2-.3-.5s.2-.4.5-.4l.4.2.2.2.6.2s.5 0 .5-.3V44l-.4-.2-1.1-.4c-.3-.2-.4-.4-.4-.5v-.3c0-.1 0-.4.2-.7.2-.3.6-.5 1.3-.5.1 0 .7 0 1.1.4l.2.4c0 .2-.2.4-.5.4l-.4-.2-.1-.1m20.8-28.6c-.7-1.7-2.6-4.5-7.3-4.5l-1.2.1-1.1.2-1 .3-.9.4-.8.4-.7.5-.3.2-.1.1c-.1.1-.1 0-.1-.1l-.1-.2c-.2-.3-.6-.4-.9-.5l-1-.3-.4-.1c-.2-.1-.3-.2-.3-.4l-.1-.2-.3-.1v-.3l.2-.4.1-.5.1-.3-.1-.7-.4-.8-.8-.4h-.4l-.7.2-.3.2-.1.1v.1l-.2.4c0 .1-.1.1 0 .2v1.1l.2.4.3.5.1.1.2.1.1.3-.1.1v.1l.1.2c-.1.2-.3.2-.4.3h-.1l-.3-.8-.4-.6c-.2-.2-.4-.2-.6-.2l-.3-.1c-.5-.1-.7.4-1 .8l-.4.6-.1.4v.5l-.1.7.1.4c.1.2.2.5.1.7-.1.3-.3.4-.6.6l-.4.1c-.3-.2-.2-.6-.4-.8l-.4-.1c-.2 0-.4-.1-.2-.3l.1-.2.1-.1h.1l.1-.1.2-.3v-.2l-.1-.1.1-.2v-.5l-.2-.4-.3-.2h-.3l-.2-.1-.4-.1-.5.1-.1.2-.2.2-.1.2-.2.5v.2l-.1.1.2.4.2.3h.1l.2.4c.1.2-.1.3-.3.3-.3.1-.6.4-.7.7l-.3 1-.1.3-.1.2.3.7.3.3.2.2.1.1v.2l.1.2v.2l.1.4.4.4c.2.1.1.3.2.4l.4.4c.3.2.2.4.1.7l-.4 1-.1.5c0 .1-.1.3 0 .4l.1.2-.1.3-.2.3c0 .2.3.4.4.6v.3l.2 2 .6 3.6v.1h.2c.1 0 0 .1 0 .1v1.9h-.2l-.1.1v3.6l-.1.3-.1.2-.2.4-.4.6c-.1.1-.1.2.1.3h.3l.8-.3.4-.4.2-.3.1-.2h.1c.1 0 .1.1.2 0l.1-.1v-1.4l-.1-.5.1-1.3.2-.8.1-.2v-.1h-.1V30l.1-.5v-1.4h.7v1.2h-.1v1.5l-.1.4-.2.5-.1.5v1.1c0 .2.4.2.4.1l.1-.1.1.1.1.2v.2l.6.2.5.1s.4.1.4-.2l-.2-.2-.4-.4-.2-.2-.1-.4-.1-.4-.1-.2v-.6l.1-.6.3-.9.1-.4v-.1h-.2c-.1 0 0 0 0-.1v-.2l.1-.5v-.8l.1-.1h.2c.1 0 0-.1 0-.1v-.3l.1-.6v-.5c0-.1.1-.1.1 0v.1l.1.3.3 1.2.3 1.3.4 1.3.4 1.2.1.3.2.3.2.3c.1.1.1 0 .2 0l.1.1-.1.2-.3.3-.5.4-.5.1-.4.1-.2.2v.3l.3.2h.9l.8-.1.5-.1h.3l.1.1h.9l.2-.2v-.3l.1-.3.1.4v.4c0 .2-.2 1 .7 1 .4 0 1.1 0 1.1-.4l-.2-.7-.3-.6-.1-.4V33l.1-.1-.1-2-.3-2.5-.3-1.6-.2-2.1-.1-.9-.1-.3v-.3l.2-.1.1-.1.1-.1h.3l.2-.2.2-.3V22l.1-.4.1-.3.3-.1v-.3c-.1-.3-.1-.5 0-.8V20l.1-.8.2-1.2.1-.5.1-1.3.1-.2.2-.1.3-.1 1.2-.2c.8 0 2.4.3 2.8 2.3l.1 1.4v10.1l.3 2a4.6 4.6 0 002.4 2.9c.8.4 1.6.4 1.9.4 2.1 0 3.8-1.3 4.3-3.5.2-.7.2-1 .2-1.8V16.9c-.2-1.2-.2-2.1-.6-3.2"/>
    </g>
</svg>
