<svg xmlns="http://www.w3.org/2000/svg" viewBox="0 0 154 38">
    <g fill="#fff">
        <path d="M144.1 3.1c0-.3 0-.6.3-.8l.4-.1.4.1c.3.2.3.5.3.8v2.3c0 .2.1.8.8.8.3 0 .4-.1.5-.2.4-.3.3-.8.3-1.2V3c0-.1 0-.5.3-.7l.4-.1.4.1c.3.2.3.6.3.7v3.4c0 .1.1.9-.7.9-.1 0-.5 0-.6-.4l-.1-.3-.2.2c-.2.2-.6.5-1.3.5-.3 0-1.2 0-1.5-.9l-.2-1.2.2-2.1m8.3-.6l.1-.1c.1-.1.2-.2.5-.2.4 0 .6.3.6.6s-.1.4-.3.6l-.9.9 1.2 1.8.3.6-.1.4c-.1.2-.4.4-.7.4l-.3-.1-.4-.5-.9-1.6-.5.5v.8c0 .1 0 .5-.3.7l-.4.1-.6-.2c-.2-.2-.2-.6-.2-.6V1l.3-.6.4-.1c.3 0 .6.2.7.5v3.3l1.5-1.6M36 23.8c0 .6 0 1-.2 1.7-.4 1.7-1.7 2.7-3.5 2.7-.4 0-1.2-.1-1.9-.5-1.8-1.1-1.7-2.9-1.7-3.5V11.4c0-.9.2-1.7.7-2.5a3.4 3.4 0 013-1.6c1.6.1 2.9 1 3.4 2.5.1.4.2.8.2 1.7v12.3m-.3-20.5c0 1.8-1.5 3.3-3.3 3.3s-3.3-1.5-3.3-3.3c0-1.8 1.5-3.3 3.3-3.3 1.8.1 3.3 1.5 3.3 3.3M22.9 8.7a8.5 8.5 0 00-4.5-1.4A7.3 7.3 0 0013.6 9l-.5.7v-6c0-.1 0-.8-.2-1.4A3.5 3.5 0 009.6.1c-.4 0-1.5.1-2.4.9C6 2.2 6 3.6 6 5.2v4.6c0 .1-.1.1-.2 0l-.3-.1-.5-.2c-.3-.2-.4-.5-.4-.5l-.1-.2v-.6l.2-.1.1-.2s.1-.2 0-.4l-.1-.1h-.1c-.1 0 0 0 0 0v-.2c0-.1 0-.7-.4-1-.4-.1-.6-.2-.9 0-.2 0-.4.3-.5.4l-.2.4v.7c0 .1 0 0-.1 0l-.1.2.1.3.1.2.1.2.1.2.3.2-.1.4c-.3.3-.5.5-.8.6-.3.1-.5.4-.7.7l-.2.4-.5.6-.3.7-.1.7c.1.3.5.3.7.4l.5.2v.6a3 3 0 00-.2 1l-.1.5-.1.6c.1.2.3.3.3.5.1.3-.1.6-.1.9v.9c.1.9.3 1.9.1 2.8l-.1.8.1 1.4v1.7l.1.3c0 .2-.1.4-.3.5l-.4.2-.3.1-.3.1-.2.1v.1c.1.2.4.4.6.4l.7-.1.9-.1h1.2c.3-.1.1-.5.1-.6l-.1-.6-.1-.6.1-.6.2-1.6.1-.5v-.6l.2-.7c-.1-.2 0 .1 0 .2l.1.6.1.5v1l-.3 1.6-.2.8.1.4c.1.1.2.3.1.4v.1l-.1.1-.3.4c-.2.3-.1.6.2.7h.8l.5-.1.3-.4.4-.2V27l-.1-.3v-.3l.1-.1v-.6l.1-.7.1-.3.1-.2v.8c.1.6.3 1.1.7 1.6.2.3.5.5.9.7a4 4 0 001.7.5 3.7 3.7 0 003.2-2l.8.7.9.5c.8.4 1.9.9 3.9.9 4.1 0 6.2-2.4 7.1-3.7 1.8-2.6 1.8-5.8 1.8-6.8.1-3.4-1-7-4.1-9m-3.3 9c0 1.4-.2 3.4-1.2 4.6a3 3 0 01-2.3 1c-2 0-2.7-1.7-2.9-2.3-.4-1-.4-2-.4-3.1 0-1.6.2-3.7 1.4-4.8.7-.6 1.3-.7 1.7-.8 1-.1 2 .4 2.7 1.2 1 1.5 1 3.9 1 4.2zM68.8 13c-1.2 1.2-1.4 3.3-1.4 4.8 0 1 .1 2.1.4 3.1.2.7.8 2.3 2.9 2.3.4 0 1.5-.1 2.3-1 1-1.2 1.2-3.2 1.2-4.6 0-.3.1-2.7-1-4.2-.6-.8-1.6-1.4-2.7-1.2-.4.1-1.1.2-1.7.8m-1.2-3.3l.5-.7a7.9 7.9 0 019.3-.3c3.1 2 4.1 5.6 4.1 9.1 0 1-.1 4.1-1.8 6.8-.9 1.3-3 3.7-7.1 3.7-2 0-3.1-.5-3.9-.9l-.9-.5-.8-.7c-.5.8-1 1.4-1.8 1.7-.2.1-.8.3-1.4.3-.3 0-1-.1-1.7-.5-1.8-1-1.7-3.2-1.7-3.8V5.2c0-1.5 0-3 1.2-4.1.9-.8 2-.9 2.4-.9 1.4 0 2.8.8 3.3 2.2.2.5.2 1.2.2 1.4v5.9h.1zm27.9 8.8l-1.8.6-1.9.5c-.9.3-2.2.7-2.2 1.8 0 .8.5 1.7 2.1 1.7 2 0 3.4-1.2 3.8-1.6v-3m6.7 6.3c0 .1 0 1-.2 1.6-.3.7-1 1.8-2.9 1.8-.5 0-1.9-.1-2.8-1.4l-.5-1.2-1.5 1.4c-.9.6-2.4 1.3-5 1.3-.5 0-2.5-.1-4-1l-1.2-1c-1.4-1.6-1.4-3.3-1.4-4 0-1.4.3-3.9 3.5-5.5 2-.9 5.7-1.4 7.8-1.9.2 0 1.4-.2 1.4-1.4 0-.8-.7-1.6-2.4-1.6h-.6c-.4 0-1.4.1-2.1.9l-.7 1c-.6.8-1.5 1.4-2.6 1.4-1.6 0-3.1-1.1-3.1-2.8 0-.5.2-1.3.8-2.2 1.8-2.3 5.2-2.8 8-2.8l2.4.1c1 .1 5.1.5 6.7 4 .4.8.6 1.5.6 3.3v10h-.2zm42-2.9l-4.1-6.2 2.8-2.9c.7-.8 1.4-1.6 1.4-2.7a3 3 0 00-1.9-2.8l-1-.2c-1.4 0-2.2.8-3 1.7l-5.1 5.7V4.6c0-.5.1-2.8-1.7-3.9-.8-.5-1.6-.6-1.9-.6-.4 0-1.4.1-2.3.8-1 .8-1.3 1.8-1.4 3l-.1 1V10c0 .1.1 0 .1 0l.1-.1.3-.2c.2-.1.2-.3.3-.5l.2-.1c.1-.1.2-.4.1-.5l-.2-.1-.1-.2-.1-.1-.2-.9.2-.5.2-.4c.3-.3.7-.4 1.1-.4l.5.1.4.4v.6l.1.3v.8l-.2.6c0 .2-.1.4-.3.4l-.2.1c-.1.1.1.2.1.3v.3l.1.4.4.7.2.2.1.3.1.6.2 1.3.3 1 .1.9V17l.1.3.1.5v.1l-.1.1v.1l-.1.1c-.1 0-.2 0-.1.1l.5 2.4-.1.6-.1.6-.1.6-.2 1.3-.2 1.3-.1.3v.2l-.1.3v.1l.1.1.4.2.4.1.4.1.1.3-.2.2-.2.1-.6.1-.9-.1-.2-.1h-.1v.1l-.1.1h-.4l.2.3.3.3.2.3v.2l.1.1h.2l.7.1h.2c1.6 0 3-1 3.4-2.6.2-.5.2-1.1.2-1.3v-2.3l1.6-1.6 3.7 5.7.7.9c.7.7 1.5 1.2 2.6 1.2 1.9 0 3.5-1.5 3.5-3.4-.4-1.8-1.2-2.8-1.4-3.2M53.3 8.1c-2-.9-4-.9-4.7-.9-5.1-.1-7.8 2.2-9 4-1.8 2.5-1.8 5.4-1.8 6.5 0 1.3 0 4.6 2.5 7.5a9.4 9.4 0 007.3 3.3l-.3-1.4c-.3-1 0-2.2 0-2.2.1-.6-.2-1.7-.3-2.1v-.1h-.2l-.1-.2-.1-.1-.2-.3v-.6c-.1-.2-.3-.2-.4-.3-.3-.2 0-.6 0-.8l-.1-.5v-.5l.1-1.2v-.1c-.1-.8 0-1.5.1-2.3l.3-1 .2-.4c.2-.4-.1-.4-.1-.8l.3-.9c.3-.6.2-1.2.5-1.8l.4-.6c.2-.2.5-.3.7-.2.6 0 1 .4 1.2 1l.3 1.4c0 .2.1.6.3.7l.1.1.1.2-.2.4-.3.3c-.1.1 0 .1.1.2.3.1.4.3.5.5l.4 1.5.1 1-.1.4.1.4V20l.1.3.1.2c.1.1.1.3 0 .4l-.2.2-.3.3v.6l-.2.3-.2.2-.1.1-.1.1h-.2v.3l-.1.3-.2.7-.3.6-.1.3v.3l-.1.4-.2.3v.1l-.2 2.5v.4c2.1-.1 7.1-.7 9.2-5.6.9-2 .9-4.2.9-5 .1-4.6-1.6-8.5-5.5-10.2M6.9 35.5l-.1.5-.3.1-.3-.1c-.2-.1-.2-.3-.2-.5v-3c0-.1.1-.3.4-.3.2 0 .4.1.4.3v3m4.7.1v.2c-.1.2-.2.3-.4.3l-.3-.1-.1-.4v-1.2c0-.1 0-.6-.4-.6-.2 0-.4.1-.4.3v1.4c0 .2 0 .3-.2.4l-.3.1c-.3 0-.4-.2-.4-.3v-1.3l-.1-.4c0-.1-.1-.2-.4-.2l-.3.1c-.2.1-.2.4-.2.6v1.1c0 .2 0 .3-.2.4.1 0 0 0 0 0-.1 0-.2 0-.3-.2l-.1-.3v-1.9c0-.2 0-.3.2-.4l.2-.1.2.1c.2.1.2.2.2.4l.2-.3c0-.2.2-.3.5-.3.1 0 .4 0 .7.3l.1.2.1-.1c.2-.3.5-.4.8-.4l.6.2c.4.3.4.6.4 1v1.4m1.2.8c0 .3-.1.4-.2.5l-.2.1c-.1 0-.3 0-.4-.3v-3.2c.1-.2.2-.3.4-.3l.2.1.1.1.1.2.1-.2c.1-.1.3-.3.7-.3h.3c.3.1.5.2.6.4s.3.5.3 1l-.1.7c-.1.3-.4.8-1.2.8l-.6-.2-.2-.2v.8m.4-2.6c-.2.1-.3.3-.3.8 0 .3 0 .5.3.7l.3.1.3-.1c.4-.2.3-.8.3-.8 0-.1 0-.8-.6-.8l-.3.1zm2.9 1.8c0 .2 0 .4-.2.5l-.2.1c-.1 0-.3 0-.4-.3v-2.2c0-.2 0-.3.2-.4l.2-.1.3.2.1.4.1-.3c.1-.2.3-.3.6-.3.2 0 .4.1.4.4l-.1.2c-.1.2-.3.1-.5.2l-.3.1c-.2.1-.2.4-.2.6v.9m3.5-2.1c.2.2.4.5.4 1.1l-.1.6c-.3.6-.8.8-1 .8l-.4.1-.7-.2c-.5-.3-.8-.8-.8-1.4 0-.4.1-.7.3-1 .2-.2.5-.5 1.2-.5.6.1 1 .4 1.1.5m-1.3.3c-.2.1-.4.3-.4.8l.1.5c.2.3.4.4.6.4l.4-.1c.3-.2.3-.7.3-.7a1 1 0 00-.3-.7l-.4-.1c-.2-.2-.2-.1-.3-.1zm3 1.1l.1.2.1-.4.3-1.2.1-.1c0-.1.1-.3.4-.3l.2.1c.1 0 .2.1.2.3l-.1.2-.6 1.8c-.1.3-.2.5-.6.5l-.3-.1-.2-.3-.6-1.9-.1-.3v-.2c.1-.2.2-.2.4-.2l.2.1c.2.1.2.3.3.4l.3 1.2-.1.2m1.5-2.5c0-.2.2-.4.4-.4s.4.2.4.4-.2.4-.4.4l-.3-.1-.1-.3m.8 3.2v.2c0 .1-.1.3-.4.3l-.2-.1c-.2-.1-.2-.3-.2-.5v-1.9c0-.2 0-.3.2-.4l.2-.1c.3 0 .3.2.4.3v2.2zm2.3-1.2c0-.2 0-.4-.2-.5l-.2-.1-.3.1c-.3.2-.2.5-.2.6v1.4c-.1.2-.3.3-.4.3-.1 0-.2 0-.3-.2l-.2-.4v-2.2c.1-.2.3-.2.4-.2l.4.2.1.2.1-.1c.1-.1.3-.3.7-.3.6 0 .8.4.9.6l.1.5v1.4c0 .2 0 .3-.2.4l-.2.1-.2-.1c-.2-.1-.2-.4-.2-.4l-.1-1.3m3.9 1.2v.3c0 .3-.1.5-.3.8-.3.3-.8.5-1.2.5l-.7-.1c-.2-.1-.4-.2-.4-.5 0-.2.2-.4.4-.4h.2l.3.2.4.1c.1 0 .3 0 .5-.2l.1-.7-.1.1c-.1.1-.3.3-.7.3-.4 0-.6-.2-.7-.3-.2-.2-.5-.5-.5-1.1 0-.1 0-.5.2-.9.1-.2.4-.5 1-.5.1 0 .4 0 .6.2l.2.2c0-.1.1-.3.4-.3.1 0 .2 0 .3.2l.1.4-.1 1.7m-1.5-1.8c-.2.1-.4.2-.4.7l.1.3c0 .1.2.4.5.4l.3-.1c.2-.1.4-.3.4-.7 0-.2-.1-.5-.3-.6l-.3-.1-.3.1zm4.7-.6h.2l.2.3-.1.2-.3.1h-.1v1.6l.2.1h.1c.2 0 .2.2.2.3l-.1.2-.5.2-.6-.2-.1-.7v-1.5h-.2c-.1 0-.2-.1-.2-.3l.1-.2.4-.1v-.4c0-.2 0-.4.2-.5l.2-.1.2.1c.2.1.2.3.2.5v.4m3.1 2.4v.1l-.1.3-.3.1-.3-.1-.1-.2v-1.5c0-.1 0-.5-.4-.5l-.4.2-.1.5v1c0 .2 0 .4-.2.5h-.2l-.2-.1c-.2-.1-.2-.3-.2-.5v-3.1c0-.1 0-.2.2-.3l.2-.1.2.1c.2.1.2.4.2.4v.9l.1-.1c.1-.1.3-.2.7-.2h.3c.1 0 .5.2.6.6l.1.5-.1 1.5m1.2-.8l.1.3c.1.1.2.4.6.4.1 0 .3 0 .4-.2.1-.1.1-.2.3-.2.2 0 .4.2.4.4s-.1.3-.3.4c-.2.1-.4.2-.9.2-.2 0-.6 0-1-.4-.2-.2-.5-.5-.5-1.2 0-.2 0-.8.6-1.3.2-.1.4-.3.9-.3.2 0 .7 0 1 .4.3.4.3.8.3.9 0 .1 0 .3-.2.4h-1.7m1.2-.4l-.1-.3a.5.5 0 00-.5-.3c-.1 0-.3 0-.4.2l-.2.3 1.2.1zm5.1 1.4v.1l-.1.3-.3.1-.3-.1-.1-.2v-1.5c0-.1 0-.5-.4-.5l-.4.2-.1.5v1c0 .2 0 .4-.2.5h-.2l-.2-.1c-.2 0-.2-.2-.2-.4v-3.1c0-.1 0-.2.2-.3l.2-.1.2.1c.2.1.2.4.2.4v.9l.1-.1c.1-.1.3-.2.7-.2h.3c.1 0 .5.2.6.6l.1.5-.1 1.4m1.3-.8l.1.3c.1.1.2.4.6.4.1 0 .3 0 .4-.2.1-.1.1-.2.3-.2.2 0 .4.2.4.4s-.1.3-.3.4c-.2.1-.4.2-.9.2-.2 0-.6 0-1-.4-.2-.2-.5-.5-.5-1.2 0-.2 0-.8.6-1.3.2-.1.4-.3.9-.3.2 0 .7 0 1 .4.3.4.3.8.3.9 0 .1 0 .3-.2.4h-1.7m1.1-.4l-.1-.3a.5.5 0 00-.5-.3c-.1 0-.3 0-.4.2l-.2.3 1.2.1zm3.7 1.3v.1c0 .1 0 .5-.4.5-.3 0-.4-.3-.4-.3l-.2.2c-.3.2-.6.2-.7.2l-.5-.1a.8.8 0 01-.5-.8c0-.5.3-.7.5-.7.3-.2.8-.2 1.1-.3l.3-.2-.1-.1-.4-.1-.4.1-.1.1s-.1.2-.3.2a.4.4 0 01-.4-.4c0-.3.4-.5.4-.5l.8-.1h.3c.5.1.7.4.8.6l.1.5.1 1.1m-.8-.9l-.5.1-.3.1c-.1 0-.2.1-.2.3 0 .1.1.3.4.3h.2l.4-.2.1-.1-.1-.5zm1.2-2.1v-.2c.1-.2.2-.3.4-.3l.2.1c.2.1.2.3.2.4v3.2c0 .1-.1.3-.4.3-.1 0-.3 0-.4-.3v-3.2m2.4.7h.2l.2.3-.1.2-.3.1h-.1v1.6l.2.1h.1c.2 0 .2.2.2.3l-.1.2-.5.2-.6-.2c-.2-.2-.2-.4-.2-.6v-1.5h-.2c-.1 0-.2-.1-.2-.3l.1-.2.4-.1v-.4c0-.2 0-.4.2-.5l.2-.1.2.1c.2.1.2.3.2.5v.4l.1-.1m3.2 2.4v.1l-.1.3-.3.1-.3-.1-.1-.2v-1.5c0-.1 0-.5-.4-.5l-.4.2-.1.5v1c0 .2 0 .4-.2.5h-.2l-.2-.1c-.2-.1-.2-.3-.2-.5v-3.1c0-.1 0-.2.2-.3l.2-.1.2.1c.2.1.2.4.2.4v.9l.1-.1c.1-.1.3-.2.7-.2h.3c.1 0 .5.2.6.6l.1.5-.1 1.5m4.4-2.1c.2.2.4.5.4 1.1l-.1.6c-.3.6-.8.8-1 .8l-.4.1-.7-.2c-.5-.3-.8-.8-.8-1.4 0-.4.1-.7.3-1 .2-.2.5-.5 1.2-.5.6.1 1 .4 1.1.5m-1.3.3c-.2.1-.4.3-.4.8l.1.5c.2.3.4.4.6.4l.4-.1c.3-.2.3-.7.3-.7a1 1 0 00-.3-.7l-.4-.1c-.2-.2-.2-.1-.3-.1zm3-.6h.2l.3.1.1.2c0 .2-.1.3-.2.3h-.3v2c0 .1-.1.3-.4.3l-.2-.1c-.2-.1-.2-.3-.2-.5v-1.8l-.3-.1-.1-.2c0-.2.2-.3.2-.3h.2v-.2c0-.1 0-.4.2-.6.2-.2.4-.2.7-.2s.5.1.5.3l-.1.3-.3.1c-.1.1-.2.1-.2.3l-.1.1m3.1 0h.2l.3.1.1.2c0 .2-.1.3-.2.3h-.4v2c0 .1-.1.3-.4.3l-.2-.1c-.2-.1-.2-.3-.2-.4v-1.8l-.3-.1-.1-.2c0-.2.2-.3.2-.3h.2V33c0-.1 0-.4.2-.6.2-.2.4-.2.7-.2s.5.1.5.3l-.1.3-.3.1c-.1.1-.2.1-.2.3m.7.5c0-.2 0-.3.2-.4l.3-.1.2.1c.2.1.2.3.2.5v1.3c0 .1.1.5.5.5l.3-.1c.2-.2.2-.5.2-.7v-1c0-.1 0-.3.2-.4l.2-.1.2.1c.2.1.2.4.2.4v1.9c0 .1 0 .5-.4.5-.1 0-.3 0-.4-.2l-.1-.2-.1.1c-.1.1-.3.3-.7.3-.2 0-.6 0-.9-.5l-.1-.7v-1.3m4.1-.5h.2l.2.3-.1.2-.3.1h-.1v1.6l.2.1h.1c.2 0 .2.2.2.3l-.1.2-.5.2-.6-.2c-.2-.2-.2-.4-.2-.6v-1.5h-.2c-.1 0-.2-.1-.2-.3l.1-.2.4-.1v-.4c0-.2 0-.4.2-.5l.2-.1.2.1c.2.1.2.3.2.5v.4l.1-.1m.6.5c0-.2 0-.3.2-.4l.2-.1.2.1c.2.1.2.3.2.5v1.3c0 .1.1.5.5.5l.3-.1c.2-.2.2-.5.2-.7v-1c0-.1 0-.3.2-.4l.2-.1.2.1c.2.1.2.4.2.4v1.9c0 .1 0 .5-.4.5-.1 0-.3 0-.4-.2l-.1-.2-.1.1c-.1.1-.3.3-.7.3-.2 0-.6 0-.9-.5l-.1-.7.1-1.3m3.9 1.9c0 .2 0 .4-.2.5l-.2.1s-.3 0-.4-.3v-2.2c0-.2 0-.3.2-.4l.2-.1.3.2.1.4.1-.3c.1-.2.3-.3.6-.3.2 0 .4.1.4.4l-.1.2c-.1.2-.3.1-.5.2l-.3.1c-.2.2-.2.5-.2.7v.8"/>
        <path d="M75.9 34.8l.1.3c.1.1.2.4.6.4.1 0 .3 0 .4-.2.1-.1.1-.2.3-.2.2 0 .4.2.4.4s-.1.3-.3.4c-.2.1-.4.2-.9.2-.2 0-.6 0-1-.4-.2-.2-.5-.5-.5-1.2 0-.2 0-.8.6-1.3.2-.1.4-.3.9-.3.2 0 .7 0 1 .4.3.4.3.8.3.9 0 .1 0 .3-.2.4h-1.7m1.2-.4l-.1-.3a.5.5 0 00-.5-.3c-.1 0-.3 0-.4.2l-.2.4h1.2zm5.3 1.4v.3c0 .3-.1.5-.3.8-.3.3-.8.5-1.2.5l-.7-.1c-.2-.1-.4-.2-.4-.5 0-.2.2-.4.4-.4h.2l.3.2.4.1c.1 0 .3 0 .5-.2l.1-.7-.1.1c-.1.1-.3.3-.7.3-.4 0-.6-.2-.7-.3-.2-.2-.5-.5-.5-1.1 0-.1 0-.5.2-.9.1-.2.4-.5 1-.5.1 0 .4 0 .6.2l.2.2c0-.1.1-.3.4-.3.1 0 .2 0 .3.2l.1.4-.1 1.7m-1.6-1.8c-.2.1-.4.2-.4.7l.1.3c0 .1.2.4.5.4l.3-.1c.2-.1.4-.3.4-.7 0-.2-.1-.5-.3-.6l-.3-.1-.3.1zm2.8 1l.1.3c.1.1.2.4.6.4.1 0 .3 0 .4-.2.1-.1.1-.2.3-.2.2 0 .4.2.4.4s-.1.3-.3.4c-.2.1-.4.2-.9.2-.2 0-.6 0-1-.4-.2-.2-.4-.5-.4-1.2 0-.2 0-.8.6-1.3.2-.1.4-.3.9-.3.2 0 .7 0 1 .4.3.4.3.8.3.9 0 .1 0 .3-.2.4h-1.8m1.2-.4l-.1-.3a.5.5 0 00-.5-.3c-.1 0-.3 0-.4.2l-.2.3 1.2.1zm2.8.2c0-.2 0-.4-.2-.5l-.2-.1-.3.1c-.3.2-.2.5-.2.6v1.4c-.1.2-.3.3-.4.3-.1 0-.2 0-.3-.2l-.1-.3v-2.2c.1-.2.3-.2.4-.2l.4.2.1.2.1-.1c.1-.1.3-.3.7-.3.6 0 .8.4.9.6l.1.5v1.4c0 .2 0 .3-.2.4l-.3.1-.2-.1c-.2-.1-.2-.4-.2-.4v-1.4m1.9.4l.1.3c.1.1.2.4.6.4.1 0 .3 0 .4-.2 0-.1.1-.2.3-.2.2 0 .4.2.4.4s-.1.3-.3.4c-.2.1-.4.2-.9.2-.2 0-.6 0-1-.4-.2-.2-.5-.5-.5-1.2 0-.2 0-.8.6-1.3.2-.1.4-.3.9-.3.2 0 .7 0 1 .4.3.4.3.8.3.9 0 .1 0 .3-.2.4h-1.7m1.1-.4l-.1-.3a.5.5 0 00-.5-.3c-.1 0-.3 0-.4.2l-.2.3 1.2.1zm1.9 1.4c0 .2 0 .4-.2.5l-.2.1s-.3 0-.4-.3v-2.2c0-.2 0-.3.2-.4l.2-.1.3.2.1.4.1-.3c.1-.2.3-.3.6-.3.2 0 .4.1.4.4l-.1.2c-.1.2-.3.1-.5.2l-.3.1c-.2.2-.2.5-.2.7v.8m3.8-.1v.1c0 .1 0 .5-.4.5-.3 0-.4-.3-.4-.3l-.2.2c-.3.2-.6.2-.7.2l-.4-.1a.8.8 0 01-.5-.8c0-.5.3-.7.5-.7.3-.2.8-.2 1.1-.3l.3-.2-.1-.1-.4-.1-.4.1-.1.1s-.1.2-.3.2a.4.4 0 01-.4-.4c0-.3.4-.5.4-.5l.8-.1h.3c.5.1.7.4.8.6l.1.5v1.1m-.9-.9l-.5.1-.3.1c-.1 0-.2.1-.2.3 0 .1.1.3.4.3h.2l.4-.2.1-.1-.1-.5zm2.4-1.4h.2l.2.3-.1.2-.3.1h-.1v1.6l.2.1h.1c.2 0 .2.2.2.3l-.1.2-.6.2-.6-.2c-.2-.2-.2-.4-.2-.6v-1.5h-.2c-.1 0-.2-.1-.2-.3l.1-.2.4-.1v-.4c0-.2 0-.4.2-.5l.2-.1.2.1c.2.1.2.3.2.5v.4l.2-.1m.6-.8c0-.2.2-.4.4-.4s.4.2.4.4-.2.4-.4.4l-.3-.1-.1-.3m.8 3.2v.2c0 .1-.1.3-.4.3l-.2-.1c-.2-.1-.2-.3-.2-.5v-1.9c0-.2 0-.3.2-.4l.2-.1c.3 0 .3.2.4.3v2.2zm2.9-2.1c.2.2.4.5.4 1.1l-.1.6c-.2.6-.8.8-1 .8l-.4.1-.7-.2c-.5-.3-.8-.8-.8-1.4 0-.4.1-.7.3-1 .2-.2.5-.5 1.2-.5.6.1 1 .4 1.1.5m-1.3.3c-.2.1-.4.3-.4.8l.1.5c.2.3.4.4.6.4l.4-.1c.3-.2.3-.7.3-.7a1 1 0 00-.3-.7l-.4-.1c-.2-.2-.2-.1-.3-.1zm3.8.6c0-.2 0-.4-.2-.5l-.2-.1-.3.1c-.3.2-.2.5-.2.6v1.4c-.1.2-.3.3-.4.3s-.2 0-.3-.2l-.1-.3v-2.2c.1-.2.3-.2.4-.2l.4.2.1.2.1-.1c.1-.1.3-.3.7-.3.6 0 .8.4.9.6l.1.5v1.4c0 .2 0 .3-.2.4l-.2.1-.2-.1c-.2-.1-.2-.4-.2-.4l-.2-1.4m2.8-.6l-.4-.1c-.3 0-.4.1-.4.3l.1.1.4.2.3.1.4.1c.2.1.5.3.5.7l-.2.5c-.3.3-.7.4-1 .4-.6 0-.9-.2-1.1-.3l-.2-.4c0-.2.2-.4.4-.4s.2.1.3.2l.1.2.5.1s.4 0 .4-.3v-.1l-.3-.2-.8-.3-.4-.4V34l.2-.6c.2-.2.5-.4 1-.4.1 0 .6 0 .9.3l.2.4c0 .2-.2.4-.4.4s-.3-.1-.3-.2l-.2-.1M124.1 11c-.5-1.3-2.1-3.6-5.8-3.6l-1 .1-.9.2-.8.3-.7.3a2 2 0 00-.6.4 2 2 0 00-.6.4l-.3.2-.1.1c-.1.1-.1 0-.1-.1l-.1-.2c-.1-.2-.5-.4-.7-.4l-.8-.2-.3-.1-.3-.3-.1-.2-.2-.1v-.2l.2-.3.1-.4.1-.3-.1-.5-.3-.7c-.2-.4-.6-.4-.7-.5h-.3l-.6.2-.2.2-.1.1v.1l-.2.3c0 .1-.1.1 0 .2v.9l.2.3.2.4.1.1.1.1.1.2-.1.1v.1l.1.2-.3.2h-.1l-.3-.6-.3-.5c-.1-.2-.3-.2-.5-.2l-.3-.1c-.4-.1-.6.4-.8.7l-.3.5-.1.4v.4l-.1.5.1.3c.1.2.2.4.1.6l-.5.5-.3.1c-.2-.1-.2-.5-.4-.6l-.3-.1c-.2 0-.3-.1-.1-.3l.1-.1.1-.1h.1l.1-.1.2-.2v-.1l-.1-.1.1-.2c.1-.1.1-.3 0-.4l-.2-.4-.2-.1h-.2l-.1-.1c-.1-.3-.2-.3-.3-.3l-.4.1-.1.2-.2.2-.1.2-.1.4v.2l-.1.1.1.3.1.2h.1l.2.3c.1.2-.1.2-.2.3l-.6.6-.3.8-.1.2-.1.2.3.6.3.2.2.1.1.1v.2l.1.1v.2l.1.3.4.4.2.4.3.3c.3.2.2.3.1.6l-.3.8-.1.4v.3l.1.1-.1.2c-.1.1-.2.1-.1.2 0 .2.2.3.3.5v.3l.2 1.6.5 2.9v.1h.2V25h-.2l-.1.1V28l-.1.2-.1.2-.2.3-.3.5c-.1.1-.1.2.1.2h.2l.7-.2.4-.3.1-.2.1-.1h.1c.1 0 .1.1.2 0l.1-.1v-1l-.1-.4.1-1 .1-.6.1-.2v-.1h-.1v-.4l.1-.4v-1.1h.5v.9h-.1v1.2l-.1.3-.1.4-.1.4v.9l.3.1.1-.1.1.1.1.2v.1l.5.2.4.1s.3.1.3-.1l-.1-.2-.3-.3-.1-.2-.1-.3-.1-.3-.1-.2v-.4l.1-.5.2-.7.1-.4v-.1h-.1v-.3l.1-.4V23l.1-.1h.1v-.4l.1-.5v-.4c0-.1.1-.1.1 0v.1l.1.3.2.9.2 1 .3 1.1.3.9.1.2.1.3.1.2h.1l.1.1-.1.2-.2.3-.4.3-.4.1-.3.1-.1.2v.3l.2.2h.7l.6-.1.4-.1h.3l.1.1h.7l.1-.2v-.2l.1-.3.1.3v.3c0 .2-.1.8.5.8.4 0 .8 0 .8-.3l-.2-.6-.2-.5-.1-.3V27l.1-.1-.1-1.6-.2-2-.2-1.3-.2-1.7-.1-.7-.1-.3c0-.1-.1-.2 0-.2l.1-.1.1-.1.1-.1h.2l.2-.1.1-.2v-.3l.1-.3.1-.2.2-.1c.1-.1.1-.1 0-.2v-.8l.1-.6.2-.9.1-.4.1-1 .1-.1.1-.1.2-.1.9-.2c.6 0 1.9.2 2.3 1.9l.1 1.2v8.1l.2 1.6c.4 1.4 1.5 2.1 1.9 2.4.6.3 1.3.3 1.5.3 1.7 0 3-1.1 3.5-2.8l.2-1.4v-11c-.2-1-.2-1.7-.5-2.5"/>
    </g>
</svg>
