<svg xmlns="http://www.w3.org/2000/svg" viewBox="0 0 64 68">
    <filter id="logo-wShadow_svg__a">
        <feGaussianBlur in="SourceAlpha" stdDeviation="4"/>
        <feOffset result="offsetblur"/>
        <feFlood flood-color="#AFD139"/>
        <feComposite in2="offsetblur" operator="in"/>
        <feMerge>
            <feMergeNode/>
            <feMergeNode in="SourceGraphic"/>
        </feMerge>
    </filter>
    <g transform="translate(10 10)" filter="url(#logo-wShadow_svg__a)" fill-rule="evenodd" clip-rule="evenodd">
        <path fill="#349348" d="M0 15v18a6 6 0 003.1 5.2l15.8 9a6 6 0 006.1 0l15.8-9a6.1 6.1 0 003.1-5.2V15a6 6 0 00-3.1-5.2L25 .8a6 6 0 00-6.1 0l-15.8 9A6.1 6.1 0 000 15"/>
        <path fill="#73ad43" d="M5.5 11.5l-4.2 15c-.5 1.8 0 3.7 1.4 5.1l11.2 11.1a5.5 5.5 0 005.2 1.4l15.4-4a5.4 5.4 0 003.8-3.7l4.2-15.1c.5-1.8 0-3.7-1.4-5.1l-11.2-11a5.5 5.5 0 00-5.2-1.4l-15.4 4a5.4 5.4 0 00-3.8 3.7"/>
        <path fill="#afd139" d="M20.1 39.7l-2.8-.9C6.9 35.7 8.8 37.7 6.4 27.4S3.1 19.7 11 12.5 16.1 5.9 26.5 9c10.3 3.1 8.4 1.1 10.9 11.4 2.4 10.3 3.3 7.7-4.6 14.9-6.4 5.9-5.8 6.6-10.8 5"/>
        <path d="M13.2 18.4H7.8c-.2 0-.3.1-.3.3v.8c0 .2.1.3.3.3h1.8l.1.2v8.5c0 .2.1.3.3.3h1c.2 0 .2-.1.2-.3V20l.2-.2h1.8c.2 0 .3-.1.3-.3v-.8c0-.2-.1-.3-.3-.3m4.9 5.7l-.1.2h-2.8l-.1-.2v-1l.2-.9c.2-.2.4-.3.8-.3h1c.4 0 .6.1.8.3.2.2.2.5.2.9v1zm-.9-3.6h-1.4c-.7 0-1.3.2-1.7.6s-.6 1-.6 1.8v3.2c0 .8.2 1.4.6 1.8.4.4 1 .7 1.7.7h3.4c.2 0 .3-.1.3-.3v-.8c0-.2-.1-.3-.3-.3H16c-.7 0-1.1-.4-1.1-1.2v-.7l.2-.2h4.1c.2 0 .3-.1.3-.3v-2c0-.8-.2-1.4-.6-1.8-.4-.3-1-.5-1.7-.5zm17.2 6.7l-.2.1h-1.8a2 2 0 01-.9-.2c-.2-.2-.3-.5-.3-.8v-.5c0-.4.1-.6.3-.8.2-.2.5-.2.9-.2h1.8l.2.1v2.3zm.8-6c-.4-.4-1-.7-1.7-.7h-2.9c-.2 0-.3.1-.3.3v.8c0 .2.1.3.3.3h2.7c.7 0 1.1.4 1.1 1.2v.6h-2c-.8 0-1.4.2-1.9.6-.4.4-.7.9-.7 1.7v.6c0 .7.2 1.3.7 1.6.4.4 1.1.6 1.9.6h3.4V23c0-.8-.2-1.4-.6-1.8zm-10.9-.7h-.5l-.9.2-.6.6h-.1v-.6c0-.2-.1-.3-.2-.3h-1c-.2 0-.2.1-.2.3v7.6c0 .2.1.3.2.3h.9c.2 0 .2-.1.2-.3v-5.1c0-1 .4-1.5 1.2-1.5h.9c.2 0 .2-.1.2-.3v-.8l-.1-.1m4.7 0h-.5l-.9.2-.6.6h-.1v-.6c0-.2-.1-.3-.2-.3h-.9c-.2 0-.2.1-.2.3v7.6c0 .2.1.3.2.3h.9c.2 0 .2-.1.2-.3v-5.1c0-1 .4-1.5 1.2-1.5h.9c.2 0 .2-.1.2-.3v-.8l-.2-.1" fill="#fefefe"/>
    </g>
</svg>
