<svg width="30" height="21" xmlns="http://www.w3.org/2000/svg">
    <path d="M12 0a7.6 7.6 0 016.5 3.8c.8-.5 1.6-.8 2.5-.8 1.3 0 2.3.4 3.2 1.3.9.9 1.3 2 1.3 3.2 0 .6 0 1.1-.3 1.6a7 7 0 012.5 1.1A6.1 6.1 0 0130 15c0 1.7-.6 3-1.8 4.2A5.8 5.8 0 0124 21H6.4c-1.7 0-3.2-.7-4.4-2a6.6 6.6 0 01-2-4.8c0-1.4.4-2.7 1.3-3.9.8-1.1 1.9-2 3.2-2.4v-.7c0-2 .8-3.6 2.2-5A7.2 7.2 0 0112 0zm4.1 6h-3c-.2 0-.5.2-.5.5l-.6 4.9c0 .3.2.6.5.6h3l-1.2 5.3c0 .4.2.7.6.7.2 0 .4-.1.5-.3l3.5-7.3c.2-.3 0-.8-.4-.8h-2.7l.8-2.9c.1-.3-.1-.7-.5-.7z" fill="#4D72AA"/>
</svg>
