<svg aria-hidden="true" data-prefix="fas" data-icon="copy" class="copy-solid_svg__copy-solid_svg__svg-inline--fa copy-solid_svg__copy-solid_svg__fa-copy copy-solid_svg__copy-solid_svg__fa-w-14" xmlns="http://www.w3.org/2000/svg" viewBox="0 0 448 512">
    <path fill="currentColor" d="M320 448v40a24 24 0 01-24 24H24a24 24 0 01-24-24V120a24 24 0 0124-24h72v296a56 56 0 0056 56h168zm0-344V0H152a24 24 0 00-24 24v368a24 24 0 0024 24h272a24 24 0 0024-24V128H344a24 24 0 01-24-24zm121-31L375 7a24 24 0 00-17-7h-6v96h96v-6a24 24 0 00-7-17z"/>
</svg>
