<svg aria-hidden="true" data-prefix="fas" data-icon="file-search" class="file-search-solid_svg__file-search-solid_svg__svg-inline--fa file-search-solid_svg__file-search-solid_svg__fa-file-search file-search-solid_svg__file-search-solid_svg__fa-w-20" xmlns="http://www.w3.org/2000/svg" viewBox="0 0 640 512">
    <path fill="currentColor" d="M288 320a160 160 0 0196-146.4V160H248a24 24 0 01-24-24V0H24A24 24 0 000 24v464a24 24 0 0024 24h336a24 24 0 0024-24v-21.6A160 160 0 01288 320zm96-198.1a24 24 0 00-7-16.9L279.1 7a24 24 0 00-17-7H256v128h128zm251.3 340.2L558 384.7a126.7 126.7 0 0018-64.7 128 128 0 10-128 128c23.7 0 45.6-6.9 64.7-18.1l77.4 77.4a16 16 0 0022.6 0l22.6-22.6a16 16 0 000-22.6zM448 384a64 64 0 1164-64 64 64 0 01-64 64z"/>
</svg>
