<svg aria-hidden="true" data-prefix="far" data-icon="sync-alt" class="sync-alt-regular_svg__sync-alt-regular_svg__svg-inline--fa sync-alt-regular_svg__sync-alt-regular_svg__fa-sync-alt sync-alt-regular_svg__sync-alt-regular_svg__fa-w-16" xmlns="http://www.w3.org/2000/svg" viewBox="0 0 512 512">
    <path fill="currentColor" d="M483.5 28.5l-52.1 52.2a248 248 0 00-423 162.8A12 12 0 0020.2 256h28a12 12 0 0012-11.3 195.9 195.9 0 01334.3-127.3l-54.1 54.1A12 12 0 00349 192h143a12 12 0 0012-12V37a12 12 0 00-20.5-8.5zm8.2 227.5h-28a12 12 0 00-12 11.3 195.9 195.9 0 01-334.3 127.3l54.1-54.1A12 12 0 00163 320H20a12 12 0 00-12 12v143a12 12 0 0020.5 8.5l52.2-52.1a248 248 0 00423-162.8 12 12 0 00-12-12.6z"/>
</svg>
