<svg width="647" height="121" xmlns="http://www.w3.org/2000/svg">
    <g fill="none">
        <path d="M238.4 25a16.9 16.9 0 00-14.8 17.3c0 1.4 0 2.8.2 3.2l.4 1.4A17.3 17.3 0 00236 59a17.5 17.5 0 0013.8-2.3c2.6-1.8 6.3-6.5 6.3-8 0-.2 0-.4.2-.5l.8-3a22 22 0 000-5.7l-.4-1.8a17 17 0 00-18.3-12.8m87.6 0l-3.6.8a22.5 22.5 0 00-4.4 2.1 17 17 0 003.4 30.5c4.7 2 11 1.6 15.9-1 1.8-.9 1.8-.6.1-4-1.6-3-1.3-2.8-1.9-2.4a13 13 0 01-11 1.4 15.2 15.2 0 01-3.7-2c-6-4.3-4-15.7 3.2-18l.9-.3c2.7-1.1 8.8-.3 10.7 1.5.3.3.4.3.5.1l2.4-4.6.4-1-.3-.2c-1.1-.9-4-2-6.6-2.6-.8-.2-5-.4-6-.3M167 42.2v16.6h6.6V46.2h3A16.7 16.7 0 00184 45c.6 0 3.2-2.2 4-3.4 2.5-3.5 2-10-.9-13-1.7-1.6-2.5-2-5.7-3a76 76 0 00-7.6 0H167v16.6m28.6 0v16.6h6.7V46.3h.6c.7 0 .7.1 2 1.7a263.8 263.8 0 002.9 3.8l1.2 1.6.6.8 2.5 3.3 1 1.3h4.3l4.2-.1a83.7 83.7 0 00-6-7.4l-1.3-1.5-1-1.3-1.9-2.2c-.6-.7-.6-.6.6-1.1 7.7-3 8.6-14.3 1.5-18.3-2.3-1.3-3.3-1.4-11-1.4h-6.9v16.7m75.7-4.5V50l-.5.8c-1.5 3-4.7 3.2-7.8.7-.8-.7-.8-.7-1.5 1a22.3 22.3 0 01-.9 2.3l-.1.4c-.4.4-.6 1.2-.3 1.4a12 12 0 0013 2c2.1-1 3.5-2.6 4.4-5l.4-1.4V38.8l.1-13.3h-6.8v12.2m15.3 4.5v16.6h18.9V53h-12.2v-8H305v-5.8h-11.7v-7.9h12.2v-5.8h-18.9v16.7m53.7-13.8v3h8.5v27.4h6.7V31.3h8.3v-5.8h-23.5v3M179 31.2c2.4.7 3.5 2.2 3.5 4.6 0 3.1-2.3 4.8-6.8 4.8h-2.2v-10l2.3.2c1.6 0 2.6.2 3.2.4m28.8 0c2.4.8 3.7 3 3.2 5.4-.6 2.8-2.5 4-6.6 4h-2.2v-10l2.4.2c1.6 0 2.6.2 3.2.4m35.8.6c1.7.7 4 2.6 4.4 3.5l.2.3s.2 0 .2.2l.1.3.2.1.4 1 .7 2.5c2.3 13-13.4 18.7-18.5 6.6a14 14 0 01.3-9c2-5 7.4-7.3 12-5.5m-69.2 34.9a10 10 0 00-8.3 10.1c.2 3.4 2.3 5.9 6.5 7.9 7.2 3.3 7.8 3.8 7.8 6.5 0 1.2-.6 2.6-1.4 2.8-.2 0-.3.2-.3.2 0 .6-4.3.9-5.5.4a16 16 0 01-4.9-2.7 6.5 6.5 0 00-1.7-1.1l-3.2 5.4a17.2 17.2 0 0014.5 4.8c2.4-.3 2.9-.5 4.9-1.4 3.3-1.7 4.8-4.3 4.8-8.6v-2.8l-.5-1.2c-1.1-2.2-3.8-4.3-7.7-6a97.1 97.1 0 01-5.5-2.5c-2-1.2-1.4-4.4.9-5.4 1.2-.6 4-.6 5.2 0a56.1 56.1 0 002.9 1.5c1 .7 1 .7 1.8-.7 1.3-2.5 2-3.9 1.9-4a17.4 17.4 0 00-6.5-3c-1.5-.5-4-.5-5.7-.2m84-.1c-2.3.3-6 1.6-6.2 2.2l-.2.1a17 17 0 00-4.3 3.8c-4.6 4.8-4.7 16-.2 22a26 26 0 004.7 4.2 13.3 13.3 0 002.9 1.3c.2.2 1.4.5 3.4.8 7 1 14-2.8 16.5-8.8.8-1.8.9-2.6.9-6.5v-3.5h-15.5v5.4h8.6v.7c0 2-1.7 4.4-4 5.5-1.8 1-2.1 1-4.1 1-2 0-2.2 0-3.7-.7-6.5-2.8-8-14.4-2.4-19.3 3.6-3.3 10.3-3 14.8.6.4.3.7.5.8.4 0-.2 2.3-3.8 2.8-4.6.4-.7-1-1.8-4.1-3.1-3-1.3-7.8-2-10.7-1.5m-64 17.1v16.7h6.6V67.2h-6.6v16.6m15.6 0v16.7h6.8V78.6l.6 1a762 762 0 009.7 15 55 55 0 002.8 4.3l1 1.6h6.7V67.2H231v11l-.1 10.9-.5-.8a653.2 653.2 0 00-6.4-10c-2.4-3.6-4.4-6.9-6-9.1l-1.2-2H210v16.6m71.7-6c0 10.9.1 14.3.7 15.8A12 12 0 00284 97l.7.8c3.2 3.8 12.4 4.7 17.6 1.7a10 10 0 004.5-6.2c.5-2 .6-3 .6-14.6V67.2h-6.9v10.5c0 11.8 0 12.5-1 14.3a5 5 0 01-.6 1.2s-.3.1-.5.4c-1.6 1.4-6 1.3-7.8-.2-2-1.6-2-2.5-2-15.5V67.2h-6.9v10.7m34 6v16.6h18.8v-5.8h-11.9V67.2h-6.8v16.6m33.5-16.2a48.2 48.2 0 00-1 2.4 54.5 54.5 0 00-2 5l-.4 1-.4 1.2-.2.4-.2.5-.6 1.3-.4 1.1-.1.4-.5 1.2a32.8 32.8 0 01-1.5 3.7 57.7 57.7 0 01-1.7 4.2 57.1 57.1 0 01-2.4 6l-.5 1.3-.4 1-.2.5-.7 1.6 3.7.1h3.6l.5-1.3a36.5 36.5 0 011.2-3.4l.7-1.8.4-1H359l.2.6a293.3 293.3 0 011.5 4l1 3h3.7c2 0 3.6-.1 3.6-.2l-.1-.4-.8-1.8a53.9 53.9 0 00-2.3-5.8 47.7 47.7 0 01-1.6-4 44.2 44.2 0 01-2-5l-.3-.8a68.4 68.4 0 01-2.4-5.8 54.3 54.3 0 00-1.6-4.1 46.8 46.8 0 00-1.7-4.2l-.4-1.2h-3.2l-3.2-.1-.2.4m24.5 16.2v16.7h6.8V88.2h.7c.7 0 .8 0 2 1.7a67.7 67.7 0 004.2 5.4l.8 1.1 1.1 1.4a37 37 0 001.6 2l.5.7h4.2l4.3-.1-.4-.6a93.1 93.1 0 01-3.4-4 196 196 0 01-6.7-8.4l.8-.5c7.4-2.4 8.6-13.9 2-18-2.3-1.5-4-1.7-12.2-1.7h-6.3v16.6m11.3-11c3 .5 4.4 2 4.4 4.6 0 3.4-1.9 4.8-6.2 5h-2.7v-9.9h1.6c.9 0 2.2.1 3 .3m-30.6 8.8l2 5.2c.2.2-.6.2-4 .2h-4.1l.6-1.5a21.9 21.9 0 00.9-2.3l.1-.3.4-1.2c.3-.4.5-1 .6-1.3l.2-.6.4-1c.5-1.3.8-2.1 1-2.1l2 5" fill="#FCFCFC"/>
        <path d="M36.8 0l-2 .3a35.8 35.8 0 00-4.8.9 46.7 46.7 0 00-14.5 6.4c-1 .5-.8.4-2.6 2A35.3 35.3 0 000 38.2a45.5 45.5 0 003.2 16 73 73 0 0010.4 18.6c2.6 3.6 4.6 6 8 9.8a176.3 176.3 0 0028.5 24.6l1.3-1.6 1.2-1.4.9-1-1.6-1.2a272.8 272.8 0 01-11.3-9.2 136.2 136.2 0 01-7.2-6.6L32 84.7l1.3-1.3c2.7-2.7 6-4.8 9.7-6.2 1.4-.6 1.3-.6 2.6.6a91.7 91.7 0 002.8 2.5 511 511 0 006.8 6.3c1.5 1.4 1.8 1.6 2.7 1.7 1.4.1 2.5-.8 2.5-2.3 0-1-.2-1.4-3.2-4a66.3 66.3 0 01-3.6-3.4L51 76.4l-1.3-1.2.9-.1 1.6-.3c1.8-.3 8-.4 16.7-.3 16.9.1 22.3-1.2 28-7 6-6 7.6-12 6.4-24.7L103 40v-1.1l-1-.1-2-.1h-1.3l.2 1c1.6 13.6-.5 21.5-7 26l-1 .7a38.5 38.5 0 01-4.3 2l-.9.2-.6-.6a41.8 41.8 0 00-3.3-3 123.4 123.4 0 00-4-3.6c-5.6-5.2-5.3-5-6.5-5-1.5 0-2.5 1.2-2.2 2.8.1.6 1.1 1.7 5.8 5.9a284.2 284.2 0 014.3 4l.7.5-1 .1-12.5.1c-12.6 0-13.2 0-18.4 1a42 42 0 00-11.3 4l-.3.2c-.2 0-.3 0-.3.2l-.4.2c-.2 0-.4.2-.4.3l-.2.1c-.4 0-4 2.8-5.7 4.6l-.9 1-1.2-1.4a145.6 145.6 0 00-4.8-5.5 178.7 178.7 0 01-7.7-10.4l-.9-1.6a54.6 54.6 0 01-6.8-16 34.3 34.3 0 011-20 37.3 37.3 0 014.3-7.4 35 35 0 0123-12.8 37 37 0 0119 2.3 38.6 38.6 0 018.2 5 48.6 48.6 0 015.8 6.3c1.5 2.2 2 2.6 3.4 2.6 1.3 0 2-.4 2.8-1.7a38.3 38.3 0 017.7-8.3 18.7 18.7 0 012.5-1.6c0-.2.6-.4 2.5-1.4a11.5 11.5 0 012.2-1 31.3 31.3 0 0110-2.4c.6-.1.6-.2-.1 1.7a47.7 47.7 0 00-2 20l-.1.7h4.9l-.1-.4a66 66 0 01.2-13.2 42 42 0 013-8.6c.3-.8.1-.8 2 .9a165.9 165.9 0 005.4 4.9 235.5 235.5 0 018 7.4c2.4 2.1 2.3 2 3.1 2.3 1.7.6 3.2-1 2.9-2.8-.1-.6-.7-1.2-2.8-3.1a400.4 400.4 0 01-12.4-11.3L110 3a43 43 0 01-2.3-2.1l-.9-1h-3A52.4 52.4 0 0090 1.8a40 40 0 00-18 11.8l-.4.6-.5-.6A49.7 49.7 0 0063.9 7a40 40 0 00-19.6-7c-1.3 0-7.4-.2-7.5 0" fill="#6CCC24"/>
        <path d="M112.3 1.7a487.5 487.5 0 0012 10.8 31 31 0 018.3 8l.7 1-.9.8-3.3 2.8a32 32 0 01-8 4l-.8-.5a138.3 138.3 0 00-6-5.5l-2.2-2c-3.7-3.5-4.7-4-6.1-3.2-2 1.2-1.4 3 1.7 5.7a398 398 0 017 6.3c1 1 1 .9-.8 1-5.1.7-9.2.8-15.1.6a88 88 0 00-17.2.5A23.2 23.2 0 0062 49.6c-.5 2-.8 5.4-.7 8.6 0 3 .5 8.6.6 8.7 0 0 1.3.2 2.7.2l2.5.1-.1-1a69.9 69.9 0 01-.4-14.4l1-4c.8-1.7 1.7-3.5 2-3.5l.7.6a175.7 175.7 0 007.5 6.9A548.5 548.5 0 0088 61c3 2.8 6.5-.3 3.6-3a188.2 188.2 0 00-8.8-8.2 1190.3 1190.3 0 01-9.8-9c-.4-.2 2-1.9 3.6-2.5l.9-.4.7-.2.8-.3c.3-.3.5-.1 2.4 1.7a182.2 182.2 0 003.7 3.3 434 434 0 006.5 6c2.2 2 4.6 1.7 4.8-.7 0-1.1-.2-1.6-1.7-2.9l-2.8-2.6-2-1.7a3402.8 3402.8 0 00-4.4-4.4h12a84 84 0 0020.4-1.1 39.2 39.2 0 0017-8.6l.6-.5.3 1a35.3 35.3 0 010 21.8 36.2 36.2 0 01-2 5.5l-1.5 3.4A70.4 70.4 0 01121.4 74a58.4 58.4 0 01-2.7 3.2 155.2 155.2 0 01-25.5 23.2l-1.4 1.1a250.5 250.5 0 01-18.4 12.1c-1.6 1-1.7 1-2.4.6l-.8-.5-1.6-1-1.2-.7a36.6 36.6 0 01-4.1-2.5l-1.3-.9c-1.6-1-1.6-.8-.5-2.3a34.4 34.4 0 006-14.6c.4-1.6.5-7.8.4-11.6l-.1-2.8h-4.5v1.2A38.3 38.3 0 0160.6 99c-.5 1-.5 1-1.2.4a207.8 207.8 0 00-8-6.9 112.9 112.9 0 01-5.3-4.7 82 82 0 01-1.3-1.1c-2.2-2.1-3-2.6-4-2.6-1.6 0-2.7 1.7-2 3.3.1.5 0 .4 2.6 2.5a312.4 312.4 0 019 7.4l3.4 3 1.3 1a49.4 49.4 0 012 1.6c.6.5.8 1 .5 1l-1.5 1.7a91.8 91.8 0 01-3.2 4l9.2 6c2.4 1.6 5.8 3.7 7.7 4.7 1.5.8 2.6.9 3.9.2l1.3-.7a151.5 151.5 0 0016.5-10.5 59.5 59.5 0 004.8-3.5A227 227 0 00109 95.4a179.4 179.4 0 0019.3-20.2 78 78 0 0014-26.6 38.7 38.7 0 00-5.6-32.3c-1-1.6-5-5.7-7-7.2a46 46 0 00-18-8l.7.6" fill="#34CCC4"/>
        <path d="M446.8 63.8c1.3 1 2 2.5 2 4.4 0 2-.7 3.4-2 4.4a8 8 0 01-5.2 1.6H437v5.6h-2V62.2h6.5a8 8 0 015.3 1.6zm-1.4 7.8c1-.8 1.4-1.8 1.4-3.3 0-1.4-.5-2.5-1.4-3.3a6 6 0 00-4-1.2h-4.6v8.8h4.6c1.8 0 3.2-.3 4-1zm8.7 7.6a6.5 6.5 0 01-3.2-5.9c0-1.3.3-2.5.9-3.4.6-1 1.4-1.8 2.3-2.4a7 7 0 013.5-.9 6.6 6.6 0 015.8 3.2 7 7 0 01.8 3.6c0 1.3-.2 2.5-.8 3.4a6.9 6.9 0 01-2.4 2.4c-1 .6-2.1.9-3.4.9a8 8 0 01-3.5-.9zm6-1.4c.8-.5 1.4-1 1.8-1.8a5 5 0 00.6-2.8 6 6 0 00-.6-2.7c-.4-.9-.9-1.5-1.7-1.8-.7-.5-1.6-.6-2.5-.6-1 0-1.8.2-2.5.6-.7.4-1.3 1-1.8 1.8s-.6 1.7-.6 2.7c0 1.1.3 2 .6 2.8.5.8 1 1.4 1.8 1.8.7.5 1.5.6 2.5.6s1.6-.1 2.5-.6zm26.8-11.3l-5 13.3h-1.6L476 69l-4 11h-1.7l-5-13.4h1.7l4.2 11.4 4.2-11.4h1.6l4.2 11.4 4.1-11.4zm13.7 7.3h-11c.1 1.5.6 2.6 1.5 3.4 1 .8 2.2 1.3 3.6 1.3.8 0 1.5-.1 2.2-.5a4 4 0 001.8-1.3l1 1.2a6.6 6.6 0 01-5.1 2.3 6.7 6.7 0 01-6-3.2 6 6 0 01-.9-3.5 6.6 6.6 0 013-5.9c1-.6 2.2-.8 3.4-.8 1.2 0 2.3.2 3.3.8 1 .6 1.8 1.3 2.2 2.4.6 1 .9 2.2.9 3.5v.3zm-9.6-4.5a5 5 0 00-1.4 3.2h9.3a5 5 0 00-1.4-3.2 4.2 4.2 0 00-3.2-1.2c-1.3 0-2.3.3-3.3 1.2zm16.8-2.2a7 7 0 013-.7v1.8h-.4c-1.4 0-2.5.5-3.3 1.3-.9.9-1.2 2-1.2 3.6V80H504V66.6h1.7v2.7a6 6 0 012-2.2zm17.6 6.7h-11c.1 1.5.6 2.6 1.5 3.4 1 .8 2.2 1.3 3.6 1.3.8 0 1.5-.1 2.2-.5a4 4 0 001.8-1.3l1 1.2a6.6 6.6 0 01-5.1 2.3 6.7 6.7 0 01-6-3.2 6.1 6.1 0 01-.9-3.5 6.6 6.6 0 013-5.9c1-.6 2.2-.8 3.4-.8 1.2 0 2.3.2 3.3.8 1 .6 1.8 1.3 2.2 2.4.5 1 .9 2.2.9 3.5l.1.3zm-9.6-4.5a5 5 0 00-1.4 3.2h9.3a5 5 0 00-1.4-3.2 4.2 4.2 0 00-3.2-1.2c-1.3 0-2.3.3-3.3 1.2zm25.3-8.2V80h-1.6v-2.7a5.8 5.8 0 01-5.1 2.8 6.5 6.5 0 01-6.5-6.7 6.6 6.6 0 013.2-6 6.6 6.6 0 016.1 0c.8.4 1.6 1 2.1 1.9v-8h1.8V61zM537 77.8c.7-.5 1.3-1 1.8-1.8.4-.8.5-1.7.5-2.8 0-1-.2-1.9-.5-2.7a3.9 3.9 0 00-1.8-1.8c-.7-.5-1.6-.6-2.5-.6-1 0-1.8.2-2.5.6-.7.4-1.3 1-1.8 1.8a6.6 6.6 0 000 5.5c.5.8 1 1.4 1.8 1.8.7.5 1.5.6 2.5.6a4 4 0 002.5-.6zm25.7-10.4a6.5 6.5 0 013.2 5.8 6.6 6.6 0 01-3.2 6 7 7 0 01-3.3.8 6 6 0 01-3-.8 6.7 6.7 0 01-2-2v2.6h-1.8V61h1.8v8c.6-.8 1.3-1.5 2-1.9 1-.5 1.9-.7 3-.7 1.2.1 2.3.4 3.3 1zm-1 10.4a4.9 4.9 0 002.3-4.6 6 6 0 00-.6-2.7c-.4-.9-1-1.5-1.7-1.8-.7-.5-1.6-.6-2.5-.6-1 0-1.8.2-2.5.6-.7.4-1.3 1-1.8 1.8s-.6 1.7-.6 2.7c0 1.1.3 2 .6 2.8.5.8 1 1.4 1.8 1.8.7.5 1.5.6 2.5.6 1 .1 1.8-.1 2.5-.6zm18.5-11.3l-6.6 15a7 7 0 01-1.9 2.7 5 5 0 01-2.5.8c-.6 0-1.1-.1-1.7-.4a3 3 0 01-1.5-1l.9-1.2a3 3 0 002.3 1c.6 0 1-.2 1.6-.5.4-.4.8-1 1.1-1.7l.6-1.3-5.9-13.4h2l4.9 11.4 5-11.4h1.7zm12.8-2.7h-6.2v-1.6H601v1.7h-6V80h-2zm20.7 10h-11c0 1.5.6 2.6 1.5 3.4 1 .8 2.1 1.3 3.6 1.3.8 0 1.5-.1 2.2-.5a4 4 0 001.8-1.3l1 1.2a6.6 6.6 0 01-5.2 2.3 6.7 6.7 0 01-6-3.2c-.6-1-.8-2.2-.8-3.5a6.6 6.6 0 013-5.9c1-.6 2.2-.8 3.4-.8a6 6 0 013.3.8c1 .6 1.7 1.3 2.2 2.4.6 1 .8 2.2.8 3.5l.2.3zm-9.5-4.5a5 5 0 00-1.4 3.2h9.3a5 5 0 00-1.4-3.2 4.2 4.2 0 00-3.2-1.2c-1.4 0-2.5.3-3.3 1.2zm16.7-2.2a7 7 0 013-.7v1.8h-.4c-1.5 0-2.5.5-3.3 1.3-.9.9-1.2 2-1.2 3.6V80h-1.8V66.6h1.7v2.7c.6-1 1.2-1.7 2-2.2zm9.9 0a7 7 0 013-.7v1.8h-.4c-1.4 0-2.5.5-3.3 1.3-.9.9-1.2 2-1.2 3.6V80H627V66.6h1.7v2.7c.5-1 1.2-1.7 2-2.2zm14.8.7c1 .9 1.4 2.2 1.4 3.9V80h-1.7v-2.2a4 4 0 01-1.7 1.7c-.9.5-1.7.6-2.8.6-1.4 0-2.6-.4-3.5-1a3.6 3.6 0 01-1.3-2.9c0-1 .4-2 1.2-2.7.8-.7 2.1-1 3.9-1h4.1v-1c0-1.1-.3-2-1-2.6-.5-.6-1.5-1-2.7-1-.8 0-1.6.2-2.3.4-.7.3-1.4.7-2 1.2l-.8-1.3a8.2 8.2 0 015.3-1.8c1.6.1 3 .5 3.9 1.4zm-2 10.1a4 4 0 001.6-2v-2.2h-4.1c-2.2 0-3.4.9-3.4 2.4 0 .7.2 1.5.8 1.8a4 4 0 002.5.7c1 0 1.9-.2 2.6-.7z" fill="#FFF"/>
        <g fill="#FFF">
            <path d="M436.4 44v3.3h5v1.1h-5v3.9H435v-9.5h7V44zm13.8 1v7.3h-1.3v-1.1c-.3.4-.7.7-1.1.9l-1.5.3c-1 0-1.7-.3-2.3-.8a3 3 0 01-.9-2.4v-4.1h1.4v4c0 .7.2 1.2.5 1.6.3.3.8.5 1.5.5s1.3-.2 1.7-.6c.4-.4.6-1 .6-1.8v-3.7h1.4zm6.2 0c1 0 1.7.3 2.3.8.5.5.8 1.3.8 2.3v4.2h-1.3v-4c0-.7-.2-1.2-.6-1.6-.3-.3-.8-.5-1.5-.5s-1.3.2-1.7.6c-.4.4-.6 1-.6 1.8v3.7h-1.4V45h1.3v1l1.1-.8a4 4 0 011.6-.3zm12.4-2.8v10h-1.3v-1a3 3 0 01-1.1.9c-.5.2-1 .3-1.6.3a4 4 0 01-2-.5c-.5-.3-1-.7-1.3-1.3-.3-.6-.4-1.2-.4-2 0-.6.1-1.3.4-1.8.4-.6.8-1 1.4-1.3a4 4 0 013.4-.2c.5.2.8.5 1.1.9v-4h1.4zm-3.9 9c.5 0 1 0 1.3-.3.4-.2.7-.5 1-.9.1-.4.3-.8.3-1.3s-.2-1-.4-1.3c-.2-.4-.5-.7-.9-1l-1.3-.2c-.4 0-.9 0-1.2.3-.4.2-.7.5-1 .9-.2.3-.3.8-.3 1.3s.1 1 .4 1.3c.2.4.5.7.9.9.3.2.8.3 1.2.3zm12.9-2.5v.4h-6c0 .7.3 1.2.8 1.5.5.4 1 .6 1.8.6 1 0 1.6-.3 2.2-.8l.7.8c-.3.4-.7.7-1.2.9a4.7 4.7 0 01-3.8-.2 3.5 3.5 0 01-1.9-3.3c0-.6.1-1.2.4-1.8a4 4 0 013.3-1.8c.7 0 1.4.2 2 .5.5.3 1 .7 1.2 1.3.3.6.5 1.2.5 2zm-3.7-2.6c-.6 0-1.2.2-1.6.6-.5.4-.7.9-.8 1.5h4.8c0-.6-.3-1.1-.8-1.5-.4-.4-1-.6-1.6-.6zm12.3-3.9v10h-1.3v-1a3 3 0 01-1.1.9c-.5.2-1 .3-1.6.3a4 4 0 01-1.9-.5c-.6-.3-1-.7-1.3-1.3-.4-.6-.5-1.2-.5-2 0-.6.1-1.3.5-1.8.3-.6.7-1 1.3-1.3a4 4 0 013.4-.2c.5.2.8.5 1.1.9v-4h1.4zm-3.8 9c.4 0 .9 0 1.2-.3.4-.2.7-.5 1-.9.2-.4.3-.8.3-1.3s-.1-1-.4-1.3c-.2-.4-.5-.7-.9-1l-1.2-.2c-.5 0-1 0-1.3.3-.4.2-.7.5-1 .9-.2.3-.3.8-.3 1.3s.1 1 .4 1.3c.2.4.5.7.9.9.4.2.8.3 1.3.3zm13.5-6.2a4 4 0 012 .5c.5.3 1 .7 1.3 1.3.3.5.5 1.2.5 1.9s-.2 1.3-.5 2c-.3.5-.8.9-1.4 1.2a4 4 0 01-3.4.2 3 3 0 01-1.2-1v1.2h-1.3V42.2h1.4v4c.3-.4.7-.7 1.1-.9l1.5-.3zm-.1 6.2c.5 0 .9 0 1.3-.3.4-.2.7-.5.9-.9.2-.4.3-.8.3-1.3a2.5 2.5 0 00-1.3-2.3l-1.2-.2c-.5 0-1 0-1.3.3a2 2 0 00-.9.9c-.2.3-.3.8-.3 1.3s0 1 .3 1.3c.2.4.5.7 1 .9.3.2.7.3 1.2.3z"/>
            <path d="M507.8 45l-3.6 8a4 4 0 01-1.1 1.6c-.4.3-1 .4-1.5.4-.4 0-.8 0-1.1-.2-.3 0-.6-.2-.9-.5l.6-1c.4.4.8.6 1.4.6.3 0 .6-.1.8-.3.2-.1.4-.4.6-.8l.2-.5L500 45h1.4l2.6 5.7 2.6-5.7h1.3zm11 5h-5.3l-1 2.3H511l4.4-9.5h1.4l4.5 9.5h-1.5l-1-2.4zm-.5-1.2l-2.2-4.6-2 4.6h4.2zm11-6.6v10H528v-1a3 3 0 01-1.2.9c-.4.2-1 .3-1.5.3a4 4 0 01-2-.5c-.5-.3-1-.7-1.3-1.3-.3-.6-.5-1.2-.5-2 0-.6.2-1.3.5-1.8.3-.6.8-1 1.4-1.3a4 4 0 013.4-.2c.4.2.8.5 1.1.9v-4h1.4zm-3.9 9c.5 0 .9 0 1.3-.3.4-.2.7-.5.9-.9.2-.4.3-.8.3-1.3s0-1-.3-1.3c-.2-.4-.5-.7-1-1l-1.2-.2c-.5 0-.9 0-1.3.3a2 2 0 00-.9.9c-.2.3-.3.8-.3 1.3s.1 1 .3 1.3c.2.4.5.7 1 .9.3.2.7.3 1.2.3zm13.1-9v10h-1.2v-1a3 3 0 01-1.2.9c-.4.2-1 .3-1.5.3a4 4 0 01-2-.5c-.5-.3-1-.7-1.3-1.3-.3-.6-.5-1.2-.5-2 0-.6.2-1.3.5-1.8.3-.6.8-1 1.4-1.3a4 4 0 013.4-.2c.4.2.8.5 1.1.9v-4h1.3zm-3.8 9c.5 0 .9 0 1.3-.3.4-.2.7-.5.9-.9.2-.4.3-.8.3-1.3a2.5 2.5 0 00-1.3-2.3l-1.2-.2c-.5 0-.9 0-1.3.3a2 2 0 00-.9.9c-.2.3-.3.8-.3 1.3s.1 1 .3 1.3c.2.4.5.7 1 .9.3.2.7.3 1.2.3zm6.1-6.2h1.4v7.3h-1.4V45zm.7-1.3a1 1 0 01-.7-.2.8.8 0 01-.2-.6c0-.3 0-.5.2-.6.2-.2.4-.3.7-.3.2 0 .5 0 .6.2l.3.6c0 .3 0 .5-.3.6-.1.2-.4.3-.6.3zm7.1 8.2a2 2 0 01-.7.3l-.9.2c-.8 0-1.3-.2-1.7-.6-.5-.4-.7-1-.7-1.7v-4h-1.2v-1h1.2v-1.6h1.4v1.6h2.1v1H546v4c0 .3 0 .6.3.9.2.2.5.3.9.3s.7-.1 1-.4l.4 1zM550 45h1.3v7.3H550V45zm.6-1.3a1 1 0 01-.6-.2.8.8 0 01-.3-.6c0-.3.1-.5.3-.6l.6-.3c.3 0 .5 0 .7.2l.3.6c0 .3-.1.5-.3.6a1 1 0 01-.7.3zm6.2 8.7c-.8 0-1.4-.2-2-.5a3.5 3.5 0 01-1.9-3.2c0-.7.2-1.4.5-2a4.2 4.2 0 013.4-1.8c.7.1 1.4.3 2 .6a3.5 3.5 0 011.9 3.2c0 .7-.2 1.3-.5 1.9-.4.5-.8 1-1.4 1.3-.6.3-1.3.5-2 .5zm0-1.2c.5 0 .9 0 1.3-.3l.9-.9c.2-.4.3-.8.3-1.3s-.1-1-.3-1.3l-1-1-1.2-.2c-.5 0-1 0-1.3.3-.4.2-.7.5-1 .9l-.2 1.3c0 .5 0 1 .3 1.3.2.4.5.7.9.9.4.2.8.3 1.3.3zm9.4-6.2c1 0 1.7.3 2.3.8.5.5.8 1.3.8 2.3v4.2h-1.4v-4c0-.7-.1-1.2-.5-1.6-.3-.3-.8-.5-1.5-.5s-1.3.2-1.7.6c-.4.4-.6 1-.6 1.8v3.7h-1.4V45h1.3v1l1.1-.8a4 4 0 011.6-.3zm8 0c1 0 1.8.3 2.4.7.5.5.8 1.3.8 2.2v4.4h-1.3v-1c-.2.4-.5.6-1 .8-.3.2-.8.3-1.4.3-.8 0-1.5-.2-2-.6a2 2 0 01-.8-1.6c0-.6.3-1.1.7-1.5.5-.4 1.3-.6 2.3-.6h2.2V48c0-.6-.2-1-.5-1.3-.4-.3-.9-.5-1.5-.5a4 4 0 00-2.4.8l-.6-1c.4-.3.9-.5 1.4-.6a6 6 0 011.7-.3zm-.3 6.4c.5 0 1-.2 1.3-.4.4-.2.7-.5.9-1v-1H574c-1.2 0-1.7.4-1.7 1.2 0 .4.1.6.4.8.3.3.7.4 1.2.4zm5.7-9.2h1.4v10h-1.4zm15.9.6l-4.3 9.5h-1.4l-4.4-9.5h1.6l3.5 7.8 3.6-7.8zm6.9 5.9v.4h-6c0 .7.3 1.2.8 1.5.5.4 1.1.6 1.8.6 1 0 1.6-.3 2.2-.8l.7.8c-.3.4-.7.7-1.2.9a4.6 4.6 0 01-3.8-.2c-.6-.3-1-.8-1.4-1.3-.3-.6-.5-1.2-.5-2 0-.6.1-1.2.5-1.8.3-.6.7-1 1.3-1.3a4 4 0 012-.5c.6 0 1.3.2 1.8.5.6.3 1 .7 1.3 1.3.4.6.5 1.2.5 2zm-3.7-2.6c-.6 0-1.2.2-1.6.6-.4.4-.7.9-.8 1.5h4.8c0-.6-.3-1.1-.7-1.5-.5-.4-1-.6-1.7-.6zM608 45c1 0 1.7.3 2.2.8.6.5.9 1.3.9 2.3v4.2h-1.4v-4c0-.7-.2-1.2-.5-1.6-.4-.3-.8-.5-1.5-.5s-1.3.2-1.7.6c-.4.4-.7 1-.7 1.8v3.7H604V45h1.3v1l1-.8a4 4 0 011.7-.3zm9.5 6.9a2 2 0 01-.8.3l-.9.2c-.7 0-1.3-.2-1.7-.6-.4-.4-.6-1-.6-1.7v-4h-1.3v-1h1.3v-1.6h1.3v1.6h2.2v1h-2.2v4l.3.9c.2.2.5.3.9.3s.8-.1 1-.4l.5 1zm8.3-6.9v7.3h-1.3v-1.1c-.3.4-.7.7-1.1.9l-1.5.3c-1 0-1.7-.3-2.3-.8a3 3 0 01-.9-2.4v-4.1h1.4v4c0 .7.2 1.2.5 1.6.3.3.8.5 1.5.5s1.3-.2 1.7-.6c.4-.4.6-1 .6-1.8v-3.7h1.4zm3.5 1.3l1-1c.5-.2 1-.3 1.7-.3v1.3h-.3c-.7 0-1.3.2-1.7.6-.4.4-.6 1-.6 1.8v3.6H628V45h1.3v1.2zm10.7 2.4v.4h-6c0 .7.4 1.2.9 1.5.4.4 1 .6 1.8.6.9 0 1.6-.3 2.1-.8l.8.8a3 3 0 01-1.3.9 4.6 4.6 0 01-3.7-.2c-.7-.3-1.1-.8-1.5-1.3-.3-.6-.5-1.2-.5-2 0-.6.2-1.2.5-1.8.3-.6.8-1 1.4-1.3a4 4 0 011.9-.5c.7 0 1.3.2 1.9.5.5.3 1 .7 1.3 1.3.3.6.5 1.2.5 2zm-3.6-2.6c-.7 0-1.2.2-1.6.6-.5.4-.7.9-.8 1.5h4.8c-.1-.6-.4-1.1-.8-1.5-.4-.4-1-.6-1.6-.6zm7.4 6.3L642 52a4 4 0 01-1.3-.6l.6-1 1.2.5c.4.2.9.2 1.4.2 1.2 0 1.7-.3 1.7-1 0-.2 0-.3-.2-.5l-.6-.2-1-.2-1.5-.3-1-.6c-.2-.3-.4-.7-.4-1.2 0-.7.3-1.2.9-1.6.5-.4 1.3-.6 2.2-.6.5 0 1 0 1.5.2l1.3.5-.6 1a4 4 0 00-2.2-.6c-.5 0-1 .1-1.3.3-.3.2-.4.4-.4.7 0 .3 0 .4.2.6l.7.3 1 .2c.6 0 1 .2 1.5.3l1 .6c.2.3.3.6.3 1.1 0 .7-.3 1.2-.9 1.6-.5.4-1.3.6-2.3.6z"/>
        </g>
    </g>
</svg>
