<svg width="701" height="122" xmlns="http://www.w3.org/2000/svg">
    <g fill="none">
        <path d="M36.8 1l-2 .3a35.8 35.8 0 00-4.8.9 46.7 46.7 0 00-14.5 6.4c-.9.5-.7.4-2.7 2a35.6 35.6 0 00-12 19.6 44.4 44.4 0 002.5 25A71 71 0 009.1 67c3.7 6 7 10.4 12.6 16.6a419.9 419.9 0 0013.5 13.1 123.6 123.6 0 0011.4 9.3 28.6 28.6 0 012 1.4l.2.3c0 .2 1.2.7 1.3.5l1.3-1.6 1.2-1.4.9-1L52 103a272.8 272.8 0 01-11.3-9.2 143 143 0 01-7.2-6.6L32 85.7l1-1c2.5-2.6 6-4.9 9.6-6.4 1.8-.7 1.7-.7 3 .4a107.8 107.8 0 005 4.6l3.9 3.6c2.4 2.2 2.5 2.3 3.4 2.4 1.5.1 2.5-.8 2.5-2.3 0-1-.2-1.4-3.1-4a66.3 66.3 0 01-3.7-3.4L51 77.4l-1.2-1.2.8-.1 1.7-.3c2-.3 7.4-.5 16.3-.4 18.3.3 23.8-1.4 30.1-8.7 4.5-5.2 5.7-11.5 4.6-23l-.2-2.7-.1-1.1-1.4-.1-2-.1h-.8l.1 1c1.6 13.6-.5 21.5-7 26l-.9.7a38.5 38.5 0 01-4.4 2l-.8.2-.5-.4a85.6 85.6 0 00-5.5-5.1l-1.9-1.7c-5.6-5.2-5.4-5-6.6-5-1.5 0-2.5 1.2-2.2 2.7.1.7.9 1.5 4.7 5a1016.3 1016.3 0 015.3 4.8l.8.7-1 .1-12.5.1c-12.6 0-13.2 0-18.3 1a42 42 0 00-11.4 4l-.3.2-.2.1-.4.3c-.3 0-.5.2-.5.3l-.1.1c-.5 0-4 2.8-5.7 4.6l-1 1-1.2-1.4a145.6 145.6 0 00-4.8-5.5 114.2 114.2 0 01-8.6-12 57.5 57.5 0 01-6.8-16c-2.4-9-.4-20.4 4.7-26.7a39.3 39.3 0 019.9-8.7 33.6 33.6 0 015.6-2.7 39.1 39.1 0 0117.5-2.2 37 37 0 019.7 2.4 38.6 38.6 0 018.2 5c1.6 1.2 4.3 4.1 5.8 6.3 2.2 3.3 4.4 3.6 6.1.9a38.3 38.3 0 017.7-8.3 18.7 18.7 0 012.6-1.6c0-.2.5-.4 2.4-1.4a11.5 11.5 0 012.2-1 50.1 50.1 0 019.3-2.3c1.4-.2 1.3-.3.7 1.5a29.6 29.6 0 00-1.8 6.4 51 51 0 00-.4 13.6v.8h4.9v-.4a66 66 0 01.1-13.2 42 42 0 013-8.6c.3-.8.2-.8 2 .9a165.9 165.9 0 005.4 4.9 226.6 226.6 0 016.1 5.6l3.9 3.5c1.8 1.7 4.5.3 4-2.2 0-.6-.4-1-2.4-2.8A797.7 797.7 0 01107.7 2l-1-1-3.7.2a38.7 38.7 0 00-31 13.6l-.4.5-.5-.7A49.7 49.7 0 0064 8.1a40.5 40.5 0 00-19.7-7c-1.3 0-7.3-.2-7.5 0" fill="#6CCC24"/>
        <path d="M112.3 2.7a760.8 760.8 0 0012 10.8c3.4 2.2 6.4 5 8.3 8l.7.9-.9.8-3.2 2.9a32 32 0 01-8 4c-.2 0-.6-.2-.9-.5a138.3 138.3 0 00-6-5.5l-2.2-2c-3.2-3-3.7-3.4-4.8-3.4-2.3 0-3.2 2.6-1.5 4.1a276.5 276.5 0 006.7 6.1 197.6 197.6 0 003 2.8c-.8.6-10.5 1-16.7.8a89 89 0 00-19.2 1 22.5 22.5 0 00-17.2 15.4c-1 3.5-1.3 6.1-1.2 10.2.1 3 .5 8.7.7 8.8 0 0 1.2.2 2.6.2l2.6.1-.2-1a69.9 69.9 0 01-.4-14.4l1-4c.8-1.7 1.7-3.5 2-3.5.2 0 .7.5 4.5 4a925 925 0 0014 12.8c2.1 2 4.5 1.3 4.5-1.3 0-1-.3-1.3-5.6-6a171 171 0 01-6.2-5.7 280.7 280.7 0 01-7.8-7.5 23 23 0 016-3.1c.3-.2.5-.1 1.7 1a160 160 0 004.4 4 393.6 393.6 0 006.6 6c1.6 1.5 3 1.8 4.1.7 1.1-1.2.8-2.7-1-4.2a470.2 470.2 0 01-9.3-8.8h12c11.2 0 13.5 0 17.1-.5a37.7 37.7 0 0020.4-9.2l.5-.5.4 1.1a35.2 35.2 0 01.5 19.8 54.1 54.1 0 01-7.6 17 104.7 104.7 0 01-9.9 13.2 156.2 156.2 0 01-27 24.4 316 316 0 01-16 10.8c-4.4 2.6-4 2.4-4.8 1.8l-.7-.4a105.8 105.8 0 01-8.3-5.1c-1.6-1-1.6-.8-.4-2.3a34.4 34.4 0 006-14.6c.3-1.6.5-7.8.3-11.6l-.1-2.8h-4.5l.1 1.2a38.3 38.3 0 01-2.9 20.4c-.4 1-.5 1-1.2.4a207.8 207.8 0 00-7.9-6.9 112.9 112.9 0 01-5.3-4.6L43 86c-2.3-2-4.8-1-4.6 1.5.1 1 .4 1.2 3 3.3a175.3 175.3 0 014.2 3.5 1673 1673 0 0111.3 9.4c.8.7.8.7.3 1.3a107 107 0 00-4.4 5.3 587.2 587.2 0 0016.9 10.8c1.4.8 2.6.9 3.7.2a151.6 151.6 0 0018-11.2 59.5 59.5 0 004.8-3.5 227 227 0 0012.6-10.3A181.3 181.3 0 00126.1 79a81.5 81.5 0 0016-29.3c2-7.2 1.8-15.6-.4-22.4a36.4 36.4 0 00-23.8-23.5l-1.2-.4a21.3 21.3 0 00-5-1.3l.6.7" fill="#34CCC4"/>
        <path d="M238.4 26a16.9 16.9 0 00-14.8 17.3l.2 3.2.4 1.4A17.3 17.3 0 00236 60a17.5 17.5 0 0013.7-2.3c2.6-1.8 6.4-6.5 6.4-8l.1-.5c.2-.1.4-.8.8-3a22 22 0 000-5.8l-.3-1.7a17 17 0 00-18.4-12.8m87.6 0l-3.6.8a22.5 22.5 0 00-4.4 2.1c-.7 0-3.9 3-5.1 4.9a17 17 0 008.5 25.6c4.7 2 11 1.6 15.9-1 1.9-.9 1.9-.6.2-4-1.6-3-1.4-2.8-2-2.4a13 13 0 01-11 1.4 15.2 15.2 0 01-3.6-2.1c-6-4.2-4-15.6 3.1-17.9l1-.3c2.7-1.1 8.7-.3 10.7 1.5.2.3.3.3.4.1l2.4-4.6.5-1-.4-.2c-1-.9-4-2-6.5-2.6-.9-.2-5-.4-6.1-.3M167 43.2v16.6h6.7V47.2h3a16.7 16.7 0 007.4-1.2c.6 0 3.1-2.2 4-3.4 2.4-3.5 2-10-1-13-1.7-1.6-2.4-2-5.7-3a76 76 0 00-7.5-.1H167v16.7m28.7 0v16.6h6.6V47.3h.7c.6 0 .7 0 1.9 1.7a263.8 263.8 0 002.9 3.8l1.2 1.6.6.8 2.6 3.3 1 1.3h4.3c2.5 0 4.2 0 4.1-.1a83.7 83.7 0 00-6-7.4l-1.2-1.6-1-1.2-2-2.2c-.5-.7-.6-.7.6-1.1 7.7-3 8.6-14.3 1.5-18.3-2.3-1.3-3.3-1.4-11-1.4h-6.8v16.7m75.6-4.5V51l-.4.8c-1.6 3-4.8 3.2-7.8.7-1-.7-.9-.8-1.5 1a22.3 22.3 0 01-1 2.3v.4c-.5.4-.6 1.2-.4 1.4 3.3 3.2 9 4 13.1 2 2-1 3.4-2.6 4.3-5l.5-1.4V26.5h-6.8v12.2m15.4 4.5v16.6h18.8V54h-12.2v-8H305v-5.8h-11.7v-7.9h12.2v-5.8h-18.8v16.7m53.6-13.8v3h8.5v27.4h6.7V32.3h8.3v-5.8h-23.5v3m-161.1 2.8c2.3.7 3.5 2.2 3.5 4.6 0 3.1-2.4 4.8-6.8 4.8h-2.2v-10l2.3.2c1.5 0 2.5.2 3.2.4m28.7 0c2.5.8 3.8 3 3.3 5.4-.6 2.8-2.6 4-6.6 4h-2.3v-10l2.4.2c1.6 0 2.7.2 3.2.4m35.9.6c1.7.7 4 2.5 4.3 3.5l.2.3c.1 0 .2 0 .2.2s0 .3.2.3l.1.1.4 1 .7 2.5c2.4 13-13.3 18.7-18.4 6.6a14 14 0 01.3-9c2-5 7.3-7.3 12-5.5m-69.2 34.9c-5 .9-8.7 5.4-8.4 10.1.3 3.4 2.3 5.9 6.6 7.9 7.2 3.3 7.8 3.8 7.8 6.5 0 1.2-.7 2.5-1.4 2.8l-.4.2c0 .6-4.3.8-5.5.4a16 16 0 01-4.9-2.7 6.5 6.5 0 00-1.6-1.1c-.3.2-3.3 5.3-3.3 5.4A17.2 17.2 0 00178 102c2.4-.3 3-.5 4.9-1.4 3.4-1.7 4.8-4.3 4.8-8.6v-2.8l-.5-1.2c-1-2.2-3.7-4.3-7.6-6a97.1 97.1 0 01-5.5-2.5c-2-1.2-1.5-4.4.8-5.4a8 8 0 015.3 0 56.1 56.1 0 002.8 1.5c1 .7 1 .7 1.8-.7l2-4a17.4 17.4 0 00-6.5-3c-1.6-.5-4.1-.5-5.7-.2m84-.1c-2.3.3-6 1.6-6.2 2.2l-.3.1a17 17 0 00-4.2 3.8c-4.6 4.8-4.7 16-.2 22a26 26 0 004.6 4.2 13.3 13.3 0 003 1.3c.2.2 1.4.5 3.3.8 7 1 14-2.8 16.6-8.8.7-1.8.8-2.6.8-6.5v-3.5h-15.5v5.4h8.7v.7c0 2-1.7 4.4-4 5.5-1.9 1-2.2 1-4.2 1-1.9 0-2.2 0-3.7-.7-6.4-2.8-7.9-14.4-2.4-19.3 3.7-3.3 10.3-3 14.8.6.4.3.7.5.8.4l2.8-4.6c.4-.7-1-1.8-4-3.1s-7.8-2-10.7-1.5m-64.1 17.1v16.7h6.7V68.2h-6.7v16.6m15.7 0v16.7h6.6v-11l.1-10.9.6 1a762 762 0 009.7 15 55 55 0 002.7 4.3l1 1.6h6.8V68.2H231V90l-.6-.8a653.2 653.2 0 00-6.3-10l-6-9.1-1.3-2h-6.6v16.6m71.6-6a74 74 0 00.7 15.8c.6 1.4 1.3 3 1.6 3.4l.7.8c3.2 3.8 12.4 4.7 17.6 1.7a10 10 0 004.5-6.2c.6-2 .6-3.1.6-14.6V68.2h-6.8v10.5c0 11.8 0 12.5-1 14.3a5 5 0 01-.7 1.2s-.3.1-.5.4c-1.6 1.4-6 1.3-7.8-.2-2-1.6-2-2.5-2-15.5V68.2h-6.9v10.7m34 6v16.6h18.7v-5.8h-11.8V68.2h-6.9v16.6m33.5-16.2a48.2 48.2 0 00-1 2.4 54.5 54.5 0 00-2 5l-.4 1-.4 1.2-.1.4-.3.5-.5 1.3-.4 1.1-.2.4-.5 1.2a32.8 32.8 0 01-1.5 3.7 57.7 57.7 0 01-1.7 4.2 57.1 57.1 0 01-2.4 6l-.5 1.3-.4 1c0 .1 0 .3-.2.5l-.6 1.6 3.6.1h3.6l.5-1.3a36.5 36.5 0 011.2-3.4l.7-1.8.4-1h12.9l.2.6.4 1 1.1 3.1 1.1 2.8h7.3l-.2-.5-.8-1.8a53.9 53.9 0 00-2.3-5.8 47.7 47.7 0 01-1.6-4 44.2 44.2 0 01-2-5l-.3-.8a68.4 68.4 0 01-2.3-5.8 54.3 54.3 0 00-1.7-4.1 46.8 46.8 0 00-1.7-4.2l-.4-1.2h-3.2l-3.2-.1-.2.4m24.5 16.2v16.7h6.9V89.2h.7c.7 0 .7 0 2 1.7a67.7 67.7 0 004.1 5.3l.9 1.2 1 1.4a37 37 0 001.7 2l.4.7h4.3l4.2-.1-.4-.6a93.1 93.1 0 01-3.3-4 196 196 0 01-6.8-8.4l.8-.5c7.4-2.4 8.7-13.9 2-18-2.3-1.5-4-1.7-12.2-1.7h-6.3v16.6m11.4-11c3 .5 4.3 2 4.3 4.6 0 3.4-1.8 4.8-6.2 4.9h-2.6v-9.8h1.5c.9 0 2.2.1 3 .3m-320 1.7h.6l-.4-.1h-.3m289.6 7.2l2 5.2c.1.2-.7.2-4 .2h-4.2l.6-1.5a21.9 21.9 0 001-2.3V84l.5-1.2.5-1.3.2-.6.4-1c.5-1.3.9-2.1 1-2.1 0 0 1 2.2 2 5" fill="#040404"/>
        <path d="M449.8 64.3a6.8 6.8 0 012.4 5.6 7 7 0 01-2.4 5.6 9.9 9.9 0 01-6.5 2h-6v7H435V62.4h8.1c2.8 0 5 .5 6.7 1.9zm-1.8 9.8c1.2-1 1.8-2.3 1.8-4 0-1.9-.6-3.2-1.8-4.3a8 8 0 00-5-1.5h-5.8v11.2h5.8c2.2 0 4-.5 5-1.4zm11 9.6a8.2 8.2 0 01-4-7.4c0-1.6.2-3.1 1-4.3a9.6 9.6 0 013-3c1.3-.8 2.6-1 4.2-1a7.8 7.8 0 017.3 4c.7 1.3 1 2.7 1 4.3 0 1.7-.3 3.2-1 4.4a8.2 8.2 0 01-3 3c-1.3.8-2.6 1-4.3 1-1.6 0-3-.4-4.3-1zm7.5-1.8c.9-.6 1.6-1.3 2.2-2.2.6-1 .7-2.2.7-3.5 0-1.4-.2-2.4-.7-3.5-.6-1-1.2-1.8-2.2-2.2a6.7 6.7 0 00-6.2 0 7 7 0 00-2.3 2.2c-.6 1-.7 2.1-.7 3.5 0 1.3.3 2.4.7 3.5.6 1 1.4 1.8 2.3 2.2.9.6 1.9.8 3 .8 1.3 0 2.1-.2 3.2-.8zm33.4-14.1l-6.2 16.7h-2.1l-5.2-13.7-5.1 13.7h-2.1L473 67.8h2l5.2 14.3 5.3-14.3h2l5.3 14.3 5.1-14.3zM517 77h-13.7c.1 1.8.7 3.1 1.9 4.2 1.2 1 2.6 1.6 4.4 1.6 1 0 2-.1 2.8-.6 1-.3 1.6-.9 2.2-1.6l1.2 1.5a8.3 8.3 0 01-6.3 2.8 8.4 8.4 0 01-7.6-4c-.7-1.2-1-2.7-1-4.4a8.3 8.3 0 013.8-7.4c1.2-.7 2.7-1 4.2-1 1.4 0 2.9.3 4.1 1 1.2.8 2.2 1.7 2.8 3 .7 1.4 1 2.7 1 4.4l.2.5zm-12-5.8c-1 1-1.6 2.4-1.8 4H515c-.1-1.6-.7-3-1.8-4-1-1-2.3-1.5-4-1.5-1.6 0-2.9.5-4 1.5zm21-2.7c1-.6 2.4-.9 3.8-.9V70h-.6c-1.7 0-3 .6-4.1 1.6-1 1-1.5 2.6-1.5 4.5v8.6h-2.2V68h2v3.3a7.5 7.5 0 012.6-2.7zm22 8.5h-13.7c.1 1.8.7 3.1 1.9 4.2 1.2 1 2.7 1.6 4.4 1.6 1 0 2-.1 2.8-.6 1-.3 1.7-.9 2.3-1.6l1.1 1.5a8.3 8.3 0 01-6.3 2.8 8.4 8.4 0 01-7.6-4c-.7-1.4-1-2.7-1-4.4a8.3 8.3 0 013.8-7.4c1.2-.7 2.7-1 4.2-1a8 8 0 014.1 1c1.2.8 2.2 1.7 2.8 3 .6 1.4 1 2.7 1 4.4l.2.5zm-12-5.8c-1 1-1.6 2.4-1.7 4h11.6c-.1-1.6-.7-3-1.7-4s-2.4-1.5-4-1.5-3 .5-4.1 1.5zM567.6 61v23.6h-2v-3.3a7.2 7.2 0 01-6.4 3.5c-1.4 0-3-.3-4-1a8.1 8.1 0 01-4-7.4c0-1.7.2-3.2 1-4.4a7.1 7.1 0 013-3 8.2 8.2 0 017.6-.2c1 .6 1.9 1.4 2.6 2.4v-10h2.2V61zm-5.1 21c.9-.7 1.6-1.4 2.2-2.3.6-1 .7-2.2.7-3.5 0-1.4-.2-2.4-.7-3.5-.6-1-1.3-1.8-2.2-2.2a6.7 6.7 0 00-6.2 0c-1 .6-1.6 1.3-2.2 2.2-.6 1-.8 2.1-.8 3.5 0 1.3.3 2.4.8 3.5.6 1 1.3 1.8 2.2 2.2.9.6 1.9.8 3 .8 1.1.1 2.1-.2 3.2-.8zm32.2-13.2a8.1 8.1 0 014 7.4 9 9 0 01-1 4.4 7.1 7.1 0 01-3 3c-1.2.7-2.7 1-4.1 1-1.4 0-2.7-.3-3.7-.9-1-.6-2-1.5-2.7-2.5v3.3H582V60.8h2.2V71c.8-1 1.6-2 2.7-2.4a7 7 0 013.5-.9c1.6.2 3 .5 4.3 1.2zM593.4 82c.8-.6 1.6-1.3 2.2-2.2.6-1 .7-2.2.7-3.5 0-1.4-.3-2.4-.7-3.5-.6-1-1.4-1.8-2.2-2.2-1-.6-2-.8-3.2-.8-1.1 0-2.2.3-3 .8a7 7 0 00-2.3 2.2c-.6 1-.7 2.1-.7 3.5 0 1.3.3 2.4.7 3.5.6 1 1.3 1.8 2.2 2.2 1 .6 2 .8 3.1.8a5 5 0 003.2-.8zm23.2-14.2l-8.3 18.8a8.7 8.7 0 01-2.4 3.3c-.9.6-2 1-3 1a6 6 0 01-2.3-.4c-.8-.3-1.3-.6-1.8-1.2l1-1.6a4 4 0 003 1.2 3 3 0 002-.6 7 7 0 001.4-2.1l.7-1.7-7.3-16.7h2.3l6.2 14.3 6.2-14.3h2.3zm15.9-3.5h-7.7v-2h17.7v2.1H635v20.4h-2.4zM658.3 77h-13.7c.1 1.8.7 3.1 2 4.2 1.1 1 2.6 1.6 4.4 1.6 1 0 1.9-.1 2.8-.6a5 5 0 002.2-1.6l1.2 1.5a8.3 8.3 0 01-6.4 2.8 8.4 8.4 0 01-7.5-4c-.8-1.2-1-2.7-1-4.4a8.3 8.3 0 013.8-7.4 8 8 0 014.1-1c1.5 0 3 .3 4.1 1 1.2.8 2.3 1.7 2.8 3 .8 1.4 1 2.7 1 4.4l.2.5zm-11.8-5.8c-1 1-1.6 2.4-1.8 4h11.7c-.1-1.6-.7-3-1.8-4-1-1-2.3-1.5-4-1.5-1.7 0-3 .5-4 1.5zm20.9-2.7c1-.6 2.3-.9 3.8-.9V70h-.6c-1.8 0-3.1.6-4.1 1.6-1 1-1.5 2.6-1.5 4.5v8.6h-2.2V68h2v3.3a7.2 7.2 0 012.6-2.7zm12.4 0c1-.6 2.3-.9 3.8-.9V70h-.6c-1.8 0-3.1.6-4.1 1.6-1 1-1.5 2.6-1.5 4.5v8.6h-2.2V68h2v3.3a6.4 6.4 0 012.6-2.7zm18.4.9c1.2 1 1.8 2.7 1.8 4.9v10.3h-2V82a5 5 0 01-2.3 2.1c-1 .6-2 .8-3.4.8a7 7 0 01-4.4-1.4c-1-.9-1.6-2-1.6-3.4s.4-2.6 1.4-3.5c1-.9 2.7-1.3 5-1.3h5V74c0-1.5-.4-2.6-1.1-3.3-.8-.8-2-1.2-3.4-1.2-1 0-2 .1-3 .4-.8.3-1.7 1-2.5 1.5l-1-1.6a10.2 10.2 0 016.6-2.2 7 7 0 015 1.7zm-2.5 12.7c1-.6 1.6-1.4 2-2.6v-2.7h-5c-2.9 0-4.4 1-4.4 3 0 1 .3 1.8 1 2.3.8.6 1.9.9 3.2.9 1.1 0 2.3-.3 3.2-1z" fill="#585B5E"/>
        <g fill="#333F52">
            <path d="M436.8 39.4v4.2h6.1V45h-6.1v4.8H435v-12h8.7v1.5zm17.2 1.4v9h-1.6v-1.3c-.4.5-.8.8-1.4 1.1a4 4 0 01-1.8.4c-1.3 0-2.2-.3-3-1-.7-.7-1-1.7-1-3v-5.2h1.7v5c0 1 .2 1.6.6 2 .4.5 1 .7 1.9.7.9 0 1.6-.2 2-.8a3 3 0 00.9-2.2v-4.7h1.7zm7.8 0a4 4 0 012.8 1c.7.6 1 1.6 1 2.9v5.2H464v-5c0-1-.3-1.6-.7-2-.4-.5-1-.7-1.9-.7a3 3 0 00-2.1.8c-.6.5-.8 1.3-.8 2.2V50h-1.7v-9h1.6v1.3c.4-.5.8-.8 1.4-1a5 5 0 012-.4zm15.5-3.6V50h-1.7v-1.4c-.3.5-.8.8-1.4 1-.6.4-1.2.5-1.9.5a5 5 0 01-2.4-.6c-.7-.4-1.3-1-1.7-1.6-.4-.7-.6-1.5-.6-2.4a4.5 4.5 0 012.3-4.1 5 5 0 014.3-.2c.5.3 1 .6 1.4 1.1v-5h1.7zm-4.9 11.4c.6 0 1.2-.2 1.6-.4.5-.3.9-.7 1.2-1.2.2-.5.4-1 .4-1.6 0-.7-.2-1.2-.4-1.7-.3-.5-.7-.9-1.2-1.1-.4-.3-1-.4-1.6-.4-.6 0-1 .1-1.6.4-.4.2-.8.6-1 1.1-.4.5-.5 1-.5 1.7 0 .6.1 1.1.4 1.6.3.5.7.9 1.1 1.2.5.2 1 .4 1.6.4zm16.1-3.2v.5h-7.6c.1.8.5 1.4 1 2 .7.4 1.5.7 2.4.7 1 0 2-.4 2.7-1.1l.9 1a4 4 0 01-1.6 1.1c-.6.3-1.3.4-2 .4-1 0-2-.2-2.7-.6-.8-.4-1.3-1-1.8-1.6a5 5 0 01-.6-2.4 4.5 4.5 0 012.3-4.1 6 6 0 014.8 0 4.8 4.8 0 012.2 4.1zm-4.6-3.3a2.9 2.9 0 00-3 2.6h6a2.9 2.9 0 00-3-2.6zm15.4-4.9V50h-1.7v-1.4c-.3.5-.8.8-1.4 1-.6.4-1.2.5-1.9.5a5 5 0 01-2.4-.6c-.7-.4-1.3-1-1.7-1.6-.4-.7-.6-1.5-.6-2.4a4.5 4.5 0 012.3-4.1 5 5 0 014.3-.2c.5.3 1 .6 1.4 1.1v-5h1.7zm-4.8 11.4c.5 0 1-.2 1.6-.4a3 3 0 001-1.2c.4-.5.5-1 .5-1.6a3 3 0 00-1.5-2.8 3 3 0 00-1.6-.4c-.6 0-1.2.1-1.6.4-.5.2-.9.6-1.2 1.1a3 3 0 00-.4 1.7c0 .6.1 1.1.4 1.6.3.5.7.9 1.2 1.2.4.2 1 .4 1.6.4zm16.9-7.8a5 5 0 012.4.5 4.6 4.6 0 012.3 4.1c0 .9-.2 1.7-.6 2.4-.4.7-1 1.2-1.7 1.6a5 5 0 01-4.3.2c-.6-.3-1-.6-1.4-1.1v1.4h-1.7V37.2h1.7v5c.4-.5.9-.8 1.4-1a4 4 0 011.9-.4zm-.2 7.8c.6 0 1.2-.2 1.7-.4a3 3 0 001-1.2c.4-.5.5-1 .5-1.6a3 3 0 00-1.5-2.8 3 3 0 00-1.7-.4c-.5 0-1 .1-1.6.4-.4.2-.8.6-1 1.1a3.4 3.4 0 000 3.3c.2.5.6.9 1 1.2.5.2 1 .4 1.6.4z"/>
            <path d="M526 40.8l-4.5 10c-.4 1-.8 1.6-1.4 2-.5.3-1.1.5-1.9.5-.5 0-.9 0-1.3-.2l-1-.6.6-1.3c.5.5 1 .7 1.7.7.4 0 .8-.1 1-.3.3-.2.6-.6.8-1.1l.3-.6-4.1-9h1.7l3.3 7.2 3.2-7.3h1.7zm13.7 6.1h-6.5l-1.4 3H530l5.6-12h1.7l5.6 12h-1.8l-1.4-3zm-.6-1.4l-2.7-5.8-2.6 5.8h5.3zm13.7-8.3V50h-1.6v-1.4c-.4.5-.8.8-1.4 1-.6.4-1.2.5-2 .5a5 5 0 01-2.3-.6c-.8-.4-1.3-1-1.7-1.6-.4-.7-.6-1.5-.6-2.4a4.5 4.5 0 012.3-4.1 5 5 0 014.2-.2c.6.3 1 .6 1.4 1.1v-5h1.7zM548 48.6c.6 0 1.1-.2 1.6-.4.5-.3.9-.7 1.2-1.2.2-.5.4-1 .4-1.6 0-.7-.2-1.2-.4-1.7-.3-.5-.7-.9-1.2-1.1a3 3 0 00-1.6-.4 3 3 0 00-1.6.4c-.5.2-.8.6-1.1 1.1a3 3 0 00-.4 1.7c0 .6.1 1.1.4 1.6.3.5.6.9 1.1 1.2.5.2 1 .4 1.6.4zm16.4-11.4V50h-1.6v-1.4c-.3.5-.8.8-1.4 1-.6.4-1.2.5-1.9.5a5 5 0 01-2.4-.6c-.7-.4-1.3-1-1.7-1.6-.4-.7-.6-1.5-.6-2.4a4.5 4.5 0 012.3-4.1 5 5 0 014.3-.2c.5.3 1 .6 1.4 1.1v-5h1.6zm-4.8 11.4c.6 0 1.2-.2 1.6-.4.5-.3.9-.7 1.2-1.2.2-.5.4-1 .4-1.6 0-.7-.2-1.2-.4-1.7-.3-.5-.7-.9-1.2-1.1-.4-.3-1-.4-1.6-.4-.6 0-1 .1-1.6.4-.4.2-.8.6-1 1.1-.4.5-.5 1-.5 1.7 0 .6.1 1.1.4 1.6.3.5.7.9 1.1 1.2.5.2 1 .4 1.6.4zm7.7-7.8h1.7v9h-1.7v-9zm.8-1.7c-.3 0-.6-.1-.8-.3a1 1 0 01-.3-.8c0-.3 0-.5.3-.7.2-.2.5-.3.8-.3.3 0 .6 0 .8.3.3.2.4.4.4.7 0 .3-.1.6-.4.8-.2.2-.5.3-.8.3zm8.9 10.3c-.2.2-.5.3-.9.4a4 4 0 01-1 .2 3 3 0 01-2.3-.7c-.5-.5-.7-1.2-.7-2.1v-5h-1.6v-1.4h1.6v-2h1.6v2h2.7v1.4h-2.7V47c0 .5.2.9.4 1.1.3.3.6.4 1.1.4.5 0 1-.1 1.3-.4l.5 1.2zm1.7-8.6h1.7v9h-1.7v-9zm.9-1.7c-.4 0-.6-.1-.9-.3a1 1 0 01-.3-.8c0-.3.1-.5.3-.7.3-.2.5-.3.9-.3.3 0 .6 0 .8.3.2.2.3.4.3.7 0 .3-.1.6-.3.8-.2.2-.5.3-.8.3zm7.6 10.9c-.9 0-1.7-.2-2.5-.6a4.4 4.4 0 01-2.3-4 4.3 4.3 0 012.4-4c.7-.4 1.5-.6 2.4-.6 1 0 1.8.2 2.5.5a4.4 4.4 0 012.4 4 4.4 4.4 0 01-2.3 4c-.8.5-1.6.7-2.6.7zm0-1.4c.6 0 1.2-.2 1.6-.4.5-.3.9-.7 1.2-1.2.2-.5.4-1 .4-1.6 0-.7-.2-1.2-.4-1.7-.3-.5-.7-.9-1.2-1.1-.4-.3-1-.4-1.6-.4a3 3 0 00-1.6.4 3 3 0 00-1.5 2.8c0 .6.1 1.1.4 1.6.3.5.7.9 1.1 1.2.5.2 1 .4 1.6.4zm11.8-7.8a4 4 0 012.8 1c.7.6 1 1.6 1 2.9v5.2h-1.6v-5c0-1-.2-1.6-.7-2-.4-.5-1-.7-1.8-.7a3 3 0 00-2.2.8c-.5.5-.8 1.3-.8 2.2V50H594v-9h1.7v1.3c.3-.5.8-.8 1.3-1a5 5 0 012-.4zm10 0c1.3 0 2.3.3 3 .9.7.6 1 1.5 1 2.7V50h-1.6v-1.2c-.2.4-.7.7-1.2 1-.5.2-1.1.3-1.8.3a4 4 0 01-2.5-.7c-.7-.5-1-1.2-1-2s.3-1.4 1-1.9c.5-.5 1.5-.7 2.8-.7h2.6v-.3c0-.7-.2-1.3-.6-1.7a3 3 0 00-1.9-.5 5 5 0 00-3 1l-.6-1.3c.5-.4 1-.6 1.7-.8l2.1-.3zm-.3 8c.6 0 1.2-.2 1.6-.5.5-.3.8-.7 1-1.2V46h-2.6c-1.4 0-2.1.4-2.1 1.4 0 .4.2.8.5 1 .4.3 1 .4 1.6.4zm7.1-11.6h1.7V50h-1.7zm19.8.8l-5.4 11.9h-1.7l-5.4-12h1.9l4.4 9.9 4.5-9.9zm8.7 7.4v.5h-7.6c0 .8.5 1.4 1 2 .7.4 1.4.7 2.4.7s2-.4 2.7-1.1l.9 1a4 4 0 01-1.6 1.1c-.6.3-1.3.4-2 .4-1 0-2-.2-2.7-.6-.8-.4-1.4-1-1.8-1.6a5 5 0 01-.6-2.4 4.5 4.5 0 012.3-4.1 6 6 0 014.8 0 4.8 4.8 0 012.2 4.1zm-4.6-3.3a2.9 2.9 0 00-3 2.6h6a2.9 2.9 0 00-3-2.6zm11.5-1.3a4 4 0 012.9 1 4 4 0 011 2.9v5.2h-1.7v-5c0-1-.2-1.6-.6-2-.5-.5-1.1-.7-2-.7a3 3 0 00-2 .8c-.6.5-.9 1.3-.9 2.2V50h-1.7v-9h1.7v1.3c.3-.5.8-.8 1.3-1a5 5 0 012-.4zm11.9 8.6l-1 .4a4 4 0 01-1 .2 3 3 0 01-2.2-.7c-.5-.5-.8-1.2-.8-2.1v-5h-1.6v-1.4h1.6v-2h1.7v2h2.7v1.4h-2.7V47c0 .5.1.9.4 1.1.2.3.6.4 1 .4.6 0 1-.1 1.4-.4l.5 1.2zm10.4-8.6v9h-1.7v-1.3c-.3.5-.7.8-1.3 1.1a4 4 0 01-1.8.4c-1.3 0-2.2-.3-3-1-.7-.7-1-1.7-1-3v-5.2h1.7v5c0 1 .2 1.6.6 2 .4.5 1 .7 1.9.7.9 0 1.6-.2 2-.8a3 3 0 00.9-2.2v-4.7h1.7zm4.5 1.6c.2-.6.6-1 1.2-1.2.6-.3 1.3-.4 2.1-.4v1.5h-.4c-.9 0-1.6.3-2.1.8-.6.5-.8 1.3-.8 2.3v4.5h-1.7v-9h1.6v1.5zm13.3 3v.5h-7.6a4 4 0 001.1 2c.6.4 1.4.7 2.3.7 1.1 0 2-.4 2.7-1.1l1 1a4 4 0 01-1.6 1.1 6 6 0 01-4.8-.2c-.7-.4-1.3-1-1.7-1.6a5 5 0 01-.6-2.4c0-1 .2-1.7.6-2.4.4-.7 1-1.3 1.6-1.7a6 6 0 014.8 0c.7.4 1.3 1 1.7 1.7.3.7.5 1.5.5 2.4zm-4.6-3.3a2.9 2.9 0 00-3 2.6h6a2.9 2.9 0 00-3-2.6zM696 50a8 8 0 01-2.2-.3c-.7-.2-1.3-.5-1.7-.8l.7-1.3c.4.3 1 .5 1.5.7l1.8.3c1.5 0 2.2-.4 2.2-1.3 0-.2 0-.4-.3-.6a2 2 0 00-.7-.4l-1.3-.2c-.7-.1-1.4-.2-1.8-.4-.5-.1-1-.4-1.3-.7a2 2 0 01-.5-1.5c0-.8.4-1.5 1-2 .8-.5 1.7-.7 3-.7a8 8 0 011.8.2c.6.1 1.1.3 1.5.6l-.7 1.3a5 5 0 00-2.7-.7c-.7 0-1.3 0-1.6.3-.4.2-.6.5-.6.9 0 .3.1.5.3.7l.8.4 1.3.2 1.8.4c.5.2.9.4 1.2.8.3.3.5.8.5 1.4 0 .8-.3 1.5-1 2-.8.4-1.8.7-3 .7z"/>
        </g>
    </g>
</svg>
