<svg width="700" height="121" xmlns="http://www.w3.org/2000/svg">
    <g fill="none">
        <path d="M238.4 25a16.9 16.9 0 00-14.8 17.3c0 1.4 0 2.8.2 3.2l.4 1.4A17.3 17.3 0 00236 59a17.5 17.5 0 0013.8-2.3c2.6-1.8 6.3-6.5 6.3-8 0-.2 0-.4.2-.5l.8-3a22 22 0 000-5.7l-.4-1.8a17 17 0 00-18.3-12.8m87.6 0l-3.6.8a22.5 22.5 0 00-4.4 2.1 17 17 0 003.4 30.5c4.7 2 11 1.6 15.9-1 1.8-.9 1.8-.6.1-4-1.6-3-1.3-2.8-1.9-2.4a13 13 0 01-11 1.4 15.2 15.2 0 01-3.7-2c-6-4.3-4-15.7 3.2-18l.9-.3c2.7-1.1 8.8-.3 10.7 1.5.3.3.4.3.5.1l2.4-4.6.4-1-.3-.2c-1.1-.9-4-2-6.6-2.6-.8-.2-5-.4-6-.3M167 42.2v16.6h6.6V46.2h3A16.7 16.7 0 00184 45c.6 0 3.2-2.2 4-3.4 2.5-3.5 2-10-.9-13-1.7-1.6-2.5-2-5.7-3a76 76 0 00-7.6 0H167v16.6m28.6 0v16.6h6.7V46.3h.6c.7 0 .7.1 2 1.7a263.8 263.8 0 002.9 3.8l1.2 1.6.6.8 2.5 3.3 1 1.3h4.3l4.2-.1a83.7 83.7 0 00-6-7.4l-1.3-1.5-1-1.3-1.9-2.2c-.6-.7-.6-.6.6-1.1 7.7-3 8.6-14.3 1.5-18.3-2.3-1.3-3.3-1.4-11-1.4h-6.9v16.7m75.7-4.5V50l-.5.8c-1.5 3-4.7 3.2-7.8.7-.8-.7-.8-.7-1.5 1a22.3 22.3 0 01-.9 2.3l-.1.4c-.4.4-.6 1.2-.3 1.4a12 12 0 0013 2c2.1-1 3.5-2.6 4.4-5l.4-1.4V38.8l.1-13.3h-6.8v12.2m15.3 4.5v16.6h18.9V53h-12.2v-8H305v-5.8h-11.7v-7.9h12.2v-5.8h-18.9v16.7m53.7-13.8v3h8.5v27.4h6.7V31.3h8.3v-5.8h-23.5v3M179 31.2c2.4.7 3.5 2.2 3.5 4.6 0 3.1-2.3 4.8-6.8 4.8h-2.2v-10l2.3.2c1.6 0 2.6.2 3.2.4m28.8 0c2.4.8 3.7 3 3.2 5.4-.6 2.8-2.5 4-6.6 4h-2.2v-10l2.4.2c1.6 0 2.6.2 3.2.4m35.8.6c1.7.7 4 2.6 4.4 3.5l.2.3s.2 0 .2.2l.1.3.2.1.4 1 .7 2.5c2.3 13-13.4 18.7-18.5 6.6a14 14 0 01.3-9c2-5 7.4-7.3 12-5.5m-69.2 34.9a10 10 0 00-8.3 10.1c.2 3.4 2.3 5.9 6.5 7.9 7.2 3.3 7.8 3.8 7.8 6.5 0 1.2-.6 2.6-1.4 2.8-.2 0-.3.2-.3.2 0 .6-4.3.9-5.5.4a16 16 0 01-4.9-2.7 6.5 6.5 0 00-1.7-1.1l-3.2 5.4a17.2 17.2 0 0014.5 4.8c2.4-.3 2.9-.5 4.9-1.4 3.3-1.7 4.8-4.3 4.8-8.6v-2.8l-.5-1.2c-1.1-2.2-3.8-4.3-7.7-6a97.1 97.1 0 01-5.5-2.5c-2-1.2-1.4-4.4.9-5.4 1.2-.6 4-.6 5.2 0a56.1 56.1 0 002.9 1.5c1 .7 1 .7 1.8-.7 1.3-2.5 2-3.9 1.9-4a17.4 17.4 0 00-6.5-3c-1.5-.5-4-.5-5.7-.2m84-.1c-2.3.3-6 1.6-6.2 2.2l-.2.1a17 17 0 00-4.3 3.8c-4.6 4.8-4.7 16-.2 22a26 26 0 004.7 4.2 13.3 13.3 0 002.9 1.3c.2.2 1.4.5 3.4.8 7 1 14-2.8 16.5-8.8.8-1.8.9-2.6.9-6.5v-3.5h-15.5v5.4h8.6v.7c0 2-1.7 4.4-4 5.5-1.8 1-2.1 1-4.1 1-2 0-2.2 0-3.7-.7-6.5-2.8-8-14.4-2.4-19.3 3.6-3.3 10.3-3 14.8.6.4.3.7.5.8.4 0-.2 2.3-3.8 2.8-4.6.4-.7-1-1.8-4.1-3.1-3-1.3-7.8-2-10.7-1.5m-64 17.1v16.7h6.6V67.2h-6.6v16.6m15.6 0v16.7h6.8V78.6l.6 1a762 762 0 009.7 15 55 55 0 002.8 4.3l1 1.6h6.7V67.2H231v11l-.1 10.9-.5-.8a653.2 653.2 0 00-6.4-10c-2.4-3.6-4.4-6.9-6-9.1l-1.2-2H210v16.6m71.7-6c0 10.9.1 14.3.7 15.8A12 12 0 00284 97l.7.8c3.2 3.8 12.4 4.7 17.6 1.7a10 10 0 004.5-6.2c.5-2 .6-3 .6-14.6V67.2h-6.9v10.5c0 11.8 0 12.5-1 14.3a5 5 0 01-.6 1.2s-.3.1-.5.4c-1.6 1.4-6 1.3-7.8-.2-2-1.6-2-2.5-2-15.5V67.2h-6.9v10.7m34 6v16.6h18.8v-5.8h-11.9V67.2h-6.8v16.6m33.5-16.2a48.2 48.2 0 00-1 2.4 54.5 54.5 0 00-2 5l-.4 1-.4 1.2-.2.4-.2.5-.6 1.3-.4 1.1-.1.4-.5 1.2a32.8 32.8 0 01-1.5 3.7 57.7 57.7 0 01-1.7 4.2 57.1 57.1 0 01-2.4 6l-.5 1.3-.4 1-.2.5-.7 1.6 3.7.1h3.6l.5-1.3a36.5 36.5 0 011.2-3.4l.7-1.8.4-1H359l.2.6a293.3 293.3 0 011.5 4l1 3h3.7c2 0 3.6-.1 3.6-.2l-.1-.4-.8-1.8a53.9 53.9 0 00-2.3-5.8 47.7 47.7 0 01-1.6-4 44.2 44.2 0 01-2-5l-.3-.8a68.4 68.4 0 01-2.4-5.8 54.3 54.3 0 00-1.6-4.1 46.8 46.8 0 00-1.7-4.2l-.4-1.2h-3.2l-3.2-.1-.2.4m24.5 16.2v16.7h6.8V88.2h.7c.7 0 .8 0 2 1.7a67.7 67.7 0 004.2 5.4l.8 1.1 1.1 1.4a37 37 0 001.6 2l.5.7h4.2l4.3-.1-.4-.6a93.1 93.1 0 01-3.4-4 196 196 0 01-6.7-8.4l.8-.5c7.4-2.4 8.6-13.9 2-18-2.3-1.5-4-1.7-12.2-1.7h-6.3v16.6m11.3-11c3 .5 4.4 2 4.4 4.6 0 3.4-1.9 4.8-6.2 5h-2.7v-9.9h1.6c.9 0 2.2.1 3 .3m-30.6 8.8l2 5.2c.2.2-.6.2-4 .2h-4.1l.6-1.5a21.9 21.9 0 00.9-2.3l.1-.3.4-1.2c.3-.4.5-1 .6-1.3l.2-.6.4-1c.5-1.3.8-2.1 1-2.1l2 5" fill="#FCFCFC"/>
        <path d="M36.8 0l-2 .3a35.8 35.8 0 00-4.8.9 46.7 46.7 0 00-14.5 6.4c-1 .5-.8.4-2.6 2A35.3 35.3 0 000 38.2a45.5 45.5 0 003.2 16 73 73 0 0010.4 18.6c2.6 3.6 4.6 6 8 9.8a176.3 176.3 0 0028.5 24.6l1.3-1.6 1.2-1.4.9-1-1.6-1.2a272.8 272.8 0 01-11.3-9.2 136.2 136.2 0 01-7.2-6.6L32 84.7l1.3-1.3c2.7-2.7 6-4.8 9.7-6.2 1.4-.6 1.3-.6 2.6.6a91.7 91.7 0 002.8 2.5 511 511 0 006.8 6.3c1.5 1.4 1.8 1.6 2.7 1.7 1.4.1 2.5-.8 2.5-2.3 0-1-.2-1.4-3.2-4a66.3 66.3 0 01-3.6-3.4L51 76.4l-1.3-1.2.9-.1 1.6-.3c1.8-.3 8-.4 16.7-.3 16.9.1 22.3-1.2 28-7 6-6 7.6-12 6.4-24.7L103 40v-1.1l-1-.1-2-.1h-1.3l.2 1c1.6 13.6-.5 21.5-7 26l-1 .7a38.5 38.5 0 01-4.3 2l-.9.2-.6-.6a41.8 41.8 0 00-3.3-3 123.4 123.4 0 00-4-3.6c-5.6-5.2-5.3-5-6.5-5-1.5 0-2.5 1.2-2.2 2.8.1.6 1.1 1.7 5.8 5.9a284.2 284.2 0 014.3 4l.7.5-1 .1-12.5.1c-12.6 0-13.2 0-18.4 1a42 42 0 00-11.3 4l-.3.2c-.2 0-.3 0-.3.2l-.4.2c-.2 0-.4.2-.4.3l-.2.1c-.4 0-4 2.8-5.7 4.6l-.9 1-1.2-1.4a145.6 145.6 0 00-4.8-5.5 178.7 178.7 0 01-7.7-10.4l-.9-1.6a54.6 54.6 0 01-6.8-16 34.3 34.3 0 011-20 37.3 37.3 0 014.3-7.4 35 35 0 0123-12.8 37 37 0 0119 2.3 38.6 38.6 0 018.2 5 48.6 48.6 0 015.8 6.3c1.5 2.2 2 2.6 3.4 2.6 1.3 0 2-.4 2.8-1.7a38.3 38.3 0 017.7-8.3 18.7 18.7 0 012.5-1.6c0-.2.6-.4 2.5-1.4a11.5 11.5 0 012.2-1 31.3 31.3 0 0110-2.4c.6-.1.6-.2-.1 1.7a47.7 47.7 0 00-2 20l-.1.7h4.9l-.1-.4a66 66 0 01.2-13.2 42 42 0 013-8.6c.3-.8.1-.8 2 .9a165.9 165.9 0 005.4 4.9 235.5 235.5 0 018 7.4c2.4 2.1 2.3 2 3.1 2.3 1.7.6 3.2-1 2.9-2.8-.1-.6-.7-1.2-2.8-3.1a400.4 400.4 0 01-12.4-11.3L110 3a43 43 0 01-2.3-2.1l-.9-1h-3A52.4 52.4 0 0090 1.8a40 40 0 00-18 11.8l-.4.6-.5-.6A49.7 49.7 0 0063.9 7a40 40 0 00-19.6-7c-1.3 0-7.4-.2-7.5 0" fill="#6CCC24"/>
        <path d="M112.3 1.7a487.5 487.5 0 0012 10.8 31 31 0 018.3 8l.7 1-.9.8-3.3 2.8a32 32 0 01-8 4l-.8-.5a138.3 138.3 0 00-6-5.5l-2.2-2c-3.7-3.5-4.7-4-6.1-3.2-2 1.2-1.4 3 1.7 5.7a398 398 0 017 6.3c1 1 1 .9-.8 1-5.1.7-9.2.8-15.1.6a88 88 0 00-17.2.5A23.2 23.2 0 0062 49.6c-.5 2-.8 5.4-.7 8.6 0 3 .5 8.6.6 8.7 0 0 1.3.2 2.7.2l2.5.1-.1-1a69.9 69.9 0 01-.4-14.4l1-4c.8-1.7 1.7-3.5 2-3.5l.7.6a175.7 175.7 0 007.5 6.9A548.5 548.5 0 0088 61c3 2.8 6.5-.3 3.6-3a188.2 188.2 0 00-8.8-8.2 1190.3 1190.3 0 01-9.8-9c-.4-.2 2-1.9 3.6-2.5l.9-.4.7-.2.8-.3c.3-.3.5-.1 2.4 1.7a182.2 182.2 0 003.7 3.3 434 434 0 006.5 6c2.2 2 4.6 1.7 4.8-.7 0-1.1-.2-1.6-1.7-2.9l-2.8-2.6-2-1.7a3402.8 3402.8 0 00-4.4-4.4h12a84 84 0 0020.4-1.1 39.2 39.2 0 0017-8.6l.6-.5.3 1a35.3 35.3 0 010 21.8 36.2 36.2 0 01-2 5.5l-1.5 3.4A70.4 70.4 0 01121.4 74a58.4 58.4 0 01-2.7 3.2 155.2 155.2 0 01-25.5 23.2l-1.4 1.1a250.5 250.5 0 01-18.4 12.1c-1.6 1-1.7 1-2.4.6l-.8-.5-1.6-1-1.2-.7a36.6 36.6 0 01-4.1-2.5l-1.3-.9c-1.6-1-1.6-.8-.5-2.3a34.4 34.4 0 006-14.6c.4-1.6.5-7.8.4-11.6l-.1-2.8h-4.5v1.2A38.3 38.3 0 0160.6 99c-.5 1-.5 1-1.2.4a207.8 207.8 0 00-8-6.9 112.9 112.9 0 01-5.3-4.7 82 82 0 01-1.3-1.1c-2.2-2.1-3-2.6-4-2.6-1.6 0-2.7 1.7-2 3.3.1.5 0 .4 2.6 2.5a312.4 312.4 0 019 7.4l3.4 3 1.3 1a49.4 49.4 0 012 1.6c.6.5.8 1 .5 1l-1.5 1.7a91.8 91.8 0 01-3.2 4l9.2 6c2.4 1.6 5.8 3.7 7.7 4.7 1.5.8 2.6.9 3.9.2l1.3-.7a151.5 151.5 0 0016.5-10.5 59.5 59.5 0 004.8-3.5A227 227 0 00109 95.4a179.4 179.4 0 0019.3-20.2 78 78 0 0014-26.6 38.7 38.7 0 00-5.6-32.3c-1-1.6-5-5.7-7-7.2a46 46 0 00-18-8l.7.6" fill="#34CCC4"/>
        <g fill="#FFF">
            <path d="M449.8 63.3A6.8 6.8 0 01452 69a7 7 0 01-2.3 5.6 9.9 9.9 0 01-6.5 2h-6v7H435V61.4h8.1c2.8 0 5 .6 6.7 2zm-1.8 9.8c1.2-.9 1.8-2.2 1.8-4 0-1.9-.6-3.2-1.8-4.3a8 8 0 00-5-1.5h-5.8v11.2h5.8c2.2 0 4-.5 5-1.4zm11 9.7a8.2 8.2 0 01-4-7.4c0-1.7.2-3.2 1-4.4a9.6 9.6 0 013-3c1.3-.8 2.6-1 4.2-1s3 .2 4.3 1c1.3.8 2.2 1.8 3 3 .7 1.4 1 2.7 1 4.4 0 1.6-.3 3.1-1 4.3a8.2 8.2 0 01-3 3 7.7 7.7 0 01-4.3 1.1c-1.6 0-3-.4-4.3-1zm7.5-1.8a8 8 0 002.2-2.3c.6-1 .7-2.1.7-3.5a9 9 0 00-.7-3.4c-.6-1.1-1.2-1.9-2.2-2.3a6.7 6.7 0 00-6.2 0c-1 .6-1.7 1.4-2.3 2.3-.6 1-.7 2-.7 3.4s.3 2.4.7 3.5a5.8 5.8 0 005.3 3c1.2 0 2.1-.2 3.2-.7zm33.3-14.2l-6.2 16.7h-2l-5.2-13.7-5.2 13.7h-2L473 66.8h2l5.2 14.3 5.3-14.3h2l5.3 14.3 5.1-14.3zM517 76h-13.8c.2 1.8.8 3.2 2 4.2s2.6 1.6 4.4 1.6c1 0 2-.1 2.8-.5.9-.3 1.6-1 2.2-1.7l1.2 1.5a8.3 8.3 0 01-6.3 2.9 8.4 8.4 0 01-7.6-4c-.7-1.3-1-2.8-1-4.5a8.3 8.3 0 013.8-7.3c1.2-.8 2.7-1 4.1-1 1.5 0 3 .2 4.2 1 1.2.7 2.2 1.6 2.8 3 .7 1.3 1 2.7 1 4.3l.2.5zm-12-5.7c-1 1-1.6 2.4-1.8 4H515c-.1-1.6-.7-3-1.8-4-1-1.1-2.3-1.5-4-1.5-1.6 0-3 .4-4 1.5zm21-2.7c1-.6 2.4-1 3.8-1V69h-.6c-1.8 0-3 .6-4.1 1.7-1 1-1.5 2.5-1.5 4.5v8.6h-2.2V66.9h2v3.4a7.5 7.5 0 012.6-2.7zm22 8.4h-13.7c.1 1.8.7 3.2 1.9 4.2s2.6 1.6 4.4 1.6c1 0 2-.1 2.8-.5 1-.3 1.6-1 2.2-1.7l1.2 1.5a8.3 8.3 0 01-6.3 2.9 8.4 8.4 0 01-7.6-4c-.7-1.4-1-2.8-1-4.5a8.3 8.3 0 013.8-7.3c1.2-.8 2.7-1 4.2-1 1.4 0 2.9.2 4.1 1 1.2.7 2.2 1.6 2.8 3a10 10 0 011 4.3l.2.5zm-12-5.7c-1 1-1.6 2.4-1.7 4h11.6c-.1-1.6-.7-3-1.8-4-1-1.1-2.3-1.5-4-1.5-1.6 0-2.9.4-4 1.5zM567.6 60v23.7h-2v-3.3a7.2 7.2 0 01-6.4 3.4c-1.5 0-3-.3-4.1-1a8.1 8.1 0 01-4-7.4c0-1.7.3-3.2 1-4.4a7.1 7.1 0 013-3 8.2 8.2 0 017.7-.1c1 .6 1.9 1.3 2.6 2.4V60.2h2.2V60zm-5.1 21a8 8 0 002.2-2.3c.6-1 .7-2.1.7-3.5a9 9 0 00-.7-3.4 5 5 0 00-2.2-2.3 6.7 6.7 0 00-6.2 0c-1 .6-1.7 1.4-2.3 2.3-.5 1-.7 2-.7 3.4s.3 2.4.7 3.5a5.8 5.8 0 005.3 3c1.1.2 2.1-.2 3.2-.7zm32.2-13.2a8.1 8.1 0 014 7.4c0 1.7-.3 3.2-1 4.4a7.1 7.1 0 01-3 3c-1.2.8-2.7 1-4.2 1a7 7 0 01-3.6-.8c-1-.6-2-1.5-2.7-2.6v3.3H582V60h2.2v10c.7-1 1.6-2 2.7-2.4a7 7 0 013.5-.9c1.6.2 3 .5 4.3 1.2zM593.3 81c1-.6 1.7-1.4 2.3-2.3a9 9 0 000-6.9 5.1 5.1 0 00-2.3-2.3 5 5 0 00-3-.8c-1.2 0-2.3.3-3.2.8a8 8 0 00-2.2 2.3c-.6 1-.7 2-.7 3.4s.3 2.4.7 3.5c.6 1 1.3 1.8 2.2 2.3 1 .5 2 .7 3.1.7 1.2.2 2.3-.2 3.1-.7zm23.2-14.2l-8.2 18.8a8.7 8.7 0 01-2.4 3.3c-.9.6-2 1.1-3.1 1.1a6 6 0 01-2.2-.4c-.8-.3-1.3-.6-1.8-1.2l1-1.7c1 1 1.8 1.2 3 1.2a3 3 0 001.9-.6c.6-.4 1-1.2 1.5-2.1l.7-1.7-7.4-16.7h2.4l6.2 14.3 6.2-14.3h2.2zm16-3.5h-7.7v-2h17.7v2.2h-7.7v20.3h-2.3zM658.3 76h-13.7c.1 1.8.7 3.2 2 4.2 1.1 1 2.6 1.6 4.4 1.6 1 0 1.9-.1 2.8-.5a6 6 0 002.2-1.7l1.2 1.5a8.3 8.3 0 01-6.4 2.9 8.4 8.4 0 01-7.5-4c-.8-1.3-1-2.8-1-4.5a8.3 8.3 0 013.8-7.3 7 7 0 014.1-1 7 7 0 014.1 1c1.2.7 2.3 1.6 2.8 3 .8 1.3 1 2.7 1 4.3l.2.5zm-11.8-5.7c-1 1-1.6 2.4-1.8 4h11.7c-.1-1.6-.7-3-1.8-4-1-1.1-2.3-1.5-4-1.5-1.7 0-3 .4-4 1.5zm20.8-2.7c1-.6 2.4-1 3.9-1V69h-.6c-1.8 0-3.1.6-4.1 1.7-1 1-1.5 2.5-1.5 4.5v8.6h-2.2V66.9h2v3.4a7.2 7.2 0 012.5-2.7zm12.4 0c1-.6 2.4-1 3.9-1V69h-.6c-1.8 0-3.1.6-4.2 1.7-1 1-1.4 2.5-1.4 4.5v8.6H675V66.9h2.1v3.4a6.4 6.4 0 012.5-2.7zm18.5.9c1.2 1 1.8 2.7 1.8 4.8v10.4h-2V81a5 5 0 01-2.3 2c-1 .7-2 .8-3.4.8a7 7 0 01-4.4-1.3c-1-1-1.6-2.1-1.6-3.5 0-1.3.4-2.5 1.4-3.5 1-.9 2.7-1.3 4.9-1.3h5.2v-1c0-1.6-.5-2.6-1.2-3.4-.8-.7-2-1.2-3.4-1.2-1 0-2 .2-3 .5-.9.3-1.7.9-2.5 1.5l-1-1.7c.9-.8 1.8-1.2 3-1.6 1.1-.5 2.3-.6 3.6-.6a7 7 0 015 1.8zM695.7 81c.9-.6 1.6-1.4 2-2.6v-2.7h-5c-2.9 0-4.4 1.1-4.4 3 0 1 .3 1.9 1 2.3a5 5 0 003.2 1 6 6 0 003.2-1zM436.8 38.5v4.1h6.1v1.5h-6.1v4.8H435V37h8.7v1.6zm17.2 1.4v9h-1.7v-1.4c-.3.5-.7.9-1.3 1.1a4 4 0 01-1.8.4c-1.3 0-2.2-.3-3-1-.7-.6-1-1.6-1-3v-5h1.7v5c0 .9.2 1.5.6 2 .4.4 1 .6 1.9.6.9 0 1.6-.2 2-.7a3 3 0 00.9-2.3V40h1.6zm7.8-.1a4 4 0 012.8 1c.7.7 1 1.6 1 3v5.1H464v-5a3 3 0 00-.6-2c-.4-.4-1-.6-1.9-.6a3 3 0 00-2.1.7c-.6.5-.8 1.3-.8 2.3v4.6h-1.7v-9h1.6v1.3a3 3 0 011.4-1 5 5 0 012-.4zm15.4-3.5v12.6h-1.6v-1.4a3 3 0 01-1.4 1.1c-.6.3-1.2.4-2 .4a5 5 0 01-2.3-.6c-.7-.4-1.3-.9-1.7-1.6-.4-.7-.6-1.5-.6-2.4 0-1 .2-1.7.6-2.4.4-.7 1-1.2 1.7-1.6a5 5 0 014.2-.2c.6.2 1 .6 1.4 1v-5h1.7zm-4.8 11.3c.6 0 1.2-.2 1.6-.4.5-.3.9-.7 1.2-1.1.2-.5.4-1 .4-1.7 0-.6-.2-1.2-.4-1.7-.3-.5-.7-.8-1.2-1-.4-.3-1-.5-1.6-.5-.6 0-1.1.2-1.6.4-.4.3-.8.6-1.1 1.1a3 3 0 00-.4 1.7c0 .6.1 1.2.4 1.7a3.2 3.2 0 002.7 1.5zm16.1-3.2v.5h-7.6c.1.8.5 1.5 1 2 .7.4 1.5.7 2.4.7 1 0 2-.4 2.7-1.1l.9 1a4 4 0 01-1.6 1.1c-.6.3-1.3.4-2 .4-1 0-2-.2-2.7-.6-.8-.4-1.4-1-1.8-1.6-.4-.7-.6-1.5-.6-2.4 0-.9.2-1.7.6-2.4a4.8 4.8 0 014.1-2.2c.9 0 1.7.2 2.4.6.7.4 1.2 1 1.6 1.6.4.7.6 1.5.6 2.4zm-4.6-3.2a2.9 2.9 0 00-3 2.6h6a2.9 2.9 0 00-3-2.6zm15.4-4.9v12.6h-1.7v-1.4c-.3.5-.8.9-1.4 1.1a4 4 0 01-1.9.4 5 5 0 01-2.4-.6c-.7-.4-1.3-.9-1.7-1.6-.4-.7-.6-1.5-.6-2.4 0-1 .2-1.7.6-2.4.4-.7 1-1.2 1.7-1.6a5 5 0 014.3-.2c.5.2 1 .6 1.4 1v-5h1.7zm-4.9 11.3c.6 0 1.2-.2 1.6-.4.5-.3.9-.7 1.2-1.1.2-.5.4-1 .4-1.7 0-.6-.2-1.2-.4-1.7-.3-.5-.7-.8-1.2-1-.4-.3-1-.5-1.6-.5-.6 0-1 .2-1.6.4-.4.3-.8.6-1 1.1-.4.5-.5 1-.5 1.7 0 .6.1 1.2.4 1.7a3.2 3.2 0 002.7 1.5zm17-7.8a5 5 0 012.4.6c.7.4 1.3.9 1.7 1.6.4.7.6 1.5.6 2.4 0 .9-.2 1.7-.6 2.4-.4.7-1 1.2-1.7 1.6a5 5 0 01-4.3.2 3 3 0 01-1.4-1.1v1.4h-1.7V36.3h1.7v5a4 4 0 013.3-1.5zm-.2 7.8c.6 0 1.2-.2 1.6-.4A3 3 0 00514 46c.2-.5.4-1 .4-1.7 0-.6-.2-1.2-.4-1.7-.3-.5-.7-.8-1.2-1-.4-.3-1-.5-1.6-.5-.6 0-1 .2-1.6.4-.4.3-.8.6-1 1.1-.4.5-.5 1-.5 1.7 0 .6.1 1.2.4 1.7a3.2 3.2 0 002.7 1.5z"/>
            <path d="M526 39.9l-4.5 10c-.4.8-.8 1.5-1.4 1.9a4.2 4.2 0 01-3.3.3 2 2 0 01-1-.6l.7-1.2c.5.4 1 .6 1.7.6.4 0 .7 0 1-.3.3-.2.5-.6.8-1l.3-.7-4.1-9h1.7l3.3 7.2 3.2-7.2h1.6zm13.7 6.1h-6.5l-1.4 3H530l5.6-12h1.7l5.6 12h-1.8l-1.4-3zm-.6-1.4l-2.7-5.9-2.6 5.9h5.3zm13.7-8.3v12.6h-1.6v-1.4a4.2 4.2 0 01-3.4 1.5 5 5 0 01-2.4-.6c-.7-.4-1.2-.9-1.6-1.6-.4-.7-.6-1.5-.6-2.4 0-1 .2-1.7.6-2.4.4-.7 1-1.2 1.6-1.6a5 5 0 014.3-.2c.6.2 1 .6 1.4 1v-5h1.7zM548 47.6c.6 0 1.1-.2 1.6-.4a3 3 0 001.5-2.8c0-.6 0-1.2-.4-1.7a2 2 0 00-1-1c-.6-.3-1.1-.5-1.7-.5-.6 0-1.1.2-1.6.4a3 3 0 00-1.5 2.8c0 .6.1 1.2.4 1.7.3.4.6.8 1.1 1 .5.3 1 .5 1.6.5zm16.4-11.3v12.6h-1.6v-1.4a3 3 0 01-1.4 1.1c-.6.3-1.2.4-2 .4a5 5 0 01-2.3-.6c-.8-.4-1.3-.9-1.7-1.6-.4-.7-.6-1.5-.6-2.4 0-1 .2-1.7.6-2.4.4-.7 1-1.2 1.7-1.6a5 5 0 014.2-.2c.6.2 1 .6 1.4 1v-5h1.7zm-4.8 11.3c.6 0 1.2-.2 1.6-.4.5-.3.9-.7 1.2-1.1.2-.5.4-1 .4-1.7 0-.6-.2-1.2-.4-1.7-.3-.5-.7-.8-1.2-1-.4-.3-1-.5-1.6-.5-.6 0-1.1.2-1.6.4a3 3 0 00-1.5 2.8c0 .6.1 1.2.4 1.7.3.4.6.8 1.1 1 .5.3 1 .5 1.6.5zm7.7-7.7h1.7v9h-1.7v-9zm.8-1.8c-.3 0-.6 0-.8-.3a1 1 0 01-.3-.7c0-.3 0-.6.3-.8.2-.2.5-.3.8-.3.3 0 .6.1.8.3.2.2.3.4.3.7 0 .3 0 .6-.3.8-.2.2-.5.3-.8.3zm8.9 10.3l-.9.5a4 4 0 01-1.1.1 3 3 0 01-2.2-.7c-.5-.5-.8-1.2-.8-2.1v-5h-1.5V40h1.5v-2h1.7v2h2.7v1.3h-2.7v5c0 .4.2.8.4 1 .3.3.6.4 1 .4.6 0 1-.1 1.4-.4l.5 1.2zm1.7-8.5h1.7v9h-1.7v-9zm.8-1.8c-.3 0-.6 0-.8-.3a1 1 0 01-.3-.7c0-.3.1-.6.3-.8.2-.2.5-.3.8-.3.4 0 .6.1.9.3.2.2.3.4.3.7 0 .3-.1.6-.3.8-.3.2-.5.3-.9.3zm7.7 10.9c-.9 0-1.7-.2-2.5-.6a4.4 4.4 0 01-2.3-4 4.3 4.3 0 012.4-4c.7-.4 1.5-.6 2.4-.6 1 0 1.8.2 2.5.6a4.4 4.4 0 012.4 4 4 4 0 01-.7 2.4 4.9 4.9 0 01-4.2 2.2zm0-1.4c.6 0 1.2-.2 1.6-.4.5-.3.9-.7 1.2-1.1.2-.5.4-1 .4-1.7 0-.6-.2-1.2-.4-1.7-.3-.5-.7-.8-1.2-1-.4-.3-1-.5-1.6-.5-.6 0-1.1.2-1.6.4a3 3 0 00-1.5 2.8c0 .6.1 1.2.4 1.7.3.4.6.8 1.1 1 .5.3 1 .5 1.6.5zm11.8-7.8a4 4 0 012.8 1c.7.7 1 1.6 1 3v5.1h-1.6v-5c0-.9-.2-1.5-.7-2-.4-.4-1-.6-1.8-.6a3 3 0 00-2.2.7c-.5.5-.8 1.3-.8 2.3v4.6H594v-9h1.6v1.3c.4-.4.8-.8 1.4-1a5 5 0 012-.4zm10 0c1.3 0 2.3.3 3 1 .7.5 1 1.4 1 2.7v5.4h-1.6v-1.2a3 3 0 01-1.2 1c-.5.2-1.1.3-1.8.3a4 4 0 01-2.5-.7c-.7-.5-1-1.1-1-2 0-.7.3-1.4 1-1.9.5-.4 1.5-.7 2.8-.7h2.6v-.3c0-.7-.2-1.3-.6-1.6-.4-.4-1-.6-1.9-.6a5 5 0 00-3 1l-.6-1.3c.5-.3 1-.6 1.7-.8l2.1-.3zm-.4 8c.7 0 1.2-.2 1.7-.5.5-.2.8-.6 1-1.1v-1.3h-2.6c-1.4 0-2.1.5-2.1 1.4 0 .4.2.8.5 1 .4.3.9.5 1.5.5zm7.2-11.5h1.7v12.6h-1.7zm19.8.7l-5.4 12h-1.7L623 37h2l4.4 9.8 4.4-9.8zm8.7 7.4v.5h-7.6c0 .8.4 1.5 1 2 .7.4 1.4.7 2.3.7 1.2 0 2-.4 2.7-1.1l1 1a4 4 0 01-1.6 1.1c-.6.3-1.3.4-2.1.4-1 0-1.9-.2-2.6-.6-.8-.4-1.4-1-1.8-1.6-.4-.7-.6-1.5-.6-2.4 0-.9.2-1.7.6-2.4a4.8 4.8 0 014.1-2.2c.9 0 1.6.2 2.3.6.7.4 1.3 1 1.7 1.6.4.7.6 1.5.6 2.4zm-4.6-3.2a2.9 2.9 0 00-3 2.6h6a2.9 2.9 0 00-3-2.6zm11.5-1.4a4 4 0 012.8 1c.7.7 1 1.6 1 3v5.1h-1.6v-5c0-.9-.2-1.5-.7-2-.4-.4-1-.6-1.8-.6a3 3 0 00-2.2.7c-.5.5-.8 1.3-.8 2.3v4.6h-1.7v-9h1.7v1.3c.3-.4.8-.8 1.3-1a5 5 0 012-.4zm11.8 8.6l-.8.5a4 4 0 01-1.2.1 3 3 0 01-2.1-.7c-.6-.5-.8-1.2-.8-2.1v-5h-1.6V40h1.6v-2h1.7v2h2.6v1.3h-2.6v5c0 .4.1.8.4 1 .2.3.6.4 1 .4.6 0 1-.1 1.4-.4l.5 1.2zm10.4-8.5v9h-1.6v-1.4c-.3.5-.8.9-1.3 1.1a4 4 0 01-1.8.4c-1.3 0-2.3-.3-3-1-.7-.6-1-1.6-1-3v-5h1.6v5c0 .9.3 1.5.7 2 .4.4 1 .6 1.9.6.9 0 1.6-.2 2-.7a3 3 0 00.8-2.3V40h1.7zm4.5 1.5c.3-.5.7-1 1.3-1.2.6-.3 1.3-.4 2.1-.4v1.6h-.4c-1 0-1.6.2-2.1.7-.6.6-.8 1.3-.8 2.3V49h-1.7v-9h1.6v1.5zm13.4 3v.5h-7.6a3 3 0 001.1 2c.6.4 1.4.7 2.3.7 1.1 0 2-.4 2.7-1.1l1 1a4 4 0 01-1.6 1.1 6 6 0 01-4.8-.2c-.7-.4-1.3-1-1.7-1.6a4.7 4.7 0 010-4.8c.4-.7 1-1.2 1.6-1.6.7-.4 1.5-.6 2.4-.6a4.5 4.5 0 014 2.2c.4.7.6 1.5.6 2.4zm-4.6-3.2a2.9 2.9 0 00-3 2.6h6a2.9 2.9 0 00-3-2.6zM696 49a8 8 0 01-2.2-.3c-.7-.2-1.3-.4-1.7-.7l.7-1.3 1.5.6 1.8.3c1.5 0 2.2-.4 2.2-1.2 0-.3 0-.5-.3-.7a2 2 0 00-.7-.3L696 45a4 4 0 01-1.8-.4c-.5-.1-1-.4-1.3-.7a2 2 0 01-.5-1.5c0-.8.4-1.5 1-2 .8-.5 1.7-.7 3-.7a8 8 0 011.8.2l1.5.6-.7 1.3a5 5 0 00-2.7-.7c-.7 0-1.3.1-1.6.3-.4.3-.6.6-.6 1 0 .2 0 .5.3.6l.8.4 1.3.3c.7.1 1.4.2 1.8.4.5.1.9.4 1.2.7.3.3.5.8.5 1.4 0 .9-.4 1.5-1 2-.8.5-1.8.7-3 .7z"/>
        </g>
    </g>
</svg>
