<svg width="142" height="44" xmlns="http://www.w3.org/2000/svg">
    <g fill="none" fill-rule="evenodd">
        <path d="M61.4 11.6h-3.6V20h1.9v-2.3h1.7c2.2 0 3.6-1.2 3.6-3 0-2-1.4-3.1-3.6-3.1zm-.1 4.5h-1.6v-3h1.6c1.2 0 1.8.6 1.8 1.5 0 1-.6 1.5-1.8 1.5zm9.7-2.6v3.2c0 1.2-.6 1.8-1.5 1.8-.8 0-1.3-.5-1.3-1.6v-3.4h-1.8v3.7c0 2 1.1 2.9 2.7 2.9.8 0 1.5-.3 2-.9v.8H73v-6.5h-2zm7.5-.1c-.8 0-1.5.3-2 .8v-3.1h-1.9V20h1.8v-.7c.5.5 1.2.8 2 .8 1.9 0 3.3-1.3 3.3-3.3 0-2-1.4-3.4-3.2-3.4zm-.4 5.2c-.9 0-1.6-.7-1.6-1.8S77.2 15 78 15c1 0 1.7.7 1.7 1.8 0 1-.7 1.8-1.7 1.8zM83 20h1.8v-8.9h-1.9zm4.5-7.4c.7 0 1.1-.4 1.1-1s-.4-1-1.1-1c-.7 0-1.2.4-1.2 1s.5 1 1.2 1zm-1 7.4h2v-6.5h-2V20zm6.8.1c1.3 0 2.4-.6 2.9-1.6l-1.5-.8c-.3.6-.9.9-1.4.9-1 0-1.7-.7-1.7-1.8 0-1.2.7-1.8 1.7-1.8.5 0 1 .3 1.4.9l1.5-.8c-.5-1-1.6-1.7-3-1.7-2 0-3.5 1.4-3.5 3.4s1.5 3.3 3.6 3.3zm13.2-8.5v3.3h-3.8v-3.3h-2V20h2v-3.4h3.8V20h2v-8.4zm10.2 5.2c0-2-1.5-3.4-3.4-3.4-2 0-3.4 1.4-3.4 3.4 0 1.9 1.4 3.3 3.6 3.3 1.2 0 2.1-.4 2.7-1l-1-1.1c-.4.4-1 .6-1.6.6-1 0-1.7-.5-1.9-1.3h5v-.5zm-3.4-2c.9 0 1.5.6 1.6 1.4h-3.2c.1-.8.8-1.3 1.6-1.3zm7-1.4c-1 0-2 .3-2.8.8l.7 1.3c.5-.3 1.2-.6 1.9-.6 1 0 1.5.5 1.5 1.3H120c-2 0-2.8.8-2.8 2 0 1 1 1.9 2.4 1.9 1 0 1.6-.3 2-.9v.8h1.7v-3.7c0-2-1.1-2.9-3-2.9zm-.1 5.4c-.7 0-1-.3-1-.7 0-.5.2-.8 1-.8h1.4v.7c-.2.5-.8.8-1.4.8zm4.9 1.2h1.9v-8.9h-1.9zm7.8-1.6l-.8.2c-.5 0-.8-.3-.8-.8V15h1.6v-1.4h-1.6V12h-1.9v1.6h-1V15h1v2.7c0 1.5 1 2.3 2.5 2.3.5 0 1-.1 1.5-.4l-.5-1.3zm5.5-5c-.9 0-1.6.3-2.1.8v-3.1h-1.9V20h1.9v-3.2c0-1.2.7-1.7 1.6-1.7.8 0 1.3.4 1.3 1.5V20h1.8v-3.7c0-2-1.1-2.9-2.6-2.9zm-75 16.7a3 3 0 01-1.5.4 2.6 2.6 0 01-2.7-2.7c0-1.6 1.1-2.7 2.7-2.7.9 0 1.6.3 2.2 1l1.3-1.2c-.9-1-2-1.4-3.6-1.4-2.6 0-4.6 1.8-4.6 4.3s2 4.3 4.6 4.3c1.2 0 2.5-.3 3.4-1v-3.4h-1.8V30zm9.8-1.3c0-2-1.5-3.4-3.4-3.4-2 0-3.4 1.4-3.4 3.4 0 1.9 1.4 3.3 3.7 3.3 1.1 0 2-.4 2.6-1l-1-1.1c-.4.4-.9.6-1.6.6-1 0-1.6-.5-1.8-1.3h4.9v-.5zm-3.4-2c.9 0 1.5.6 1.6 1.4h-3.1c0-.8.7-1.3 1.5-1.3zm8.6-1.4c-1 0-1.7.3-2.2.9v-.8h-1.8V32h2v-3.2c0-1.2.6-1.7 1.5-1.7.8 0 1.3.4 1.3 1.5V32H81v-3.7c0-2-1.1-2.9-2.6-2.9zm7.5 6.7c2 0 3.5-1.4 3.5-3.3 0-2-1.5-3.4-3.5-3.4s-3.6 1.4-3.6 3.4S83.8 32 86 32zm0-1.5c-1 0-1.7-.7-1.7-1.8S85 27 86 27s1.6.7 1.6 1.8c0 1-.7 1.8-1.6 1.8zM99 25.4c-1 0-1.9.4-2.4 1.1-.4-.7-1.2-1-2.1-1-.8 0-1.6.2-2 .8v-.8h-1.8V32h1.8v-3.2c0-1.2.6-1.7 1.5-1.7.7 0 1.2.4 1.2 1.5V32H97v-3.2c0-1.2.5-1.7 1.4-1.7.7 0 1.2.4 1.2 1.5V32h1.9v-3.7c0-2-1.1-2.9-2.7-2.9zm5.2-.8c.7 0 1.2-.4 1.2-1s-.5-1-1.2-1-1.2.4-1.2 1 .5 1 1.2 1zm-1 7.4h2v-6.5h-2V32zm6.8.1c1.3 0 2.4-.6 2.9-1.6l-1.5-.8c-.3.6-.8.9-1.4.9-1 0-1.7-.7-1.7-1.8 0-1.2.7-1.8 1.7-1.8.6 0 1 .3 1.4.9l1.5-.8c-.5-1-1.6-1.7-3-1.7-2 0-3.5 1.4-3.5 3.4s1.5 3.3 3.6 3.3zm6.1 0c2 0 3-.9 3-2 0-2.6-3.8-1.5-3.8-2.6 0-.4.3-.6 1.2-.6.6 0 1.2 0 1.8.4l.7-1.3c-.6-.3-1.6-.6-2.5-.6-2 0-3 1-3 2.1 0 2.6 3.9 1.5 3.9 2.6 0 .4-.3.6-1.2.6-.8 0-1.7-.3-2.2-.6l-.7 1.3c.6.4 1.7.7 2.8.7z" fill="#FFF" fill-rule="nonzero"/>
        <path stroke="#FFF" stroke-width=".5" stroke-linecap="round" d="M49.5 5.5v31"/>
        <g fill="#FFF" fill-rule="nonzero">
            <path d="M36.3 8.9l-14-8c-1.7-1-3.8-1-5.5 0l-14 8a5.4 5.4 0 00-2.7 4.7v16c0 2 1 3.8 2.7 4.8l14 8c1.7 1 3.8 1 5.5 0l14-8c1.7-1 2.7-2.8 2.7-4.7V13.6c0-2-1-3.7-2.7-4.7zm1.3 10.4L34 32.8a4.7 4.7 0 01-3.3 3.3L17 39.7c-1.6.4-3.3 0-4.5-1.2l-10-10A4.7 4.7 0 011.2 24L5 10.4a4.7 4.7 0 013.4-3.3L22 3.6c1.6-.5 3.3 0 4.5 1.2l10 10c1.1 1.2 1.6 2.9 1.1 4.5z" opacity=".5"/>
            <path d="M26.5 4.8A4.8 4.8 0 0022 3.5L8.3 7.1A4.6 4.6 0 005 10.4L1.2 24c-.4 1.7 0 3.4 1.3 4.6l9.9 10a5 5 0 004.5 1.2L30.6 36c1.6-.4 3-1.7 3.3-3.3l3.8-13.5c.4-1.6 0-3.4-1.2-4.6l-10-10zm2.6 27c-5.7 5.2-5.2 5.9-9.6 4.4l-1.6-.5-2.5-.8c-9.2-2.8-7.5-1-9.6-10.2-2.2-9.3-3-6.9 4-13.4s4.6-5.9 13.8-3.1c9.1 2.7 7.4 1 9.6 10.2 2.1 9.3 2.8 6.9-4.1 13.4z" opacity=".7"/>
            <path d="M15.1 19.7h-.9a1 1 0 00-.7.3l-.2.8v1h2.8v-1c0-.4-.1-.6-.3-.8-.1-.2-.3-.3-.7-.3zm15.3 2.6h-1.6c-.4 0-.7 0-.8.2a1 1 0 00-.3.7v.5c0 .3.1.6.3.7.1.2.4.3.8.3h1.6l.1-.2v-2l-.1-.2z"/>
            <path d="M23.6 8.2c-9.2-2.8-6.8-3.4-13.7 3.1-7 6.5-6.3 4.1-4.1 13.4 2.1 9.3.4 7.5 9.6 10.2l2.5.8 1.6.5c4.4 1.5 3.9.8 9.6-4.4 7-6.5 6.2-4.1 4-13.4-2.1-9.3-.4-7.5-9.5-10.2zM12 17.6c0 .1 0 .2-.2.2H10l-.1.2v7.6c0 .2 0 .3-.2.3H9c-.2 0-.3-.1-.3-.3V18l-.1-.2H7c-.2 0-.3 0-.3-.2v-.7c0-.2.1-.3.3-.3h4.8c.2 0 .2.1.2.3v.7zm5.3 5c0 .1 0 .2-.2.2h-3.7l-.1.2v.6c0 .7.3 1 1 1H17c.2 0 .3.1.3.3v.7c0 .2-.1.3-.3.3h-3c-.6 0-1-.2-1.4-.6-.4-.4-.6-1-.6-1.7v-2.8c0-.7.2-1.3.6-1.7.3-.4.8-.5 1.5-.5h1.2a2 2 0 011.5.5c.3.4.5 1 .5 1.7v1.8zm4.5-3s-.1.2-.2.1h-.8c-.7 0-1.1.5-1.1 1.3v4.6c0 .1 0 .2-.2.2h-.8c-.2 0-.3 0-.3-.2v-6.8c0-.2.1-.3.3-.3h.8c.1 0 .2.1.2.3v.5l.6-.6.8-.2h.5c.1 0 .2.1.2.3v.7zm4.2 0s0 .2-.2.1H25c-.7 0-1 .5-1 1.3v4.6c0 .1-.1.2-.3.2H23c-.2 0-.2 0-.2-.2v-6.8c0-.2 0-.3.2-.3h.8c.2 0 .2.1.2.3v.5l.6-.6.8-.2h.5c.1 0 .2.1.2.3v.7zm5.8 2v4.3h-3c-.8 0-1.3-.2-1.7-.6-.4-.3-.6-.8-.6-1.4v-.6c0-.6.2-1.1.6-1.5.4-.3 1-.5 1.6-.5h1.8v-.5c0-.7-.3-1-1-1h-2.3c-.2 0-.2-.2-.2-.3v-.8c0-.1 0-.2.2-.2h2.5c.7 0 1.2.2 1.5.6.4.4.5 1 .5 1.6v.8z"/>
        </g>
    </g>
</svg>
