<svg width="171" height="44" xmlns="http://www.w3.org/2000/svg">
    <g fill="none" fill-rule="evenodd">
        <path d="M67 10.6h-4.6v10.8h2.5v-3h2.2c2.9 0 4.7-1.5 4.7-3.9s-1.8-4-4.7-4zm0 5.8h-2.1v-3.8h2c1.6 0 2.4.7 2.4 2 0 1-.8 1.8-2.4 1.8zM79.6 13v4.2c0 1.5-.8 2.3-2 2.3-1 0-1.7-.7-1.7-2V13h-2.4v4.7c0 2.6 1.5 3.8 3.6 3.8 1 0 2-.4 2.6-1.2v1H82V13h-2.4zm9.6 0c-1 0-2 .3-2.6 1v-4h-2.4v11.4h2.3v-1c.6.8 1.5 1.2 2.7 1.2 2.3 0 4.1-1.7 4.1-4.3 0-2.7-1.8-4.3-4.1-4.3zm-.5 6.6c-1.2 0-2-.9-2-2.3 0-1.5.8-2.4 2-2.4s2.2 1 2.2 2.4-1 2.3-2.2 2.3zm6.3 1.8h2.3V10H95zm5.8-9.4c.9 0 1.5-.7 1.5-1.5 0-.7-.6-1.3-1.5-1.3s-1.5.6-1.5 1.4c0 .7.6 1.3 1.5 1.3zm-1.2 9.4h2.4v-8.3h-2.4v8.3zm8.7.2c1.7 0 3.1-.8 3.7-2.2l-1.8-1a2 2 0 01-2 1.2c-1.1 0-2.1-.9-2.1-2.3 0-1.5 1-2.4 2.2-2.4a2 2 0 011.9 1.2l1.8-1c-.6-1.4-2-2.1-3.7-2.1-2.7 0-4.7 1.7-4.7 4.3 0 2.5 2 4.3 4.7 4.3zm17.1-11v4.3h-4.9v-4.3H118v10.8h2.5V17h5v4.4h2.4V10.6zm13.1 6.7c0-2.7-1.9-4.3-4.3-4.3-2.6 0-4.5 1.8-4.5 4.3 0 2.4 1.9 4.3 4.8 4.3 1.5 0 2.7-.5 3.4-1.4l-1.3-1.4c-.5.6-1.2.8-2 .8-1.3 0-2.2-.6-2.4-1.7h6.3v-.6zm-4.3-2.5c1 0 1.9.7 2 1.7h-4a2 2 0 012-1.7zm9.1-1.8c-1.4 0-2.7.3-3.6 1l.8 1.7a4 4 0 012.4-.8c1.3 0 2 .6 2 1.6h-2c-2.5 0-3.5 1-3.5 2.5s1.1 2.6 3 2.6c1.3 0 2.2-.4 2.6-1.2v1h2.3v-4.7c0-2.6-1.5-3.7-4-3.7zm-.2 7c-.9 0-1.4-.5-1.4-1 0-.6.4-1 1.5-1h1.7v.8c-.3.8-1 1.1-1.8 1.1zm6.4 1.4h2.4V10h-2.4zm10-2.1a2 2 0 01-1 .3c-.7 0-1-.4-1-1V15h2v-1.8h-2v-2H155v2h-1.3V15h1.3v3.5c0 2 1.2 3 3.2 3 .7 0 1.4-.2 2-.6l-.7-1.7zm7.1-6.3c-1.1 0-2 .3-2.7 1v-4h-2.4v11.4h2.4v-4c0-1.6.8-2.3 2-2.3 1 0 1.7.6 1.7 2v4.3h2.4v-4.7c0-2.6-1.5-3.7-3.4-3.7zM69.7 34.5a4 4 0 01-2 .5c-2 0-3.4-1.5-3.4-3.5s1.4-3.5 3.5-3.5c1.1 0 2 .4 2.8 1.3l1.6-1.5a5.8 5.8 0 00-4.5-1.9c-3.5 0-6 2.3-6 5.6s2.5 5.6 6 5.6c1.5 0 3.1-.5 4.3-1.4v-4.4h-2.3v3.2zm12.6-1.7c0-2.7-1.8-4.3-4.3-4.3s-4.4 1.8-4.4 4.3c0 2.4 1.8 4.3 4.7 4.3 1.5 0 2.7-.5 3.5-1.4l-1.3-1.4c-.6.6-1.2.8-2.1.8-1.3 0-2.2-.6-2.4-1.7h6.3v-.6zM78 30.3c1.1 0 1.9.7 2 1.7h-4a2 2 0 012-1.7zm11-1.8a4 4 0 00-2.7 1v-.9H84v8.3h2.4v-4c0-1.6.8-2.3 2-2.3 1 0 1.7.6 1.7 2v4.3h2.4v-4.7c0-2.6-1.5-3.7-3.5-3.7zm9.7 8.5c2.7 0 4.6-1.7 4.6-4.2s-2-4.3-4.6-4.3c-2.6 0-4.5 1.8-4.5 4.3S96 37 98.7 37zm0-2c-1.2 0-2.1-.8-2.1-2.2 0-1.5 1-2.3 2.1-2.3 1.2 0 2.2.8 2.2 2.3 0 1.4-1 2.3-2.2 2.3zm16.9-6.5a4 4 0 00-3 1.3c-.6-.9-1.6-1.3-2.7-1.3s-2 .3-2.7 1v-.9H105v8.3h2.4v-4.1c0-1.5.8-2.2 1.9-2.2 1 0 1.6.6 1.6 2v4.3h2.4v-4.1c0-1.5.7-2.2 1.8-2.2 1 0 1.6.6 1.6 2v4.3h2.4v-4.7c0-2.6-1.4-3.7-3.4-3.7zm6.8-1.1c.9 0 1.5-.6 1.5-1.4 0-.7-.6-1.3-1.5-1.3s-1.5.6-1.5 1.4c0 .7.6 1.3 1.5 1.3zm-1.2 9.5h2.4v-8.3h-2.4v8.3zm8.7.1c1.7 0 3.1-.7 3.7-2l-1.8-1a2 2 0 01-2 1c-1.1 0-2.1-.8-2.1-2.2 0-1.5 1-2.3 2.2-2.3a2 2 0 011.9 1.1l1.8-1c-.6-1.4-2-2.1-3.7-2.1-2.7 0-4.7 1.8-4.7 4.3s2 4.3 4.7 4.3zm7.9 0c2.5 0 4-1 4-2.6 0-3.3-5-1.9-5-3.3 0-.5.4-.8 1.5-.8.7 0 1.6.2 2.4.6l.8-1.7c-.8-.5-2-.7-3.2-.7-2.4 0-3.9 1-3.9 2.7 0 3.3 5 2 5 3.3 0 .4-.4.7-1.5.7-1 0-2.1-.3-2.9-.8l-.8 1.8c.8.5 2.2.9 3.6.9z" fill="#006DB6" fill-rule="nonzero"/>
        <path stroke="#006DB6" stroke-width=".6" stroke-linecap="round" d="M51.9 2v40.2"/>
        <path d="M.8 13.9V30c0 2 1 3.8 2.8 4.8l14 8.1c1.8 1 3.9 1 5.5 0L37.3 35a6 6 0 002.7-5V14c0-2-1-3.8-2.7-4.8L23 1c-1.7-1-3.7-1-5.4 0L3.5 9a5.5 5.5 0 00-2.7 5z" fill="#359348" fill-rule="nonzero"/>
        <path d="M5.7 10.7L2 24.3C1.5 26 2 27.7 3.2 29l10 10.1a5 5 0 004.6 1.3l13.7-3.6c1.6-.4 3-1.7 3.4-3.3l3.7-13.7a5 5 0 00-1.2-4.7l-10-10a4.7 4.7 0 00-4.6-1.3L9.1 7.3c-1.6.4-3 1.7-3.4 3.4z" fill="#73AD43" fill-rule="nonzero"/>
        <path d="M18.7 36.3l-2.5-.8c-9.3-2.8-7.5-1-9.7-10.4-2.2-9.4-3-7 4.1-13.5 7-6.6 4.6-6 13.8-3.2 9.2 2.8 7.5 1 9.7 10.3 2.1 9.4 2.9 7-4.2 13.6-5.6 5.3-5.1 6-9.6 4.5l-1.6-.5z" fill="#AFD139"/>
        <path d="M12.6 17H7.7c-.1 0-.2 0-.2.2v.7c0 .2 0 .2.2.2h1.7l.1.2V26c0 .2.1.2.3.2h.8c.1 0 .2 0 .2-.2v-7.7c0-.1 0-.2.2-.2h1.6c.2 0 .2 0 .2-.2v-.7c0-.2 0-.3-.2-.3zm3.5 1.9H15c-.7 0-1.2.2-1.5.5-.4.4-.5 1-.5 1.7v3c0 .6.1 1.2.5 1.6.4.4.8.6 1.5.6h3l.2-.2v-.8c0-.1 0-.2-.2-.2h-3c-.7 0-1-.4-1-1.1v-.7l.1-.1H18c.2 0 .3 0 .3-.3v-1.8c0-.7-.2-1.3-.6-1.7a2 2 0 00-1.5-.5zM17 22l-.2.1h-2.5l-.1-.1v-1c0-.3 0-.6.2-.8l.7-.2h1c.3 0 .5 0 .6.2.2.2.3.5.3.8v1zm15.2-2.6a2 2 0 00-1.5-.6H28c-.1 0-.2.1-.2.3v.7c0 .1 0 .2.2.2h2.4c.6 0 1 .4 1 1.1v.6h-1.9c-.7 0-1.2.2-1.6.5a2 2 0 00-.6 1.5v.5c0 .7.2 1.2.6 1.5.4.4 1 .5 1.6.5h3v-5.1c0-.7-.1-1.3-.4-1.7zm-.8 5.5l-.1.2h-1.6c-.4 0-.7-.1-.8-.3-.2 0-.3-.4-.3-.7v-.5c0-.3.1-.6.3-.7l.8-.2h1.6l.1.1V25zm-9-6H22c-.3 0-.5 0-.8.2a1 1 0 00-.5.6V19c0-.2-.1-.2-.3-.2h-.8c-.1 0-.2 0-.2.2v7s0 .2.2.2h.8c.2 0 .3-.1.3-.3v-4.6c0-.9.3-1.3 1-1.3h.8c.2 0 .2 0 .2-.2V19c0-.2 0-.2-.2-.2zm4.3 0h-.5c-.3 0-.6 0-.8.2a1 1 0 00-.5.6V19c0-.2-.2-.2-.3-.2h-.8c-.2 0-.2 0-.2.2v7s0 .2.2.2h.8c.1 0 .2-.1.2-.3v-4.6c0-.9.4-1.3 1-1.3h.9c.1 0 .2 0 .2-.2V19c0-.2 0-.2-.2-.2z" fill="#FFF" fill-rule="nonzero"/>
    </g>
</svg>
