<svg width="224" height="33" viewBox="0 0 224 33" fill="none" xmlns="http://www.w3.org/2000/svg">
  <g clip-path="url(#clip0_597_4373)">
    <path d="M15.5001 31.0951C23.8227 31.0951 30.5696 24.2681 30.5696 15.8465C30.5696 7.42489 23.8227 0.597839 15.5001 0.597839C7.17748 0.597839 0.430664 7.42489 0.430664 15.8465C0.430664 24.2681 7.17748 31.0951 15.5001 31.0951Z" fill="white"/>
    <mask id="mask0_597_4373" style="mask-type:luminance" maskUnits="userSpaceOnUse" x="0" y="0" width="31" height="32">
      <path d="M15.5001 31.0951C23.8227 31.0951 30.5696 24.2681 30.5696 15.8465C30.5696 7.42489 23.8227 0.597839 15.5001 0.597839C7.17748 0.597839 0.430664 7.42489 0.430664 15.8465C0.430664 24.2681 7.17748 31.0951 15.5001 31.0951Z" fill="white"/>
    </mask>
    <g mask="url(#mask0_597_4373)">
      <path d="M19.8057 23.253H11.1946V32.8378H19.8057V23.253Z" fill="#E8E6E4"/>
      <path d="M21.8037 5.39026H21.0975V13.2324L15.5003 17.1535L9.9031 13.2324V5.39026H9.19699C6.74713 7.30287 5.16699 10.296 5.16699 13.6681C5.16699 19.4408 9.79546 24.1243 15.5003 24.1243C21.2052 24.1243 25.8337 19.4408 25.8337 13.6681C25.8337 10.296 24.2535 7.30287 21.8037 5.39026Z" fill="#F7F7F7"/>
      <path d="M19.3752 8.00433V12.3611L15.5002 14.9751V10.6184L19.3752 8.00433Z" fill="#46A3E9"/>
      <path d="M11.6252 8.00431L15.5002 10.6184L19.3752 8.00431L15.5002 5.39026L11.6252 8.00431Z" fill="#FF7552"/>
      <path d="M11.6252 8.00433V12.3611L15.5002 14.9751V10.6184L11.6252 8.00433Z" fill="#74AE43"/>
      <path d="M15.5001 15.4108C15.4183 15.4108 15.3322 15.3847 15.2633 15.3367L11.3883 12.7227C11.2678 12.6399 11.1946 12.5048 11.1946 12.3611V8.00431C11.1946 7.86053 11.2678 7.72112 11.3883 7.6427L15.2633 5.02864C15.4097 4.93279 15.5949 4.93279 15.7412 5.02864L19.6162 7.6427C19.7368 7.72548 19.81 7.86053 19.81 8.00431V12.3611C19.81 12.5048 19.7368 12.6443 19.6162 12.7227L15.7412 15.3367C15.6681 15.3847 15.5862 15.4108 15.5044 15.4108H15.5001ZM12.0557 12.1302L15.5001 14.4523L18.9446 12.1302V8.23957L15.5001 5.91742L12.0557 8.23957V12.1302Z" fill="#333F52"/>
      <path d="M15.5002 11.1412L11.3884 8.36592L11.862 7.6427L15.5002 10.0956L19.1384 7.6427L19.612 8.36592L15.5002 11.1412Z" fill="#2D2D2E"/>
      <path d="M15.9307 10.6184H15.0696V14.9751H15.9307V10.6184Z" fill="#2D2D2E"/>
      <path d="M11.6253 23.253H10.7642V32.8378H11.6253V23.253Z" fill="#333F52"/>
      <path d="M20.2364 23.253H19.3752V32.8378H20.2364V23.253Z" fill="#333F52"/>
      <path d="M15.5002 24.56C15.2634 24.56 15.0697 24.3639 15.0697 24.1243C15.0697 23.8847 15.2634 23.6886 15.5002 23.6886C20.9597 23.6886 25.403 19.1925 25.403 13.6681C25.403 10.5922 24.0424 7.73856 21.6658 5.82594H21.528V13.459L15.5002 17.6807L9.47244 13.459V5.82594H9.33466C6.958 7.73856 5.59744 10.5922 5.59744 13.6681C5.59744 17.5718 7.86647 21.1487 11.3755 22.7781C11.5908 22.8783 11.6855 23.1353 11.5865 23.3575C11.4874 23.5754 11.2291 23.6712 11.0138 23.571C7.19911 21.7978 4.73633 17.9116 4.73633 13.6681C4.73633 10.2698 6.26049 7.12425 8.92133 5.04608L9.03758 4.95459H10.3336V13.0059L15.5002 16.6263L20.6669 13.0059V4.95459H21.9629L22.0791 5.04608C24.7399 7.12861 26.2641 10.2698 26.2641 13.6681C26.2641 19.6761 21.4376 24.56 15.5002 24.56Z" fill="#333F52"/>
      <path d="M15.9307 19.3319H15.0696V20.2032H15.9307V19.3319Z" fill="#2D2D2E"/>
      <path d="M17.6531 19.3319H16.792V20.2032H17.6531V19.3319Z" fill="#2D2D2E"/>
      <path d="M14.2085 19.3319H13.3474V20.2032H14.2085V19.3319Z" fill="#2D2D2E"/>
      <path d="M15.5002 26.7384C14.7854 26.7384 14.2085 27.3222 14.2085 28.0454V32.8378H16.7918V28.0454C16.7918 27.3222 16.2149 26.7384 15.5002 26.7384Z" fill="#A8A7A5"/>
    </g>
    <mask id="mask1_597_4373" style="mask-type:luminance" maskUnits="userSpaceOnUse" x="0" y="0" width="31" height="32">
      <path d="M15.5001 31.0951C23.8227 31.0951 30.5696 24.2681 30.5696 15.8465C30.5696 7.42489 23.8227 0.597839 15.5001 0.597839C7.17748 0.597839 0.430664 7.42489 0.430664 15.8465C0.430664 24.2681 7.17748 31.0951 15.5001 31.0951Z" fill="white"/>
    </mask>
    <g mask="url(#mask1_597_4373)">
      <path d="M19.8057 23.253H11.1946V32.8378H19.8057V23.253Z" fill="#E8E6E4"/>
      <path d="M21.8037 5.39026H21.0975V13.2324L15.5003 17.1535L9.9031 13.2324V5.39026H9.19699C6.74713 7.30287 5.16699 10.296 5.16699 13.6681C5.16699 19.4408 9.79546 24.1243 15.5003 24.1243C21.2052 24.1243 25.8337 19.4408 25.8337 13.6681C25.8337 10.296 24.2535 7.30287 21.8037 5.39026Z" fill="#F7F7F7"/>
      <path d="M19.3752 8.00433V12.3611L15.5002 14.9751V10.6184L19.3752 8.00433Z" fill="#46A3E9"/>
      <path d="M11.6252 8.00431L15.5002 10.6184L19.3752 8.00431L15.5002 5.39026L11.6252 8.00431Z" fill="#FF7552"/>
      <path d="M11.6252 8.00433V12.3611L15.5002 14.9751V10.6184L11.6252 8.00433Z" fill="#74AE43"/>
      <path d="M15.5001 15.4108C15.4183 15.4108 15.3322 15.3847 15.2633 15.3367L11.3883 12.7227C11.2678 12.6399 11.1946 12.5048 11.1946 12.3611V8.00431C11.1946 7.86053 11.2678 7.72112 11.3883 7.6427L15.2633 5.02864C15.4097 4.93279 15.5949 4.93279 15.7412 5.02864L19.6162 7.6427C19.7368 7.72548 19.81 7.86053 19.81 8.00431V12.3611C19.81 12.5048 19.7368 12.6443 19.6162 12.7227L15.7412 15.3367C15.6681 15.3847 15.5862 15.4108 15.5044 15.4108H15.5001ZM12.0557 12.1302L15.5001 14.4523L18.9446 12.1302V8.23957L15.5001 5.91742L12.0557 8.23957V12.1302Z" fill="#333F52"/>
      <path d="M15.5002 11.1412L11.3884 8.36592L11.862 7.6427L15.5002 10.0956L19.1384 7.6427L19.612 8.36592L15.5002 11.1412Z" fill="#2D2D2E"/>
      <path d="M15.9307 10.6184H15.0696V14.9751H15.9307V10.6184Z" fill="#2D2D2E"/>
      <path d="M11.6253 23.253H10.7642V32.8378H11.6253V23.253Z" fill="#333F52"/>
      <path d="M20.2364 23.253H19.3752V32.8378H20.2364V23.253Z" fill="#333F52"/>
      <path d="M15.5002 24.56C15.2634 24.56 15.0697 24.3639 15.0697 24.1243C15.0697 23.8847 15.2634 23.6886 15.5002 23.6886C20.9597 23.6886 25.403 19.1925 25.403 13.6681C25.403 10.5922 24.0424 7.73856 21.6658 5.82594H21.528V13.459L15.5002 17.6807L9.47244 13.459V5.82594H9.33466C6.958 7.73856 5.59744 10.5922 5.59744 13.6681C5.59744 17.5718 7.86647 21.1487 11.3755 22.7781C11.5908 22.8783 11.6855 23.1353 11.5865 23.3575C11.4874 23.5754 11.2291 23.6712 11.0138 23.571C7.19911 21.7978 4.73633 17.9116 4.73633 13.6681C4.73633 10.2698 6.26049 7.12425 8.92133 5.04608L9.03758 4.95459H10.3336V13.0059L15.5002 16.6263L20.6669 13.0059V4.95459H21.9629L22.0791 5.04608C24.7399 7.12861 26.2641 10.2698 26.2641 13.6681C26.2641 19.6761 21.4376 24.56 15.5002 24.56Z" fill="#333F52"/>
      <path d="M15.9307 19.3319H15.0696V20.2032H15.9307V19.3319Z" fill="#2D2D2E"/>
      <path d="M17.6531 19.3319H16.792V20.2032H17.6531V19.3319Z" fill="#2D2D2E"/>
      <path d="M14.2085 19.3319H13.3474V20.2032H14.2085V19.3319Z" fill="#2D2D2E"/>
      <path d="M15.5002 26.7384C14.7854 26.7384 14.2085 27.3222 14.2085 28.0454V32.8378H16.7918V28.0454C16.7918 27.3222 16.2149 26.7384 15.5002 26.7384Z" fill="#A8A7A5"/>
    </g>
    <path d="M15.5001 31.0951C23.8227 31.0951 30.5696 24.2681 30.5696 15.8465C30.5696 7.42489 23.8227 0.597839 15.5001 0.597839C7.17748 0.597839 0.430664 7.42489 0.430664 15.8465C0.430664 24.2681 7.17748 31.0951 15.5001 31.0951Z" stroke="#333F52" stroke-miterlimit="10"/>
  </g>
  <path d="M40.1857 21V12.1701H44.3232C45.3828 12.1701 46.1901 12.3803 46.7451 12.8008C47.3001 13.2128 47.5776 13.7679 47.5776 14.4659C47.5776 14.9368 47.4683 15.3404 47.2497 15.6768C47.031 16.0048 46.7367 16.2613 46.3667 16.4463C46.0051 16.6229 45.6098 16.7112 45.1809 16.7112L45.408 16.2571C45.9042 16.2571 46.3499 16.3496 46.7451 16.5346C47.1403 16.7112 47.4515 16.9719 47.6786 17.3167C47.914 17.6614 48.0317 18.0903 48.0317 18.6033C48.0317 19.3602 47.7416 19.9488 47.1614 20.3693C46.5811 20.7898 45.7192 21 44.5755 21H40.1857ZM41.8256 19.7134H44.4746C45.0884 19.7134 45.5594 19.6124 45.8873 19.4106C46.2153 19.2088 46.3793 18.885 46.3793 18.4393C46.3793 18.002 46.2153 17.6825 45.8873 17.4806C45.5594 17.2704 45.0884 17.1653 44.4746 17.1653H41.6994V15.8913H44.1466C44.7184 15.8913 45.1557 15.7903 45.4585 15.5885C45.7696 15.3867 45.9252 15.084 45.9252 14.6803C45.9252 14.2682 45.7696 13.9613 45.4585 13.7595C45.1557 13.5576 44.7184 13.4567 44.1466 13.4567H41.8256V19.7134ZM49.6305 21V14.264H51.1316V16.1183L50.955 15.5759C51.1568 15.1218 51.4722 14.777 51.901 14.5415C52.3383 14.3061 52.8807 14.1883 53.5283 14.1883V15.6894C53.461 15.6726 53.3979 15.6642 53.3391 15.6642C53.2802 15.6558 53.2213 15.6516 53.1625 15.6516C52.5654 15.6516 52.0903 15.8282 51.7371 16.1814C51.3839 16.5262 51.2073 17.0434 51.2073 17.7329V21H49.6305ZM57.8317 21.0883C57.1421 21.0883 56.5282 20.9411 55.99 20.6468C55.4518 20.3441 55.0271 19.932 54.716 19.4106C54.4048 18.8892 54.2493 18.2964 54.2493 17.632C54.2493 16.9593 54.4048 16.3664 54.716 15.8534C55.0271 15.332 55.4518 14.9242 55.99 14.6298C56.5282 14.3355 57.1421 14.1883 57.8317 14.1883C58.5297 14.1883 59.1478 14.3355 59.686 14.6298C60.2326 14.9242 60.6573 15.3278 60.96 15.8408C61.2711 16.3538 61.4267 16.9508 61.4267 17.632C61.4267 18.2964 61.2711 18.8892 60.96 19.4106C60.6573 19.932 60.2326 20.3441 59.686 20.6468C59.1478 20.9411 58.5297 21.0883 57.8317 21.0883ZM57.8317 19.7386C58.2185 19.7386 58.5633 19.6545 58.866 19.4863C59.1688 19.3181 59.4042 19.0742 59.5724 18.7547C59.749 18.4351 59.8373 18.0609 59.8373 17.632C59.8373 17.1947 59.749 16.8205 59.5724 16.5094C59.4042 16.1898 59.1688 15.9459 58.866 15.7777C58.5633 15.6095 58.2227 15.5254 57.8443 15.5254C57.4575 15.5254 57.1127 15.6095 56.8099 15.7777C56.5156 15.9459 56.2801 16.1898 56.1035 16.5094C55.9269 16.8205 55.8386 17.1947 55.8386 17.632C55.8386 18.0609 55.9269 18.4351 56.1035 18.7547C56.2801 19.0742 56.5156 19.3181 56.8099 19.4863C57.1127 19.6545 57.4533 19.7386 57.8317 19.7386ZM66.9983 21V19.6377L66.91 19.3475V16.9635C66.91 16.5009 66.7713 16.1435 66.4938 15.8913C66.2163 15.6306 65.7958 15.5002 65.2324 15.5002C64.8539 15.5002 64.4797 15.5591 64.1097 15.6768C63.7481 15.7946 63.4411 15.9585 63.1889 16.1688L62.5708 15.0209C62.9324 14.7434 63.3613 14.5373 63.8574 14.4028C64.362 14.2598 64.8834 14.1883 65.4216 14.1883C66.3971 14.1883 67.1497 14.4238 67.6795 14.8947C68.2177 15.3573 68.4868 16.0763 68.4868 17.0518V21H66.9983ZM64.8792 21.0883C64.3746 21.0883 63.9331 21.0042 63.5547 20.836C63.1762 20.6594 62.8819 20.4197 62.6717 20.117C62.4699 19.8059 62.3689 19.4569 62.3689 19.07C62.3689 18.6916 62.4572 18.351 62.6338 18.0483C62.8188 17.7455 63.1174 17.5059 63.5294 17.3293C63.9415 17.1527 64.4881 17.0644 65.1693 17.0644H67.1245V18.1114H65.2828C64.7446 18.1114 64.383 18.1997 64.198 18.3763C64.013 18.5444 63.9205 18.7547 63.9205 19.007C63.9205 19.2929 64.034 19.5199 64.2611 19.6881C64.4881 19.8563 64.8035 19.9404 65.2071 19.9404C65.594 19.9404 65.9388 19.8521 66.2415 19.6755C66.5526 19.4989 66.7755 19.2382 66.91 18.8934L67.1749 19.8395C67.0236 20.2347 66.7503 20.5417 66.355 20.7603C65.9682 20.979 65.4762 21.0883 64.8792 21.0883ZM73.3735 21.0883C72.726 21.0883 72.1415 20.9453 71.6202 20.6594C71.1072 20.3651 70.7035 19.9614 70.4092 19.4485C70.1149 18.9355 69.9677 18.33 69.9677 17.632C69.9677 16.934 70.1149 16.3286 70.4092 15.8156C70.7035 15.3026 71.1072 14.9031 71.6202 14.6172C72.1415 14.3313 72.726 14.1883 73.3735 14.1883C73.937 14.1883 74.4415 14.3145 74.8872 14.5668C75.3329 14.8106 75.6861 15.1849 75.9468 15.6894C76.2075 16.194 76.3379 16.8415 76.3379 17.632C76.3379 18.4141 76.2117 19.0616 75.9594 19.5746C75.7071 20.0792 75.3582 20.4576 74.9125 20.7099C74.4668 20.9622 73.9538 21.0883 73.3735 21.0883ZM73.5627 19.7386C73.9412 19.7386 74.2775 19.6545 74.5719 19.4863C74.8746 19.3181 75.1143 19.0742 75.2909 18.7547C75.4759 18.4351 75.5684 18.0609 75.5684 17.632C75.5684 17.1947 75.4759 16.8205 75.2909 16.5094C75.1143 16.1898 74.8746 15.9459 74.5719 15.7777C74.2775 15.6095 73.9412 15.5254 73.5627 15.5254C73.1843 15.5254 72.8437 15.6095 72.541 15.7777C72.2467 15.9459 72.007 16.1898 71.822 16.5094C71.6454 16.8205 71.5571 17.1947 71.5571 17.632C71.5571 18.0609 71.6454 18.4351 71.822 18.7547C72.007 19.0742 72.2467 19.3181 72.541 19.4863C72.8437 19.6545 73.1843 19.7386 73.5627 19.7386ZM75.6062 21V19.4106L75.6693 17.6194L75.5432 15.8282V11.6403H77.1073V21H75.6062ZM82.8202 21V12.1701H86.6801C87.6388 12.1701 88.4797 12.3551 89.2029 12.7251C89.9261 13.0951 90.4896 13.6081 90.8932 14.264C91.2969 14.92 91.4987 15.6936 91.4987 16.585C91.4987 17.468 91.2969 18.2417 90.8932 18.906C90.4896 19.562 89.9261 20.075 89.2029 20.445C88.4797 20.815 87.6388 21 86.6801 21H82.8202ZM84.46 19.6124H86.6044C87.2604 19.6124 87.8322 19.4863 88.3199 19.234C88.8077 18.9817 89.1819 18.6285 89.4426 18.1744C89.7117 17.7203 89.8463 17.1905 89.8463 16.585C89.8463 15.9711 89.7117 15.4414 89.4426 14.9957C89.1819 14.5415 88.8077 14.1883 88.3199 13.9361C87.8322 13.6838 87.2604 13.5576 86.6044 13.5576H84.46V19.6124ZM97.2403 21V19.6377L97.152 19.3475V16.9635C97.152 16.5009 97.0133 16.1435 96.7358 15.8913C96.4583 15.6306 96.0378 15.5002 95.4743 15.5002C95.0959 15.5002 94.7217 15.5591 94.3517 15.6768C93.9901 15.7946 93.6831 15.9585 93.4308 16.1688L92.8128 15.0209C93.1744 14.7434 93.6032 14.5373 94.0994 14.4028C94.604 14.2598 95.1254 14.1883 95.6636 14.1883C96.6391 14.1883 97.3917 14.4238 97.9215 14.8947C98.4597 15.3573 98.7288 16.0763 98.7288 17.0518V21H97.2403ZM95.1211 21.0883C94.6166 21.0883 94.1751 21.0042 93.7967 20.836C93.4182 20.6594 93.1239 20.4197 92.9137 20.117C92.7118 19.8059 92.6109 19.4569 92.6109 19.07C92.6109 18.6916 92.6992 18.351 92.8758 18.0483C93.0608 17.7455 93.3594 17.5059 93.7714 17.3293C94.1835 17.1527 94.7301 17.0644 95.4113 17.0644H97.3665V18.1114H95.5248C94.9866 18.1114 94.625 18.1997 94.44 18.3763C94.255 18.5444 94.1625 18.7547 94.1625 19.007C94.1625 19.2929 94.276 19.5199 94.5031 19.6881C94.7301 19.8563 95.0455 19.9404 95.4491 19.9404C95.836 19.9404 96.1807 19.8521 96.4835 19.6755C96.7946 19.4989 97.0175 19.2382 97.152 18.8934L97.4169 19.8395C97.2656 20.2347 96.9923 20.5417 96.597 20.7603C96.2102 20.979 95.7182 21.0883 95.1211 21.0883ZM103.288 21.0883C102.548 21.0883 101.976 20.8991 101.572 20.5207C101.169 20.1338 100.967 19.5662 100.967 18.8177V12.7756H102.544V18.7799C102.544 19.0995 102.623 19.3475 102.783 19.5241C102.951 19.7007 103.183 19.789 103.477 19.789C103.83 19.789 104.125 19.6965 104.36 19.5115L104.802 20.6342C104.617 20.7856 104.389 20.8991 104.12 20.9748C103.851 21.0505 103.574 21.0883 103.288 21.0883ZM99.8568 15.5254V14.264H104.347V15.5254H99.8568ZM110.015 21V19.6377L109.926 19.3475V16.9635C109.926 16.5009 109.788 16.1435 109.51 15.8913C109.233 15.6306 108.812 15.5002 108.249 15.5002C107.87 15.5002 107.496 15.5591 107.126 15.6768C106.764 15.7946 106.457 15.9585 106.205 16.1688L105.587 15.0209C105.949 14.7434 106.378 14.5373 106.874 14.4028C107.378 14.2598 107.9 14.1883 108.438 14.1883C109.413 14.1883 110.166 14.4238 110.696 14.8947C111.234 15.3573 111.503 16.0763 111.503 17.0518V21H110.015ZM107.895 21.0883C107.391 21.0883 106.949 21.0042 106.571 20.836C106.193 20.6594 105.898 20.4197 105.688 20.117C105.486 19.8059 105.385 19.4569 105.385 19.07C105.385 18.6916 105.474 18.351 105.65 18.0483C105.835 17.7455 106.134 17.5059 106.546 17.3293C106.958 17.1527 107.504 17.0644 108.186 17.0644H110.141V18.1114H108.299C107.761 18.1114 107.399 18.1997 107.214 18.3763C107.029 18.5444 106.937 18.7547 106.937 19.007C106.937 19.2929 107.05 19.5199 107.277 19.6881C107.504 19.8563 107.82 19.9404 108.223 19.9404C108.61 19.9404 108.955 19.8521 109.258 19.6755C109.569 19.4989 109.792 19.2382 109.926 18.8934L110.191 19.8395C110.04 20.2347 109.767 20.5417 109.371 20.7603C108.984 20.979 108.493 21.0883 107.895 21.0883ZM119.902 21.1261C119.212 21.1261 118.552 21.0294 117.921 20.836C117.29 20.6342 116.79 20.3777 116.42 20.0666L116.988 18.7925C117.341 19.07 117.778 19.3013 118.3 19.4863C118.821 19.6713 119.355 19.7638 119.902 19.7638C120.364 19.7638 120.738 19.7134 121.024 19.6124C121.31 19.5115 121.52 19.377 121.655 19.2088C121.789 19.0322 121.857 18.8346 121.857 18.6159C121.857 18.3468 121.76 18.1324 121.567 17.9726C121.373 17.8044 121.121 17.6741 120.81 17.5816C120.507 17.4806 120.166 17.3881 119.788 17.304C119.418 17.22 119.044 17.1232 118.665 17.0139C118.295 16.8962 117.955 16.749 117.644 16.5724C117.341 16.3874 117.093 16.1435 116.899 15.8408C116.706 15.5381 116.609 15.1512 116.609 14.6803C116.609 14.201 116.735 13.7637 116.988 13.3684C117.248 12.9648 117.639 12.6452 118.161 12.4097C118.691 12.1659 119.359 12.0439 120.166 12.0439C120.696 12.0439 121.222 12.1112 121.743 12.2458C122.265 12.3803 122.719 12.5737 123.106 12.826L122.588 14.1C122.193 13.8646 121.785 13.6922 121.365 13.5829C120.944 13.4651 120.541 13.4063 120.154 13.4063C119.7 13.4063 119.33 13.4609 119.044 13.5703C118.766 13.6796 118.56 13.8225 118.426 13.9991C118.3 14.1757 118.236 14.3776 118.236 14.6046C118.236 14.8737 118.329 15.0924 118.514 15.2606C118.707 15.4203 118.955 15.5465 119.258 15.639C119.569 15.7315 119.914 15.824 120.293 15.9165C120.671 16.0006 121.045 16.0973 121.415 16.2066C121.794 16.3159 122.134 16.4589 122.437 16.6355C122.748 16.8121 122.996 17.0518 123.181 17.3545C123.375 17.6572 123.471 18.0399 123.471 18.5024C123.471 18.9733 123.341 19.4106 123.08 19.8143C122.828 20.2095 122.437 20.5291 121.907 20.7729C121.377 21.0084 120.709 21.1261 119.902 21.1261ZM128.036 21.0883C127.33 21.0883 126.699 20.9411 126.144 20.6468C125.598 20.3441 125.169 19.932 124.858 19.4106C124.547 18.8892 124.391 18.2964 124.391 17.632C124.391 16.9593 124.547 16.3664 124.858 15.8534C125.169 15.332 125.598 14.9242 126.144 14.6298C126.699 14.3355 127.33 14.1883 128.036 14.1883C128.692 14.1883 129.268 14.3229 129.765 14.592C130.269 14.8527 130.652 15.2395 130.912 15.7525L129.702 16.4589C129.5 16.1393 129.252 15.9039 128.957 15.7525C128.671 15.6011 128.36 15.5254 128.024 15.5254C127.637 15.5254 127.288 15.6095 126.977 15.7777C126.666 15.9459 126.422 16.1898 126.245 16.5094C126.069 16.8205 125.98 17.1947 125.98 17.632C125.98 18.0693 126.069 18.4477 126.245 18.7673C126.422 19.0784 126.666 19.3181 126.977 19.4863C127.288 19.6545 127.637 19.7386 128.024 19.7386C128.36 19.7386 128.671 19.6629 128.957 19.5115C129.252 19.3602 129.5 19.1247 129.702 18.8051L130.912 19.5115C130.652 20.0161 130.269 20.4071 129.765 20.6846C129.268 20.9537 128.692 21.0883 128.036 21.0883ZM132.214 21V14.264H133.791V21H132.214ZM133.009 13.154C132.714 13.154 132.47 13.0615 132.277 12.8765C132.092 12.6915 131.999 12.4686 131.999 12.2079C131.999 11.9388 132.092 11.716 132.277 11.5394C132.47 11.3544 132.714 11.2619 133.009 11.2619C133.303 11.2619 133.543 11.3502 133.728 11.5268C133.921 11.6949 134.018 11.9094 134.018 12.1701C134.018 12.4476 133.925 12.6831 133.74 12.8765C133.555 13.0615 133.311 13.154 133.009 13.154ZM139.026 21.0883C138.278 21.0883 137.622 20.9411 137.059 20.6468C136.504 20.3441 136.07 19.932 135.759 19.4106C135.457 18.8892 135.305 18.2964 135.305 17.632C135.305 16.9593 135.452 16.3664 135.747 15.8534C136.049 15.332 136.461 14.9242 136.983 14.6298C137.513 14.3355 138.114 14.1883 138.787 14.1883C139.443 14.1883 140.027 14.3313 140.54 14.6172C141.053 14.9031 141.457 15.3068 141.751 15.8282C142.045 16.3496 142.193 16.9635 142.193 17.6699C142.193 17.7371 142.188 17.8128 142.18 17.8969C142.18 17.981 142.176 18.0609 142.167 18.1366H136.554V17.0896H141.335L140.717 17.4176C140.725 17.0307 140.645 16.6902 140.477 16.3958C140.309 16.1015 140.078 15.8702 139.783 15.702C139.497 15.5339 139.165 15.4498 138.787 15.4498C138.4 15.4498 138.059 15.5339 137.765 15.702C137.479 15.8702 137.252 16.1057 137.084 16.4084C136.924 16.7028 136.844 17.0518 136.844 17.4554V17.7077C136.844 18.1114 136.937 18.4688 137.122 18.7799C137.307 19.0911 137.567 19.3307 137.904 19.4989C138.24 19.6671 138.627 19.7512 139.064 19.7512C139.443 19.7512 139.783 19.6923 140.086 19.5746C140.389 19.4569 140.658 19.2719 140.893 19.0196L141.738 19.9909C141.436 20.3441 141.053 20.6174 140.591 20.8108C140.136 20.9958 139.615 21.0883 139.026 21.0883ZM143.707 21V14.264H145.208V16.0805L144.943 15.5254C145.179 15.0966 145.519 14.7686 145.965 14.5415C146.419 14.3061 146.941 14.1883 147.529 14.1883C148.067 14.1883 148.547 14.2935 148.967 14.5037C149.396 14.7139 149.732 15.0377 149.976 15.475C150.22 15.9039 150.342 16.4589 150.342 17.1401V21H148.765V17.3419C148.765 16.7448 148.622 16.2991 148.337 16.0048C148.059 15.7105 147.668 15.5633 147.163 15.5633C146.793 15.5633 146.465 15.639 146.179 15.7903C145.894 15.9417 145.671 16.1688 145.511 16.4715C145.36 16.7658 145.284 17.1401 145.284 17.5942V21H143.707ZM155.445 21.0883C154.739 21.0883 154.108 20.9411 153.553 20.6468C153.006 20.3441 152.578 19.932 152.266 19.4106C151.955 18.8892 151.8 18.2964 151.8 17.632C151.8 16.9593 151.955 16.3664 152.266 15.8534C152.578 15.332 153.006 14.9242 153.553 14.6298C154.108 14.3355 154.739 14.1883 155.445 14.1883C156.101 14.1883 156.677 14.3229 157.173 14.592C157.678 14.8527 158.061 15.2395 158.321 15.7525L157.11 16.4589C156.908 16.1393 156.66 15.9039 156.366 15.7525C156.08 15.6011 155.769 15.5254 155.433 15.5254C155.046 15.5254 154.697 15.6095 154.386 15.7777C154.074 15.9459 153.831 16.1898 153.654 16.5094C153.477 16.8205 153.389 17.1947 153.389 17.632C153.389 18.0693 153.477 18.4477 153.654 18.7673C153.831 19.0784 154.074 19.3181 154.386 19.4863C154.697 19.6545 155.046 19.7386 155.433 19.7386C155.769 19.7386 156.08 19.6629 156.366 19.5115C156.66 19.3602 156.908 19.1247 157.11 18.8051L158.321 19.5115C158.061 20.0161 157.678 20.4071 157.173 20.6846C156.677 20.9537 156.101 21.0883 155.445 21.0883ZM162.752 21.0883C162.003 21.0883 161.347 20.9411 160.784 20.6468C160.229 20.3441 159.796 19.932 159.485 19.4106C159.182 18.8892 159.031 18.2964 159.031 17.632C159.031 16.9593 159.178 16.3664 159.472 15.8534C159.775 15.332 160.187 14.9242 160.708 14.6298C161.238 14.3355 161.839 14.1883 162.512 14.1883C163.168 14.1883 163.753 14.3313 164.266 14.6172C164.779 14.9031 165.182 15.3068 165.477 15.8282C165.771 16.3496 165.918 16.9635 165.918 17.6699C165.918 17.7371 165.914 17.8128 165.905 17.8969C165.905 17.981 165.901 18.0609 165.893 18.1366H160.279V17.0896H165.06L164.442 17.4176C164.451 17.0307 164.371 16.6902 164.202 16.3958C164.034 16.1015 163.803 15.8702 163.509 15.702C163.223 15.5339 162.891 15.4498 162.512 15.4498C162.125 15.4498 161.785 15.5339 161.49 15.702C161.205 15.8702 160.977 16.1057 160.809 16.4084C160.649 16.7028 160.57 17.0518 160.57 17.4554V17.7077C160.57 18.1114 160.662 18.4688 160.847 18.7799C161.032 19.0911 161.293 19.3307 161.629 19.4989C161.966 19.6671 162.352 19.7512 162.79 19.7512C163.168 19.7512 163.509 19.6923 163.811 19.5746C164.114 19.4569 164.383 19.2719 164.619 19.0196L165.464 19.9909C165.161 20.3441 164.779 20.6174 164.316 20.8108C163.862 20.9958 163.341 21.0883 162.752 21.0883ZM173.807 21.1261C173.118 21.1261 172.458 21.0294 171.827 20.836C171.196 20.6342 170.696 20.3777 170.326 20.0666L170.894 18.7925C171.247 19.07 171.684 19.3013 172.205 19.4863C172.727 19.6713 173.261 19.7638 173.807 19.7638C174.27 19.7638 174.644 19.7134 174.93 19.6124C175.216 19.5115 175.426 19.377 175.561 19.2088C175.695 19.0322 175.763 18.8346 175.763 18.6159C175.763 18.3468 175.666 18.1324 175.472 17.9726C175.279 17.8044 175.027 17.6741 174.716 17.5816C174.413 17.4806 174.072 17.3881 173.694 17.304C173.324 17.22 172.95 17.1232 172.571 17.0139C172.201 16.8962 171.861 16.749 171.549 16.5724C171.247 16.3874 170.999 16.1435 170.805 15.8408C170.612 15.5381 170.515 15.1512 170.515 14.6803C170.515 14.201 170.641 13.7637 170.894 13.3684C171.154 12.9648 171.545 12.6452 172.067 12.4097C172.596 12.1659 173.265 12.0439 174.072 12.0439C174.602 12.0439 175.128 12.1112 175.649 12.2458C176.17 12.3803 176.625 12.5737 177.011 12.826L176.494 14.1C176.099 13.8646 175.691 13.6922 175.271 13.5829C174.85 13.4651 174.446 13.4063 174.06 13.4063C173.606 13.4063 173.236 13.4609 172.95 13.5703C172.672 13.6796 172.466 13.8225 172.332 13.9991C172.205 14.1757 172.142 14.3776 172.142 14.6046C172.142 14.8737 172.235 15.0924 172.42 15.2606C172.613 15.4203 172.861 15.5465 173.164 15.639C173.475 15.7315 173.82 15.824 174.198 15.9165C174.577 16.0006 174.951 16.0973 175.321 16.2066C175.7 16.3159 176.04 16.4589 176.343 16.6355C176.654 16.8121 176.902 17.0518 177.087 17.3545C177.28 17.6572 177.377 18.0399 177.377 18.5024C177.377 18.9733 177.247 19.4106 176.986 19.8143C176.734 20.2095 176.343 20.5291 175.813 20.7729C175.283 21.0084 174.615 21.1261 173.807 21.1261ZM182.018 21.0883C181.27 21.0883 180.614 20.9411 180.05 20.6468C179.495 20.3441 179.062 19.932 178.751 19.4106C178.448 18.8892 178.297 18.2964 178.297 17.632C178.297 16.9593 178.444 16.3664 178.738 15.8534C179.041 15.332 179.453 14.9242 179.975 14.6298C180.504 14.3355 181.106 14.1883 181.778 14.1883C182.434 14.1883 183.019 14.3313 183.532 14.6172C184.045 14.9031 184.448 15.3068 184.743 15.8282C185.037 16.3496 185.184 16.9635 185.184 17.6699C185.184 17.7371 185.18 17.8128 185.172 17.8969C185.172 17.981 185.167 18.0609 185.159 18.1366H179.546V17.0896H184.326L183.708 17.4176C183.717 17.0307 183.637 16.6902 183.469 16.3958C183.3 16.1015 183.069 15.8702 182.775 15.702C182.489 15.5339 182.157 15.4498 181.778 15.4498C181.392 15.4498 181.051 15.5339 180.757 15.702C180.471 15.8702 180.244 16.1057 180.075 16.4084C179.916 16.7028 179.836 17.0518 179.836 17.4554V17.7077C179.836 18.1114 179.928 18.4688 180.113 18.7799C180.298 19.0911 180.559 19.3307 180.895 19.4989C181.232 19.6671 181.619 19.7512 182.056 19.7512C182.434 19.7512 182.775 19.6923 183.078 19.5746C183.38 19.4569 183.649 19.2719 183.885 19.0196L184.73 19.9909C184.427 20.3441 184.045 20.6174 183.582 20.8108C183.128 20.9958 182.607 21.0883 182.018 21.0883ZM186.699 21V14.264H188.2V16.1183L188.023 15.5759C188.225 15.1218 188.54 14.777 188.969 14.5415C189.407 14.3061 189.949 14.1883 190.597 14.1883V15.6894C190.529 15.6726 190.466 15.6642 190.407 15.6642C190.348 15.6558 190.29 15.6516 190.231 15.6516C189.634 15.6516 189.159 15.8282 188.805 16.1814C188.452 16.5262 188.276 17.0434 188.276 17.7329V21H186.699ZM193.972 21L191.083 14.264H192.723L195.208 20.2053H194.401L196.974 14.264H198.488L195.599 21H193.972ZM199.473 21V14.264H201.05V21H199.473ZM200.268 13.154C199.973 13.154 199.73 13.0615 199.536 12.8765C199.351 12.6915 199.259 12.4686 199.259 12.2079C199.259 11.9388 199.351 11.716 199.536 11.5394C199.73 11.3544 199.973 11.2619 200.268 11.2619C200.562 11.2619 200.802 11.3502 200.987 11.5268C201.18 11.6949 201.277 11.9094 201.277 12.1701C201.277 12.4476 201.184 12.6831 200.999 12.8765C200.814 13.0615 200.571 13.154 200.268 13.154ZM206.21 21.0883C205.503 21.0883 204.873 20.9411 204.318 20.6468C203.771 20.3441 203.342 19.932 203.031 19.4106C202.72 18.8892 202.564 18.2964 202.564 17.632C202.564 16.9593 202.72 16.3664 203.031 15.8534C203.342 15.332 203.771 14.9242 204.318 14.6298C204.873 14.3355 205.503 14.1883 206.21 14.1883C206.866 14.1883 207.442 14.3229 207.938 14.592C208.443 14.8527 208.825 15.2395 209.086 15.7525L207.875 16.4589C207.673 16.1393 207.425 15.9039 207.131 15.7525C206.845 15.6011 206.534 15.5254 206.197 15.5254C205.81 15.5254 205.461 15.6095 205.15 15.7777C204.839 15.9459 204.595 16.1898 204.419 16.5094C204.242 16.8205 204.154 17.1947 204.154 17.632C204.154 18.0693 204.242 18.4477 204.419 18.7673C204.595 19.0784 204.839 19.3181 205.15 19.4863C205.461 19.6545 205.81 19.7386 206.197 19.7386C206.534 19.7386 206.845 19.6629 207.131 19.5115C207.425 19.3602 207.673 19.1247 207.875 18.8051L209.086 19.5115C208.825 20.0161 208.443 20.4071 207.938 20.6846C207.442 20.9537 206.866 21.0883 206.21 21.0883ZM213.516 21.0883C212.768 21.0883 212.112 20.9411 211.549 20.6468C210.994 20.3441 210.561 19.932 210.249 19.4106C209.947 18.8892 209.795 18.2964 209.795 17.632C209.795 16.9593 209.942 16.3664 210.237 15.8534C210.54 15.332 210.952 14.9242 211.473 14.6298C212.003 14.3355 212.604 14.1883 213.277 14.1883C213.933 14.1883 214.517 14.3313 215.03 14.6172C215.543 14.9031 215.947 15.3068 216.241 15.8282C216.535 16.3496 216.683 16.9635 216.683 17.6699C216.683 17.7371 216.678 17.8128 216.67 17.8969C216.67 17.981 216.666 18.0609 216.657 18.1366H211.044V17.0896H215.825L215.207 17.4176C215.215 17.0307 215.135 16.6902 214.967 16.3958C214.799 16.1015 214.568 15.8702 214.273 15.702C213.987 15.5339 213.655 15.4498 213.277 15.4498C212.89 15.4498 212.549 15.5339 212.255 15.702C211.969 15.8702 211.742 16.1057 211.574 16.4084C211.414 16.7028 211.334 17.0518 211.334 17.4554V17.7077C211.334 18.1114 211.427 18.4688 211.612 18.7799C211.797 19.0911 212.057 19.3307 212.394 19.4989C212.73 19.6671 213.117 19.7512 213.554 19.7512C213.933 19.7512 214.273 19.6923 214.576 19.5746C214.879 19.4569 215.148 19.2719 215.383 19.0196L216.229 19.9909C215.926 20.3441 215.543 20.6174 215.081 20.8108C214.627 20.9958 214.105 21.0883 213.516 21.0883ZM220.279 21.0883C219.715 21.0883 219.173 21.0168 218.651 20.8739C218.138 20.7225 217.731 20.5417 217.428 20.3314L218.033 19.1331C218.336 19.3265 218.698 19.4863 219.118 19.6124C219.539 19.7386 219.959 19.8017 220.38 19.8017C220.876 19.8017 221.233 19.7344 221.452 19.5998C221.679 19.4653 221.792 19.2845 221.792 19.0574C221.792 18.8724 221.717 18.7337 221.565 18.6411C221.414 18.5402 221.216 18.4646 220.972 18.4141C220.728 18.3636 220.455 18.3174 220.152 18.2753C219.858 18.2333 219.56 18.1786 219.257 18.1114C218.963 18.0357 218.693 17.9306 218.45 17.796C218.206 17.653 218.008 17.4638 217.857 17.2284C217.705 16.9929 217.63 16.6817 217.63 16.2949C217.63 15.866 217.752 15.496 217.995 15.1849C218.239 14.8653 218.58 14.6214 219.017 14.4532C219.463 14.2766 219.988 14.1883 220.594 14.1883C221.048 14.1883 221.506 14.2388 221.969 14.3397C222.431 14.4406 222.814 14.5836 223.117 14.7686L222.511 15.9669C222.192 15.7735 221.868 15.6432 221.54 15.5759C221.22 15.5002 220.901 15.4624 220.581 15.4624C220.102 15.4624 219.745 15.5339 219.509 15.6768C219.282 15.8198 219.169 16.0006 219.169 16.2192C219.169 16.4211 219.244 16.5724 219.396 16.6733C219.547 16.7743 219.745 16.8541 219.988 16.913C220.232 16.9719 220.501 17.0223 220.796 17.0644C221.099 17.098 221.397 17.1527 221.691 17.2284C221.986 17.304 222.255 17.4092 222.499 17.5437C222.751 17.6699 222.953 17.8507 223.104 18.0861C223.256 18.3216 223.331 18.6285 223.331 19.007C223.331 19.4274 223.205 19.7932 222.953 20.1044C222.709 20.4155 222.36 20.6594 221.906 20.836C221.452 21.0042 220.909 21.0883 220.279 21.0883Z" fill="white"/>
  <defs>
    <clipPath id="clip0_597_4373">
      <rect width="31" height="32.6757" fill="white" transform="translate(0 0.16217)"/>
    </clipPath>
  </defs>
</svg>
